<?xml version="1.0" encoding="utf-8" standalone="no"?>
<!DOCTYPE svg PUBLIC "-//W3C//DTD SVG 1.1//EN"
  "http://www.w3.org/Graphics/SVG/1.1/DTD/svg11.dtd">
<svg xmlns:xlink="http://www.w3.org/1999/xlink" width="1016.914844pt" height="555.541406pt" viewBox="0 0 1016.914844 555.541406" xmlns="http://www.w3.org/2000/svg" version="1.1">
 <metadata>
  <rdf:RDF xmlns:dc="http://purl.org/dc/elements/1.1/" xmlns:cc="http://creativecommons.org/ns#" xmlns:rdf="http://www.w3.org/1999/02/22-rdf-syntax-ns#">
   <cc:Work>
    <dc:type rdf:resource="http://purl.org/dc/dcmitype/StillImage"/>
    <dc:date>2023-08-01T05:29:39.625859</dc:date>
    <dc:format>image/svg+xml</dc:format>
    <dc:creator>
     <cc:Agent>
      <dc:title>Matplotlib v3.7.2, https://matplotlib.org/</dc:title>
     </cc:Agent>
    </dc:creator>
   </cc:Work>
  </rdf:RDF>
 </metadata>
 <defs>
  <style type="text/css">*{stroke-linejoin: round; stroke-linecap: butt}</style>
 </defs>
 <g id="figure_1">
  <g id="patch_1">
   <path d="M 0 555.541406
L 1016.914844 555.541406
L 1016.914844 0
L 0 0
z
" style="fill: #ffffff"/>
  </g>
  <g id="axes_1">
   <g id="patch_2">
    <path d="M 58.998906 508.32
L 951.798906 508.32
L 951.798906 64.8
L 58.998906 64.8
z
" style="fill: #eaeaf2"/>
   </g>
   <g id="matplotlib.axis_1">
    <g id="xtick_1">
     <g id="line2d_1">
      <path d="M 109.747359 508.32
L 109.747359 64.8
" clip-path="url(#p7b0c22dd79)" style="fill: none; stroke: #ffffff; stroke-linecap: round"/>
     </g>
     <g id="text_1">
      <!-- Sun 6 AM -->
      <g style="fill: #262626" transform="translate(85.899703 525.693594) scale(0.11 -0.11)">
       <defs>
        <path id="ArialMT-53" d="M 288 1472
L 859 1522
Q 900 1178 1048 958
Q 1197 738 1509 602
Q 1822 466 2213 466
Q 2559 466 2825 569
Q 3091 672 3220 851
Q 3350 1031 3350 1244
Q 3350 1459 3225 1620
Q 3100 1781 2813 1891
Q 2628 1963 1997 2114
Q 1366 2266 1113 2400
Q 784 2572 623 2826
Q 463 3081 463 3397
Q 463 3744 659 4045
Q 856 4347 1234 4503
Q 1613 4659 2075 4659
Q 2584 4659 2973 4495
Q 3363 4331 3572 4012
Q 3781 3694 3797 3291
L 3216 3247
Q 3169 3681 2898 3903
Q 2628 4125 2100 4125
Q 1550 4125 1298 3923
Q 1047 3722 1047 3438
Q 1047 3191 1225 3031
Q 1400 2872 2139 2705
Q 2878 2538 3153 2413
Q 3553 2228 3743 1945
Q 3934 1663 3934 1294
Q 3934 928 3725 604
Q 3516 281 3123 101
Q 2731 -78 2241 -78
Q 1619 -78 1198 103
Q 778 284 539 648
Q 300 1013 288 1472
z
" transform="scale(0.015625)"/>
        <path id="ArialMT-75" d="M 2597 0
L 2597 488
Q 2209 -75 1544 -75
Q 1250 -75 995 37
Q 741 150 617 320
Q 494 491 444 738
Q 409 903 409 1263
L 409 3319
L 972 3319
L 972 1478
Q 972 1038 1006 884
Q 1059 663 1231 536
Q 1403 409 1656 409
Q 1909 409 2131 539
Q 2353 669 2445 892
Q 2538 1116 2538 1541
L 2538 3319
L 3100 3319
L 3100 0
L 2597 0
z
" transform="scale(0.015625)"/>
        <path id="ArialMT-6e" d="M 422 0
L 422 3319
L 928 3319
L 928 2847
Q 1294 3394 1984 3394
Q 2284 3394 2536 3286
Q 2788 3178 2913 3003
Q 3038 2828 3088 2588
Q 3119 2431 3119 2041
L 3119 0
L 2556 0
L 2556 2019
Q 2556 2363 2490 2533
Q 2425 2703 2258 2804
Q 2091 2906 1866 2906
Q 1506 2906 1245 2678
Q 984 2450 984 1813
L 984 0
L 422 0
z
" transform="scale(0.015625)"/>
        <path id="ArialMT-20" transform="scale(0.015625)"/>
        <path id="ArialMT-36" d="M 3184 3459
L 2625 3416
Q 2550 3747 2413 3897
Q 2184 4138 1850 4138
Q 1581 4138 1378 3988
Q 1113 3794 959 3422
Q 806 3050 800 2363
Q 1003 2672 1297 2822
Q 1591 2972 1913 2972
Q 2475 2972 2870 2558
Q 3266 2144 3266 1488
Q 3266 1056 3080 686
Q 2894 316 2569 119
Q 2244 -78 1831 -78
Q 1128 -78 684 439
Q 241 956 241 2144
Q 241 3472 731 4075
Q 1159 4600 1884 4600
Q 2425 4600 2770 4297
Q 3116 3994 3184 3459
z
M 888 1484
Q 888 1194 1011 928
Q 1134 663 1356 523
Q 1578 384 1822 384
Q 2178 384 2434 671
Q 2691 959 2691 1453
Q 2691 1928 2437 2201
Q 2184 2475 1800 2475
Q 1419 2475 1153 2201
Q 888 1928 888 1484
z
" transform="scale(0.015625)"/>
        <path id="ArialMT-41" d="M -9 0
L 1750 4581
L 2403 4581
L 4278 0
L 3588 0
L 3053 1388
L 1138 1388
L 634 0
L -9 0
z
M 1313 1881
L 2866 1881
L 2388 3150
Q 2169 3728 2063 4100
Q 1975 3659 1816 3225
L 1313 1881
z
" transform="scale(0.015625)"/>
        <path id="ArialMT-4d" d="M 475 0
L 475 4581
L 1388 4581
L 2472 1338
Q 2622 884 2691 659
Q 2769 909 2934 1394
L 4031 4581
L 4847 4581
L 4847 0
L 4263 0
L 4263 3834
L 2931 0
L 2384 0
L 1059 3900
L 1059 0
L 475 0
z
" transform="scale(0.015625)"/>
       </defs>
       <use xlink:href="#ArialMT-53"/>
       <use xlink:href="#ArialMT-75" x="66.699219"/>
       <use xlink:href="#ArialMT-6e" x="122.314453"/>
       <use xlink:href="#ArialMT-20" x="177.929688"/>
       <use xlink:href="#ArialMT-36" x="205.712891"/>
       <use xlink:href="#ArialMT-20" x="261.328125"/>
       <use xlink:href="#ArialMT-41" x="283.611328"/>
       <use xlink:href="#ArialMT-4d" x="350.310547"/>
      </g>
     </g>
    </g>
    <g id="xtick_2">
     <g id="line2d_2">
      <path d="M 211.41371 508.32
L 211.41371 64.8
" clip-path="url(#p7b0c22dd79)" style="fill: none; stroke: #ffffff; stroke-linecap: round"/>
     </g>
     <g id="text_2">
      <!-- Sun 12 PM -->
      <g style="fill: #262626" transform="translate(184.205038 525.693594) scale(0.11 -0.11)">
       <defs>
        <path id="ArialMT-31" d="M 2384 0
L 1822 0
L 1822 3584
Q 1619 3391 1289 3197
Q 959 3003 697 2906
L 697 3450
Q 1169 3672 1522 3987
Q 1875 4303 2022 4600
L 2384 4600
L 2384 0
z
" transform="scale(0.015625)"/>
        <path id="ArialMT-32" d="M 3222 541
L 3222 0
L 194 0
Q 188 203 259 391
Q 375 700 629 1000
Q 884 1300 1366 1694
Q 2113 2306 2375 2664
Q 2638 3022 2638 3341
Q 2638 3675 2398 3904
Q 2159 4134 1775 4134
Q 1369 4134 1125 3890
Q 881 3647 878 3216
L 300 3275
Q 359 3922 746 4261
Q 1134 4600 1788 4600
Q 2447 4600 2831 4234
Q 3216 3869 3216 3328
Q 3216 3053 3103 2787
Q 2991 2522 2730 2228
Q 2469 1934 1863 1422
Q 1356 997 1212 845
Q 1069 694 975 541
L 3222 541
z
" transform="scale(0.015625)"/>
        <path id="ArialMT-50" d="M 494 0
L 494 4581
L 2222 4581
Q 2678 4581 2919 4538
Q 3256 4481 3484 4323
Q 3713 4166 3852 3881
Q 3991 3597 3991 3256
Q 3991 2672 3619 2267
Q 3247 1863 2275 1863
L 1100 1863
L 1100 0
L 494 0
z
M 1100 2403
L 2284 2403
Q 2872 2403 3119 2622
Q 3366 2841 3366 3238
Q 3366 3525 3220 3729
Q 3075 3934 2838 4000
Q 2684 4041 2272 4041
L 1100 4041
L 1100 2403
z
" transform="scale(0.015625)"/>
       </defs>
       <use xlink:href="#ArialMT-53"/>
       <use xlink:href="#ArialMT-75" x="66.699219"/>
       <use xlink:href="#ArialMT-6e" x="122.314453"/>
       <use xlink:href="#ArialMT-20" x="177.929688"/>
       <use xlink:href="#ArialMT-31" x="205.712891"/>
       <use xlink:href="#ArialMT-32" x="261.328125"/>
       <use xlink:href="#ArialMT-20" x="316.943359"/>
       <use xlink:href="#ArialMT-50" x="344.726562"/>
       <use xlink:href="#ArialMT-4d" x="411.425781"/>
      </g>
     </g>
    </g>
    <g id="xtick_3">
     <g id="line2d_3">
      <path d="M 313.08006 508.32
L 313.08006 64.8
" clip-path="url(#p7b0c22dd79)" style="fill: none; stroke: #ffffff; stroke-linecap: round"/>
     </g>
     <g id="text_3">
      <!-- Sun 6 PM -->
      <g style="fill: #262626" transform="translate(288.929904 525.693594) scale(0.11 -0.11)">
       <use xlink:href="#ArialMT-53"/>
       <use xlink:href="#ArialMT-75" x="66.699219"/>
       <use xlink:href="#ArialMT-6e" x="122.314453"/>
       <use xlink:href="#ArialMT-20" x="177.929688"/>
       <use xlink:href="#ArialMT-36" x="205.712891"/>
       <use xlink:href="#ArialMT-20" x="261.328125"/>
       <use xlink:href="#ArialMT-50" x="289.111328"/>
       <use xlink:href="#ArialMT-4d" x="355.810547"/>
      </g>
     </g>
    </g>
    <g id="xtick_4">
     <g id="line2d_4">
      <path d="M 414.746411 508.32
L 414.746411 64.8
" clip-path="url(#p7b0c22dd79)" style="fill: none; stroke: #ffffff; stroke-linecap: round"/>
     </g>
     <g id="text_4">
      <!-- Mon 12 AM -->
      <g style="fill: #262626" transform="translate(386.927582 525.693594) scale(0.11 -0.11)">
       <defs>
        <path id="ArialMT-6f" d="M 213 1659
Q 213 2581 725 3025
Q 1153 3394 1769 3394
Q 2453 3394 2887 2945
Q 3322 2497 3322 1706
Q 3322 1066 3130 698
Q 2938 331 2570 128
Q 2203 -75 1769 -75
Q 1072 -75 642 372
Q 213 819 213 1659
z
M 791 1659
Q 791 1022 1069 705
Q 1347 388 1769 388
Q 2188 388 2466 706
Q 2744 1025 2744 1678
Q 2744 2294 2464 2611
Q 2184 2928 1769 2928
Q 1347 2928 1069 2612
Q 791 2297 791 1659
z
" transform="scale(0.015625)"/>
       </defs>
       <use xlink:href="#ArialMT-4d"/>
       <use xlink:href="#ArialMT-6f" x="83.300781"/>
       <use xlink:href="#ArialMT-6e" x="138.916016"/>
       <use xlink:href="#ArialMT-20" x="194.53125"/>
       <use xlink:href="#ArialMT-31" x="222.314453"/>
       <use xlink:href="#ArialMT-32" x="277.929688"/>
       <use xlink:href="#ArialMT-20" x="333.544922"/>
       <use xlink:href="#ArialMT-41" x="355.828125"/>
       <use xlink:href="#ArialMT-4d" x="422.527344"/>
      </g>
     </g>
    </g>
    <g id="xtick_5">
     <g id="line2d_5">
      <path d="M 516.412761 508.32
L 516.412761 64.8
" clip-path="url(#p7b0c22dd79)" style="fill: none; stroke: #ffffff; stroke-linecap: round"/>
     </g>
     <g id="text_5">
      <!-- Mon 6 AM -->
      <g style="fill: #262626" transform="translate(491.652448 525.693594) scale(0.11 -0.11)">
       <use xlink:href="#ArialMT-4d"/>
       <use xlink:href="#ArialMT-6f" x="83.300781"/>
       <use xlink:href="#ArialMT-6e" x="138.916016"/>
       <use xlink:href="#ArialMT-20" x="194.53125"/>
       <use xlink:href="#ArialMT-36" x="222.314453"/>
       <use xlink:href="#ArialMT-20" x="277.929688"/>
       <use xlink:href="#ArialMT-41" x="300.212891"/>
       <use xlink:href="#ArialMT-4d" x="366.912109"/>
      </g>
     </g>
    </g>
    <g id="xtick_6">
     <g id="line2d_6">
      <path d="M 618.079111 508.32
L 618.079111 64.8
" clip-path="url(#p7b0c22dd79)" style="fill: none; stroke: #ffffff; stroke-linecap: round"/>
     </g>
     <g id="text_6">
      <!-- Mon 12 PM -->
      <g style="fill: #262626" transform="translate(589.957783 525.693594) scale(0.11 -0.11)">
       <use xlink:href="#ArialMT-4d"/>
       <use xlink:href="#ArialMT-6f" x="83.300781"/>
       <use xlink:href="#ArialMT-6e" x="138.916016"/>
       <use xlink:href="#ArialMT-20" x="194.53125"/>
       <use xlink:href="#ArialMT-31" x="222.314453"/>
       <use xlink:href="#ArialMT-32" x="277.929688"/>
       <use xlink:href="#ArialMT-20" x="333.544922"/>
       <use xlink:href="#ArialMT-50" x="361.328125"/>
       <use xlink:href="#ArialMT-4d" x="428.027344"/>
      </g>
     </g>
    </g>
    <g id="xtick_7">
     <g id="line2d_7">
      <path d="M 719.745462 508.32
L 719.745462 64.8
" clip-path="url(#p7b0c22dd79)" style="fill: none; stroke: #ffffff; stroke-linecap: round"/>
     </g>
     <g id="text_7">
      <!-- Mon 6 PM -->
      <g style="fill: #262626" transform="translate(694.682649 525.693594) scale(0.11 -0.11)">
       <use xlink:href="#ArialMT-4d"/>
       <use xlink:href="#ArialMT-6f" x="83.300781"/>
       <use xlink:href="#ArialMT-6e" x="138.916016"/>
       <use xlink:href="#ArialMT-20" x="194.53125"/>
       <use xlink:href="#ArialMT-36" x="222.314453"/>
       <use xlink:href="#ArialMT-20" x="277.929688"/>
       <use xlink:href="#ArialMT-50" x="305.712891"/>
       <use xlink:href="#ArialMT-4d" x="372.412109"/>
      </g>
     </g>
    </g>
    <g id="xtick_8">
     <g id="line2d_8">
      <path d="M 821.411812 508.32
L 821.411812 64.8
" clip-path="url(#p7b0c22dd79)" style="fill: none; stroke: #ffffff; stroke-linecap: round"/>
     </g>
     <g id="text_8">
      <!-- Tue 12 AM -->
      <g style="fill: #262626" transform="translate(795.021265 525.693594) scale(0.11 -0.11)">
       <defs>
        <path id="ArialMT-54" d="M 1659 0
L 1659 4041
L 150 4041
L 150 4581
L 3781 4581
L 3781 4041
L 2266 4041
L 2266 0
L 1659 0
z
" transform="scale(0.015625)"/>
        <path id="ArialMT-65" d="M 2694 1069
L 3275 997
Q 3138 488 2766 206
Q 2394 -75 1816 -75
Q 1088 -75 661 373
Q 234 822 234 1631
Q 234 2469 665 2931
Q 1097 3394 1784 3394
Q 2450 3394 2872 2941
Q 3294 2488 3294 1666
Q 3294 1616 3291 1516
L 816 1516
Q 847 969 1125 678
Q 1403 388 1819 388
Q 2128 388 2347 550
Q 2566 713 2694 1069
z
M 847 1978
L 2700 1978
Q 2663 2397 2488 2606
Q 2219 2931 1791 2931
Q 1403 2931 1139 2672
Q 875 2413 847 1978
z
" transform="scale(0.015625)"/>
       </defs>
       <use xlink:href="#ArialMT-54"/>
       <use xlink:href="#ArialMT-75" x="57.333984"/>
       <use xlink:href="#ArialMT-65" x="112.949219"/>
       <use xlink:href="#ArialMT-20" x="168.564453"/>
       <use xlink:href="#ArialMT-31" x="196.347656"/>
       <use xlink:href="#ArialMT-32" x="251.962891"/>
       <use xlink:href="#ArialMT-20" x="307.578125"/>
       <use xlink:href="#ArialMT-41" x="329.861328"/>
       <use xlink:href="#ArialMT-4d" x="396.560547"/>
      </g>
     </g>
    </g>
    <g id="xtick_9">
     <g id="line2d_9">
      <path d="M 923.078162 508.32
L 923.078162 64.8
" clip-path="url(#p7b0c22dd79)" style="fill: none; stroke: #ffffff; stroke-linecap: round"/>
     </g>
     <g id="text_9">
      <!-- Tue 6 AM -->
      <g style="fill: #262626" transform="translate(899.746131 525.693594) scale(0.11 -0.11)">
       <use xlink:href="#ArialMT-54"/>
       <use xlink:href="#ArialMT-75" x="57.333984"/>
       <use xlink:href="#ArialMT-65" x="112.949219"/>
       <use xlink:href="#ArialMT-20" x="168.564453"/>
       <use xlink:href="#ArialMT-36" x="196.347656"/>
       <use xlink:href="#ArialMT-20" x="251.962891"/>
       <use xlink:href="#ArialMT-41" x="274.246094"/>
       <use xlink:href="#ArialMT-4d" x="340.945312"/>
      </g>
     </g>
    </g>
    <g id="text_10">
     <!-- Time -->
     <g style="fill: #262626" transform="translate(485.738125 544.763906) scale(0.18 -0.18)">
      <defs>
       <path id="ArialMT-69" d="M 425 3934
L 425 4581
L 988 4581
L 988 3934
L 425 3934
z
M 425 0
L 425 3319
L 988 3319
L 988 0
L 425 0
z
" transform="scale(0.015625)"/>
       <path id="ArialMT-6d" d="M 422 0
L 422 3319
L 925 3319
L 925 2853
Q 1081 3097 1340 3245
Q 1600 3394 1931 3394
Q 2300 3394 2536 3241
Q 2772 3088 2869 2813
Q 3263 3394 3894 3394
Q 4388 3394 4653 3120
Q 4919 2847 4919 2278
L 4919 0
L 4359 0
L 4359 2091
Q 4359 2428 4304 2576
Q 4250 2725 4106 2815
Q 3963 2906 3769 2906
Q 3419 2906 3187 2673
Q 2956 2441 2956 1928
L 2956 0
L 2394 0
L 2394 2156
Q 2394 2531 2256 2718
Q 2119 2906 1806 2906
Q 1569 2906 1367 2781
Q 1166 2656 1075 2415
Q 984 2175 984 1722
L 984 0
L 422 0
z
" transform="scale(0.015625)"/>
      </defs>
      <use xlink:href="#ArialMT-54"/>
      <use xlink:href="#ArialMT-69" x="57.333984"/>
      <use xlink:href="#ArialMT-6d" x="79.550781"/>
      <use xlink:href="#ArialMT-65" x="162.851562"/>
     </g>
    </g>
   </g>
   <g id="matplotlib.axis_2">
    <g id="ytick_1">
     <g id="line2d_10">
      <path d="M 58.998906 449.140645
L 951.798906 449.140645
" clip-path="url(#p7b0c22dd79)" style="fill: none; stroke: #ffffff; stroke-linecap: round"/>
     </g>
     <g id="line2d_11">
      <defs>
       <path id="m7560da8464" d="M 0 0
L -6 0
" style="stroke: #262626; stroke-width: 1.25"/>
      </defs>
      <g>
       <use xlink:href="#m7560da8464" x="58.998906" y="449.140645" style="fill: #262626; stroke: #262626; stroke-width: 1.25"/>
      </g>
     </g>
     <g id="text_11">
      <!-- 73.0 -->
      <g style="fill: #262626" transform="translate(28.091875 453.077442) scale(0.11 -0.11)">
       <defs>
        <path id="ArialMT-37" d="M 303 3981
L 303 4522
L 3269 4522
L 3269 4084
Q 2831 3619 2401 2847
Q 1972 2075 1738 1259
Q 1569 684 1522 0
L 944 0
Q 953 541 1156 1306
Q 1359 2072 1739 2783
Q 2119 3494 2547 3981
L 303 3981
z
" transform="scale(0.015625)"/>
        <path id="ArialMT-33" d="M 269 1209
L 831 1284
Q 928 806 1161 595
Q 1394 384 1728 384
Q 2125 384 2398 659
Q 2672 934 2672 1341
Q 2672 1728 2419 1979
Q 2166 2231 1775 2231
Q 1616 2231 1378 2169
L 1441 2663
Q 1497 2656 1531 2656
Q 1891 2656 2178 2843
Q 2466 3031 2466 3422
Q 2466 3731 2256 3934
Q 2047 4138 1716 4138
Q 1388 4138 1169 3931
Q 950 3725 888 3313
L 325 3413
Q 428 3978 793 4289
Q 1159 4600 1703 4600
Q 2078 4600 2393 4439
Q 2709 4278 2876 4000
Q 3044 3722 3044 3409
Q 3044 3113 2884 2869
Q 2725 2625 2413 2481
Q 2819 2388 3044 2092
Q 3269 1797 3269 1353
Q 3269 753 2831 336
Q 2394 -81 1725 -81
Q 1122 -81 723 278
Q 325 638 269 1209
z
" transform="scale(0.015625)"/>
        <path id="ArialMT-2e" d="M 581 0
L 581 641
L 1222 641
L 1222 0
L 581 0
z
" transform="scale(0.015625)"/>
        <path id="ArialMT-30" d="M 266 2259
Q 266 3072 433 3567
Q 600 4063 929 4331
Q 1259 4600 1759 4600
Q 2128 4600 2406 4451
Q 2684 4303 2865 4023
Q 3047 3744 3150 3342
Q 3253 2941 3253 2259
Q 3253 1453 3087 958
Q 2922 463 2592 192
Q 2263 -78 1759 -78
Q 1097 -78 719 397
Q 266 969 266 2259
z
M 844 2259
Q 844 1131 1108 757
Q 1372 384 1759 384
Q 2147 384 2411 759
Q 2675 1134 2675 2259
Q 2675 3391 2411 3762
Q 2147 4134 1753 4134
Q 1366 4134 1134 3806
Q 844 3388 844 2259
z
" transform="scale(0.015625)"/>
       </defs>
       <use xlink:href="#ArialMT-37"/>
       <use xlink:href="#ArialMT-33" x="55.615234"/>
       <use xlink:href="#ArialMT-2e" x="111.230469"/>
       <use xlink:href="#ArialMT-30" x="139.013672"/>
      </g>
     </g>
    </g>
    <g id="ytick_2">
     <g id="line2d_12">
      <path d="M 58.998906 384.108387
L 951.798906 384.108387
" clip-path="url(#p7b0c22dd79)" style="fill: none; stroke: #ffffff; stroke-linecap: round"/>
     </g>
     <g id="line2d_13">
      <g>
       <use xlink:href="#m7560da8464" x="58.998906" y="384.108387" style="fill: #262626; stroke: #262626; stroke-width: 1.25"/>
      </g>
     </g>
     <g id="text_12">
      <!-- 73.5 -->
      <g style="fill: #262626" transform="translate(28.091875 388.045184) scale(0.11 -0.11)">
       <defs>
        <path id="ArialMT-35" d="M 266 1200
L 856 1250
Q 922 819 1161 601
Q 1400 384 1738 384
Q 2144 384 2425 690
Q 2706 997 2706 1503
Q 2706 1984 2436 2262
Q 2166 2541 1728 2541
Q 1456 2541 1237 2417
Q 1019 2294 894 2097
L 366 2166
L 809 4519
L 3088 4519
L 3088 3981
L 1259 3981
L 1013 2750
Q 1425 3038 1878 3038
Q 2478 3038 2890 2622
Q 3303 2206 3303 1553
Q 3303 931 2941 478
Q 2500 -78 1738 -78
Q 1113 -78 717 272
Q 322 622 266 1200
z
" transform="scale(0.015625)"/>
       </defs>
       <use xlink:href="#ArialMT-37"/>
       <use xlink:href="#ArialMT-33" x="55.615234"/>
       <use xlink:href="#ArialMT-2e" x="111.230469"/>
       <use xlink:href="#ArialMT-35" x="139.013672"/>
      </g>
     </g>
    </g>
    <g id="ytick_3">
     <g id="line2d_14">
      <path d="M 58.998906 319.076129
L 951.798906 319.076129
" clip-path="url(#p7b0c22dd79)" style="fill: none; stroke: #ffffff; stroke-linecap: round"/>
     </g>
     <g id="line2d_15">
      <g>
       <use xlink:href="#m7560da8464" x="58.998906" y="319.076129" style="fill: #262626; stroke: #262626; stroke-width: 1.25"/>
      </g>
     </g>
     <g id="text_13">
      <!-- 74.0 -->
      <g style="fill: #262626" transform="translate(28.091875 323.012926) scale(0.11 -0.11)">
       <defs>
        <path id="ArialMT-34" d="M 2069 0
L 2069 1097
L 81 1097
L 81 1613
L 2172 4581
L 2631 4581
L 2631 1613
L 3250 1613
L 3250 1097
L 2631 1097
L 2631 0
L 2069 0
z
M 2069 1613
L 2069 3678
L 634 1613
L 2069 1613
z
" transform="scale(0.015625)"/>
       </defs>
       <use xlink:href="#ArialMT-37"/>
       <use xlink:href="#ArialMT-34" x="55.615234"/>
       <use xlink:href="#ArialMT-2e" x="111.230469"/>
       <use xlink:href="#ArialMT-30" x="139.013672"/>
      </g>
     </g>
    </g>
    <g id="ytick_4">
     <g id="line2d_16">
      <path d="M 58.998906 254.043871
L 951.798906 254.043871
" clip-path="url(#p7b0c22dd79)" style="fill: none; stroke: #ffffff; stroke-linecap: round"/>
     </g>
     <g id="line2d_17">
      <g>
       <use xlink:href="#m7560da8464" x="58.998906" y="254.043871" style="fill: #262626; stroke: #262626; stroke-width: 1.25"/>
      </g>
     </g>
     <g id="text_14">
      <!-- 74.5 -->
      <g style="fill: #262626" transform="translate(28.091875 257.980668) scale(0.11 -0.11)">
       <use xlink:href="#ArialMT-37"/>
       <use xlink:href="#ArialMT-34" x="55.615234"/>
       <use xlink:href="#ArialMT-2e" x="111.230469"/>
       <use xlink:href="#ArialMT-35" x="139.013672"/>
      </g>
     </g>
    </g>
    <g id="ytick_5">
     <g id="line2d_18">
      <path d="M 58.998906 189.011613
L 951.798906 189.011613
" clip-path="url(#p7b0c22dd79)" style="fill: none; stroke: #ffffff; stroke-linecap: round"/>
     </g>
     <g id="line2d_19">
      <g>
       <use xlink:href="#m7560da8464" x="58.998906" y="189.011613" style="fill: #262626; stroke: #262626; stroke-width: 1.25"/>
      </g>
     </g>
     <g id="text_15">
      <!-- 75.0 -->
      <g style="fill: #262626" transform="translate(28.091875 192.94841) scale(0.11 -0.11)">
       <use xlink:href="#ArialMT-37"/>
       <use xlink:href="#ArialMT-35" x="55.615234"/>
       <use xlink:href="#ArialMT-2e" x="111.230469"/>
       <use xlink:href="#ArialMT-30" x="139.013672"/>
      </g>
     </g>
    </g>
    <g id="ytick_6">
     <g id="line2d_20">
      <path d="M 58.998906 123.979355
L 951.798906 123.979355
" clip-path="url(#p7b0c22dd79)" style="fill: none; stroke: #ffffff; stroke-linecap: round"/>
     </g>
     <g id="line2d_21">
      <g>
       <use xlink:href="#m7560da8464" x="58.998906" y="123.979355" style="fill: #262626; stroke: #262626; stroke-width: 1.25"/>
      </g>
     </g>
     <g id="text_16">
      <!-- 75.5 -->
      <g style="fill: #262626" transform="translate(28.091875 127.916152) scale(0.11 -0.11)">
       <use xlink:href="#ArialMT-37"/>
       <use xlink:href="#ArialMT-35" x="55.615234"/>
       <use xlink:href="#ArialMT-2e" x="111.230469"/>
       <use xlink:href="#ArialMT-35" x="139.013672"/>
      </g>
     </g>
    </g>
    <g id="text_17">
     <!-- Water Temp (°F) -->
     <g style="fill: #262626" transform="translate(20.303438 352.15875) rotate(-90) scale(0.18 -0.18)">
      <defs>
       <path id="ArialMT-57" d="M 1294 0
L 78 4581
L 700 4581
L 1397 1578
Q 1509 1106 1591 641
Q 1766 1375 1797 1488
L 2669 4581
L 3400 4581
L 4056 2263
Q 4303 1400 4413 641
Q 4500 1075 4641 1638
L 5359 4581
L 5969 4581
L 4713 0
L 4128 0
L 3163 3491
Q 3041 3928 3019 4028
Q 2947 3713 2884 3491
L 1913 0
L 1294 0
z
" transform="scale(0.015625)"/>
       <path id="ArialMT-61" d="M 2588 409
Q 2275 144 1986 34
Q 1697 -75 1366 -75
Q 819 -75 525 192
Q 231 459 231 875
Q 231 1119 342 1320
Q 453 1522 633 1644
Q 813 1766 1038 1828
Q 1203 1872 1538 1913
Q 2219 1994 2541 2106
Q 2544 2222 2544 2253
Q 2544 2597 2384 2738
Q 2169 2928 1744 2928
Q 1347 2928 1158 2789
Q 969 2650 878 2297
L 328 2372
Q 403 2725 575 2942
Q 747 3159 1072 3276
Q 1397 3394 1825 3394
Q 2250 3394 2515 3294
Q 2781 3194 2906 3042
Q 3031 2891 3081 2659
Q 3109 2516 3109 2141
L 3109 1391
Q 3109 606 3145 398
Q 3181 191 3288 0
L 2700 0
Q 2613 175 2588 409
z
M 2541 1666
Q 2234 1541 1622 1453
Q 1275 1403 1131 1340
Q 988 1278 909 1158
Q 831 1038 831 891
Q 831 666 1001 516
Q 1172 366 1500 366
Q 1825 366 2078 508
Q 2331 650 2450 897
Q 2541 1088 2541 1459
L 2541 1666
z
" transform="scale(0.015625)"/>
       <path id="ArialMT-74" d="M 1650 503
L 1731 6
Q 1494 -44 1306 -44
Q 1000 -44 831 53
Q 663 150 594 308
Q 525 466 525 972
L 525 2881
L 113 2881
L 113 3319
L 525 3319
L 525 4141
L 1084 4478
L 1084 3319
L 1650 3319
L 1650 2881
L 1084 2881
L 1084 941
Q 1084 700 1114 631
Q 1144 563 1211 522
Q 1278 481 1403 481
Q 1497 481 1650 503
z
" transform="scale(0.015625)"/>
       <path id="ArialMT-72" d="M 416 0
L 416 3319
L 922 3319
L 922 2816
Q 1116 3169 1280 3281
Q 1444 3394 1641 3394
Q 1925 3394 2219 3213
L 2025 2691
Q 1819 2813 1613 2813
Q 1428 2813 1281 2702
Q 1134 2591 1072 2394
Q 978 2094 978 1738
L 978 0
L 416 0
z
" transform="scale(0.015625)"/>
       <path id="ArialMT-70" d="M 422 -1272
L 422 3319
L 934 3319
L 934 2888
Q 1116 3141 1344 3267
Q 1572 3394 1897 3394
Q 2322 3394 2647 3175
Q 2972 2956 3137 2557
Q 3303 2159 3303 1684
Q 3303 1175 3120 767
Q 2938 359 2589 142
Q 2241 -75 1856 -75
Q 1575 -75 1351 44
Q 1128 163 984 344
L 984 -1272
L 422 -1272
z
M 931 1641
Q 931 1000 1190 694
Q 1450 388 1819 388
Q 2194 388 2461 705
Q 2728 1022 2728 1688
Q 2728 2322 2467 2637
Q 2206 2953 1844 2953
Q 1484 2953 1207 2617
Q 931 2281 931 1641
z
" transform="scale(0.015625)"/>
       <path id="ArialMT-28" d="M 1497 -1347
Q 1031 -759 709 28
Q 388 816 388 1659
Q 388 2403 628 3084
Q 909 3875 1497 4659
L 1900 4659
Q 1522 4009 1400 3731
Q 1209 3300 1100 2831
Q 966 2247 966 1656
Q 966 153 1900 -1347
L 1497 -1347
z
" transform="scale(0.015625)"/>
       <path id="ArialMT-b0" d="M 400 3794
Q 400 4153 654 4406
Q 909 4659 1266 4659
Q 1628 4659 1881 4406
Q 2134 4153 2134 3794
Q 2134 3434 1879 3179
Q 1625 2925 1266 2925
Q 909 2925 654 3178
Q 400 3431 400 3794
z
M 741 3794
Q 741 3575 895 3420
Q 1050 3266 1269 3266
Q 1484 3266 1639 3420
Q 1794 3575 1794 3794
Q 1794 4013 1639 4167
Q 1484 4322 1269 4322
Q 1050 4322 895 4167
Q 741 4013 741 3794
z
" transform="scale(0.015625)"/>
       <path id="ArialMT-46" d="M 525 0
L 525 4581
L 3616 4581
L 3616 4041
L 1131 4041
L 1131 2622
L 3281 2622
L 3281 2081
L 1131 2081
L 1131 0
L 525 0
z
" transform="scale(0.015625)"/>
       <path id="ArialMT-29" d="M 791 -1347
L 388 -1347
Q 1322 153 1322 1656
Q 1322 2244 1188 2822
Q 1081 3291 891 3722
Q 769 4003 388 4659
L 791 4659
Q 1378 3875 1659 3084
Q 1900 2403 1900 1659
Q 1900 816 1576 28
Q 1253 -759 791 -1347
z
" transform="scale(0.015625)"/>
      </defs>
      <use xlink:href="#ArialMT-57"/>
      <use xlink:href="#ArialMT-61" x="90.634766"/>
      <use xlink:href="#ArialMT-74" x="146.25"/>
      <use xlink:href="#ArialMT-65" x="174.033203"/>
      <use xlink:href="#ArialMT-72" x="229.648438"/>
      <use xlink:href="#ArialMT-20" x="262.949219"/>
      <use xlink:href="#ArialMT-54" x="288.982422"/>
      <use xlink:href="#ArialMT-65" x="338.941406"/>
      <use xlink:href="#ArialMT-6d" x="394.556641"/>
      <use xlink:href="#ArialMT-70" x="477.857422"/>
      <use xlink:href="#ArialMT-20" x="533.472656"/>
      <use xlink:href="#ArialMT-28" x="561.255859"/>
      <use xlink:href="#ArialMT-b0" x="594.556641"/>
      <use xlink:href="#ArialMT-46" x="634.546875"/>
      <use xlink:href="#ArialMT-29" x="695.630859"/>
     </g>
    </g>
   </g>
   <g id="PolyCollection_1"/>
   <g id="PolyCollection_2"/>
   <g id="line2d_22">
    <path d="M 99.580724 306.069677
L 102.969603 306.069677
L 104.664042 319.076129
L 106.358481 319.076129
L 108.05292 332.082581
L 111.441799 332.082581
L 113.136238 319.076129
L 116.525116 319.076129
L 119.913995 293.063226
L 121.608434 306.069677
L 123.302873 293.063226
L 124.997312 293.063226
L 126.691751 306.069677
L 130.08063 306.069677
L 131.775069 319.076129
L 133.469508 306.069677
L 136.858386 306.069677
L 140.247265 332.082581
L 143.636143 306.069677
L 147.025021 306.069677
L 148.71946 319.076129
L 150.4139 306.069677
L 152.108339 332.082581
L 153.802778 345.089032
L 155.497217 332.082581
L 157.191656 332.082581
L 160.580535 306.069677
L 163.969413 332.082581
L 170.74717 332.082581
L 172.441609 319.076129
L 174.136048 319.076129
L 175.830487 332.082581
L 177.524926 293.063226
L 179.219366 319.076129
L 180.913805 319.076129
L 182.608244 306.069677
L 184.302683 306.069677
L 185.997122 267.050323
L 187.691561 293.063226
L 189.386001 280.056774
L 192.774879 280.056774
L 194.469318 293.063226
L 196.163757 267.050323
L 197.858196 280.056774
L 199.552636 267.050323
L 201.247075 267.050323
L 202.941514 254.043871
L 206.330392 254.043871
L 208.024831 267.050323
L 209.719271 254.043871
L 211.41371 254.043871
L 213.108149 228.030968
L 214.802588 280.056774
L 216.497027 267.050323
L 218.191467 280.056774
L 219.885906 267.050323
L 221.580345 267.050323
L 223.274784 254.043871
L 226.663662 254.043871
L 228.358102 241.037419
L 230.052541 254.043871
L 231.74698 254.043871
L 233.441419 215.024516
L 235.135858 215.024516
L 236.830297 189.011613
L 238.524737 202.018065
L 240.219176 176.005161
L 241.913615 176.005161
L 243.608054 162.99871
L 245.302493 136.985806
L 246.996932 176.005161
L 248.691372 136.985806
L 250.385811 123.979355
L 252.08025 202.018065
L 253.774689 215.024516
L 255.469128 162.99871
L 257.163567 189.011613
L 258.858007 149.992258
L 262.246885 228.030968
L 263.941324 84.96
L 265.635763 136.985806
L 267.330203 136.985806
L 269.024642 110.972903
L 270.719081 123.979355
L 272.41352 123.979355
L 274.107959 110.972903
L 275.802398 136.985806
L 277.496838 176.005161
L 279.191277 136.985806
L 282.580155 215.024516
L 284.274594 293.063226
L 285.969033 332.082581
L 287.663473 358.095484
L 291.052351 332.082581
L 292.74679 306.069677
L 294.441229 293.063226
L 296.135668 254.043871
L 297.830108 254.043871
L 299.524547 293.063226
L 301.218986 254.043871
L 302.913425 254.043871
L 304.607864 241.037419
L 306.302303 215.024516
L 307.996743 228.030968
L 309.691182 267.050323
L 311.385621 332.082581
L 313.08006 358.095484
L 316.468939 384.108387
L 318.163378 358.095484
L 321.552256 332.082581
L 323.246695 332.082581
L 328.330013 293.063226
L 330.024452 293.063226
L 333.41333 267.050323
L 335.107769 267.050323
L 336.802209 254.043871
L 338.496648 293.063226
L 340.191087 306.069677
L 341.885526 280.056774
L 348.663283 280.056774
L 350.357722 293.063226
L 352.052161 293.063226
L 353.7466 306.069677
L 360.524357 306.069677
L 362.218796 332.082581
L 365.607675 332.082581
L 367.302114 371.101935
L 368.996553 345.089032
L 370.690992 345.089032
L 372.385431 332.082581
L 375.77431 332.082581
L 379.163188 410.12129
L 380.857627 436.134194
L 384.246505 384.108387
L 385.940945 410.12129
L 387.635384 410.12129
L 389.329823 371.101935
L 392.718701 397.114839
L 394.41314 384.108387
L 396.10758 358.095484
L 397.802019 345.089032
L 399.496458 358.095484
L 401.190897 358.095484
L 404.579775 332.082581
L 406.274215 345.089032
L 421.524167 345.089032
L 423.218606 332.082581
L 426.607485 332.082581
L 428.301924 345.089032
L 438.468559 345.089032
L 440.162998 358.095484
L 441.857437 345.089032
L 450.329633 345.089032
L 452.024072 358.095484
L 457.10739 358.095484
L 458.801829 345.089032
L 472.357342 345.089032
L 474.051782 332.082581
L 477.44066 332.082581
L 479.135099 319.076129
L 489.301734 319.076129
L 490.996173 332.082581
L 496.079491 332.082581
L 497.77393 384.108387
L 499.468369 397.114839
L 502.857247 397.114839
L 504.551687 384.108387
L 506.246126 384.108387
L 507.940565 397.114839
L 514.718322 397.114839
L 516.412761 410.12129
L 519.801639 410.12129
L 521.496078 423.127742
L 524.884957 423.127742
L 526.579396 410.12129
L 528.273835 410.12129
L 529.968274 423.127742
L 531.662713 423.127742
L 533.357153 410.12129
L 540.134909 410.12129
L 545.218227 449.140645
L 546.912666 475.153548
L 548.607105 475.153548
L 550.301544 488.16
L 553.690423 462.147097
L 562.162619 462.147097
L 565.551497 488.16
L 567.245936 488.16
L 568.940375 462.147097
L 582.495889 462.147097
L 584.190328 449.140645
L 585.884767 462.147097
L 589.273645 436.134194
L 590.968084 436.134194
L 592.662524 423.127742
L 594.356963 423.127742
L 596.051402 410.12129
L 597.745841 423.127742
L 599.44028 423.127742
L 601.134719 397.114839
L 602.829159 436.134194
L 604.523598 397.114839
L 606.218037 384.108387
L 607.912476 410.12129
L 611.301355 410.12129
L 612.995794 345.089032
L 614.690233 397.114839
L 616.384672 384.108387
L 619.77355 384.108387
L 621.46799 371.101935
L 623.162429 371.101935
L 624.856868 332.082581
L 626.551307 280.056774
L 628.245746 280.056774
L 629.940185 293.063226
L 631.634625 267.050323
L 633.329064 280.056774
L 635.023503 332.082581
L 636.717942 345.089032
L 638.412381 306.069677
L 641.80126 306.069677
L 643.495699 293.063226
L 646.884577 293.063226
L 650.273455 267.050323
L 651.967895 280.056774
L 653.662334 280.056774
L 655.356773 254.043871
L 657.051212 241.037419
L 658.745651 267.050323
L 660.440091 254.043871
L 662.13453 267.050323
L 665.523408 241.037419
L 672.301165 241.037419
L 673.995604 202.018065
L 677.384482 202.018065
L 682.4678 162.99871
L 685.856678 162.99871
L 687.551117 228.030968
L 690.939996 254.043871
L 692.634435 228.030968
L 694.328874 189.011613
L 696.023313 162.99871
L 697.717752 162.99871
L 699.412192 136.985806
L 701.106631 241.037419
L 702.80107 306.069677
L 704.495509 332.082581
L 706.189948 319.076129
L 707.884387 371.101935
L 709.578827 345.089032
L 711.273266 384.108387
L 712.967705 358.095484
L 716.356583 410.12129
L 718.051022 397.114839
L 719.745462 371.101935
L 723.13434 371.101935
L 724.828779 397.114839
L 726.523218 397.114839
L 728.217657 358.095484
L 729.912097 384.108387
L 731.606536 371.101935
L 734.995414 371.101935
L 736.689853 332.082581
L 738.384292 319.076129
L 740.078732 319.076129
L 741.773171 358.095484
L 743.46761 358.095484
L 745.162049 384.108387
L 746.856488 371.101935
L 748.550928 371.101935
L 750.245367 384.108387
L 753.634245 384.108387
L 755.328684 371.101935
L 760.412002 371.101935
L 762.106441 358.095484
L 765.495319 384.108387
L 768.884198 384.108387
L 770.578637 397.114839
L 779.050833 397.114839
L 780.745272 410.12129
L 782.439711 410.12129
L 784.13415 436.134194
L 785.828589 436.134194
L 787.523028 423.127742
L 789.217468 436.134194
L 790.911907 436.134194
L 792.606346 449.140645
L 795.995224 449.140645
L 797.689664 488.16
L 801.078542 488.16
L 802.772981 462.147097
L 809.550738 462.147097
L 811.245177 488.16
L 812.939616 488.16
L 814.634055 462.147097
L 816.328494 449.140645
L 821.411812 449.140645
L 823.106251 462.147097
L 824.80069 462.147097
L 826.495129 449.140645
L 829.884008 449.140645
L 831.578447 436.134194
L 833.272886 449.140645
L 834.967325 449.140645
L 836.661764 436.134194
L 843.439521 436.134194
L 845.13396 423.127742
L 848.522839 423.127742
L 850.217278 436.134194
L 858.689474 436.134194
L 860.383913 423.127742
L 880.717183 423.127742
L 882.411622 410.12129
L 884.106061 410.12129
L 885.8005 397.114839
L 899.356014 397.114839
L 902.744892 371.101935
L 904.439331 371.101935
L 906.133771 358.095484
L 909.522649 384.108387
L 911.217088 384.108387
L 911.217088 384.108387
" clip-path="url(#p7b0c22dd79)" style="fill: none; stroke: #4c72b0; stroke-width: 1.5; stroke-linecap: round"/>
   </g>
   <g id="line2d_23">
    <path d="M 99.580724 319.076129
L 101.275164 317.775484
L 102.969603 315.824516
L 104.664042 314.523871
L 108.05292 313.223226
L 109.747359 311.922581
L 111.441799 311.272258
L 114.830677 311.272258
L 116.525116 311.922581
L 123.302873 311.922581
L 124.997312 312.572903
L 126.691751 311.922581
L 130.08063 309.32129
L 131.775069 308.670968
L 133.469508 308.670968
L 135.163947 308.020645
L 136.858386 309.32129
L 138.552825 311.922581
L 140.247265 313.223226
L 141.941704 315.174194
L 143.636143 316.474839
L 145.330582 316.474839
L 147.025021 317.125161
L 148.71946 318.425806
L 150.4139 319.076129
L 155.497217 322.978065
L 157.191656 322.978065
L 158.886095 322.327742
L 160.580535 322.978065
L 162.274974 322.327742
L 165.663852 323.628387
L 167.358291 322.978065
L 169.052731 322.978065
L 170.74717 319.726452
L 175.830487 311.922581
L 177.524926 309.971613
L 179.219366 309.32129
L 182.608244 304.11871
L 185.997122 297.615484
L 189.386001 289.811613
L 191.08044 286.56
L 192.774879 283.95871
L 194.469318 280.056774
L 196.163757 278.105806
L 197.858196 273.553548
L 201.247075 269.651613
L 202.941514 268.350968
L 204.635953 268.350968
L 211.41371 263.148387
L 213.108149 260.547097
L 214.802588 259.896774
L 216.497027 258.596129
L 219.885906 253.393548
L 221.580345 250.141935
L 223.274784 247.540645
L 224.969223 243.63871
L 228.358102 234.534194
L 230.052541 228.68129
L 231.74698 226.08
L 235.135858 211.772903
L 236.830297 207.870968
L 238.524737 205.269677
L 240.219176 200.067097
L 241.913615 196.815484
L 243.608054 191.612903
L 245.302493 188.36129
L 246.996932 187.710968
L 248.691372 179.256774
L 250.385811 173.403871
L 252.08025 169.501935
L 253.774689 164.299355
L 255.469128 161.047742
L 257.163567 157.145806
L 258.858007 153.894194
L 260.552446 151.943226
L 262.246885 152.593548
L 265.635763 152.593548
L 267.330203 156.495484
L 269.024642 164.949677
L 270.719081 171.452903
L 272.41352 178.606452
L 274.107959 187.710968
L 275.802398 194.864516
L 277.496838 202.668387
L 279.191277 207.870968
L 280.885716 209.171613
L 282.580155 217.625806
L 284.274594 225.429677
L 285.969033 231.282581
L 287.663473 238.436129
L 289.357912 244.289032
L 291.052351 248.84129
L 292.74679 254.694194
L 294.441229 261.197419
L 296.135668 269.00129
L 297.830108 280.056774
L 299.524547 289.811613
L 301.218986 298.265806
L 302.913425 301.517419
L 304.607864 302.167742
L 306.302303 300.867097
L 309.691182 299.566452
L 313.08006 299.566452
L 314.774499 301.517419
L 316.468939 302.818065
L 318.163378 301.517419
L 319.857817 302.167742
L 321.552256 302.167742
L 323.246695 304.769032
L 324.941134 309.32129
L 326.635574 311.922581
L 328.330013 312.572903
L 330.024452 309.971613
L 331.718891 306.069677
L 335.107769 296.965161
L 336.802209 293.713548
L 338.496648 291.762581
L 341.885526 289.16129
L 343.579965 288.510968
L 345.274404 288.510968
L 348.663283 292.412903
L 350.357722 295.014194
L 352.052161 300.216774
L 353.7466 304.11871
L 355.441039 308.670968
L 357.135479 310.621935
L 358.829918 311.922581
L 360.524357 314.523871
L 362.218796 319.076129
L 363.913235 325.579355
L 365.607675 333.383226
L 367.302114 339.886452
L 368.996553 344.43871
L 370.690992 350.291613
L 372.385431 355.494194
L 374.07987 358.745806
L 375.77431 362.647742
L 377.468749 367.2
L 379.163188 371.101935
L 380.857627 372.402581
L 382.552066 373.052903
L 384.246505 374.353548
L 385.940945 373.703226
L 387.635384 373.703226
L 389.329823 373.052903
L 394.41314 375.003871
L 396.10758 373.703226
L 397.802019 370.451613
L 399.496458 365.899355
L 401.190897 362.647742
L 402.885336 360.696774
L 406.274215 354.193548
L 407.968654 352.242581
L 409.663093 349.64129
L 411.357532 346.389677
L 413.051971 344.43871
L 414.746411 343.788387
L 416.44085 343.788387
L 419.829728 342.487742
L 421.524167 342.487742
L 424.913046 343.788387
L 435.079681 343.788387
L 440.162998 345.739355
L 441.857437 347.04
L 445.246316 348.340645
L 457.10739 348.340645
L 458.801829 347.04
L 462.190707 345.739355
L 468.968464 340.536774
L 474.051782 334.683871
L 475.746221 333.383226
L 480.829538 331.432258
L 482.523977 333.383226
L 487.607295 341.187097
L 490.996173 345.089032
L 496.079491 354.843871
L 499.468369 362.647742
L 504.551687 376.304516
L 507.940565 386.709677
L 509.635004 391.261935
L 513.023883 399.065806
L 514.718322 403.618065
L 516.412761 405.569032
L 521.496078 407.52
L 526.579396 411.421935
L 528.273835 413.372903
L 529.968274 415.974194
L 535.051592 427.68
L 536.746031 430.931613
L 538.44047 433.532903
L 543.523788 439.385806
L 548.607105 447.189677
L 550.301544 450.44129
L 551.995983 454.343226
L 558.77374 464.748387
L 560.468179 466.699355
L 562.162619 468
L 563.857058 468.650323
L 567.245936 467.349677
L 568.940375 465.39871
L 572.329254 464.098065
L 575.718132 461.496774
L 579.10701 457.594839
L 582.495889 452.392258
L 584.190328 449.140645
L 585.884767 444.588387
L 587.579206 443.287742
L 589.273645 440.036129
L 590.968084 436.134194
L 596.051402 428.330323
L 597.745841 422.477419
L 599.44028 419.225806
L 601.134719 415.323871
L 602.829159 412.072258
L 606.218037 404.268387
L 607.912476 401.016774
L 609.606915 395.814194
L 612.995794 381.507097
L 614.690233 375.654194
L 616.384672 367.850323
L 618.079111 360.696774
L 619.77355 357.445161
L 623.162429 348.340645
L 624.856868 344.43871
L 626.551307 339.236129
L 629.940185 327.530323
L 631.634625 324.929032
L 635.023503 313.223226
L 638.412381 302.818065
L 640.10682 296.965161
L 641.80126 290.461935
L 643.495699 287.210323
L 645.190138 285.909677
L 646.884577 285.259355
L 648.579016 283.308387
L 650.273455 282.007742
L 651.967895 280.056774
L 653.662334 275.504516
L 655.356773 270.301935
L 657.051212 267.050323
L 660.440091 256.645161
L 662.13453 252.092903
L 663.828969 246.890323
L 667.217847 235.184516
L 668.912286 229.981935
L 670.606726 224.129032
L 672.301165 221.527742
L 673.995604 220.877419
L 675.690043 221.527742
L 677.384482 219.576774
L 679.078921 216.325161
L 680.773361 211.122581
L 682.4678 206.570323
L 684.162239 201.367742
L 685.856678 201.367742
L 687.551117 204.619355
L 689.245556 209.171613
L 690.939996 213.073548
L 692.634435 221.527742
L 694.328874 228.68129
L 696.023313 237.785806
L 697.717752 246.24
L 699.412192 256.645161
L 702.80107 280.707097
L 704.495509 291.112258
L 706.189948 298.265806
L 707.884387 304.769032
L 709.578827 311.922581
L 712.967705 328.830968
L 718.051022 361.997419
L 719.745462 368.500645
L 721.439901 369.80129
L 723.13434 369.150968
L 724.828779 369.150968
L 726.523218 368.500645
L 728.217657 369.150968
L 729.912097 369.150968
L 731.606536 369.80129
L 733.300975 369.150968
L 734.995414 367.850323
L 736.689853 367.2
L 738.384292 367.850323
L 741.773171 367.850323
L 745.162049 365.249032
L 746.856488 365.249032
L 748.550928 364.59871
L 753.634245 366.549677
L 755.328684 369.80129
L 758.717563 377.605161
L 762.106441 381.507097
L 763.80088 382.157419
L 767.189758 386.059355
L 770.578637 391.261935
L 772.273076 393.212903
L 775.661954 399.716129
L 779.050833 407.52
L 780.745272 412.072258
L 782.439711 417.925161
L 785.828589 428.330323
L 787.523028 432.232258
L 794.300785 445.23871
L 797.689664 454.343226
L 799.384103 456.944516
L 801.078542 458.895484
L 804.46742 460.196129
L 809.550738 464.098065
L 814.634055 464.098065
L 816.328494 461.496774
L 819.717373 457.594839
L 828.189569 451.091613
L 831.578447 444.588387
L 833.272886 442.637419
L 840.050643 440.036129
L 848.522839 433.532903
L 850.217278 432.882581
L 853.606156 430.28129
L 862.078352 427.029677
L 865.46723 427.029677
L 867.16167 426.379355
L 868.856109 425.07871
L 877.328305 415.323871
L 884.106061 410.12129
L 885.8005 408.170323
L 889.189379 402.967742
L 890.883818 399.716129
L 892.578257 397.114839
L 895.967136 393.212903
L 895.967136 393.212903
" clip-path="url(#p7b0c22dd79)" style="fill: none; stroke-dasharray: 6,2.25; stroke-dashoffset: 0; stroke: #dd8452; stroke-width: 1.5"/>
   </g>
   <g id="line2d_24"/>
   <g id="line2d_25"/>
   <g id="patch_3">
    <path d="M 58.998906 508.32
L 58.998906 64.8
" style="fill: none; stroke: #ffffff; stroke-width: 1.25; stroke-linejoin: miter; stroke-linecap: square"/>
   </g>
   <g id="patch_4">
    <path d="M 951.798906 508.32
L 951.798906 64.8
" style="fill: none; stroke: #ffffff; stroke-width: 1.25; stroke-linejoin: miter; stroke-linecap: square"/>
   </g>
   <g id="patch_5">
    <path d="M 58.998906 508.32
L 951.798906 508.32
" style="fill: none; stroke: #ffffff; stroke-width: 1.25; stroke-linejoin: miter; stroke-linecap: square"/>
   </g>
   <g id="patch_6">
    <path d="M 58.998906 64.8
L 951.798906 64.8
" style="fill: none; stroke: #ffffff; stroke-width: 1.25; stroke-linejoin: miter; stroke-linecap: square"/>
   </g>
   <g id="text_18">
    <!-- 48-hour, live -->
    <g style="fill: #262626" transform="translate(456.371406 58.8) scale(0.18 -0.18)">
     <defs>
      <path id="ArialMT-38" d="M 1131 2484
Q 781 2613 612 2850
Q 444 3088 444 3419
Q 444 3919 803 4259
Q 1163 4600 1759 4600
Q 2359 4600 2725 4251
Q 3091 3903 3091 3403
Q 3091 3084 2923 2848
Q 2756 2613 2416 2484
Q 2838 2347 3058 2040
Q 3278 1734 3278 1309
Q 3278 722 2862 322
Q 2447 -78 1769 -78
Q 1091 -78 675 323
Q 259 725 259 1325
Q 259 1772 486 2073
Q 713 2375 1131 2484
z
M 1019 3438
Q 1019 3113 1228 2906
Q 1438 2700 1772 2700
Q 2097 2700 2305 2904
Q 2513 3109 2513 3406
Q 2513 3716 2298 3927
Q 2084 4138 1766 4138
Q 1444 4138 1231 3931
Q 1019 3725 1019 3438
z
M 838 1322
Q 838 1081 952 856
Q 1066 631 1291 507
Q 1516 384 1775 384
Q 2178 384 2440 643
Q 2703 903 2703 1303
Q 2703 1709 2433 1975
Q 2163 2241 1756 2241
Q 1359 2241 1098 1978
Q 838 1716 838 1322
z
" transform="scale(0.015625)"/>
      <path id="ArialMT-2d" d="M 203 1375
L 203 1941
L 1931 1941
L 1931 1375
L 203 1375
z
" transform="scale(0.015625)"/>
      <path id="ArialMT-68" d="M 422 0
L 422 4581
L 984 4581
L 984 2938
Q 1378 3394 1978 3394
Q 2347 3394 2619 3248
Q 2891 3103 3008 2847
Q 3125 2591 3125 2103
L 3125 0
L 2563 0
L 2563 2103
Q 2563 2525 2380 2717
Q 2197 2909 1863 2909
Q 1613 2909 1392 2779
Q 1172 2650 1078 2428
Q 984 2206 984 1816
L 984 0
L 422 0
z
" transform="scale(0.015625)"/>
      <path id="ArialMT-2c" d="M 569 0
L 569 641
L 1209 641
L 1209 0
Q 1209 -353 1084 -570
Q 959 -788 688 -906
L 531 -666
Q 709 -588 793 -436
Q 878 -284 888 0
L 569 0
z
" transform="scale(0.015625)"/>
      <path id="ArialMT-6c" d="M 409 0
L 409 4581
L 972 4581
L 972 0
L 409 0
z
" transform="scale(0.015625)"/>
      <path id="ArialMT-76" d="M 1344 0
L 81 3319
L 675 3319
L 1388 1331
Q 1503 1009 1600 663
Q 1675 925 1809 1294
L 2547 3319
L 3125 3319
L 1869 0
L 1344 0
z
" transform="scale(0.015625)"/>
     </defs>
     <use xlink:href="#ArialMT-34"/>
     <use xlink:href="#ArialMT-38" x="55.615234"/>
     <use xlink:href="#ArialMT-2d" x="111.230469"/>
     <use xlink:href="#ArialMT-68" x="144.53125"/>
     <use xlink:href="#ArialMT-6f" x="200.146484"/>
     <use xlink:href="#ArialMT-75" x="255.761719"/>
     <use xlink:href="#ArialMT-72" x="311.376953"/>
     <use xlink:href="#ArialMT-2c" x="339.177734"/>
     <use xlink:href="#ArialMT-20" x="366.960938"/>
     <use xlink:href="#ArialMT-6c" x="394.744141"/>
     <use xlink:href="#ArialMT-69" x="416.960938"/>
     <use xlink:href="#ArialMT-76" x="439.177734"/>
     <use xlink:href="#ArialMT-65" x="489.177734"/>
    </g>
   </g>
   <g id="legend_1">
    <g id="patch_7">
     <path d="M 853.888594 104.982656
L 944.098906 104.982656
Q 946.298906 104.982656 946.298906 102.782656
L 946.298906 72.5
Q 946.298906 70.3 944.098906 70.3
L 853.888594 70.3
Q 851.688594 70.3 851.688594 72.5
L 851.688594 102.782656
Q 851.688594 104.982656 853.888594 104.982656
z
" style="fill: #eaeaf2; opacity: 0.8; stroke: #cccccc; stroke-linejoin: miter"/>
    </g>
    <g id="line2d_26">
     <path d="M 856.088594 78.723594
L 867.088594 78.723594
L 878.088594 78.723594
" style="fill: none; stroke: #4c72b0; stroke-width: 1.5; stroke-linecap: round"/>
    </g>
    <g id="text_19">
     <!-- live -->
     <g style="fill: #262626" transform="translate(886.888594 82.573594) scale(0.11 -0.11)">
      <use xlink:href="#ArialMT-6c"/>
      <use xlink:href="#ArialMT-69" x="22.216797"/>
      <use xlink:href="#ArialMT-76" x="44.433594"/>
      <use xlink:href="#ArialMT-65" x="94.433594"/>
     </g>
    </g>
    <g id="line2d_27">
     <path d="M 856.088594 94.4175
L 867.088594 94.4175
L 878.088594 94.4175
" style="fill: none; stroke-dasharray: 6,2.25; stroke-dashoffset: 0; stroke: #dd8452; stroke-width: 1.5"/>
    </g>
    <g id="text_20">
     <!-- trend (2-hr) -->
     <g style="fill: #262626" transform="translate(886.888594 98.2675) scale(0.11 -0.11)">
      <defs>
       <path id="ArialMT-64" d="M 2575 0
L 2575 419
Q 2259 -75 1647 -75
Q 1250 -75 917 144
Q 584 363 401 755
Q 219 1147 219 1656
Q 219 2153 384 2558
Q 550 2963 881 3178
Q 1213 3394 1622 3394
Q 1922 3394 2156 3267
Q 2391 3141 2538 2938
L 2538 4581
L 3097 4581
L 3097 0
L 2575 0
z
M 797 1656
Q 797 1019 1065 703
Q 1334 388 1700 388
Q 2069 388 2326 689
Q 2584 991 2584 1609
Q 2584 2291 2321 2609
Q 2059 2928 1675 2928
Q 1300 2928 1048 2622
Q 797 2316 797 1656
z
" transform="scale(0.015625)"/>
      </defs>
      <use xlink:href="#ArialMT-74"/>
      <use xlink:href="#ArialMT-72" x="27.783203"/>
      <use xlink:href="#ArialMT-65" x="61.083984"/>
      <use xlink:href="#ArialMT-6e" x="116.699219"/>
      <use xlink:href="#ArialMT-64" x="172.314453"/>
      <use xlink:href="#ArialMT-20" x="227.929688"/>
      <use xlink:href="#ArialMT-28" x="255.712891"/>
      <use xlink:href="#ArialMT-32" x="289.013672"/>
      <use xlink:href="#ArialMT-2d" x="344.628906"/>
      <use xlink:href="#ArialMT-68" x="377.929688"/>
      <use xlink:href="#ArialMT-72" x="433.544922"/>
      <use xlink:href="#ArialMT-29" x="466.845703"/>
     </g>
    </g>
   </g>
  </g>
  <g id="axes_2">
   <g id="matplotlib.axis_3">
    <g id="ytick_7">
     <g id="line2d_28">
      <defs>
       <path id="m660d7f79db" d="M 0 0
L 6 0
" style="stroke: #262626; stroke-width: 1.25"/>
      </defs>
      <g>
       <use xlink:href="#m660d7f79db" x="951.798906" y="455.643871" style="fill: #262626; stroke: #262626; stroke-width: 1.25"/>
      </g>
     </g>
     <g id="text_21">
      <!-- 22.75 -->
      <g style="fill: #262626" transform="translate(961.298906 459.580668) scale(0.11 -0.11)">
       <use xlink:href="#ArialMT-32"/>
       <use xlink:href="#ArialMT-32" x="55.615234"/>
       <use xlink:href="#ArialMT-2e" x="111.230469"/>
       <use xlink:href="#ArialMT-37" x="139.013672"/>
       <use xlink:href="#ArialMT-35" x="194.628906"/>
      </g>
     </g>
    </g>
    <g id="ytick_8">
     <g id="line2d_29">
      <g>
       <use xlink:href="#m660d7f79db" x="951.798906" y="397.114839" style="fill: #262626; stroke: #262626; stroke-width: 1.25"/>
      </g>
     </g>
     <g id="text_22">
      <!-- 23.00 -->
      <g style="fill: #262626" transform="translate(961.298906 401.051636) scale(0.11 -0.11)">
       <use xlink:href="#ArialMT-32"/>
       <use xlink:href="#ArialMT-33" x="55.615234"/>
       <use xlink:href="#ArialMT-2e" x="111.230469"/>
       <use xlink:href="#ArialMT-30" x="139.013672"/>
       <use xlink:href="#ArialMT-30" x="194.628906"/>
      </g>
     </g>
    </g>
    <g id="ytick_9">
     <g id="line2d_30">
      <g>
       <use xlink:href="#m660d7f79db" x="951.798906" y="338.585806" style="fill: #262626; stroke: #262626; stroke-width: 1.25"/>
      </g>
     </g>
     <g id="text_23">
      <!-- 23.25 -->
      <g style="fill: #262626" transform="translate(961.298906 342.522603) scale(0.11 -0.11)">
       <use xlink:href="#ArialMT-32"/>
       <use xlink:href="#ArialMT-33" x="55.615234"/>
       <use xlink:href="#ArialMT-2e" x="111.230469"/>
       <use xlink:href="#ArialMT-32" x="139.013672"/>
       <use xlink:href="#ArialMT-35" x="194.628906"/>
      </g>
     </g>
    </g>
    <g id="ytick_10">
     <g id="line2d_31">
      <g>
       <use xlink:href="#m660d7f79db" x="951.798906" y="280.056774" style="fill: #262626; stroke: #262626; stroke-width: 1.25"/>
      </g>
     </g>
     <g id="text_24">
      <!-- 23.50 -->
      <g style="fill: #262626" transform="translate(961.298906 283.993571) scale(0.11 -0.11)">
       <use xlink:href="#ArialMT-32"/>
       <use xlink:href="#ArialMT-33" x="55.615234"/>
       <use xlink:href="#ArialMT-2e" x="111.230469"/>
       <use xlink:href="#ArialMT-35" x="139.013672"/>
       <use xlink:href="#ArialMT-30" x="194.628906"/>
      </g>
     </g>
    </g>
    <g id="ytick_11">
     <g id="line2d_32">
      <g>
       <use xlink:href="#m660d7f79db" x="951.798906" y="221.527742" style="fill: #262626; stroke: #262626; stroke-width: 1.25"/>
      </g>
     </g>
     <g id="text_25">
      <!-- 23.75 -->
      <g style="fill: #262626" transform="translate(961.298906 225.464539) scale(0.11 -0.11)">
       <use xlink:href="#ArialMT-32"/>
       <use xlink:href="#ArialMT-33" x="55.615234"/>
       <use xlink:href="#ArialMT-2e" x="111.230469"/>
       <use xlink:href="#ArialMT-37" x="139.013672"/>
       <use xlink:href="#ArialMT-35" x="194.628906"/>
      </g>
     </g>
    </g>
    <g id="ytick_12">
     <g id="line2d_33">
      <g>
       <use xlink:href="#m660d7f79db" x="951.798906" y="162.99871" style="fill: #262626; stroke: #262626; stroke-width: 1.25"/>
      </g>
     </g>
     <g id="text_26">
      <!-- 24.00 -->
      <g style="fill: #262626" transform="translate(961.298906 166.935507) scale(0.11 -0.11)">
       <use xlink:href="#ArialMT-32"/>
       <use xlink:href="#ArialMT-34" x="55.615234"/>
       <use xlink:href="#ArialMT-2e" x="111.230469"/>
       <use xlink:href="#ArialMT-30" x="139.013672"/>
       <use xlink:href="#ArialMT-30" x="194.628906"/>
      </g>
     </g>
    </g>
    <g id="ytick_13">
     <g id="line2d_34">
      <g>
       <use xlink:href="#m660d7f79db" x="951.798906" y="104.469677" style="fill: #262626; stroke: #262626; stroke-width: 1.25"/>
      </g>
     </g>
     <g id="text_27">
      <!-- 24.25 -->
      <g style="fill: #262626" transform="translate(961.298906 108.406474) scale(0.11 -0.11)">
       <use xlink:href="#ArialMT-32"/>
       <use xlink:href="#ArialMT-34" x="55.615234"/>
       <use xlink:href="#ArialMT-2e" x="111.230469"/>
       <use xlink:href="#ArialMT-32" x="139.013672"/>
       <use xlink:href="#ArialMT-35" x="194.628906"/>
      </g>
     </g>
    </g>
    <g id="text_28">
     <!-- Water Temp (°C) -->
     <g style="fill: #262626" transform="translate(1005.926406 353.161406) rotate(-90) scale(0.18 -0.18)">
      <defs>
       <path id="ArialMT-43" d="M 3763 1606
L 4369 1453
Q 4178 706 3683 314
Q 3188 -78 2472 -78
Q 1731 -78 1267 223
Q 803 525 561 1097
Q 319 1669 319 2325
Q 319 3041 592 3573
Q 866 4106 1370 4382
Q 1875 4659 2481 4659
Q 3169 4659 3637 4309
Q 4106 3959 4291 3325
L 3694 3184
Q 3534 3684 3231 3912
Q 2928 4141 2469 4141
Q 1941 4141 1586 3887
Q 1231 3634 1087 3207
Q 944 2781 944 2328
Q 944 1744 1114 1308
Q 1284 872 1643 656
Q 2003 441 2422 441
Q 2931 441 3284 734
Q 3638 1028 3763 1606
z
" transform="scale(0.015625)"/>
      </defs>
      <use xlink:href="#ArialMT-57"/>
      <use xlink:href="#ArialMT-61" x="90.634766"/>
      <use xlink:href="#ArialMT-74" x="146.25"/>
      <use xlink:href="#ArialMT-65" x="174.033203"/>
      <use xlink:href="#ArialMT-72" x="229.648438"/>
      <use xlink:href="#ArialMT-20" x="262.949219"/>
      <use xlink:href="#ArialMT-54" x="288.982422"/>
      <use xlink:href="#ArialMT-65" x="338.941406"/>
      <use xlink:href="#ArialMT-6d" x="394.556641"/>
      <use xlink:href="#ArialMT-70" x="477.857422"/>
      <use xlink:href="#ArialMT-20" x="533.472656"/>
      <use xlink:href="#ArialMT-28" x="561.255859"/>
      <use xlink:href="#ArialMT-b0" x="594.556641"/>
      <use xlink:href="#ArialMT-43" x="634.546875"/>
      <use xlink:href="#ArialMT-29" x="706.763672"/>
     </g>
    </g>
   </g>
   <g id="patch_8">
    <path d="M 58.998906 508.32
L 58.998906 64.8
" style="fill: none; stroke: #ffffff; stroke-width: 1.25; stroke-linejoin: miter; stroke-linecap: square"/>
   </g>
   <g id="patch_9">
    <path d="M 951.798906 508.32
L 951.798906 64.8
" style="fill: none; stroke: #ffffff; stroke-width: 1.25; stroke-linejoin: miter; stroke-linecap: square"/>
   </g>
   <g id="patch_10">
    <path d="M 58.998906 508.32
L 951.798906 508.32
" style="fill: none; stroke: #ffffff; stroke-width: 1.25; stroke-linejoin: miter; stroke-linecap: square"/>
   </g>
   <g id="patch_11">
    <path d="M 58.998906 64.8
L 951.798906 64.8
" style="fill: none; stroke: #ffffff; stroke-width: 1.25; stroke-linejoin: miter; stroke-linecap: square"/>
   </g>
  </g>
  <g id="text_29">
   <!-- Battery NYC Water Temperature -->
   <g style="fill: #262626" transform="translate(318.950781 24.67125) scale(0.24 -0.24)">
    <defs>
     <path id="ArialMT-42" d="M 469 0
L 469 4581
L 2188 4581
Q 2713 4581 3030 4442
Q 3347 4303 3526 4014
Q 3706 3725 3706 3409
Q 3706 3116 3547 2856
Q 3388 2597 3066 2438
Q 3481 2316 3704 2022
Q 3928 1728 3928 1328
Q 3928 1006 3792 729
Q 3656 453 3456 303
Q 3256 153 2954 76
Q 2653 0 2216 0
L 469 0
z
M 1075 2656
L 2066 2656
Q 2469 2656 2644 2709
Q 2875 2778 2992 2937
Q 3109 3097 3109 3338
Q 3109 3566 3000 3739
Q 2891 3913 2687 3977
Q 2484 4041 1991 4041
L 1075 4041
L 1075 2656
z
M 1075 541
L 2216 541
Q 2509 541 2628 563
Q 2838 600 2978 687
Q 3119 775 3209 942
Q 3300 1109 3300 1328
Q 3300 1584 3169 1773
Q 3038 1963 2805 2039
Q 2572 2116 2134 2116
L 1075 2116
L 1075 541
z
" transform="scale(0.015625)"/>
     <path id="ArialMT-79" d="M 397 -1278
L 334 -750
Q 519 -800 656 -800
Q 844 -800 956 -737
Q 1069 -675 1141 -563
Q 1194 -478 1313 -144
Q 1328 -97 1363 -6
L 103 3319
L 709 3319
L 1400 1397
Q 1534 1031 1641 628
Q 1738 1016 1872 1384
L 2581 3319
L 3144 3319
L 1881 -56
Q 1678 -603 1566 -809
Q 1416 -1088 1222 -1217
Q 1028 -1347 759 -1347
Q 597 -1347 397 -1278
z
" transform="scale(0.015625)"/>
     <path id="ArialMT-4e" d="M 488 0
L 488 4581
L 1109 4581
L 3516 984
L 3516 4581
L 4097 4581
L 4097 0
L 3475 0
L 1069 3600
L 1069 0
L 488 0
z
" transform="scale(0.015625)"/>
     <path id="ArialMT-59" d="M 1784 0
L 1784 1941
L 19 4581
L 756 4581
L 1659 3200
Q 1909 2813 2125 2425
Q 2331 2784 2625 3234
L 3513 4581
L 4219 4581
L 2391 1941
L 2391 0
L 1784 0
z
" transform="scale(0.015625)"/>
    </defs>
    <use xlink:href="#ArialMT-42"/>
    <use xlink:href="#ArialMT-61" x="66.699219"/>
    <use xlink:href="#ArialMT-74" x="122.314453"/>
    <use xlink:href="#ArialMT-74" x="150.097656"/>
    <use xlink:href="#ArialMT-65" x="177.880859"/>
    <use xlink:href="#ArialMT-72" x="233.496094"/>
    <use xlink:href="#ArialMT-79" x="266.796875"/>
    <use xlink:href="#ArialMT-20" x="316.796875"/>
    <use xlink:href="#ArialMT-4e" x="344.580078"/>
    <use xlink:href="#ArialMT-59" x="416.796875"/>
    <use xlink:href="#ArialMT-43" x="483.496094"/>
    <use xlink:href="#ArialMT-20" x="555.712891"/>
    <use xlink:href="#ArialMT-57" x="583.496094"/>
    <use xlink:href="#ArialMT-61" x="674.130859"/>
    <use xlink:href="#ArialMT-74" x="729.746094"/>
    <use xlink:href="#ArialMT-65" x="757.529297"/>
    <use xlink:href="#ArialMT-72" x="813.144531"/>
    <use xlink:href="#ArialMT-20" x="846.445312"/>
    <use xlink:href="#ArialMT-54" x="872.478516"/>
    <use xlink:href="#ArialMT-65" x="922.4375"/>
    <use xlink:href="#ArialMT-6d" x="978.052734"/>
    <use xlink:href="#ArialMT-70" x="1061.353516"/>
    <use xlink:href="#ArialMT-65" x="1116.96875"/>
    <use xlink:href="#ArialMT-72" x="1172.583984"/>
    <use xlink:href="#ArialMT-61" x="1205.884766"/>
    <use xlink:href="#ArialMT-74" x="1261.5"/>
    <use xlink:href="#ArialMT-75" x="1289.283203"/>
    <use xlink:href="#ArialMT-72" x="1344.898438"/>
    <use xlink:href="#ArialMT-65" x="1378.199219"/>
   </g>
  </g>
 </g>
 <defs>
  <clipPath id="p7b0c22dd79">
   <rect x="58.998906" y="64.8" width="892.8" height="443.52"/>
  </clipPath>
 </defs>
</svg>
