<?xml version="1.0" encoding="utf-8" standalone="no"?>
<!DOCTYPE svg PUBLIC "-//W3C//DTD SVG 1.1//EN"
  "http://www.w3.org/Graphics/SVG/1.1/DTD/svg11.dtd">
<svg xmlns:xlink="http://www.w3.org/1999/xlink" width="1010.797812pt" height="555.541406pt" viewBox="0 0 1010.797812 555.541406" xmlns="http://www.w3.org/2000/svg" version="1.1">
 <metadata>
  <rdf:RDF xmlns:dc="http://purl.org/dc/elements/1.1/" xmlns:cc="http://creativecommons.org/ns#" xmlns:rdf="http://www.w3.org/1999/02/22-rdf-syntax-ns#">
   <cc:Work>
    <dc:type rdf:resource="http://purl.org/dc/dcmitype/StillImage"/>
    <dc:date>2023-04-22T10:14:50.594502</dc:date>
    <dc:format>image/svg+xml</dc:format>
    <dc:creator>
     <cc:Agent>
      <dc:title>Matplotlib v3.7.1, https://matplotlib.org/</dc:title>
     </cc:Agent>
    </dc:creator>
   </cc:Work>
  </rdf:RDF>
 </metadata>
 <defs>
  <style type="text/css">*{stroke-linejoin: round; stroke-linecap: butt}</style>
 </defs>
 <g id="figure_1">
  <g id="patch_1">
   <path d="M 0 555.541406
L 1010.797812 555.541406
L 1010.797812 0
L 0 0
z
" style="fill: #ffffff"/>
  </g>
  <g id="axes_1">
   <g id="patch_2">
    <path d="M 58.998906 508.32
L 951.798906 508.32
L 951.798906 64.8
L 58.998906 64.8
z
" style="fill: #eaeaf2"/>
   </g>
   <g id="matplotlib.axis_1">
    <g id="xtick_1">
     <g id="line2d_1">
      <path d="M 130.08063 508.32
L 130.08063 64.8
" clip-path="url(#p8e859aa151)" style="fill: none; stroke: #ffffff; stroke-linecap: round"/>
     </g>
     <g id="text_1">
      <!-- Thu 12 PM -->
      <g style="fill: #262626" transform="translate(103.181333 525.693594) scale(0.11 -0.11)">
       <defs>
        <path id="ArialMT-54" d="M 1659 0
L 1659 4041
L 150 4041
L 150 4581
L 3781 4581
L 3781 4041
L 2266 4041
L 2266 0
L 1659 0
z
" transform="scale(0.015625)"/>
        <path id="ArialMT-68" d="M 422 0
L 422 4581
L 984 4581
L 984 2938
Q 1378 3394 1978 3394
Q 2347 3394 2619 3248
Q 2891 3103 3008 2847
Q 3125 2591 3125 2103
L 3125 0
L 2563 0
L 2563 2103
Q 2563 2525 2380 2717
Q 2197 2909 1863 2909
Q 1613 2909 1392 2779
Q 1172 2650 1078 2428
Q 984 2206 984 1816
L 984 0
L 422 0
z
" transform="scale(0.015625)"/>
        <path id="ArialMT-75" d="M 2597 0
L 2597 488
Q 2209 -75 1544 -75
Q 1250 -75 995 37
Q 741 150 617 320
Q 494 491 444 738
Q 409 903 409 1263
L 409 3319
L 972 3319
L 972 1478
Q 972 1038 1006 884
Q 1059 663 1231 536
Q 1403 409 1656 409
Q 1909 409 2131 539
Q 2353 669 2445 892
Q 2538 1116 2538 1541
L 2538 3319
L 3100 3319
L 3100 0
L 2597 0
z
" transform="scale(0.015625)"/>
        <path id="ArialMT-20" transform="scale(0.015625)"/>
        <path id="ArialMT-31" d="M 2384 0
L 1822 0
L 1822 3584
Q 1619 3391 1289 3197
Q 959 3003 697 2906
L 697 3450
Q 1169 3672 1522 3987
Q 1875 4303 2022 4600
L 2384 4600
L 2384 0
z
" transform="scale(0.015625)"/>
        <path id="ArialMT-32" d="M 3222 541
L 3222 0
L 194 0
Q 188 203 259 391
Q 375 700 629 1000
Q 884 1300 1366 1694
Q 2113 2306 2375 2664
Q 2638 3022 2638 3341
Q 2638 3675 2398 3904
Q 2159 4134 1775 4134
Q 1369 4134 1125 3890
Q 881 3647 878 3216
L 300 3275
Q 359 3922 746 4261
Q 1134 4600 1788 4600
Q 2447 4600 2831 4234
Q 3216 3869 3216 3328
Q 3216 3053 3103 2787
Q 2991 2522 2730 2228
Q 2469 1934 1863 1422
Q 1356 997 1212 845
Q 1069 694 975 541
L 3222 541
z
" transform="scale(0.015625)"/>
        <path id="ArialMT-50" d="M 494 0
L 494 4581
L 2222 4581
Q 2678 4581 2919 4538
Q 3256 4481 3484 4323
Q 3713 4166 3852 3881
Q 3991 3597 3991 3256
Q 3991 2672 3619 2267
Q 3247 1863 2275 1863
L 1100 1863
L 1100 0
L 494 0
z
M 1100 2403
L 2284 2403
Q 2872 2403 3119 2622
Q 3366 2841 3366 3238
Q 3366 3525 3220 3729
Q 3075 3934 2838 4000
Q 2684 4041 2272 4041
L 1100 4041
L 1100 2403
z
" transform="scale(0.015625)"/>
        <path id="ArialMT-4d" d="M 475 0
L 475 4581
L 1388 4581
L 2472 1338
Q 2622 884 2691 659
Q 2769 909 2934 1394
L 4031 4581
L 4847 4581
L 4847 0
L 4263 0
L 4263 3834
L 2931 0
L 2384 0
L 1059 3900
L 1059 0
L 475 0
z
" transform="scale(0.015625)"/>
       </defs>
       <use xlink:href="#ArialMT-54"/>
       <use xlink:href="#ArialMT-68" x="61.083984"/>
       <use xlink:href="#ArialMT-75" x="116.699219"/>
       <use xlink:href="#ArialMT-20" x="172.314453"/>
       <use xlink:href="#ArialMT-31" x="200.097656"/>
       <use xlink:href="#ArialMT-32" x="255.712891"/>
       <use xlink:href="#ArialMT-20" x="311.328125"/>
       <use xlink:href="#ArialMT-50" x="339.111328"/>
       <use xlink:href="#ArialMT-4d" x="405.810547"/>
      </g>
     </g>
    </g>
    <g id="xtick_2">
     <g id="line2d_2">
      <path d="M 231.74698 508.32
L 231.74698 64.8
" clip-path="url(#p8e859aa151)" style="fill: none; stroke: #ffffff; stroke-linecap: round"/>
     </g>
     <g id="text_2">
      <!-- Thu 6 PM -->
      <g style="fill: #262626" transform="translate(207.906199 525.693594) scale(0.11 -0.11)">
       <defs>
        <path id="ArialMT-36" d="M 3184 3459
L 2625 3416
Q 2550 3747 2413 3897
Q 2184 4138 1850 4138
Q 1581 4138 1378 3988
Q 1113 3794 959 3422
Q 806 3050 800 2363
Q 1003 2672 1297 2822
Q 1591 2972 1913 2972
Q 2475 2972 2870 2558
Q 3266 2144 3266 1488
Q 3266 1056 3080 686
Q 2894 316 2569 119
Q 2244 -78 1831 -78
Q 1128 -78 684 439
Q 241 956 241 2144
Q 241 3472 731 4075
Q 1159 4600 1884 4600
Q 2425 4600 2770 4297
Q 3116 3994 3184 3459
z
M 888 1484
Q 888 1194 1011 928
Q 1134 663 1356 523
Q 1578 384 1822 384
Q 2178 384 2434 671
Q 2691 959 2691 1453
Q 2691 1928 2437 2201
Q 2184 2475 1800 2475
Q 1419 2475 1153 2201
Q 888 1928 888 1484
z
" transform="scale(0.015625)"/>
       </defs>
       <use xlink:href="#ArialMT-54"/>
       <use xlink:href="#ArialMT-68" x="61.083984"/>
       <use xlink:href="#ArialMT-75" x="116.699219"/>
       <use xlink:href="#ArialMT-20" x="172.314453"/>
       <use xlink:href="#ArialMT-36" x="200.097656"/>
       <use xlink:href="#ArialMT-20" x="255.712891"/>
       <use xlink:href="#ArialMT-50" x="283.496094"/>
       <use xlink:href="#ArialMT-4d" x="350.195312"/>
      </g>
     </g>
    </g>
    <g id="xtick_3">
     <g id="line2d_3">
      <path d="M 333.41333 508.32
L 333.41333 64.8
" clip-path="url(#p8e859aa151)" style="fill: none; stroke: #ffffff; stroke-linecap: round"/>
     </g>
     <g id="text_3">
      <!-- Fri 12 AM -->
      <g style="fill: #262626" transform="translate(309.880205 525.693594) scale(0.11 -0.11)">
       <defs>
        <path id="ArialMT-46" d="M 525 0
L 525 4581
L 3616 4581
L 3616 4041
L 1131 4041
L 1131 2622
L 3281 2622
L 3281 2081
L 1131 2081
L 1131 0
L 525 0
z
" transform="scale(0.015625)"/>
        <path id="ArialMT-72" d="M 416 0
L 416 3319
L 922 3319
L 922 2816
Q 1116 3169 1280 3281
Q 1444 3394 1641 3394
Q 1925 3394 2219 3213
L 2025 2691
Q 1819 2813 1613 2813
Q 1428 2813 1281 2702
Q 1134 2591 1072 2394
Q 978 2094 978 1738
L 978 0
L 416 0
z
" transform="scale(0.015625)"/>
        <path id="ArialMT-69" d="M 425 3934
L 425 4581
L 988 4581
L 988 3934
L 425 3934
z
M 425 0
L 425 3319
L 988 3319
L 988 0
L 425 0
z
" transform="scale(0.015625)"/>
        <path id="ArialMT-41" d="M -9 0
L 1750 4581
L 2403 4581
L 4278 0
L 3588 0
L 3053 1388
L 1138 1388
L 634 0
L -9 0
z
M 1313 1881
L 2866 1881
L 2388 3150
Q 2169 3728 2063 4100
Q 1975 3659 1816 3225
L 1313 1881
z
" transform="scale(0.015625)"/>
       </defs>
       <use xlink:href="#ArialMT-46"/>
       <use xlink:href="#ArialMT-72" x="61.083984"/>
       <use xlink:href="#ArialMT-69" x="94.384766"/>
       <use xlink:href="#ArialMT-20" x="116.601562"/>
       <use xlink:href="#ArialMT-31" x="144.384766"/>
       <use xlink:href="#ArialMT-32" x="200"/>
       <use xlink:href="#ArialMT-20" x="255.615234"/>
       <use xlink:href="#ArialMT-41" x="277.898438"/>
       <use xlink:href="#ArialMT-4d" x="344.597656"/>
      </g>
     </g>
    </g>
    <g id="xtick_4">
     <g id="line2d_4">
      <path d="M 435.079681 508.32
L 435.079681 64.8
" clip-path="url(#p8e859aa151)" style="fill: none; stroke: #ffffff; stroke-linecap: round"/>
     </g>
     <g id="text_4">
      <!-- Fri 6 AM -->
      <g style="fill: #262626" transform="translate(414.605071 525.693594) scale(0.11 -0.11)">
       <use xlink:href="#ArialMT-46"/>
       <use xlink:href="#ArialMT-72" x="61.083984"/>
       <use xlink:href="#ArialMT-69" x="94.384766"/>
       <use xlink:href="#ArialMT-20" x="116.601562"/>
       <use xlink:href="#ArialMT-36" x="144.384766"/>
       <use xlink:href="#ArialMT-20" x="200"/>
       <use xlink:href="#ArialMT-41" x="222.283203"/>
       <use xlink:href="#ArialMT-4d" x="288.982422"/>
      </g>
     </g>
    </g>
    <g id="xtick_5">
     <g id="line2d_5">
      <path d="M 536.746031 508.32
L 536.746031 64.8
" clip-path="url(#p8e859aa151)" style="fill: none; stroke: #ffffff; stroke-linecap: round"/>
     </g>
     <g id="text_5">
      <!-- Fri 12 PM -->
      <g style="fill: #262626" transform="translate(512.910406 525.693594) scale(0.11 -0.11)">
       <use xlink:href="#ArialMT-46"/>
       <use xlink:href="#ArialMT-72" x="61.083984"/>
       <use xlink:href="#ArialMT-69" x="94.384766"/>
       <use xlink:href="#ArialMT-20" x="116.601562"/>
       <use xlink:href="#ArialMT-31" x="144.384766"/>
       <use xlink:href="#ArialMT-32" x="200"/>
       <use xlink:href="#ArialMT-20" x="255.615234"/>
       <use xlink:href="#ArialMT-50" x="283.398438"/>
       <use xlink:href="#ArialMT-4d" x="350.097656"/>
      </g>
     </g>
    </g>
    <g id="xtick_6">
     <g id="line2d_6">
      <path d="M 638.412381 508.32
L 638.412381 64.8
" clip-path="url(#p8e859aa151)" style="fill: none; stroke: #ffffff; stroke-linecap: round"/>
     </g>
     <g id="text_6">
      <!-- Fri 6 PM -->
      <g style="fill: #262626" transform="translate(617.635272 525.693594) scale(0.11 -0.11)">
       <use xlink:href="#ArialMT-46"/>
       <use xlink:href="#ArialMT-72" x="61.083984"/>
       <use xlink:href="#ArialMT-69" x="94.384766"/>
       <use xlink:href="#ArialMT-20" x="116.601562"/>
       <use xlink:href="#ArialMT-36" x="144.384766"/>
       <use xlink:href="#ArialMT-20" x="200"/>
       <use xlink:href="#ArialMT-50" x="227.783203"/>
       <use xlink:href="#ArialMT-4d" x="294.482422"/>
      </g>
     </g>
    </g>
    <g id="xtick_7">
     <g id="line2d_7">
      <path d="M 740.078732 508.32
L 740.078732 64.8
" clip-path="url(#p8e859aa151)" style="fill: none; stroke: #ffffff; stroke-linecap: round"/>
     </g>
     <g id="text_7">
      <!-- Sat 12 AM -->
      <g style="fill: #262626" transform="translate(714.703107 525.693594) scale(0.11 -0.11)">
       <defs>
        <path id="ArialMT-53" d="M 288 1472
L 859 1522
Q 900 1178 1048 958
Q 1197 738 1509 602
Q 1822 466 2213 466
Q 2559 466 2825 569
Q 3091 672 3220 851
Q 3350 1031 3350 1244
Q 3350 1459 3225 1620
Q 3100 1781 2813 1891
Q 2628 1963 1997 2114
Q 1366 2266 1113 2400
Q 784 2572 623 2826
Q 463 3081 463 3397
Q 463 3744 659 4045
Q 856 4347 1234 4503
Q 1613 4659 2075 4659
Q 2584 4659 2973 4495
Q 3363 4331 3572 4012
Q 3781 3694 3797 3291
L 3216 3247
Q 3169 3681 2898 3903
Q 2628 4125 2100 4125
Q 1550 4125 1298 3923
Q 1047 3722 1047 3438
Q 1047 3191 1225 3031
Q 1400 2872 2139 2705
Q 2878 2538 3153 2413
Q 3553 2228 3743 1945
Q 3934 1663 3934 1294
Q 3934 928 3725 604
Q 3516 281 3123 101
Q 2731 -78 2241 -78
Q 1619 -78 1198 103
Q 778 284 539 648
Q 300 1013 288 1472
z
" transform="scale(0.015625)"/>
        <path id="ArialMT-61" d="M 2588 409
Q 2275 144 1986 34
Q 1697 -75 1366 -75
Q 819 -75 525 192
Q 231 459 231 875
Q 231 1119 342 1320
Q 453 1522 633 1644
Q 813 1766 1038 1828
Q 1203 1872 1538 1913
Q 2219 1994 2541 2106
Q 2544 2222 2544 2253
Q 2544 2597 2384 2738
Q 2169 2928 1744 2928
Q 1347 2928 1158 2789
Q 969 2650 878 2297
L 328 2372
Q 403 2725 575 2942
Q 747 3159 1072 3276
Q 1397 3394 1825 3394
Q 2250 3394 2515 3294
Q 2781 3194 2906 3042
Q 3031 2891 3081 2659
Q 3109 2516 3109 2141
L 3109 1391
Q 3109 606 3145 398
Q 3181 191 3288 0
L 2700 0
Q 2613 175 2588 409
z
M 2541 1666
Q 2234 1541 1622 1453
Q 1275 1403 1131 1340
Q 988 1278 909 1158
Q 831 1038 831 891
Q 831 666 1001 516
Q 1172 366 1500 366
Q 1825 366 2078 508
Q 2331 650 2450 897
Q 2541 1088 2541 1459
L 2541 1666
z
" transform="scale(0.015625)"/>
        <path id="ArialMT-74" d="M 1650 503
L 1731 6
Q 1494 -44 1306 -44
Q 1000 -44 831 53
Q 663 150 594 308
Q 525 466 525 972
L 525 2881
L 113 2881
L 113 3319
L 525 3319
L 525 4141
L 1084 4478
L 1084 3319
L 1650 3319
L 1650 2881
L 1084 2881
L 1084 941
Q 1084 700 1114 631
Q 1144 563 1211 522
Q 1278 481 1403 481
Q 1497 481 1650 503
z
" transform="scale(0.015625)"/>
       </defs>
       <use xlink:href="#ArialMT-53"/>
       <use xlink:href="#ArialMT-61" x="66.699219"/>
       <use xlink:href="#ArialMT-74" x="122.314453"/>
       <use xlink:href="#ArialMT-20" x="150.097656"/>
       <use xlink:href="#ArialMT-31" x="177.880859"/>
       <use xlink:href="#ArialMT-32" x="233.496094"/>
       <use xlink:href="#ArialMT-20" x="289.111328"/>
       <use xlink:href="#ArialMT-41" x="311.394531"/>
       <use xlink:href="#ArialMT-4d" x="378.09375"/>
      </g>
     </g>
    </g>
    <g id="xtick_8">
     <g id="line2d_8">
      <path d="M 841.745082 508.32
L 841.745082 64.8
" clip-path="url(#p8e859aa151)" style="fill: none; stroke: #ffffff; stroke-linecap: round"/>
     </g>
     <g id="text_8">
      <!-- Sat 6 AM -->
      <g style="fill: #262626" transform="translate(819.427973 525.693594) scale(0.11 -0.11)">
       <use xlink:href="#ArialMT-53"/>
       <use xlink:href="#ArialMT-61" x="66.699219"/>
       <use xlink:href="#ArialMT-74" x="122.314453"/>
       <use xlink:href="#ArialMT-20" x="150.097656"/>
       <use xlink:href="#ArialMT-36" x="177.880859"/>
       <use xlink:href="#ArialMT-20" x="233.496094"/>
       <use xlink:href="#ArialMT-41" x="255.779297"/>
       <use xlink:href="#ArialMT-4d" x="322.478516"/>
      </g>
     </g>
    </g>
    <g id="xtick_9">
     <g id="line2d_9">
      <path d="M 943.411432 508.32
L 943.411432 64.8
" clip-path="url(#p8e859aa151)" style="fill: none; stroke: #ffffff; stroke-linecap: round"/>
     </g>
     <g id="text_9">
      <!-- Sat 12 PM -->
      <g style="fill: #262626" transform="translate(917.733307 525.693594) scale(0.11 -0.11)">
       <use xlink:href="#ArialMT-53"/>
       <use xlink:href="#ArialMT-61" x="66.699219"/>
       <use xlink:href="#ArialMT-74" x="122.314453"/>
       <use xlink:href="#ArialMT-20" x="150.097656"/>
       <use xlink:href="#ArialMT-31" x="177.880859"/>
       <use xlink:href="#ArialMT-32" x="233.496094"/>
       <use xlink:href="#ArialMT-20" x="289.111328"/>
       <use xlink:href="#ArialMT-50" x="316.894531"/>
       <use xlink:href="#ArialMT-4d" x="383.59375"/>
      </g>
     </g>
    </g>
    <g id="text_10">
     <!-- Time -->
     <g style="fill: #262626" transform="translate(485.738125 544.763906) scale(0.18 -0.18)">
      <defs>
       <path id="ArialMT-6d" d="M 422 0
L 422 3319
L 925 3319
L 925 2853
Q 1081 3097 1340 3245
Q 1600 3394 1931 3394
Q 2300 3394 2536 3241
Q 2772 3088 2869 2813
Q 3263 3394 3894 3394
Q 4388 3394 4653 3120
Q 4919 2847 4919 2278
L 4919 0
L 4359 0
L 4359 2091
Q 4359 2428 4304 2576
Q 4250 2725 4106 2815
Q 3963 2906 3769 2906
Q 3419 2906 3187 2673
Q 2956 2441 2956 1928
L 2956 0
L 2394 0
L 2394 2156
Q 2394 2531 2256 2718
Q 2119 2906 1806 2906
Q 1569 2906 1367 2781
Q 1166 2656 1075 2415
Q 984 2175 984 1722
L 984 0
L 422 0
z
" transform="scale(0.015625)"/>
       <path id="ArialMT-65" d="M 2694 1069
L 3275 997
Q 3138 488 2766 206
Q 2394 -75 1816 -75
Q 1088 -75 661 373
Q 234 822 234 1631
Q 234 2469 665 2931
Q 1097 3394 1784 3394
Q 2450 3394 2872 2941
Q 3294 2488 3294 1666
Q 3294 1616 3291 1516
L 816 1516
Q 847 969 1125 678
Q 1403 388 1819 388
Q 2128 388 2347 550
Q 2566 713 2694 1069
z
M 847 1978
L 2700 1978
Q 2663 2397 2488 2606
Q 2219 2931 1791 2931
Q 1403 2931 1139 2672
Q 875 2413 847 1978
z
" transform="scale(0.015625)"/>
      </defs>
      <use xlink:href="#ArialMT-54"/>
      <use xlink:href="#ArialMT-69" x="57.333984"/>
      <use xlink:href="#ArialMT-6d" x="79.550781"/>
      <use xlink:href="#ArialMT-65" x="162.851562"/>
     </g>
    </g>
   </g>
   <g id="matplotlib.axis_2">
    <g id="ytick_1">
     <g id="line2d_10">
      <path d="M 58.998906 488.16
L 951.798906 488.16
" clip-path="url(#p8e859aa151)" style="fill: none; stroke: #ffffff; stroke-linecap: round"/>
     </g>
     <g id="line2d_11">
      <defs>
       <path id="mde90c1aaa6" d="M 0 0
L -6 0
" style="stroke: #262626; stroke-width: 1.25"/>
      </defs>
      <g>
       <use xlink:href="#mde90c1aaa6" x="58.998906" y="488.16" style="fill: #262626; stroke: #262626; stroke-width: 1.25"/>
      </g>
     </g>
     <g id="text_11">
      <!-- 51.5 -->
      <g style="fill: #262626" transform="translate(28.091875 492.096797) scale(0.11 -0.11)">
       <defs>
        <path id="ArialMT-35" d="M 266 1200
L 856 1250
Q 922 819 1161 601
Q 1400 384 1738 384
Q 2144 384 2425 690
Q 2706 997 2706 1503
Q 2706 1984 2436 2262
Q 2166 2541 1728 2541
Q 1456 2541 1237 2417
Q 1019 2294 894 2097
L 366 2166
L 809 4519
L 3088 4519
L 3088 3981
L 1259 3981
L 1013 2750
Q 1425 3038 1878 3038
Q 2478 3038 2890 2622
Q 3303 2206 3303 1553
Q 3303 931 2941 478
Q 2500 -78 1738 -78
Q 1113 -78 717 272
Q 322 622 266 1200
z
" transform="scale(0.015625)"/>
        <path id="ArialMT-2e" d="M 581 0
L 581 641
L 1222 641
L 1222 0
L 581 0
z
" transform="scale(0.015625)"/>
       </defs>
       <use xlink:href="#ArialMT-35"/>
       <use xlink:href="#ArialMT-31" x="55.615234"/>
       <use xlink:href="#ArialMT-2e" x="111.230469"/>
       <use xlink:href="#ArialMT-35" x="139.013672"/>
      </g>
     </g>
    </g>
    <g id="ytick_2">
     <g id="line2d_12">
      <path d="M 58.998906 392.16
L 951.798906 392.16
" clip-path="url(#p8e859aa151)" style="fill: none; stroke: #ffffff; stroke-linecap: round"/>
     </g>
     <g id="line2d_13">
      <g>
       <use xlink:href="#mde90c1aaa6" x="58.998906" y="392.16" style="fill: #262626; stroke: #262626; stroke-width: 1.25"/>
      </g>
     </g>
     <g id="text_12">
      <!-- 52.0 -->
      <g style="fill: #262626" transform="translate(28.091875 396.096797) scale(0.11 -0.11)">
       <defs>
        <path id="ArialMT-30" d="M 266 2259
Q 266 3072 433 3567
Q 600 4063 929 4331
Q 1259 4600 1759 4600
Q 2128 4600 2406 4451
Q 2684 4303 2865 4023
Q 3047 3744 3150 3342
Q 3253 2941 3253 2259
Q 3253 1453 3087 958
Q 2922 463 2592 192
Q 2263 -78 1759 -78
Q 1097 -78 719 397
Q 266 969 266 2259
z
M 844 2259
Q 844 1131 1108 757
Q 1372 384 1759 384
Q 2147 384 2411 759
Q 2675 1134 2675 2259
Q 2675 3391 2411 3762
Q 2147 4134 1753 4134
Q 1366 4134 1134 3806
Q 844 3388 844 2259
z
" transform="scale(0.015625)"/>
       </defs>
       <use xlink:href="#ArialMT-35"/>
       <use xlink:href="#ArialMT-32" x="55.615234"/>
       <use xlink:href="#ArialMT-2e" x="111.230469"/>
       <use xlink:href="#ArialMT-30" x="139.013672"/>
      </g>
     </g>
    </g>
    <g id="ytick_3">
     <g id="line2d_14">
      <path d="M 58.998906 296.16
L 951.798906 296.16
" clip-path="url(#p8e859aa151)" style="fill: none; stroke: #ffffff; stroke-linecap: round"/>
     </g>
     <g id="line2d_15">
      <g>
       <use xlink:href="#mde90c1aaa6" x="58.998906" y="296.16" style="fill: #262626; stroke: #262626; stroke-width: 1.25"/>
      </g>
     </g>
     <g id="text_13">
      <!-- 52.5 -->
      <g style="fill: #262626" transform="translate(28.091875 300.096797) scale(0.11 -0.11)">
       <use xlink:href="#ArialMT-35"/>
       <use xlink:href="#ArialMT-32" x="55.615234"/>
       <use xlink:href="#ArialMT-2e" x="111.230469"/>
       <use xlink:href="#ArialMT-35" x="139.013672"/>
      </g>
     </g>
    </g>
    <g id="ytick_4">
     <g id="line2d_16">
      <path d="M 58.998906 200.16
L 951.798906 200.16
" clip-path="url(#p8e859aa151)" style="fill: none; stroke: #ffffff; stroke-linecap: round"/>
     </g>
     <g id="line2d_17">
      <g>
       <use xlink:href="#mde90c1aaa6" x="58.998906" y="200.16" style="fill: #262626; stroke: #262626; stroke-width: 1.25"/>
      </g>
     </g>
     <g id="text_14">
      <!-- 53.0 -->
      <g style="fill: #262626" transform="translate(28.091875 204.096797) scale(0.11 -0.11)">
       <defs>
        <path id="ArialMT-33" d="M 269 1209
L 831 1284
Q 928 806 1161 595
Q 1394 384 1728 384
Q 2125 384 2398 659
Q 2672 934 2672 1341
Q 2672 1728 2419 1979
Q 2166 2231 1775 2231
Q 1616 2231 1378 2169
L 1441 2663
Q 1497 2656 1531 2656
Q 1891 2656 2178 2843
Q 2466 3031 2466 3422
Q 2466 3731 2256 3934
Q 2047 4138 1716 4138
Q 1388 4138 1169 3931
Q 950 3725 888 3313
L 325 3413
Q 428 3978 793 4289
Q 1159 4600 1703 4600
Q 2078 4600 2393 4439
Q 2709 4278 2876 4000
Q 3044 3722 3044 3409
Q 3044 3113 2884 2869
Q 2725 2625 2413 2481
Q 2819 2388 3044 2092
Q 3269 1797 3269 1353
Q 3269 753 2831 336
Q 2394 -81 1725 -81
Q 1122 -81 723 278
Q 325 638 269 1209
z
" transform="scale(0.015625)"/>
       </defs>
       <use xlink:href="#ArialMT-35"/>
       <use xlink:href="#ArialMT-33" x="55.615234"/>
       <use xlink:href="#ArialMT-2e" x="111.230469"/>
       <use xlink:href="#ArialMT-30" x="139.013672"/>
      </g>
     </g>
    </g>
    <g id="ytick_5">
     <g id="line2d_18">
      <path d="M 58.998906 104.16
L 951.798906 104.16
" clip-path="url(#p8e859aa151)" style="fill: none; stroke: #ffffff; stroke-linecap: round"/>
     </g>
     <g id="line2d_19">
      <g>
       <use xlink:href="#mde90c1aaa6" x="58.998906" y="104.16" style="fill: #262626; stroke: #262626; stroke-width: 1.25"/>
      </g>
     </g>
     <g id="text_15">
      <!-- 53.5 -->
      <g style="fill: #262626" transform="translate(28.091875 108.096797) scale(0.11 -0.11)">
       <use xlink:href="#ArialMT-35"/>
       <use xlink:href="#ArialMT-33" x="55.615234"/>
       <use xlink:href="#ArialMT-2e" x="111.230469"/>
       <use xlink:href="#ArialMT-35" x="139.013672"/>
      </g>
     </g>
    </g>
    <g id="text_16">
     <!-- Water Temp (°F) -->
     <g style="fill: #262626" transform="translate(20.303438 352.15875) rotate(-90) scale(0.18 -0.18)">
      <defs>
       <path id="ArialMT-57" d="M 1294 0
L 78 4581
L 700 4581
L 1397 1578
Q 1509 1106 1591 641
Q 1766 1375 1797 1488
L 2669 4581
L 3400 4581
L 4056 2263
Q 4303 1400 4413 641
Q 4500 1075 4641 1638
L 5359 4581
L 5969 4581
L 4713 0
L 4128 0
L 3163 3491
Q 3041 3928 3019 4028
Q 2947 3713 2884 3491
L 1913 0
L 1294 0
z
" transform="scale(0.015625)"/>
       <path id="ArialMT-70" d="M 422 -1272
L 422 3319
L 934 3319
L 934 2888
Q 1116 3141 1344 3267
Q 1572 3394 1897 3394
Q 2322 3394 2647 3175
Q 2972 2956 3137 2557
Q 3303 2159 3303 1684
Q 3303 1175 3120 767
Q 2938 359 2589 142
Q 2241 -75 1856 -75
Q 1575 -75 1351 44
Q 1128 163 984 344
L 984 -1272
L 422 -1272
z
M 931 1641
Q 931 1000 1190 694
Q 1450 388 1819 388
Q 2194 388 2461 705
Q 2728 1022 2728 1688
Q 2728 2322 2467 2637
Q 2206 2953 1844 2953
Q 1484 2953 1207 2617
Q 931 2281 931 1641
z
" transform="scale(0.015625)"/>
       <path id="ArialMT-28" d="M 1497 -1347
Q 1031 -759 709 28
Q 388 816 388 1659
Q 388 2403 628 3084
Q 909 3875 1497 4659
L 1900 4659
Q 1522 4009 1400 3731
Q 1209 3300 1100 2831
Q 966 2247 966 1656
Q 966 153 1900 -1347
L 1497 -1347
z
" transform="scale(0.015625)"/>
       <path id="ArialMT-b0" d="M 400 3794
Q 400 4153 654 4406
Q 909 4659 1266 4659
Q 1628 4659 1881 4406
Q 2134 4153 2134 3794
Q 2134 3434 1879 3179
Q 1625 2925 1266 2925
Q 909 2925 654 3178
Q 400 3431 400 3794
z
M 741 3794
Q 741 3575 895 3420
Q 1050 3266 1269 3266
Q 1484 3266 1639 3420
Q 1794 3575 1794 3794
Q 1794 4013 1639 4167
Q 1484 4322 1269 4322
Q 1050 4322 895 4167
Q 741 4013 741 3794
z
" transform="scale(0.015625)"/>
       <path id="ArialMT-29" d="M 791 -1347
L 388 -1347
Q 1322 153 1322 1656
Q 1322 2244 1188 2822
Q 1081 3291 891 3722
Q 769 4003 388 4659
L 791 4659
Q 1378 3875 1659 3084
Q 1900 2403 1900 1659
Q 1900 816 1576 28
Q 1253 -759 791 -1347
z
" transform="scale(0.015625)"/>
      </defs>
      <use xlink:href="#ArialMT-57"/>
      <use xlink:href="#ArialMT-61" x="90.634766"/>
      <use xlink:href="#ArialMT-74" x="146.25"/>
      <use xlink:href="#ArialMT-65" x="174.033203"/>
      <use xlink:href="#ArialMT-72" x="229.648438"/>
      <use xlink:href="#ArialMT-20" x="262.949219"/>
      <use xlink:href="#ArialMT-54" x="288.982422"/>
      <use xlink:href="#ArialMT-65" x="338.941406"/>
      <use xlink:href="#ArialMT-6d" x="394.556641"/>
      <use xlink:href="#ArialMT-70" x="477.857422"/>
      <use xlink:href="#ArialMT-20" x="533.472656"/>
      <use xlink:href="#ArialMT-28" x="561.255859"/>
      <use xlink:href="#ArialMT-b0" x="594.556641"/>
      <use xlink:href="#ArialMT-46" x="634.546875"/>
      <use xlink:href="#ArialMT-29" x="695.630859"/>
     </g>
    </g>
   </g>
   <g id="PolyCollection_1"/>
   <g id="PolyCollection_2"/>
   <g id="line2d_20">
    <path d="M 99.580724 488.16
L 101.275164 468.96
L 102.969603 488.16
L 106.358481 488.16
L 108.05292 468.96
L 114.830677 468.96
L 116.525116 488.16
L 119.913995 488.16
L 121.608434 468.96
L 123.302873 430.56
L 124.997312 411.36
L 128.38619 449.76
L 130.08063 449.76
L 131.775069 430.56
L 133.469508 449.76
L 135.163947 430.56
L 136.858386 296.16
L 138.552825 334.56
L 140.247265 392.16
L 141.941704 430.56
L 145.330582 392.16
L 147.025021 276.96
L 148.71946 180.96
L 152.108339 334.56
L 155.497217 372.96
L 157.191656 334.56
L 158.886095 276.96
L 160.580535 257.76
L 165.663852 257.76
L 167.358291 276.96
L 169.052731 257.76
L 172.441609 257.76
L 174.136048 219.36
L 177.524926 257.76
L 179.219366 238.56
L 180.913805 238.56
L 182.608244 257.76
L 184.302683 219.36
L 185.997122 200.16
L 187.691561 200.16
L 189.386001 180.96
L 191.08044 180.96
L 192.774879 161.76
L 196.163757 161.76
L 197.858196 180.96
L 199.552636 104.16
L 201.247075 142.56
L 202.941514 161.76
L 204.635953 219.36
L 206.330392 238.56
L 208.024831 123.36
L 209.719271 219.36
L 213.108149 219.36
L 214.802588 123.36
L 216.497027 123.36
L 218.191467 142.56
L 219.885906 180.96
L 221.580345 257.76
L 223.274784 200.16
L 224.969223 200.16
L 226.663662 257.76
L 228.358102 219.36
L 230.052541 257.76
L 231.74698 180.96
L 233.441419 200.16
L 235.135858 200.16
L 238.524737 276.96
L 241.913615 315.36
L 245.302493 315.36
L 246.996932 296.16
L 248.691372 334.56
L 250.385811 334.56
L 252.08025 392.16
L 253.774689 392.16
L 255.469128 411.36
L 257.163567 411.36
L 260.552446 449.76
L 262.246885 488.16
L 265.635763 411.36
L 267.330203 430.56
L 269.024642 411.36
L 270.719081 411.36
L 272.41352 392.16
L 275.802398 392.16
L 277.496838 372.96
L 280.885716 449.76
L 282.580155 430.56
L 284.274594 430.56
L 285.969033 411.36
L 289.357912 411.36
L 291.052351 430.56
L 292.74679 430.56
L 294.441229 411.36
L 301.218986 411.36
L 302.913425 392.16
L 304.607864 411.36
L 306.302303 392.16
L 309.691182 392.16
L 311.385621 411.36
L 319.857817 411.36
L 321.552256 430.56
L 324.941134 430.56
L 326.635574 411.36
L 330.024452 449.76
L 331.718891 430.56
L 340.191087 430.56
L 341.885526 449.76
L 343.579965 430.56
L 345.274404 430.56
L 346.968844 449.76
L 348.663283 449.76
L 350.357722 430.56
L 385.940945 430.56
L 387.635384 449.76
L 396.10758 449.76
L 397.802019 430.56
L 413.051971 430.56
L 414.746411 411.36
L 438.468559 411.36
L 440.162998 392.16
L 441.857437 392.16
L 443.551876 411.36
L 445.246316 411.36
L 446.940755 392.16
L 452.024072 392.16
L 453.718511 372.96
L 457.10739 372.96
L 458.801829 392.16
L 460.496268 392.16
L 462.190707 411.36
L 467.274025 411.36
L 468.968464 430.56
L 470.662903 430.56
L 472.357342 449.76
L 487.607295 449.76
L 489.301734 430.56
L 490.996173 430.56
L 494.385052 468.96
L 499.468369 411.36
L 501.162808 430.56
L 504.551687 430.56
L 506.246126 411.36
L 507.940565 411.36
L 509.635004 430.56
L 511.329443 411.36
L 523.190518 411.36
L 524.884957 392.16
L 529.968274 392.16
L 531.662713 411.36
L 533.357153 411.36
L 535.051592 449.76
L 538.44047 411.36
L 540.134909 430.56
L 541.829348 411.36
L 543.523788 430.56
L 545.218227 430.56
L 548.607105 468.96
L 550.301544 430.56
L 551.995983 430.56
L 553.690423 411.36
L 555.384862 411.36
L 557.079301 392.16
L 558.77374 353.76
L 560.468179 372.96
L 562.162619 372.96
L 563.857058 392.16
L 565.551497 180.96
L 568.940375 219.36
L 574.023693 219.36
L 575.718132 200.16
L 577.412571 161.76
L 579.10701 180.96
L 580.801449 180.96
L 582.495889 142.56
L 584.190328 161.76
L 585.884767 161.76
L 587.579206 180.96
L 589.273645 180.96
L 590.968084 200.16
L 592.662524 180.96
L 594.356963 180.96
L 597.745841 219.36
L 601.134719 219.36
L 602.829159 200.16
L 604.523598 142.56
L 606.218037 142.56
L 611.301355 84.96
L 612.995794 104.16
L 616.384672 104.16
L 618.079111 142.56
L 619.77355 123.36
L 621.46799 142.56
L 623.162429 123.36
L 624.856868 84.96
L 626.551307 84.96
L 628.245746 142.56
L 629.940185 142.56
L 631.634625 84.96
L 633.329064 104.16
L 643.495699 104.16
L 645.190138 161.76
L 646.884577 200.16
L 648.579016 180.96
L 650.273456 180.96
L 651.967895 142.56
L 658.745651 142.56
L 660.440091 200.16
L 662.13453 238.56
L 665.523408 353.76
L 667.217847 334.56
L 668.912286 334.56
L 670.606726 353.76
L 672.301165 334.56
L 673.995604 353.76
L 675.690043 334.56
L 677.384482 353.76
L 680.773361 353.76
L 682.4678 372.96
L 684.162239 353.76
L 685.856678 353.76
L 687.551117 372.96
L 689.245556 353.76
L 690.939996 372.96
L 694.328874 334.56
L 696.023313 353.76
L 697.717752 353.76
L 699.412192 392.16
L 704.495509 392.16
L 709.578827 334.56
L 721.439901 334.56
L 723.13434 315.36
L 724.828779 315.36
L 726.523218 334.56
L 728.217657 315.36
L 736.689853 315.36
L 738.384292 334.56
L 740.078732 334.56
L 741.773171 353.76
L 743.46761 353.76
L 745.162049 372.96
L 746.856488 372.96
L 748.550928 392.16
L 751.939806 392.16
L 753.634245 411.36
L 755.328684 411.36
L 757.023123 392.16
L 760.412002 392.16
L 762.106441 372.96
L 763.80088 372.96
L 765.495319 353.76
L 767.189758 353.76
L 768.884198 334.56
L 770.578637 353.76
L 772.273076 334.56
L 773.967515 334.56
L 775.661954 296.16
L 784.13415 296.16
L 785.828589 315.36
L 787.523028 296.16
L 789.217468 296.16
L 790.911907 276.96
L 792.606346 296.16
L 795.995224 296.16
L 797.689664 315.36
L 799.384103 315.36
L 801.078542 353.76
L 806.161859 353.76
L 807.856299 334.56
L 809.550738 353.76
L 819.717373 353.76
L 821.411812 334.56
L 831.578447 334.56
L 833.272886 315.36
L 838.356204 315.36
L 840.050643 296.16
L 868.856109 296.16
L 870.550548 276.96
L 873.939426 276.96
L 875.633865 257.76
L 880.717183 257.76
L 882.411622 276.96
L 884.106061 276.96
L 885.8005 296.16
L 887.49494 296.16
L 890.883818 334.56
L 895.967136 334.56
L 897.661575 353.76
L 899.356014 353.76
L 901.050453 372.96
L 904.439331 372.96
L 906.133771 353.76
L 911.217088 353.76
L 911.217088 353.76
" clip-path="url(#p8e859aa151)" style="fill: none; stroke: #4c72b0; stroke-width: 1.5; stroke-linecap: round"/>
   </g>
   <g id="line2d_21">
    <path d="M 99.580724 476.64
L 106.358481 476.64
L 108.05292 474.72
L 109.747359 471.84
L 111.441799 469.92
L 114.830677 468
L 116.525116 465.12
L 119.913995 461.28
L 121.608434 451.68
L 123.302873 444
L 124.997312 439.2
L 126.691751 437.28
L 128.38619 434.4
L 130.08063 430.56
L 131.775069 420.96
L 133.469508 406.56
L 135.163947 395.04
L 136.858386 387.36
L 138.552825 380.64
L 141.941704 371.04
L 143.636143 364.32
L 145.330582 355.68
L 148.71946 336.48
L 153.802778 310.56
L 155.497217 308.64
L 157.191656 304.8
L 158.886095 296.16
L 160.580535 286.56
L 163.969413 271.2
L 165.663852 269.28
L 167.358291 273.12
L 169.052731 271.2
L 170.74717 264.48
L 172.441609 256.8
L 174.136048 247.2
L 175.830487 239.52
L 177.524926 233.76
L 180.913805 224.16
L 182.608244 220.32
L 184.302683 212.64
L 185.997122 205.92
L 187.691561 201.12
L 189.386001 199.2
L 191.08044 198.24
L 192.774879 193.44
L 194.469318 192.48
L 196.163757 190.56
L 197.858196 189.6
L 199.552636 183.84
L 201.247075 177.12
L 202.941514 173.28
L 204.635953 172.32
L 206.330392 175.2
L 209.719271 177.12
L 211.41371 181.92
L 213.108149 184.8
L 214.802588 189.6
L 216.497027 189.6
L 218.191467 194.4
L 219.885906 197.28
L 221.580345 201.12
L 224.969223 206.88
L 226.663662 216.48
L 230.052541 226.08
L 231.74698 229.92
L 235.135858 251.04
L 236.830297 263.52
L 238.524737 274.08
L 240.219176 281.76
L 241.913615 292.32
L 243.608054 303.84
L 245.302493 313.44
L 246.996932 326.88
L 248.691372 336.48
L 252.08025 359.52
L 253.774689 370.08
L 255.469128 378.72
L 257.163567 384.48
L 258.858007 389.28
L 260.552446 393.12
L 262.246885 396
L 263.941324 400.8
L 265.635763 408.48
L 269.024642 418.08
L 272.41352 420
L 274.107959 420
L 275.802398 420.96
L 277.496838 420.96
L 279.191277 419.04
L 280.885716 415.2
L 282.580155 413.28
L 284.274594 413.28
L 287.663473 411.36
L 294.441229 411.36
L 296.135668 413.28
L 297.830108 413.28
L 299.524547 411.36
L 302.913425 409.44
L 304.607864 409.44
L 307.996743 411.36
L 309.691182 411.36
L 311.385621 410.4
L 313.08006 411.36
L 314.774499 413.28
L 319.857817 416.16
L 321.552256 418.08
L 323.246695 419.04
L 324.941134 420.96
L 326.635574 423.84
L 328.330013 425.76
L 330.024452 426.72
L 333.41333 430.56
L 338.496648 433.44
L 343.579965 433.44
L 345.274404 434.4
L 346.968844 434.4
L 348.663283 433.44
L 358.829918 433.44
L 360.524357 432.48
L 363.913235 432.48
L 367.302114 430.56
L 370.690992 430.56
L 380.857627 436.32
L 397.802019 436.32
L 404.579775 432.48
L 414.746411 420.96
L 423.218606 416.16
L 426.607485 412.32
L 429.996363 410.4
L 431.690802 408.48
L 436.77412 405.6
L 441.857437 399.84
L 445.246316 397.92
L 452.024072 397.92
L 455.412951 399.84
L 457.10739 401.76
L 460.496268 407.52
L 463.885147 411.36
L 470.662903 422.88
L 472.357342 426.72
L 477.44066 435.36
L 479.135099 439.2
L 480.829538 441.12
L 482.523977 442.08
L 484.218417 442.08
L 485.912856 443.04
L 489.301734 443.04
L 492.690612 439.2
L 494.385052 438.24
L 506.246126 424.8
L 507.940565 423.84
L 509.635004 421.92
L 511.329443 419.04
L 513.023883 415.2
L 514.718322 412.32
L 516.412761 411.36
L 518.1072 411.36
L 519.801639 412.32
L 521.496078 412.32
L 523.190518 411.36
L 524.884957 412.32
L 528.273835 412.32
L 529.968274 413.28
L 531.662713 415.2
L 533.357153 418.08
L 536.746031 420
L 540.134909 420
L 541.829348 419.04
L 543.523788 417.12
L 546.912666 415.2
L 548.607105 415.2
L 550.301544 403.68
L 551.995983 393.12
L 553.690423 381.6
L 555.384862 371.04
L 557.079301 361.44
L 560.468179 340.32
L 562.162619 326.88
L 563.857058 314.4
L 565.551497 300.96
L 567.245936 284.64
L 570.634814 257.76
L 574.023693 234.72
L 575.718132 225.12
L 577.412571 216.48
L 579.10701 206.88
L 582.495889 189.6
L 584.190328 191.52
L 585.884767 192.48
L 587.579206 191.52
L 590.968084 183.84
L 594.356963 174.24
L 599.44028 162.72
L 601.134719 160.8
L 602.829159 159.84
L 606.218037 156
L 607.912476 153.12
L 609.606915 147.36
L 611.301355 142.56
L 612.995794 140.64
L 614.690233 137.76
L 616.384672 131.04
L 619.77355 119.52
L 621.46799 114.72
L 624.856868 110.88
L 626.551307 109.92
L 628.245746 109.92
L 629.940185 113.76
L 631.634625 118.56
L 635.023503 126.24
L 636.717942 126.24
L 638.412381 127.2
L 640.10682 127.2
L 641.80126 128.16
L 643.495699 131.04
L 645.190138 136.8
L 646.884577 141.6
L 648.579016 149.28
L 650.273456 162.72
L 653.662334 185.76
L 655.356773 198.24
L 657.051212 209.76
L 658.745651 222.24
L 660.440091 233.76
L 662.13453 246.24
L 663.828969 255.84
L 665.523408 263.52
L 667.217847 273.12
L 668.912286 281.76
L 670.606726 292.32
L 672.301165 303.84
L 673.995604 314.4
L 675.690043 325.92
L 677.384482 336.48
L 679.078921 343.2
L 680.773361 348.96
L 682.4678 351.84
L 684.162239 353.76
L 687.551117 359.52
L 690.939996 363.36
L 694.328874 363.36
L 699.412192 360.48
L 701.106631 358.56
L 704.495509 356.64
L 707.884387 352.8
L 709.578827 349.92
L 712.967705 348
L 716.356583 344.16
L 721.439901 332.64
L 723.13434 329.76
L 724.828779 327.84
L 726.523218 327.84
L 728.217657 328.8
L 731.606536 332.64
L 736.689853 341.28
L 743.46761 356.64
L 748.550928 365.28
L 751.939806 369.12
L 753.634245 370.08
L 755.328684 372
L 758.717563 372
L 762.106441 366.24
L 765.495319 358.56
L 768.884198 348.96
L 770.578637 345.12
L 775.661954 327.84
L 779.050833 318.24
L 780.745272 314.4
L 782.439711 311.52
L 784.13415 309.6
L 785.828589 309.6
L 787.523028 310.56
L 789.217468 310.56
L 790.911907 311.52
L 792.606346 311.52
L 802.772981 328.8
L 807.856299 334.56
L 809.550738 337.44
L 814.634055 343.2
L 816.328494 344.16
L 818.022934 344.16
L 823.106251 338.4
L 824.80069 335.52
L 826.495129 333.6
L 838.356204 313.44
L 850.217278 300
L 853.606156 298.08
L 856.995035 294.24
L 858.689474 293.28
L 865.46723 285.6
L 868.856109 283.68
L 872.244987 283.68
L 873.939426 284.64
L 880.717183 292.32
L 884.106061 298.08
L 887.49494 305.76
L 889.189379 310.56
L 892.578257 318.24
L 895.967136 327.84
L 895.967136 327.84
" clip-path="url(#p8e859aa151)" style="fill: none; stroke-dasharray: 6,2.25; stroke-dashoffset: 0; stroke: #dd8452; stroke-width: 1.5"/>
   </g>
   <g id="line2d_22"/>
   <g id="line2d_23"/>
   <g id="patch_3">
    <path d="M 58.998906 508.32
L 58.998906 64.8
" style="fill: none; stroke: #ffffff; stroke-width: 1.25; stroke-linejoin: miter; stroke-linecap: square"/>
   </g>
   <g id="patch_4">
    <path d="M 951.798906 508.32
L 951.798906 64.8
" style="fill: none; stroke: #ffffff; stroke-width: 1.25; stroke-linejoin: miter; stroke-linecap: square"/>
   </g>
   <g id="patch_5">
    <path d="M 58.998906 508.32
L 951.798906 508.32
" style="fill: none; stroke: #ffffff; stroke-width: 1.25; stroke-linejoin: miter; stroke-linecap: square"/>
   </g>
   <g id="patch_6">
    <path d="M 58.998906 64.8
L 951.798906 64.8
" style="fill: none; stroke: #ffffff; stroke-width: 1.25; stroke-linejoin: miter; stroke-linecap: square"/>
   </g>
   <g id="text_17">
    <!-- 48-hour, live -->
    <g style="fill: #262626" transform="translate(456.371406 58.8) scale(0.18 -0.18)">
     <defs>
      <path id="ArialMT-34" d="M 2069 0
L 2069 1097
L 81 1097
L 81 1613
L 2172 4581
L 2631 4581
L 2631 1613
L 3250 1613
L 3250 1097
L 2631 1097
L 2631 0
L 2069 0
z
M 2069 1613
L 2069 3678
L 634 1613
L 2069 1613
z
" transform="scale(0.015625)"/>
      <path id="ArialMT-38" d="M 1131 2484
Q 781 2613 612 2850
Q 444 3088 444 3419
Q 444 3919 803 4259
Q 1163 4600 1759 4600
Q 2359 4600 2725 4251
Q 3091 3903 3091 3403
Q 3091 3084 2923 2848
Q 2756 2613 2416 2484
Q 2838 2347 3058 2040
Q 3278 1734 3278 1309
Q 3278 722 2862 322
Q 2447 -78 1769 -78
Q 1091 -78 675 323
Q 259 725 259 1325
Q 259 1772 486 2073
Q 713 2375 1131 2484
z
M 1019 3438
Q 1019 3113 1228 2906
Q 1438 2700 1772 2700
Q 2097 2700 2305 2904
Q 2513 3109 2513 3406
Q 2513 3716 2298 3927
Q 2084 4138 1766 4138
Q 1444 4138 1231 3931
Q 1019 3725 1019 3438
z
M 838 1322
Q 838 1081 952 856
Q 1066 631 1291 507
Q 1516 384 1775 384
Q 2178 384 2440 643
Q 2703 903 2703 1303
Q 2703 1709 2433 1975
Q 2163 2241 1756 2241
Q 1359 2241 1098 1978
Q 838 1716 838 1322
z
" transform="scale(0.015625)"/>
      <path id="ArialMT-2d" d="M 203 1375
L 203 1941
L 1931 1941
L 1931 1375
L 203 1375
z
" transform="scale(0.015625)"/>
      <path id="ArialMT-6f" d="M 213 1659
Q 213 2581 725 3025
Q 1153 3394 1769 3394
Q 2453 3394 2887 2945
Q 3322 2497 3322 1706
Q 3322 1066 3130 698
Q 2938 331 2570 128
Q 2203 -75 1769 -75
Q 1072 -75 642 372
Q 213 819 213 1659
z
M 791 1659
Q 791 1022 1069 705
Q 1347 388 1769 388
Q 2188 388 2466 706
Q 2744 1025 2744 1678
Q 2744 2294 2464 2611
Q 2184 2928 1769 2928
Q 1347 2928 1069 2612
Q 791 2297 791 1659
z
" transform="scale(0.015625)"/>
      <path id="ArialMT-2c" d="M 569 0
L 569 641
L 1209 641
L 1209 0
Q 1209 -353 1084 -570
Q 959 -788 688 -906
L 531 -666
Q 709 -588 793 -436
Q 878 -284 888 0
L 569 0
z
" transform="scale(0.015625)"/>
      <path id="ArialMT-6c" d="M 409 0
L 409 4581
L 972 4581
L 972 0
L 409 0
z
" transform="scale(0.015625)"/>
      <path id="ArialMT-76" d="M 1344 0
L 81 3319
L 675 3319
L 1388 1331
Q 1503 1009 1600 663
Q 1675 925 1809 1294
L 2547 3319
L 3125 3319
L 1869 0
L 1344 0
z
" transform="scale(0.015625)"/>
     </defs>
     <use xlink:href="#ArialMT-34"/>
     <use xlink:href="#ArialMT-38" x="55.615234"/>
     <use xlink:href="#ArialMT-2d" x="111.230469"/>
     <use xlink:href="#ArialMT-68" x="144.53125"/>
     <use xlink:href="#ArialMT-6f" x="200.146484"/>
     <use xlink:href="#ArialMT-75" x="255.761719"/>
     <use xlink:href="#ArialMT-72" x="311.376953"/>
     <use xlink:href="#ArialMT-2c" x="339.177734"/>
     <use xlink:href="#ArialMT-20" x="366.960938"/>
     <use xlink:href="#ArialMT-6c" x="394.744141"/>
     <use xlink:href="#ArialMT-69" x="416.960938"/>
     <use xlink:href="#ArialMT-76" x="439.177734"/>
     <use xlink:href="#ArialMT-65" x="489.177734"/>
    </g>
   </g>
   <g id="legend_1">
    <g id="patch_7">
     <path d="M 853.888594 104.982656
L 944.098906 104.982656
Q 946.298906 104.982656 946.298906 102.782656
L 946.298906 72.5
Q 946.298906 70.3 944.098906 70.3
L 853.888594 70.3
Q 851.688594 70.3 851.688594 72.5
L 851.688594 102.782656
Q 851.688594 104.982656 853.888594 104.982656
z
" style="fill: #eaeaf2; opacity: 0.8; stroke: #cccccc; stroke-linejoin: miter"/>
    </g>
    <g id="line2d_24">
     <path d="M 856.088594 78.723594
L 867.088594 78.723594
L 878.088594 78.723594
" style="fill: none; stroke: #4c72b0; stroke-width: 1.5; stroke-linecap: round"/>
    </g>
    <g id="text_18">
     <!-- live -->
     <g style="fill: #262626" transform="translate(886.888594 82.573594) scale(0.11 -0.11)">
      <use xlink:href="#ArialMT-6c"/>
      <use xlink:href="#ArialMT-69" x="22.216797"/>
      <use xlink:href="#ArialMT-76" x="44.433594"/>
      <use xlink:href="#ArialMT-65" x="94.433594"/>
     </g>
    </g>
    <g id="line2d_25">
     <path d="M 856.088594 94.4175
L 867.088594 94.4175
L 878.088594 94.4175
" style="fill: none; stroke-dasharray: 6,2.25; stroke-dashoffset: 0; stroke: #dd8452; stroke-width: 1.5"/>
    </g>
    <g id="text_19">
     <!-- trend (2-hr) -->
     <g style="fill: #262626" transform="translate(886.888594 98.2675) scale(0.11 -0.11)">
      <defs>
       <path id="ArialMT-6e" d="M 422 0
L 422 3319
L 928 3319
L 928 2847
Q 1294 3394 1984 3394
Q 2284 3394 2536 3286
Q 2788 3178 2913 3003
Q 3038 2828 3088 2588
Q 3119 2431 3119 2041
L 3119 0
L 2556 0
L 2556 2019
Q 2556 2363 2490 2533
Q 2425 2703 2258 2804
Q 2091 2906 1866 2906
Q 1506 2906 1245 2678
Q 984 2450 984 1813
L 984 0
L 422 0
z
" transform="scale(0.015625)"/>
       <path id="ArialMT-64" d="M 2575 0
L 2575 419
Q 2259 -75 1647 -75
Q 1250 -75 917 144
Q 584 363 401 755
Q 219 1147 219 1656
Q 219 2153 384 2558
Q 550 2963 881 3178
Q 1213 3394 1622 3394
Q 1922 3394 2156 3267
Q 2391 3141 2538 2938
L 2538 4581
L 3097 4581
L 3097 0
L 2575 0
z
M 797 1656
Q 797 1019 1065 703
Q 1334 388 1700 388
Q 2069 388 2326 689
Q 2584 991 2584 1609
Q 2584 2291 2321 2609
Q 2059 2928 1675 2928
Q 1300 2928 1048 2622
Q 797 2316 797 1656
z
" transform="scale(0.015625)"/>
      </defs>
      <use xlink:href="#ArialMT-74"/>
      <use xlink:href="#ArialMT-72" x="27.783203"/>
      <use xlink:href="#ArialMT-65" x="61.083984"/>
      <use xlink:href="#ArialMT-6e" x="116.699219"/>
      <use xlink:href="#ArialMT-64" x="172.314453"/>
      <use xlink:href="#ArialMT-20" x="227.929688"/>
      <use xlink:href="#ArialMT-28" x="255.712891"/>
      <use xlink:href="#ArialMT-32" x="289.013672"/>
      <use xlink:href="#ArialMT-2d" x="344.628906"/>
      <use xlink:href="#ArialMT-68" x="377.929688"/>
      <use xlink:href="#ArialMT-72" x="433.544922"/>
      <use xlink:href="#ArialMT-29" x="466.845703"/>
     </g>
    </g>
   </g>
  </g>
  <g id="axes_2">
   <g id="matplotlib.axis_3">
    <g id="ytick_6">
     <g id="line2d_26">
      <defs>
       <path id="m7b3e1faad1" d="M 0 0
L 6 0
" style="stroke: #262626; stroke-width: 1.25"/>
      </defs>
      <g>
       <use xlink:href="#m7b3e1faad1" x="951.798906" y="499.68" style="fill: #262626; stroke: #262626; stroke-width: 1.25"/>
      </g>
     </g>
     <g id="text_20">
      <!-- 10.8 -->
      <g style="fill: #262626" transform="translate(961.298906 503.616797) scale(0.11 -0.11)">
       <use xlink:href="#ArialMT-31"/>
       <use xlink:href="#ArialMT-30" x="55.615234"/>
       <use xlink:href="#ArialMT-2e" x="111.230469"/>
       <use xlink:href="#ArialMT-38" x="139.013672"/>
      </g>
     </g>
    </g>
    <g id="ytick_7">
     <g id="line2d_27">
      <g>
       <use xlink:href="#m7b3e1faad1" x="951.798906" y="430.56" style="fill: #262626; stroke: #262626; stroke-width: 1.25"/>
      </g>
     </g>
     <g id="text_21">
      <!-- 11.0 -->
      <g style="fill: #262626" transform="translate(961.298906 434.496797) scale(0.11 -0.11)">
       <use xlink:href="#ArialMT-31"/>
       <use xlink:href="#ArialMT-31" x="48.240234"/>
       <use xlink:href="#ArialMT-2e" x="103.855469"/>
       <use xlink:href="#ArialMT-30" x="131.638672"/>
      </g>
     </g>
    </g>
    <g id="ytick_8">
     <g id="line2d_28">
      <g>
       <use xlink:href="#m7b3e1faad1" x="951.798906" y="361.44" style="fill: #262626; stroke: #262626; stroke-width: 1.25"/>
      </g>
     </g>
     <g id="text_22">
      <!-- 11.2 -->
      <g style="fill: #262626" transform="translate(961.298906 365.376797) scale(0.11 -0.11)">
       <use xlink:href="#ArialMT-31"/>
       <use xlink:href="#ArialMT-31" x="48.240234"/>
       <use xlink:href="#ArialMT-2e" x="103.855469"/>
       <use xlink:href="#ArialMT-32" x="131.638672"/>
      </g>
     </g>
    </g>
    <g id="ytick_9">
     <g id="line2d_29">
      <g>
       <use xlink:href="#m7b3e1faad1" x="951.798906" y="292.32" style="fill: #262626; stroke: #262626; stroke-width: 1.25"/>
      </g>
     </g>
     <g id="text_23">
      <!-- 11.4 -->
      <g style="fill: #262626" transform="translate(961.298906 296.256797) scale(0.11 -0.11)">
       <use xlink:href="#ArialMT-31"/>
       <use xlink:href="#ArialMT-31" x="48.240234"/>
       <use xlink:href="#ArialMT-2e" x="103.855469"/>
       <use xlink:href="#ArialMT-34" x="131.638672"/>
      </g>
     </g>
    </g>
    <g id="ytick_10">
     <g id="line2d_30">
      <g>
       <use xlink:href="#m7b3e1faad1" x="951.798906" y="223.2" style="fill: #262626; stroke: #262626; stroke-width: 1.25"/>
      </g>
     </g>
     <g id="text_24">
      <!-- 11.6 -->
      <g style="fill: #262626" transform="translate(961.298906 227.136797) scale(0.11 -0.11)">
       <use xlink:href="#ArialMT-31"/>
       <use xlink:href="#ArialMT-31" x="48.240234"/>
       <use xlink:href="#ArialMT-2e" x="103.855469"/>
       <use xlink:href="#ArialMT-36" x="131.638672"/>
      </g>
     </g>
    </g>
    <g id="ytick_11">
     <g id="line2d_31">
      <g>
       <use xlink:href="#m7b3e1faad1" x="951.798906" y="154.08" style="fill: #262626; stroke: #262626; stroke-width: 1.25"/>
      </g>
     </g>
     <g id="text_25">
      <!-- 11.8 -->
      <g style="fill: #262626" transform="translate(961.298906 158.016797) scale(0.11 -0.11)">
       <use xlink:href="#ArialMT-31"/>
       <use xlink:href="#ArialMT-31" x="48.240234"/>
       <use xlink:href="#ArialMT-2e" x="103.855469"/>
       <use xlink:href="#ArialMT-38" x="131.638672"/>
      </g>
     </g>
    </g>
    <g id="ytick_12">
     <g id="line2d_32">
      <g>
       <use xlink:href="#m7b3e1faad1" x="951.798906" y="84.96" style="fill: #262626; stroke: #262626; stroke-width: 1.25"/>
      </g>
     </g>
     <g id="text_26">
      <!-- 12.0 -->
      <g style="fill: #262626" transform="translate(961.298906 88.896797) scale(0.11 -0.11)">
       <use xlink:href="#ArialMT-31"/>
       <use xlink:href="#ArialMT-32" x="55.615234"/>
       <use xlink:href="#ArialMT-2e" x="111.230469"/>
       <use xlink:href="#ArialMT-30" x="139.013672"/>
      </g>
     </g>
    </g>
    <g id="text_27">
     <!-- Water Temp (°C) -->
     <g style="fill: #262626" transform="translate(999.809375 353.161406) rotate(-90) scale(0.18 -0.18)">
      <defs>
       <path id="ArialMT-43" d="M 3763 1606
L 4369 1453
Q 4178 706 3683 314
Q 3188 -78 2472 -78
Q 1731 -78 1267 223
Q 803 525 561 1097
Q 319 1669 319 2325
Q 319 3041 592 3573
Q 866 4106 1370 4382
Q 1875 4659 2481 4659
Q 3169 4659 3637 4309
Q 4106 3959 4291 3325
L 3694 3184
Q 3534 3684 3231 3912
Q 2928 4141 2469 4141
Q 1941 4141 1586 3887
Q 1231 3634 1087 3207
Q 944 2781 944 2328
Q 944 1744 1114 1308
Q 1284 872 1643 656
Q 2003 441 2422 441
Q 2931 441 3284 734
Q 3638 1028 3763 1606
z
" transform="scale(0.015625)"/>
      </defs>
      <use xlink:href="#ArialMT-57"/>
      <use xlink:href="#ArialMT-61" x="90.634766"/>
      <use xlink:href="#ArialMT-74" x="146.25"/>
      <use xlink:href="#ArialMT-65" x="174.033203"/>
      <use xlink:href="#ArialMT-72" x="229.648438"/>
      <use xlink:href="#ArialMT-20" x="262.949219"/>
      <use xlink:href="#ArialMT-54" x="288.982422"/>
      <use xlink:href="#ArialMT-65" x="338.941406"/>
      <use xlink:href="#ArialMT-6d" x="394.556641"/>
      <use xlink:href="#ArialMT-70" x="477.857422"/>
      <use xlink:href="#ArialMT-20" x="533.472656"/>
      <use xlink:href="#ArialMT-28" x="561.255859"/>
      <use xlink:href="#ArialMT-b0" x="594.556641"/>
      <use xlink:href="#ArialMT-43" x="634.546875"/>
      <use xlink:href="#ArialMT-29" x="706.763672"/>
     </g>
    </g>
   </g>
   <g id="patch_8">
    <path d="M 58.998906 508.32
L 58.998906 64.8
" style="fill: none; stroke: #ffffff; stroke-width: 1.25; stroke-linejoin: miter; stroke-linecap: square"/>
   </g>
   <g id="patch_9">
    <path d="M 951.798906 508.32
L 951.798906 64.8
" style="fill: none; stroke: #ffffff; stroke-width: 1.25; stroke-linejoin: miter; stroke-linecap: square"/>
   </g>
   <g id="patch_10">
    <path d="M 58.998906 508.32
L 951.798906 508.32
" style="fill: none; stroke: #ffffff; stroke-width: 1.25; stroke-linejoin: miter; stroke-linecap: square"/>
   </g>
   <g id="patch_11">
    <path d="M 58.998906 64.8
L 951.798906 64.8
" style="fill: none; stroke: #ffffff; stroke-width: 1.25; stroke-linejoin: miter; stroke-linecap: square"/>
   </g>
  </g>
  <g id="text_28">
   <!-- Battery NYC Water Temperature -->
   <g style="fill: #262626" transform="translate(318.950781 24.67125) scale(0.24 -0.24)">
    <defs>
     <path id="ArialMT-42" d="M 469 0
L 469 4581
L 2188 4581
Q 2713 4581 3030 4442
Q 3347 4303 3526 4014
Q 3706 3725 3706 3409
Q 3706 3116 3547 2856
Q 3388 2597 3066 2438
Q 3481 2316 3704 2022
Q 3928 1728 3928 1328
Q 3928 1006 3792 729
Q 3656 453 3456 303
Q 3256 153 2954 76
Q 2653 0 2216 0
L 469 0
z
M 1075 2656
L 2066 2656
Q 2469 2656 2644 2709
Q 2875 2778 2992 2937
Q 3109 3097 3109 3338
Q 3109 3566 3000 3739
Q 2891 3913 2687 3977
Q 2484 4041 1991 4041
L 1075 4041
L 1075 2656
z
M 1075 541
L 2216 541
Q 2509 541 2628 563
Q 2838 600 2978 687
Q 3119 775 3209 942
Q 3300 1109 3300 1328
Q 3300 1584 3169 1773
Q 3038 1963 2805 2039
Q 2572 2116 2134 2116
L 1075 2116
L 1075 541
z
" transform="scale(0.015625)"/>
     <path id="ArialMT-79" d="M 397 -1278
L 334 -750
Q 519 -800 656 -800
Q 844 -800 956 -737
Q 1069 -675 1141 -563
Q 1194 -478 1313 -144
Q 1328 -97 1363 -6
L 103 3319
L 709 3319
L 1400 1397
Q 1534 1031 1641 628
Q 1738 1016 1872 1384
L 2581 3319
L 3144 3319
L 1881 -56
Q 1678 -603 1566 -809
Q 1416 -1088 1222 -1217
Q 1028 -1347 759 -1347
Q 597 -1347 397 -1278
z
" transform="scale(0.015625)"/>
     <path id="ArialMT-4e" d="M 488 0
L 488 4581
L 1109 4581
L 3516 984
L 3516 4581
L 4097 4581
L 4097 0
L 3475 0
L 1069 3600
L 1069 0
L 488 0
z
" transform="scale(0.015625)"/>
     <path id="ArialMT-59" d="M 1784 0
L 1784 1941
L 19 4581
L 756 4581
L 1659 3200
Q 1909 2813 2125 2425
Q 2331 2784 2625 3234
L 3513 4581
L 4219 4581
L 2391 1941
L 2391 0
L 1784 0
z
" transform="scale(0.015625)"/>
    </defs>
    <use xlink:href="#ArialMT-42"/>
    <use xlink:href="#ArialMT-61" x="66.699219"/>
    <use xlink:href="#ArialMT-74" x="122.314453"/>
    <use xlink:href="#ArialMT-74" x="150.097656"/>
    <use xlink:href="#ArialMT-65" x="177.880859"/>
    <use xlink:href="#ArialMT-72" x="233.496094"/>
    <use xlink:href="#ArialMT-79" x="266.796875"/>
    <use xlink:href="#ArialMT-20" x="316.796875"/>
    <use xlink:href="#ArialMT-4e" x="344.580078"/>
    <use xlink:href="#ArialMT-59" x="416.796875"/>
    <use xlink:href="#ArialMT-43" x="483.496094"/>
    <use xlink:href="#ArialMT-20" x="555.712891"/>
    <use xlink:href="#ArialMT-57" x="583.496094"/>
    <use xlink:href="#ArialMT-61" x="674.130859"/>
    <use xlink:href="#ArialMT-74" x="729.746094"/>
    <use xlink:href="#ArialMT-65" x="757.529297"/>
    <use xlink:href="#ArialMT-72" x="813.144531"/>
    <use xlink:href="#ArialMT-20" x="846.445312"/>
    <use xlink:href="#ArialMT-54" x="872.478516"/>
    <use xlink:href="#ArialMT-65" x="922.4375"/>
    <use xlink:href="#ArialMT-6d" x="978.052734"/>
    <use xlink:href="#ArialMT-70" x="1061.353516"/>
    <use xlink:href="#ArialMT-65" x="1116.96875"/>
    <use xlink:href="#ArialMT-72" x="1172.583984"/>
    <use xlink:href="#ArialMT-61" x="1205.884766"/>
    <use xlink:href="#ArialMT-74" x="1261.5"/>
    <use xlink:href="#ArialMT-75" x="1289.283203"/>
    <use xlink:href="#ArialMT-72" x="1344.898438"/>
    <use xlink:href="#ArialMT-65" x="1378.199219"/>
   </g>
  </g>
 </g>
 <defs>
  <clipPath id="p8e859aa151">
   <rect x="58.998906" y="64.8" width="892.8" height="443.52"/>
  </clipPath>
 </defs>
</svg>
