<?xml version="1.0" encoding="utf-8" standalone="no"?>
<!DOCTYPE svg PUBLIC "-//W3C//DTD SVG 1.1//EN"
  "http://www.w3.org/Graphics/SVG/1.1/DTD/svg11.dtd">
<svg xmlns:xlink="http://www.w3.org/1999/xlink" width="1016.914844pt" height="555.541406pt" viewBox="0 0 1016.914844 555.541406" xmlns="http://www.w3.org/2000/svg" version="1.1">
 <metadata>
  <rdf:RDF xmlns:dc="http://purl.org/dc/elements/1.1/" xmlns:cc="http://creativecommons.org/ns#" xmlns:rdf="http://www.w3.org/1999/02/22-rdf-syntax-ns#">
   <cc:Work>
    <dc:type rdf:resource="http://purl.org/dc/dcmitype/StillImage"/>
    <dc:date>2023-10-08T15:21:50.887536</dc:date>
    <dc:format>image/svg+xml</dc:format>
    <dc:creator>
     <cc:Agent>
      <dc:title>Matplotlib v3.8.0, https://matplotlib.org/</dc:title>
     </cc:Agent>
    </dc:creator>
   </cc:Work>
  </rdf:RDF>
 </metadata>
 <defs>
  <style type="text/css">*{stroke-linejoin: round; stroke-linecap: butt}</style>
 </defs>
 <g id="figure_1">
  <g id="patch_1">
   <path d="M 0 555.541406
L 1016.914844 555.541406
L 1016.914844 0
L 0 0
z
" style="fill: #ffffff"/>
  </g>
  <g id="axes_1">
   <g id="patch_2">
    <path d="M 65.115938 508.32
L 957.915937 508.32
L 957.915937 64.8
L 65.115938 64.8
z
" style="fill: #eaeaf2"/>
   </g>
   <g id="matplotlib.axis_1">
    <g id="xtick_1">
     <g id="line2d_1">
      <path d="M 151.447613 508.32
L 151.447613 64.8
" clip-path="url(#pe59b1c1c76)" style="fill: none; stroke: #ffffff; stroke-linecap: round"/>
     </g>
     <g id="text_1">
      <!-- Fri 6 PM -->
      <g style="fill: #262626" transform="translate(130.670504 525.693594) scale(0.11 -0.11)">
       <defs>
        <path id="ArialMT-46" d="M 525 0
L 525 4581
L 3616 4581
L 3616 4041
L 1131 4041
L 1131 2622
L 3281 2622
L 3281 2081
L 1131 2081
L 1131 0
L 525 0
z
" transform="scale(0.015625)"/>
        <path id="ArialMT-72" d="M 416 0
L 416 3319
L 922 3319
L 922 2816
Q 1116 3169 1280 3281
Q 1444 3394 1641 3394
Q 1925 3394 2219 3213
L 2025 2691
Q 1819 2813 1613 2813
Q 1428 2813 1281 2702
Q 1134 2591 1072 2394
Q 978 2094 978 1738
L 978 0
L 416 0
z
" transform="scale(0.015625)"/>
        <path id="ArialMT-69" d="M 425 3934
L 425 4581
L 988 4581
L 988 3934
L 425 3934
z
M 425 0
L 425 3319
L 988 3319
L 988 0
L 425 0
z
" transform="scale(0.015625)"/>
        <path id="ArialMT-20" transform="scale(0.015625)"/>
        <path id="ArialMT-36" d="M 3184 3459
L 2625 3416
Q 2550 3747 2413 3897
Q 2184 4138 1850 4138
Q 1581 4138 1378 3988
Q 1113 3794 959 3422
Q 806 3050 800 2363
Q 1003 2672 1297 2822
Q 1591 2972 1913 2972
Q 2475 2972 2870 2558
Q 3266 2144 3266 1488
Q 3266 1056 3080 686
Q 2894 316 2569 119
Q 2244 -78 1831 -78
Q 1128 -78 684 439
Q 241 956 241 2144
Q 241 3472 731 4075
Q 1159 4600 1884 4600
Q 2425 4600 2770 4297
Q 3116 3994 3184 3459
z
M 888 1484
Q 888 1194 1011 928
Q 1134 663 1356 523
Q 1578 384 1822 384
Q 2178 384 2434 671
Q 2691 959 2691 1453
Q 2691 1928 2437 2201
Q 2184 2475 1800 2475
Q 1419 2475 1153 2201
Q 888 1928 888 1484
z
" transform="scale(0.015625)"/>
        <path id="ArialMT-50" d="M 494 0
L 494 4581
L 2222 4581
Q 2678 4581 2919 4538
Q 3256 4481 3484 4323
Q 3713 4166 3852 3881
Q 3991 3597 3991 3256
Q 3991 2672 3619 2267
Q 3247 1863 2275 1863
L 1100 1863
L 1100 0
L 494 0
z
M 1100 2403
L 2284 2403
Q 2872 2403 3119 2622
Q 3366 2841 3366 3238
Q 3366 3525 3220 3729
Q 3075 3934 2838 4000
Q 2684 4041 2272 4041
L 1100 4041
L 1100 2403
z
" transform="scale(0.015625)"/>
        <path id="ArialMT-4d" d="M 475 0
L 475 4581
L 1388 4581
L 2472 1338
Q 2622 884 2691 659
Q 2769 909 2934 1394
L 4031 4581
L 4847 4581
L 4847 0
L 4263 0
L 4263 3834
L 2931 0
L 2384 0
L 1059 3900
L 1059 0
L 475 0
z
" transform="scale(0.015625)"/>
       </defs>
       <use xlink:href="#ArialMT-46"/>
       <use xlink:href="#ArialMT-72" x="61.083984"/>
       <use xlink:href="#ArialMT-69" x="94.384766"/>
       <use xlink:href="#ArialMT-20" x="116.601562"/>
       <use xlink:href="#ArialMT-36" x="144.384766"/>
       <use xlink:href="#ArialMT-20" x="200"/>
       <use xlink:href="#ArialMT-50" x="227.783203"/>
       <use xlink:href="#ArialMT-4d" x="294.482422"/>
      </g>
     </g>
    </g>
    <g id="xtick_2">
     <g id="line2d_2">
      <path d="M 253.113964 508.32
L 253.113964 64.8
" clip-path="url(#pe59b1c1c76)" style="fill: none; stroke: #ffffff; stroke-linecap: round"/>
     </g>
     <g id="text_2">
      <!-- Sat 12 AM -->
      <g style="fill: #262626" transform="translate(227.738339 525.693594) scale(0.11 -0.11)">
       <defs>
        <path id="ArialMT-53" d="M 288 1472
L 859 1522
Q 900 1178 1048 958
Q 1197 738 1509 602
Q 1822 466 2213 466
Q 2559 466 2825 569
Q 3091 672 3220 851
Q 3350 1031 3350 1244
Q 3350 1459 3225 1620
Q 3100 1781 2813 1891
Q 2628 1963 1997 2114
Q 1366 2266 1113 2400
Q 784 2572 623 2826
Q 463 3081 463 3397
Q 463 3744 659 4045
Q 856 4347 1234 4503
Q 1613 4659 2075 4659
Q 2584 4659 2973 4495
Q 3363 4331 3572 4012
Q 3781 3694 3797 3291
L 3216 3247
Q 3169 3681 2898 3903
Q 2628 4125 2100 4125
Q 1550 4125 1298 3923
Q 1047 3722 1047 3438
Q 1047 3191 1225 3031
Q 1400 2872 2139 2705
Q 2878 2538 3153 2413
Q 3553 2228 3743 1945
Q 3934 1663 3934 1294
Q 3934 928 3725 604
Q 3516 281 3123 101
Q 2731 -78 2241 -78
Q 1619 -78 1198 103
Q 778 284 539 648
Q 300 1013 288 1472
z
" transform="scale(0.015625)"/>
        <path id="ArialMT-61" d="M 2588 409
Q 2275 144 1986 34
Q 1697 -75 1366 -75
Q 819 -75 525 192
Q 231 459 231 875
Q 231 1119 342 1320
Q 453 1522 633 1644
Q 813 1766 1038 1828
Q 1203 1872 1538 1913
Q 2219 1994 2541 2106
Q 2544 2222 2544 2253
Q 2544 2597 2384 2738
Q 2169 2928 1744 2928
Q 1347 2928 1158 2789
Q 969 2650 878 2297
L 328 2372
Q 403 2725 575 2942
Q 747 3159 1072 3276
Q 1397 3394 1825 3394
Q 2250 3394 2515 3294
Q 2781 3194 2906 3042
Q 3031 2891 3081 2659
Q 3109 2516 3109 2141
L 3109 1391
Q 3109 606 3145 398
Q 3181 191 3288 0
L 2700 0
Q 2613 175 2588 409
z
M 2541 1666
Q 2234 1541 1622 1453
Q 1275 1403 1131 1340
Q 988 1278 909 1158
Q 831 1038 831 891
Q 831 666 1001 516
Q 1172 366 1500 366
Q 1825 366 2078 508
Q 2331 650 2450 897
Q 2541 1088 2541 1459
L 2541 1666
z
" transform="scale(0.015625)"/>
        <path id="ArialMT-74" d="M 1650 503
L 1731 6
Q 1494 -44 1306 -44
Q 1000 -44 831 53
Q 663 150 594 308
Q 525 466 525 972
L 525 2881
L 113 2881
L 113 3319
L 525 3319
L 525 4141
L 1084 4478
L 1084 3319
L 1650 3319
L 1650 2881
L 1084 2881
L 1084 941
Q 1084 700 1114 631
Q 1144 563 1211 522
Q 1278 481 1403 481
Q 1497 481 1650 503
z
" transform="scale(0.015625)"/>
        <path id="ArialMT-31" d="M 2384 0
L 1822 0
L 1822 3584
Q 1619 3391 1289 3197
Q 959 3003 697 2906
L 697 3450
Q 1169 3672 1522 3987
Q 1875 4303 2022 4600
L 2384 4600
L 2384 0
z
" transform="scale(0.015625)"/>
        <path id="ArialMT-32" d="M 3222 541
L 3222 0
L 194 0
Q 188 203 259 391
Q 375 700 629 1000
Q 884 1300 1366 1694
Q 2113 2306 2375 2664
Q 2638 3022 2638 3341
Q 2638 3675 2398 3904
Q 2159 4134 1775 4134
Q 1369 4134 1125 3890
Q 881 3647 878 3216
L 300 3275
Q 359 3922 746 4261
Q 1134 4600 1788 4600
Q 2447 4600 2831 4234
Q 3216 3869 3216 3328
Q 3216 3053 3103 2787
Q 2991 2522 2730 2228
Q 2469 1934 1863 1422
Q 1356 997 1212 845
Q 1069 694 975 541
L 3222 541
z
" transform="scale(0.015625)"/>
        <path id="ArialMT-41" d="M -9 0
L 1750 4581
L 2403 4581
L 4278 0
L 3588 0
L 3053 1388
L 1138 1388
L 634 0
L -9 0
z
M 1313 1881
L 2866 1881
L 2388 3150
Q 2169 3728 2063 4100
Q 1975 3659 1816 3225
L 1313 1881
z
" transform="scale(0.015625)"/>
       </defs>
       <use xlink:href="#ArialMT-53"/>
       <use xlink:href="#ArialMT-61" x="66.699219"/>
       <use xlink:href="#ArialMT-74" x="122.314453"/>
       <use xlink:href="#ArialMT-20" x="150.097656"/>
       <use xlink:href="#ArialMT-31" x="177.880859"/>
       <use xlink:href="#ArialMT-32" x="233.496094"/>
       <use xlink:href="#ArialMT-20" x="289.111328"/>
       <use xlink:href="#ArialMT-41" x="311.394531"/>
       <use xlink:href="#ArialMT-4d" x="378.09375"/>
      </g>
     </g>
    </g>
    <g id="xtick_3">
     <g id="line2d_3">
      <path d="M 354.780314 508.32
L 354.780314 64.8
" clip-path="url(#pe59b1c1c76)" style="fill: none; stroke: #ffffff; stroke-linecap: round"/>
     </g>
     <g id="text_3">
      <!-- Sat 6 AM -->
      <g style="fill: #262626" transform="translate(332.463205 525.693594) scale(0.11 -0.11)">
       <use xlink:href="#ArialMT-53"/>
       <use xlink:href="#ArialMT-61" x="66.699219"/>
       <use xlink:href="#ArialMT-74" x="122.314453"/>
       <use xlink:href="#ArialMT-20" x="150.097656"/>
       <use xlink:href="#ArialMT-36" x="177.880859"/>
       <use xlink:href="#ArialMT-20" x="233.496094"/>
       <use xlink:href="#ArialMT-41" x="255.779297"/>
       <use xlink:href="#ArialMT-4d" x="322.478516"/>
      </g>
     </g>
    </g>
    <g id="xtick_4">
     <g id="line2d_4">
      <path d="M 456.446664 508.32
L 456.446664 64.8
" clip-path="url(#pe59b1c1c76)" style="fill: none; stroke: #ffffff; stroke-linecap: round"/>
     </g>
     <g id="text_4">
      <!-- Sat 12 PM -->
      <g style="fill: #262626" transform="translate(430.768539 525.693594) scale(0.11 -0.11)">
       <use xlink:href="#ArialMT-53"/>
       <use xlink:href="#ArialMT-61" x="66.699219"/>
       <use xlink:href="#ArialMT-74" x="122.314453"/>
       <use xlink:href="#ArialMT-20" x="150.097656"/>
       <use xlink:href="#ArialMT-31" x="177.880859"/>
       <use xlink:href="#ArialMT-32" x="233.496094"/>
       <use xlink:href="#ArialMT-20" x="289.111328"/>
       <use xlink:href="#ArialMT-50" x="316.894531"/>
       <use xlink:href="#ArialMT-4d" x="383.59375"/>
      </g>
     </g>
    </g>
    <g id="xtick_5">
     <g id="line2d_5">
      <path d="M 558.113015 508.32
L 558.113015 64.8
" clip-path="url(#pe59b1c1c76)" style="fill: none; stroke: #ffffff; stroke-linecap: round"/>
     </g>
     <g id="text_5">
      <!-- Sat 6 PM -->
      <g style="fill: #262626" transform="translate(535.493405 525.693594) scale(0.11 -0.11)">
       <use xlink:href="#ArialMT-53"/>
       <use xlink:href="#ArialMT-61" x="66.699219"/>
       <use xlink:href="#ArialMT-74" x="122.314453"/>
       <use xlink:href="#ArialMT-20" x="150.097656"/>
       <use xlink:href="#ArialMT-36" x="177.880859"/>
       <use xlink:href="#ArialMT-20" x="233.496094"/>
       <use xlink:href="#ArialMT-50" x="261.279297"/>
       <use xlink:href="#ArialMT-4d" x="327.978516"/>
      </g>
     </g>
    </g>
    <g id="xtick_6">
     <g id="line2d_6">
      <path d="M 659.779365 508.32
L 659.779365 64.8
" clip-path="url(#pe59b1c1c76)" style="fill: none; stroke: #ffffff; stroke-linecap: round"/>
     </g>
     <g id="text_6">
      <!-- Sun 12 AM -->
      <g style="fill: #262626" transform="translate(632.873193 525.693594) scale(0.11 -0.11)">
       <defs>
        <path id="ArialMT-75" d="M 2597 0
L 2597 488
Q 2209 -75 1544 -75
Q 1250 -75 995 37
Q 741 150 617 320
Q 494 491 444 738
Q 409 903 409 1263
L 409 3319
L 972 3319
L 972 1478
Q 972 1038 1006 884
Q 1059 663 1231 536
Q 1403 409 1656 409
Q 1909 409 2131 539
Q 2353 669 2445 892
Q 2538 1116 2538 1541
L 2538 3319
L 3100 3319
L 3100 0
L 2597 0
z
" transform="scale(0.015625)"/>
        <path id="ArialMT-6e" d="M 422 0
L 422 3319
L 928 3319
L 928 2847
Q 1294 3394 1984 3394
Q 2284 3394 2536 3286
Q 2788 3178 2913 3003
Q 3038 2828 3088 2588
Q 3119 2431 3119 2041
L 3119 0
L 2556 0
L 2556 2019
Q 2556 2363 2490 2533
Q 2425 2703 2258 2804
Q 2091 2906 1866 2906
Q 1506 2906 1245 2678
Q 984 2450 984 1813
L 984 0
L 422 0
z
" transform="scale(0.015625)"/>
       </defs>
       <use xlink:href="#ArialMT-53"/>
       <use xlink:href="#ArialMT-75" x="66.699219"/>
       <use xlink:href="#ArialMT-6e" x="122.314453"/>
       <use xlink:href="#ArialMT-20" x="177.929688"/>
       <use xlink:href="#ArialMT-31" x="205.712891"/>
       <use xlink:href="#ArialMT-32" x="261.328125"/>
       <use xlink:href="#ArialMT-20" x="316.943359"/>
       <use xlink:href="#ArialMT-41" x="339.226562"/>
       <use xlink:href="#ArialMT-4d" x="405.925781"/>
      </g>
     </g>
    </g>
    <g id="xtick_7">
     <g id="line2d_7">
      <path d="M 761.445715 508.32
L 761.445715 64.8
" clip-path="url(#pe59b1c1c76)" style="fill: none; stroke: #ffffff; stroke-linecap: round"/>
     </g>
     <g id="text_7">
      <!-- Sun 6 AM -->
      <g style="fill: #262626" transform="translate(737.598059 525.693594) scale(0.11 -0.11)">
       <use xlink:href="#ArialMT-53"/>
       <use xlink:href="#ArialMT-75" x="66.699219"/>
       <use xlink:href="#ArialMT-6e" x="122.314453"/>
       <use xlink:href="#ArialMT-20" x="177.929688"/>
       <use xlink:href="#ArialMT-36" x="205.712891"/>
       <use xlink:href="#ArialMT-20" x="261.328125"/>
       <use xlink:href="#ArialMT-41" x="283.611328"/>
       <use xlink:href="#ArialMT-4d" x="350.310547"/>
      </g>
     </g>
    </g>
    <g id="xtick_8">
     <g id="line2d_8">
      <path d="M 863.112066 508.32
L 863.112066 64.8
" clip-path="url(#pe59b1c1c76)" style="fill: none; stroke: #ffffff; stroke-linecap: round"/>
     </g>
     <g id="text_8">
      <!-- Sun 12 PM -->
      <g style="fill: #262626" transform="translate(835.903394 525.693594) scale(0.11 -0.11)">
       <use xlink:href="#ArialMT-53"/>
       <use xlink:href="#ArialMT-75" x="66.699219"/>
       <use xlink:href="#ArialMT-6e" x="122.314453"/>
       <use xlink:href="#ArialMT-20" x="177.929688"/>
       <use xlink:href="#ArialMT-31" x="205.712891"/>
       <use xlink:href="#ArialMT-32" x="261.328125"/>
       <use xlink:href="#ArialMT-20" x="316.943359"/>
       <use xlink:href="#ArialMT-50" x="344.726562"/>
       <use xlink:href="#ArialMT-4d" x="411.425781"/>
      </g>
     </g>
    </g>
    <g id="text_9">
     <!-- Time -->
     <g style="fill: #262626" transform="translate(491.855156 544.763906) scale(0.18 -0.18)">
      <defs>
       <path id="ArialMT-54" d="M 1659 0
L 1659 4041
L 150 4041
L 150 4581
L 3781 4581
L 3781 4041
L 2266 4041
L 2266 0
L 1659 0
z
" transform="scale(0.015625)"/>
       <path id="ArialMT-6d" d="M 422 0
L 422 3319
L 925 3319
L 925 2853
Q 1081 3097 1340 3245
Q 1600 3394 1931 3394
Q 2300 3394 2536 3241
Q 2772 3088 2869 2813
Q 3263 3394 3894 3394
Q 4388 3394 4653 3120
Q 4919 2847 4919 2278
L 4919 0
L 4359 0
L 4359 2091
Q 4359 2428 4304 2576
Q 4250 2725 4106 2815
Q 3963 2906 3769 2906
Q 3419 2906 3187 2673
Q 2956 2441 2956 1928
L 2956 0
L 2394 0
L 2394 2156
Q 2394 2531 2256 2718
Q 2119 2906 1806 2906
Q 1569 2906 1367 2781
Q 1166 2656 1075 2415
Q 984 2175 984 1722
L 984 0
L 422 0
z
" transform="scale(0.015625)"/>
       <path id="ArialMT-65" d="M 2694 1069
L 3275 997
Q 3138 488 2766 206
Q 2394 -75 1816 -75
Q 1088 -75 661 373
Q 234 822 234 1631
Q 234 2469 665 2931
Q 1097 3394 1784 3394
Q 2450 3394 2872 2941
Q 3294 2488 3294 1666
Q 3294 1616 3291 1516
L 816 1516
Q 847 969 1125 678
Q 1403 388 1819 388
Q 2128 388 2347 550
Q 2566 713 2694 1069
z
M 847 1978
L 2700 1978
Q 2663 2397 2488 2606
Q 2219 2931 1791 2931
Q 1403 2931 1139 2672
Q 875 2413 847 1978
z
" transform="scale(0.015625)"/>
      </defs>
      <use xlink:href="#ArialMT-54"/>
      <use xlink:href="#ArialMT-69" x="57.333984"/>
      <use xlink:href="#ArialMT-6d" x="79.550781"/>
      <use xlink:href="#ArialMT-65" x="162.851562"/>
     </g>
    </g>
   </g>
   <g id="matplotlib.axis_2">
    <g id="ytick_1">
     <g id="line2d_9">
      <path d="M 65.115938 476.96
L 957.915937 476.96
" clip-path="url(#pe59b1c1c76)" style="fill: none; stroke: #ffffff; stroke-linecap: round"/>
     </g>
     <g id="line2d_10">
      <defs>
       <path id="m0adecf3dba" d="M 0 0
L -6 0
" style="stroke: #262626; stroke-width: 1.25"/>
      </defs>
      <g>
       <use xlink:href="#m0adecf3dba" x="65.115938" y="476.96" style="fill: #262626; stroke: #262626; stroke-width: 1.25"/>
      </g>
     </g>
     <g id="text_10">
      <!-- 66.25 -->
      <g style="fill: #262626" transform="translate(28.091875 480.896797) scale(0.11 -0.11)">
       <defs>
        <path id="ArialMT-2e" d="M 581 0
L 581 641
L 1222 641
L 1222 0
L 581 0
z
" transform="scale(0.015625)"/>
        <path id="ArialMT-35" d="M 266 1200
L 856 1250
Q 922 819 1161 601
Q 1400 384 1738 384
Q 2144 384 2425 690
Q 2706 997 2706 1503
Q 2706 1984 2436 2262
Q 2166 2541 1728 2541
Q 1456 2541 1237 2417
Q 1019 2294 894 2097
L 366 2166
L 809 4519
L 3088 4519
L 3088 3981
L 1259 3981
L 1013 2750
Q 1425 3038 1878 3038
Q 2478 3038 2890 2622
Q 3303 2206 3303 1553
Q 3303 931 2941 478
Q 2500 -78 1738 -78
Q 1113 -78 717 272
Q 322 622 266 1200
z
" transform="scale(0.015625)"/>
       </defs>
       <use xlink:href="#ArialMT-36"/>
       <use xlink:href="#ArialMT-36" x="55.615234"/>
       <use xlink:href="#ArialMT-2e" x="111.230469"/>
       <use xlink:href="#ArialMT-32" x="139.013672"/>
       <use xlink:href="#ArialMT-35" x="194.628906"/>
      </g>
     </g>
    </g>
    <g id="ytick_2">
     <g id="line2d_11">
      <path d="M 65.115938 420.96
L 957.915937 420.96
" clip-path="url(#pe59b1c1c76)" style="fill: none; stroke: #ffffff; stroke-linecap: round"/>
     </g>
     <g id="line2d_12">
      <g>
       <use xlink:href="#m0adecf3dba" x="65.115938" y="420.96" style="fill: #262626; stroke: #262626; stroke-width: 1.25"/>
      </g>
     </g>
     <g id="text_11">
      <!-- 66.50 -->
      <g style="fill: #262626" transform="translate(28.091875 424.896797) scale(0.11 -0.11)">
       <defs>
        <path id="ArialMT-30" d="M 266 2259
Q 266 3072 433 3567
Q 600 4063 929 4331
Q 1259 4600 1759 4600
Q 2128 4600 2406 4451
Q 2684 4303 2865 4023
Q 3047 3744 3150 3342
Q 3253 2941 3253 2259
Q 3253 1453 3087 958
Q 2922 463 2592 192
Q 2263 -78 1759 -78
Q 1097 -78 719 397
Q 266 969 266 2259
z
M 844 2259
Q 844 1131 1108 757
Q 1372 384 1759 384
Q 2147 384 2411 759
Q 2675 1134 2675 2259
Q 2675 3391 2411 3762
Q 2147 4134 1753 4134
Q 1366 4134 1134 3806
Q 844 3388 844 2259
z
" transform="scale(0.015625)"/>
       </defs>
       <use xlink:href="#ArialMT-36"/>
       <use xlink:href="#ArialMT-36" x="55.615234"/>
       <use xlink:href="#ArialMT-2e" x="111.230469"/>
       <use xlink:href="#ArialMT-35" x="139.013672"/>
       <use xlink:href="#ArialMT-30" x="194.628906"/>
      </g>
     </g>
    </g>
    <g id="ytick_3">
     <g id="line2d_13">
      <path d="M 65.115938 364.96
L 957.915937 364.96
" clip-path="url(#pe59b1c1c76)" style="fill: none; stroke: #ffffff; stroke-linecap: round"/>
     </g>
     <g id="line2d_14">
      <g>
       <use xlink:href="#m0adecf3dba" x="65.115938" y="364.96" style="fill: #262626; stroke: #262626; stroke-width: 1.25"/>
      </g>
     </g>
     <g id="text_12">
      <!-- 66.75 -->
      <g style="fill: #262626" transform="translate(28.091875 368.896797) scale(0.11 -0.11)">
       <defs>
        <path id="ArialMT-37" d="M 303 3981
L 303 4522
L 3269 4522
L 3269 4084
Q 2831 3619 2401 2847
Q 1972 2075 1738 1259
Q 1569 684 1522 0
L 944 0
Q 953 541 1156 1306
Q 1359 2072 1739 2783
Q 2119 3494 2547 3981
L 303 3981
z
" transform="scale(0.015625)"/>
       </defs>
       <use xlink:href="#ArialMT-36"/>
       <use xlink:href="#ArialMT-36" x="55.615234"/>
       <use xlink:href="#ArialMT-2e" x="111.230469"/>
       <use xlink:href="#ArialMT-37" x="139.013672"/>
       <use xlink:href="#ArialMT-35" x="194.628906"/>
      </g>
     </g>
    </g>
    <g id="ytick_4">
     <g id="line2d_15">
      <path d="M 65.115938 308.96
L 957.915937 308.96
" clip-path="url(#pe59b1c1c76)" style="fill: none; stroke: #ffffff; stroke-linecap: round"/>
     </g>
     <g id="line2d_16">
      <g>
       <use xlink:href="#m0adecf3dba" x="65.115938" y="308.96" style="fill: #262626; stroke: #262626; stroke-width: 1.25"/>
      </g>
     </g>
     <g id="text_13">
      <!-- 67.00 -->
      <g style="fill: #262626" transform="translate(28.091875 312.896797) scale(0.11 -0.11)">
       <use xlink:href="#ArialMT-36"/>
       <use xlink:href="#ArialMT-37" x="55.615234"/>
       <use xlink:href="#ArialMT-2e" x="111.230469"/>
       <use xlink:href="#ArialMT-30" x="139.013672"/>
       <use xlink:href="#ArialMT-30" x="194.628906"/>
      </g>
     </g>
    </g>
    <g id="ytick_5">
     <g id="line2d_17">
      <path d="M 65.115938 252.96
L 957.915937 252.96
" clip-path="url(#pe59b1c1c76)" style="fill: none; stroke: #ffffff; stroke-linecap: round"/>
     </g>
     <g id="line2d_18">
      <g>
       <use xlink:href="#m0adecf3dba" x="65.115938" y="252.96" style="fill: #262626; stroke: #262626; stroke-width: 1.25"/>
      </g>
     </g>
     <g id="text_14">
      <!-- 67.25 -->
      <g style="fill: #262626" transform="translate(28.091875 256.896797) scale(0.11 -0.11)">
       <use xlink:href="#ArialMT-36"/>
       <use xlink:href="#ArialMT-37" x="55.615234"/>
       <use xlink:href="#ArialMT-2e" x="111.230469"/>
       <use xlink:href="#ArialMT-32" x="139.013672"/>
       <use xlink:href="#ArialMT-35" x="194.628906"/>
      </g>
     </g>
    </g>
    <g id="ytick_6">
     <g id="line2d_19">
      <path d="M 65.115938 196.96
L 957.915937 196.96
" clip-path="url(#pe59b1c1c76)" style="fill: none; stroke: #ffffff; stroke-linecap: round"/>
     </g>
     <g id="line2d_20">
      <g>
       <use xlink:href="#m0adecf3dba" x="65.115938" y="196.96" style="fill: #262626; stroke: #262626; stroke-width: 1.25"/>
      </g>
     </g>
     <g id="text_15">
      <!-- 67.50 -->
      <g style="fill: #262626" transform="translate(28.091875 200.896797) scale(0.11 -0.11)">
       <use xlink:href="#ArialMT-36"/>
       <use xlink:href="#ArialMT-37" x="55.615234"/>
       <use xlink:href="#ArialMT-2e" x="111.230469"/>
       <use xlink:href="#ArialMT-35" x="139.013672"/>
       <use xlink:href="#ArialMT-30" x="194.628906"/>
      </g>
     </g>
    </g>
    <g id="ytick_7">
     <g id="line2d_21">
      <path d="M 65.115938 140.96
L 957.915937 140.96
" clip-path="url(#pe59b1c1c76)" style="fill: none; stroke: #ffffff; stroke-linecap: round"/>
     </g>
     <g id="line2d_22">
      <g>
       <use xlink:href="#m0adecf3dba" x="65.115938" y="140.96" style="fill: #262626; stroke: #262626; stroke-width: 1.25"/>
      </g>
     </g>
     <g id="text_16">
      <!-- 67.75 -->
      <g style="fill: #262626" transform="translate(28.091875 144.896797) scale(0.11 -0.11)">
       <use xlink:href="#ArialMT-36"/>
       <use xlink:href="#ArialMT-37" x="55.615234"/>
       <use xlink:href="#ArialMT-2e" x="111.230469"/>
       <use xlink:href="#ArialMT-37" x="139.013672"/>
       <use xlink:href="#ArialMT-35" x="194.628906"/>
      </g>
     </g>
    </g>
    <g id="ytick_8">
     <g id="line2d_23">
      <path d="M 65.115938 84.96
L 957.915937 84.96
" clip-path="url(#pe59b1c1c76)" style="fill: none; stroke: #ffffff; stroke-linecap: round"/>
     </g>
     <g id="line2d_24">
      <g>
       <use xlink:href="#m0adecf3dba" x="65.115938" y="84.96" style="fill: #262626; stroke: #262626; stroke-width: 1.25"/>
      </g>
     </g>
     <g id="text_17">
      <!-- 68.00 -->
      <g style="fill: #262626" transform="translate(28.091875 88.896797) scale(0.11 -0.11)">
       <defs>
        <path id="ArialMT-38" d="M 1131 2484
Q 781 2613 612 2850
Q 444 3088 444 3419
Q 444 3919 803 4259
Q 1163 4600 1759 4600
Q 2359 4600 2725 4251
Q 3091 3903 3091 3403
Q 3091 3084 2923 2848
Q 2756 2613 2416 2484
Q 2838 2347 3058 2040
Q 3278 1734 3278 1309
Q 3278 722 2862 322
Q 2447 -78 1769 -78
Q 1091 -78 675 323
Q 259 725 259 1325
Q 259 1772 486 2073
Q 713 2375 1131 2484
z
M 1019 3438
Q 1019 3113 1228 2906
Q 1438 2700 1772 2700
Q 2097 2700 2305 2904
Q 2513 3109 2513 3406
Q 2513 3716 2298 3927
Q 2084 4138 1766 4138
Q 1444 4138 1231 3931
Q 1019 3725 1019 3438
z
M 838 1322
Q 838 1081 952 856
Q 1066 631 1291 507
Q 1516 384 1775 384
Q 2178 384 2440 643
Q 2703 903 2703 1303
Q 2703 1709 2433 1975
Q 2163 2241 1756 2241
Q 1359 2241 1098 1978
Q 838 1716 838 1322
z
" transform="scale(0.015625)"/>
       </defs>
       <use xlink:href="#ArialMT-36"/>
       <use xlink:href="#ArialMT-38" x="55.615234"/>
       <use xlink:href="#ArialMT-2e" x="111.230469"/>
       <use xlink:href="#ArialMT-30" x="139.013672"/>
       <use xlink:href="#ArialMT-30" x="194.628906"/>
      </g>
     </g>
    </g>
    <g id="text_18">
     <!-- Water Temp (°F) -->
     <g style="fill: #262626" transform="translate(20.303438 352.15875) rotate(-90) scale(0.18 -0.18)">
      <defs>
       <path id="ArialMT-57" d="M 1294 0
L 78 4581
L 700 4581
L 1397 1578
Q 1509 1106 1591 641
Q 1766 1375 1797 1488
L 2669 4581
L 3400 4581
L 4056 2263
Q 4303 1400 4413 641
Q 4500 1075 4641 1638
L 5359 4581
L 5969 4581
L 4713 0
L 4128 0
L 3163 3491
Q 3041 3928 3019 4028
Q 2947 3713 2884 3491
L 1913 0
L 1294 0
z
" transform="scale(0.015625)"/>
       <path id="ArialMT-70" d="M 422 -1272
L 422 3319
L 934 3319
L 934 2888
Q 1116 3141 1344 3267
Q 1572 3394 1897 3394
Q 2322 3394 2647 3175
Q 2972 2956 3137 2557
Q 3303 2159 3303 1684
Q 3303 1175 3120 767
Q 2938 359 2589 142
Q 2241 -75 1856 -75
Q 1575 -75 1351 44
Q 1128 163 984 344
L 984 -1272
L 422 -1272
z
M 931 1641
Q 931 1000 1190 694
Q 1450 388 1819 388
Q 2194 388 2461 705
Q 2728 1022 2728 1688
Q 2728 2322 2467 2637
Q 2206 2953 1844 2953
Q 1484 2953 1207 2617
Q 931 2281 931 1641
z
" transform="scale(0.015625)"/>
       <path id="ArialMT-28" d="M 1497 -1347
Q 1031 -759 709 28
Q 388 816 388 1659
Q 388 2403 628 3084
Q 909 3875 1497 4659
L 1900 4659
Q 1522 4009 1400 3731
Q 1209 3300 1100 2831
Q 966 2247 966 1656
Q 966 153 1900 -1347
L 1497 -1347
z
" transform="scale(0.015625)"/>
       <path id="ArialMT-b0" d="M 400 3794
Q 400 4153 654 4406
Q 909 4659 1266 4659
Q 1628 4659 1881 4406
Q 2134 4153 2134 3794
Q 2134 3434 1879 3179
Q 1625 2925 1266 2925
Q 909 2925 654 3178
Q 400 3431 400 3794
z
M 741 3794
Q 741 3575 895 3420
Q 1050 3266 1269 3266
Q 1484 3266 1639 3420
Q 1794 3575 1794 3794
Q 1794 4013 1639 4167
Q 1484 4322 1269 4322
Q 1050 4322 895 4167
Q 741 4013 741 3794
z
" transform="scale(0.015625)"/>
       <path id="ArialMT-29" d="M 791 -1347
L 388 -1347
Q 1322 153 1322 1656
Q 1322 2244 1188 2822
Q 1081 3291 891 3722
Q 769 4003 388 4659
L 791 4659
Q 1378 3875 1659 3084
Q 1900 2403 1900 1659
Q 1900 816 1576 28
Q 1253 -759 791 -1347
z
" transform="scale(0.015625)"/>
      </defs>
      <use xlink:href="#ArialMT-57"/>
      <use xlink:href="#ArialMT-61" x="90.634766"/>
      <use xlink:href="#ArialMT-74" x="146.25"/>
      <use xlink:href="#ArialMT-65" x="174.033203"/>
      <use xlink:href="#ArialMT-72" x="229.648438"/>
      <use xlink:href="#ArialMT-20" x="262.949219"/>
      <use xlink:href="#ArialMT-54" x="288.982422"/>
      <use xlink:href="#ArialMT-65" x="338.941406"/>
      <use xlink:href="#ArialMT-6d" x="394.556641"/>
      <use xlink:href="#ArialMT-70" x="477.857422"/>
      <use xlink:href="#ArialMT-20" x="533.472656"/>
      <use xlink:href="#ArialMT-28" x="561.255859"/>
      <use xlink:href="#ArialMT-b0" x="594.556641"/>
      <use xlink:href="#ArialMT-46" x="634.546875"/>
      <use xlink:href="#ArialMT-29" x="695.630859"/>
     </g>
    </g>
   </g>
   <g id="PolyCollection_1"/>
   <g id="PolyCollection_2"/>
   <g id="line2d_25">
    <path d="M 105.697756 196.96
L 119.253269 196.96
L 120.947708 174.56
L 124.336587 174.56
L 126.031026 196.96
L 131.114343 196.96
L 132.808782 174.56
L 134.503222 174.56
L 136.197661 196.96
L 137.8921 174.56
L 141.280978 174.56
L 142.975417 129.76
L 144.669857 174.56
L 154.836492 174.56
L 156.530931 129.76
L 158.22537 174.56
L 161.614248 174.56
L 163.308688 129.76
L 165.003127 174.56
L 195.503032 174.56
L 197.197471 129.76
L 212.447424 129.76
L 214.141863 174.56
L 215.836302 129.76
L 224.308498 129.76
L 226.002937 174.56
L 227.697376 129.76
L 229.391815 174.56
L 231.086254 129.76
L 234.475133 129.76
L 236.169572 174.56
L 239.55845 174.56
L 241.252889 129.76
L 258.197281 129.76
L 259.89172 84.96
L 281.91943 84.96
L 283.613869 129.76
L 285.308308 129.76
L 287.002747 174.56
L 288.697186 174.56
L 290.391625 241.76
L 292.086065 286.56
L 293.780504 241.76
L 297.169382 241.76
L 298.863821 196.96
L 317.502652 196.96
L 319.197091 174.56
L 348.002557 174.56
L 349.696997 129.76
L 351.391436 174.56
L 353.085875 174.56
L 354.780314 129.76
L 356.474753 174.56
L 358.169192 174.56
L 359.863632 129.76
L 361.558071 174.56
L 370.030267 174.56
L 371.724706 129.76
L 376.808023 129.76
L 378.502462 174.56
L 480.168813 174.56
L 481.863252 129.76
L 495.418765 129.76
L 497.113205 174.56
L 510.668718 174.56
L 512.363157 196.96
L 514.057596 174.56
L 520.835353 174.56
L 522.529792 196.96
L 531.001988 196.96
L 532.696427 286.56
L 534.390866 241.76
L 541.168623 241.76
L 542.863062 196.96
L 549.640819 196.96
L 551.335258 174.56
L 558.113015 174.56
L 559.807454 196.96
L 586.918481 196.96
L 588.61292 241.76
L 590.307359 196.96
L 603.862872 196.96
L 605.557312 241.76
L 617.418386 241.76
L 620.807264 331.36
L 622.501703 286.56
L 632.668338 286.56
L 634.362778 241.76
L 636.057217 286.56
L 639.446095 286.56
L 641.140534 241.76
L 644.529413 241.76
L 646.223852 331.36
L 649.61273 331.36
L 651.307169 286.56
L 664.862683 286.56
L 666.557122 241.76
L 668.251561 286.56
L 669.946 286.56
L 671.640439 241.76
L 673.334878 241.76
L 675.029318 286.56
L 690.27927 286.56
L 691.973709 241.76
L 695.362588 241.76
L 697.057027 196.96
L 703.834784 196.96
L 705.529223 241.76
L 707.223662 241.76
L 708.918101 286.56
L 714.001419 286.56
L 715.695858 241.76
L 729.251371 241.76
L 730.94581 286.56
L 741.112445 286.56
L 742.806885 241.76
L 746.195763 241.76
L 747.890202 286.56
L 751.27908 286.56
L 752.97352 331.36
L 754.667959 286.56
L 758.056837 286.56
L 759.751276 376.16
L 761.445715 398.56
L 763.140155 376.16
L 771.61235 376.16
L 773.30679 398.56
L 775.001229 398.56
L 776.695668 376.16
L 778.390107 376.16
L 780.084546 443.36
L 785.167864 443.36
L 786.862303 398.56
L 788.556742 398.56
L 790.251181 443.36
L 795.334499 443.36
L 797.028938 488.16
L 800.417816 488.16
L 802.112256 443.36
L 803.806695 488.16
L 808.890012 488.16
L 810.584451 443.36
L 812.278891 443.36
L 813.97333 398.56
L 819.056647 398.56
L 820.751086 376.16
L 824.139965 376.16
L 825.834404 398.56
L 830.917722 398.56
L 832.612161 376.16
L 834.3066 443.36
L 836.001039 443.36
L 837.695478 398.56
L 839.389917 376.16
L 841.084357 331.36
L 842.778796 376.16
L 844.473235 398.56
L 846.167674 376.16
L 852.945431 376.16
L 854.63987 331.36
L 874.97314 331.36
L 876.667579 286.56
L 902.084167 286.56
L 903.778606 331.36
L 905.473045 398.56
L 907.167484 331.36
L 908.861923 398.56
L 910.556363 376.16
L 912.250802 331.36
L 913.945241 331.36
L 915.63968 286.56
L 917.334119 331.36
L 917.334119 331.36
" clip-path="url(#pe59b1c1c76)" style="fill: none; stroke: #4c72b0; stroke-width: 1.5; stroke-linecap: round"/>
   </g>
   <g id="line2d_26">
    <path d="M 105.697756 194.72
L 107.392195 194.72
L 109.086634 193.6
L 115.864391 193.6
L 119.253269 191.36
L 120.947708 191.36
L 126.031026 188
L 127.725465 184.64
L 137.8921 177.92
L 139.586539 177.92
L 141.280978 175.68
L 142.975417 175.68
L 146.364296 173.44
L 148.058735 170.08
L 149.753174 168.96
L 153.142053 168.96
L 154.836492 167.84
L 159.919809 167.84
L 161.614248 170.08
L 173.475323 170.08
L 175.169762 172.32
L 181.947518 172.32
L 197.197471 152.16
L 198.89191 152.16
L 209.058545 138.72
L 210.752984 138.72
L 212.447424 136.48
L 219.22518 136.48
L 224.308498 143.2
L 231.086254 143.2
L 232.780694 140.96
L 242.947329 140.96
L 244.641768 136.48
L 246.336207 134.24
L 248.030646 129.76
L 253.113964 123.04
L 258.197281 109.6
L 266.669477 98.4
L 270.058355 98.4
L 273.447234 102.88
L 275.141673 108.48
L 281.91943 139.84
L 300.558261 201.44
L 302.2527 204.8
L 303.947139 207.04
L 307.336017 207.04
L 309.030456 203.68
L 310.724896 198.08
L 315.808213 188
L 332.752605 176.8
L 334.447044 173.44
L 336.141483 172.32
L 337.835922 172.32
L 339.530361 170.08
L 342.91924 170.08
L 344.613679 167.84
L 354.780314 167.84
L 361.558071 158.88
L 366.641388 158.88
L 368.335827 161.12
L 371.724706 161.12
L 373.419145 163.36
L 376.808023 163.36
L 378.502462 165.6
L 388.669097 165.6
L 395.446854 174.56
L 464.91886 174.56
L 480.168813 154.4
L 495.418765 154.4
L 497.113205 155.52
L 498.807644 155.52
L 505.5854 164.48
L 514.057596 181.28
L 515.752035 182.4
L 517.446475 188
L 525.91867 204.8
L 529.307549 207.04
L 531.001988 207.04
L 534.390866 209.28
L 539.474184 209.28
L 542.863062 207.04
L 549.640819 207.04
L 551.335258 202.56
L 559.807454 191.36
L 568.27965 191.36
L 571.668528 193.6
L 573.362967 196.96
L 576.751846 199.2
L 588.61292 199.2
L 602.168433 217.12
L 603.862872 221.6
L 605.557312 228.32
L 607.251751 230.56
L 617.418386 257.44
L 619.112825 259.68
L 622.501703 268.64
L 624.196142 270.88
L 629.27946 270.88
L 634.362778 284.32
L 636.057217 286.56
L 637.751656 286.56
L 639.446095 284.32
L 649.61273 284.32
L 651.307169 282.08
L 653.001608 284.32
L 654.696048 284.32
L 658.084926 279.84
L 663.168243 286.56
L 668.251561 279.84
L 675.029318 279.84
L 680.112635 273.12
L 683.501514 264.16
L 685.195953 261.92
L 688.584831 252.96
L 698.751466 252.96
L 708.918101 239.52
L 714.001419 239.52
L 722.473614 261.92
L 725.862493 266.4
L 730.94581 259.68
L 732.64025 259.68
L 736.029128 264.16
L 737.723567 268.64
L 742.806885 275.36
L 744.501324 282.08
L 746.195763 289.92
L 747.890202 296.64
L 756.362398 319.04
L 759.751276 330.24
L 763.140155 343.68
L 764.834594 353.76
L 769.917911 377.28
L 771.61235 380.64
L 773.30679 386.24
L 776.695668 401.92
L 778.390107 405.28
L 780.084546 407.52
L 785.167864 424.32
L 786.862303 427.68
L 790.251181 438.88
L 793.64006 447.84
L 797.028938 454.56
L 803.806695 445.6
L 807.195573 443.36
L 808.890012 440
L 813.97333 433.28
L 815.667769 428.8
L 817.362208 423.2
L 819.056647 420.96
L 820.751086 420.96
L 822.445526 416.48
L 824.139965 410.88
L 825.834404 403.04
L 827.528843 397.44
L 829.223282 395.2
L 830.917722 391.84
L 837.695478 387.36
L 842.778796 380.64
L 849.556552 367.2
L 851.250992 364.96
L 854.63987 353.76
L 856.334309 350.4
L 858.028748 348.16
L 859.723187 348.16
L 861.417627 343.68
L 863.112066 338.08
L 871.584262 315.68
L 886.834214 295.52
L 888.528653 295.52
L 890.223093 298.88
L 891.917532 298.88
L 893.611971 302.24
L 895.30641 306.72
L 898.695288 311.2
L 900.389728 311.2
L 902.084167 313.44
L 902.084167 313.44
" clip-path="url(#pe59b1c1c76)" style="fill: none; stroke-dasharray: 6,2.25; stroke-dashoffset: 0; stroke: #dd8452; stroke-width: 1.5"/>
   </g>
   <g id="line2d_27"/>
   <g id="line2d_28"/>
   <g id="patch_3">
    <path d="M 65.115938 508.32
L 65.115938 64.8
" style="fill: none; stroke: #ffffff; stroke-width: 1.25; stroke-linejoin: miter; stroke-linecap: square"/>
   </g>
   <g id="patch_4">
    <path d="M 957.915937 508.32
L 957.915937 64.8
" style="fill: none; stroke: #ffffff; stroke-width: 1.25; stroke-linejoin: miter; stroke-linecap: square"/>
   </g>
   <g id="patch_5">
    <path d="M 65.115937 508.32
L 957.915937 508.32
" style="fill: none; stroke: #ffffff; stroke-width: 1.25; stroke-linejoin: miter; stroke-linecap: square"/>
   </g>
   <g id="patch_6">
    <path d="M 65.115937 64.8
L 957.915937 64.8
" style="fill: none; stroke: #ffffff; stroke-width: 1.25; stroke-linejoin: miter; stroke-linecap: square"/>
   </g>
   <g id="text_19">
    <!-- 48-hour, live -->
    <g style="fill: #262626" transform="translate(462.488438 58.8) scale(0.18 -0.18)">
     <defs>
      <path id="ArialMT-34" d="M 2069 0
L 2069 1097
L 81 1097
L 81 1613
L 2172 4581
L 2631 4581
L 2631 1613
L 3250 1613
L 3250 1097
L 2631 1097
L 2631 0
L 2069 0
z
M 2069 1613
L 2069 3678
L 634 1613
L 2069 1613
z
" transform="scale(0.015625)"/>
      <path id="ArialMT-2d" d="M 203 1375
L 203 1941
L 1931 1941
L 1931 1375
L 203 1375
z
" transform="scale(0.015625)"/>
      <path id="ArialMT-68" d="M 422 0
L 422 4581
L 984 4581
L 984 2938
Q 1378 3394 1978 3394
Q 2347 3394 2619 3248
Q 2891 3103 3008 2847
Q 3125 2591 3125 2103
L 3125 0
L 2563 0
L 2563 2103
Q 2563 2525 2380 2717
Q 2197 2909 1863 2909
Q 1613 2909 1392 2779
Q 1172 2650 1078 2428
Q 984 2206 984 1816
L 984 0
L 422 0
z
" transform="scale(0.015625)"/>
      <path id="ArialMT-6f" d="M 213 1659
Q 213 2581 725 3025
Q 1153 3394 1769 3394
Q 2453 3394 2887 2945
Q 3322 2497 3322 1706
Q 3322 1066 3130 698
Q 2938 331 2570 128
Q 2203 -75 1769 -75
Q 1072 -75 642 372
Q 213 819 213 1659
z
M 791 1659
Q 791 1022 1069 705
Q 1347 388 1769 388
Q 2188 388 2466 706
Q 2744 1025 2744 1678
Q 2744 2294 2464 2611
Q 2184 2928 1769 2928
Q 1347 2928 1069 2612
Q 791 2297 791 1659
z
" transform="scale(0.015625)"/>
      <path id="ArialMT-2c" d="M 569 0
L 569 641
L 1209 641
L 1209 0
Q 1209 -353 1084 -570
Q 959 -788 688 -906
L 531 -666
Q 709 -588 793 -436
Q 878 -284 888 0
L 569 0
z
" transform="scale(0.015625)"/>
      <path id="ArialMT-6c" d="M 409 0
L 409 4581
L 972 4581
L 972 0
L 409 0
z
" transform="scale(0.015625)"/>
      <path id="ArialMT-76" d="M 1344 0
L 81 3319
L 675 3319
L 1388 1331
Q 1503 1009 1600 663
Q 1675 925 1809 1294
L 2547 3319
L 3125 3319
L 1869 0
L 1344 0
z
" transform="scale(0.015625)"/>
     </defs>
     <use xlink:href="#ArialMT-34"/>
     <use xlink:href="#ArialMT-38" x="55.615234"/>
     <use xlink:href="#ArialMT-2d" x="111.230469"/>
     <use xlink:href="#ArialMT-68" x="144.53125"/>
     <use xlink:href="#ArialMT-6f" x="200.146484"/>
     <use xlink:href="#ArialMT-75" x="255.761719"/>
     <use xlink:href="#ArialMT-72" x="311.376953"/>
     <use xlink:href="#ArialMT-2c" x="339.177734"/>
     <use xlink:href="#ArialMT-20" x="366.960938"/>
     <use xlink:href="#ArialMT-6c" x="394.744141"/>
     <use xlink:href="#ArialMT-69" x="416.960938"/>
     <use xlink:href="#ArialMT-76" x="439.177734"/>
     <use xlink:href="#ArialMT-65" x="489.177734"/>
    </g>
   </g>
   <g id="legend_1">
    <g id="patch_7">
     <path d="M 860.005625 104.982656
L 950.215937 104.982656
Q 952.415937 104.982656 952.415937 102.782656
L 952.415937 72.5
Q 952.415937 70.3 950.215937 70.3
L 860.005625 70.3
Q 857.805625 70.3 857.805625 72.5
L 857.805625 102.782656
Q 857.805625 104.982656 860.005625 104.982656
z
" style="fill: #eaeaf2; opacity: 0.8; stroke: #cccccc; stroke-linejoin: miter"/>
    </g>
    <g id="line2d_29">
     <path d="M 862.205625 78.723594
L 873.205625 78.723594
L 884.205625 78.723594
" style="fill: none; stroke: #4c72b0; stroke-width: 1.5; stroke-linecap: round"/>
    </g>
    <g id="text_20">
     <!-- live -->
     <g style="fill: #262626" transform="translate(893.005625 82.573594) scale(0.11 -0.11)">
      <use xlink:href="#ArialMT-6c"/>
      <use xlink:href="#ArialMT-69" x="22.216797"/>
      <use xlink:href="#ArialMT-76" x="44.433594"/>
      <use xlink:href="#ArialMT-65" x="94.433594"/>
     </g>
    </g>
    <g id="line2d_30">
     <path d="M 862.205625 94.4175
L 873.205625 94.4175
L 884.205625 94.4175
" style="fill: none; stroke-dasharray: 6,2.25; stroke-dashoffset: 0; stroke: #dd8452; stroke-width: 1.5"/>
    </g>
    <g id="text_21">
     <!-- trend (2-hr) -->
     <g style="fill: #262626" transform="translate(893.005625 98.2675) scale(0.11 -0.11)">
      <defs>
       <path id="ArialMT-64" d="M 2575 0
L 2575 419
Q 2259 -75 1647 -75
Q 1250 -75 917 144
Q 584 363 401 755
Q 219 1147 219 1656
Q 219 2153 384 2558
Q 550 2963 881 3178
Q 1213 3394 1622 3394
Q 1922 3394 2156 3267
Q 2391 3141 2538 2938
L 2538 4581
L 3097 4581
L 3097 0
L 2575 0
z
M 797 1656
Q 797 1019 1065 703
Q 1334 388 1700 388
Q 2069 388 2326 689
Q 2584 991 2584 1609
Q 2584 2291 2321 2609
Q 2059 2928 1675 2928
Q 1300 2928 1048 2622
Q 797 2316 797 1656
z
" transform="scale(0.015625)"/>
      </defs>
      <use xlink:href="#ArialMT-74"/>
      <use xlink:href="#ArialMT-72" x="27.783203"/>
      <use xlink:href="#ArialMT-65" x="61.083984"/>
      <use xlink:href="#ArialMT-6e" x="116.699219"/>
      <use xlink:href="#ArialMT-64" x="172.314453"/>
      <use xlink:href="#ArialMT-20" x="227.929688"/>
      <use xlink:href="#ArialMT-28" x="255.712891"/>
      <use xlink:href="#ArialMT-32" x="289.013672"/>
      <use xlink:href="#ArialMT-2d" x="344.628906"/>
      <use xlink:href="#ArialMT-68" x="377.929688"/>
      <use xlink:href="#ArialMT-72" x="433.544922"/>
      <use xlink:href="#ArialMT-29" x="466.845703"/>
     </g>
    </g>
   </g>
  </g>
  <g id="axes_2">
   <g id="matplotlib.axis_3">
    <g id="ytick_9">
     <g id="line2d_31">
      <defs>
       <path id="md8d8ac4a1a" d="M 0 0
L 6 0
" style="stroke: #262626; stroke-width: 1.25"/>
      </defs>
      <g>
       <use xlink:href="#md8d8ac4a1a" x="957.915937" y="488.16" style="fill: #262626; stroke: #262626; stroke-width: 1.25"/>
      </g>
     </g>
     <g id="text_22">
      <!-- 19.0 -->
      <g style="fill: #262626" transform="translate(967.415937 492.096797) scale(0.11 -0.11)">
       <defs>
        <path id="ArialMT-39" d="M 350 1059
L 891 1109
Q 959 728 1153 556
Q 1347 384 1650 384
Q 1909 384 2104 503
Q 2300 622 2425 820
Q 2550 1019 2634 1356
Q 2719 1694 2719 2044
Q 2719 2081 2716 2156
Q 2547 1888 2255 1720
Q 1963 1553 1622 1553
Q 1053 1553 659 1965
Q 266 2378 266 3053
Q 266 3750 677 4175
Q 1088 4600 1706 4600
Q 2153 4600 2523 4359
Q 2894 4119 3086 3673
Q 3278 3228 3278 2384
Q 3278 1506 3087 986
Q 2897 466 2520 194
Q 2144 -78 1638 -78
Q 1100 -78 759 220
Q 419 519 350 1059
z
M 2653 3081
Q 2653 3566 2395 3850
Q 2138 4134 1775 4134
Q 1400 4134 1122 3828
Q 844 3522 844 3034
Q 844 2597 1108 2323
Q 1372 2050 1759 2050
Q 2150 2050 2401 2323
Q 2653 2597 2653 3081
z
" transform="scale(0.015625)"/>
       </defs>
       <use xlink:href="#ArialMT-31"/>
       <use xlink:href="#ArialMT-39" x="55.615234"/>
       <use xlink:href="#ArialMT-2e" x="111.230469"/>
       <use xlink:href="#ArialMT-30" x="139.013672"/>
      </g>
     </g>
    </g>
    <g id="ytick_10">
     <g id="line2d_32">
      <g>
       <use xlink:href="#md8d8ac4a1a" x="957.915937" y="407.52" style="fill: #262626; stroke: #262626; stroke-width: 1.25"/>
      </g>
     </g>
     <g id="text_23">
      <!-- 19.2 -->
      <g style="fill: #262626" transform="translate(967.415937 411.456797) scale(0.11 -0.11)">
       <use xlink:href="#ArialMT-31"/>
       <use xlink:href="#ArialMT-39" x="55.615234"/>
       <use xlink:href="#ArialMT-2e" x="111.230469"/>
       <use xlink:href="#ArialMT-32" x="139.013672"/>
      </g>
     </g>
    </g>
    <g id="ytick_11">
     <g id="line2d_33">
      <g>
       <use xlink:href="#md8d8ac4a1a" x="957.915937" y="326.88" style="fill: #262626; stroke: #262626; stroke-width: 1.25"/>
      </g>
     </g>
     <g id="text_24">
      <!-- 19.4 -->
      <g style="fill: #262626" transform="translate(967.415937 330.816797) scale(0.11 -0.11)">
       <use xlink:href="#ArialMT-31"/>
       <use xlink:href="#ArialMT-39" x="55.615234"/>
       <use xlink:href="#ArialMT-2e" x="111.230469"/>
       <use xlink:href="#ArialMT-34" x="139.013672"/>
      </g>
     </g>
    </g>
    <g id="ytick_12">
     <g id="line2d_34">
      <g>
       <use xlink:href="#md8d8ac4a1a" x="957.915937" y="246.24" style="fill: #262626; stroke: #262626; stroke-width: 1.25"/>
      </g>
     </g>
     <g id="text_25">
      <!-- 19.6 -->
      <g style="fill: #262626" transform="translate(967.415937 250.176797) scale(0.11 -0.11)">
       <use xlink:href="#ArialMT-31"/>
       <use xlink:href="#ArialMT-39" x="55.615234"/>
       <use xlink:href="#ArialMT-2e" x="111.230469"/>
       <use xlink:href="#ArialMT-36" x="139.013672"/>
      </g>
     </g>
    </g>
    <g id="ytick_13">
     <g id="line2d_35">
      <g>
       <use xlink:href="#md8d8ac4a1a" x="957.915937" y="165.6" style="fill: #262626; stroke: #262626; stroke-width: 1.25"/>
      </g>
     </g>
     <g id="text_26">
      <!-- 19.8 -->
      <g style="fill: #262626" transform="translate(967.415937 169.536797) scale(0.11 -0.11)">
       <use xlink:href="#ArialMT-31"/>
       <use xlink:href="#ArialMT-39" x="55.615234"/>
       <use xlink:href="#ArialMT-2e" x="111.230469"/>
       <use xlink:href="#ArialMT-38" x="139.013672"/>
      </g>
     </g>
    </g>
    <g id="ytick_14">
     <g id="line2d_36">
      <g>
       <use xlink:href="#md8d8ac4a1a" x="957.915937" y="84.96" style="fill: #262626; stroke: #262626; stroke-width: 1.25"/>
      </g>
     </g>
     <g id="text_27">
      <!-- 20.0 -->
      <g style="fill: #262626" transform="translate(967.415937 88.896797) scale(0.11 -0.11)">
       <use xlink:href="#ArialMT-32"/>
       <use xlink:href="#ArialMT-30" x="55.615234"/>
       <use xlink:href="#ArialMT-2e" x="111.230469"/>
       <use xlink:href="#ArialMT-30" x="139.013672"/>
      </g>
     </g>
    </g>
    <g id="text_28">
     <!-- Water Temp (°C) -->
     <g style="fill: #262626" transform="translate(1005.926406 353.161406) rotate(-90) scale(0.18 -0.18)">
      <defs>
       <path id="ArialMT-43" d="M 3763 1606
L 4369 1453
Q 4178 706 3683 314
Q 3188 -78 2472 -78
Q 1731 -78 1267 223
Q 803 525 561 1097
Q 319 1669 319 2325
Q 319 3041 592 3573
Q 866 4106 1370 4382
Q 1875 4659 2481 4659
Q 3169 4659 3637 4309
Q 4106 3959 4291 3325
L 3694 3184
Q 3534 3684 3231 3912
Q 2928 4141 2469 4141
Q 1941 4141 1586 3887
Q 1231 3634 1087 3207
Q 944 2781 944 2328
Q 944 1744 1114 1308
Q 1284 872 1643 656
Q 2003 441 2422 441
Q 2931 441 3284 734
Q 3638 1028 3763 1606
z
" transform="scale(0.015625)"/>
      </defs>
      <use xlink:href="#ArialMT-57"/>
      <use xlink:href="#ArialMT-61" x="90.634766"/>
      <use xlink:href="#ArialMT-74" x="146.25"/>
      <use xlink:href="#ArialMT-65" x="174.033203"/>
      <use xlink:href="#ArialMT-72" x="229.648438"/>
      <use xlink:href="#ArialMT-20" x="262.949219"/>
      <use xlink:href="#ArialMT-54" x="288.982422"/>
      <use xlink:href="#ArialMT-65" x="338.941406"/>
      <use xlink:href="#ArialMT-6d" x="394.556641"/>
      <use xlink:href="#ArialMT-70" x="477.857422"/>
      <use xlink:href="#ArialMT-20" x="533.472656"/>
      <use xlink:href="#ArialMT-28" x="561.255859"/>
      <use xlink:href="#ArialMT-b0" x="594.556641"/>
      <use xlink:href="#ArialMT-43" x="634.546875"/>
      <use xlink:href="#ArialMT-29" x="706.763672"/>
     </g>
    </g>
   </g>
   <g id="patch_8">
    <path d="M 65.115938 508.32
L 65.115938 64.8
" style="fill: none; stroke: #ffffff; stroke-width: 1.25; stroke-linejoin: miter; stroke-linecap: square"/>
   </g>
   <g id="patch_9">
    <path d="M 957.915937 508.32
L 957.915937 64.8
" style="fill: none; stroke: #ffffff; stroke-width: 1.25; stroke-linejoin: miter; stroke-linecap: square"/>
   </g>
   <g id="patch_10">
    <path d="M 65.115937 508.32
L 957.915937 508.32
" style="fill: none; stroke: #ffffff; stroke-width: 1.25; stroke-linejoin: miter; stroke-linecap: square"/>
   </g>
   <g id="patch_11">
    <path d="M 65.115937 64.8
L 957.915937 64.8
" style="fill: none; stroke: #ffffff; stroke-width: 1.25; stroke-linejoin: miter; stroke-linecap: square"/>
   </g>
  </g>
  <g id="text_29">
   <!-- Battery NYC Water Temperature -->
   <g style="fill: #262626" transform="translate(325.067813 24.67125) scale(0.24 -0.24)">
    <defs>
     <path id="ArialMT-42" d="M 469 0
L 469 4581
L 2188 4581
Q 2713 4581 3030 4442
Q 3347 4303 3526 4014
Q 3706 3725 3706 3409
Q 3706 3116 3547 2856
Q 3388 2597 3066 2438
Q 3481 2316 3704 2022
Q 3928 1728 3928 1328
Q 3928 1006 3792 729
Q 3656 453 3456 303
Q 3256 153 2954 76
Q 2653 0 2216 0
L 469 0
z
M 1075 2656
L 2066 2656
Q 2469 2656 2644 2709
Q 2875 2778 2992 2937
Q 3109 3097 3109 3338
Q 3109 3566 3000 3739
Q 2891 3913 2687 3977
Q 2484 4041 1991 4041
L 1075 4041
L 1075 2656
z
M 1075 541
L 2216 541
Q 2509 541 2628 563
Q 2838 600 2978 687
Q 3119 775 3209 942
Q 3300 1109 3300 1328
Q 3300 1584 3169 1773
Q 3038 1963 2805 2039
Q 2572 2116 2134 2116
L 1075 2116
L 1075 541
z
" transform="scale(0.015625)"/>
     <path id="ArialMT-79" d="M 397 -1278
L 334 -750
Q 519 -800 656 -800
Q 844 -800 956 -737
Q 1069 -675 1141 -563
Q 1194 -478 1313 -144
Q 1328 -97 1363 -6
L 103 3319
L 709 3319
L 1400 1397
Q 1534 1031 1641 628
Q 1738 1016 1872 1384
L 2581 3319
L 3144 3319
L 1881 -56
Q 1678 -603 1566 -809
Q 1416 -1088 1222 -1217
Q 1028 -1347 759 -1347
Q 597 -1347 397 -1278
z
" transform="scale(0.015625)"/>
     <path id="ArialMT-4e" d="M 488 0
L 488 4581
L 1109 4581
L 3516 984
L 3516 4581
L 4097 4581
L 4097 0
L 3475 0
L 1069 3600
L 1069 0
L 488 0
z
" transform="scale(0.015625)"/>
     <path id="ArialMT-59" d="M 1784 0
L 1784 1941
L 19 4581
L 756 4581
L 1659 3200
Q 1909 2813 2125 2425
Q 2331 2784 2625 3234
L 3513 4581
L 4219 4581
L 2391 1941
L 2391 0
L 1784 0
z
" transform="scale(0.015625)"/>
    </defs>
    <use xlink:href="#ArialMT-42"/>
    <use xlink:href="#ArialMT-61" x="66.699219"/>
    <use xlink:href="#ArialMT-74" x="122.314453"/>
    <use xlink:href="#ArialMT-74" x="150.097656"/>
    <use xlink:href="#ArialMT-65" x="177.880859"/>
    <use xlink:href="#ArialMT-72" x="233.496094"/>
    <use xlink:href="#ArialMT-79" x="266.796875"/>
    <use xlink:href="#ArialMT-20" x="316.796875"/>
    <use xlink:href="#ArialMT-4e" x="344.580078"/>
    <use xlink:href="#ArialMT-59" x="416.796875"/>
    <use xlink:href="#ArialMT-43" x="483.496094"/>
    <use xlink:href="#ArialMT-20" x="555.712891"/>
    <use xlink:href="#ArialMT-57" x="583.496094"/>
    <use xlink:href="#ArialMT-61" x="674.130859"/>
    <use xlink:href="#ArialMT-74" x="729.746094"/>
    <use xlink:href="#ArialMT-65" x="757.529297"/>
    <use xlink:href="#ArialMT-72" x="813.144531"/>
    <use xlink:href="#ArialMT-20" x="846.445312"/>
    <use xlink:href="#ArialMT-54" x="872.478516"/>
    <use xlink:href="#ArialMT-65" x="922.4375"/>
    <use xlink:href="#ArialMT-6d" x="978.052734"/>
    <use xlink:href="#ArialMT-70" x="1061.353516"/>
    <use xlink:href="#ArialMT-65" x="1116.96875"/>
    <use xlink:href="#ArialMT-72" x="1172.583984"/>
    <use xlink:href="#ArialMT-61" x="1205.884766"/>
    <use xlink:href="#ArialMT-74" x="1261.5"/>
    <use xlink:href="#ArialMT-75" x="1289.283203"/>
    <use xlink:href="#ArialMT-72" x="1344.898438"/>
    <use xlink:href="#ArialMT-65" x="1378.199219"/>
   </g>
  </g>
 </g>
 <defs>
  <clipPath id="pe59b1c1c76">
   <rect x="65.115938" y="64.8" width="892.8" height="443.52"/>
  </clipPath>
 </defs>
</svg>
