<?xml version="1.0" encoding="utf-8" standalone="no"?>
<!DOCTYPE svg PUBLIC "-//W3C//DTD SVG 1.1//EN"
  "http://www.w3.org/Graphics/SVG/1.1/DTD/svg11.dtd">
<svg xmlns:xlink="http://www.w3.org/1999/xlink" width="990.978906pt" height="493.453183pt" viewBox="0 0 990.978906 493.453183" xmlns="http://www.w3.org/2000/svg" version="1.1">
 <metadata>
  <rdf:RDF xmlns:dc="http://purl.org/dc/elements/1.1/" xmlns:cc="http://creativecommons.org/ns#" xmlns:rdf="http://www.w3.org/1999/02/22-rdf-syntax-ns#">
   <cc:Work>
    <dc:type rdf:resource="http://purl.org/dc/dcmitype/StillImage"/>
    <dc:date>2022-03-03T10:32:44.748120</dc:date>
    <dc:format>image/svg+xml</dc:format>
    <dc:creator>
     <cc:Agent>
      <dc:title>Matplotlib v3.5.1, https://matplotlib.org/</dc:title>
     </cc:Agent>
    </dc:creator>
   </cc:Work>
  </rdf:RDF>
 </metadata>
 <defs>
  <style type="text/css">*{stroke-linejoin: round; stroke-linecap: butt}</style>
 </defs>
 <g id="figure_1">
  <g id="patch_1">
   <path d="M 0 493.453183
L 990.978906 493.453183
L 990.978906 0
L 0 0
z
" style="fill: #ffffff"/>
  </g>
  <g id="axes_1">
   <g id="patch_2">
    <path d="M 53.675938 451.718964
L 946.475937 451.718964
L 946.475937 8.198964
L 53.675938 8.198964
z
" style="fill: #eaeaf2"/>
   </g>
   <g id="matplotlib.axis_1">
    <g id="xtick_1">
     <g id="line2d_1">
      <path d="M 143.328196 451.718964
L 143.328196 8.198964
" clip-path="url(#p6acd22da26)" style="fill: none; stroke: #ffffff; stroke-linecap: round"/>
     </g>
     <g id="text_1">
      <!-- Thu 9 AM -->
      <g style="fill: #262626" transform="translate(119.789915 469.092558)scale(0.11 -0.11)">
       <defs>
        <path id="ArialMT-54" d="M 1659 0
L 1659 4041
L 150 4041
L 150 4581
L 3781 4581
L 3781 4041
L 2266 4041
L 2266 0
L 1659 0
z
" transform="scale(0.015625)"/>
        <path id="ArialMT-68" d="M 422 0
L 422 4581
L 984 4581
L 984 2938
Q 1378 3394 1978 3394
Q 2347 3394 2619 3248
Q 2891 3103 3008 2847
Q 3125 2591 3125 2103
L 3125 0
L 2563 0
L 2563 2103
Q 2563 2525 2380 2717
Q 2197 2909 1863 2909
Q 1613 2909 1392 2779
Q 1172 2650 1078 2428
Q 984 2206 984 1816
L 984 0
L 422 0
z
" transform="scale(0.015625)"/>
        <path id="ArialMT-75" d="M 2597 0
L 2597 488
Q 2209 -75 1544 -75
Q 1250 -75 995 37
Q 741 150 617 320
Q 494 491 444 738
Q 409 903 409 1263
L 409 3319
L 972 3319
L 972 1478
Q 972 1038 1006 884
Q 1059 663 1231 536
Q 1403 409 1656 409
Q 1909 409 2131 539
Q 2353 669 2445 892
Q 2538 1116 2538 1541
L 2538 3319
L 3100 3319
L 3100 0
L 2597 0
z
" transform="scale(0.015625)"/>
        <path id="ArialMT-20" transform="scale(0.015625)"/>
        <path id="ArialMT-39" d="M 350 1059
L 891 1109
Q 959 728 1153 556
Q 1347 384 1650 384
Q 1909 384 2104 503
Q 2300 622 2425 820
Q 2550 1019 2634 1356
Q 2719 1694 2719 2044
Q 2719 2081 2716 2156
Q 2547 1888 2255 1720
Q 1963 1553 1622 1553
Q 1053 1553 659 1965
Q 266 2378 266 3053
Q 266 3750 677 4175
Q 1088 4600 1706 4600
Q 2153 4600 2523 4359
Q 2894 4119 3086 3673
Q 3278 3228 3278 2384
Q 3278 1506 3087 986
Q 2897 466 2520 194
Q 2144 -78 1638 -78
Q 1100 -78 759 220
Q 419 519 350 1059
z
M 2653 3081
Q 2653 3566 2395 3850
Q 2138 4134 1775 4134
Q 1400 4134 1122 3828
Q 844 3522 844 3034
Q 844 2597 1108 2323
Q 1372 2050 1759 2050
Q 2150 2050 2401 2323
Q 2653 2597 2653 3081
z
" transform="scale(0.015625)"/>
        <path id="ArialMT-41" d="M -9 0
L 1750 4581
L 2403 4581
L 4278 0
L 3588 0
L 3053 1388
L 1138 1388
L 634 0
L -9 0
z
M 1313 1881
L 2866 1881
L 2388 3150
Q 2169 3728 2063 4100
Q 1975 3659 1816 3225
L 1313 1881
z
" transform="scale(0.015625)"/>
        <path id="ArialMT-4d" d="M 475 0
L 475 4581
L 1388 4581
L 2472 1338
Q 2622 884 2691 659
Q 2769 909 2934 1394
L 4031 4581
L 4847 4581
L 4847 0
L 4263 0
L 4263 3834
L 2931 0
L 2384 0
L 1059 3900
L 1059 0
L 475 0
z
" transform="scale(0.015625)"/>
       </defs>
       <use xlink:href="#ArialMT-54"/>
       <use xlink:href="#ArialMT-68" x="61.083984"/>
       <use xlink:href="#ArialMT-75" x="116.699219"/>
       <use xlink:href="#ArialMT-20" x="172.314453"/>
       <use xlink:href="#ArialMT-39" x="200.097656"/>
       <use xlink:href="#ArialMT-20" x="255.712891"/>
       <use xlink:href="#ArialMT-41" x="277.996094"/>
       <use xlink:href="#ArialMT-4d" x="344.695312"/>
      </g>
     </g>
    </g>
    <g id="xtick_2">
     <g id="line2d_2">
      <path d="M 244.853245 451.718964
L 244.853245 8.198964
" clip-path="url(#p6acd22da26)" style="fill: none; stroke: #ffffff; stroke-linecap: round"/>
     </g>
     <g id="text_2">
      <!-- Thu 12 PM -->
      <g style="fill: #262626" transform="translate(217.953948 469.092558)scale(0.11 -0.11)">
       <defs>
        <path id="ArialMT-31" d="M 2384 0
L 1822 0
L 1822 3584
Q 1619 3391 1289 3197
Q 959 3003 697 2906
L 697 3450
Q 1169 3672 1522 3987
Q 1875 4303 2022 4600
L 2384 4600
L 2384 0
z
" transform="scale(0.015625)"/>
        <path id="ArialMT-32" d="M 3222 541
L 3222 0
L 194 0
Q 188 203 259 391
Q 375 700 629 1000
Q 884 1300 1366 1694
Q 2113 2306 2375 2664
Q 2638 3022 2638 3341
Q 2638 3675 2398 3904
Q 2159 4134 1775 4134
Q 1369 4134 1125 3890
Q 881 3647 878 3216
L 300 3275
Q 359 3922 746 4261
Q 1134 4600 1788 4600
Q 2447 4600 2831 4234
Q 3216 3869 3216 3328
Q 3216 3053 3103 2787
Q 2991 2522 2730 2228
Q 2469 1934 1863 1422
Q 1356 997 1212 845
Q 1069 694 975 541
L 3222 541
z
" transform="scale(0.015625)"/>
        <path id="ArialMT-50" d="M 494 0
L 494 4581
L 2222 4581
Q 2678 4581 2919 4538
Q 3256 4481 3484 4323
Q 3713 4166 3852 3881
Q 3991 3597 3991 3256
Q 3991 2672 3619 2267
Q 3247 1863 2275 1863
L 1100 1863
L 1100 0
L 494 0
z
M 1100 2403
L 2284 2403
Q 2872 2403 3119 2622
Q 3366 2841 3366 3238
Q 3366 3525 3220 3729
Q 3075 3934 2838 4000
Q 2684 4041 2272 4041
L 1100 4041
L 1100 2403
z
" transform="scale(0.015625)"/>
       </defs>
       <use xlink:href="#ArialMT-54"/>
       <use xlink:href="#ArialMT-68" x="61.083984"/>
       <use xlink:href="#ArialMT-75" x="116.699219"/>
       <use xlink:href="#ArialMT-20" x="172.314453"/>
       <use xlink:href="#ArialMT-31" x="200.097656"/>
       <use xlink:href="#ArialMT-32" x="255.712891"/>
       <use xlink:href="#ArialMT-20" x="311.328125"/>
       <use xlink:href="#ArialMT-50" x="339.111328"/>
       <use xlink:href="#ArialMT-4d" x="405.810547"/>
      </g>
     </g>
    </g>
    <g id="xtick_3">
     <g id="line2d_3">
      <path d="M 346.378294 451.718964
L 346.378294 8.198964
" clip-path="url(#p6acd22da26)" style="fill: none; stroke: #ffffff; stroke-linecap: round"/>
     </g>
     <g id="text_3">
      <!-- Thu 3 PM -->
      <g style="fill: #262626" transform="translate(322.537513 469.092558)scale(0.11 -0.11)">
       <defs>
        <path id="ArialMT-33" d="M 269 1209
L 831 1284
Q 928 806 1161 595
Q 1394 384 1728 384
Q 2125 384 2398 659
Q 2672 934 2672 1341
Q 2672 1728 2419 1979
Q 2166 2231 1775 2231
Q 1616 2231 1378 2169
L 1441 2663
Q 1497 2656 1531 2656
Q 1891 2656 2178 2843
Q 2466 3031 2466 3422
Q 2466 3731 2256 3934
Q 2047 4138 1716 4138
Q 1388 4138 1169 3931
Q 950 3725 888 3313
L 325 3413
Q 428 3978 793 4289
Q 1159 4600 1703 4600
Q 2078 4600 2393 4439
Q 2709 4278 2876 4000
Q 3044 3722 3044 3409
Q 3044 3113 2884 2869
Q 2725 2625 2413 2481
Q 2819 2388 3044 2092
Q 3269 1797 3269 1353
Q 3269 753 2831 336
Q 2394 -81 1725 -81
Q 1122 -81 723 278
Q 325 638 269 1209
z
" transform="scale(0.015625)"/>
       </defs>
       <use xlink:href="#ArialMT-54"/>
       <use xlink:href="#ArialMT-68" x="61.083984"/>
       <use xlink:href="#ArialMT-75" x="116.699219"/>
       <use xlink:href="#ArialMT-20" x="172.314453"/>
       <use xlink:href="#ArialMT-33" x="200.097656"/>
       <use xlink:href="#ArialMT-20" x="255.712891"/>
       <use xlink:href="#ArialMT-50" x="283.496094"/>
       <use xlink:href="#ArialMT-4d" x="350.195312"/>
      </g>
     </g>
    </g>
    <g id="xtick_4">
     <g id="line2d_4">
      <path d="M 447.903343 451.718964
L 447.903343 8.198964
" clip-path="url(#p6acd22da26)" style="fill: none; stroke: #ffffff; stroke-linecap: round"/>
     </g>
     <g id="text_4">
      <!-- Thu 6 PM -->
      <g style="fill: #262626" transform="translate(424.062562 469.092558)scale(0.11 -0.11)">
       <defs>
        <path id="ArialMT-36" d="M 3184 3459
L 2625 3416
Q 2550 3747 2413 3897
Q 2184 4138 1850 4138
Q 1581 4138 1378 3988
Q 1113 3794 959 3422
Q 806 3050 800 2363
Q 1003 2672 1297 2822
Q 1591 2972 1913 2972
Q 2475 2972 2870 2558
Q 3266 2144 3266 1488
Q 3266 1056 3080 686
Q 2894 316 2569 119
Q 2244 -78 1831 -78
Q 1128 -78 684 439
Q 241 956 241 2144
Q 241 3472 731 4075
Q 1159 4600 1884 4600
Q 2425 4600 2770 4297
Q 3116 3994 3184 3459
z
M 888 1484
Q 888 1194 1011 928
Q 1134 663 1356 523
Q 1578 384 1822 384
Q 2178 384 2434 671
Q 2691 959 2691 1453
Q 2691 1928 2437 2201
Q 2184 2475 1800 2475
Q 1419 2475 1153 2201
Q 888 1928 888 1484
z
" transform="scale(0.015625)"/>
       </defs>
       <use xlink:href="#ArialMT-54"/>
       <use xlink:href="#ArialMT-68" x="61.083984"/>
       <use xlink:href="#ArialMT-75" x="116.699219"/>
       <use xlink:href="#ArialMT-20" x="172.314453"/>
       <use xlink:href="#ArialMT-36" x="200.097656"/>
       <use xlink:href="#ArialMT-20" x="255.712891"/>
       <use xlink:href="#ArialMT-50" x="283.496094"/>
       <use xlink:href="#ArialMT-4d" x="350.195312"/>
      </g>
     </g>
    </g>
    <g id="xtick_5">
     <g id="line2d_5">
      <path d="M 549.428392 451.718964
L 549.428392 8.198964
" clip-path="url(#p6acd22da26)" style="fill: none; stroke: #ffffff; stroke-linecap: round"/>
     </g>
     <g id="text_5">
      <!-- Thu 9 PM -->
      <g style="fill: #262626" transform="translate(525.587611 469.092558)scale(0.11 -0.11)">
       <use xlink:href="#ArialMT-54"/>
       <use xlink:href="#ArialMT-68" x="61.083984"/>
       <use xlink:href="#ArialMT-75" x="116.699219"/>
       <use xlink:href="#ArialMT-20" x="172.314453"/>
       <use xlink:href="#ArialMT-39" x="200.097656"/>
       <use xlink:href="#ArialMT-20" x="255.712891"/>
       <use xlink:href="#ArialMT-50" x="283.496094"/>
       <use xlink:href="#ArialMT-4d" x="350.195312"/>
      </g>
     </g>
    </g>
    <g id="xtick_6">
     <g id="line2d_6">
      <path d="M 650.953441 451.718964
L 650.953441 8.198964
" clip-path="url(#p6acd22da26)" style="fill: none; stroke: #ffffff; stroke-linecap: round"/>
     </g>
     <g id="text_6">
      <!-- Fri 12 AM -->
      <g style="fill: #262626" transform="translate(627.420316 469.092558)scale(0.11 -0.11)">
       <defs>
        <path id="ArialMT-46" d="M 525 0
L 525 4581
L 3616 4581
L 3616 4041
L 1131 4041
L 1131 2622
L 3281 2622
L 3281 2081
L 1131 2081
L 1131 0
L 525 0
z
" transform="scale(0.015625)"/>
        <path id="ArialMT-72" d="M 416 0
L 416 3319
L 922 3319
L 922 2816
Q 1116 3169 1280 3281
Q 1444 3394 1641 3394
Q 1925 3394 2219 3213
L 2025 2691
Q 1819 2813 1613 2813
Q 1428 2813 1281 2702
Q 1134 2591 1072 2394
Q 978 2094 978 1738
L 978 0
L 416 0
z
" transform="scale(0.015625)"/>
        <path id="ArialMT-69" d="M 425 3934
L 425 4581
L 988 4581
L 988 3934
L 425 3934
z
M 425 0
L 425 3319
L 988 3319
L 988 0
L 425 0
z
" transform="scale(0.015625)"/>
       </defs>
       <use xlink:href="#ArialMT-46"/>
       <use xlink:href="#ArialMT-72" x="61.083984"/>
       <use xlink:href="#ArialMT-69" x="94.384766"/>
       <use xlink:href="#ArialMT-20" x="116.601562"/>
       <use xlink:href="#ArialMT-31" x="144.384766"/>
       <use xlink:href="#ArialMT-32" x="200"/>
       <use xlink:href="#ArialMT-20" x="255.615234"/>
       <use xlink:href="#ArialMT-41" x="277.898438"/>
       <use xlink:href="#ArialMT-4d" x="344.597656"/>
      </g>
     </g>
    </g>
    <g id="xtick_7">
     <g id="line2d_7">
      <path d="M 752.47849 451.718964
L 752.47849 8.198964
" clip-path="url(#p6acd22da26)" style="fill: none; stroke: #ffffff; stroke-linecap: round"/>
     </g>
     <g id="text_7">
      <!-- Fri 3 AM -->
      <g style="fill: #262626" transform="translate(732.00388 469.092558)scale(0.11 -0.11)">
       <use xlink:href="#ArialMT-46"/>
       <use xlink:href="#ArialMT-72" x="61.083984"/>
       <use xlink:href="#ArialMT-69" x="94.384766"/>
       <use xlink:href="#ArialMT-20" x="116.601562"/>
       <use xlink:href="#ArialMT-33" x="144.384766"/>
       <use xlink:href="#ArialMT-20" x="200"/>
       <use xlink:href="#ArialMT-41" x="222.283203"/>
       <use xlink:href="#ArialMT-4d" x="288.982422"/>
      </g>
     </g>
    </g>
    <g id="xtick_8">
     <g id="line2d_8">
      <path d="M 854.003539 451.718964
L 854.003539 8.198964
" clip-path="url(#p6acd22da26)" style="fill: none; stroke: #ffffff; stroke-linecap: round"/>
     </g>
     <g id="text_8">
      <!-- Fri 6 AM -->
      <g style="fill: #262626" transform="translate(833.528929 469.092558)scale(0.11 -0.11)">
       <use xlink:href="#ArialMT-46"/>
       <use xlink:href="#ArialMT-72" x="61.083984"/>
       <use xlink:href="#ArialMT-69" x="94.384766"/>
       <use xlink:href="#ArialMT-20" x="116.601562"/>
       <use xlink:href="#ArialMT-36" x="144.384766"/>
       <use xlink:href="#ArialMT-20" x="200"/>
       <use xlink:href="#ArialMT-41" x="222.283203"/>
       <use xlink:href="#ArialMT-4d" x="288.982422"/>
      </g>
     </g>
    </g>
    <g id="text_9">
     <!-- time -->
     <g style="fill: #262626" transform="translate(488.741562 483.868183)scale(0.12 -0.12)">
      <defs>
       <path id="ArialMT-74" d="M 1650 503
L 1731 6
Q 1494 -44 1306 -44
Q 1000 -44 831 53
Q 663 150 594 308
Q 525 466 525 972
L 525 2881
L 113 2881
L 113 3319
L 525 3319
L 525 4141
L 1084 4478
L 1084 3319
L 1650 3319
L 1650 2881
L 1084 2881
L 1084 941
Q 1084 700 1114 631
Q 1144 563 1211 522
Q 1278 481 1403 481
Q 1497 481 1650 503
z
" transform="scale(0.015625)"/>
       <path id="ArialMT-6d" d="M 422 0
L 422 3319
L 925 3319
L 925 2853
Q 1081 3097 1340 3245
Q 1600 3394 1931 3394
Q 2300 3394 2536 3241
Q 2772 3088 2869 2813
Q 3263 3394 3894 3394
Q 4388 3394 4653 3120
Q 4919 2847 4919 2278
L 4919 0
L 4359 0
L 4359 2091
Q 4359 2428 4304 2576
Q 4250 2725 4106 2815
Q 3963 2906 3769 2906
Q 3419 2906 3187 2673
Q 2956 2441 2956 1928
L 2956 0
L 2394 0
L 2394 2156
Q 2394 2531 2256 2718
Q 2119 2906 1806 2906
Q 1569 2906 1367 2781
Q 1166 2656 1075 2415
Q 984 2175 984 1722
L 984 0
L 422 0
z
" transform="scale(0.015625)"/>
       <path id="ArialMT-65" d="M 2694 1069
L 3275 997
Q 3138 488 2766 206
Q 2394 -75 1816 -75
Q 1088 -75 661 373
Q 234 822 234 1631
Q 234 2469 665 2931
Q 1097 3394 1784 3394
Q 2450 3394 2872 2941
Q 3294 2488 3294 1666
Q 3294 1616 3291 1516
L 816 1516
Q 847 969 1125 678
Q 1403 388 1819 388
Q 2128 388 2347 550
Q 2566 713 2694 1069
z
M 847 1978
L 2700 1978
Q 2663 2397 2488 2606
Q 2219 2931 1791 2931
Q 1403 2931 1139 2672
Q 875 2413 847 1978
z
" transform="scale(0.015625)"/>
      </defs>
      <use xlink:href="#ArialMT-74"/>
      <use xlink:href="#ArialMT-69" x="27.783203"/>
      <use xlink:href="#ArialMT-6d" x="50"/>
      <use xlink:href="#ArialMT-65" x="133.300781"/>
     </g>
    </g>
   </g>
   <g id="matplotlib.axis_2">
    <g id="ytick_1">
     <g id="line2d_9">
      <path d="M 53.675938 417.150635
L 946.475937 417.150635
" clip-path="url(#p6acd22da26)" style="fill: none; stroke: #ffffff; stroke-linecap: round"/>
     </g>
     <g id="line2d_10">
      <defs>
       <path id="m0b1a0f8dec" d="M 0 0
L -6 0
" style="stroke: #262626; stroke-width: 1.25"/>
      </defs>
      <g>
       <use xlink:href="#m0b1a0f8dec" x="53.675938" y="417.150635" style="fill: #262626; stroke: #262626; stroke-width: 1.25"/>
      </g>
     </g>
     <g id="text_10">
      <!-- −1.5 -->
      <g style="fill: #262626" transform="translate(22.46125 421.087432)scale(0.11 -0.11)">
       <defs>
        <path id="ArialMT-2212" d="M 3381 1997
L 356 1997
L 356 2522
L 3381 2522
L 3381 1997
z
" transform="scale(0.015625)"/>
        <path id="ArialMT-2e" d="M 581 0
L 581 641
L 1222 641
L 1222 0
L 581 0
z
" transform="scale(0.015625)"/>
        <path id="ArialMT-35" d="M 266 1200
L 856 1250
Q 922 819 1161 601
Q 1400 384 1738 384
Q 2144 384 2425 690
Q 2706 997 2706 1503
Q 2706 1984 2436 2262
Q 2166 2541 1728 2541
Q 1456 2541 1237 2417
Q 1019 2294 894 2097
L 366 2166
L 809 4519
L 3088 4519
L 3088 3981
L 1259 3981
L 1013 2750
Q 1425 3038 1878 3038
Q 2478 3038 2890 2622
Q 3303 2206 3303 1553
Q 3303 931 2941 478
Q 2500 -78 1738 -78
Q 1113 -78 717 272
Q 322 622 266 1200
z
" transform="scale(0.015625)"/>
       </defs>
       <use xlink:href="#ArialMT-2212"/>
       <use xlink:href="#ArialMT-31" x="58.398438"/>
       <use xlink:href="#ArialMT-2e" x="114.013672"/>
       <use xlink:href="#ArialMT-35" x="141.796875"/>
      </g>
     </g>
    </g>
    <g id="ytick_2">
     <g id="line2d_11">
      <path d="M 53.675938 350.013161
L 946.475937 350.013161
" clip-path="url(#p6acd22da26)" style="fill: none; stroke: #ffffff; stroke-linecap: round"/>
     </g>
     <g id="line2d_12">
      <g>
       <use xlink:href="#m0b1a0f8dec" x="53.675938" y="350.013161" style="fill: #262626; stroke: #262626; stroke-width: 1.25"/>
      </g>
     </g>
     <g id="text_11">
      <!-- −1.0 -->
      <g style="fill: #262626" transform="translate(22.46125 353.949958)scale(0.11 -0.11)">
       <defs>
        <path id="ArialMT-30" d="M 266 2259
Q 266 3072 433 3567
Q 600 4063 929 4331
Q 1259 4600 1759 4600
Q 2128 4600 2406 4451
Q 2684 4303 2865 4023
Q 3047 3744 3150 3342
Q 3253 2941 3253 2259
Q 3253 1453 3087 958
Q 2922 463 2592 192
Q 2263 -78 1759 -78
Q 1097 -78 719 397
Q 266 969 266 2259
z
M 844 2259
Q 844 1131 1108 757
Q 1372 384 1759 384
Q 2147 384 2411 759
Q 2675 1134 2675 2259
Q 2675 3391 2411 3762
Q 2147 4134 1753 4134
Q 1366 4134 1134 3806
Q 844 3388 844 2259
z
" transform="scale(0.015625)"/>
       </defs>
       <use xlink:href="#ArialMT-2212"/>
       <use xlink:href="#ArialMT-31" x="58.398438"/>
       <use xlink:href="#ArialMT-2e" x="114.013672"/>
       <use xlink:href="#ArialMT-30" x="141.796875"/>
      </g>
     </g>
    </g>
    <g id="ytick_3">
     <g id="line2d_13">
      <path d="M 53.675938 282.875687
L 946.475937 282.875687
" clip-path="url(#p6acd22da26)" style="fill: none; stroke: #ffffff; stroke-linecap: round"/>
     </g>
     <g id="line2d_14">
      <g>
       <use xlink:href="#m0b1a0f8dec" x="53.675938" y="282.875687" style="fill: #262626; stroke: #262626; stroke-width: 1.25"/>
      </g>
     </g>
     <g id="text_12">
      <!-- −0.5 -->
      <g style="fill: #262626" transform="translate(22.46125 286.812483)scale(0.11 -0.11)">
       <use xlink:href="#ArialMT-2212"/>
       <use xlink:href="#ArialMT-30" x="58.398438"/>
       <use xlink:href="#ArialMT-2e" x="114.013672"/>
       <use xlink:href="#ArialMT-35" x="141.796875"/>
      </g>
     </g>
    </g>
    <g id="ytick_4">
     <g id="line2d_15">
      <path d="M 53.675938 215.738212
L 946.475937 215.738212
" clip-path="url(#p6acd22da26)" style="fill: none; stroke: #ffffff; stroke-linecap: round"/>
     </g>
     <g id="line2d_16">
      <g>
       <use xlink:href="#m0b1a0f8dec" x="53.675938" y="215.738212" style="fill: #262626; stroke: #262626; stroke-width: 1.25"/>
      </g>
     </g>
     <g id="text_13">
      <!-- 0.0 -->
      <g style="fill: #262626" transform="translate(28.885938 219.675009)scale(0.11 -0.11)">
       <use xlink:href="#ArialMT-30"/>
       <use xlink:href="#ArialMT-2e" x="55.615234"/>
       <use xlink:href="#ArialMT-30" x="83.398438"/>
      </g>
     </g>
    </g>
    <g id="ytick_5">
     <g id="line2d_17">
      <path d="M 53.675938 148.600738
L 946.475937 148.600738
" clip-path="url(#p6acd22da26)" style="fill: none; stroke: #ffffff; stroke-linecap: round"/>
     </g>
     <g id="line2d_18">
      <g>
       <use xlink:href="#m0b1a0f8dec" x="53.675938" y="148.600738" style="fill: #262626; stroke: #262626; stroke-width: 1.25"/>
      </g>
     </g>
     <g id="text_14">
      <!-- 0.5 -->
      <g style="fill: #262626" transform="translate(28.885938 152.537535)scale(0.11 -0.11)">
       <use xlink:href="#ArialMT-30"/>
       <use xlink:href="#ArialMT-2e" x="55.615234"/>
       <use xlink:href="#ArialMT-35" x="83.398438"/>
      </g>
     </g>
    </g>
    <g id="ytick_6">
     <g id="line2d_19">
      <path d="M 53.675938 81.463264
L 946.475937 81.463264
" clip-path="url(#p6acd22da26)" style="fill: none; stroke: #ffffff; stroke-linecap: round"/>
     </g>
     <g id="line2d_20">
      <g>
       <use xlink:href="#m0b1a0f8dec" x="53.675938" y="81.463264" style="fill: #262626; stroke: #262626; stroke-width: 1.25"/>
      </g>
     </g>
     <g id="text_15">
      <!-- 1.0 -->
      <g style="fill: #262626" transform="translate(28.885938 85.400061)scale(0.11 -0.11)">
       <use xlink:href="#ArialMT-31"/>
       <use xlink:href="#ArialMT-2e" x="55.615234"/>
       <use xlink:href="#ArialMT-30" x="83.398438"/>
      </g>
     </g>
    </g>
    <g id="ytick_7">
     <g id="line2d_21">
      <path d="M 53.675938 14.32579
L 946.475937 14.32579
" clip-path="url(#p6acd22da26)" style="fill: none; stroke: #ffffff; stroke-linecap: round"/>
     </g>
     <g id="line2d_22">
      <g>
       <use xlink:href="#m0b1a0f8dec" x="53.675938" y="14.32579" style="fill: #262626; stroke: #262626; stroke-width: 1.25"/>
      </g>
     </g>
     <g id="text_16">
      <!-- 1.5 -->
      <g style="fill: #262626" transform="translate(28.885938 18.262586)scale(0.11 -0.11)">
       <use xlink:href="#ArialMT-31"/>
       <use xlink:href="#ArialMT-2e" x="55.615234"/>
       <use xlink:href="#ArialMT-35" x="83.398438"/>
      </g>
     </g>
    </g>
    <g id="text_17">
     <!-- Current Speed (kts) -->
     <g style="fill: #55a868" transform="translate(15.935625 282.308964)rotate(-90)scale(0.12 -0.12)">
      <defs>
       <path id="ArialMT-43" d="M 3763 1606
L 4369 1453
Q 4178 706 3683 314
Q 3188 -78 2472 -78
Q 1731 -78 1267 223
Q 803 525 561 1097
Q 319 1669 319 2325
Q 319 3041 592 3573
Q 866 4106 1370 4382
Q 1875 4659 2481 4659
Q 3169 4659 3637 4309
Q 4106 3959 4291 3325
L 3694 3184
Q 3534 3684 3231 3912
Q 2928 4141 2469 4141
Q 1941 4141 1586 3887
Q 1231 3634 1087 3207
Q 944 2781 944 2328
Q 944 1744 1114 1308
Q 1284 872 1643 656
Q 2003 441 2422 441
Q 2931 441 3284 734
Q 3638 1028 3763 1606
z
" transform="scale(0.015625)"/>
       <path id="ArialMT-6e" d="M 422 0
L 422 3319
L 928 3319
L 928 2847
Q 1294 3394 1984 3394
Q 2284 3394 2536 3286
Q 2788 3178 2913 3003
Q 3038 2828 3088 2588
Q 3119 2431 3119 2041
L 3119 0
L 2556 0
L 2556 2019
Q 2556 2363 2490 2533
Q 2425 2703 2258 2804
Q 2091 2906 1866 2906
Q 1506 2906 1245 2678
Q 984 2450 984 1813
L 984 0
L 422 0
z
" transform="scale(0.015625)"/>
       <path id="ArialMT-53" d="M 288 1472
L 859 1522
Q 900 1178 1048 958
Q 1197 738 1509 602
Q 1822 466 2213 466
Q 2559 466 2825 569
Q 3091 672 3220 851
Q 3350 1031 3350 1244
Q 3350 1459 3225 1620
Q 3100 1781 2813 1891
Q 2628 1963 1997 2114
Q 1366 2266 1113 2400
Q 784 2572 623 2826
Q 463 3081 463 3397
Q 463 3744 659 4045
Q 856 4347 1234 4503
Q 1613 4659 2075 4659
Q 2584 4659 2973 4495
Q 3363 4331 3572 4012
Q 3781 3694 3797 3291
L 3216 3247
Q 3169 3681 2898 3903
Q 2628 4125 2100 4125
Q 1550 4125 1298 3923
Q 1047 3722 1047 3438
Q 1047 3191 1225 3031
Q 1400 2872 2139 2705
Q 2878 2538 3153 2413
Q 3553 2228 3743 1945
Q 3934 1663 3934 1294
Q 3934 928 3725 604
Q 3516 281 3123 101
Q 2731 -78 2241 -78
Q 1619 -78 1198 103
Q 778 284 539 648
Q 300 1013 288 1472
z
" transform="scale(0.015625)"/>
       <path id="ArialMT-70" d="M 422 -1272
L 422 3319
L 934 3319
L 934 2888
Q 1116 3141 1344 3267
Q 1572 3394 1897 3394
Q 2322 3394 2647 3175
Q 2972 2956 3137 2557
Q 3303 2159 3303 1684
Q 3303 1175 3120 767
Q 2938 359 2589 142
Q 2241 -75 1856 -75
Q 1575 -75 1351 44
Q 1128 163 984 344
L 984 -1272
L 422 -1272
z
M 931 1641
Q 931 1000 1190 694
Q 1450 388 1819 388
Q 2194 388 2461 705
Q 2728 1022 2728 1688
Q 2728 2322 2467 2637
Q 2206 2953 1844 2953
Q 1484 2953 1207 2617
Q 931 2281 931 1641
z
" transform="scale(0.015625)"/>
       <path id="ArialMT-64" d="M 2575 0
L 2575 419
Q 2259 -75 1647 -75
Q 1250 -75 917 144
Q 584 363 401 755
Q 219 1147 219 1656
Q 219 2153 384 2558
Q 550 2963 881 3178
Q 1213 3394 1622 3394
Q 1922 3394 2156 3267
Q 2391 3141 2538 2938
L 2538 4581
L 3097 4581
L 3097 0
L 2575 0
z
M 797 1656
Q 797 1019 1065 703
Q 1334 388 1700 388
Q 2069 388 2326 689
Q 2584 991 2584 1609
Q 2584 2291 2321 2609
Q 2059 2928 1675 2928
Q 1300 2928 1048 2622
Q 797 2316 797 1656
z
" transform="scale(0.015625)"/>
       <path id="ArialMT-28" d="M 1497 -1347
Q 1031 -759 709 28
Q 388 816 388 1659
Q 388 2403 628 3084
Q 909 3875 1497 4659
L 1900 4659
Q 1522 4009 1400 3731
Q 1209 3300 1100 2831
Q 966 2247 966 1656
Q 966 153 1900 -1347
L 1497 -1347
z
" transform="scale(0.015625)"/>
       <path id="ArialMT-6b" d="M 425 0
L 425 4581
L 988 4581
L 988 1969
L 2319 3319
L 3047 3319
L 1778 2088
L 3175 0
L 2481 0
L 1384 1697
L 988 1316
L 988 0
L 425 0
z
" transform="scale(0.015625)"/>
       <path id="ArialMT-73" d="M 197 991
L 753 1078
Q 800 744 1014 566
Q 1228 388 1613 388
Q 2000 388 2187 545
Q 2375 703 2375 916
Q 2375 1106 2209 1216
Q 2094 1291 1634 1406
Q 1016 1563 777 1677
Q 538 1791 414 1992
Q 291 2194 291 2438
Q 291 2659 392 2848
Q 494 3038 669 3163
Q 800 3259 1026 3326
Q 1253 3394 1513 3394
Q 1903 3394 2198 3281
Q 2494 3169 2634 2976
Q 2775 2784 2828 2463
L 2278 2388
Q 2241 2644 2061 2787
Q 1881 2931 1553 2931
Q 1166 2931 1000 2803
Q 834 2675 834 2503
Q 834 2394 903 2306
Q 972 2216 1119 2156
Q 1203 2125 1616 2013
Q 2213 1853 2448 1751
Q 2684 1650 2818 1456
Q 2953 1263 2953 975
Q 2953 694 2789 445
Q 2625 197 2315 61
Q 2006 -75 1616 -75
Q 969 -75 630 194
Q 291 463 197 991
z
" transform="scale(0.015625)"/>
       <path id="ArialMT-29" d="M 791 -1347
L 388 -1347
Q 1322 153 1322 1656
Q 1322 2244 1188 2822
Q 1081 3291 891 3722
Q 769 4003 388 4659
L 791 4659
Q 1378 3875 1659 3084
Q 1900 2403 1900 1659
Q 1900 816 1576 28
Q 1253 -759 791 -1347
z
" transform="scale(0.015625)"/>
      </defs>
      <use xlink:href="#ArialMT-43"/>
      <use xlink:href="#ArialMT-75" x="72.216797"/>
      <use xlink:href="#ArialMT-72" x="127.832031"/>
      <use xlink:href="#ArialMT-72" x="161.132812"/>
      <use xlink:href="#ArialMT-65" x="194.433594"/>
      <use xlink:href="#ArialMT-6e" x="250.048828"/>
      <use xlink:href="#ArialMT-74" x="305.664062"/>
      <use xlink:href="#ArialMT-20" x="333.447266"/>
      <use xlink:href="#ArialMT-53" x="361.230469"/>
      <use xlink:href="#ArialMT-70" x="427.929688"/>
      <use xlink:href="#ArialMT-65" x="483.544922"/>
      <use xlink:href="#ArialMT-65" x="539.160156"/>
      <use xlink:href="#ArialMT-64" x="594.775391"/>
      <use xlink:href="#ArialMT-20" x="650.390625"/>
      <use xlink:href="#ArialMT-28" x="678.173828"/>
      <use xlink:href="#ArialMT-6b" x="711.474609"/>
      <use xlink:href="#ArialMT-74" x="761.474609"/>
      <use xlink:href="#ArialMT-73" x="789.257812"/>
      <use xlink:href="#ArialMT-29" x="839.257812"/>
     </g>
    </g>
   </g>
   <g id="line2d_23">
    <path d="M 94.257756 84.701588
L 98.76998 93.775065
L 103.282204 103.347066
L 107.794429 113.417592
L 112.306653 123.986642
L 117.382906 136.472716
L 122.459158 149.589736
L 136.559859 187.297612
L 159.120981 248.171076
L 181.682103 309.693859
L 193.526692 341.900718
L 198.038917 353.293773
L 201.987113 362.705629
L 205.93531 371.597555
L 209.883506 379.96955
L 213.831702 387.821616
L 217.779899 395.153751
L 221.728095 401.965957
L 225.112263 407.391168
L 228.496432 412.422438
L 231.316572 416.198873
L 234.136712 419.560646
L 236.392824 421.951508
L 238.648936 424.076986
L 240.905049 425.93708
L 243.161161 427.53179
L 245.417273 428.861117
L 247.673385 429.92506
L 249.929497 430.72362
L 252.18561 431.256795
L 254.441722 431.524587
L 256.697834 431.526995
L 258.953946 431.26402
L 261.210058 430.735661
L 263.466171 429.941918
L 265.722283 428.882791
L 267.978395 427.558281
L 270.234507 425.968386
L 272.490619 424.113109
L 274.746732 421.992447
L 277.002844 419.606402
L 279.822984 416.250649
L 282.643124 412.480235
L 285.463265 408.295158
L 288.283405 403.69542
L 291.103545 398.681019
L 293.923685 393.251957
L 297.307854 386.189728
L 300.692022 378.530385
L 304.640218 368.931976
L 310.844527 353.265891
L 317.048835 336.986991
L 323.253144 320.095276
L 330.02148 300.990447
L 340.738013 270.777777
L 351.454546 241.210056
L 362.171079 212.287283
L 372.887612 184.009459
L 383.604145 156.376583
L 393.75665 130.792995
L 399.396931 117.001524
L 403.909155 106.575823
L 408.421379 96.712503
L 412.933604 87.411564
L 417.445828 78.673005
L 421.394025 71.488093
L 425.342221 64.733754
L 429.290417 58.409988
L 433.238614 52.516794
L 437.18681 47.054173
L 440.00695 43.467911
L 442.82709 40.260559
L 445.647231 37.435368
L 447.903343 35.450371
L 450.159455 33.709956
L 452.415567 32.214124
L 454.671679 30.962875
L 456.927792 29.956208
L 459.183904 29.194124
L 461.440016 28.676623
L 463.696128 28.403705
L 465.95224 28.375369
L 468.208353 28.591616
L 470.464465 29.052446
L 472.720577 29.757858
L 474.976689 30.707853
L 477.232801 31.902431
L 479.488914 33.341592
L 481.745026 35.025335
L 484.001138 36.953661
L 486.25725 39.12657
L 489.077391 42.18665
L 491.897531 45.628891
L 494.717671 49.437425
L 498.665867 55.128173
L 502.614064 61.17921
L 507.126288 68.53585
L 511.638513 76.363072
L 516.150737 84.660874
L 520.662961 93.429258
L 525.175186 102.668224
L 529.68741 112.37777
L 534.763663 123.863501
L 539.839915 135.944811
L 544.916167 148.621701
L 551.120476 164.813844
L 617.675786 339.474337
L 622.18801 350.228513
L 626.136207 359.105718
L 630.084403 367.485736
L 634.032599 375.368567
L 637.980796 382.754212
L 641.928992 389.642669
L 645.877188 396.03394
L 649.261357 401.064055
L 652.081497 404.807585
L 654.901637 408.133707
L 657.157749 410.49407
L 659.413862 412.587292
L 661.669974 414.413373
L 663.926086 415.972313
L 666.182198 417.264111
L 668.43831 418.288769
L 670.694423 419.046285
L 672.950535 419.53666
L 675.206647 419.759894
L 677.462759 419.715986
L 679.718871 419.404937
L 681.974984 418.826748
L 684.231096 417.981416
L 686.487208 416.868944
L 688.74332 415.489331
L 690.999432 413.842576
L 693.255545 411.92868
L 695.511657 409.747643
L 697.767769 407.299465
L 700.587909 403.863574
L 703.408049 400.010276
L 706.22819 395.739569
L 709.04833 391.051455
L 711.86847 385.945932
L 714.68861 380.423001
L 718.072779 373.244505
L 721.456947 365.464942
L 726.533199 353.013505
L 732.17348 338.610391
L 737.81376 323.615491
L 744.018069 306.445836
L 756.426686 271.957989
L 768.271275 239.675997
L 780.115864 208.017389
L 791.960453 176.982163
L 803.805042 146.570321
L 811.701435 126.772887
L 816.213659 116.091066
L 820.725884 105.964792
L 825.238108 96.394066
L 829.750333 87.378887
L 833.698529 79.946328
L 837.646725 72.93911
L 841.594922 66.357233
L 845.543118 60.200697
L 849.491314 54.472728
L 852.311455 50.752324
L 855.131595 47.410207
L 857.951735 44.446376
L 860.771875 41.860832
L 863.027988 40.064764
L 865.2841 38.510799
L 867.540212 37.198938
L 869.796324 36.129181
L 872.052436 35.301527
L 874.308549 34.715977
L 876.564661 34.37253
L 878.820773 34.271187
L 881.076885 34.411948
L 883.332997 34.794812
L 885.58911 35.41978
L 887.845222 36.286852
L 890.101334 37.396027
L 892.357446 38.747306
L 894.613558 40.340688
L 896.869671 42.176174
L 899.125783 44.253764
L 901.945923 47.191209
L 904.766063 50.506941
L 905.894119 51.92409
L 905.894119 51.92409
" clip-path="url(#p6acd22da26)" style="fill: none; stroke: #55a868; stroke-width: 1.5; stroke-linecap: round"/>
   </g>
   <g id="line2d_24">
    <path d="M 53.675938 215.738212
L 946.475937 215.738212
" clip-path="url(#p6acd22da26)" style="fill: none; stroke-dasharray: 1.5,2.475; stroke-dashoffset: 0; stroke: #55a868; stroke-opacity: 0.8; stroke-width: 1.5"/>
   </g>
   <g id="line2d_25">
    <path d="M 195.637457 451.718964
L 195.637457 8.198964
" clip-path="url(#p6acd22da26)" style="fill: none; stroke: #c44e52; stroke-opacity: 0.6; stroke-width: 1.5; stroke-linecap: round"/>
   </g>
   <g id="patch_3">
    <path d="M 53.675938 451.718964
L 53.675938 8.198964
" style="fill: none; stroke: #ffffff; stroke-width: 1.25; stroke-linejoin: miter; stroke-linecap: square"/>
   </g>
   <g id="patch_4">
    <path d="M 946.475937 451.718964
L 946.475937 8.198964
" style="fill: none; stroke: #ffffff; stroke-width: 1.25; stroke-linejoin: miter; stroke-linecap: square"/>
   </g>
   <g id="patch_5">
    <path d="M 53.675937 451.718964
L 946.475938 451.718964
" style="fill: none; stroke: #ffffff; stroke-width: 1.25; stroke-linejoin: miter; stroke-linecap: square"/>
   </g>
   <g id="patch_6">
    <path d="M 53.675937 8.198964
L 946.475938 8.198964
" style="fill: none; stroke: #ffffff; stroke-width: 1.25; stroke-linejoin: miter; stroke-linecap: square"/>
   </g>
  </g>
  <g id="axes_2">
   <g id="matplotlib.axis_3">
    <g id="ytick_8">
     <g id="line2d_26">
      <defs>
       <path id="m00f293266e" d="M 0 0
L 6 0
" style="stroke: #262626; stroke-width: 1.25"/>
      </defs>
      <g>
       <use xlink:href="#m00f293266e" x="946.475937" y="442.737607" style="fill: #262626; stroke: #262626; stroke-width: 1.25"/>
      </g>
     </g>
     <g id="text_18">
      <!-- −1 -->
      <g style="fill: #262626" transform="translate(955.975937 446.674404)scale(0.11 -0.11)">
       <use xlink:href="#ArialMT-2212"/>
       <use xlink:href="#ArialMT-31" x="58.398438"/>
      </g>
     </g>
    </g>
    <g id="ytick_9">
     <g id="line2d_27">
      <g>
       <use xlink:href="#m00f293266e" x="946.475937" y="381.080349" style="fill: #262626; stroke: #262626; stroke-width: 1.25"/>
      </g>
     </g>
     <g id="text_19">
      <!-- 0 -->
      <g style="fill: #262626" transform="translate(955.975937 385.017146)scale(0.11 -0.11)">
       <use xlink:href="#ArialMT-30"/>
      </g>
     </g>
    </g>
    <g id="ytick_10">
     <g id="line2d_28">
      <g>
       <use xlink:href="#m00f293266e" x="946.475937" y="319.42309" style="fill: #262626; stroke: #262626; stroke-width: 1.25"/>
      </g>
     </g>
     <g id="text_20">
      <!-- 1 -->
      <g style="fill: #262626" transform="translate(955.975937 323.359887)scale(0.11 -0.11)">
       <use xlink:href="#ArialMT-31"/>
      </g>
     </g>
    </g>
    <g id="ytick_11">
     <g id="line2d_29">
      <g>
       <use xlink:href="#m00f293266e" x="946.475937" y="257.765831" style="fill: #262626; stroke: #262626; stroke-width: 1.25"/>
      </g>
     </g>
     <g id="text_21">
      <!-- 2 -->
      <g style="fill: #262626" transform="translate(955.975937 261.702628)scale(0.11 -0.11)">
       <use xlink:href="#ArialMT-32"/>
      </g>
     </g>
    </g>
    <g id="ytick_12">
     <g id="line2d_30">
      <g>
       <use xlink:href="#m00f293266e" x="946.475937" y="196.108573" style="fill: #262626; stroke: #262626; stroke-width: 1.25"/>
      </g>
     </g>
     <g id="text_22">
      <!-- 3 -->
      <g style="fill: #262626" transform="translate(955.975937 200.04537)scale(0.11 -0.11)">
       <use xlink:href="#ArialMT-33"/>
      </g>
     </g>
    </g>
    <g id="ytick_13">
     <g id="line2d_31">
      <g>
       <use xlink:href="#m00f293266e" x="946.475937" y="134.451314" style="fill: #262626; stroke: #262626; stroke-width: 1.25"/>
      </g>
     </g>
     <g id="text_23">
      <!-- 4 -->
      <g style="fill: #262626" transform="translate(955.975937 138.388111)scale(0.11 -0.11)">
       <defs>
        <path id="ArialMT-34" d="M 2069 0
L 2069 1097
L 81 1097
L 81 1613
L 2172 4581
L 2631 4581
L 2631 1613
L 3250 1613
L 3250 1097
L 2631 1097
L 2631 0
L 2069 0
z
M 2069 1613
L 2069 3678
L 634 1613
L 2069 1613
z
" transform="scale(0.015625)"/>
       </defs>
       <use xlink:href="#ArialMT-34"/>
      </g>
     </g>
    </g>
    <g id="ytick_14">
     <g id="line2d_32">
      <g>
       <use xlink:href="#m00f293266e" x="946.475937" y="72.794056" style="fill: #262626; stroke: #262626; stroke-width: 1.25"/>
      </g>
     </g>
     <g id="text_24">
      <!-- 5 -->
      <g style="fill: #262626" transform="translate(955.975937 76.730852)scale(0.11 -0.11)">
       <use xlink:href="#ArialMT-35"/>
      </g>
     </g>
    </g>
    <g id="ytick_15">
     <g id="line2d_33">
      <g>
       <use xlink:href="#m00f293266e" x="946.475937" y="11.136797" style="fill: #262626; stroke: #262626; stroke-width: 1.25"/>
      </g>
     </g>
     <g id="text_25">
      <!-- 6 -->
      <g style="fill: #262626" transform="translate(955.975937 15.073594)scale(0.11 -0.11)">
       <use xlink:href="#ArialMT-36"/>
      </g>
     </g>
    </g>
    <g id="text_26">
     <!-- Tide Height (ft) -->
     <g style="fill: #4c72b0" transform="translate(981.253281 269.410839)rotate(-90)scale(0.12 -0.12)">
      <defs>
       <path id="ArialMT-48" d="M 513 0
L 513 4581
L 1119 4581
L 1119 2700
L 3500 2700
L 3500 4581
L 4106 4581
L 4106 0
L 3500 0
L 3500 2159
L 1119 2159
L 1119 0
L 513 0
z
" transform="scale(0.015625)"/>
       <path id="ArialMT-67" d="M 319 -275
L 866 -356
Q 900 -609 1056 -725
Q 1266 -881 1628 -881
Q 2019 -881 2231 -725
Q 2444 -569 2519 -288
Q 2563 -116 2559 434
Q 2191 0 1641 0
Q 956 0 581 494
Q 206 988 206 1678
Q 206 2153 378 2554
Q 550 2956 876 3175
Q 1203 3394 1644 3394
Q 2231 3394 2613 2919
L 2613 3319
L 3131 3319
L 3131 450
Q 3131 -325 2973 -648
Q 2816 -972 2473 -1159
Q 2131 -1347 1631 -1347
Q 1038 -1347 672 -1080
Q 306 -813 319 -275
z
M 784 1719
Q 784 1066 1043 766
Q 1303 466 1694 466
Q 2081 466 2343 764
Q 2606 1063 2606 1700
Q 2606 2309 2336 2618
Q 2066 2928 1684 2928
Q 1309 2928 1046 2623
Q 784 2319 784 1719
z
" transform="scale(0.015625)"/>
       <path id="ArialMT-66" d="M 556 0
L 556 2881
L 59 2881
L 59 3319
L 556 3319
L 556 3672
Q 556 4006 616 4169
Q 697 4388 901 4523
Q 1106 4659 1475 4659
Q 1713 4659 2000 4603
L 1916 4113
Q 1741 4144 1584 4144
Q 1328 4144 1222 4034
Q 1116 3925 1116 3625
L 1116 3319
L 1763 3319
L 1763 2881
L 1116 2881
L 1116 0
L 556 0
z
" transform="scale(0.015625)"/>
      </defs>
      <use xlink:href="#ArialMT-54"/>
      <use xlink:href="#ArialMT-69" x="57.333984"/>
      <use xlink:href="#ArialMT-64" x="79.550781"/>
      <use xlink:href="#ArialMT-65" x="135.166016"/>
      <use xlink:href="#ArialMT-20" x="190.78125"/>
      <use xlink:href="#ArialMT-48" x="218.564453"/>
      <use xlink:href="#ArialMT-65" x="290.78125"/>
      <use xlink:href="#ArialMT-69" x="346.396484"/>
      <use xlink:href="#ArialMT-67" x="368.613281"/>
      <use xlink:href="#ArialMT-68" x="424.228516"/>
      <use xlink:href="#ArialMT-74" x="479.84375"/>
      <use xlink:href="#ArialMT-20" x="507.626953"/>
      <use xlink:href="#ArialMT-28" x="535.410156"/>
      <use xlink:href="#ArialMT-66" x="568.710938"/>
      <use xlink:href="#ArialMT-74" x="596.494141"/>
      <use xlink:href="#ArialMT-29" x="624.277344"/>
     </g>
    </g>
   </g>
   <g id="PathCollection_1">
    <path d="M 111.742625 31.400829
C 112.538235 31.400829 113.301365 31.08473 113.863946 30.52215
C 114.426526 29.959569 114.742625 29.196439 114.742625 28.400829
C 114.742625 27.60522 114.426526 26.84209 113.863946 26.279509
C 113.301365 25.716928 112.538235 25.400829 111.742625 25.400829
C 110.947016 25.400829 110.183886 25.716928 109.621305 26.279509
C 109.058724 26.84209 108.742625 27.60522 108.742625 28.400829
C 108.742625 29.196439 109.058724 29.959569 109.621305 30.52215
C 110.183886 31.08473 110.947016 31.400829 111.742625 31.400829
z
" clip-path="url(#p6acd22da26)" style="fill: #4c72b0; stroke: #ffffff; stroke-width: 0.48"/>
    <path d="M 320.997032 434.454329
C 321.792641 434.454329 322.555771 434.13823 323.118352 433.575649
C 323.680933 433.013069 323.997032 432.249938 323.997032 431.454329
C 323.997032 430.65872 323.680933 429.895589 323.118352 429.333009
C 322.555771 428.770428 321.792641 428.454329 320.997032 428.454329
C 320.201422 428.454329 319.438292 428.770428 318.875711 429.333009
C 318.313131 429.895589 317.997032 430.65872 317.997032 431.454329
C 317.997032 432.249938 318.313131 433.013069 318.875711 433.575649
C 319.438292 434.13823 320.201422 434.454329 320.997032 434.454329
z
" clip-path="url(#p6acd22da26)" style="fill: #4c72b0; stroke: #ffffff; stroke-width: 0.48"/>
    <path d="M 531.943522 54.830588
C 532.739132 54.830588 533.502262 54.514489 534.064843 53.951908
C 534.627423 53.389327 534.943522 52.626197 534.943522 51.830588
C 534.943522 51.034978 534.627423 50.271848 534.064843 49.709267
C 533.502262 49.146686 532.739132 48.830588 531.943522 48.830588
C 531.147913 48.830588 530.384783 49.146686 529.822202 49.709267
C 529.259621 50.271848 528.943522 51.034978 528.943522 51.830588
C 528.943522 52.626197 529.259621 53.389327 529.822202 53.951908
C 530.384783 54.514489 531.147913 54.830588 531.943522 54.830588
z
" clip-path="url(#p6acd22da26)" style="fill: #4c72b0; stroke: #ffffff; stroke-width: 0.48"/>
    <path d="M 737.81376 419.718244
C 738.60937 419.718244 739.3725 419.402145 739.935081 418.839565
C 740.497662 418.276984 740.81376 417.513853 740.81376 416.718244
C 740.81376 415.922635 740.497662 415.159505 739.935081 414.596924
C 739.3725 414.034343 738.60937 413.718244 737.81376 413.718244
C 737.018151 413.718244 736.255021 414.034343 735.69244 414.596924
C 735.129859 415.159505 734.81376 415.922635 734.81376 416.718244
C 734.81376 417.513853 735.129859 418.276984 735.69244 418.839565
C 736.255021 419.402145 737.018151 419.718244 737.81376 419.718244
z
" clip-path="url(#p6acd22da26)" style="fill: #4c72b0; stroke: #ffffff; stroke-width: 0.48"/>
   </g>
   <g id="line2d_34">
    <path d="M 94.257756 32.886227
L 97.077896 31.426208
L 99.898036 30.249485
L 102.718176 29.356056
L 105.538317 28.745923
L 107.794429 28.461789
L 110.050541 28.358964
L 112.306653 28.437448
L 114.562765 28.697241
L 116.818878 29.138342
L 119.639018 29.944685
L 122.459158 31.034323
L 125.279298 32.407256
L 128.099439 34.063484
L 130.919579 36.003007
L 133.739719 38.225826
L 136.559859 40.731939
L 139.38 43.521348
L 142.20014 46.594052
L 145.02028 49.950051
L 148.404448 54.3512
L 151.788617 59.160293
L 155.172785 64.377332
L 158.556953 70.002316
L 161.941122 76.035244
L 165.32529 82.476118
L 169.273486 90.506068
L 173.221683 99.091276
L 177.169879 108.231743
L 181.118075 117.927469
L 185.066272 128.178453
L 189.578496 140.573771
L 194.09072 153.694326
L 198.602945 167.540116
L 203.115169 182.111141
L 207.627394 197.407402
L 212.139618 213.428899
L 217.215871 232.294577
L 222.292123 250.884831
L 227.368375 268.564929
L 231.8806 283.51649
L 236.392824 297.748915
L 240.905049 311.262203
L 245.417273 324.056355
L 249.929497 336.131372
L 253.877694 346.107094
L 257.82589 355.532229
L 261.774086 364.406774
L 265.722283 372.730731
L 269.670479 380.5041
L 273.618676 387.72688
L 277.002844 393.47961
L 280.387012 398.827827
L 283.77118 403.771529
L 287.155349 408.310718
L 290.539517 412.445392
L 293.923685 416.175553
L 296.743826 418.975016
L 299.563966 421.493566
L 302.384106 423.731204
L 305.204246 425.68793
L 308.024387 427.363743
L 310.844527 428.758643
L 313.664667 429.872631
L 316.484807 430.705707
L 319.304948 431.257869
L 321.56106 431.497343
L 323.817172 431.557032
L 326.073284 431.436937
L 328.329396 431.137058
L 331.149537 430.509388
L 333.969677 429.600806
L 336.789817 428.411311
L 339.609957 426.940903
L 342.430098 425.189583
L 345.250238 423.15735
L 348.070378 420.844205
L 350.890518 418.250148
L 353.710659 415.375177
L 356.530799 412.219295
L 359.914967 408.061431
L 363.299135 403.499053
L 366.683304 398.532161
L 370.067472 393.160755
L 373.45164 387.384835
L 376.835809 381.2044
L 380.784005 373.482633
L 384.732201 365.210277
L 388.680398 356.387332
L 392.628594 347.013799
L 396.57679 337.089677
L 400.524987 326.614967
L 405.037211 313.969679
L 409.549436 300.605256
L 414.06166 286.521696
L 418.573884 271.719
L 423.086109 256.197168
L 436.058754 210.773083
L 440.570978 196.193147
L 445.083203 182.314473
L 449.595427 169.137063
L 454.107651 156.660916
L 458.619876 144.886033
L 462.568072 135.158264
L 466.516269 125.967401
L 470.464465 117.313442
L 474.412661 109.196387
L 478.360858 101.616237
L 482.309054 94.572992
L 485.693222 88.963257
L 489.077391 83.747982
L 492.461559 78.927168
L 495.845727 74.500815
L 499.229895 70.468922
L 502.614064 66.831489
L 505.434204 64.101619
L 508.254344 61.645681
L 511.074484 59.463673
L 513.894625 57.555596
L 516.714765 55.92145
L 519.534905 54.561235
L 522.355045 53.47495
L 525.175186 52.662597
L 527.995326 52.124175
L 530.815466 51.859683
L 533.635606 51.869123
L 536.455747 52.152493
L 539.275887 52.709795
L 542.096027 53.541027
L 544.916167 54.64619
L 547.736308 56.025284
L 550.556448 57.67831
L 553.376588 59.605266
L 556.196728 61.806152
L 559.016869 64.28097
L 561.837009 67.029719
L 564.657149 70.052399
L 568.041317 74.041203
L 571.425486 78.424468
L 574.809654 83.202194
L 578.193822 88.37438
L 581.577991 93.941026
L 584.962159 99.902133
L 588.910355 107.355313
L 592.858552 115.345396
L 596.806748 123.872385
L 600.754944 132.936278
L 604.703141 142.537076
L 608.651337 152.674778
L 613.163561 164.918158
L 617.675786 177.8628
L 622.18801 191.508706
L 626.700235 205.855876
L 631.212459 220.904308
L 644.749132 266.913059
L 649.261357 281.010204
L 653.773581 294.410904
L 658.285805 307.11516
L 662.79803 319.122971
L 667.310254 330.434338
L 671.258451 339.760481
L 675.206647 348.553409
L 679.154843 356.813121
L 683.10304 364.539618
L 687.051236 371.7329
L 690.435404 377.474174
L 693.819573 382.823698
L 697.203741 387.781471
L 700.587909 392.347495
L 703.972077 396.521768
L 707.356246 400.304291
L 710.176386 403.15714
L 712.996526 405.737941
L 715.816667 408.046692
L 718.636807 410.083395
L 721.456947 411.84805
L 724.277087 413.340655
L 727.097228 414.561212
L 729.917368 415.50972
L 732.737508 416.18618
L 735.557648 416.590591
L 738.377789 416.722953
L 741.197929 416.583266
L 744.018069 416.171531
L 746.838209 415.487747
L 749.65835 414.531914
L 752.47849 413.304032
L 755.29863 411.804102
L 758.11877 410.032123
L 760.938911 407.988096
L 763.759051 405.67202
L 766.579191 403.083895
L 769.399331 400.223721
L 772.219472 397.091499
L 775.60364 392.973727
L 778.987808 388.464206
L 782.371976 383.562935
L 785.756145 378.269913
L 789.140313 372.585141
L 792.524481 366.50862
L 796.472678 358.924216
L 800.420874 350.806596
L 804.36907 342.155761
L 808.317267 332.971711
L 812.265463 323.254445
L 816.213659 313.003963
L 820.725884 300.63621
L 825.238108 287.572013
L 829.750333 273.811371
L 834.262557 259.354284
L 838.774781 244.200753
L 843.851034 226.331487
L 848.927286 208.65156
L 853.439511 193.682071
L 857.951735 179.414703
L 862.463959 165.849455
L 866.976184 152.986328
L 871.488408 140.82532
L 876.000633 129.366433
L 879.948829 119.915864
L 883.897025 111.002857
L 887.845222 102.62741
L 891.793418 94.789523
L 895.741614 87.489198
L 899.125783 81.65963
L 902.509951 76.225006
L 905.894119 71.185324
L 905.894119 71.185324
" clip-path="url(#p6acd22da26)" style="fill: none; stroke: #4c72b0; stroke-width: 1.5; stroke-linecap: round"/>
   </g>
   <g id="line2d_35">
    <path d="M 53.675938 381.080349
L 946.475937 381.080349
" clip-path="url(#p6acd22da26)" style="fill: none; stroke-dasharray: 1.5,2.475; stroke-dashoffset: 0; stroke: #4c72b0; stroke-opacity: 0.8; stroke-width: 1.5"/>
   </g>
   <g id="patch_7">
    <path d="M 53.675938 451.718964
L 53.675938 8.198964
" style="fill: none; stroke: #ffffff; stroke-width: 1.25; stroke-linejoin: miter; stroke-linecap: square"/>
   </g>
   <g id="patch_8">
    <path d="M 946.475937 451.718964
L 946.475937 8.198964
" style="fill: none; stroke: #ffffff; stroke-width: 1.25; stroke-linejoin: miter; stroke-linecap: square"/>
   </g>
   <g id="patch_9">
    <path d="M 53.675937 451.718964
L 946.475938 451.718964
" style="fill: none; stroke: #ffffff; stroke-width: 1.25; stroke-linejoin: miter; stroke-linecap: square"/>
   </g>
   <g id="patch_10">
    <path d="M 53.675937 8.198964
L 946.475938 8.198964
" style="fill: none; stroke: #ffffff; stroke-width: 1.25; stroke-linejoin: miter; stroke-linecap: square"/>
   </g>
   <g id="text_27">
    <!-- high tide -->
    <g style="fill: #4c72b0" transform="translate(87.742625 20.400829)scale(0.12 -0.12)">
     <use xlink:href="#ArialMT-68"/>
     <use xlink:href="#ArialMT-69" x="55.615234"/>
     <use xlink:href="#ArialMT-67" x="77.832031"/>
     <use xlink:href="#ArialMT-68" x="133.447266"/>
     <use xlink:href="#ArialMT-20" x="189.0625"/>
     <use xlink:href="#ArialMT-74" x="216.845703"/>
     <use xlink:href="#ArialMT-69" x="244.628906"/>
     <use xlink:href="#ArialMT-64" x="266.845703"/>
     <use xlink:href="#ArialMT-65" x="322.460938"/>
    </g>
   </g>
   <g id="text_28">
    <!-- low tide -->
    <g style="fill: #4c72b0" transform="translate(296.997032 423.454329)scale(0.12 -0.12)">
     <defs>
      <path id="ArialMT-6c" d="M 409 0
L 409 4581
L 972 4581
L 972 0
L 409 0
z
" transform="scale(0.015625)"/>
      <path id="ArialMT-6f" d="M 213 1659
Q 213 2581 725 3025
Q 1153 3394 1769 3394
Q 2453 3394 2887 2945
Q 3322 2497 3322 1706
Q 3322 1066 3130 698
Q 2938 331 2570 128
Q 2203 -75 1769 -75
Q 1072 -75 642 372
Q 213 819 213 1659
z
M 791 1659
Q 791 1022 1069 705
Q 1347 388 1769 388
Q 2188 388 2466 706
Q 2744 1025 2744 1678
Q 2744 2294 2464 2611
Q 2184 2928 1769 2928
Q 1347 2928 1069 2612
Q 791 2297 791 1659
z
" transform="scale(0.015625)"/>
      <path id="ArialMT-77" d="M 1034 0
L 19 3319
L 600 3319
L 1128 1403
L 1325 691
Q 1338 744 1497 1375
L 2025 3319
L 2603 3319
L 3100 1394
L 3266 759
L 3456 1400
L 4025 3319
L 4572 3319
L 3534 0
L 2950 0
L 2422 1988
L 2294 2553
L 1622 0
L 1034 0
z
" transform="scale(0.015625)"/>
     </defs>
     <use xlink:href="#ArialMT-6c"/>
     <use xlink:href="#ArialMT-6f" x="22.216797"/>
     <use xlink:href="#ArialMT-77" x="77.832031"/>
     <use xlink:href="#ArialMT-20" x="150.048828"/>
     <use xlink:href="#ArialMT-74" x="177.832031"/>
     <use xlink:href="#ArialMT-69" x="205.615234"/>
     <use xlink:href="#ArialMT-64" x="227.832031"/>
     <use xlink:href="#ArialMT-65" x="283.447266"/>
    </g>
   </g>
   <g id="text_29">
    <!-- high tide -->
    <g style="fill: #4c72b0" transform="translate(507.943522 43.830588)scale(0.12 -0.12)">
     <use xlink:href="#ArialMT-68"/>
     <use xlink:href="#ArialMT-69" x="55.615234"/>
     <use xlink:href="#ArialMT-67" x="77.832031"/>
     <use xlink:href="#ArialMT-68" x="133.447266"/>
     <use xlink:href="#ArialMT-20" x="189.0625"/>
     <use xlink:href="#ArialMT-74" x="216.845703"/>
     <use xlink:href="#ArialMT-69" x="244.628906"/>
     <use xlink:href="#ArialMT-64" x="266.845703"/>
     <use xlink:href="#ArialMT-65" x="322.460938"/>
    </g>
   </g>
   <g id="text_30">
    <!-- low tide -->
    <g style="fill: #4c72b0" transform="translate(713.81376 408.718244)scale(0.12 -0.12)">
     <use xlink:href="#ArialMT-6c"/>
     <use xlink:href="#ArialMT-6f" x="22.216797"/>
     <use xlink:href="#ArialMT-77" x="77.832031"/>
     <use xlink:href="#ArialMT-20" x="150.048828"/>
     <use xlink:href="#ArialMT-74" x="177.832031"/>
     <use xlink:href="#ArialMT-69" x="205.615234"/>
     <use xlink:href="#ArialMT-64" x="227.832031"/>
     <use xlink:href="#ArialMT-65" x="283.447266"/>
    </g>
   </g>
  </g>
 </g>
 <defs>
  <clipPath id="p6acd22da26">
   <rect x="53.675938" y="8.198964" width="892.8" height="443.52"/>
  </clipPath>
 </defs>
</svg>
