<?xml version="1.0" encoding="utf-8" standalone="no"?>
<!DOCTYPE svg PUBLIC "-//W3C//DTD SVG 1.1//EN"
  "http://www.w3.org/Graphics/SVG/1.1/DTD/svg11.dtd">
<svg xmlns:xlink="http://www.w3.org/1999/xlink" width="966.289393pt" height="555.541406pt" viewBox="0 0 966.289393 555.541406" xmlns="http://www.w3.org/2000/svg" version="1.1">
 <metadata>
  <rdf:RDF xmlns:dc="http://purl.org/dc/elements/1.1/" xmlns:cc="http://creativecommons.org/ns#" xmlns:rdf="http://www.w3.org/1999/02/22-rdf-syntax-ns#">
   <cc:Work>
    <dc:type rdf:resource="http://purl.org/dc/dcmitype/StillImage"/>
    <dc:date>2023-01-08T16:48:15.658399</dc:date>
    <dc:format>image/svg+xml</dc:format>
    <dc:creator>
     <cc:Agent>
      <dc:title>Matplotlib v3.6.2, https://matplotlib.org/</dc:title>
     </cc:Agent>
    </dc:creator>
   </cc:Work>
  </rdf:RDF>
 </metadata>
 <defs>
  <style type="text/css">*{stroke-linejoin: round; stroke-linecap: butt}</style>
 </defs>
 <g id="figure_1">
  <g id="patch_1">
   <path d="M 0 555.541406 
L 966.289393 555.541406 
L 966.289393 0 
L 0 0 
z
" style="fill: #ffffff"/>
  </g>
  <g id="axes_1">
   <g id="patch_2">
    <path d="M 58.998906 508.32 
L 951.798906 508.32 
L 951.798906 64.8 
L 58.998906 64.8 
z
" style="fill: #eaeaf2"/>
   </g>
   <g id="matplotlib.axis_1">
    <g id="xtick_1">
     <g id="line2d_1">
      <path d="M 121.608434 508.32 
L 121.608434 64.8 
" clip-path="url(#p61639fbbc1)" style="fill: none; stroke: #ffffff; stroke-linecap: round"/>
     </g>
     <g id="text_1">
      <!-- Fri 6 PM -->
      <g style="fill: #262626" transform="translate(100.831324 525.693594) scale(0.11 -0.11)">
       <defs>
        <path id="ArialMT-46" d="M 525 0 
L 525 4581 
L 3616 4581 
L 3616 4041 
L 1131 4041 
L 1131 2622 
L 3281 2622 
L 3281 2081 
L 1131 2081 
L 1131 0 
L 525 0 
z
" transform="scale(0.015625)"/>
        <path id="ArialMT-72" d="M 416 0 
L 416 3319 
L 922 3319 
L 922 2816 
Q 1116 3169 1280 3281 
Q 1444 3394 1641 3394 
Q 1925 3394 2219 3213 
L 2025 2691 
Q 1819 2813 1613 2813 
Q 1428 2813 1281 2702 
Q 1134 2591 1072 2394 
Q 978 2094 978 1738 
L 978 0 
L 416 0 
z
" transform="scale(0.015625)"/>
        <path id="ArialMT-69" d="M 425 3934 
L 425 4581 
L 988 4581 
L 988 3934 
L 425 3934 
z
M 425 0 
L 425 3319 
L 988 3319 
L 988 0 
L 425 0 
z
" transform="scale(0.015625)"/>
        <path id="ArialMT-20" transform="scale(0.015625)"/>
        <path id="ArialMT-36" d="M 3184 3459 
L 2625 3416 
Q 2550 3747 2413 3897 
Q 2184 4138 1850 4138 
Q 1581 4138 1378 3988 
Q 1113 3794 959 3422 
Q 806 3050 800 2363 
Q 1003 2672 1297 2822 
Q 1591 2972 1913 2972 
Q 2475 2972 2870 2558 
Q 3266 2144 3266 1488 
Q 3266 1056 3080 686 
Q 2894 316 2569 119 
Q 2244 -78 1831 -78 
Q 1128 -78 684 439 
Q 241 956 241 2144 
Q 241 3472 731 4075 
Q 1159 4600 1884 4600 
Q 2425 4600 2770 4297 
Q 3116 3994 3184 3459 
z
M 888 1484 
Q 888 1194 1011 928 
Q 1134 663 1356 523 
Q 1578 384 1822 384 
Q 2178 384 2434 671 
Q 2691 959 2691 1453 
Q 2691 1928 2437 2201 
Q 2184 2475 1800 2475 
Q 1419 2475 1153 2201 
Q 888 1928 888 1484 
z
" transform="scale(0.015625)"/>
        <path id="ArialMT-50" d="M 494 0 
L 494 4581 
L 2222 4581 
Q 2678 4581 2919 4538 
Q 3256 4481 3484 4323 
Q 3713 4166 3852 3881 
Q 3991 3597 3991 3256 
Q 3991 2672 3619 2267 
Q 3247 1863 2275 1863 
L 1100 1863 
L 1100 0 
L 494 0 
z
M 1100 2403 
L 2284 2403 
Q 2872 2403 3119 2622 
Q 3366 2841 3366 3238 
Q 3366 3525 3220 3729 
Q 3075 3934 2838 4000 
Q 2684 4041 2272 4041 
L 1100 4041 
L 1100 2403 
z
" transform="scale(0.015625)"/>
        <path id="ArialMT-4d" d="M 475 0 
L 475 4581 
L 1388 4581 
L 2472 1338 
Q 2622 884 2691 659 
Q 2769 909 2934 1394 
L 4031 4581 
L 4847 4581 
L 4847 0 
L 4263 0 
L 4263 3834 
L 2931 0 
L 2384 0 
L 1059 3900 
L 1059 0 
L 475 0 
z
" transform="scale(0.015625)"/>
       </defs>
       <use xlink:href="#ArialMT-46"/>
       <use xlink:href="#ArialMT-72" x="61.083984"/>
       <use xlink:href="#ArialMT-69" x="94.384766"/>
       <use xlink:href="#ArialMT-20" x="116.601562"/>
       <use xlink:href="#ArialMT-36" x="144.384766"/>
       <use xlink:href="#ArialMT-20" x="200"/>
       <use xlink:href="#ArialMT-50" x="227.783203"/>
       <use xlink:href="#ArialMT-4d" x="294.482422"/>
      </g>
     </g>
    </g>
    <g id="xtick_2">
     <g id="line2d_2">
      <path d="M 223.274784 508.32 
L 223.274784 64.8 
" clip-path="url(#p61639fbbc1)" style="fill: none; stroke: #ffffff; stroke-linecap: round"/>
     </g>
     <g id="text_2">
      <!-- Sat 12 AM -->
      <g style="fill: #262626" transform="translate(197.899159 525.693594) scale(0.11 -0.11)">
       <defs>
        <path id="ArialMT-53" d="M 288 1472 
L 859 1522 
Q 900 1178 1048 958 
Q 1197 738 1509 602 
Q 1822 466 2213 466 
Q 2559 466 2825 569 
Q 3091 672 3220 851 
Q 3350 1031 3350 1244 
Q 3350 1459 3225 1620 
Q 3100 1781 2813 1891 
Q 2628 1963 1997 2114 
Q 1366 2266 1113 2400 
Q 784 2572 623 2826 
Q 463 3081 463 3397 
Q 463 3744 659 4045 
Q 856 4347 1234 4503 
Q 1613 4659 2075 4659 
Q 2584 4659 2973 4495 
Q 3363 4331 3572 4012 
Q 3781 3694 3797 3291 
L 3216 3247 
Q 3169 3681 2898 3903 
Q 2628 4125 2100 4125 
Q 1550 4125 1298 3923 
Q 1047 3722 1047 3438 
Q 1047 3191 1225 3031 
Q 1400 2872 2139 2705 
Q 2878 2538 3153 2413 
Q 3553 2228 3743 1945 
Q 3934 1663 3934 1294 
Q 3934 928 3725 604 
Q 3516 281 3123 101 
Q 2731 -78 2241 -78 
Q 1619 -78 1198 103 
Q 778 284 539 648 
Q 300 1013 288 1472 
z
" transform="scale(0.015625)"/>
        <path id="ArialMT-61" d="M 2588 409 
Q 2275 144 1986 34 
Q 1697 -75 1366 -75 
Q 819 -75 525 192 
Q 231 459 231 875 
Q 231 1119 342 1320 
Q 453 1522 633 1644 
Q 813 1766 1038 1828 
Q 1203 1872 1538 1913 
Q 2219 1994 2541 2106 
Q 2544 2222 2544 2253 
Q 2544 2597 2384 2738 
Q 2169 2928 1744 2928 
Q 1347 2928 1158 2789 
Q 969 2650 878 2297 
L 328 2372 
Q 403 2725 575 2942 
Q 747 3159 1072 3276 
Q 1397 3394 1825 3394 
Q 2250 3394 2515 3294 
Q 2781 3194 2906 3042 
Q 3031 2891 3081 2659 
Q 3109 2516 3109 2141 
L 3109 1391 
Q 3109 606 3145 398 
Q 3181 191 3288 0 
L 2700 0 
Q 2613 175 2588 409 
z
M 2541 1666 
Q 2234 1541 1622 1453 
Q 1275 1403 1131 1340 
Q 988 1278 909 1158 
Q 831 1038 831 891 
Q 831 666 1001 516 
Q 1172 366 1500 366 
Q 1825 366 2078 508 
Q 2331 650 2450 897 
Q 2541 1088 2541 1459 
L 2541 1666 
z
" transform="scale(0.015625)"/>
        <path id="ArialMT-74" d="M 1650 503 
L 1731 6 
Q 1494 -44 1306 -44 
Q 1000 -44 831 53 
Q 663 150 594 308 
Q 525 466 525 972 
L 525 2881 
L 113 2881 
L 113 3319 
L 525 3319 
L 525 4141 
L 1084 4478 
L 1084 3319 
L 1650 3319 
L 1650 2881 
L 1084 2881 
L 1084 941 
Q 1084 700 1114 631 
Q 1144 563 1211 522 
Q 1278 481 1403 481 
Q 1497 481 1650 503 
z
" transform="scale(0.015625)"/>
        <path id="ArialMT-31" d="M 2384 0 
L 1822 0 
L 1822 3584 
Q 1619 3391 1289 3197 
Q 959 3003 697 2906 
L 697 3450 
Q 1169 3672 1522 3987 
Q 1875 4303 2022 4600 
L 2384 4600 
L 2384 0 
z
" transform="scale(0.015625)"/>
        <path id="ArialMT-32" d="M 3222 541 
L 3222 0 
L 194 0 
Q 188 203 259 391 
Q 375 700 629 1000 
Q 884 1300 1366 1694 
Q 2113 2306 2375 2664 
Q 2638 3022 2638 3341 
Q 2638 3675 2398 3904 
Q 2159 4134 1775 4134 
Q 1369 4134 1125 3890 
Q 881 3647 878 3216 
L 300 3275 
Q 359 3922 746 4261 
Q 1134 4600 1788 4600 
Q 2447 4600 2831 4234 
Q 3216 3869 3216 3328 
Q 3216 3053 3103 2787 
Q 2991 2522 2730 2228 
Q 2469 1934 1863 1422 
Q 1356 997 1212 845 
Q 1069 694 975 541 
L 3222 541 
z
" transform="scale(0.015625)"/>
        <path id="ArialMT-41" d="M -9 0 
L 1750 4581 
L 2403 4581 
L 4278 0 
L 3588 0 
L 3053 1388 
L 1138 1388 
L 634 0 
L -9 0 
z
M 1313 1881 
L 2866 1881 
L 2388 3150 
Q 2169 3728 2063 4100 
Q 1975 3659 1816 3225 
L 1313 1881 
z
" transform="scale(0.015625)"/>
       </defs>
       <use xlink:href="#ArialMT-53"/>
       <use xlink:href="#ArialMT-61" x="66.699219"/>
       <use xlink:href="#ArialMT-74" x="122.314453"/>
       <use xlink:href="#ArialMT-20" x="150.097656"/>
       <use xlink:href="#ArialMT-31" x="177.880859"/>
       <use xlink:href="#ArialMT-32" x="233.496094"/>
       <use xlink:href="#ArialMT-20" x="289.111328"/>
       <use xlink:href="#ArialMT-41" x="311.394531"/>
       <use xlink:href="#ArialMT-4d" x="378.09375"/>
      </g>
     </g>
    </g>
    <g id="xtick_3">
     <g id="line2d_3">
      <path d="M 324.941134 508.32 
L 324.941134 64.8 
" clip-path="url(#p61639fbbc1)" style="fill: none; stroke: #ffffff; stroke-linecap: round"/>
     </g>
     <g id="text_3">
      <!-- Sat 6 AM -->
      <g style="fill: #262626" transform="translate(302.624025 525.693594) scale(0.11 -0.11)">
       <use xlink:href="#ArialMT-53"/>
       <use xlink:href="#ArialMT-61" x="66.699219"/>
       <use xlink:href="#ArialMT-74" x="122.314453"/>
       <use xlink:href="#ArialMT-20" x="150.097656"/>
       <use xlink:href="#ArialMT-36" x="177.880859"/>
       <use xlink:href="#ArialMT-20" x="233.496094"/>
       <use xlink:href="#ArialMT-41" x="255.779297"/>
       <use xlink:href="#ArialMT-4d" x="322.478516"/>
      </g>
     </g>
    </g>
    <g id="xtick_4">
     <g id="line2d_4">
      <path d="M 426.607485 508.32 
L 426.607485 64.8 
" clip-path="url(#p61639fbbc1)" style="fill: none; stroke: #ffffff; stroke-linecap: round"/>
     </g>
     <g id="text_4">
      <!-- Sat 12 PM -->
      <g style="fill: #262626" transform="translate(400.92936 525.693594) scale(0.11 -0.11)">
       <use xlink:href="#ArialMT-53"/>
       <use xlink:href="#ArialMT-61" x="66.699219"/>
       <use xlink:href="#ArialMT-74" x="122.314453"/>
       <use xlink:href="#ArialMT-20" x="150.097656"/>
       <use xlink:href="#ArialMT-31" x="177.880859"/>
       <use xlink:href="#ArialMT-32" x="233.496094"/>
       <use xlink:href="#ArialMT-20" x="289.111328"/>
       <use xlink:href="#ArialMT-50" x="316.894531"/>
       <use xlink:href="#ArialMT-4d" x="383.59375"/>
      </g>
     </g>
    </g>
    <g id="xtick_5">
     <g id="line2d_5">
      <path d="M 528.273835 508.32 
L 528.273835 64.8 
" clip-path="url(#p61639fbbc1)" style="fill: none; stroke: #ffffff; stroke-linecap: round"/>
     </g>
     <g id="text_5">
      <!-- Sat 6 PM -->
      <g style="fill: #262626" transform="translate(505.654226 525.693594) scale(0.11 -0.11)">
       <use xlink:href="#ArialMT-53"/>
       <use xlink:href="#ArialMT-61" x="66.699219"/>
       <use xlink:href="#ArialMT-74" x="122.314453"/>
       <use xlink:href="#ArialMT-20" x="150.097656"/>
       <use xlink:href="#ArialMT-36" x="177.880859"/>
       <use xlink:href="#ArialMT-20" x="233.496094"/>
       <use xlink:href="#ArialMT-50" x="261.279297"/>
       <use xlink:href="#ArialMT-4d" x="327.978516"/>
      </g>
     </g>
    </g>
    <g id="xtick_6">
     <g id="line2d_6">
      <path d="M 629.940185 508.32 
L 629.940185 64.8 
" clip-path="url(#p61639fbbc1)" style="fill: none; stroke: #ffffff; stroke-linecap: round"/>
     </g>
     <g id="text_6">
      <!-- Sun 12 AM -->
      <g style="fill: #262626" transform="translate(603.034014 525.693594) scale(0.11 -0.11)">
       <defs>
        <path id="ArialMT-75" d="M 2597 0 
L 2597 488 
Q 2209 -75 1544 -75 
Q 1250 -75 995 37 
Q 741 150 617 320 
Q 494 491 444 738 
Q 409 903 409 1263 
L 409 3319 
L 972 3319 
L 972 1478 
Q 972 1038 1006 884 
Q 1059 663 1231 536 
Q 1403 409 1656 409 
Q 1909 409 2131 539 
Q 2353 669 2445 892 
Q 2538 1116 2538 1541 
L 2538 3319 
L 3100 3319 
L 3100 0 
L 2597 0 
z
" transform="scale(0.015625)"/>
        <path id="ArialMT-6e" d="M 422 0 
L 422 3319 
L 928 3319 
L 928 2847 
Q 1294 3394 1984 3394 
Q 2284 3394 2536 3286 
Q 2788 3178 2913 3003 
Q 3038 2828 3088 2588 
Q 3119 2431 3119 2041 
L 3119 0 
L 2556 0 
L 2556 2019 
Q 2556 2363 2490 2533 
Q 2425 2703 2258 2804 
Q 2091 2906 1866 2906 
Q 1506 2906 1245 2678 
Q 984 2450 984 1813 
L 984 0 
L 422 0 
z
" transform="scale(0.015625)"/>
       </defs>
       <use xlink:href="#ArialMT-53"/>
       <use xlink:href="#ArialMT-75" x="66.699219"/>
       <use xlink:href="#ArialMT-6e" x="122.314453"/>
       <use xlink:href="#ArialMT-20" x="177.929688"/>
       <use xlink:href="#ArialMT-31" x="205.712891"/>
       <use xlink:href="#ArialMT-32" x="261.328125"/>
       <use xlink:href="#ArialMT-20" x="316.943359"/>
       <use xlink:href="#ArialMT-41" x="339.226562"/>
       <use xlink:href="#ArialMT-4d" x="405.925781"/>
      </g>
     </g>
    </g>
    <g id="xtick_7">
     <g id="line2d_7">
      <path d="M 731.606536 508.32 
L 731.606536 64.8 
" clip-path="url(#p61639fbbc1)" style="fill: none; stroke: #ffffff; stroke-linecap: round"/>
     </g>
     <g id="text_7">
      <!-- Sun 6 AM -->
      <g style="fill: #262626" transform="translate(707.75888 525.693594) scale(0.11 -0.11)">
       <use xlink:href="#ArialMT-53"/>
       <use xlink:href="#ArialMT-75" x="66.699219"/>
       <use xlink:href="#ArialMT-6e" x="122.314453"/>
       <use xlink:href="#ArialMT-20" x="177.929688"/>
       <use xlink:href="#ArialMT-36" x="205.712891"/>
       <use xlink:href="#ArialMT-20" x="261.328125"/>
       <use xlink:href="#ArialMT-41" x="283.611328"/>
       <use xlink:href="#ArialMT-4d" x="350.310547"/>
      </g>
     </g>
    </g>
    <g id="xtick_8">
     <g id="line2d_8">
      <path d="M 833.272886 508.32 
L 833.272886 64.8 
" clip-path="url(#p61639fbbc1)" style="fill: none; stroke: #ffffff; stroke-linecap: round"/>
     </g>
     <g id="text_8">
      <!-- Sun 12 PM -->
      <g style="fill: #262626" transform="translate(806.064214 525.693594) scale(0.11 -0.11)">
       <use xlink:href="#ArialMT-53"/>
       <use xlink:href="#ArialMT-75" x="66.699219"/>
       <use xlink:href="#ArialMT-6e" x="122.314453"/>
       <use xlink:href="#ArialMT-20" x="177.929688"/>
       <use xlink:href="#ArialMT-31" x="205.712891"/>
       <use xlink:href="#ArialMT-32" x="261.328125"/>
       <use xlink:href="#ArialMT-20" x="316.943359"/>
       <use xlink:href="#ArialMT-50" x="344.726562"/>
       <use xlink:href="#ArialMT-4d" x="411.425781"/>
      </g>
     </g>
    </g>
    <g id="xtick_9">
     <g id="line2d_9">
      <path d="M 934.939236 508.32 
L 934.939236 64.8 
" clip-path="url(#p61639fbbc1)" style="fill: none; stroke: #ffffff; stroke-linecap: round"/>
     </g>
     <g id="text_9">
      <!-- Sun 6 PM -->
      <g style="fill: #262626" transform="translate(910.78908 525.693594) scale(0.11 -0.11)">
       <use xlink:href="#ArialMT-53"/>
       <use xlink:href="#ArialMT-75" x="66.699219"/>
       <use xlink:href="#ArialMT-6e" x="122.314453"/>
       <use xlink:href="#ArialMT-20" x="177.929688"/>
       <use xlink:href="#ArialMT-36" x="205.712891"/>
       <use xlink:href="#ArialMT-20" x="261.328125"/>
       <use xlink:href="#ArialMT-50" x="289.111328"/>
       <use xlink:href="#ArialMT-4d" x="355.810547"/>
      </g>
     </g>
    </g>
    <g id="text_10">
     <!-- Time -->
     <g style="fill: #262626" transform="translate(485.738125 544.763906) scale(0.18 -0.18)">
      <defs>
       <path id="ArialMT-54" d="M 1659 0 
L 1659 4041 
L 150 4041 
L 150 4581 
L 3781 4581 
L 3781 4041 
L 2266 4041 
L 2266 0 
L 1659 0 
z
" transform="scale(0.015625)"/>
       <path id="ArialMT-6d" d="M 422 0 
L 422 3319 
L 925 3319 
L 925 2853 
Q 1081 3097 1340 3245 
Q 1600 3394 1931 3394 
Q 2300 3394 2536 3241 
Q 2772 3088 2869 2813 
Q 3263 3394 3894 3394 
Q 4388 3394 4653 3120 
Q 4919 2847 4919 2278 
L 4919 0 
L 4359 0 
L 4359 2091 
Q 4359 2428 4304 2576 
Q 4250 2725 4106 2815 
Q 3963 2906 3769 2906 
Q 3419 2906 3187 2673 
Q 2956 2441 2956 1928 
L 2956 0 
L 2394 0 
L 2394 2156 
Q 2394 2531 2256 2718 
Q 2119 2906 1806 2906 
Q 1569 2906 1367 2781 
Q 1166 2656 1075 2415 
Q 984 2175 984 1722 
L 984 0 
L 422 0 
z
" transform="scale(0.015625)"/>
       <path id="ArialMT-65" d="M 2694 1069 
L 3275 997 
Q 3138 488 2766 206 
Q 2394 -75 1816 -75 
Q 1088 -75 661 373 
Q 234 822 234 1631 
Q 234 2469 665 2931 
Q 1097 3394 1784 3394 
Q 2450 3394 2872 2941 
Q 3294 2488 3294 1666 
Q 3294 1616 3291 1516 
L 816 1516 
Q 847 969 1125 678 
Q 1403 388 1819 388 
Q 2128 388 2347 550 
Q 2566 713 2694 1069 
z
M 847 1978 
L 2700 1978 
Q 2663 2397 2488 2606 
Q 2219 2931 1791 2931 
Q 1403 2931 1139 2672 
Q 875 2413 847 1978 
z
" transform="scale(0.015625)"/>
      </defs>
      <use xlink:href="#ArialMT-54"/>
      <use xlink:href="#ArialMT-69" x="57.333984"/>
      <use xlink:href="#ArialMT-6d" x="79.550781"/>
      <use xlink:href="#ArialMT-65" x="162.851562"/>
     </g>
    </g>
   </g>
   <g id="matplotlib.axis_2">
    <g id="ytick_1">
     <g id="line2d_10">
      <path d="M 58.998906 473.226667 
L 951.798906 473.226667 
" clip-path="url(#p61639fbbc1)" style="fill: none; stroke: #ffffff; stroke-linecap: round"/>
     </g>
     <g id="text_11">
      <!-- 41.5 -->
      <g style="fill: #262626" transform="translate(28.091875 477.163464) scale(0.11 -0.11)">
       <defs>
        <path id="ArialMT-34" d="M 2069 0 
L 2069 1097 
L 81 1097 
L 81 1613 
L 2172 4581 
L 2631 4581 
L 2631 1613 
L 3250 1613 
L 3250 1097 
L 2631 1097 
L 2631 0 
L 2069 0 
z
M 2069 1613 
L 2069 3678 
L 634 1613 
L 2069 1613 
z
" transform="scale(0.015625)"/>
        <path id="ArialMT-2e" d="M 581 0 
L 581 641 
L 1222 641 
L 1222 0 
L 581 0 
z
" transform="scale(0.015625)"/>
        <path id="ArialMT-35" d="M 266 1200 
L 856 1250 
Q 922 819 1161 601 
Q 1400 384 1738 384 
Q 2144 384 2425 690 
Q 2706 997 2706 1503 
Q 2706 1984 2436 2262 
Q 2166 2541 1728 2541 
Q 1456 2541 1237 2417 
Q 1019 2294 894 2097 
L 366 2166 
L 809 4519 
L 3088 4519 
L 3088 3981 
L 1259 3981 
L 1013 2750 
Q 1425 3038 1878 3038 
Q 2478 3038 2890 2622 
Q 3303 2206 3303 1553 
Q 3303 931 2941 478 
Q 2500 -78 1738 -78 
Q 1113 -78 717 272 
Q 322 622 266 1200 
z
" transform="scale(0.015625)"/>
       </defs>
       <use xlink:href="#ArialMT-34"/>
       <use xlink:href="#ArialMT-31" x="55.615234"/>
       <use xlink:href="#ArialMT-2e" x="111.230469"/>
       <use xlink:href="#ArialMT-35" x="139.013672"/>
      </g>
     </g>
    </g>
    <g id="ytick_2">
     <g id="line2d_11">
      <path d="M 58.998906 398.56 
L 951.798906 398.56 
" clip-path="url(#p61639fbbc1)" style="fill: none; stroke: #ffffff; stroke-linecap: round"/>
     </g>
     <g id="text_12">
      <!-- 42.0 -->
      <g style="fill: #262626" transform="translate(28.091875 402.496797) scale(0.11 -0.11)">
       <defs>
        <path id="ArialMT-30" d="M 266 2259 
Q 266 3072 433 3567 
Q 600 4063 929 4331 
Q 1259 4600 1759 4600 
Q 2128 4600 2406 4451 
Q 2684 4303 2865 4023 
Q 3047 3744 3150 3342 
Q 3253 2941 3253 2259 
Q 3253 1453 3087 958 
Q 2922 463 2592 192 
Q 2263 -78 1759 -78 
Q 1097 -78 719 397 
Q 266 969 266 2259 
z
M 844 2259 
Q 844 1131 1108 757 
Q 1372 384 1759 384 
Q 2147 384 2411 759 
Q 2675 1134 2675 2259 
Q 2675 3391 2411 3762 
Q 2147 4134 1753 4134 
Q 1366 4134 1134 3806 
Q 844 3388 844 2259 
z
" transform="scale(0.015625)"/>
       </defs>
       <use xlink:href="#ArialMT-34"/>
       <use xlink:href="#ArialMT-32" x="55.615234"/>
       <use xlink:href="#ArialMT-2e" x="111.230469"/>
       <use xlink:href="#ArialMT-30" x="139.013672"/>
      </g>
     </g>
    </g>
    <g id="ytick_3">
     <g id="line2d_12">
      <path d="M 58.998906 323.893333 
L 951.798906 323.893333 
" clip-path="url(#p61639fbbc1)" style="fill: none; stroke: #ffffff; stroke-linecap: round"/>
     </g>
     <g id="text_13">
      <!-- 42.5 -->
      <g style="fill: #262626" transform="translate(28.091875 327.83013) scale(0.11 -0.11)">
       <use xlink:href="#ArialMT-34"/>
       <use xlink:href="#ArialMT-32" x="55.615234"/>
       <use xlink:href="#ArialMT-2e" x="111.230469"/>
       <use xlink:href="#ArialMT-35" x="139.013672"/>
      </g>
     </g>
    </g>
    <g id="ytick_4">
     <g id="line2d_13">
      <path d="M 58.998906 249.226667 
L 951.798906 249.226667 
" clip-path="url(#p61639fbbc1)" style="fill: none; stroke: #ffffff; stroke-linecap: round"/>
     </g>
     <g id="text_14">
      <!-- 43.0 -->
      <g style="fill: #262626" transform="translate(28.091875 253.163464) scale(0.11 -0.11)">
       <defs>
        <path id="ArialMT-33" d="M 269 1209 
L 831 1284 
Q 928 806 1161 595 
Q 1394 384 1728 384 
Q 2125 384 2398 659 
Q 2672 934 2672 1341 
Q 2672 1728 2419 1979 
Q 2166 2231 1775 2231 
Q 1616 2231 1378 2169 
L 1441 2663 
Q 1497 2656 1531 2656 
Q 1891 2656 2178 2843 
Q 2466 3031 2466 3422 
Q 2466 3731 2256 3934 
Q 2047 4138 1716 4138 
Q 1388 4138 1169 3931 
Q 950 3725 888 3313 
L 325 3413 
Q 428 3978 793 4289 
Q 1159 4600 1703 4600 
Q 2078 4600 2393 4439 
Q 2709 4278 2876 4000 
Q 3044 3722 3044 3409 
Q 3044 3113 2884 2869 
Q 2725 2625 2413 2481 
Q 2819 2388 3044 2092 
Q 3269 1797 3269 1353 
Q 3269 753 2831 336 
Q 2394 -81 1725 -81 
Q 1122 -81 723 278 
Q 325 638 269 1209 
z
" transform="scale(0.015625)"/>
       </defs>
       <use xlink:href="#ArialMT-34"/>
       <use xlink:href="#ArialMT-33" x="55.615234"/>
       <use xlink:href="#ArialMT-2e" x="111.230469"/>
       <use xlink:href="#ArialMT-30" x="139.013672"/>
      </g>
     </g>
    </g>
    <g id="ytick_5">
     <g id="line2d_14">
      <path d="M 58.998906 174.56 
L 951.798906 174.56 
" clip-path="url(#p61639fbbc1)" style="fill: none; stroke: #ffffff; stroke-linecap: round"/>
     </g>
     <g id="text_15">
      <!-- 43.5 -->
      <g style="fill: #262626" transform="translate(28.091875 178.496797) scale(0.11 -0.11)">
       <use xlink:href="#ArialMT-34"/>
       <use xlink:href="#ArialMT-33" x="55.615234"/>
       <use xlink:href="#ArialMT-2e" x="111.230469"/>
       <use xlink:href="#ArialMT-35" x="139.013672"/>
      </g>
     </g>
    </g>
    <g id="ytick_6">
     <g id="line2d_15">
      <path d="M 58.998906 99.893333 
L 951.798906 99.893333 
" clip-path="url(#p61639fbbc1)" style="fill: none; stroke: #ffffff; stroke-linecap: round"/>
     </g>
     <g id="text_16">
      <!-- 44.0 -->
      <g style="fill: #262626" transform="translate(28.091875 103.83013) scale(0.11 -0.11)">
       <use xlink:href="#ArialMT-34"/>
       <use xlink:href="#ArialMT-34" x="55.615234"/>
       <use xlink:href="#ArialMT-2e" x="111.230469"/>
       <use xlink:href="#ArialMT-30" x="139.013672"/>
      </g>
     </g>
    </g>
    <g id="text_17">
     <!-- Water Temp (°F) -->
     <g style="fill: #262626" transform="translate(20.303438 352.15875) rotate(-90) scale(0.18 -0.18)">
      <defs>
       <path id="ArialMT-57" d="M 1294 0 
L 78 4581 
L 700 4581 
L 1397 1578 
Q 1509 1106 1591 641 
Q 1766 1375 1797 1488 
L 2669 4581 
L 3400 4581 
L 4056 2263 
Q 4303 1400 4413 641 
Q 4500 1075 4641 1638 
L 5359 4581 
L 5969 4581 
L 4713 0 
L 4128 0 
L 3163 3491 
Q 3041 3928 3019 4028 
Q 2947 3713 2884 3491 
L 1913 0 
L 1294 0 
z
" transform="scale(0.015625)"/>
       <path id="ArialMT-70" d="M 422 -1272 
L 422 3319 
L 934 3319 
L 934 2888 
Q 1116 3141 1344 3267 
Q 1572 3394 1897 3394 
Q 2322 3394 2647 3175 
Q 2972 2956 3137 2557 
Q 3303 2159 3303 1684 
Q 3303 1175 3120 767 
Q 2938 359 2589 142 
Q 2241 -75 1856 -75 
Q 1575 -75 1351 44 
Q 1128 163 984 344 
L 984 -1272 
L 422 -1272 
z
M 931 1641 
Q 931 1000 1190 694 
Q 1450 388 1819 388 
Q 2194 388 2461 705 
Q 2728 1022 2728 1688 
Q 2728 2322 2467 2637 
Q 2206 2953 1844 2953 
Q 1484 2953 1207 2617 
Q 931 2281 931 1641 
z
" transform="scale(0.015625)"/>
       <path id="ArialMT-28" d="M 1497 -1347 
Q 1031 -759 709 28 
Q 388 816 388 1659 
Q 388 2403 628 3084 
Q 909 3875 1497 4659 
L 1900 4659 
Q 1522 4009 1400 3731 
Q 1209 3300 1100 2831 
Q 966 2247 966 1656 
Q 966 153 1900 -1347 
L 1497 -1347 
z
" transform="scale(0.015625)"/>
       <path id="ArialMT-b0" d="M 400 3794 
Q 400 4153 654 4406 
Q 909 4659 1266 4659 
Q 1628 4659 1881 4406 
Q 2134 4153 2134 3794 
Q 2134 3434 1879 3179 
Q 1625 2925 1266 2925 
Q 909 2925 654 3178 
Q 400 3431 400 3794 
z
M 741 3794 
Q 741 3575 895 3420 
Q 1050 3266 1269 3266 
Q 1484 3266 1639 3420 
Q 1794 3575 1794 3794 
Q 1794 4013 1639 4167 
Q 1484 4322 1269 4322 
Q 1050 4322 895 4167 
Q 741 4013 741 3794 
z
" transform="scale(0.015625)"/>
       <path id="ArialMT-29" d="M 791 -1347 
L 388 -1347 
Q 1322 153 1322 1656 
Q 1322 2244 1188 2822 
Q 1081 3291 891 3722 
Q 769 4003 388 4659 
L 791 4659 
Q 1378 3875 1659 3084 
Q 1900 2403 1900 1659 
Q 1900 816 1576 28 
Q 1253 -759 791 -1347 
z
" transform="scale(0.015625)"/>
      </defs>
      <use xlink:href="#ArialMT-57"/>
      <use xlink:href="#ArialMT-61" x="90.634766"/>
      <use xlink:href="#ArialMT-74" x="146.25"/>
      <use xlink:href="#ArialMT-65" x="174.033203"/>
      <use xlink:href="#ArialMT-72" x="229.648438"/>
      <use xlink:href="#ArialMT-20" x="262.949219"/>
      <use xlink:href="#ArialMT-54" x="288.982422"/>
      <use xlink:href="#ArialMT-65" x="338.941406"/>
      <use xlink:href="#ArialMT-6d" x="394.556641"/>
      <use xlink:href="#ArialMT-70" x="477.857422"/>
      <use xlink:href="#ArialMT-20" x="533.472656"/>
      <use xlink:href="#ArialMT-28" x="561.255859"/>
      <use xlink:href="#ArialMT-b0" x="594.556641"/>
      <use xlink:href="#ArialMT-46" x="634.546875"/>
      <use xlink:href="#ArialMT-29" x="695.630859"/>
     </g>
    </g>
   </g>
   <g id="PolyCollection_1"/>
   <g id="PolyCollection_2"/>
   <g id="line2d_16">
    <path d="M 99.580724 204.426667 
L 102.969603 144.693333 
L 104.664042 204.426667 
L 106.358481 174.56 
L 108.05292 174.56 
L 109.747359 204.426667 
L 111.441799 204.426667 
L 113.136238 249.226667 
L 114.830677 249.226667 
L 116.525116 219.36 
L 118.219555 174.56 
L 119.913995 204.426667 
L 121.608434 174.56 
L 123.302873 114.826667 
L 124.997312 144.693333 
L 128.38619 144.693333 
L 130.08063 174.56 
L 133.469508 174.56 
L 135.163947 204.426667 
L 141.941704 204.426667 
L 143.636143 219.36 
L 152.108339 219.36 
L 153.802778 249.226667 
L 155.497217 249.226667 
L 157.191656 219.36 
L 160.580535 219.36 
L 162.274974 204.426667 
L 163.969413 174.56 
L 165.663852 204.426667 
L 167.358291 219.36 
L 169.052731 174.56 
L 170.74717 84.96 
L 172.441609 204.426667 
L 174.136048 144.693333 
L 175.830487 204.426667 
L 177.524926 219.36 
L 179.219366 279.093333 
L 180.913805 308.96 
L 182.608244 249.226667 
L 185.997122 308.96 
L 187.691561 279.093333 
L 189.386001 353.76 
L 191.08044 308.96 
L 196.163757 308.96 
L 197.858196 383.626667 
L 199.552636 338.826667 
L 202.941514 338.826667 
L 204.635953 353.76 
L 206.330392 338.826667 
L 208.024831 279.093333 
L 209.719271 308.96 
L 211.41371 383.626667 
L 214.802588 383.626667 
L 216.497027 338.826667 
L 218.191467 308.96 
L 219.885906 353.76 
L 221.580345 338.826667 
L 223.274784 308.96 
L 224.969223 308.96 
L 228.358102 249.226667 
L 230.052541 279.093333 
L 231.74698 249.226667 
L 241.913615 249.226667 
L 243.608054 219.36 
L 246.996932 219.36 
L 248.691372 204.426667 
L 250.385811 249.226667 
L 252.08025 279.093333 
L 255.469128 219.36 
L 257.163567 219.36 
L 260.552446 279.093333 
L 262.246885 249.226667 
L 265.635763 249.226667 
L 269.024642 308.96 
L 272.41352 308.96 
L 274.107959 279.093333 
L 275.802398 279.093333 
L 277.496838 219.36 
L 280.885716 279.093333 
L 282.580155 219.36 
L 284.274594 219.36 
L 289.357912 308.96 
L 291.052351 308.96 
L 292.74679 338.826667 
L 294.441229 353.76 
L 296.135668 338.826667 
L 297.830108 308.96 
L 302.913425 308.96 
L 304.607864 338.826667 
L 306.302303 308.96 
L 307.996743 308.96 
L 309.691182 279.093333 
L 316.468939 279.093333 
L 318.163378 249.226667 
L 319.857817 204.426667 
L 321.552256 204.426667 
L 323.246695 174.56 
L 324.941134 219.36 
L 328.330013 279.093333 
L 330.024452 279.093333 
L 331.718891 308.96 
L 333.41333 249.226667 
L 335.107769 279.093333 
L 338.496648 279.093333 
L 340.191087 249.226667 
L 341.885526 308.96 
L 343.579965 308.96 
L 345.274404 279.093333 
L 346.968844 219.36 
L 348.663283 204.426667 
L 350.357722 219.36 
L 355.441039 219.36 
L 357.135479 249.226667 
L 360.524357 249.226667 
L 362.218796 219.36 
L 363.913235 144.693333 
L 365.607675 114.826667 
L 367.302114 114.826667 
L 368.996553 174.56 
L 370.690992 204.426667 
L 374.07987 204.426667 
L 375.77431 174.56 
L 380.857627 174.56 
L 382.552066 204.426667 
L 389.329823 204.426667 
L 391.024262 219.36 
L 396.10758 219.36 
L 397.802019 249.226667 
L 399.496458 219.36 
L 401.190897 219.36 
L 402.885336 204.426667 
L 406.274215 204.426667 
L 407.968654 219.36 
L 409.663093 308.96 
L 414.746411 219.36 
L 418.135289 279.093333 
L 419.829728 204.426667 
L 421.524167 249.226667 
L 423.218606 219.36 
L 424.913046 219.36 
L 426.607485 308.96 
L 428.301924 249.226667 
L 429.996363 249.226667 
L 431.690802 219.36 
L 433.385241 219.36 
L 435.079681 249.226667 
L 443.551876 249.226667 
L 445.246316 219.36 
L 446.940755 249.226667 
L 448.635194 219.36 
L 450.329633 249.226667 
L 452.024072 219.36 
L 453.718511 279.093333 
L 460.496268 279.093333 
L 462.190707 249.226667 
L 467.274025 249.226667 
L 468.968464 219.36 
L 474.051782 219.36 
L 475.746221 249.226667 
L 477.44066 219.36 
L 479.135099 219.36 
L 480.829538 308.96 
L 484.218417 249.226667 
L 487.607295 249.226667 
L 489.301734 279.093333 
L 490.996173 219.36 
L 492.690612 249.226667 
L 494.385052 219.36 
L 496.079491 279.093333 
L 497.77393 249.226667 
L 513.023883 249.226667 
L 514.718322 219.36 
L 516.412761 219.36 
L 518.1072 279.093333 
L 519.801639 308.96 
L 521.496078 279.093333 
L 523.190518 308.96 
L 526.579396 249.226667 
L 528.273835 279.093333 
L 529.968274 338.826667 
L 531.662713 338.826667 
L 535.051592 219.36 
L 536.746031 204.426667 
L 538.44047 144.693333 
L 540.134909 174.56 
L 541.829348 174.56 
L 543.523788 204.426667 
L 545.218227 174.56 
L 546.912666 204.426667 
L 548.607105 204.426667 
L 550.301544 219.36 
L 553.690423 219.36 
L 555.384862 249.226667 
L 563.857058 249.226667 
L 565.551497 279.093333 
L 567.245936 279.093333 
L 568.940375 308.96 
L 574.023693 219.36 
L 575.718132 219.36 
L 577.412571 204.426667 
L 579.10701 174.56 
L 580.801449 204.426667 
L 582.495889 144.693333 
L 584.190328 174.56 
L 589.273645 174.56 
L 590.968084 204.426667 
L 592.662524 204.426667 
L 594.356963 219.36 
L 596.051402 249.226667 
L 597.745841 204.426667 
L 599.44028 204.426667 
L 601.134719 219.36 
L 602.829159 249.226667 
L 604.523598 308.96 
L 606.218037 383.626667 
L 607.912476 353.76 
L 609.606915 383.626667 
L 611.301355 383.626667 
L 614.690233 443.36 
L 616.384672 488.16 
L 618.079111 443.36 
L 619.77355 443.36 
L 621.46799 473.226667 
L 623.162429 443.36 
L 624.856868 443.36 
L 626.551307 488.16 
L 628.245746 488.16 
L 629.940185 383.626667 
L 631.634625 413.493333 
L 633.329064 488.16 
L 636.717942 338.826667 
L 638.412381 338.826667 
L 640.10682 353.76 
L 641.80126 383.626667 
L 645.190138 383.626667 
L 646.884577 308.96 
L 650.273455 308.96 
L 651.967895 338.826667 
L 653.662334 338.826667 
L 655.356773 308.96 
L 660.440091 308.96 
L 662.13453 279.093333 
L 663.828969 308.96 
L 665.523408 308.96 
L 667.217847 279.093333 
L 668.912286 338.826667 
L 670.606726 338.826667 
L 673.995604 279.093333 
L 675.690043 279.093333 
L 677.384482 353.76 
L 679.078921 383.626667 
L 680.773361 308.96 
L 682.4678 353.76 
L 684.162239 353.76 
L 685.856678 279.093333 
L 687.551117 353.76 
L 689.245556 353.76 
L 690.939996 338.826667 
L 697.717752 338.826667 
L 699.412192 308.96 
L 704.495509 308.96 
L 706.189948 338.826667 
L 707.884387 353.76 
L 709.578827 338.826667 
L 711.273266 353.76 
L 712.967705 308.96 
L 714.662144 279.093333 
L 718.051022 338.826667 
L 721.439901 338.826667 
L 723.13434 353.76 
L 728.217657 353.76 
L 729.912097 383.626667 
L 731.606536 353.76 
L 733.300975 413.493333 
L 734.995414 308.96 
L 740.078732 219.36 
L 743.46761 219.36 
L 745.162049 249.226667 
L 746.856488 219.36 
L 748.550928 308.96 
L 750.245367 338.826667 
L 751.939806 279.093333 
L 755.328684 279.093333 
L 757.023123 308.96 
L 758.717563 279.093333 
L 762.106441 279.093333 
L 763.80088 249.226667 
L 768.884198 249.226667 
L 770.578637 219.36 
L 779.050833 219.36 
L 780.745272 204.426667 
L 784.13415 84.96 
L 787.523028 144.693333 
L 789.217468 204.426667 
L 790.911907 174.56 
L 795.995224 174.56 
L 797.689664 204.426667 
L 799.384103 204.426667 
L 801.078542 219.36 
L 802.772981 249.226667 
L 809.550738 249.226667 
L 811.245177 204.426667 
L 812.939616 219.36 
L 816.328494 219.36 
L 818.022934 204.426667 
L 823.106251 204.426667 
L 824.80069 174.56 
L 826.495129 174.56 
L 828.189569 219.36 
L 829.884008 249.226667 
L 831.578447 204.426667 
L 833.272886 308.96 
L 836.661764 249.226667 
L 838.356204 204.426667 
L 840.050643 249.226667 
L 841.745082 279.093333 
L 843.439521 279.093333 
L 845.13396 338.826667 
L 846.8284 279.093333 
L 850.217278 279.093333 
L 851.911717 249.226667 
L 853.606156 279.093333 
L 855.300595 279.093333 
L 856.995035 249.226667 
L 860.383913 249.226667 
L 862.078352 279.093333 
L 863.772791 249.226667 
L 867.16167 249.226667 
L 868.856109 279.093333 
L 870.550548 279.093333 
L 872.244987 308.96 
L 879.022744 308.96 
L 880.717183 279.093333 
L 887.49494 279.093333 
L 889.189379 249.226667 
L 890.883818 279.093333 
L 892.578257 338.826667 
L 894.272696 308.96 
L 895.967136 338.826667 
L 897.661575 338.826667 
L 899.356014 279.093333 
L 901.050453 249.226667 
L 902.744892 308.96 
L 904.439331 353.76 
L 906.133771 308.96 
L 907.82821 308.96 
L 909.522649 338.826667 
L 911.217088 249.226667 
L 911.217088 249.226667 
" clip-path="url(#p61639fbbc1)" style="fill: none; stroke: #4c72b0; stroke-width: 1.5; stroke-linecap: round"/>
   </g>
   <g id="line2d_17">
    <path d="M 99.580724 190.986667 
L 101.275164 191.733333 
L 102.969603 191.733333 
L 104.664042 193.226667 
L 106.358481 193.226667 
L 108.05292 190.24 
L 118.219555 181.28 
L 119.913995 182.773333 
L 121.608434 185.76 
L 123.302873 185.76 
L 126.691751 188.746667 
L 130.08063 190.24 
L 133.469508 187.253333 
L 135.163947 187.253333 
L 138.552825 191.733333 
L 140.247265 195.466667 
L 141.941704 200.693333 
L 145.330582 208.16 
L 147.025021 211.146667 
L 148.71946 211.146667 
L 150.4139 212.64 
L 152.108339 214.88 
L 153.802778 213.386667 
L 155.497217 207.413333 
L 157.191656 207.413333 
L 158.886095 204.426667 
L 162.274974 204.426667 
L 163.969413 207.413333 
L 165.663852 211.893333 
L 167.358291 213.386667 
L 169.052731 216.373333 
L 170.74717 220.853333 
L 172.441609 222.346667 
L 174.136048 227.573333 
L 179.219366 241.013333 
L 180.913805 246.24 
L 182.608244 256.693333 
L 184.302683 263.413333 
L 185.997122 269.386667 
L 187.691561 277.6 
L 189.386001 291.04 
L 192.774879 304.48 
L 194.469318 309.706667 
L 196.163757 317.92 
L 197.858196 323.146667 
L 199.552636 326.88 
L 201.247075 331.36 
L 202.941514 332.853333 
L 204.635953 335.093333 
L 206.330392 338.08 
L 208.024831 335.84 
L 209.719271 335.84 
L 211.41371 334.346667 
L 213.108149 331.36 
L 214.802588 329.866667 
L 216.497027 323.146667 
L 221.580345 309.706667 
L 223.274784 304.48 
L 224.969223 300 
L 226.663662 298.506667 
L 228.358102 294.026667 
L 231.74698 277.6 
L 233.441419 268.64 
L 235.135858 264.16 
L 236.830297 262.666667 
L 238.524737 257.44 
L 240.219176 251.466667 
L 241.913615 246.986667 
L 243.608054 244 
L 246.996932 244 
L 248.691372 242.506667 
L 250.385811 242.506667 
L 252.08025 244 
L 257.163567 252.96 
L 260.552446 255.946667 
L 262.246885 255.946667 
L 263.941324 257.44 
L 265.635763 260.426667 
L 267.330203 261.173333 
L 270.719081 258.186667 
L 272.41352 259.68 
L 277.496838 273.12 
L 279.191277 276.853333 
L 280.885716 281.333333 
L 284.274594 287.306667 
L 285.969033 288.8 
L 287.663473 288.8 
L 289.357912 290.293333 
L 291.052351 290.293333 
L 292.74679 291.786667 
L 294.441229 291.786667 
L 296.135668 294.773333 
L 297.830108 296.266667 
L 299.524547 296.266667 
L 301.218986 299.253333 
L 302.913425 300.746667 
L 304.607864 298.506667 
L 306.302303 294.773333 
L 307.996743 288.053333 
L 311.385621 279.093333 
L 313.08006 275.36 
L 314.774499 272.373333 
L 316.468939 272.373333 
L 318.163378 269.386667 
L 321.552256 266.4 
L 324.941134 260.426667 
L 326.635574 260.426667 
L 328.330013 261.92 
L 330.024452 261.92 
L 331.718891 258.933333 
L 333.41333 255.2 
L 335.107769 252.213333 
L 336.802209 250.72 
L 340.191087 252.213333 
L 341.885526 255.946667 
L 343.579965 257.44 
L 345.274404 257.44 
L 346.968844 254.453333 
L 348.663283 247.733333 
L 350.357722 238.026667 
L 352.052161 231.306667 
L 353.7466 226.08 
L 357.135479 218.613333 
L 358.829918 216.373333 
L 362.218796 202.933333 
L 363.913235 197.706667 
L 365.607675 195.466667 
L 367.302114 195.466667 
L 374.07987 192.48 
L 379.163188 188 
L 380.857627 188 
L 385.940945 203.68 
L 387.635384 205.173333 
L 391.024262 205.173333 
L 392.718701 205.92 
L 394.41314 212.64 
L 396.10758 217.866667 
L 397.802019 221.6 
L 401.190897 226.08 
L 402.885336 229.813333 
L 404.579775 229.813333 
L 406.274215 232.053333 
L 407.968654 232.8 
L 409.663093 232.8 
L 411.357532 237.28 
L 414.746411 240.266667 
L 416.44085 238.773333 
L 418.135289 238.773333 
L 419.829728 240.266667 
L 424.913046 246.986667 
L 426.607485 248.48 
L 429.996363 242.506667 
L 435.079681 242.506667 
L 436.77412 239.52 
L 438.468559 243.253333 
L 440.162998 244.746667 
L 443.551876 250.72 
L 445.246316 249.226667 
L 448.635194 249.226667 
L 452.024072 252.213333 
L 458.801829 246.24 
L 460.496268 246.24 
L 462.190707 244.746667 
L 463.885147 244.746667 
L 467.274025 250.72 
L 468.968464 250.72 
L 470.662903 252.213333 
L 472.357342 250.72 
L 474.051782 250.72 
L 475.746221 247.733333 
L 477.44066 246.24 
L 479.135099 243.253333 
L 480.829538 244.746667 
L 485.912856 244.746667 
L 492.690612 250.72 
L 494.385052 250.72 
L 497.77393 253.706667 
L 499.468369 249.226667 
L 501.162808 246.24 
L 502.857247 247.733333 
L 504.551687 250.72 
L 507.940565 253.706667 
L 509.635004 256.693333 
L 511.329443 256.693333 
L 514.718322 262.666667 
L 516.412761 267.146667 
L 518.1072 268.64 
L 519.801639 267.146667 
L 521.496078 264.906667 
L 523.190518 259.68 
L 526.579396 252.213333 
L 528.273835 249.973333 
L 529.968274 246.24 
L 531.662713 244 
L 533.357153 243.253333 
L 535.051592 243.253333 
L 536.746031 240.266667 
L 538.44047 235.786667 
L 540.134909 234.293333 
L 541.829348 231.306667 
L 543.523788 229.813333 
L 545.218227 229.813333 
L 546.912666 228.32 
L 548.607105 223.84 
L 550.301544 220.853333 
L 551.995983 220.853333 
L 553.690423 225.333333 
L 555.384862 229.066667 
L 557.079301 234.293333 
L 560.468179 238.773333 
L 565.551497 238.773333 
L 567.245936 235.786667 
L 572.329254 229.066667 
L 574.023693 225.333333 
L 577.412571 220.853333 
L 579.10701 219.36 
L 580.801449 219.36 
L 582.495889 217.12 
L 584.190328 213.386667 
L 587.579206 207.413333 
L 589.273645 208.906667 
L 592.662524 222.346667 
L 594.356963 230.56 
L 596.051402 239.52 
L 599.44028 263.413333 
L 601.134719 280.586667 
L 604.523598 307.466667 
L 606.218037 322.4 
L 607.912476 335.84 
L 609.606915 347.786667 
L 612.995794 375.413333 
L 614.690233 382.133333 
L 616.384672 392.586667 
L 618.079111 406.773333 
L 619.77355 416.48 
L 621.46799 420.96 
L 623.162429 422.453333 
L 624.856868 420.96 
L 626.551307 422.453333 
L 629.940185 422.453333 
L 631.634625 417.226667 
L 633.329064 410.506667 
L 635.023503 401.546667 
L 638.412381 391.093333 
L 640.10682 382.88 
L 643.495699 369.44 
L 645.190138 360.48 
L 646.884577 350.026667 
L 648.579016 346.293333 
L 650.273455 341.066667 
L 651.967895 330.613333 
L 653.662334 326.88 
L 655.356773 326.88 
L 657.051212 325.386667 
L 658.745651 321.653333 
L 660.440091 316.426667 
L 662.13453 314.933333 
L 665.523408 314.933333 
L 668.912286 319.413333 
L 670.606726 316.426667 
L 672.301165 317.173333 
L 673.995604 319.413333 
L 679.078921 323.893333 
L 680.773361 326.88 
L 682.4678 328.373333 
L 684.162239 328.373333 
L 685.856678 329.866667 
L 689.245556 326.88 
L 690.939996 328.373333 
L 692.634435 332.106667 
L 694.328874 335.093333 
L 696.023313 335.093333 
L 697.717752 331.36 
L 699.412192 329.866667 
L 701.106631 327.626667 
L 702.80107 326.88 
L 704.495509 329.866667 
L 706.189948 329.12 
L 707.884387 329.12 
L 712.967705 331.36 
L 714.662144 333.6 
L 716.356583 334.346667 
L 718.051022 339.573333 
L 719.745462 339.573333 
L 721.439901 338.08 
L 723.13434 335.093333 
L 724.828779 329.12 
L 726.523218 322.4 
L 728.217657 316.426667 
L 729.912097 311.2 
L 731.606536 306.72 
L 734.995414 309.706667 
L 740.078732 300.746667 
L 741.773171 298.506667 
L 746.856488 287.306667 
L 748.550928 280.586667 
L 750.245367 275.36 
L 751.939806 267.146667 
L 755.328684 261.173333 
L 757.023123 259.68 
L 762.106441 259.68 
L 763.80088 258.186667 
L 765.495319 257.44 
L 767.189758 249.226667 
L 768.884198 236.533333 
L 770.578637 228.32 
L 772.273076 221.6 
L 773.967515 217.866667 
L 775.661954 211.146667 
L 780.745272 195.466667 
L 784.13415 190.986667 
L 785.828589 189.493333 
L 787.523028 189.493333 
L 794.300785 195.466667 
L 795.995224 194.72 
L 797.689664 194.72 
L 799.384103 195.466667 
L 801.078542 199.2 
L 802.772981 205.173333 
L 804.46742 209.653333 
L 806.161859 212.64 
L 811.245177 212.64 
L 812.939616 214.88 
L 814.634055 218.613333 
L 816.328494 218.613333 
L 818.022934 223.84 
L 819.717373 226.826667 
L 821.411812 226.826667 
L 823.106251 224.586667 
L 824.80069 224.586667 
L 828.189569 227.573333 
L 829.884008 234.293333 
L 834.967325 243.253333 
L 836.661764 245.493333 
L 840.050643 252.96 
L 841.745082 255.2 
L 845.13396 262.666667 
L 846.8284 265.653333 
L 848.522839 265.653333 
L 850.217278 267.893333 
L 851.911717 264.906667 
L 853.606156 264.906667 
L 855.300595 266.4 
L 856.995035 271.626667 
L 858.689474 274.613333 
L 862.078352 277.6 
L 863.772791 276.106667 
L 868.856109 276.106667 
L 870.550548 277.6 
L 872.244987 277.6 
L 873.939426 276.106667 
L 875.633865 277.6 
L 877.328305 282.08 
L 880.717183 288.053333 
L 882.411622 292.533333 
L 884.106061 294.026667 
L 885.8005 294.026667 
L 887.49494 295.52 
L 889.189379 299.253333 
L 892.578257 299.253333 
L 894.272696 300.746667 
L 895.967136 297.76 
L 895.967136 297.76 
" clip-path="url(#p61639fbbc1)" style="fill: none; stroke-dasharray: 6,2.25; stroke-dashoffset: 0; stroke: #dd8452; stroke-width: 1.5"/>
   </g>
   <g id="line2d_18"/>
   <g id="line2d_19"/>
   <g id="patch_3">
    <path d="M 58.998906 508.32 
L 58.998906 64.8 
" style="fill: none; stroke: #ffffff; stroke-width: 1.25; stroke-linejoin: miter; stroke-linecap: square"/>
   </g>
   <g id="patch_4">
    <path d="M 951.798906 508.32 
L 951.798906 64.8 
" style="fill: none; stroke: #ffffff; stroke-width: 1.25; stroke-linejoin: miter; stroke-linecap: square"/>
   </g>
   <g id="patch_5">
    <path d="M 58.998906 508.32 
L 951.798906 508.32 
" style="fill: none; stroke: #ffffff; stroke-width: 1.25; stroke-linejoin: miter; stroke-linecap: square"/>
   </g>
   <g id="patch_6">
    <path d="M 58.998906 64.8 
L 951.798906 64.8 
" style="fill: none; stroke: #ffffff; stroke-width: 1.25; stroke-linejoin: miter; stroke-linecap: square"/>
   </g>
   <g id="text_18">
    <!-- 48-hour, live -->
    <g style="fill: #262626" transform="translate(456.371406 58.8) scale(0.18 -0.18)">
     <defs>
      <path id="ArialMT-38" d="M 1131 2484 
Q 781 2613 612 2850 
Q 444 3088 444 3419 
Q 444 3919 803 4259 
Q 1163 4600 1759 4600 
Q 2359 4600 2725 4251 
Q 3091 3903 3091 3403 
Q 3091 3084 2923 2848 
Q 2756 2613 2416 2484 
Q 2838 2347 3058 2040 
Q 3278 1734 3278 1309 
Q 3278 722 2862 322 
Q 2447 -78 1769 -78 
Q 1091 -78 675 323 
Q 259 725 259 1325 
Q 259 1772 486 2073 
Q 713 2375 1131 2484 
z
M 1019 3438 
Q 1019 3113 1228 2906 
Q 1438 2700 1772 2700 
Q 2097 2700 2305 2904 
Q 2513 3109 2513 3406 
Q 2513 3716 2298 3927 
Q 2084 4138 1766 4138 
Q 1444 4138 1231 3931 
Q 1019 3725 1019 3438 
z
M 838 1322 
Q 838 1081 952 856 
Q 1066 631 1291 507 
Q 1516 384 1775 384 
Q 2178 384 2440 643 
Q 2703 903 2703 1303 
Q 2703 1709 2433 1975 
Q 2163 2241 1756 2241 
Q 1359 2241 1098 1978 
Q 838 1716 838 1322 
z
" transform="scale(0.015625)"/>
      <path id="ArialMT-2d" d="M 203 1375 
L 203 1941 
L 1931 1941 
L 1931 1375 
L 203 1375 
z
" transform="scale(0.015625)"/>
      <path id="ArialMT-68" d="M 422 0 
L 422 4581 
L 984 4581 
L 984 2938 
Q 1378 3394 1978 3394 
Q 2347 3394 2619 3248 
Q 2891 3103 3008 2847 
Q 3125 2591 3125 2103 
L 3125 0 
L 2563 0 
L 2563 2103 
Q 2563 2525 2380 2717 
Q 2197 2909 1863 2909 
Q 1613 2909 1392 2779 
Q 1172 2650 1078 2428 
Q 984 2206 984 1816 
L 984 0 
L 422 0 
z
" transform="scale(0.015625)"/>
      <path id="ArialMT-6f" d="M 213 1659 
Q 213 2581 725 3025 
Q 1153 3394 1769 3394 
Q 2453 3394 2887 2945 
Q 3322 2497 3322 1706 
Q 3322 1066 3130 698 
Q 2938 331 2570 128 
Q 2203 -75 1769 -75 
Q 1072 -75 642 372 
Q 213 819 213 1659 
z
M 791 1659 
Q 791 1022 1069 705 
Q 1347 388 1769 388 
Q 2188 388 2466 706 
Q 2744 1025 2744 1678 
Q 2744 2294 2464 2611 
Q 2184 2928 1769 2928 
Q 1347 2928 1069 2612 
Q 791 2297 791 1659 
z
" transform="scale(0.015625)"/>
      <path id="ArialMT-2c" d="M 569 0 
L 569 641 
L 1209 641 
L 1209 0 
Q 1209 -353 1084 -570 
Q 959 -788 688 -906 
L 531 -666 
Q 709 -588 793 -436 
Q 878 -284 888 0 
L 569 0 
z
" transform="scale(0.015625)"/>
      <path id="ArialMT-6c" d="M 409 0 
L 409 4581 
L 972 4581 
L 972 0 
L 409 0 
z
" transform="scale(0.015625)"/>
      <path id="ArialMT-76" d="M 1344 0 
L 81 3319 
L 675 3319 
L 1388 1331 
Q 1503 1009 1600 663 
Q 1675 925 1809 1294 
L 2547 3319 
L 3125 3319 
L 1869 0 
L 1344 0 
z
" transform="scale(0.015625)"/>
     </defs>
     <use xlink:href="#ArialMT-34"/>
     <use xlink:href="#ArialMT-38" x="55.615234"/>
     <use xlink:href="#ArialMT-2d" x="111.230469"/>
     <use xlink:href="#ArialMT-68" x="144.53125"/>
     <use xlink:href="#ArialMT-6f" x="200.146484"/>
     <use xlink:href="#ArialMT-75" x="255.761719"/>
     <use xlink:href="#ArialMT-72" x="311.376953"/>
     <use xlink:href="#ArialMT-2c" x="339.177734"/>
     <use xlink:href="#ArialMT-20" x="366.960938"/>
     <use xlink:href="#ArialMT-6c" x="394.744141"/>
     <use xlink:href="#ArialMT-69" x="416.960938"/>
     <use xlink:href="#ArialMT-76" x="439.177734"/>
     <use xlink:href="#ArialMT-65" x="489.177734"/>
    </g>
   </g>
   <g id="legend_1">
    <g id="patch_7">
     <path d="M 853.888594 104.982656 
L 944.098906 104.982656 
Q 946.298906 104.982656 946.298906 102.782656 
L 946.298906 72.5 
Q 946.298906 70.3 944.098906 70.3 
L 853.888594 70.3 
Q 851.688594 70.3 851.688594 72.5 
L 851.688594 102.782656 
Q 851.688594 104.982656 853.888594 104.982656 
z
" style="fill: #eaeaf2; opacity: 0.8; stroke: #cccccc; stroke-linejoin: miter"/>
    </g>
    <g id="line2d_20">
     <path d="M 856.088594 78.723594 
L 867.088594 78.723594 
L 878.088594 78.723594 
" style="fill: none; stroke: #4c72b0; stroke-width: 1.5; stroke-linecap: round"/>
    </g>
    <g id="text_19">
     <!-- live -->
     <g style="fill: #262626" transform="translate(886.888594 82.573594) scale(0.11 -0.11)">
      <use xlink:href="#ArialMT-6c"/>
      <use xlink:href="#ArialMT-69" x="22.216797"/>
      <use xlink:href="#ArialMT-76" x="44.433594"/>
      <use xlink:href="#ArialMT-65" x="94.433594"/>
     </g>
    </g>
    <g id="line2d_21">
     <path d="M 856.088594 94.4175 
L 867.088594 94.4175 
L 878.088594 94.4175 
" style="fill: none; stroke-dasharray: 6,2.25; stroke-dashoffset: 0; stroke: #dd8452; stroke-width: 1.5"/>
    </g>
    <g id="text_20">
     <!-- trend (2-hr) -->
     <g style="fill: #262626" transform="translate(886.888594 98.2675) scale(0.11 -0.11)">
      <defs>
       <path id="ArialMT-64" d="M 2575 0 
L 2575 419 
Q 2259 -75 1647 -75 
Q 1250 -75 917 144 
Q 584 363 401 755 
Q 219 1147 219 1656 
Q 219 2153 384 2558 
Q 550 2963 881 3178 
Q 1213 3394 1622 3394 
Q 1922 3394 2156 3267 
Q 2391 3141 2538 2938 
L 2538 4581 
L 3097 4581 
L 3097 0 
L 2575 0 
z
M 797 1656 
Q 797 1019 1065 703 
Q 1334 388 1700 388 
Q 2069 388 2326 689 
Q 2584 991 2584 1609 
Q 2584 2291 2321 2609 
Q 2059 2928 1675 2928 
Q 1300 2928 1048 2622 
Q 797 2316 797 1656 
z
" transform="scale(0.015625)"/>
      </defs>
      <use xlink:href="#ArialMT-74"/>
      <use xlink:href="#ArialMT-72" x="27.783203"/>
      <use xlink:href="#ArialMT-65" x="61.083984"/>
      <use xlink:href="#ArialMT-6e" x="116.699219"/>
      <use xlink:href="#ArialMT-64" x="172.314453"/>
      <use xlink:href="#ArialMT-20" x="227.929688"/>
      <use xlink:href="#ArialMT-28" x="255.712891"/>
      <use xlink:href="#ArialMT-32" x="289.013672"/>
      <use xlink:href="#ArialMT-2d" x="344.628906"/>
      <use xlink:href="#ArialMT-68" x="377.929688"/>
      <use xlink:href="#ArialMT-72" x="433.544922"/>
      <use xlink:href="#ArialMT-29" x="466.845703"/>
     </g>
    </g>
   </g>
  </g>
  <g id="text_21">
   <!-- Battery NYC Water Temperature -->
   <g style="fill: #262626" transform="translate(318.950781 24.67125) scale(0.24 -0.24)">
    <defs>
     <path id="ArialMT-42" d="M 469 0 
L 469 4581 
L 2188 4581 
Q 2713 4581 3030 4442 
Q 3347 4303 3526 4014 
Q 3706 3725 3706 3409 
Q 3706 3116 3547 2856 
Q 3388 2597 3066 2438 
Q 3481 2316 3704 2022 
Q 3928 1728 3928 1328 
Q 3928 1006 3792 729 
Q 3656 453 3456 303 
Q 3256 153 2954 76 
Q 2653 0 2216 0 
L 469 0 
z
M 1075 2656 
L 2066 2656 
Q 2469 2656 2644 2709 
Q 2875 2778 2992 2937 
Q 3109 3097 3109 3338 
Q 3109 3566 3000 3739 
Q 2891 3913 2687 3977 
Q 2484 4041 1991 4041 
L 1075 4041 
L 1075 2656 
z
M 1075 541 
L 2216 541 
Q 2509 541 2628 563 
Q 2838 600 2978 687 
Q 3119 775 3209 942 
Q 3300 1109 3300 1328 
Q 3300 1584 3169 1773 
Q 3038 1963 2805 2039 
Q 2572 2116 2134 2116 
L 1075 2116 
L 1075 541 
z
" transform="scale(0.015625)"/>
     <path id="ArialMT-79" d="M 397 -1278 
L 334 -750 
Q 519 -800 656 -800 
Q 844 -800 956 -737 
Q 1069 -675 1141 -563 
Q 1194 -478 1313 -144 
Q 1328 -97 1363 -6 
L 103 3319 
L 709 3319 
L 1400 1397 
Q 1534 1031 1641 628 
Q 1738 1016 1872 1384 
L 2581 3319 
L 3144 3319 
L 1881 -56 
Q 1678 -603 1566 -809 
Q 1416 -1088 1222 -1217 
Q 1028 -1347 759 -1347 
Q 597 -1347 397 -1278 
z
" transform="scale(0.015625)"/>
     <path id="ArialMT-4e" d="M 488 0 
L 488 4581 
L 1109 4581 
L 3516 984 
L 3516 4581 
L 4097 4581 
L 4097 0 
L 3475 0 
L 1069 3600 
L 1069 0 
L 488 0 
z
" transform="scale(0.015625)"/>
     <path id="ArialMT-59" d="M 1784 0 
L 1784 1941 
L 19 4581 
L 756 4581 
L 1659 3200 
Q 1909 2813 2125 2425 
Q 2331 2784 2625 3234 
L 3513 4581 
L 4219 4581 
L 2391 1941 
L 2391 0 
L 1784 0 
z
" transform="scale(0.015625)"/>
     <path id="ArialMT-43" d="M 3763 1606 
L 4369 1453 
Q 4178 706 3683 314 
Q 3188 -78 2472 -78 
Q 1731 -78 1267 223 
Q 803 525 561 1097 
Q 319 1669 319 2325 
Q 319 3041 592 3573 
Q 866 4106 1370 4382 
Q 1875 4659 2481 4659 
Q 3169 4659 3637 4309 
Q 4106 3959 4291 3325 
L 3694 3184 
Q 3534 3684 3231 3912 
Q 2928 4141 2469 4141 
Q 1941 4141 1586 3887 
Q 1231 3634 1087 3207 
Q 944 2781 944 2328 
Q 944 1744 1114 1308 
Q 1284 872 1643 656 
Q 2003 441 2422 441 
Q 2931 441 3284 734 
Q 3638 1028 3763 1606 
z
" transform="scale(0.015625)"/>
    </defs>
    <use xlink:href="#ArialMT-42"/>
    <use xlink:href="#ArialMT-61" x="66.699219"/>
    <use xlink:href="#ArialMT-74" x="122.314453"/>
    <use xlink:href="#ArialMT-74" x="150.097656"/>
    <use xlink:href="#ArialMT-65" x="177.880859"/>
    <use xlink:href="#ArialMT-72" x="233.496094"/>
    <use xlink:href="#ArialMT-79" x="266.796875"/>
    <use xlink:href="#ArialMT-20" x="316.796875"/>
    <use xlink:href="#ArialMT-4e" x="344.580078"/>
    <use xlink:href="#ArialMT-59" x="416.796875"/>
    <use xlink:href="#ArialMT-43" x="483.496094"/>
    <use xlink:href="#ArialMT-20" x="555.712891"/>
    <use xlink:href="#ArialMT-57" x="583.496094"/>
    <use xlink:href="#ArialMT-61" x="674.130859"/>
    <use xlink:href="#ArialMT-74" x="729.746094"/>
    <use xlink:href="#ArialMT-65" x="757.529297"/>
    <use xlink:href="#ArialMT-72" x="813.144531"/>
    <use xlink:href="#ArialMT-20" x="846.445312"/>
    <use xlink:href="#ArialMT-54" x="872.478516"/>
    <use xlink:href="#ArialMT-65" x="922.4375"/>
    <use xlink:href="#ArialMT-6d" x="978.052734"/>
    <use xlink:href="#ArialMT-70" x="1061.353516"/>
    <use xlink:href="#ArialMT-65" x="1116.96875"/>
    <use xlink:href="#ArialMT-72" x="1172.583984"/>
    <use xlink:href="#ArialMT-61" x="1205.884766"/>
    <use xlink:href="#ArialMT-74" x="1261.5"/>
    <use xlink:href="#ArialMT-75" x="1289.283203"/>
    <use xlink:href="#ArialMT-72" x="1344.898438"/>
    <use xlink:href="#ArialMT-65" x="1378.199219"/>
   </g>
  </g>
 </g>
 <defs>
  <clipPath id="p61639fbbc1">
   <rect x="58.998906" y="64.8" width="892.8" height="443.52"/>
  </clipPath>
 </defs>
</svg>
