<?xml version="1.0" encoding="utf-8" standalone="no"?>
<!DOCTYPE svg PUBLIC "-//W3C//DTD SVG 1.1//EN"
  "http://www.w3.org/Graphics/SVG/1.1/DTD/svg11.dtd">
<svg height="576pt" version="1.1" viewBox="0 0 1152 576" width="1152pt" xmlns="http://www.w3.org/2000/svg" xmlns:xlink="http://www.w3.org/1999/xlink">
 <metadata>
  <rdf:RDF xmlns:cc="http://creativecommons.org/ns#" xmlns:dc="http://purl.org/dc/elements/1.1/" xmlns:rdf="http://www.w3.org/1999/02/22-rdf-syntax-ns#">
   <cc:Work>
    <dc:type rdf:resource="http://purl.org/dc/dcmitype/StillImage"/>
    <dc:date>2021-05-28T11:08:46.849872</dc:date>
    <dc:format>image/svg+xml</dc:format>
    <dc:creator>
     <cc:Agent>
      <dc:title>Matplotlib v3.4.2, https://matplotlib.org/</dc:title>
     </cc:Agent>
    </dc:creator>
   </cc:Work>
  </rdf:RDF>
 </metadata>
 <defs>
  <style type="text/css">*{stroke-linecap:butt;stroke-linejoin:round;}</style>
 </defs>
 <g id="figure_1">
  <g id="patch_1">
   <path d="M 0 576 
L 1152 576 
L 1152 0 
L 0 0 
z
" style="fill:#ffffff;"/>
  </g>
  <g id="axes_1">
   <g id="patch_2">
    <path d="M 144 512.64 
L 1036.8 512.64 
L 1036.8 69.12 
L 144 69.12 
z
" style="fill:#eaeaf2;"/>
   </g>
   <g id="matplotlib.axis_1">
    <g id="xtick_1">
     <g id="line2d_1">
      <path clip-path="url(#peb2ee2fa8f)" d="M 199.831771 512.64 
L 199.831771 69.12 
" style="fill:none;stroke:#ffffff;stroke-linecap:round;"/>
     </g>
     <g id="text_1">
      <!-- Wed 12 PM -->
      <g style="fill:#262626;" transform="translate(171.196536 530.013594)scale(0.11 -0.11)">
       <defs>
        <path d="M 1294 0 
L 78 4581 
L 700 4581 
L 1397 1578 
Q 1509 1106 1591 641 
Q 1766 1375 1797 1488 
L 2669 4581 
L 3400 4581 
L 4056 2263 
Q 4303 1400 4413 641 
Q 4500 1075 4641 1638 
L 5359 4581 
L 5969 4581 
L 4713 0 
L 4128 0 
L 3163 3491 
Q 3041 3928 3019 4028 
Q 2947 3713 2884 3491 
L 1913 0 
L 1294 0 
z
" id="ArialMT-57" transform="scale(0.015625)"/>
        <path d="M 2694 1069 
L 3275 997 
Q 3138 488 2766 206 
Q 2394 -75 1816 -75 
Q 1088 -75 661 373 
Q 234 822 234 1631 
Q 234 2469 665 2931 
Q 1097 3394 1784 3394 
Q 2450 3394 2872 2941 
Q 3294 2488 3294 1666 
Q 3294 1616 3291 1516 
L 816 1516 
Q 847 969 1125 678 
Q 1403 388 1819 388 
Q 2128 388 2347 550 
Q 2566 713 2694 1069 
z
M 847 1978 
L 2700 1978 
Q 2663 2397 2488 2606 
Q 2219 2931 1791 2931 
Q 1403 2931 1139 2672 
Q 875 2413 847 1978 
z
" id="ArialMT-65" transform="scale(0.015625)"/>
        <path d="M 2575 0 
L 2575 419 
Q 2259 -75 1647 -75 
Q 1250 -75 917 144 
Q 584 363 401 755 
Q 219 1147 219 1656 
Q 219 2153 384 2558 
Q 550 2963 881 3178 
Q 1213 3394 1622 3394 
Q 1922 3394 2156 3267 
Q 2391 3141 2538 2938 
L 2538 4581 
L 3097 4581 
L 3097 0 
L 2575 0 
z
M 797 1656 
Q 797 1019 1065 703 
Q 1334 388 1700 388 
Q 2069 388 2326 689 
Q 2584 991 2584 1609 
Q 2584 2291 2321 2609 
Q 2059 2928 1675 2928 
Q 1300 2928 1048 2622 
Q 797 2316 797 1656 
z
" id="ArialMT-64" transform="scale(0.015625)"/>
        <path id="ArialMT-20" transform="scale(0.015625)"/>
        <path d="M 2384 0 
L 1822 0 
L 1822 3584 
Q 1619 3391 1289 3197 
Q 959 3003 697 2906 
L 697 3450 
Q 1169 3672 1522 3987 
Q 1875 4303 2022 4600 
L 2384 4600 
L 2384 0 
z
" id="ArialMT-31" transform="scale(0.015625)"/>
        <path d="M 3222 541 
L 3222 0 
L 194 0 
Q 188 203 259 391 
Q 375 700 629 1000 
Q 884 1300 1366 1694 
Q 2113 2306 2375 2664 
Q 2638 3022 2638 3341 
Q 2638 3675 2398 3904 
Q 2159 4134 1775 4134 
Q 1369 4134 1125 3890 
Q 881 3647 878 3216 
L 300 3275 
Q 359 3922 746 4261 
Q 1134 4600 1788 4600 
Q 2447 4600 2831 4234 
Q 3216 3869 3216 3328 
Q 3216 3053 3103 2787 
Q 2991 2522 2730 2228 
Q 2469 1934 1863 1422 
Q 1356 997 1212 845 
Q 1069 694 975 541 
L 3222 541 
z
" id="ArialMT-32" transform="scale(0.015625)"/>
        <path d="M 494 0 
L 494 4581 
L 2222 4581 
Q 2678 4581 2919 4538 
Q 3256 4481 3484 4323 
Q 3713 4166 3852 3881 
Q 3991 3597 3991 3256 
Q 3991 2672 3619 2267 
Q 3247 1863 2275 1863 
L 1100 1863 
L 1100 0 
L 494 0 
z
M 1100 2403 
L 2284 2403 
Q 2872 2403 3119 2622 
Q 3366 2841 3366 3238 
Q 3366 3525 3220 3729 
Q 3075 3934 2838 4000 
Q 2684 4041 2272 4041 
L 1100 4041 
L 1100 2403 
z
" id="ArialMT-50" transform="scale(0.015625)"/>
        <path d="M 475 0 
L 475 4581 
L 1388 4581 
L 2472 1338 
Q 2622 884 2691 659 
Q 2769 909 2934 1394 
L 4031 4581 
L 4847 4581 
L 4847 0 
L 4263 0 
L 4263 3834 
L 2931 0 
L 2384 0 
L 1059 3900 
L 1059 0 
L 475 0 
z
" id="ArialMT-4d" transform="scale(0.015625)"/>
       </defs>
       <use xlink:href="#ArialMT-57"/>
       <use x="92.634766" xlink:href="#ArialMT-65"/>
       <use x="148.25" xlink:href="#ArialMT-64"/>
       <use x="203.865234" xlink:href="#ArialMT-20"/>
       <use x="231.648438" xlink:href="#ArialMT-31"/>
       <use x="287.263672" xlink:href="#ArialMT-32"/>
       <use x="342.878906" xlink:href="#ArialMT-20"/>
       <use x="370.662109" xlink:href="#ArialMT-50"/>
       <use x="437.361328" xlink:href="#ArialMT-4d"/>
      </g>
     </g>
    </g>
    <g id="xtick_2">
     <g id="line2d_2">
      <path clip-path="url(#peb2ee2fa8f)" d="M 301.498121 512.64 
L 301.498121 69.12 
" style="fill:none;stroke:#ffffff;stroke-linecap:round;"/>
     </g>
     <g id="text_2">
      <!-- Wed 6 PM -->
      <g style="fill:#262626;" transform="translate(275.921402 530.013594)scale(0.11 -0.11)">
       <defs>
        <path d="M 3184 3459 
L 2625 3416 
Q 2550 3747 2413 3897 
Q 2184 4138 1850 4138 
Q 1581 4138 1378 3988 
Q 1113 3794 959 3422 
Q 806 3050 800 2363 
Q 1003 2672 1297 2822 
Q 1591 2972 1913 2972 
Q 2475 2972 2870 2558 
Q 3266 2144 3266 1488 
Q 3266 1056 3080 686 
Q 2894 316 2569 119 
Q 2244 -78 1831 -78 
Q 1128 -78 684 439 
Q 241 956 241 2144 
Q 241 3472 731 4075 
Q 1159 4600 1884 4600 
Q 2425 4600 2770 4297 
Q 3116 3994 3184 3459 
z
M 888 1484 
Q 888 1194 1011 928 
Q 1134 663 1356 523 
Q 1578 384 1822 384 
Q 2178 384 2434 671 
Q 2691 959 2691 1453 
Q 2691 1928 2437 2201 
Q 2184 2475 1800 2475 
Q 1419 2475 1153 2201 
Q 888 1928 888 1484 
z
" id="ArialMT-36" transform="scale(0.015625)"/>
       </defs>
       <use xlink:href="#ArialMT-57"/>
       <use x="92.634766" xlink:href="#ArialMT-65"/>
       <use x="148.25" xlink:href="#ArialMT-64"/>
       <use x="203.865234" xlink:href="#ArialMT-20"/>
       <use x="231.648438" xlink:href="#ArialMT-36"/>
       <use x="287.263672" xlink:href="#ArialMT-20"/>
       <use x="315.046875" xlink:href="#ArialMT-50"/>
       <use x="381.746094" xlink:href="#ArialMT-4d"/>
      </g>
     </g>
    </g>
    <g id="xtick_3">
     <g id="line2d_3">
      <path clip-path="url(#peb2ee2fa8f)" d="M 403.164471 512.64 
L 403.164471 69.12 
" style="fill:none;stroke:#ffffff;stroke-linecap:round;"/>
     </g>
     <g id="text_3">
      <!-- Thu 12 AM -->
      <g style="fill:#262626;" transform="translate(376.567675 530.013594)scale(0.11 -0.11)">
       <defs>
        <path d="M 1659 0 
L 1659 4041 
L 150 4041 
L 150 4581 
L 3781 4581 
L 3781 4041 
L 2266 4041 
L 2266 0 
L 1659 0 
z
" id="ArialMT-54" transform="scale(0.015625)"/>
        <path d="M 422 0 
L 422 4581 
L 984 4581 
L 984 2938 
Q 1378 3394 1978 3394 
Q 2347 3394 2619 3248 
Q 2891 3103 3008 2847 
Q 3125 2591 3125 2103 
L 3125 0 
L 2563 0 
L 2563 2103 
Q 2563 2525 2380 2717 
Q 2197 2909 1863 2909 
Q 1613 2909 1392 2779 
Q 1172 2650 1078 2428 
Q 984 2206 984 1816 
L 984 0 
L 422 0 
z
" id="ArialMT-68" transform="scale(0.015625)"/>
        <path d="M 2597 0 
L 2597 488 
Q 2209 -75 1544 -75 
Q 1250 -75 995 37 
Q 741 150 617 320 
Q 494 491 444 738 
Q 409 903 409 1263 
L 409 3319 
L 972 3319 
L 972 1478 
Q 972 1038 1006 884 
Q 1059 663 1231 536 
Q 1403 409 1656 409 
Q 1909 409 2131 539 
Q 2353 669 2445 892 
Q 2538 1116 2538 1541 
L 2538 3319 
L 3100 3319 
L 3100 0 
L 2597 0 
z
" id="ArialMT-75" transform="scale(0.015625)"/>
        <path d="M -9 0 
L 1750 4581 
L 2403 4581 
L 4278 0 
L 3588 0 
L 3053 1388 
L 1138 1388 
L 634 0 
L -9 0 
z
M 1313 1881 
L 2866 1881 
L 2388 3150 
Q 2169 3728 2063 4100 
Q 1975 3659 1816 3225 
L 1313 1881 
z
" id="ArialMT-41" transform="scale(0.015625)"/>
       </defs>
       <use xlink:href="#ArialMT-54"/>
       <use x="61.083984" xlink:href="#ArialMT-68"/>
       <use x="116.699219" xlink:href="#ArialMT-75"/>
       <use x="172.314453" xlink:href="#ArialMT-20"/>
       <use x="200.097656" xlink:href="#ArialMT-31"/>
       <use x="255.712891" xlink:href="#ArialMT-32"/>
       <use x="311.328125" xlink:href="#ArialMT-20"/>
       <use x="333.611328" xlink:href="#ArialMT-41"/>
       <use x="400.310547" xlink:href="#ArialMT-4d"/>
      </g>
     </g>
    </g>
    <g id="xtick_4">
     <g id="line2d_4">
      <path clip-path="url(#peb2ee2fa8f)" d="M 504.830822 512.64 
L 504.830822 69.12 
" style="fill:none;stroke:#ffffff;stroke-linecap:round;"/>
     </g>
     <g id="text_4">
      <!-- Thu 6 AM -->
      <g style="fill:#262626;" transform="translate(481.292541 530.013594)scale(0.11 -0.11)">
       <use xlink:href="#ArialMT-54"/>
       <use x="61.083984" xlink:href="#ArialMT-68"/>
       <use x="116.699219" xlink:href="#ArialMT-75"/>
       <use x="172.314453" xlink:href="#ArialMT-20"/>
       <use x="200.097656" xlink:href="#ArialMT-36"/>
       <use x="255.712891" xlink:href="#ArialMT-20"/>
       <use x="277.996094" xlink:href="#ArialMT-41"/>
       <use x="344.695312" xlink:href="#ArialMT-4d"/>
      </g>
     </g>
    </g>
    <g id="xtick_5">
     <g id="line2d_5">
      <path clip-path="url(#peb2ee2fa8f)" d="M 606.497172 512.64 
L 606.497172 69.12 
" style="fill:none;stroke:#ffffff;stroke-linecap:round;"/>
     </g>
     <g id="text_5">
      <!-- Thu 12 PM -->
      <g style="fill:#262626;" transform="translate(579.597875 530.013594)scale(0.11 -0.11)">
       <use xlink:href="#ArialMT-54"/>
       <use x="61.083984" xlink:href="#ArialMT-68"/>
       <use x="116.699219" xlink:href="#ArialMT-75"/>
       <use x="172.314453" xlink:href="#ArialMT-20"/>
       <use x="200.097656" xlink:href="#ArialMT-31"/>
       <use x="255.712891" xlink:href="#ArialMT-32"/>
       <use x="311.328125" xlink:href="#ArialMT-20"/>
       <use x="339.111328" xlink:href="#ArialMT-50"/>
       <use x="405.810547" xlink:href="#ArialMT-4d"/>
      </g>
     </g>
    </g>
    <g id="xtick_6">
     <g id="line2d_6">
      <path clip-path="url(#peb2ee2fa8f)" d="M 708.163522 512.64 
L 708.163522 69.12 
" style="fill:none;stroke:#ffffff;stroke-linecap:round;"/>
     </g>
     <g id="text_6">
      <!-- Thu 6 PM -->
      <g style="fill:#262626;" transform="translate(684.322741 530.013594)scale(0.11 -0.11)">
       <use xlink:href="#ArialMT-54"/>
       <use x="61.083984" xlink:href="#ArialMT-68"/>
       <use x="116.699219" xlink:href="#ArialMT-75"/>
       <use x="172.314453" xlink:href="#ArialMT-20"/>
       <use x="200.097656" xlink:href="#ArialMT-36"/>
       <use x="255.712891" xlink:href="#ArialMT-20"/>
       <use x="283.496094" xlink:href="#ArialMT-50"/>
       <use x="350.195312" xlink:href="#ArialMT-4d"/>
      </g>
     </g>
    </g>
    <g id="xtick_7">
     <g id="line2d_7">
      <path clip-path="url(#peb2ee2fa8f)" d="M 809.829873 512.64 
L 809.829873 69.12 
" style="fill:none;stroke:#ffffff;stroke-linecap:round;"/>
     </g>
     <g id="text_7">
      <!-- Fri 12 AM -->
      <g style="fill:#262626;" transform="translate(786.296748 530.013594)scale(0.11 -0.11)">
       <defs>
        <path d="M 525 0 
L 525 4581 
L 3616 4581 
L 3616 4041 
L 1131 4041 
L 1131 2622 
L 3281 2622 
L 3281 2081 
L 1131 2081 
L 1131 0 
L 525 0 
z
" id="ArialMT-46" transform="scale(0.015625)"/>
        <path d="M 416 0 
L 416 3319 
L 922 3319 
L 922 2816 
Q 1116 3169 1280 3281 
Q 1444 3394 1641 3394 
Q 1925 3394 2219 3213 
L 2025 2691 
Q 1819 2813 1613 2813 
Q 1428 2813 1281 2702 
Q 1134 2591 1072 2394 
Q 978 2094 978 1738 
L 978 0 
L 416 0 
z
" id="ArialMT-72" transform="scale(0.015625)"/>
        <path d="M 425 3934 
L 425 4581 
L 988 4581 
L 988 3934 
L 425 3934 
z
M 425 0 
L 425 3319 
L 988 3319 
L 988 0 
L 425 0 
z
" id="ArialMT-69" transform="scale(0.015625)"/>
       </defs>
       <use xlink:href="#ArialMT-46"/>
       <use x="61.083984" xlink:href="#ArialMT-72"/>
       <use x="94.384766" xlink:href="#ArialMT-69"/>
       <use x="116.601562" xlink:href="#ArialMT-20"/>
       <use x="144.384766" xlink:href="#ArialMT-31"/>
       <use x="200" xlink:href="#ArialMT-32"/>
       <use x="255.615234" xlink:href="#ArialMT-20"/>
       <use x="277.898438" xlink:href="#ArialMT-41"/>
       <use x="344.597656" xlink:href="#ArialMT-4d"/>
      </g>
     </g>
    </g>
    <g id="xtick_8">
     <g id="line2d_8">
      <path clip-path="url(#peb2ee2fa8f)" d="M 911.496223 512.64 
L 911.496223 69.12 
" style="fill:none;stroke:#ffffff;stroke-linecap:round;"/>
     </g>
     <g id="text_8">
      <!-- Fri 6 AM -->
      <g style="fill:#262626;" transform="translate(891.021614 530.013594)scale(0.11 -0.11)">
       <use xlink:href="#ArialMT-46"/>
       <use x="61.083984" xlink:href="#ArialMT-72"/>
       <use x="94.384766" xlink:href="#ArialMT-69"/>
       <use x="116.601562" xlink:href="#ArialMT-20"/>
       <use x="144.384766" xlink:href="#ArialMT-36"/>
       <use x="200" xlink:href="#ArialMT-20"/>
       <use x="222.283203" xlink:href="#ArialMT-41"/>
       <use x="288.982422" xlink:href="#ArialMT-4d"/>
      </g>
     </g>
    </g>
    <g id="xtick_9">
     <g id="line2d_9">
      <path clip-path="url(#peb2ee2fa8f)" d="M 1013.162574 512.64 
L 1013.162574 69.12 
" style="fill:none;stroke:#ffffff;stroke-linecap:round;"/>
     </g>
     <g id="text_9">
      <!-- Fri 12 PM -->
      <g style="fill:#262626;" transform="translate(989.326949 530.013594)scale(0.11 -0.11)">
       <use xlink:href="#ArialMT-46"/>
       <use x="61.083984" xlink:href="#ArialMT-72"/>
       <use x="94.384766" xlink:href="#ArialMT-69"/>
       <use x="116.601562" xlink:href="#ArialMT-20"/>
       <use x="144.384766" xlink:href="#ArialMT-31"/>
       <use x="200" xlink:href="#ArialMT-32"/>
       <use x="255.615234" xlink:href="#ArialMT-20"/>
       <use x="283.398438" xlink:href="#ArialMT-50"/>
       <use x="350.097656" xlink:href="#ArialMT-4d"/>
      </g>
     </g>
    </g>
    <g id="text_10">
     <!-- Time -->
     <g style="fill:#262626;" transform="translate(570.739219 549.083906)scale(0.18 -0.18)">
      <defs>
       <path d="M 422 0 
L 422 3319 
L 925 3319 
L 925 2853 
Q 1081 3097 1340 3245 
Q 1600 3394 1931 3394 
Q 2300 3394 2536 3241 
Q 2772 3088 2869 2813 
Q 3263 3394 3894 3394 
Q 4388 3394 4653 3120 
Q 4919 2847 4919 2278 
L 4919 0 
L 4359 0 
L 4359 2091 
Q 4359 2428 4304 2576 
Q 4250 2725 4106 2815 
Q 3963 2906 3769 2906 
Q 3419 2906 3187 2673 
Q 2956 2441 2956 1928 
L 2956 0 
L 2394 0 
L 2394 2156 
Q 2394 2531 2256 2718 
Q 2119 2906 1806 2906 
Q 1569 2906 1367 2781 
Q 1166 2656 1075 2415 
Q 984 2175 984 1722 
L 984 0 
L 422 0 
z
" id="ArialMT-6d" transform="scale(0.015625)"/>
      </defs>
      <use xlink:href="#ArialMT-54"/>
      <use x="57.333984" xlink:href="#ArialMT-69"/>
      <use x="79.550781" xlink:href="#ArialMT-6d"/>
      <use x="162.851562" xlink:href="#ArialMT-65"/>
     </g>
    </g>
   </g>
   <g id="matplotlib.axis_2">
    <g id="ytick_1">
     <g id="line2d_10">
      <path clip-path="url(#peb2ee2fa8f)" d="M 144 492.48 
L 1036.8 492.48 
" style="fill:none;stroke:#ffffff;stroke-linecap:round;"/>
     </g>
     <g id="text_11">
      <!-- 59.5 -->
      <g style="fill:#262626;" transform="translate(113.092969 496.416797)scale(0.11 -0.11)">
       <defs>
        <path d="M 266 1200 
L 856 1250 
Q 922 819 1161 601 
Q 1400 384 1738 384 
Q 2144 384 2425 690 
Q 2706 997 2706 1503 
Q 2706 1984 2436 2262 
Q 2166 2541 1728 2541 
Q 1456 2541 1237 2417 
Q 1019 2294 894 2097 
L 366 2166 
L 809 4519 
L 3088 4519 
L 3088 3981 
L 1259 3981 
L 1013 2750 
Q 1425 3038 1878 3038 
Q 2478 3038 2890 2622 
Q 3303 2206 3303 1553 
Q 3303 931 2941 478 
Q 2500 -78 1738 -78 
Q 1113 -78 717 272 
Q 322 622 266 1200 
z
" id="ArialMT-35" transform="scale(0.015625)"/>
        <path d="M 350 1059 
L 891 1109 
Q 959 728 1153 556 
Q 1347 384 1650 384 
Q 1909 384 2104 503 
Q 2300 622 2425 820 
Q 2550 1019 2634 1356 
Q 2719 1694 2719 2044 
Q 2719 2081 2716 2156 
Q 2547 1888 2255 1720 
Q 1963 1553 1622 1553 
Q 1053 1553 659 1965 
Q 266 2378 266 3053 
Q 266 3750 677 4175 
Q 1088 4600 1706 4600 
Q 2153 4600 2523 4359 
Q 2894 4119 3086 3673 
Q 3278 3228 3278 2384 
Q 3278 1506 3087 986 
Q 2897 466 2520 194 
Q 2144 -78 1638 -78 
Q 1100 -78 759 220 
Q 419 519 350 1059 
z
M 2653 3081 
Q 2653 3566 2395 3850 
Q 2138 4134 1775 4134 
Q 1400 4134 1122 3828 
Q 844 3522 844 3034 
Q 844 2597 1108 2323 
Q 1372 2050 1759 2050 
Q 2150 2050 2401 2323 
Q 2653 2597 2653 3081 
z
" id="ArialMT-39" transform="scale(0.015625)"/>
        <path d="M 581 0 
L 581 641 
L 1222 641 
L 1222 0 
L 581 0 
z
" id="ArialMT-2e" transform="scale(0.015625)"/>
       </defs>
       <use xlink:href="#ArialMT-35"/>
       <use x="55.615234" xlink:href="#ArialMT-39"/>
       <use x="111.230469" xlink:href="#ArialMT-2e"/>
       <use x="139.013672" xlink:href="#ArialMT-35"/>
      </g>
     </g>
    </g>
    <g id="ytick_2">
     <g id="line2d_11">
      <path clip-path="url(#peb2ee2fa8f)" d="M 144 429.48 
L 1036.8 429.48 
" style="fill:none;stroke:#ffffff;stroke-linecap:round;"/>
     </g>
     <g id="text_12">
      <!-- 60.0 -->
      <g style="fill:#262626;" transform="translate(113.092969 433.416797)scale(0.11 -0.11)">
       <defs>
        <path d="M 266 2259 
Q 266 3072 433 3567 
Q 600 4063 929 4331 
Q 1259 4600 1759 4600 
Q 2128 4600 2406 4451 
Q 2684 4303 2865 4023 
Q 3047 3744 3150 3342 
Q 3253 2941 3253 2259 
Q 3253 1453 3087 958 
Q 2922 463 2592 192 
Q 2263 -78 1759 -78 
Q 1097 -78 719 397 
Q 266 969 266 2259 
z
M 844 2259 
Q 844 1131 1108 757 
Q 1372 384 1759 384 
Q 2147 384 2411 759 
Q 2675 1134 2675 2259 
Q 2675 3391 2411 3762 
Q 2147 4134 1753 4134 
Q 1366 4134 1134 3806 
Q 844 3388 844 2259 
z
" id="ArialMT-30" transform="scale(0.015625)"/>
       </defs>
       <use xlink:href="#ArialMT-36"/>
       <use x="55.615234" xlink:href="#ArialMT-30"/>
       <use x="111.230469" xlink:href="#ArialMT-2e"/>
       <use x="139.013672" xlink:href="#ArialMT-30"/>
      </g>
     </g>
    </g>
    <g id="ytick_3">
     <g id="line2d_12">
      <path clip-path="url(#peb2ee2fa8f)" d="M 144 366.48 
L 1036.8 366.48 
" style="fill:none;stroke:#ffffff;stroke-linecap:round;"/>
     </g>
     <g id="text_13">
      <!-- 60.5 -->
      <g style="fill:#262626;" transform="translate(113.092969 370.416797)scale(0.11 -0.11)">
       <use xlink:href="#ArialMT-36"/>
       <use x="55.615234" xlink:href="#ArialMT-30"/>
       <use x="111.230469" xlink:href="#ArialMT-2e"/>
       <use x="139.013672" xlink:href="#ArialMT-35"/>
      </g>
     </g>
    </g>
    <g id="ytick_4">
     <g id="line2d_13">
      <path clip-path="url(#peb2ee2fa8f)" d="M 144 303.48 
L 1036.8 303.48 
" style="fill:none;stroke:#ffffff;stroke-linecap:round;"/>
     </g>
     <g id="text_14">
      <!-- 61.0 -->
      <g style="fill:#262626;" transform="translate(113.092969 307.416797)scale(0.11 -0.11)">
       <use xlink:href="#ArialMT-36"/>
       <use x="55.615234" xlink:href="#ArialMT-31"/>
       <use x="111.230469" xlink:href="#ArialMT-2e"/>
       <use x="139.013672" xlink:href="#ArialMT-30"/>
      </g>
     </g>
    </g>
    <g id="ytick_5">
     <g id="line2d_14">
      <path clip-path="url(#peb2ee2fa8f)" d="M 144 240.48 
L 1036.8 240.48 
" style="fill:none;stroke:#ffffff;stroke-linecap:round;"/>
     </g>
     <g id="text_15">
      <!-- 61.5 -->
      <g style="fill:#262626;" transform="translate(113.092969 244.416797)scale(0.11 -0.11)">
       <use xlink:href="#ArialMT-36"/>
       <use x="55.615234" xlink:href="#ArialMT-31"/>
       <use x="111.230469" xlink:href="#ArialMT-2e"/>
       <use x="139.013672" xlink:href="#ArialMT-35"/>
      </g>
     </g>
    </g>
    <g id="ytick_6">
     <g id="line2d_15">
      <path clip-path="url(#peb2ee2fa8f)" d="M 144 177.48 
L 1036.8 177.48 
" style="fill:none;stroke:#ffffff;stroke-linecap:round;"/>
     </g>
     <g id="text_16">
      <!-- 62.0 -->
      <g style="fill:#262626;" transform="translate(113.092969 181.416797)scale(0.11 -0.11)">
       <use xlink:href="#ArialMT-36"/>
       <use x="55.615234" xlink:href="#ArialMT-32"/>
       <use x="111.230469" xlink:href="#ArialMT-2e"/>
       <use x="139.013672" xlink:href="#ArialMT-30"/>
      </g>
     </g>
    </g>
    <g id="ytick_7">
     <g id="line2d_16">
      <path clip-path="url(#peb2ee2fa8f)" d="M 144 114.48 
L 1036.8 114.48 
" style="fill:none;stroke:#ffffff;stroke-linecap:round;"/>
     </g>
     <g id="text_17">
      <!-- 62.5 -->
      <g style="fill:#262626;" transform="translate(113.092969 118.416797)scale(0.11 -0.11)">
       <use xlink:href="#ArialMT-36"/>
       <use x="55.615234" xlink:href="#ArialMT-32"/>
       <use x="111.230469" xlink:href="#ArialMT-2e"/>
       <use x="139.013672" xlink:href="#ArialMT-35"/>
      </g>
     </g>
    </g>
    <g id="text_18">
     <!-- Water Temp (°F) -->
     <g style="fill:#262626;" transform="translate(105.304531 356.47875)rotate(-90)scale(0.18 -0.18)">
      <defs>
       <path d="M 2588 409 
Q 2275 144 1986 34 
Q 1697 -75 1366 -75 
Q 819 -75 525 192 
Q 231 459 231 875 
Q 231 1119 342 1320 
Q 453 1522 633 1644 
Q 813 1766 1038 1828 
Q 1203 1872 1538 1913 
Q 2219 1994 2541 2106 
Q 2544 2222 2544 2253 
Q 2544 2597 2384 2738 
Q 2169 2928 1744 2928 
Q 1347 2928 1158 2789 
Q 969 2650 878 2297 
L 328 2372 
Q 403 2725 575 2942 
Q 747 3159 1072 3276 
Q 1397 3394 1825 3394 
Q 2250 3394 2515 3294 
Q 2781 3194 2906 3042 
Q 3031 2891 3081 2659 
Q 3109 2516 3109 2141 
L 3109 1391 
Q 3109 606 3145 398 
Q 3181 191 3288 0 
L 2700 0 
Q 2613 175 2588 409 
z
M 2541 1666 
Q 2234 1541 1622 1453 
Q 1275 1403 1131 1340 
Q 988 1278 909 1158 
Q 831 1038 831 891 
Q 831 666 1001 516 
Q 1172 366 1500 366 
Q 1825 366 2078 508 
Q 2331 650 2450 897 
Q 2541 1088 2541 1459 
L 2541 1666 
z
" id="ArialMT-61" transform="scale(0.015625)"/>
       <path d="M 1650 503 
L 1731 6 
Q 1494 -44 1306 -44 
Q 1000 -44 831 53 
Q 663 150 594 308 
Q 525 466 525 972 
L 525 2881 
L 113 2881 
L 113 3319 
L 525 3319 
L 525 4141 
L 1084 4478 
L 1084 3319 
L 1650 3319 
L 1650 2881 
L 1084 2881 
L 1084 941 
Q 1084 700 1114 631 
Q 1144 563 1211 522 
Q 1278 481 1403 481 
Q 1497 481 1650 503 
z
" id="ArialMT-74" transform="scale(0.015625)"/>
       <path d="M 422 -1272 
L 422 3319 
L 934 3319 
L 934 2888 
Q 1116 3141 1344 3267 
Q 1572 3394 1897 3394 
Q 2322 3394 2647 3175 
Q 2972 2956 3137 2557 
Q 3303 2159 3303 1684 
Q 3303 1175 3120 767 
Q 2938 359 2589 142 
Q 2241 -75 1856 -75 
Q 1575 -75 1351 44 
Q 1128 163 984 344 
L 984 -1272 
L 422 -1272 
z
M 931 1641 
Q 931 1000 1190 694 
Q 1450 388 1819 388 
Q 2194 388 2461 705 
Q 2728 1022 2728 1688 
Q 2728 2322 2467 2637 
Q 2206 2953 1844 2953 
Q 1484 2953 1207 2617 
Q 931 2281 931 1641 
z
" id="ArialMT-70" transform="scale(0.015625)"/>
       <path d="M 1497 -1347 
Q 1031 -759 709 28 
Q 388 816 388 1659 
Q 388 2403 628 3084 
Q 909 3875 1497 4659 
L 1900 4659 
Q 1522 4009 1400 3731 
Q 1209 3300 1100 2831 
Q 966 2247 966 1656 
Q 966 153 1900 -1347 
L 1497 -1347 
z
" id="ArialMT-28" transform="scale(0.015625)"/>
       <path d="M 400 3794 
Q 400 4153 654 4406 
Q 909 4659 1266 4659 
Q 1628 4659 1881 4406 
Q 2134 4153 2134 3794 
Q 2134 3434 1879 3179 
Q 1625 2925 1266 2925 
Q 909 2925 654 3178 
Q 400 3431 400 3794 
z
M 741 3794 
Q 741 3575 895 3420 
Q 1050 3266 1269 3266 
Q 1484 3266 1639 3420 
Q 1794 3575 1794 3794 
Q 1794 4013 1639 4167 
Q 1484 4322 1269 4322 
Q 1050 4322 895 4167 
Q 741 4013 741 3794 
z
" id="ArialMT-b0" transform="scale(0.015625)"/>
       <path d="M 791 -1347 
L 388 -1347 
Q 1322 153 1322 1656 
Q 1322 2244 1188 2822 
Q 1081 3291 891 3722 
Q 769 4003 388 4659 
L 791 4659 
Q 1378 3875 1659 3084 
Q 1900 2403 1900 1659 
Q 1900 816 1576 28 
Q 1253 -759 791 -1347 
z
" id="ArialMT-29" transform="scale(0.015625)"/>
      </defs>
      <use xlink:href="#ArialMT-57"/>
      <use x="90.634766" xlink:href="#ArialMT-61"/>
      <use x="146.25" xlink:href="#ArialMT-74"/>
      <use x="174.033203" xlink:href="#ArialMT-65"/>
      <use x="229.648438" xlink:href="#ArialMT-72"/>
      <use x="262.949219" xlink:href="#ArialMT-20"/>
      <use x="288.982422" xlink:href="#ArialMT-54"/>
      <use x="338.941406" xlink:href="#ArialMT-65"/>
      <use x="394.556641" xlink:href="#ArialMT-6d"/>
      <use x="477.857422" xlink:href="#ArialMT-70"/>
      <use x="533.472656" xlink:href="#ArialMT-20"/>
      <use x="561.255859" xlink:href="#ArialMT-28"/>
      <use x="594.556641" xlink:href="#ArialMT-b0"/>
      <use x="634.546875" xlink:href="#ArialMT-46"/>
      <use x="695.630859" xlink:href="#ArialMT-29"/>
     </g>
    </g>
   </g>
   <g id="line2d_17">
    <path clip-path="url(#peb2ee2fa8f)" d="M 184.581818 467.28 
L 196.442892 467.28 
L 198.137332 479.88 
L 199.831771 467.28 
L 201.52621 467.28 
L 203.220649 454.68 
L 206.609527 454.68 
L 208.303967 429.48 
L 209.998406 429.48 
L 211.692845 404.28 
L 213.387284 404.28 
L 216.776162 379.08 
L 220.165041 404.28 
L 221.85948 404.28 
L 223.553919 379.08 
L 226.942797 379.08 
L 228.637237 366.48 
L 230.331676 404.28 
L 232.026115 379.08 
L 233.720554 328.68 
L 235.414993 353.88 
L 237.109433 353.88 
L 238.803872 341.28 
L 240.498311 366.48 
L 242.19275 366.48 
L 243.887189 341.28 
L 248.970507 303.48 
L 252.359385 303.48 
L 254.053824 290.88 
L 257.442703 290.88 
L 259.137142 278.28 
L 260.831581 290.88 
L 264.220459 265.68 
L 265.914898 227.88 
L 267.609338 227.88 
L 269.303777 240.48 
L 270.998216 215.28 
L 274.387094 215.28 
L 276.081533 164.88 
L 277.775973 177.48 
L 279.470412 164.88 
L 282.85929 164.88 
L 284.553729 152.28 
L 286.248169 164.88 
L 287.942608 152.28 
L 289.637047 190.08 
L 291.331486 278.28 
L 293.025925 265.68 
L 294.720364 303.48 
L 298.109243 328.68 
L 299.803682 303.48 
L 303.19256 328.68 
L 304.886999 353.88 
L 309.970317 353.88 
L 311.664756 366.48 
L 313.359195 353.88 
L 315.053634 353.88 
L 316.748074 366.48 
L 318.442513 366.48 
L 320.136952 353.88 
L 323.52583 353.88 
L 331.998026 416.88 
L 333.692465 404.28 
L 335.386905 404.28 
L 337.081344 379.08 
L 338.775783 379.08 
L 340.470222 391.68 
L 343.8591 391.68 
L 345.55354 379.08 
L 347.247979 391.68 
L 362.497931 391.68 
L 365.88681 416.88 
L 367.581249 416.88 
L 374.359006 467.28 
L 377.747884 467.28 
L 379.442323 479.88 
L 381.136762 479.88 
L 382.831201 492.48 
L 386.22008 492.48 
L 387.914519 479.88 
L 389.608958 442.08 
L 392.997836 442.08 
L 394.692276 454.68 
L 396.386715 429.48 
L 399.775593 454.68 
L 403.164471 454.68 
L 404.858911 442.08 
L 406.55335 442.08 
L 409.942228 467.28 
L 411.636667 467.28 
L 413.331106 479.88 
L 418.414424 404.28 
L 420.108863 391.68 
L 421.803302 366.48 
L 423.497742 379.08 
L 425.192181 379.08 
L 426.88662 353.88 
L 430.275498 379.08 
L 431.969937 379.08 
L 433.664377 391.68 
L 440.442133 391.68 
L 442.136572 379.08 
L 445.525451 379.08 
L 447.21989 391.68 
L 448.914329 391.68 
L 450.608768 379.08 
L 452.303207 391.68 
L 465.858721 391.68 
L 467.55316 379.08 
L 472.636478 379.08 
L 474.330917 366.48 
L 479.414234 366.48 
L 481.108673 353.88 
L 489.580869 353.88 
L 491.275308 366.48 
L 492.969748 353.88 
L 494.664187 366.48 
L 499.747504 366.48 
L 501.441943 353.88 
L 503.136383 366.48 
L 506.525261 366.48 
L 508.2197 353.88 
L 509.914139 366.48 
L 511.608578 366.48 
L 513.303018 353.88 
L 514.997457 353.88 
L 516.691896 341.28 
L 521.775214 341.28 
L 523.469653 353.88 
L 525.164092 379.08 
L 526.858531 366.48 
L 530.247409 366.48 
L 531.941849 353.88 
L 542.108484 353.88 
L 543.802923 341.28 
L 545.497362 341.28 
L 547.191801 353.88 
L 550.580679 353.88 
L 553.969558 379.08 
L 557.358436 379.08 
L 559.052875 391.68 
L 564.136193 391.68 
L 567.525071 366.48 
L 575.997267 366.48 
L 577.691706 353.88 
L 579.386145 366.48 
L 581.080585 366.48 
L 582.775024 353.88 
L 587.858341 353.88 
L 589.55278 328.68 
L 591.24722 328.68 
L 594.636098 303.48 
L 596.330537 316.08 
L 599.719415 316.08 
L 603.108294 290.88 
L 604.802733 303.48 
L 606.497172 341.28 
L 609.88605 341.28 
L 611.58049 290.88 
L 613.274929 290.88 
L 616.663807 316.08 
L 618.358246 353.88 
L 620.052686 316.08 
L 621.747125 316.08 
L 623.441564 303.48 
L 626.830442 303.48 
L 628.524881 290.88 
L 630.219321 290.88 
L 631.91376 278.28 
L 635.302638 303.48 
L 638.691516 303.48 
L 640.385956 290.88 
L 642.080395 316.08 
L 643.774834 303.48 
L 645.469273 265.68 
L 647.163712 240.48 
L 648.858151 227.88 
L 650.552591 240.48 
L 655.635908 240.48 
L 657.330347 227.88 
L 664.108104 227.88 
L 667.496982 202.68 
L 670.885861 202.68 
L 672.5803 190.08 
L 674.274739 190.08 
L 675.969178 177.48 
L 677.663617 177.48 
L 679.358057 164.88 
L 682.746935 164.88 
L 686.135813 139.68 
L 687.830252 152.28 
L 689.524692 152.28 
L 691.219131 139.68 
L 692.91357 152.28 
L 696.302448 127.08 
L 699.691327 127.08 
L 701.385766 139.68 
L 703.080205 101.88 
L 704.774644 101.88 
L 706.469083 89.28 
L 708.163522 101.88 
L 711.552401 101.88 
L 713.24684 152.28 
L 714.941279 190.08 
L 718.330158 215.28 
L 720.024597 190.08 
L 721.719036 190.08 
L 725.107914 215.28 
L 726.802353 240.48 
L 730.191232 240.48 
L 733.58011 265.68 
L 735.274549 253.08 
L 742.052306 253.08 
L 743.746745 265.68 
L 745.441184 265.68 
L 747.135623 278.28 
L 748.830063 303.48 
L 750.524502 316.08 
L 752.218941 303.48 
L 753.91338 303.48 
L 755.607819 290.88 
L 758.996698 290.88 
L 760.691137 278.28 
L 762.385576 278.28 
L 764.080015 265.68 
L 769.163333 265.68 
L 770.857772 253.08 
L 777.635529 253.08 
L 779.329968 240.48 
L 782.718846 240.48 
L 784.413285 253.08 
L 787.802164 253.08 
L 789.496603 265.68 
L 791.191042 265.68 
L 792.885481 278.28 
L 794.57992 303.48 
L 796.274359 316.08 
L 797.968799 353.88 
L 799.663238 379.08 
L 801.357677 366.48 
L 803.052116 379.08 
L 806.440994 379.08 
L 808.135434 353.88 
L 811.524312 353.88 
L 813.218751 341.28 
L 816.60763 341.28 
L 818.302069 328.68 
L 823.385386 328.68 
L 825.079825 353.88 
L 826.774265 353.88 
L 828.468704 341.28 
L 830.163143 341.28 
L 831.857582 328.68 
L 838.635339 328.68 
L 840.329778 341.28 
L 843.718656 316.08 
L 860.663048 316.08 
L 862.357487 303.48 
L 864.051926 303.48 
L 865.746366 316.08 
L 897.94071 316.08 
L 899.635149 303.48 
L 909.801784 303.48 
L 911.496223 290.88 
L 913.190662 303.48 
L 928.440615 303.48 
L 933.523932 265.68 
L 936.912811 265.68 
L 938.60725 278.28 
L 945.385007 278.28 
L 947.079446 290.88 
L 948.773885 278.28 
L 974.190473 278.28 
L 975.884912 290.88 
L 977.579351 290.88 
L 979.27379 303.48 
L 980.968229 290.88 
L 982.662668 303.48 
L 984.357108 290.88 
L 986.051547 290.88 
L 987.745986 303.48 
L 989.440425 290.88 
L 991.134864 290.88 
L 992.829303 303.48 
L 996.218182 303.48 
L 996.218182 303.48 
" style="fill:none;stroke:#4c72b0;stroke-linecap:round;stroke-width:1.5;"/>
   </g>
   <g id="line2d_18">
    <path clip-path="url(#peb2ee2fa8f)" d="M 184.581818 474.21 
L 186.276257 473.58 
L 187.970697 472.32 
L 191.359575 468.54 
L 194.748453 463.5 
L 196.442892 460.35 
L 198.137332 456.57 
L 201.52621 447.75 
L 203.220649 443.97 
L 206.609527 437.67 
L 211.692845 424.44 
L 213.387284 419.4 
L 215.081723 416.25 
L 216.776162 411.21 
L 218.470602 404.28 
L 220.165041 398.61 
L 221.85948 393.57 
L 223.553919 387.9 
L 225.248358 383.49 
L 226.942797 380.34 
L 228.637237 375.93 
L 230.331676 372.15 
L 233.720554 363.33 
L 235.414993 359.55 
L 237.109433 355.14 
L 240.498311 343.8 
L 242.19275 339.39 
L 243.887189 334.35 
L 247.276068 325.53 
L 248.970507 318.6 
L 250.664946 311.04 
L 252.359385 306 
L 254.053824 300.33 
L 255.748263 293.4 
L 257.442703 287.1 
L 259.137142 279.54 
L 260.831581 269.46 
L 264.220459 253.08 
L 265.914898 245.52 
L 267.609338 238.59 
L 269.303777 231.03 
L 272.692655 217.17 
L 274.387094 212.13 
L 277.775973 210.87 
L 279.470412 211.5 
L 281.164851 213.39 
L 282.85929 216.54 
L 284.553729 220.32 
L 287.942608 229.14 
L 293.025925 249.93 
L 299.803682 287.73 
L 306.581439 328.05 
L 308.275878 336.24 
L 309.970317 340.65 
L 311.664756 346.32 
L 316.748074 359.55 
L 318.442513 364.59 
L 320.136952 369 
L 321.831391 371.52 
L 323.52583 372.78 
L 328.609148 378.45 
L 330.303587 379.08 
L 333.692465 382.86 
L 337.081344 385.38 
L 342.164661 391.05 
L 343.8591 392.31 
L 345.55354 392.94 
L 350.636857 392.94 
L 352.331296 393.57 
L 354.025735 394.83 
L 355.720175 397.98 
L 362.497931 413.1 
L 364.19237 418.14 
L 365.88681 422.55 
L 370.970127 437.67 
L 372.664566 442.08 
L 377.747884 449.64 
L 379.442323 452.79 
L 386.22008 460.35 
L 387.914519 461.61 
L 389.608958 461.61 
L 392.997836 460.35 
L 398.081154 460.35 
L 399.775593 459.09 
L 401.470032 455.94 
L 403.164471 451.53 
L 404.858911 446.49 
L 406.55335 440.82 
L 409.942228 434.52 
L 413.331106 425.7 
L 415.025546 423.18 
L 421.803302 410.58 
L 425.192181 405.54 
L 426.88662 401.76 
L 431.969937 388.53 
L 433.664377 385.38 
L 435.358816 382.86 
L 437.053255 382.23 
L 438.747694 382.23 
L 440.442133 383.49 
L 443.831012 384.75 
L 445.525451 386.64 
L 447.21989 387.9 
L 450.608768 389.16 
L 457.386525 386.64 
L 459.080964 385.38 
L 464.164282 383.49 
L 467.55316 379.71 
L 469.247599 378.45 
L 474.330917 372.78 
L 476.025356 371.52 
L 477.719795 369.63 
L 486.191991 363.33 
L 492.969748 360.81 
L 496.358626 360.81 
L 498.053065 360.18 
L 499.747504 360.18 
L 506.525261 357.66 
L 508.2197 357.66 
L 511.608578 358.92 
L 514.997457 358.92 
L 518.386335 357.66 
L 520.080774 357.66 
L 525.164092 355.77 
L 526.858531 355.77 
L 530.247409 353.25 
L 533.636288 353.25 
L 535.330727 353.88 
L 537.025166 355.14 
L 540.414044 358.92 
L 542.108484 360.18 
L 543.802923 360.81 
L 550.580679 365.85 
L 562.441754 370.26 
L 564.136193 371.52 
L 565.830632 372.15 
L 569.21951 372.15 
L 570.91395 371.52 
L 572.608389 370.26 
L 575.997267 365.22 
L 577.691706 361.44 
L 579.386145 357.03 
L 582.775024 349.47 
L 586.163902 343.17 
L 587.858341 339.39 
L 589.55278 336.24 
L 594.636098 332.46 
L 596.330537 329.31 
L 598.024976 325.53 
L 599.719415 322.38 
L 601.413855 320.49 
L 603.108294 320.49 
L 606.497172 316.71 
L 609.88605 314.19 
L 613.274929 312.93 
L 614.969368 311.67 
L 616.663807 309.78 
L 618.358246 308.52 
L 620.052686 308.52 
L 621.747125 309.15 
L 623.441564 309.15 
L 625.136003 306.63 
L 626.830442 305.37 
L 628.524881 303.48 
L 630.219321 302.22 
L 631.91376 299.7 
L 635.302638 292.14 
L 636.997077 286.47 
L 645.469273 267.57 
L 650.552591 258.12 
L 652.24703 253.71 
L 655.635908 243.63 
L 657.330347 237.96 
L 659.024786 232.92 
L 660.719226 225.99 
L 662.413665 219.69 
L 664.108104 214.65 
L 665.802543 210.87 
L 667.496982 207.72 
L 669.191422 203.31 
L 670.885861 198.27 
L 675.969178 185.04 
L 677.663617 181.26 
L 679.358057 176.85 
L 682.746935 166.77 
L 684.441374 162.36 
L 686.135813 159.21 
L 691.219131 144.09 
L 692.91357 139.68 
L 696.302448 132.12 
L 697.996887 131.49 
L 699.691327 132.75 
L 701.385766 134.64 
L 703.080205 137.79 
L 704.774644 140.31 
L 706.469083 142.2 
L 708.163522 144.72 
L 709.857962 148.5 
L 711.552401 152.91 
L 713.24684 157.95 
L 714.941279 163.62 
L 716.635718 169.92 
L 718.330158 176.85 
L 720.024597 182.52 
L 723.413475 197.64 
L 725.107914 205.83 
L 726.802353 213.39 
L 730.191232 229.77 
L 731.885671 236.07 
L 735.274549 247.41 
L 736.968988 251.82 
L 738.663428 257.49 
L 740.357867 262.53 
L 742.052306 266.94 
L 743.746745 270.72 
L 747.135623 274.5 
L 748.830063 275.76 
L 750.524502 276.39 
L 752.218941 276.39 
L 753.91338 277.02 
L 760.691137 277.02 
L 762.385576 276.39 
L 764.080015 275.13 
L 765.774454 273.24 
L 769.163333 266.94 
L 772.552211 261.9 
L 775.941089 259.38 
L 777.635529 258.75 
L 779.329968 260.01 
L 781.024407 261.9 
L 782.718846 266.31 
L 784.413285 271.98 
L 786.107724 277.02 
L 787.802164 282.69 
L 791.191042 295.29 
L 801.357677 325.53 
L 806.440994 336.87 
L 808.135434 340.02 
L 809.829873 344.43 
L 811.524312 348.21 
L 813.218751 350.1 
L 814.91319 351.36 
L 816.60763 350.1 
L 818.302069 347.58 
L 819.996508 345.69 
L 823.385386 340.65 
L 825.079825 338.76 
L 826.774265 337.5 
L 830.163143 333.72 
L 835.24646 329.94 
L 842.024217 327.42 
L 848.801974 319.86 
L 857.27417 316.71 
L 858.968609 315.45 
L 860.663048 314.82 
L 879.301879 314.82 
L 882.690757 316.08 
L 894.551831 311.67 
L 896.246271 310.41 
L 913.190662 304.11 
L 914.885102 302.85 
L 921.662858 295.29 
L 928.440615 290.25 
L 931.829493 288.99 
L 947.079446 277.65 
L 948.773885 277.02 
L 950.468324 277.02 
L 955.551642 278.91 
L 958.94052 278.91 
L 962.329398 280.17 
L 964.023838 281.43 
L 965.718277 281.43 
L 967.412716 282.69 
L 970.801594 283.95 
L 972.496033 285.21 
L 975.884912 286.47 
L 980.968229 290.25 
L 980.968229 290.25 
" style="fill:none;stroke:#dd8452;stroke-dasharray:6,2.25;stroke-dashoffset:0;stroke-width:1.5;"/>
   </g>
   <g id="line2d_19"/>
   <g id="line2d_20"/>
   <g id="patch_3">
    <path d="M 144 512.64 
L 144 69.12 
" style="fill:none;stroke:#ffffff;stroke-linecap:square;stroke-linejoin:miter;stroke-width:1.25;"/>
   </g>
   <g id="patch_4">
    <path d="M 1036.8 512.64 
L 1036.8 69.12 
" style="fill:none;stroke:#ffffff;stroke-linecap:square;stroke-linejoin:miter;stroke-width:1.25;"/>
   </g>
   <g id="patch_5">
    <path d="M 144 512.64 
L 1036.8 512.64 
" style="fill:none;stroke:#ffffff;stroke-linecap:square;stroke-linejoin:miter;stroke-width:1.25;"/>
   </g>
   <g id="patch_6">
    <path d="M 144 69.12 
L 1036.8 69.12 
" style="fill:none;stroke:#ffffff;stroke-linecap:square;stroke-linejoin:miter;stroke-width:1.25;"/>
   </g>
   <g id="text_19">
    <!-- 48-hour, live -->
    <g style="fill:#262626;" transform="translate(541.3725 63.12)scale(0.18 -0.18)">
     <defs>
      <path d="M 2069 0 
L 2069 1097 
L 81 1097 
L 81 1613 
L 2172 4581 
L 2631 4581 
L 2631 1613 
L 3250 1613 
L 3250 1097 
L 2631 1097 
L 2631 0 
L 2069 0 
z
M 2069 1613 
L 2069 3678 
L 634 1613 
L 2069 1613 
z
" id="ArialMT-34" transform="scale(0.015625)"/>
      <path d="M 1131 2484 
Q 781 2613 612 2850 
Q 444 3088 444 3419 
Q 444 3919 803 4259 
Q 1163 4600 1759 4600 
Q 2359 4600 2725 4251 
Q 3091 3903 3091 3403 
Q 3091 3084 2923 2848 
Q 2756 2613 2416 2484 
Q 2838 2347 3058 2040 
Q 3278 1734 3278 1309 
Q 3278 722 2862 322 
Q 2447 -78 1769 -78 
Q 1091 -78 675 323 
Q 259 725 259 1325 
Q 259 1772 486 2073 
Q 713 2375 1131 2484 
z
M 1019 3438 
Q 1019 3113 1228 2906 
Q 1438 2700 1772 2700 
Q 2097 2700 2305 2904 
Q 2513 3109 2513 3406 
Q 2513 3716 2298 3927 
Q 2084 4138 1766 4138 
Q 1444 4138 1231 3931 
Q 1019 3725 1019 3438 
z
M 838 1322 
Q 838 1081 952 856 
Q 1066 631 1291 507 
Q 1516 384 1775 384 
Q 2178 384 2440 643 
Q 2703 903 2703 1303 
Q 2703 1709 2433 1975 
Q 2163 2241 1756 2241 
Q 1359 2241 1098 1978 
Q 838 1716 838 1322 
z
" id="ArialMT-38" transform="scale(0.015625)"/>
      <path d="M 203 1375 
L 203 1941 
L 1931 1941 
L 1931 1375 
L 203 1375 
z
" id="ArialMT-2d" transform="scale(0.015625)"/>
      <path d="M 213 1659 
Q 213 2581 725 3025 
Q 1153 3394 1769 3394 
Q 2453 3394 2887 2945 
Q 3322 2497 3322 1706 
Q 3322 1066 3130 698 
Q 2938 331 2570 128 
Q 2203 -75 1769 -75 
Q 1072 -75 642 372 
Q 213 819 213 1659 
z
M 791 1659 
Q 791 1022 1069 705 
Q 1347 388 1769 388 
Q 2188 388 2466 706 
Q 2744 1025 2744 1678 
Q 2744 2294 2464 2611 
Q 2184 2928 1769 2928 
Q 1347 2928 1069 2612 
Q 791 2297 791 1659 
z
" id="ArialMT-6f" transform="scale(0.015625)"/>
      <path d="M 569 0 
L 569 641 
L 1209 641 
L 1209 0 
Q 1209 -353 1084 -570 
Q 959 -788 688 -906 
L 531 -666 
Q 709 -588 793 -436 
Q 878 -284 888 0 
L 569 0 
z
" id="ArialMT-2c" transform="scale(0.015625)"/>
      <path d="M 409 0 
L 409 4581 
L 972 4581 
L 972 0 
L 409 0 
z
" id="ArialMT-6c" transform="scale(0.015625)"/>
      <path d="M 1344 0 
L 81 3319 
L 675 3319 
L 1388 1331 
Q 1503 1009 1600 663 
Q 1675 925 1809 1294 
L 2547 3319 
L 3125 3319 
L 1869 0 
L 1344 0 
z
" id="ArialMT-76" transform="scale(0.015625)"/>
     </defs>
     <use xlink:href="#ArialMT-34"/>
     <use x="55.615234" xlink:href="#ArialMT-38"/>
     <use x="111.230469" xlink:href="#ArialMT-2d"/>
     <use x="144.53125" xlink:href="#ArialMT-68"/>
     <use x="200.146484" xlink:href="#ArialMT-6f"/>
     <use x="255.761719" xlink:href="#ArialMT-75"/>
     <use x="311.376953" xlink:href="#ArialMT-72"/>
     <use x="339.177734" xlink:href="#ArialMT-2c"/>
     <use x="366.960938" xlink:href="#ArialMT-20"/>
     <use x="394.744141" xlink:href="#ArialMT-6c"/>
     <use x="416.960938" xlink:href="#ArialMT-69"/>
     <use x="439.177734" xlink:href="#ArialMT-76"/>
     <use x="489.177734" xlink:href="#ArialMT-65"/>
    </g>
   </g>
   <g id="legend_1">
    <g id="patch_7">
     <path d="M 938.889688 109.302656 
L 1029.1 109.302656 
Q 1031.3 109.302656 1031.3 107.102656 
L 1031.3 76.82 
Q 1031.3 74.62 1029.1 74.62 
L 938.889688 74.62 
Q 936.689687 74.62 936.689687 76.82 
L 936.689687 107.102656 
Q 936.689687 109.302656 938.889688 109.302656 
z
" style="fill:#eaeaf2;opacity:0.8;stroke:#cccccc;stroke-linejoin:miter;"/>
    </g>
    <g id="line2d_21">
     <path d="M 941.089687 83.043594 
L 963.089687 83.043594 
" style="fill:none;stroke:#4c72b0;stroke-linecap:round;stroke-width:1.5;"/>
    </g>
    <g id="line2d_22"/>
    <g id="text_20">
     <!-- live -->
     <g style="fill:#262626;" transform="translate(971.889687 86.893594)scale(0.11 -0.11)">
      <use xlink:href="#ArialMT-6c"/>
      <use x="22.216797" xlink:href="#ArialMT-69"/>
      <use x="44.433594" xlink:href="#ArialMT-76"/>
      <use x="94.433594" xlink:href="#ArialMT-65"/>
     </g>
    </g>
    <g id="line2d_23">
     <path d="M 941.089687 98.7375 
L 963.089687 98.7375 
" style="fill:none;stroke:#dd8452;stroke-dasharray:6,2.25;stroke-dashoffset:0;stroke-width:1.5;"/>
    </g>
    <g id="line2d_24"/>
    <g id="text_21">
     <!-- trend (2-hr) -->
     <g style="fill:#262626;" transform="translate(971.889687 102.5875)scale(0.11 -0.11)">
      <defs>
       <path d="M 422 0 
L 422 3319 
L 928 3319 
L 928 2847 
Q 1294 3394 1984 3394 
Q 2284 3394 2536 3286 
Q 2788 3178 2913 3003 
Q 3038 2828 3088 2588 
Q 3119 2431 3119 2041 
L 3119 0 
L 2556 0 
L 2556 2019 
Q 2556 2363 2490 2533 
Q 2425 2703 2258 2804 
Q 2091 2906 1866 2906 
Q 1506 2906 1245 2678 
Q 984 2450 984 1813 
L 984 0 
L 422 0 
z
" id="ArialMT-6e" transform="scale(0.015625)"/>
      </defs>
      <use xlink:href="#ArialMT-74"/>
      <use x="27.783203" xlink:href="#ArialMT-72"/>
      <use x="61.083984" xlink:href="#ArialMT-65"/>
      <use x="116.699219" xlink:href="#ArialMT-6e"/>
      <use x="172.314453" xlink:href="#ArialMT-64"/>
      <use x="227.929688" xlink:href="#ArialMT-20"/>
      <use x="255.712891" xlink:href="#ArialMT-28"/>
      <use x="289.013672" xlink:href="#ArialMT-32"/>
      <use x="344.628906" xlink:href="#ArialMT-2d"/>
      <use x="377.929688" xlink:href="#ArialMT-68"/>
      <use x="433.544922" xlink:href="#ArialMT-72"/>
      <use x="466.845703" xlink:href="#ArialMT-29"/>
     </g>
    </g>
   </g>
  </g>
  <g id="text_22">
   <!-- Battery NYC Water Temperature -->
   <g style="fill:#262626;" transform="translate(403.951875 28.99125)scale(0.24 -0.24)">
    <defs>
     <path d="M 469 0 
L 469 4581 
L 2188 4581 
Q 2713 4581 3030 4442 
Q 3347 4303 3526 4014 
Q 3706 3725 3706 3409 
Q 3706 3116 3547 2856 
Q 3388 2597 3066 2438 
Q 3481 2316 3704 2022 
Q 3928 1728 3928 1328 
Q 3928 1006 3792 729 
Q 3656 453 3456 303 
Q 3256 153 2954 76 
Q 2653 0 2216 0 
L 469 0 
z
M 1075 2656 
L 2066 2656 
Q 2469 2656 2644 2709 
Q 2875 2778 2992 2937 
Q 3109 3097 3109 3338 
Q 3109 3566 3000 3739 
Q 2891 3913 2687 3977 
Q 2484 4041 1991 4041 
L 1075 4041 
L 1075 2656 
z
M 1075 541 
L 2216 541 
Q 2509 541 2628 563 
Q 2838 600 2978 687 
Q 3119 775 3209 942 
Q 3300 1109 3300 1328 
Q 3300 1584 3169 1773 
Q 3038 1963 2805 2039 
Q 2572 2116 2134 2116 
L 1075 2116 
L 1075 541 
z
" id="ArialMT-42" transform="scale(0.015625)"/>
     <path d="M 397 -1278 
L 334 -750 
Q 519 -800 656 -800 
Q 844 -800 956 -737 
Q 1069 -675 1141 -563 
Q 1194 -478 1313 -144 
Q 1328 -97 1363 -6 
L 103 3319 
L 709 3319 
L 1400 1397 
Q 1534 1031 1641 628 
Q 1738 1016 1872 1384 
L 2581 3319 
L 3144 3319 
L 1881 -56 
Q 1678 -603 1566 -809 
Q 1416 -1088 1222 -1217 
Q 1028 -1347 759 -1347 
Q 597 -1347 397 -1278 
z
" id="ArialMT-79" transform="scale(0.015625)"/>
     <path d="M 488 0 
L 488 4581 
L 1109 4581 
L 3516 984 
L 3516 4581 
L 4097 4581 
L 4097 0 
L 3475 0 
L 1069 3600 
L 1069 0 
L 488 0 
z
" id="ArialMT-4e" transform="scale(0.015625)"/>
     <path d="M 1784 0 
L 1784 1941 
L 19 4581 
L 756 4581 
L 1659 3200 
Q 1909 2813 2125 2425 
Q 2331 2784 2625 3234 
L 3513 4581 
L 4219 4581 
L 2391 1941 
L 2391 0 
L 1784 0 
z
" id="ArialMT-59" transform="scale(0.015625)"/>
     <path d="M 3763 1606 
L 4369 1453 
Q 4178 706 3683 314 
Q 3188 -78 2472 -78 
Q 1731 -78 1267 223 
Q 803 525 561 1097 
Q 319 1669 319 2325 
Q 319 3041 592 3573 
Q 866 4106 1370 4382 
Q 1875 4659 2481 4659 
Q 3169 4659 3637 4309 
Q 4106 3959 4291 3325 
L 3694 3184 
Q 3534 3684 3231 3912 
Q 2928 4141 2469 4141 
Q 1941 4141 1586 3887 
Q 1231 3634 1087 3207 
Q 944 2781 944 2328 
Q 944 1744 1114 1308 
Q 1284 872 1643 656 
Q 2003 441 2422 441 
Q 2931 441 3284 734 
Q 3638 1028 3763 1606 
z
" id="ArialMT-43" transform="scale(0.015625)"/>
    </defs>
    <use xlink:href="#ArialMT-42"/>
    <use x="66.699219" xlink:href="#ArialMT-61"/>
    <use x="122.314453" xlink:href="#ArialMT-74"/>
    <use x="150.097656" xlink:href="#ArialMT-74"/>
    <use x="177.880859" xlink:href="#ArialMT-65"/>
    <use x="233.496094" xlink:href="#ArialMT-72"/>
    <use x="266.796875" xlink:href="#ArialMT-79"/>
    <use x="316.796875" xlink:href="#ArialMT-20"/>
    <use x="344.580078" xlink:href="#ArialMT-4e"/>
    <use x="416.796875" xlink:href="#ArialMT-59"/>
    <use x="483.496094" xlink:href="#ArialMT-43"/>
    <use x="555.712891" xlink:href="#ArialMT-20"/>
    <use x="583.496094" xlink:href="#ArialMT-57"/>
    <use x="674.130859" xlink:href="#ArialMT-61"/>
    <use x="729.746094" xlink:href="#ArialMT-74"/>
    <use x="757.529297" xlink:href="#ArialMT-65"/>
    <use x="813.144531" xlink:href="#ArialMT-72"/>
    <use x="846.445312" xlink:href="#ArialMT-20"/>
    <use x="872.478516" xlink:href="#ArialMT-54"/>
    <use x="922.4375" xlink:href="#ArialMT-65"/>
    <use x="978.052734" xlink:href="#ArialMT-6d"/>
    <use x="1061.353516" xlink:href="#ArialMT-70"/>
    <use x="1116.96875" xlink:href="#ArialMT-65"/>
    <use x="1172.583984" xlink:href="#ArialMT-72"/>
    <use x="1205.884766" xlink:href="#ArialMT-61"/>
    <use x="1261.5" xlink:href="#ArialMT-74"/>
    <use x="1289.283203" xlink:href="#ArialMT-75"/>
    <use x="1344.898438" xlink:href="#ArialMT-72"/>
    <use x="1378.199219" xlink:href="#ArialMT-65"/>
   </g>
  </g>
 </g>
 <defs>
  <clipPath id="peb2ee2fa8f">
   <rect height="443.52" width="892.8" x="144" y="69.12"/>
  </clipPath>
 </defs>
</svg>
