<?xml version="1.0" encoding="utf-8" standalone="no"?>
<!DOCTYPE svg PUBLIC "-//W3C//DTD SVG 1.1//EN"
  "http://www.w3.org/Graphics/SVG/1.1/DTD/svg11.dtd">
<svg xmlns:xlink="http://www.w3.org/1999/xlink" width="1152pt" height="576pt" viewBox="0 0 1152 576" xmlns="http://www.w3.org/2000/svg" version="1.1">
 <metadata>
  <rdf:RDF xmlns:dc="http://purl.org/dc/elements/1.1/" xmlns:cc="http://creativecommons.org/ns#" xmlns:rdf="http://www.w3.org/1999/02/22-rdf-syntax-ns#">
   <cc:Work>
    <dc:type rdf:resource="http://purl.org/dc/dcmitype/StillImage"/>
    <dc:date>2021-12-30T13:41:07.396987</dc:date>
    <dc:format>image/svg+xml</dc:format>
    <dc:creator>
     <cc:Agent>
      <dc:title>Matplotlib v3.5.1, https://matplotlib.org/</dc:title>
     </cc:Agent>
    </dc:creator>
   </cc:Work>
  </rdf:RDF>
 </metadata>
 <defs>
  <style type="text/css">*{stroke-linejoin: round; stroke-linecap: butt}</style>
 </defs>
 <g id="figure_1">
  <g id="patch_1">
   <path d="M 0 576 
L 1152 576 
L 1152 0 
L 0 0 
z
" style="fill: #ffffff"/>
  </g>
  <g id="axes_1">
   <g id="patch_2">
    <path d="M 144 512.64 
L 1036.8 512.64 
L 1036.8 69.12 
L 144 69.12 
z
" style="fill: #eaeaf2"/>
   </g>
   <g id="matplotlib.axis_1">
    <g id="xtick_1">
     <g id="line2d_1">
      <path d="M 157.470791 512.64 
L 157.470791 69.12 
" clip-path="url(#pef6b6698a1)" style="fill: none; stroke: #ffffff; stroke-linecap: round"/>
     </g>
     <g id="text_1">
      <!-- Tue 12 PM -->
      <g style="fill: #262626" transform="translate(130.777745 530.013594)scale(0.11 -0.11)">
       <defs>
        <path id="ArialMT-54" d="M 1659 0 
L 1659 4041 
L 150 4041 
L 150 4581 
L 3781 4581 
L 3781 4041 
L 2266 4041 
L 2266 0 
L 1659 0 
z
" transform="scale(0.015625)"/>
        <path id="ArialMT-75" d="M 2597 0 
L 2597 488 
Q 2209 -75 1544 -75 
Q 1250 -75 995 37 
Q 741 150 617 320 
Q 494 491 444 738 
Q 409 903 409 1263 
L 409 3319 
L 972 3319 
L 972 1478 
Q 972 1038 1006 884 
Q 1059 663 1231 536 
Q 1403 409 1656 409 
Q 1909 409 2131 539 
Q 2353 669 2445 892 
Q 2538 1116 2538 1541 
L 2538 3319 
L 3100 3319 
L 3100 0 
L 2597 0 
z
" transform="scale(0.015625)"/>
        <path id="ArialMT-65" d="M 2694 1069 
L 3275 997 
Q 3138 488 2766 206 
Q 2394 -75 1816 -75 
Q 1088 -75 661 373 
Q 234 822 234 1631 
Q 234 2469 665 2931 
Q 1097 3394 1784 3394 
Q 2450 3394 2872 2941 
Q 3294 2488 3294 1666 
Q 3294 1616 3291 1516 
L 816 1516 
Q 847 969 1125 678 
Q 1403 388 1819 388 
Q 2128 388 2347 550 
Q 2566 713 2694 1069 
z
M 847 1978 
L 2700 1978 
Q 2663 2397 2488 2606 
Q 2219 2931 1791 2931 
Q 1403 2931 1139 2672 
Q 875 2413 847 1978 
z
" transform="scale(0.015625)"/>
        <path id="ArialMT-20" transform="scale(0.015625)"/>
        <path id="ArialMT-31" d="M 2384 0 
L 1822 0 
L 1822 3584 
Q 1619 3391 1289 3197 
Q 959 3003 697 2906 
L 697 3450 
Q 1169 3672 1522 3987 
Q 1875 4303 2022 4600 
L 2384 4600 
L 2384 0 
z
" transform="scale(0.015625)"/>
        <path id="ArialMT-32" d="M 3222 541 
L 3222 0 
L 194 0 
Q 188 203 259 391 
Q 375 700 629 1000 
Q 884 1300 1366 1694 
Q 2113 2306 2375 2664 
Q 2638 3022 2638 3341 
Q 2638 3675 2398 3904 
Q 2159 4134 1775 4134 
Q 1369 4134 1125 3890 
Q 881 3647 878 3216 
L 300 3275 
Q 359 3922 746 4261 
Q 1134 4600 1788 4600 
Q 2447 4600 2831 4234 
Q 3216 3869 3216 3328 
Q 3216 3053 3103 2787 
Q 2991 2522 2730 2228 
Q 2469 1934 1863 1422 
Q 1356 997 1212 845 
Q 1069 694 975 541 
L 3222 541 
z
" transform="scale(0.015625)"/>
        <path id="ArialMT-50" d="M 494 0 
L 494 4581 
L 2222 4581 
Q 2678 4581 2919 4538 
Q 3256 4481 3484 4323 
Q 3713 4166 3852 3881 
Q 3991 3597 3991 3256 
Q 3991 2672 3619 2267 
Q 3247 1863 2275 1863 
L 1100 1863 
L 1100 0 
L 494 0 
z
M 1100 2403 
L 2284 2403 
Q 2872 2403 3119 2622 
Q 3366 2841 3366 3238 
Q 3366 3525 3220 3729 
Q 3075 3934 2838 4000 
Q 2684 4041 2272 4041 
L 1100 4041 
L 1100 2403 
z
" transform="scale(0.015625)"/>
        <path id="ArialMT-4d" d="M 475 0 
L 475 4581 
L 1388 4581 
L 2472 1338 
Q 2622 884 2691 659 
Q 2769 909 2934 1394 
L 4031 4581 
L 4847 4581 
L 4847 0 
L 4263 0 
L 4263 3834 
L 2931 0 
L 2384 0 
L 1059 3900 
L 1059 0 
L 475 0 
z
" transform="scale(0.015625)"/>
       </defs>
       <use xlink:href="#ArialMT-54"/>
       <use xlink:href="#ArialMT-75" x="57.333984"/>
       <use xlink:href="#ArialMT-65" x="112.949219"/>
       <use xlink:href="#ArialMT-20" x="168.564453"/>
       <use xlink:href="#ArialMT-31" x="196.347656"/>
       <use xlink:href="#ArialMT-32" x="251.962891"/>
       <use xlink:href="#ArialMT-20" x="307.578125"/>
       <use xlink:href="#ArialMT-50" x="335.361328"/>
       <use xlink:href="#ArialMT-4d" x="402.060547"/>
      </g>
     </g>
    </g>
    <g id="xtick_2">
     <g id="line2d_2">
      <path d="M 259.137142 512.64 
L 259.137142 69.12 
" clip-path="url(#pef6b6698a1)" style="fill: none; stroke: #ffffff; stroke-linecap: round"/>
     </g>
     <g id="text_2">
      <!-- Tue 6 PM -->
      <g style="fill: #262626" transform="translate(235.502611 530.013594)scale(0.11 -0.11)">
       <defs>
        <path id="ArialMT-36" d="M 3184 3459 
L 2625 3416 
Q 2550 3747 2413 3897 
Q 2184 4138 1850 4138 
Q 1581 4138 1378 3988 
Q 1113 3794 959 3422 
Q 806 3050 800 2363 
Q 1003 2672 1297 2822 
Q 1591 2972 1913 2972 
Q 2475 2972 2870 2558 
Q 3266 2144 3266 1488 
Q 3266 1056 3080 686 
Q 2894 316 2569 119 
Q 2244 -78 1831 -78 
Q 1128 -78 684 439 
Q 241 956 241 2144 
Q 241 3472 731 4075 
Q 1159 4600 1884 4600 
Q 2425 4600 2770 4297 
Q 3116 3994 3184 3459 
z
M 888 1484 
Q 888 1194 1011 928 
Q 1134 663 1356 523 
Q 1578 384 1822 384 
Q 2178 384 2434 671 
Q 2691 959 2691 1453 
Q 2691 1928 2437 2201 
Q 2184 2475 1800 2475 
Q 1419 2475 1153 2201 
Q 888 1928 888 1484 
z
" transform="scale(0.015625)"/>
       </defs>
       <use xlink:href="#ArialMT-54"/>
       <use xlink:href="#ArialMT-75" x="57.333984"/>
       <use xlink:href="#ArialMT-65" x="112.949219"/>
       <use xlink:href="#ArialMT-20" x="168.564453"/>
       <use xlink:href="#ArialMT-36" x="196.347656"/>
       <use xlink:href="#ArialMT-20" x="251.962891"/>
       <use xlink:href="#ArialMT-50" x="279.746094"/>
       <use xlink:href="#ArialMT-4d" x="346.445312"/>
      </g>
     </g>
    </g>
    <g id="xtick_3">
     <g id="line2d_3">
      <path d="M 360.803492 512.64 
L 360.803492 69.12 
" clip-path="url(#pef6b6698a1)" style="fill: none; stroke: #ffffff; stroke-linecap: round"/>
     </g>
     <g id="text_3">
      <!-- Wed 12 AM -->
      <g style="fill: #262626" transform="translate(332.470758 530.013594)scale(0.11 -0.11)">
       <defs>
        <path id="ArialMT-57" d="M 1294 0 
L 78 4581 
L 700 4581 
L 1397 1578 
Q 1509 1106 1591 641 
Q 1766 1375 1797 1488 
L 2669 4581 
L 3400 4581 
L 4056 2263 
Q 4303 1400 4413 641 
Q 4500 1075 4641 1638 
L 5359 4581 
L 5969 4581 
L 4713 0 
L 4128 0 
L 3163 3491 
Q 3041 3928 3019 4028 
Q 2947 3713 2884 3491 
L 1913 0 
L 1294 0 
z
" transform="scale(0.015625)"/>
        <path id="ArialMT-64" d="M 2575 0 
L 2575 419 
Q 2259 -75 1647 -75 
Q 1250 -75 917 144 
Q 584 363 401 755 
Q 219 1147 219 1656 
Q 219 2153 384 2558 
Q 550 2963 881 3178 
Q 1213 3394 1622 3394 
Q 1922 3394 2156 3267 
Q 2391 3141 2538 2938 
L 2538 4581 
L 3097 4581 
L 3097 0 
L 2575 0 
z
M 797 1656 
Q 797 1019 1065 703 
Q 1334 388 1700 388 
Q 2069 388 2326 689 
Q 2584 991 2584 1609 
Q 2584 2291 2321 2609 
Q 2059 2928 1675 2928 
Q 1300 2928 1048 2622 
Q 797 2316 797 1656 
z
" transform="scale(0.015625)"/>
        <path id="ArialMT-41" d="M -9 0 
L 1750 4581 
L 2403 4581 
L 4278 0 
L 3588 0 
L 3053 1388 
L 1138 1388 
L 634 0 
L -9 0 
z
M 1313 1881 
L 2866 1881 
L 2388 3150 
Q 2169 3728 2063 4100 
Q 1975 3659 1816 3225 
L 1313 1881 
z
" transform="scale(0.015625)"/>
       </defs>
       <use xlink:href="#ArialMT-57"/>
       <use xlink:href="#ArialMT-65" x="92.634766"/>
       <use xlink:href="#ArialMT-64" x="148.25"/>
       <use xlink:href="#ArialMT-20" x="203.865234"/>
       <use xlink:href="#ArialMT-31" x="231.648438"/>
       <use xlink:href="#ArialMT-32" x="287.263672"/>
       <use xlink:href="#ArialMT-20" x="342.878906"/>
       <use xlink:href="#ArialMT-41" x="365.162109"/>
       <use xlink:href="#ArialMT-4d" x="431.861328"/>
      </g>
     </g>
    </g>
    <g id="xtick_4">
     <g id="line2d_4">
      <path d="M 462.469842 512.64 
L 462.469842 69.12 
" clip-path="url(#pef6b6698a1)" style="fill: none; stroke: #ffffff; stroke-linecap: round"/>
     </g>
     <g id="text_4">
      <!-- Wed 6 AM -->
      <g style="fill: #262626" transform="translate(437.195624 530.013594)scale(0.11 -0.11)">
       <use xlink:href="#ArialMT-57"/>
       <use xlink:href="#ArialMT-65" x="92.634766"/>
       <use xlink:href="#ArialMT-64" x="148.25"/>
       <use xlink:href="#ArialMT-20" x="203.865234"/>
       <use xlink:href="#ArialMT-36" x="231.648438"/>
       <use xlink:href="#ArialMT-20" x="287.263672"/>
       <use xlink:href="#ArialMT-41" x="309.546875"/>
       <use xlink:href="#ArialMT-4d" x="376.246094"/>
      </g>
     </g>
    </g>
    <g id="xtick_5">
     <g id="line2d_5">
      <path d="M 564.136193 512.64 
L 564.136193 69.12 
" clip-path="url(#pef6b6698a1)" style="fill: none; stroke: #ffffff; stroke-linecap: round"/>
     </g>
     <g id="text_5">
      <!-- Wed 12 PM -->
      <g style="fill: #262626" transform="translate(535.500958 530.013594)scale(0.11 -0.11)">
       <use xlink:href="#ArialMT-57"/>
       <use xlink:href="#ArialMT-65" x="92.634766"/>
       <use xlink:href="#ArialMT-64" x="148.25"/>
       <use xlink:href="#ArialMT-20" x="203.865234"/>
       <use xlink:href="#ArialMT-31" x="231.648438"/>
       <use xlink:href="#ArialMT-32" x="287.263672"/>
       <use xlink:href="#ArialMT-20" x="342.878906"/>
       <use xlink:href="#ArialMT-50" x="370.662109"/>
       <use xlink:href="#ArialMT-4d" x="437.361328"/>
      </g>
     </g>
    </g>
    <g id="xtick_6">
     <g id="line2d_6">
      <path d="M 665.802543 512.64 
L 665.802543 69.12 
" clip-path="url(#pef6b6698a1)" style="fill: none; stroke: #ffffff; stroke-linecap: round"/>
     </g>
     <g id="text_6">
      <!-- Wed 6 PM -->
      <g style="fill: #262626" transform="translate(640.225824 530.013594)scale(0.11 -0.11)">
       <use xlink:href="#ArialMT-57"/>
       <use xlink:href="#ArialMT-65" x="92.634766"/>
       <use xlink:href="#ArialMT-64" x="148.25"/>
       <use xlink:href="#ArialMT-20" x="203.865234"/>
       <use xlink:href="#ArialMT-36" x="231.648438"/>
       <use xlink:href="#ArialMT-20" x="287.263672"/>
       <use xlink:href="#ArialMT-50" x="315.046875"/>
       <use xlink:href="#ArialMT-4d" x="381.746094"/>
      </g>
     </g>
    </g>
    <g id="xtick_7">
     <g id="line2d_7">
      <path d="M 767.468894 512.64 
L 767.468894 69.12 
" clip-path="url(#pef6b6698a1)" style="fill: none; stroke: #ffffff; stroke-linecap: round"/>
     </g>
     <g id="text_7">
      <!-- Thu 12 AM -->
      <g style="fill: #262626" transform="translate(740.872097 530.013594)scale(0.11 -0.11)">
       <defs>
        <path id="ArialMT-68" d="M 422 0 
L 422 4581 
L 984 4581 
L 984 2938 
Q 1378 3394 1978 3394 
Q 2347 3394 2619 3248 
Q 2891 3103 3008 2847 
Q 3125 2591 3125 2103 
L 3125 0 
L 2563 0 
L 2563 2103 
Q 2563 2525 2380 2717 
Q 2197 2909 1863 2909 
Q 1613 2909 1392 2779 
Q 1172 2650 1078 2428 
Q 984 2206 984 1816 
L 984 0 
L 422 0 
z
" transform="scale(0.015625)"/>
       </defs>
       <use xlink:href="#ArialMT-54"/>
       <use xlink:href="#ArialMT-68" x="61.083984"/>
       <use xlink:href="#ArialMT-75" x="116.699219"/>
       <use xlink:href="#ArialMT-20" x="172.314453"/>
       <use xlink:href="#ArialMT-31" x="200.097656"/>
       <use xlink:href="#ArialMT-32" x="255.712891"/>
       <use xlink:href="#ArialMT-20" x="311.328125"/>
       <use xlink:href="#ArialMT-41" x="333.611328"/>
       <use xlink:href="#ArialMT-4d" x="400.310547"/>
      </g>
     </g>
    </g>
    <g id="xtick_8">
     <g id="line2d_8">
      <path d="M 869.135244 512.64 
L 869.135244 69.12 
" clip-path="url(#pef6b6698a1)" style="fill: none; stroke: #ffffff; stroke-linecap: round"/>
     </g>
     <g id="text_8">
      <!-- Thu 6 AM -->
      <g style="fill: #262626" transform="translate(845.596963 530.013594)scale(0.11 -0.11)">
       <use xlink:href="#ArialMT-54"/>
       <use xlink:href="#ArialMT-68" x="61.083984"/>
       <use xlink:href="#ArialMT-75" x="116.699219"/>
       <use xlink:href="#ArialMT-20" x="172.314453"/>
       <use xlink:href="#ArialMT-36" x="200.097656"/>
       <use xlink:href="#ArialMT-20" x="255.712891"/>
       <use xlink:href="#ArialMT-41" x="277.996094"/>
       <use xlink:href="#ArialMT-4d" x="344.695312"/>
      </g>
     </g>
    </g>
    <g id="xtick_9">
     <g id="line2d_9">
      <path d="M 970.801594 512.64 
L 970.801594 69.12 
" clip-path="url(#pef6b6698a1)" style="fill: none; stroke: #ffffff; stroke-linecap: round"/>
     </g>
     <g id="text_9">
      <!-- Thu 12 PM -->
      <g style="fill: #262626" transform="translate(943.902297 530.013594)scale(0.11 -0.11)">
       <use xlink:href="#ArialMT-54"/>
       <use xlink:href="#ArialMT-68" x="61.083984"/>
       <use xlink:href="#ArialMT-75" x="116.699219"/>
       <use xlink:href="#ArialMT-20" x="172.314453"/>
       <use xlink:href="#ArialMT-31" x="200.097656"/>
       <use xlink:href="#ArialMT-32" x="255.712891"/>
       <use xlink:href="#ArialMT-20" x="311.328125"/>
       <use xlink:href="#ArialMT-50" x="339.111328"/>
       <use xlink:href="#ArialMT-4d" x="405.810547"/>
      </g>
     </g>
    </g>
    <g id="text_10">
     <!-- Time -->
     <g style="fill: #262626" transform="translate(570.739219 549.083906)scale(0.18 -0.18)">
      <defs>
       <path id="ArialMT-69" d="M 425 3934 
L 425 4581 
L 988 4581 
L 988 3934 
L 425 3934 
z
M 425 0 
L 425 3319 
L 988 3319 
L 988 0 
L 425 0 
z
" transform="scale(0.015625)"/>
       <path id="ArialMT-6d" d="M 422 0 
L 422 3319 
L 925 3319 
L 925 2853 
Q 1081 3097 1340 3245 
Q 1600 3394 1931 3394 
Q 2300 3394 2536 3241 
Q 2772 3088 2869 2813 
Q 3263 3394 3894 3394 
Q 4388 3394 4653 3120 
Q 4919 2847 4919 2278 
L 4919 0 
L 4359 0 
L 4359 2091 
Q 4359 2428 4304 2576 
Q 4250 2725 4106 2815 
Q 3963 2906 3769 2906 
Q 3419 2906 3187 2673 
Q 2956 2441 2956 1928 
L 2956 0 
L 2394 0 
L 2394 2156 
Q 2394 2531 2256 2718 
Q 2119 2906 1806 2906 
Q 1569 2906 1367 2781 
Q 1166 2656 1075 2415 
Q 984 2175 984 1722 
L 984 0 
L 422 0 
z
" transform="scale(0.015625)"/>
      </defs>
      <use xlink:href="#ArialMT-54"/>
      <use xlink:href="#ArialMT-69" x="57.333984"/>
      <use xlink:href="#ArialMT-6d" x="79.550781"/>
      <use xlink:href="#ArialMT-65" x="162.851562"/>
     </g>
    </g>
   </g>
   <g id="matplotlib.axis_2">
    <g id="ytick_1">
     <g id="line2d_10">
      <path d="M 144 492.48 
L 1036.8 492.48 
" clip-path="url(#pef6b6698a1)" style="fill: none; stroke: #ffffff; stroke-linecap: round"/>
     </g>
     <g id="text_11">
      <!-- 45.0 -->
      <g style="fill: #262626" transform="translate(113.092969 496.416797)scale(0.11 -0.11)">
       <defs>
        <path id="ArialMT-34" d="M 2069 0 
L 2069 1097 
L 81 1097 
L 81 1613 
L 2172 4581 
L 2631 4581 
L 2631 1613 
L 3250 1613 
L 3250 1097 
L 2631 1097 
L 2631 0 
L 2069 0 
z
M 2069 1613 
L 2069 3678 
L 634 1613 
L 2069 1613 
z
" transform="scale(0.015625)"/>
        <path id="ArialMT-35" d="M 266 1200 
L 856 1250 
Q 922 819 1161 601 
Q 1400 384 1738 384 
Q 2144 384 2425 690 
Q 2706 997 2706 1503 
Q 2706 1984 2436 2262 
Q 2166 2541 1728 2541 
Q 1456 2541 1237 2417 
Q 1019 2294 894 2097 
L 366 2166 
L 809 4519 
L 3088 4519 
L 3088 3981 
L 1259 3981 
L 1013 2750 
Q 1425 3038 1878 3038 
Q 2478 3038 2890 2622 
Q 3303 2206 3303 1553 
Q 3303 931 2941 478 
Q 2500 -78 1738 -78 
Q 1113 -78 717 272 
Q 322 622 266 1200 
z
" transform="scale(0.015625)"/>
        <path id="ArialMT-2e" d="M 581 0 
L 581 641 
L 1222 641 
L 1222 0 
L 581 0 
z
" transform="scale(0.015625)"/>
        <path id="ArialMT-30" d="M 266 2259 
Q 266 3072 433 3567 
Q 600 4063 929 4331 
Q 1259 4600 1759 4600 
Q 2128 4600 2406 4451 
Q 2684 4303 2865 4023 
Q 3047 3744 3150 3342 
Q 3253 2941 3253 2259 
Q 3253 1453 3087 958 
Q 2922 463 2592 192 
Q 2263 -78 1759 -78 
Q 1097 -78 719 397 
Q 266 969 266 2259 
z
M 844 2259 
Q 844 1131 1108 757 
Q 1372 384 1759 384 
Q 2147 384 2411 759 
Q 2675 1134 2675 2259 
Q 2675 3391 2411 3762 
Q 2147 4134 1753 4134 
Q 1366 4134 1134 3806 
Q 844 3388 844 2259 
z
" transform="scale(0.015625)"/>
       </defs>
       <use xlink:href="#ArialMT-34"/>
       <use xlink:href="#ArialMT-35" x="55.615234"/>
       <use xlink:href="#ArialMT-2e" x="111.230469"/>
       <use xlink:href="#ArialMT-30" x="139.013672"/>
      </g>
     </g>
    </g>
    <g id="ytick_2">
     <g id="line2d_11">
      <path d="M 144 417.813333 
L 1036.8 417.813333 
" clip-path="url(#pef6b6698a1)" style="fill: none; stroke: #ffffff; stroke-linecap: round"/>
     </g>
     <g id="text_12">
      <!-- 45.5 -->
      <g style="fill: #262626" transform="translate(113.092969 421.75013)scale(0.11 -0.11)">
       <use xlink:href="#ArialMT-34"/>
       <use xlink:href="#ArialMT-35" x="55.615234"/>
       <use xlink:href="#ArialMT-2e" x="111.230469"/>
       <use xlink:href="#ArialMT-35" x="139.013672"/>
      </g>
     </g>
    </g>
    <g id="ytick_3">
     <g id="line2d_12">
      <path d="M 144 343.146667 
L 1036.8 343.146667 
" clip-path="url(#pef6b6698a1)" style="fill: none; stroke: #ffffff; stroke-linecap: round"/>
     </g>
     <g id="text_13">
      <!-- 46.0 -->
      <g style="fill: #262626" transform="translate(113.092969 347.083464)scale(0.11 -0.11)">
       <use xlink:href="#ArialMT-34"/>
       <use xlink:href="#ArialMT-36" x="55.615234"/>
       <use xlink:href="#ArialMT-2e" x="111.230469"/>
       <use xlink:href="#ArialMT-30" x="139.013672"/>
      </g>
     </g>
    </g>
    <g id="ytick_4">
     <g id="line2d_13">
      <path d="M 144 268.48 
L 1036.8 268.48 
" clip-path="url(#pef6b6698a1)" style="fill: none; stroke: #ffffff; stroke-linecap: round"/>
     </g>
     <g id="text_14">
      <!-- 46.5 -->
      <g style="fill: #262626" transform="translate(113.092969 272.416797)scale(0.11 -0.11)">
       <use xlink:href="#ArialMT-34"/>
       <use xlink:href="#ArialMT-36" x="55.615234"/>
       <use xlink:href="#ArialMT-2e" x="111.230469"/>
       <use xlink:href="#ArialMT-35" x="139.013672"/>
      </g>
     </g>
    </g>
    <g id="ytick_5">
     <g id="line2d_14">
      <path d="M 144 193.813333 
L 1036.8 193.813333 
" clip-path="url(#pef6b6698a1)" style="fill: none; stroke: #ffffff; stroke-linecap: round"/>
     </g>
     <g id="text_15">
      <!-- 47.0 -->
      <g style="fill: #262626" transform="translate(113.092969 197.75013)scale(0.11 -0.11)">
       <defs>
        <path id="ArialMT-37" d="M 303 3981 
L 303 4522 
L 3269 4522 
L 3269 4084 
Q 2831 3619 2401 2847 
Q 1972 2075 1738 1259 
Q 1569 684 1522 0 
L 944 0 
Q 953 541 1156 1306 
Q 1359 2072 1739 2783 
Q 2119 3494 2547 3981 
L 303 3981 
z
" transform="scale(0.015625)"/>
       </defs>
       <use xlink:href="#ArialMT-34"/>
       <use xlink:href="#ArialMT-37" x="55.615234"/>
       <use xlink:href="#ArialMT-2e" x="111.230469"/>
       <use xlink:href="#ArialMT-30" x="139.013672"/>
      </g>
     </g>
    </g>
    <g id="ytick_6">
     <g id="line2d_15">
      <path d="M 144 119.146667 
L 1036.8 119.146667 
" clip-path="url(#pef6b6698a1)" style="fill: none; stroke: #ffffff; stroke-linecap: round"/>
     </g>
     <g id="text_16">
      <!-- 47.5 -->
      <g style="fill: #262626" transform="translate(113.092969 123.083464)scale(0.11 -0.11)">
       <use xlink:href="#ArialMT-34"/>
       <use xlink:href="#ArialMT-37" x="55.615234"/>
       <use xlink:href="#ArialMT-2e" x="111.230469"/>
       <use xlink:href="#ArialMT-35" x="139.013672"/>
      </g>
     </g>
    </g>
    <g id="text_17">
     <!-- Water Temp (°F) -->
     <g style="fill: #262626" transform="translate(105.304531 356.47875)rotate(-90)scale(0.18 -0.18)">
      <defs>
       <path id="ArialMT-61" d="M 2588 409 
Q 2275 144 1986 34 
Q 1697 -75 1366 -75 
Q 819 -75 525 192 
Q 231 459 231 875 
Q 231 1119 342 1320 
Q 453 1522 633 1644 
Q 813 1766 1038 1828 
Q 1203 1872 1538 1913 
Q 2219 1994 2541 2106 
Q 2544 2222 2544 2253 
Q 2544 2597 2384 2738 
Q 2169 2928 1744 2928 
Q 1347 2928 1158 2789 
Q 969 2650 878 2297 
L 328 2372 
Q 403 2725 575 2942 
Q 747 3159 1072 3276 
Q 1397 3394 1825 3394 
Q 2250 3394 2515 3294 
Q 2781 3194 2906 3042 
Q 3031 2891 3081 2659 
Q 3109 2516 3109 2141 
L 3109 1391 
Q 3109 606 3145 398 
Q 3181 191 3288 0 
L 2700 0 
Q 2613 175 2588 409 
z
M 2541 1666 
Q 2234 1541 1622 1453 
Q 1275 1403 1131 1340 
Q 988 1278 909 1158 
Q 831 1038 831 891 
Q 831 666 1001 516 
Q 1172 366 1500 366 
Q 1825 366 2078 508 
Q 2331 650 2450 897 
Q 2541 1088 2541 1459 
L 2541 1666 
z
" transform="scale(0.015625)"/>
       <path id="ArialMT-74" d="M 1650 503 
L 1731 6 
Q 1494 -44 1306 -44 
Q 1000 -44 831 53 
Q 663 150 594 308 
Q 525 466 525 972 
L 525 2881 
L 113 2881 
L 113 3319 
L 525 3319 
L 525 4141 
L 1084 4478 
L 1084 3319 
L 1650 3319 
L 1650 2881 
L 1084 2881 
L 1084 941 
Q 1084 700 1114 631 
Q 1144 563 1211 522 
Q 1278 481 1403 481 
Q 1497 481 1650 503 
z
" transform="scale(0.015625)"/>
       <path id="ArialMT-72" d="M 416 0 
L 416 3319 
L 922 3319 
L 922 2816 
Q 1116 3169 1280 3281 
Q 1444 3394 1641 3394 
Q 1925 3394 2219 3213 
L 2025 2691 
Q 1819 2813 1613 2813 
Q 1428 2813 1281 2702 
Q 1134 2591 1072 2394 
Q 978 2094 978 1738 
L 978 0 
L 416 0 
z
" transform="scale(0.015625)"/>
       <path id="ArialMT-70" d="M 422 -1272 
L 422 3319 
L 934 3319 
L 934 2888 
Q 1116 3141 1344 3267 
Q 1572 3394 1897 3394 
Q 2322 3394 2647 3175 
Q 2972 2956 3137 2557 
Q 3303 2159 3303 1684 
Q 3303 1175 3120 767 
Q 2938 359 2589 142 
Q 2241 -75 1856 -75 
Q 1575 -75 1351 44 
Q 1128 163 984 344 
L 984 -1272 
L 422 -1272 
z
M 931 1641 
Q 931 1000 1190 694 
Q 1450 388 1819 388 
Q 2194 388 2461 705 
Q 2728 1022 2728 1688 
Q 2728 2322 2467 2637 
Q 2206 2953 1844 2953 
Q 1484 2953 1207 2617 
Q 931 2281 931 1641 
z
" transform="scale(0.015625)"/>
       <path id="ArialMT-28" d="M 1497 -1347 
Q 1031 -759 709 28 
Q 388 816 388 1659 
Q 388 2403 628 3084 
Q 909 3875 1497 4659 
L 1900 4659 
Q 1522 4009 1400 3731 
Q 1209 3300 1100 2831 
Q 966 2247 966 1656 
Q 966 153 1900 -1347 
L 1497 -1347 
z
" transform="scale(0.015625)"/>
       <path id="ArialMT-b0" d="M 400 3794 
Q 400 4153 654 4406 
Q 909 4659 1266 4659 
Q 1628 4659 1881 4406 
Q 2134 4153 2134 3794 
Q 2134 3434 1879 3179 
Q 1625 2925 1266 2925 
Q 909 2925 654 3178 
Q 400 3431 400 3794 
z
M 741 3794 
Q 741 3575 895 3420 
Q 1050 3266 1269 3266 
Q 1484 3266 1639 3420 
Q 1794 3575 1794 3794 
Q 1794 4013 1639 4167 
Q 1484 4322 1269 4322 
Q 1050 4322 895 4167 
Q 741 4013 741 3794 
z
" transform="scale(0.015625)"/>
       <path id="ArialMT-46" d="M 525 0 
L 525 4581 
L 3616 4581 
L 3616 4041 
L 1131 4041 
L 1131 2622 
L 3281 2622 
L 3281 2081 
L 1131 2081 
L 1131 0 
L 525 0 
z
" transform="scale(0.015625)"/>
       <path id="ArialMT-29" d="M 791 -1347 
L 388 -1347 
Q 1322 153 1322 1656 
Q 1322 2244 1188 2822 
Q 1081 3291 891 3722 
Q 769 4003 388 4659 
L 791 4659 
Q 1378 3875 1659 3084 
Q 1900 2403 1900 1659 
Q 1900 816 1576 28 
Q 1253 -759 791 -1347 
z
" transform="scale(0.015625)"/>
      </defs>
      <use xlink:href="#ArialMT-57"/>
      <use xlink:href="#ArialMT-61" x="90.634766"/>
      <use xlink:href="#ArialMT-74" x="146.25"/>
      <use xlink:href="#ArialMT-65" x="174.033203"/>
      <use xlink:href="#ArialMT-72" x="229.648438"/>
      <use xlink:href="#ArialMT-20" x="262.949219"/>
      <use xlink:href="#ArialMT-54" x="288.982422"/>
      <use xlink:href="#ArialMT-65" x="338.941406"/>
      <use xlink:href="#ArialMT-6d" x="394.556641"/>
      <use xlink:href="#ArialMT-70" x="477.857422"/>
      <use xlink:href="#ArialMT-20" x="533.472656"/>
      <use xlink:href="#ArialMT-28" x="561.255859"/>
      <use xlink:href="#ArialMT-b0" x="594.556641"/>
      <use xlink:href="#ArialMT-46" x="634.546875"/>
      <use xlink:href="#ArialMT-29" x="695.630859"/>
     </g>
    </g>
   </g>
   <g id="line2d_16">
    <path d="M 184.581818 89.28 
L 186.276257 104.213333 
L 187.970697 104.213333 
L 189.665136 89.28 
L 191.359575 253.546667 
L 193.054014 238.613333 
L 194.748453 208.746667 
L 196.442892 193.813333 
L 198.137332 149.013333 
L 199.831771 149.013333 
L 203.220649 238.613333 
L 204.915088 268.48 
L 206.609527 268.48 
L 208.303967 253.546667 
L 209.998406 268.48 
L 211.692845 253.546667 
L 215.081723 283.413333 
L 216.776162 268.48 
L 218.470602 268.48 
L 220.165041 283.413333 
L 221.85948 268.48 
L 223.553919 223.68 
L 225.248358 223.68 
L 226.942797 253.546667 
L 228.637237 253.546667 
L 230.331676 208.746667 
L 232.026115 223.68 
L 233.720554 208.746667 
L 235.414993 208.746667 
L 237.109433 223.68 
L 238.803872 253.546667 
L 240.498311 238.613333 
L 242.19275 253.546667 
L 243.887189 298.346667 
L 245.581628 268.48 
L 247.276068 298.346667 
L 248.970507 313.28 
L 250.664946 343.146667 
L 252.359385 343.146667 
L 254.053824 313.28 
L 257.442703 373.013333 
L 259.137142 313.28 
L 260.831581 343.146667 
L 262.52602 328.213333 
L 264.220459 358.08 
L 265.914898 313.28 
L 267.609338 298.346667 
L 269.303777 298.346667 
L 272.692655 358.08 
L 274.387094 358.08 
L 276.081533 402.88 
L 277.775973 313.28 
L 279.470412 313.28 
L 281.164851 283.413333 
L 282.85929 298.346667 
L 284.553729 358.08 
L 286.248169 328.213333 
L 289.637047 298.346667 
L 291.331486 328.213333 
L 293.025925 343.146667 
L 294.720364 283.413333 
L 296.414804 268.48 
L 298.109243 298.346667 
L 299.803682 283.413333 
L 301.498121 283.413333 
L 303.19256 268.48 
L 304.886999 268.48 
L 306.581439 253.546667 
L 308.275878 253.546667 
L 309.970317 298.346667 
L 311.664756 283.413333 
L 313.359195 238.613333 
L 315.053634 238.613333 
L 316.748074 313.28 
L 318.442513 313.28 
L 320.136952 283.413333 
L 321.831391 283.413333 
L 323.52583 313.28 
L 325.22027 328.213333 
L 326.914709 313.28 
L 328.609148 343.146667 
L 330.303587 313.28 
L 331.998026 343.146667 
L 337.081344 343.146667 
L 338.775783 358.08 
L 340.470222 387.946667 
L 342.164661 402.88 
L 345.55354 373.013333 
L 347.247979 373.013333 
L 348.942418 358.08 
L 350.636857 358.08 
L 352.331296 373.013333 
L 354.025735 358.08 
L 357.414614 358.08 
L 360.803492 387.946667 
L 362.497931 373.013333 
L 364.19237 402.88 
L 367.581249 492.48 
L 369.275688 477.546667 
L 370.970127 402.88 
L 372.664566 402.88 
L 374.359006 373.013333 
L 376.053445 328.213333 
L 377.747884 223.68 
L 379.442323 223.68 
L 381.136762 298.346667 
L 386.22008 253.546667 
L 387.914519 253.546667 
L 389.608958 268.48 
L 391.303397 268.48 
L 392.997836 298.346667 
L 394.692276 283.413333 
L 398.081154 283.413333 
L 399.775593 313.28 
L 401.470032 283.413333 
L 403.164471 238.613333 
L 404.858911 208.746667 
L 406.55335 253.546667 
L 408.247789 253.546667 
L 409.942228 268.48 
L 415.025546 268.48 
L 418.414424 238.613333 
L 420.108863 208.746667 
L 421.803302 208.746667 
L 423.497742 193.813333 
L 425.192181 193.813333 
L 426.88662 208.746667 
L 428.581059 208.746667 
L 431.969937 238.613333 
L 435.358816 238.613333 
L 440.442133 283.413333 
L 443.831012 283.413333 
L 450.608768 343.146667 
L 452.303207 283.413333 
L 453.997647 298.346667 
L 455.692086 283.413333 
L 457.386525 283.413333 
L 459.080964 268.48 
L 462.469842 268.48 
L 464.164282 283.413333 
L 465.858721 253.546667 
L 467.55316 253.546667 
L 469.247599 238.613333 
L 470.942038 253.546667 
L 472.636478 253.546667 
L 474.330917 238.613333 
L 476.025356 298.346667 
L 477.719795 298.346667 
L 479.414234 208.746667 
L 481.108673 208.746667 
L 482.803113 238.613333 
L 484.497552 253.546667 
L 486.191991 283.413333 
L 487.88643 283.413333 
L 491.275308 313.28 
L 492.969748 313.28 
L 494.664187 373.013333 
L 496.358626 373.013333 
L 498.053065 328.213333 
L 499.747504 417.813333 
L 501.441943 343.146667 
L 503.136383 328.213333 
L 506.525261 328.213333 
L 508.2197 313.28 
L 509.914139 313.28 
L 511.608578 283.413333 
L 513.303018 343.146667 
L 514.997457 328.213333 
L 516.691896 343.146667 
L 518.386335 313.28 
L 520.080774 328.213333 
L 523.469653 328.213333 
L 526.858531 298.346667 
L 530.247409 298.346667 
L 533.636288 328.213333 
L 535.330727 313.28 
L 537.025166 328.213333 
L 540.414044 298.346667 
L 543.802923 328.213333 
L 545.497362 298.346667 
L 547.191801 298.346667 
L 548.88624 283.413333 
L 553.969558 373.013333 
L 557.358436 343.146667 
L 559.052875 373.013333 
L 560.747314 358.08 
L 562.441754 373.013333 
L 564.136193 358.08 
L 567.525071 358.08 
L 570.91395 328.213333 
L 572.608389 343.146667 
L 574.302828 328.213333 
L 575.997267 328.213333 
L 577.691706 283.413333 
L 581.080585 283.413333 
L 584.469463 343.146667 
L 586.163902 358.08 
L 587.858341 387.946667 
L 589.55278 387.946667 
L 591.24722 402.88 
L 592.941659 387.946667 
L 594.636098 298.346667 
L 596.330537 223.68 
L 598.024976 238.613333 
L 599.719415 134.08 
L 601.413855 89.28 
L 604.802733 119.146667 
L 609.88605 208.746667 
L 611.58049 193.813333 
L 613.274929 134.08 
L 614.969368 178.88 
L 616.663807 208.746667 
L 620.052686 208.746667 
L 621.747125 193.813333 
L 623.441564 149.013333 
L 625.136003 163.946667 
L 626.830442 208.746667 
L 628.524881 193.813333 
L 630.219321 193.813333 
L 631.91376 223.68 
L 633.608199 238.613333 
L 635.302638 208.746667 
L 636.997077 223.68 
L 640.385956 223.68 
L 642.080395 238.613333 
L 643.774834 223.68 
L 645.469273 223.68 
L 647.163712 238.613333 
L 648.858151 223.68 
L 652.24703 223.68 
L 653.941469 193.813333 
L 657.330347 193.813333 
L 660.719226 223.68 
L 665.802543 223.68 
L 667.496982 253.546667 
L 669.191422 253.546667 
L 670.885861 268.48 
L 672.5803 238.613333 
L 674.274739 223.68 
L 675.969178 223.68 
L 679.358057 253.546667 
L 681.052496 298.346667 
L 682.746935 298.346667 
L 684.441374 268.48 
L 686.135813 283.413333 
L 687.830252 253.546667 
L 689.524692 238.613333 
L 692.91357 238.613333 
L 694.608009 223.68 
L 696.302448 223.68 
L 697.996887 253.546667 
L 699.691327 238.613333 
L 701.385766 253.546667 
L 709.857962 253.546667 
L 711.552401 268.48 
L 713.24684 268.48 
L 714.941279 253.546667 
L 716.635718 268.48 
L 720.024597 238.613333 
L 721.719036 238.613333 
L 723.413475 253.546667 
L 725.107914 253.546667 
L 726.802353 238.613333 
L 728.496793 238.613333 
L 731.885671 268.48 
L 736.968988 268.48 
L 738.663428 283.413333 
L 740.357867 283.413333 
L 742.052306 253.546667 
L 743.746745 283.413333 
L 747.135623 283.413333 
L 748.830063 268.48 
L 750.524502 268.48 
L 752.218941 283.413333 
L 753.91338 268.48 
L 755.607819 298.346667 
L 757.302258 298.346667 
L 758.996698 313.28 
L 760.691137 298.346667 
L 762.385576 313.28 
L 764.080015 343.146667 
L 767.468894 343.146667 
L 769.163333 358.08 
L 770.857772 313.28 
L 772.552211 373.013333 
L 774.24665 343.146667 
L 775.941089 373.013333 
L 777.635529 343.146667 
L 779.329968 343.146667 
L 781.024407 298.346667 
L 782.718846 373.013333 
L 784.413285 387.946667 
L 787.802164 358.08 
L 789.496603 387.946667 
L 791.191042 432.746667 
L 792.885481 462.613333 
L 794.57992 432.746667 
L 796.274359 358.08 
L 797.968799 343.146667 
L 799.663238 313.28 
L 801.357677 223.68 
L 803.052116 208.746667 
L 804.746555 223.68 
L 806.440994 253.546667 
L 808.135434 268.48 
L 809.829873 238.613333 
L 811.524312 253.546667 
L 813.218751 238.613333 
L 814.91319 268.48 
L 816.60763 253.546667 
L 823.385386 253.546667 
L 825.079825 298.346667 
L 826.774265 298.346667 
L 828.468704 253.546667 
L 830.163143 253.546667 
L 831.857582 223.68 
L 833.552021 238.613333 
L 835.24646 208.746667 
L 836.9409 193.813333 
L 838.635339 163.946667 
L 840.329778 163.946667 
L 842.024217 193.813333 
L 843.718656 208.746667 
L 847.107535 208.746667 
L 848.801974 238.613333 
L 850.496413 238.613333 
L 853.885291 268.48 
L 857.27417 268.48 
L 858.968609 283.413333 
L 860.663048 268.48 
L 862.357487 283.413333 
L 872.524122 283.413333 
L 874.218561 298.346667 
L 875.913001 283.413333 
L 877.60744 313.28 
L 879.301879 283.413333 
L 880.996318 283.413333 
L 882.690757 298.346667 
L 884.385196 253.546667 
L 886.079636 268.48 
L 887.774075 253.546667 
L 889.468514 298.346667 
L 891.162953 283.413333 
L 892.857392 313.28 
L 894.551831 253.546667 
L 896.246271 238.613333 
L 897.94071 238.613333 
L 899.635149 253.546667 
L 901.329588 223.68 
L 903.024027 238.613333 
L 904.718467 223.68 
L 906.412906 268.48 
L 908.107345 298.346667 
L 909.801784 253.546667 
L 911.496223 373.013333 
L 913.190662 313.28 
L 914.885102 387.946667 
L 916.579541 417.813333 
L 918.27398 402.88 
L 919.968419 313.28 
L 921.662858 387.946667 
L 923.357297 402.88 
L 925.051737 328.213333 
L 928.440615 358.08 
L 930.135054 313.28 
L 933.523932 313.28 
L 935.218372 343.146667 
L 936.912811 313.28 
L 938.60725 313.28 
L 943.690567 268.48 
L 945.385007 298.346667 
L 947.079446 268.48 
L 948.773885 253.546667 
L 950.468324 253.546667 
L 953.857203 283.413333 
L 955.551642 268.48 
L 957.246081 268.48 
L 958.94052 253.546667 
L 960.634959 253.546667 
L 962.329398 268.48 
L 964.023838 253.546667 
L 969.107155 253.546667 
L 970.801594 268.48 
L 972.496033 253.546667 
L 977.579351 253.546667 
L 979.27379 268.48 
L 980.968229 253.546667 
L 982.662668 253.546667 
L 984.357108 268.48 
L 986.051547 268.48 
L 987.745986 283.413333 
L 991.134864 283.413333 
L 992.829303 298.346667 
L 996.218182 298.346667 
L 996.218182 298.346667 
" clip-path="url(#pef6b6698a1)" style="fill: none; stroke: #4c72b0; stroke-width: 1.5; stroke-linecap: round"/>
   </g>
   <g id="line2d_17">
    <path d="M 184.581818 154.986667 
L 186.276257 140.053333 
L 187.970697 136.32 
L 191.359575 151.253333 
L 193.054014 160.213333 
L 194.748453 172.16 
L 196.442892 181.12 
L 198.137332 189.333333 
L 204.915088 225.173333 
L 206.609527 233.386667 
L 208.303967 240.106667 
L 209.998406 238.613333 
L 211.692845 239.36 
L 213.387284 241.6 
L 215.081723 242.346667 
L 216.776162 246.08 
L 218.470602 249.066667 
L 220.165041 249.813333 
L 223.553919 248.32 
L 225.248358 246.826667 
L 226.942797 246.826667 
L 228.637237 248.32 
L 230.331676 249.066667 
L 233.720554 252.053333 
L 237.109433 259.52 
L 238.803872 261.013333 
L 240.498311 264.746667 
L 242.19275 272.213333 
L 245.581628 281.173333 
L 247.276068 284.906667 
L 248.970507 292.373333 
L 254.053824 305.813333 
L 257.442703 316.266667 
L 259.137142 322.24 
L 260.831581 329.706667 
L 262.52602 330.453333 
L 264.220459 332.693333 
L 267.609338 331.2 
L 269.303777 331.946667 
L 270.998216 331.2 
L 272.692655 331.2 
L 276.081533 326.72 
L 277.775973 328.213333 
L 282.85929 319.253333 
L 284.553729 317.76 
L 286.248169 317.013333 
L 287.942608 315.52 
L 289.637047 312.533333 
L 294.720364 296.853333 
L 296.414804 295.36 
L 298.109243 291.626667 
L 299.803682 289.386667 
L 301.498121 290.133333 
L 304.886999 285.653333 
L 306.581439 284.16 
L 308.275878 284.906667 
L 309.970317 284.906667 
L 311.664756 283.413333 
L 313.359195 286.4 
L 316.748074 290.88 
L 320.136952 296.853333 
L 321.831391 300.586667 
L 323.52583 305.066667 
L 325.22027 311.786667 
L 326.914709 319.253333 
L 330.303587 328.213333 
L 331.998026 334.933333 
L 333.692465 340.906667 
L 335.386905 343.146667 
L 337.081344 346.133333 
L 340.470222 353.6 
L 343.8591 358.08 
L 345.55354 361.813333 
L 347.247979 363.306667 
L 348.942418 367.786667 
L 350.636857 373.013333 
L 352.331296 380.48 
L 354.025735 387.2 
L 355.720175 390.186667 
L 357.414614 392.426667 
L 359.109053 391.68 
L 360.803492 387.946667 
L 362.497931 379.733333 
L 364.19237 372.266667 
L 367.581249 364.8 
L 369.275688 360.32 
L 370.970127 354.346667 
L 372.664566 349.12 
L 376.053445 340.16 
L 377.747884 336.426667 
L 379.442323 331.2 
L 381.136762 326.72 
L 382.831201 320.746667 
L 384.525641 314.026667 
L 386.22008 303.573333 
L 387.914519 291.626667 
L 389.608958 281.92 
L 391.303397 274.453333 
L 392.997836 268.48 
L 394.692276 265.493333 
L 398.081154 269.973333 
L 403.164471 265.493333 
L 406.55335 261.013333 
L 409.942228 253.546667 
L 411.636667 249.066667 
L 413.331106 245.333333 
L 415.025546 242.346667 
L 416.719985 240.106667 
L 418.414424 236.373333 
L 420.108863 234.133333 
L 421.803302 234.88 
L 423.497742 237.866667 
L 426.88662 240.853333 
L 428.581059 241.6 
L 430.275498 243.093333 
L 431.969937 245.333333 
L 433.664377 248.32 
L 435.358816 252.8 
L 437.053255 255.04 
L 438.747694 259.52 
L 440.442133 263.253333 
L 442.136572 267.733333 
L 443.831012 271.466667 
L 448.914329 280.426667 
L 452.303207 281.92 
L 455.692086 281.92 
L 457.386525 281.173333 
L 459.080964 278.933333 
L 462.469842 280.426667 
L 464.164282 275.946667 
L 465.858721 270.72 
L 469.247599 261.76 
L 470.942038 261.76 
L 472.636478 261.013333 
L 474.330917 261.76 
L 476.025356 263.253333 
L 477.719795 265.493333 
L 481.108673 275.946667 
L 482.803113 278.186667 
L 484.497552 286.4 
L 487.88643 295.36 
L 492.969748 306.56 
L 494.664187 307.306667 
L 496.358626 306.56 
L 498.053065 313.28 
L 499.747504 319.253333 
L 501.441943 324.48 
L 503.136383 327.466667 
L 506.525261 331.946667 
L 508.2197 333.44 
L 509.914139 333.44 
L 511.608578 332.693333 
L 514.997457 325.226667 
L 516.691896 324.48 
L 518.386335 320 
L 520.080774 318.506667 
L 521.775214 318.506667 
L 523.469653 317.76 
L 525.164092 316.266667 
L 526.858531 316.266667 
L 530.247409 317.76 
L 533.636288 313.28 
L 535.330727 311.786667 
L 537.025166 313.28 
L 538.719605 315.52 
L 540.414044 317.013333 
L 542.108484 317.76 
L 545.497362 323.733333 
L 547.191801 327.466667 
L 548.88624 330.453333 
L 550.580679 332.693333 
L 553.969558 335.68 
L 555.663997 335.68 
L 559.052875 338.666667 
L 560.747314 339.413333 
L 562.441754 337.173333 
L 565.830632 335.68 
L 569.21951 338.666667 
L 572.608389 340.16 
L 574.302828 341.653333 
L 575.997267 344.64 
L 577.691706 345.386667 
L 579.386145 342.4 
L 581.080585 334.933333 
L 582.775024 328.96 
L 584.469463 317.76 
L 586.163902 304.32 
L 587.858341 292.373333 
L 589.55278 281.92 
L 591.24722 272.213333 
L 592.941659 264.746667 
L 594.636098 258.773333 
L 596.330537 254.293333 
L 598.024976 246.826667 
L 601.413855 236.373333 
L 603.108294 229.653333 
L 604.802733 222.186667 
L 606.497172 212.48 
L 609.88605 188.586667 
L 611.58049 179.626667 
L 613.274929 174.4 
L 614.969368 172.906667 
L 616.663807 172.16 
L 618.358246 177.386667 
L 621.747125 189.333333 
L 623.441564 194.56 
L 625.136003 198.293333 
L 626.830442 201.28 
L 628.524881 202.026667 
L 630.219321 203.52 
L 631.91376 208.746667 
L 633.608199 210.986667 
L 636.997077 212.48 
L 638.691516 211.733333 
L 640.385956 211.733333 
L 643.774834 216.213333 
L 645.469273 216.96 
L 648.858151 219.946667 
L 650.552591 219.946667 
L 652.24703 220.693333 
L 655.635908 225.173333 
L 657.330347 225.92 
L 659.024786 225.92 
L 660.719226 225.173333 
L 662.413665 225.92 
L 664.108104 227.413333 
L 665.802543 230.4 
L 667.496982 234.133333 
L 669.191422 236.373333 
L 672.5803 242.346667 
L 675.969178 246.826667 
L 677.663617 248.32 
L 681.052496 248.32 
L 682.746935 249.813333 
L 684.441374 250.56 
L 687.830252 250.56 
L 689.524692 249.813333 
L 691.219131 250.56 
L 696.302448 255.04 
L 697.996887 255.786667 
L 699.691327 253.546667 
L 701.385766 252.053333 
L 703.080205 251.306667 
L 704.774644 249.066667 
L 706.469083 248.32 
L 709.857962 249.813333 
L 711.552401 249.813333 
L 713.24684 250.56 
L 714.941279 252.053333 
L 716.635718 252.8 
L 718.330158 254.293333 
L 721.719036 255.786667 
L 725.107914 258.773333 
L 726.802353 258.773333 
L 728.496793 260.266667 
L 733.58011 262.506667 
L 735.274549 262.506667 
L 738.663428 265.493333 
L 740.357867 268.48 
L 742.052306 270.72 
L 745.441184 276.693333 
L 747.135623 280.426667 
L 748.830063 284.906667 
L 752.218941 292.373333 
L 753.91338 296.853333 
L 755.607819 299.093333 
L 757.302258 303.573333 
L 758.996698 306.56 
L 760.691137 312.533333 
L 764.080015 318.506667 
L 765.774454 319.253333 
L 767.468894 324.48 
L 769.163333 330.453333 
L 774.24665 343.893333 
L 775.941089 350.613333 
L 777.635529 358.08 
L 779.329968 364.8 
L 781.024407 367.04 
L 782.718846 367.04 
L 784.413285 365.546667 
L 786.107724 359.573333 
L 787.802164 352.106667 
L 789.496603 347.626667 
L 791.191042 341.653333 
L 792.885481 337.92 
L 794.57992 331.2 
L 796.274359 326.72 
L 797.968799 321.493333 
L 799.663238 320 
L 801.357677 314.026667 
L 803.052116 307.306667 
L 804.746555 301.333333 
L 806.440994 296.106667 
L 809.829873 282.666667 
L 811.524312 274.453333 
L 813.218751 265.493333 
L 814.91319 260.266667 
L 816.60763 254.293333 
L 818.302069 250.56 
L 821.690947 249.066667 
L 823.385386 246.08 
L 825.079825 241.6 
L 826.774265 237.866667 
L 828.468704 236.373333 
L 830.163143 234.133333 
L 833.552021 231.146667 
L 835.24646 230.4 
L 836.9409 230.4 
L 842.024217 232.64 
L 843.718656 231.893333 
L 845.413095 230.4 
L 848.801974 233.386667 
L 850.496413 236.373333 
L 852.190852 238.613333 
L 853.885291 242.346667 
L 855.57973 246.826667 
L 857.27417 252.8 
L 858.968609 259.52 
L 860.663048 264 
L 862.357487 269.226667 
L 865.746366 276.693333 
L 867.440805 279.68 
L 870.829683 281.173333 
L 872.524122 280.426667 
L 874.218561 281.92 
L 875.913001 282.666667 
L 877.60744 284.16 
L 879.301879 283.413333 
L 882.690757 278.933333 
L 884.385196 277.44 
L 886.079636 274.453333 
L 887.774075 272.213333 
L 889.468514 269.226667 
L 891.162953 268.48 
L 892.857392 268.48 
L 894.551831 266.986667 
L 896.246271 269.973333 
L 897.94071 271.466667 
L 899.635149 276.693333 
L 901.329588 282.666667 
L 903.024027 290.133333 
L 904.718467 292.373333 
L 906.412906 299.093333 
L 908.107345 304.32 
L 909.801784 306.56 
L 911.496223 308.053333 
L 913.190662 313.28 
L 916.579541 320.746667 
L 918.27398 323.733333 
L 919.968419 329.706667 
L 921.662858 333.44 
L 923.357297 337.92 
L 925.051737 339.413333 
L 926.746176 338.666667 
L 928.440615 339.413333 
L 930.135054 335.68 
L 931.829493 333.44 
L 933.523932 326.72 
L 935.218372 318.506667 
L 936.912811 311.786667 
L 938.60725 310.293333 
L 940.301689 304.32 
L 941.996128 297.6 
L 943.690567 293.866667 
L 947.079446 284.906667 
L 952.162763 275.946667 
L 953.857203 271.466667 
L 955.551642 269.226667 
L 957.246081 266.24 
L 958.94052 264 
L 960.634959 262.506667 
L 962.329398 261.76 
L 964.023838 260.266667 
L 965.718277 259.52 
L 967.412716 259.52 
L 969.107155 260.266667 
L 972.496033 260.266667 
L 975.884912 261.76 
L 979.27379 266.24 
L 980.968229 267.733333 
L 980.968229 267.733333 
" clip-path="url(#pef6b6698a1)" style="fill: none; stroke-dasharray: 6,2.25; stroke-dashoffset: 0; stroke: #dd8452; stroke-width: 1.5"/>
   </g>
   <g id="line2d_18"/>
   <g id="line2d_19"/>
   <g id="patch_3">
    <path d="M 144 512.64 
L 144 69.12 
" style="fill: none; stroke: #ffffff; stroke-width: 1.25; stroke-linejoin: miter; stroke-linecap: square"/>
   </g>
   <g id="patch_4">
    <path d="M 1036.8 512.64 
L 1036.8 69.12 
" style="fill: none; stroke: #ffffff; stroke-width: 1.25; stroke-linejoin: miter; stroke-linecap: square"/>
   </g>
   <g id="patch_5">
    <path d="M 144 512.64 
L 1036.8 512.64 
" style="fill: none; stroke: #ffffff; stroke-width: 1.25; stroke-linejoin: miter; stroke-linecap: square"/>
   </g>
   <g id="patch_6">
    <path d="M 144 69.12 
L 1036.8 69.12 
" style="fill: none; stroke: #ffffff; stroke-width: 1.25; stroke-linejoin: miter; stroke-linecap: square"/>
   </g>
   <g id="text_18">
    <!-- 48-hour, live -->
    <g style="fill: #262626" transform="translate(541.3725 63.12)scale(0.18 -0.18)">
     <defs>
      <path id="ArialMT-38" d="M 1131 2484 
Q 781 2613 612 2850 
Q 444 3088 444 3419 
Q 444 3919 803 4259 
Q 1163 4600 1759 4600 
Q 2359 4600 2725 4251 
Q 3091 3903 3091 3403 
Q 3091 3084 2923 2848 
Q 2756 2613 2416 2484 
Q 2838 2347 3058 2040 
Q 3278 1734 3278 1309 
Q 3278 722 2862 322 
Q 2447 -78 1769 -78 
Q 1091 -78 675 323 
Q 259 725 259 1325 
Q 259 1772 486 2073 
Q 713 2375 1131 2484 
z
M 1019 3438 
Q 1019 3113 1228 2906 
Q 1438 2700 1772 2700 
Q 2097 2700 2305 2904 
Q 2513 3109 2513 3406 
Q 2513 3716 2298 3927 
Q 2084 4138 1766 4138 
Q 1444 4138 1231 3931 
Q 1019 3725 1019 3438 
z
M 838 1322 
Q 838 1081 952 856 
Q 1066 631 1291 507 
Q 1516 384 1775 384 
Q 2178 384 2440 643 
Q 2703 903 2703 1303 
Q 2703 1709 2433 1975 
Q 2163 2241 1756 2241 
Q 1359 2241 1098 1978 
Q 838 1716 838 1322 
z
" transform="scale(0.015625)"/>
      <path id="ArialMT-2d" d="M 203 1375 
L 203 1941 
L 1931 1941 
L 1931 1375 
L 203 1375 
z
" transform="scale(0.015625)"/>
      <path id="ArialMT-6f" d="M 213 1659 
Q 213 2581 725 3025 
Q 1153 3394 1769 3394 
Q 2453 3394 2887 2945 
Q 3322 2497 3322 1706 
Q 3322 1066 3130 698 
Q 2938 331 2570 128 
Q 2203 -75 1769 -75 
Q 1072 -75 642 372 
Q 213 819 213 1659 
z
M 791 1659 
Q 791 1022 1069 705 
Q 1347 388 1769 388 
Q 2188 388 2466 706 
Q 2744 1025 2744 1678 
Q 2744 2294 2464 2611 
Q 2184 2928 1769 2928 
Q 1347 2928 1069 2612 
Q 791 2297 791 1659 
z
" transform="scale(0.015625)"/>
      <path id="ArialMT-2c" d="M 569 0 
L 569 641 
L 1209 641 
L 1209 0 
Q 1209 -353 1084 -570 
Q 959 -788 688 -906 
L 531 -666 
Q 709 -588 793 -436 
Q 878 -284 888 0 
L 569 0 
z
" transform="scale(0.015625)"/>
      <path id="ArialMT-6c" d="M 409 0 
L 409 4581 
L 972 4581 
L 972 0 
L 409 0 
z
" transform="scale(0.015625)"/>
      <path id="ArialMT-76" d="M 1344 0 
L 81 3319 
L 675 3319 
L 1388 1331 
Q 1503 1009 1600 663 
Q 1675 925 1809 1294 
L 2547 3319 
L 3125 3319 
L 1869 0 
L 1344 0 
z
" transform="scale(0.015625)"/>
     </defs>
     <use xlink:href="#ArialMT-34"/>
     <use xlink:href="#ArialMT-38" x="55.615234"/>
     <use xlink:href="#ArialMT-2d" x="111.230469"/>
     <use xlink:href="#ArialMT-68" x="144.53125"/>
     <use xlink:href="#ArialMT-6f" x="200.146484"/>
     <use xlink:href="#ArialMT-75" x="255.761719"/>
     <use xlink:href="#ArialMT-72" x="311.376953"/>
     <use xlink:href="#ArialMT-2c" x="339.177734"/>
     <use xlink:href="#ArialMT-20" x="366.960938"/>
     <use xlink:href="#ArialMT-6c" x="394.744141"/>
     <use xlink:href="#ArialMT-69" x="416.960938"/>
     <use xlink:href="#ArialMT-76" x="439.177734"/>
     <use xlink:href="#ArialMT-65" x="489.177734"/>
    </g>
   </g>
   <g id="legend_1">
    <g id="patch_7">
     <path d="M 938.889688 109.302656 
L 1029.1 109.302656 
Q 1031.3 109.302656 1031.3 107.102656 
L 1031.3 76.82 
Q 1031.3 74.62 1029.1 74.62 
L 938.889688 74.62 
Q 936.689687 74.62 936.689687 76.82 
L 936.689687 107.102656 
Q 936.689687 109.302656 938.889688 109.302656 
z
" style="fill: #eaeaf2; opacity: 0.8; stroke: #cccccc; stroke-linejoin: miter"/>
    </g>
    <g id="line2d_20">
     <path d="M 941.089687 83.043594 
L 952.089687 83.043594 
L 963.089687 83.043594 
" style="fill: none; stroke: #4c72b0; stroke-width: 1.5; stroke-linecap: round"/>
    </g>
    <g id="text_19">
     <!-- live -->
     <g style="fill: #262626" transform="translate(971.889687 86.893594)scale(0.11 -0.11)">
      <use xlink:href="#ArialMT-6c"/>
      <use xlink:href="#ArialMT-69" x="22.216797"/>
      <use xlink:href="#ArialMT-76" x="44.433594"/>
      <use xlink:href="#ArialMT-65" x="94.433594"/>
     </g>
    </g>
    <g id="line2d_21">
     <path d="M 941.089687 98.7375 
L 952.089687 98.7375 
L 963.089687 98.7375 
" style="fill: none; stroke-dasharray: 6,2.25; stroke-dashoffset: 0; stroke: #dd8452; stroke-width: 1.5"/>
    </g>
    <g id="text_20">
     <!-- trend (2-hr) -->
     <g style="fill: #262626" transform="translate(971.889687 102.5875)scale(0.11 -0.11)">
      <defs>
       <path id="ArialMT-6e" d="M 422 0 
L 422 3319 
L 928 3319 
L 928 2847 
Q 1294 3394 1984 3394 
Q 2284 3394 2536 3286 
Q 2788 3178 2913 3003 
Q 3038 2828 3088 2588 
Q 3119 2431 3119 2041 
L 3119 0 
L 2556 0 
L 2556 2019 
Q 2556 2363 2490 2533 
Q 2425 2703 2258 2804 
Q 2091 2906 1866 2906 
Q 1506 2906 1245 2678 
Q 984 2450 984 1813 
L 984 0 
L 422 0 
z
" transform="scale(0.015625)"/>
      </defs>
      <use xlink:href="#ArialMT-74"/>
      <use xlink:href="#ArialMT-72" x="27.783203"/>
      <use xlink:href="#ArialMT-65" x="61.083984"/>
      <use xlink:href="#ArialMT-6e" x="116.699219"/>
      <use xlink:href="#ArialMT-64" x="172.314453"/>
      <use xlink:href="#ArialMT-20" x="227.929688"/>
      <use xlink:href="#ArialMT-28" x="255.712891"/>
      <use xlink:href="#ArialMT-32" x="289.013672"/>
      <use xlink:href="#ArialMT-2d" x="344.628906"/>
      <use xlink:href="#ArialMT-68" x="377.929688"/>
      <use xlink:href="#ArialMT-72" x="433.544922"/>
      <use xlink:href="#ArialMT-29" x="466.845703"/>
     </g>
    </g>
   </g>
  </g>
  <g id="text_21">
   <!-- Battery NYC Water Temperature -->
   <g style="fill: #262626" transform="translate(403.951875 28.99125)scale(0.24 -0.24)">
    <defs>
     <path id="ArialMT-42" d="M 469 0 
L 469 4581 
L 2188 4581 
Q 2713 4581 3030 4442 
Q 3347 4303 3526 4014 
Q 3706 3725 3706 3409 
Q 3706 3116 3547 2856 
Q 3388 2597 3066 2438 
Q 3481 2316 3704 2022 
Q 3928 1728 3928 1328 
Q 3928 1006 3792 729 
Q 3656 453 3456 303 
Q 3256 153 2954 76 
Q 2653 0 2216 0 
L 469 0 
z
M 1075 2656 
L 2066 2656 
Q 2469 2656 2644 2709 
Q 2875 2778 2992 2937 
Q 3109 3097 3109 3338 
Q 3109 3566 3000 3739 
Q 2891 3913 2687 3977 
Q 2484 4041 1991 4041 
L 1075 4041 
L 1075 2656 
z
M 1075 541 
L 2216 541 
Q 2509 541 2628 563 
Q 2838 600 2978 687 
Q 3119 775 3209 942 
Q 3300 1109 3300 1328 
Q 3300 1584 3169 1773 
Q 3038 1963 2805 2039 
Q 2572 2116 2134 2116 
L 1075 2116 
L 1075 541 
z
" transform="scale(0.015625)"/>
     <path id="ArialMT-79" d="M 397 -1278 
L 334 -750 
Q 519 -800 656 -800 
Q 844 -800 956 -737 
Q 1069 -675 1141 -563 
Q 1194 -478 1313 -144 
Q 1328 -97 1363 -6 
L 103 3319 
L 709 3319 
L 1400 1397 
Q 1534 1031 1641 628 
Q 1738 1016 1872 1384 
L 2581 3319 
L 3144 3319 
L 1881 -56 
Q 1678 -603 1566 -809 
Q 1416 -1088 1222 -1217 
Q 1028 -1347 759 -1347 
Q 597 -1347 397 -1278 
z
" transform="scale(0.015625)"/>
     <path id="ArialMT-4e" d="M 488 0 
L 488 4581 
L 1109 4581 
L 3516 984 
L 3516 4581 
L 4097 4581 
L 4097 0 
L 3475 0 
L 1069 3600 
L 1069 0 
L 488 0 
z
" transform="scale(0.015625)"/>
     <path id="ArialMT-59" d="M 1784 0 
L 1784 1941 
L 19 4581 
L 756 4581 
L 1659 3200 
Q 1909 2813 2125 2425 
Q 2331 2784 2625 3234 
L 3513 4581 
L 4219 4581 
L 2391 1941 
L 2391 0 
L 1784 0 
z
" transform="scale(0.015625)"/>
     <path id="ArialMT-43" d="M 3763 1606 
L 4369 1453 
Q 4178 706 3683 314 
Q 3188 -78 2472 -78 
Q 1731 -78 1267 223 
Q 803 525 561 1097 
Q 319 1669 319 2325 
Q 319 3041 592 3573 
Q 866 4106 1370 4382 
Q 1875 4659 2481 4659 
Q 3169 4659 3637 4309 
Q 4106 3959 4291 3325 
L 3694 3184 
Q 3534 3684 3231 3912 
Q 2928 4141 2469 4141 
Q 1941 4141 1586 3887 
Q 1231 3634 1087 3207 
Q 944 2781 944 2328 
Q 944 1744 1114 1308 
Q 1284 872 1643 656 
Q 2003 441 2422 441 
Q 2931 441 3284 734 
Q 3638 1028 3763 1606 
z
" transform="scale(0.015625)"/>
    </defs>
    <use xlink:href="#ArialMT-42"/>
    <use xlink:href="#ArialMT-61" x="66.699219"/>
    <use xlink:href="#ArialMT-74" x="122.314453"/>
    <use xlink:href="#ArialMT-74" x="150.097656"/>
    <use xlink:href="#ArialMT-65" x="177.880859"/>
    <use xlink:href="#ArialMT-72" x="233.496094"/>
    <use xlink:href="#ArialMT-79" x="266.796875"/>
    <use xlink:href="#ArialMT-20" x="316.796875"/>
    <use xlink:href="#ArialMT-4e" x="344.580078"/>
    <use xlink:href="#ArialMT-59" x="416.796875"/>
    <use xlink:href="#ArialMT-43" x="483.496094"/>
    <use xlink:href="#ArialMT-20" x="555.712891"/>
    <use xlink:href="#ArialMT-57" x="583.496094"/>
    <use xlink:href="#ArialMT-61" x="674.130859"/>
    <use xlink:href="#ArialMT-74" x="729.746094"/>
    <use xlink:href="#ArialMT-65" x="757.529297"/>
    <use xlink:href="#ArialMT-72" x="813.144531"/>
    <use xlink:href="#ArialMT-20" x="846.445312"/>
    <use xlink:href="#ArialMT-54" x="872.478516"/>
    <use xlink:href="#ArialMT-65" x="922.4375"/>
    <use xlink:href="#ArialMT-6d" x="978.052734"/>
    <use xlink:href="#ArialMT-70" x="1061.353516"/>
    <use xlink:href="#ArialMT-65" x="1116.96875"/>
    <use xlink:href="#ArialMT-72" x="1172.583984"/>
    <use xlink:href="#ArialMT-61" x="1205.884766"/>
    <use xlink:href="#ArialMT-74" x="1261.5"/>
    <use xlink:href="#ArialMT-75" x="1289.283203"/>
    <use xlink:href="#ArialMT-72" x="1344.898438"/>
    <use xlink:href="#ArialMT-65" x="1378.199219"/>
   </g>
  </g>
 </g>
 <defs>
  <clipPath id="pef6b6698a1">
   <rect x="144" y="69.12" width="892.8" height="443.52"/>
  </clipPath>
 </defs>
</svg>
