<?xml version="1.0" encoding="utf-8" standalone="no"?>
<!DOCTYPE svg PUBLIC "-//W3C//DTD SVG 1.1//EN"
  "http://www.w3.org/Graphics/SVG/1.1/DTD/svg11.dtd">
<svg xmlns:xlink="http://www.w3.org/1999/xlink" width="1010.797812pt" height="555.541406pt" viewBox="0 0 1010.797812 555.541406" xmlns="http://www.w3.org/2000/svg" version="1.1">
 <metadata>
  <rdf:RDF xmlns:dc="http://purl.org/dc/elements/1.1/" xmlns:cc="http://creativecommons.org/ns#" xmlns:rdf="http://www.w3.org/1999/02/22-rdf-syntax-ns#">
   <cc:Work>
    <dc:type rdf:resource="http://purl.org/dc/dcmitype/StillImage"/>
    <dc:date>2023-02-11T18:21:45.543164</dc:date>
    <dc:format>image/svg+xml</dc:format>
    <dc:creator>
     <cc:Agent>
      <dc:title>Matplotlib v3.6.3, https://matplotlib.org/</dc:title>
     </cc:Agent>
    </dc:creator>
   </cc:Work>
  </rdf:RDF>
 </metadata>
 <defs>
  <style type="text/css">*{stroke-linejoin: round; stroke-linecap: butt}</style>
 </defs>
 <g id="figure_1">
  <g id="patch_1">
   <path d="M 0 555.541406
L 1010.797812 555.541406
L 1010.797812 0
L 0 0
z
" style="fill: #ffffff"/>
  </g>
  <g id="axes_1">
   <g id="patch_2">
    <path d="M 65.115938 508.32
L 957.915937 508.32
L 957.915937 64.8
L 65.115938 64.8
z
" style="fill: #eaeaf2"/>
   </g>
   <g id="matplotlib.axis_1">
    <g id="xtick_1">
     <g id="line2d_1">
      <path d="M 100.614438 508.32
L 100.614438 64.8
" clip-path="url(#p8cb2f222b1)" style="fill: none; stroke: #ffffff; stroke-linecap: round"/>
     </g>
     <g id="text_1">
      <!-- Thu 6 PM -->
      <g style="fill: #262626" transform="translate(76.773657 525.693594) scale(0.11 -0.11)">
       <defs>
        <path id="ArialMT-54" d="M 1659 0
L 1659 4041
L 150 4041
L 150 4581
L 3781 4581
L 3781 4041
L 2266 4041
L 2266 0
L 1659 0
z
" transform="scale(0.015625)"/>
        <path id="ArialMT-68" d="M 422 0
L 422 4581
L 984 4581
L 984 2938
Q 1378 3394 1978 3394
Q 2347 3394 2619 3248
Q 2891 3103 3008 2847
Q 3125 2591 3125 2103
L 3125 0
L 2563 0
L 2563 2103
Q 2563 2525 2380 2717
Q 2197 2909 1863 2909
Q 1613 2909 1392 2779
Q 1172 2650 1078 2428
Q 984 2206 984 1816
L 984 0
L 422 0
z
" transform="scale(0.015625)"/>
        <path id="ArialMT-75" d="M 2597 0
L 2597 488
Q 2209 -75 1544 -75
Q 1250 -75 995 37
Q 741 150 617 320
Q 494 491 444 738
Q 409 903 409 1263
L 409 3319
L 972 3319
L 972 1478
Q 972 1038 1006 884
Q 1059 663 1231 536
Q 1403 409 1656 409
Q 1909 409 2131 539
Q 2353 669 2445 892
Q 2538 1116 2538 1541
L 2538 3319
L 3100 3319
L 3100 0
L 2597 0
z
" transform="scale(0.015625)"/>
        <path id="ArialMT-20" transform="scale(0.015625)"/>
        <path id="ArialMT-36" d="M 3184 3459
L 2625 3416
Q 2550 3747 2413 3897
Q 2184 4138 1850 4138
Q 1581 4138 1378 3988
Q 1113 3794 959 3422
Q 806 3050 800 2363
Q 1003 2672 1297 2822
Q 1591 2972 1913 2972
Q 2475 2972 2870 2558
Q 3266 2144 3266 1488
Q 3266 1056 3080 686
Q 2894 316 2569 119
Q 2244 -78 1831 -78
Q 1128 -78 684 439
Q 241 956 241 2144
Q 241 3472 731 4075
Q 1159 4600 1884 4600
Q 2425 4600 2770 4297
Q 3116 3994 3184 3459
z
M 888 1484
Q 888 1194 1011 928
Q 1134 663 1356 523
Q 1578 384 1822 384
Q 2178 384 2434 671
Q 2691 959 2691 1453
Q 2691 1928 2437 2201
Q 2184 2475 1800 2475
Q 1419 2475 1153 2201
Q 888 1928 888 1484
z
" transform="scale(0.015625)"/>
        <path id="ArialMT-50" d="M 494 0
L 494 4581
L 2222 4581
Q 2678 4581 2919 4538
Q 3256 4481 3484 4323
Q 3713 4166 3852 3881
Q 3991 3597 3991 3256
Q 3991 2672 3619 2267
Q 3247 1863 2275 1863
L 1100 1863
L 1100 0
L 494 0
z
M 1100 2403
L 2284 2403
Q 2872 2403 3119 2622
Q 3366 2841 3366 3238
Q 3366 3525 3220 3729
Q 3075 3934 2838 4000
Q 2684 4041 2272 4041
L 1100 4041
L 1100 2403
z
" transform="scale(0.015625)"/>
        <path id="ArialMT-4d" d="M 475 0
L 475 4581
L 1388 4581
L 2472 1338
Q 2622 884 2691 659
Q 2769 909 2934 1394
L 4031 4581
L 4847 4581
L 4847 0
L 4263 0
L 4263 3834
L 2931 0
L 2384 0
L 1059 3900
L 1059 0
L 475 0
z
" transform="scale(0.015625)"/>
       </defs>
       <use xlink:href="#ArialMT-54"/>
       <use xlink:href="#ArialMT-68" x="61.083984"/>
       <use xlink:href="#ArialMT-75" x="116.699219"/>
       <use xlink:href="#ArialMT-20" x="172.314453"/>
       <use xlink:href="#ArialMT-36" x="200.097656"/>
       <use xlink:href="#ArialMT-20" x="255.712891"/>
       <use xlink:href="#ArialMT-50" x="283.496094"/>
       <use xlink:href="#ArialMT-4d" x="350.195312"/>
      </g>
     </g>
    </g>
    <g id="xtick_2">
     <g id="line2d_2">
      <path d="M 202.280789 508.32
L 202.280789 64.8
" clip-path="url(#p8cb2f222b1)" style="fill: none; stroke: #ffffff; stroke-linecap: round"/>
     </g>
     <g id="text_2">
      <!-- Fri 12 AM -->
      <g style="fill: #262626" transform="translate(178.747664 525.693594) scale(0.11 -0.11)">
       <defs>
        <path id="ArialMT-46" d="M 525 0
L 525 4581
L 3616 4581
L 3616 4041
L 1131 4041
L 1131 2622
L 3281 2622
L 3281 2081
L 1131 2081
L 1131 0
L 525 0
z
" transform="scale(0.015625)"/>
        <path id="ArialMT-72" d="M 416 0
L 416 3319
L 922 3319
L 922 2816
Q 1116 3169 1280 3281
Q 1444 3394 1641 3394
Q 1925 3394 2219 3213
L 2025 2691
Q 1819 2813 1613 2813
Q 1428 2813 1281 2702
Q 1134 2591 1072 2394
Q 978 2094 978 1738
L 978 0
L 416 0
z
" transform="scale(0.015625)"/>
        <path id="ArialMT-69" d="M 425 3934
L 425 4581
L 988 4581
L 988 3934
L 425 3934
z
M 425 0
L 425 3319
L 988 3319
L 988 0
L 425 0
z
" transform="scale(0.015625)"/>
        <path id="ArialMT-31" d="M 2384 0
L 1822 0
L 1822 3584
Q 1619 3391 1289 3197
Q 959 3003 697 2906
L 697 3450
Q 1169 3672 1522 3987
Q 1875 4303 2022 4600
L 2384 4600
L 2384 0
z
" transform="scale(0.015625)"/>
        <path id="ArialMT-32" d="M 3222 541
L 3222 0
L 194 0
Q 188 203 259 391
Q 375 700 629 1000
Q 884 1300 1366 1694
Q 2113 2306 2375 2664
Q 2638 3022 2638 3341
Q 2638 3675 2398 3904
Q 2159 4134 1775 4134
Q 1369 4134 1125 3890
Q 881 3647 878 3216
L 300 3275
Q 359 3922 746 4261
Q 1134 4600 1788 4600
Q 2447 4600 2831 4234
Q 3216 3869 3216 3328
Q 3216 3053 3103 2787
Q 2991 2522 2730 2228
Q 2469 1934 1863 1422
Q 1356 997 1212 845
Q 1069 694 975 541
L 3222 541
z
" transform="scale(0.015625)"/>
        <path id="ArialMT-41" d="M -9 0
L 1750 4581
L 2403 4581
L 4278 0
L 3588 0
L 3053 1388
L 1138 1388
L 634 0
L -9 0
z
M 1313 1881
L 2866 1881
L 2388 3150
Q 2169 3728 2063 4100
Q 1975 3659 1816 3225
L 1313 1881
z
" transform="scale(0.015625)"/>
       </defs>
       <use xlink:href="#ArialMT-46"/>
       <use xlink:href="#ArialMT-72" x="61.083984"/>
       <use xlink:href="#ArialMT-69" x="94.384766"/>
       <use xlink:href="#ArialMT-20" x="116.601562"/>
       <use xlink:href="#ArialMT-31" x="144.384766"/>
       <use xlink:href="#ArialMT-32" x="200"/>
       <use xlink:href="#ArialMT-20" x="255.615234"/>
       <use xlink:href="#ArialMT-41" x="277.898438"/>
       <use xlink:href="#ArialMT-4d" x="344.597656"/>
      </g>
     </g>
    </g>
    <g id="xtick_3">
     <g id="line2d_3">
      <path d="M 303.947139 508.32
L 303.947139 64.8
" clip-path="url(#p8cb2f222b1)" style="fill: none; stroke: #ffffff; stroke-linecap: round"/>
     </g>
     <g id="text_3">
      <!-- Fri 6 AM -->
      <g style="fill: #262626" transform="translate(283.472529 525.693594) scale(0.11 -0.11)">
       <use xlink:href="#ArialMT-46"/>
       <use xlink:href="#ArialMT-72" x="61.083984"/>
       <use xlink:href="#ArialMT-69" x="94.384766"/>
       <use xlink:href="#ArialMT-20" x="116.601562"/>
       <use xlink:href="#ArialMT-36" x="144.384766"/>
       <use xlink:href="#ArialMT-20" x="200"/>
       <use xlink:href="#ArialMT-41" x="222.283203"/>
       <use xlink:href="#ArialMT-4d" x="288.982422"/>
      </g>
     </g>
    </g>
    <g id="xtick_4">
     <g id="line2d_4">
      <path d="M 405.613489 508.32
L 405.613489 64.8
" clip-path="url(#p8cb2f222b1)" style="fill: none; stroke: #ffffff; stroke-linecap: round"/>
     </g>
     <g id="text_4">
      <!-- Fri 12 PM -->
      <g style="fill: #262626" transform="translate(381.777864 525.693594) scale(0.11 -0.11)">
       <use xlink:href="#ArialMT-46"/>
       <use xlink:href="#ArialMT-72" x="61.083984"/>
       <use xlink:href="#ArialMT-69" x="94.384766"/>
       <use xlink:href="#ArialMT-20" x="116.601562"/>
       <use xlink:href="#ArialMT-31" x="144.384766"/>
       <use xlink:href="#ArialMT-32" x="200"/>
       <use xlink:href="#ArialMT-20" x="255.615234"/>
       <use xlink:href="#ArialMT-50" x="283.398438"/>
       <use xlink:href="#ArialMT-4d" x="350.097656"/>
      </g>
     </g>
    </g>
    <g id="xtick_5">
     <g id="line2d_5">
      <path d="M 507.27984 508.32
L 507.27984 64.8
" clip-path="url(#p8cb2f222b1)" style="fill: none; stroke: #ffffff; stroke-linecap: round"/>
     </g>
     <g id="text_5">
      <!-- Fri 6 PM -->
      <g style="fill: #262626" transform="translate(486.50273 525.693594) scale(0.11 -0.11)">
       <use xlink:href="#ArialMT-46"/>
       <use xlink:href="#ArialMT-72" x="61.083984"/>
       <use xlink:href="#ArialMT-69" x="94.384766"/>
       <use xlink:href="#ArialMT-20" x="116.601562"/>
       <use xlink:href="#ArialMT-36" x="144.384766"/>
       <use xlink:href="#ArialMT-20" x="200"/>
       <use xlink:href="#ArialMT-50" x="227.783203"/>
       <use xlink:href="#ArialMT-4d" x="294.482422"/>
      </g>
     </g>
    </g>
    <g id="xtick_6">
     <g id="line2d_6">
      <path d="M 608.94619 508.32
L 608.94619 64.8
" clip-path="url(#p8cb2f222b1)" style="fill: none; stroke: #ffffff; stroke-linecap: round"/>
     </g>
     <g id="text_6">
      <!-- Sat 12 AM -->
      <g style="fill: #262626" transform="translate(583.570565 525.693594) scale(0.11 -0.11)">
       <defs>
        <path id="ArialMT-53" d="M 288 1472
L 859 1522
Q 900 1178 1048 958
Q 1197 738 1509 602
Q 1822 466 2213 466
Q 2559 466 2825 569
Q 3091 672 3220 851
Q 3350 1031 3350 1244
Q 3350 1459 3225 1620
Q 3100 1781 2813 1891
Q 2628 1963 1997 2114
Q 1366 2266 1113 2400
Q 784 2572 623 2826
Q 463 3081 463 3397
Q 463 3744 659 4045
Q 856 4347 1234 4503
Q 1613 4659 2075 4659
Q 2584 4659 2973 4495
Q 3363 4331 3572 4012
Q 3781 3694 3797 3291
L 3216 3247
Q 3169 3681 2898 3903
Q 2628 4125 2100 4125
Q 1550 4125 1298 3923
Q 1047 3722 1047 3438
Q 1047 3191 1225 3031
Q 1400 2872 2139 2705
Q 2878 2538 3153 2413
Q 3553 2228 3743 1945
Q 3934 1663 3934 1294
Q 3934 928 3725 604
Q 3516 281 3123 101
Q 2731 -78 2241 -78
Q 1619 -78 1198 103
Q 778 284 539 648
Q 300 1013 288 1472
z
" transform="scale(0.015625)"/>
        <path id="ArialMT-61" d="M 2588 409
Q 2275 144 1986 34
Q 1697 -75 1366 -75
Q 819 -75 525 192
Q 231 459 231 875
Q 231 1119 342 1320
Q 453 1522 633 1644
Q 813 1766 1038 1828
Q 1203 1872 1538 1913
Q 2219 1994 2541 2106
Q 2544 2222 2544 2253
Q 2544 2597 2384 2738
Q 2169 2928 1744 2928
Q 1347 2928 1158 2789
Q 969 2650 878 2297
L 328 2372
Q 403 2725 575 2942
Q 747 3159 1072 3276
Q 1397 3394 1825 3394
Q 2250 3394 2515 3294
Q 2781 3194 2906 3042
Q 3031 2891 3081 2659
Q 3109 2516 3109 2141
L 3109 1391
Q 3109 606 3145 398
Q 3181 191 3288 0
L 2700 0
Q 2613 175 2588 409
z
M 2541 1666
Q 2234 1541 1622 1453
Q 1275 1403 1131 1340
Q 988 1278 909 1158
Q 831 1038 831 891
Q 831 666 1001 516
Q 1172 366 1500 366
Q 1825 366 2078 508
Q 2331 650 2450 897
Q 2541 1088 2541 1459
L 2541 1666
z
" transform="scale(0.015625)"/>
        <path id="ArialMT-74" d="M 1650 503
L 1731 6
Q 1494 -44 1306 -44
Q 1000 -44 831 53
Q 663 150 594 308
Q 525 466 525 972
L 525 2881
L 113 2881
L 113 3319
L 525 3319
L 525 4141
L 1084 4478
L 1084 3319
L 1650 3319
L 1650 2881
L 1084 2881
L 1084 941
Q 1084 700 1114 631
Q 1144 563 1211 522
Q 1278 481 1403 481
Q 1497 481 1650 503
z
" transform="scale(0.015625)"/>
       </defs>
       <use xlink:href="#ArialMT-53"/>
       <use xlink:href="#ArialMT-61" x="66.699219"/>
       <use xlink:href="#ArialMT-74" x="122.314453"/>
       <use xlink:href="#ArialMT-20" x="150.097656"/>
       <use xlink:href="#ArialMT-31" x="177.880859"/>
       <use xlink:href="#ArialMT-32" x="233.496094"/>
       <use xlink:href="#ArialMT-20" x="289.111328"/>
       <use xlink:href="#ArialMT-41" x="311.394531"/>
       <use xlink:href="#ArialMT-4d" x="378.09375"/>
      </g>
     </g>
    </g>
    <g id="xtick_7">
     <g id="line2d_7">
      <path d="M 710.61254 508.32
L 710.61254 64.8
" clip-path="url(#p8cb2f222b1)" style="fill: none; stroke: #ffffff; stroke-linecap: round"/>
     </g>
     <g id="text_7">
      <!-- Sat 6 AM -->
      <g style="fill: #262626" transform="translate(688.295431 525.693594) scale(0.11 -0.11)">
       <use xlink:href="#ArialMT-53"/>
       <use xlink:href="#ArialMT-61" x="66.699219"/>
       <use xlink:href="#ArialMT-74" x="122.314453"/>
       <use xlink:href="#ArialMT-20" x="150.097656"/>
       <use xlink:href="#ArialMT-36" x="177.880859"/>
       <use xlink:href="#ArialMT-20" x="233.496094"/>
       <use xlink:href="#ArialMT-41" x="255.779297"/>
       <use xlink:href="#ArialMT-4d" x="322.478516"/>
      </g>
     </g>
    </g>
    <g id="xtick_8">
     <g id="line2d_8">
      <path d="M 812.278891 508.32
L 812.278891 64.8
" clip-path="url(#p8cb2f222b1)" style="fill: none; stroke: #ffffff; stroke-linecap: round"/>
     </g>
     <g id="text_8">
      <!-- Sat 12 PM -->
      <g style="fill: #262626" transform="translate(786.600766 525.693594) scale(0.11 -0.11)">
       <use xlink:href="#ArialMT-53"/>
       <use xlink:href="#ArialMT-61" x="66.699219"/>
       <use xlink:href="#ArialMT-74" x="122.314453"/>
       <use xlink:href="#ArialMT-20" x="150.097656"/>
       <use xlink:href="#ArialMT-31" x="177.880859"/>
       <use xlink:href="#ArialMT-32" x="233.496094"/>
       <use xlink:href="#ArialMT-20" x="289.111328"/>
       <use xlink:href="#ArialMT-50" x="316.894531"/>
       <use xlink:href="#ArialMT-4d" x="383.59375"/>
      </g>
     </g>
    </g>
    <g id="xtick_9">
     <g id="line2d_9">
      <path d="M 913.945241 508.32
L 913.945241 64.8
" clip-path="url(#p8cb2f222b1)" style="fill: none; stroke: #ffffff; stroke-linecap: round"/>
     </g>
     <g id="text_9">
      <!-- Sat 6 PM -->
      <g style="fill: #262626" transform="translate(891.325632 525.693594) scale(0.11 -0.11)">
       <use xlink:href="#ArialMT-53"/>
       <use xlink:href="#ArialMT-61" x="66.699219"/>
       <use xlink:href="#ArialMT-74" x="122.314453"/>
       <use xlink:href="#ArialMT-20" x="150.097656"/>
       <use xlink:href="#ArialMT-36" x="177.880859"/>
       <use xlink:href="#ArialMT-20" x="233.496094"/>
       <use xlink:href="#ArialMT-50" x="261.279297"/>
       <use xlink:href="#ArialMT-4d" x="327.978516"/>
      </g>
     </g>
    </g>
    <g id="text_10">
     <!-- Time -->
     <g style="fill: #262626" transform="translate(491.855156 544.763906) scale(0.18 -0.18)">
      <defs>
       <path id="ArialMT-6d" d="M 422 0
L 422 3319
L 925 3319
L 925 2853
Q 1081 3097 1340 3245
Q 1600 3394 1931 3394
Q 2300 3394 2536 3241
Q 2772 3088 2869 2813
Q 3263 3394 3894 3394
Q 4388 3394 4653 3120
Q 4919 2847 4919 2278
L 4919 0
L 4359 0
L 4359 2091
Q 4359 2428 4304 2576
Q 4250 2725 4106 2815
Q 3963 2906 3769 2906
Q 3419 2906 3187 2673
Q 2956 2441 2956 1928
L 2956 0
L 2394 0
L 2394 2156
Q 2394 2531 2256 2718
Q 2119 2906 1806 2906
Q 1569 2906 1367 2781
Q 1166 2656 1075 2415
Q 984 2175 984 1722
L 984 0
L 422 0
z
" transform="scale(0.015625)"/>
       <path id="ArialMT-65" d="M 2694 1069
L 3275 997
Q 3138 488 2766 206
Q 2394 -75 1816 -75
Q 1088 -75 661 373
Q 234 822 234 1631
Q 234 2469 665 2931
Q 1097 3394 1784 3394
Q 2450 3394 2872 2941
Q 3294 2488 3294 1666
Q 3294 1616 3291 1516
L 816 1516
Q 847 969 1125 678
Q 1403 388 1819 388
Q 2128 388 2347 550
Q 2566 713 2694 1069
z
M 847 1978
L 2700 1978
Q 2663 2397 2488 2606
Q 2219 2931 1791 2931
Q 1403 2931 1139 2672
Q 875 2413 847 1978
z
" transform="scale(0.015625)"/>
      </defs>
      <use xlink:href="#ArialMT-54"/>
      <use xlink:href="#ArialMT-69" x="57.333984"/>
      <use xlink:href="#ArialMT-6d" x="79.550781"/>
      <use xlink:href="#ArialMT-65" x="162.851562"/>
     </g>
    </g>
   </g>
   <g id="matplotlib.axis_2">
    <g id="ytick_1">
     <g id="line2d_10">
      <path d="M 65.115938 488.16
L 957.915937 488.16
" clip-path="url(#p8cb2f222b1)" style="fill: none; stroke: #ffffff; stroke-linecap: round"/>
     </g>
     <g id="line2d_11">
      <defs>
       <path id="mf579154345" d="M 0 0
L -6 0
" style="stroke: #262626; stroke-width: 1.25"/>
      </defs>
      <g>
       <use xlink:href="#mf579154345" x="65.115938" y="488.16" style="fill: #262626; stroke: #262626; stroke-width: 1.25"/>
      </g>
     </g>
     <g id="text_11">
      <!-- 40.50 -->
      <g style="fill: #262626" transform="translate(28.091875 492.096797) scale(0.11 -0.11)">
       <defs>
        <path id="ArialMT-34" d="M 2069 0
L 2069 1097
L 81 1097
L 81 1613
L 2172 4581
L 2631 4581
L 2631 1613
L 3250 1613
L 3250 1097
L 2631 1097
L 2631 0
L 2069 0
z
M 2069 1613
L 2069 3678
L 634 1613
L 2069 1613
z
" transform="scale(0.015625)"/>
        <path id="ArialMT-30" d="M 266 2259
Q 266 3072 433 3567
Q 600 4063 929 4331
Q 1259 4600 1759 4600
Q 2128 4600 2406 4451
Q 2684 4303 2865 4023
Q 3047 3744 3150 3342
Q 3253 2941 3253 2259
Q 3253 1453 3087 958
Q 2922 463 2592 192
Q 2263 -78 1759 -78
Q 1097 -78 719 397
Q 266 969 266 2259
z
M 844 2259
Q 844 1131 1108 757
Q 1372 384 1759 384
Q 2147 384 2411 759
Q 2675 1134 2675 2259
Q 2675 3391 2411 3762
Q 2147 4134 1753 4134
Q 1366 4134 1134 3806
Q 844 3388 844 2259
z
" transform="scale(0.015625)"/>
        <path id="ArialMT-2e" d="M 581 0
L 581 641
L 1222 641
L 1222 0
L 581 0
z
" transform="scale(0.015625)"/>
        <path id="ArialMT-35" d="M 266 1200
L 856 1250
Q 922 819 1161 601
Q 1400 384 1738 384
Q 2144 384 2425 690
Q 2706 997 2706 1503
Q 2706 1984 2436 2262
Q 2166 2541 1728 2541
Q 1456 2541 1237 2417
Q 1019 2294 894 2097
L 366 2166
L 809 4519
L 3088 4519
L 3088 3981
L 1259 3981
L 1013 2750
Q 1425 3038 1878 3038
Q 2478 3038 2890 2622
Q 3303 2206 3303 1553
Q 3303 931 2941 478
Q 2500 -78 1738 -78
Q 1113 -78 717 272
Q 322 622 266 1200
z
" transform="scale(0.015625)"/>
       </defs>
       <use xlink:href="#ArialMT-34"/>
       <use xlink:href="#ArialMT-30" x="55.615234"/>
       <use xlink:href="#ArialMT-2e" x="111.230469"/>
       <use xlink:href="#ArialMT-35" x="139.013672"/>
       <use xlink:href="#ArialMT-30" x="194.628906"/>
      </g>
     </g>
    </g>
    <g id="ytick_2">
     <g id="line2d_12">
      <path d="M 65.115938 432.16
L 957.915937 432.16
" clip-path="url(#p8cb2f222b1)" style="fill: none; stroke: #ffffff; stroke-linecap: round"/>
     </g>
     <g id="line2d_13">
      <g>
       <use xlink:href="#mf579154345" x="65.115938" y="432.16" style="fill: #262626; stroke: #262626; stroke-width: 1.25"/>
      </g>
     </g>
     <g id="text_12">
      <!-- 40.75 -->
      <g style="fill: #262626" transform="translate(28.091875 436.096797) scale(0.11 -0.11)">
       <defs>
        <path id="ArialMT-37" d="M 303 3981
L 303 4522
L 3269 4522
L 3269 4084
Q 2831 3619 2401 2847
Q 1972 2075 1738 1259
Q 1569 684 1522 0
L 944 0
Q 953 541 1156 1306
Q 1359 2072 1739 2783
Q 2119 3494 2547 3981
L 303 3981
z
" transform="scale(0.015625)"/>
       </defs>
       <use xlink:href="#ArialMT-34"/>
       <use xlink:href="#ArialMT-30" x="55.615234"/>
       <use xlink:href="#ArialMT-2e" x="111.230469"/>
       <use xlink:href="#ArialMT-37" x="139.013672"/>
       <use xlink:href="#ArialMT-35" x="194.628906"/>
      </g>
     </g>
    </g>
    <g id="ytick_3">
     <g id="line2d_14">
      <path d="M 65.115938 376.16
L 957.915937 376.16
" clip-path="url(#p8cb2f222b1)" style="fill: none; stroke: #ffffff; stroke-linecap: round"/>
     </g>
     <g id="line2d_15">
      <g>
       <use xlink:href="#mf579154345" x="65.115938" y="376.16" style="fill: #262626; stroke: #262626; stroke-width: 1.25"/>
      </g>
     </g>
     <g id="text_13">
      <!-- 41.00 -->
      <g style="fill: #262626" transform="translate(28.091875 380.096797) scale(0.11 -0.11)">
       <use xlink:href="#ArialMT-34"/>
       <use xlink:href="#ArialMT-31" x="55.615234"/>
       <use xlink:href="#ArialMT-2e" x="111.230469"/>
       <use xlink:href="#ArialMT-30" x="139.013672"/>
       <use xlink:href="#ArialMT-30" x="194.628906"/>
      </g>
     </g>
    </g>
    <g id="ytick_4">
     <g id="line2d_16">
      <path d="M 65.115938 320.16
L 957.915937 320.16
" clip-path="url(#p8cb2f222b1)" style="fill: none; stroke: #ffffff; stroke-linecap: round"/>
     </g>
     <g id="line2d_17">
      <g>
       <use xlink:href="#mf579154345" x="65.115938" y="320.16" style="fill: #262626; stroke: #262626; stroke-width: 1.25"/>
      </g>
     </g>
     <g id="text_14">
      <!-- 41.25 -->
      <g style="fill: #262626" transform="translate(28.091875 324.096797) scale(0.11 -0.11)">
       <use xlink:href="#ArialMT-34"/>
       <use xlink:href="#ArialMT-31" x="55.615234"/>
       <use xlink:href="#ArialMT-2e" x="111.230469"/>
       <use xlink:href="#ArialMT-32" x="139.013672"/>
       <use xlink:href="#ArialMT-35" x="194.628906"/>
      </g>
     </g>
    </g>
    <g id="ytick_5">
     <g id="line2d_18">
      <path d="M 65.115938 264.16
L 957.915937 264.16
" clip-path="url(#p8cb2f222b1)" style="fill: none; stroke: #ffffff; stroke-linecap: round"/>
     </g>
     <g id="line2d_19">
      <g>
       <use xlink:href="#mf579154345" x="65.115938" y="264.16" style="fill: #262626; stroke: #262626; stroke-width: 1.25"/>
      </g>
     </g>
     <g id="text_15">
      <!-- 41.50 -->
      <g style="fill: #262626" transform="translate(28.091875 268.096797) scale(0.11 -0.11)">
       <use xlink:href="#ArialMT-34"/>
       <use xlink:href="#ArialMT-31" x="55.615234"/>
       <use xlink:href="#ArialMT-2e" x="111.230469"/>
       <use xlink:href="#ArialMT-35" x="139.013672"/>
       <use xlink:href="#ArialMT-30" x="194.628906"/>
      </g>
     </g>
    </g>
    <g id="ytick_6">
     <g id="line2d_20">
      <path d="M 65.115938 208.16
L 957.915937 208.16
" clip-path="url(#p8cb2f222b1)" style="fill: none; stroke: #ffffff; stroke-linecap: round"/>
     </g>
     <g id="line2d_21">
      <g>
       <use xlink:href="#mf579154345" x="65.115938" y="208.16" style="fill: #262626; stroke: #262626; stroke-width: 1.25"/>
      </g>
     </g>
     <g id="text_16">
      <!-- 41.75 -->
      <g style="fill: #262626" transform="translate(28.091875 212.096797) scale(0.11 -0.11)">
       <use xlink:href="#ArialMT-34"/>
       <use xlink:href="#ArialMT-31" x="55.615234"/>
       <use xlink:href="#ArialMT-2e" x="111.230469"/>
       <use xlink:href="#ArialMT-37" x="139.013672"/>
       <use xlink:href="#ArialMT-35" x="194.628906"/>
      </g>
     </g>
    </g>
    <g id="ytick_7">
     <g id="line2d_22">
      <path d="M 65.115938 152.16
L 957.915937 152.16
" clip-path="url(#p8cb2f222b1)" style="fill: none; stroke: #ffffff; stroke-linecap: round"/>
     </g>
     <g id="line2d_23">
      <g>
       <use xlink:href="#mf579154345" x="65.115938" y="152.16" style="fill: #262626; stroke: #262626; stroke-width: 1.25"/>
      </g>
     </g>
     <g id="text_17">
      <!-- 42.00 -->
      <g style="fill: #262626" transform="translate(28.091875 156.096797) scale(0.11 -0.11)">
       <use xlink:href="#ArialMT-34"/>
       <use xlink:href="#ArialMT-32" x="55.615234"/>
       <use xlink:href="#ArialMT-2e" x="111.230469"/>
       <use xlink:href="#ArialMT-30" x="139.013672"/>
       <use xlink:href="#ArialMT-30" x="194.628906"/>
      </g>
     </g>
    </g>
    <g id="ytick_8">
     <g id="line2d_24">
      <path d="M 65.115938 96.16
L 957.915937 96.16
" clip-path="url(#p8cb2f222b1)" style="fill: none; stroke: #ffffff; stroke-linecap: round"/>
     </g>
     <g id="line2d_25">
      <g>
       <use xlink:href="#mf579154345" x="65.115938" y="96.16" style="fill: #262626; stroke: #262626; stroke-width: 1.25"/>
      </g>
     </g>
     <g id="text_18">
      <!-- 42.25 -->
      <g style="fill: #262626" transform="translate(28.091875 100.096797) scale(0.11 -0.11)">
       <use xlink:href="#ArialMT-34"/>
       <use xlink:href="#ArialMT-32" x="55.615234"/>
       <use xlink:href="#ArialMT-2e" x="111.230469"/>
       <use xlink:href="#ArialMT-32" x="139.013672"/>
       <use xlink:href="#ArialMT-35" x="194.628906"/>
      </g>
     </g>
    </g>
    <g id="text_19">
     <!-- Water Temp (°F) -->
     <g style="fill: #262626" transform="translate(20.303438 352.15875) rotate(-90) scale(0.18 -0.18)">
      <defs>
       <path id="ArialMT-57" d="M 1294 0
L 78 4581
L 700 4581
L 1397 1578
Q 1509 1106 1591 641
Q 1766 1375 1797 1488
L 2669 4581
L 3400 4581
L 4056 2263
Q 4303 1400 4413 641
Q 4500 1075 4641 1638
L 5359 4581
L 5969 4581
L 4713 0
L 4128 0
L 3163 3491
Q 3041 3928 3019 4028
Q 2947 3713 2884 3491
L 1913 0
L 1294 0
z
" transform="scale(0.015625)"/>
       <path id="ArialMT-70" d="M 422 -1272
L 422 3319
L 934 3319
L 934 2888
Q 1116 3141 1344 3267
Q 1572 3394 1897 3394
Q 2322 3394 2647 3175
Q 2972 2956 3137 2557
Q 3303 2159 3303 1684
Q 3303 1175 3120 767
Q 2938 359 2589 142
Q 2241 -75 1856 -75
Q 1575 -75 1351 44
Q 1128 163 984 344
L 984 -1272
L 422 -1272
z
M 931 1641
Q 931 1000 1190 694
Q 1450 388 1819 388
Q 2194 388 2461 705
Q 2728 1022 2728 1688
Q 2728 2322 2467 2637
Q 2206 2953 1844 2953
Q 1484 2953 1207 2617
Q 931 2281 931 1641
z
" transform="scale(0.015625)"/>
       <path id="ArialMT-28" d="M 1497 -1347
Q 1031 -759 709 28
Q 388 816 388 1659
Q 388 2403 628 3084
Q 909 3875 1497 4659
L 1900 4659
Q 1522 4009 1400 3731
Q 1209 3300 1100 2831
Q 966 2247 966 1656
Q 966 153 1900 -1347
L 1497 -1347
z
" transform="scale(0.015625)"/>
       <path id="ArialMT-b0" d="M 400 3794
Q 400 4153 654 4406
Q 909 4659 1266 4659
Q 1628 4659 1881 4406
Q 2134 4153 2134 3794
Q 2134 3434 1879 3179
Q 1625 2925 1266 2925
Q 909 2925 654 3178
Q 400 3431 400 3794
z
M 741 3794
Q 741 3575 895 3420
Q 1050 3266 1269 3266
Q 1484 3266 1639 3420
Q 1794 3575 1794 3794
Q 1794 4013 1639 4167
Q 1484 4322 1269 4322
Q 1050 4322 895 4167
Q 741 4013 741 3794
z
" transform="scale(0.015625)"/>
       <path id="ArialMT-29" d="M 791 -1347
L 388 -1347
Q 1322 153 1322 1656
Q 1322 2244 1188 2822
Q 1081 3291 891 3722
Q 769 4003 388 4659
L 791 4659
Q 1378 3875 1659 3084
Q 1900 2403 1900 1659
Q 1900 816 1576 28
Q 1253 -759 791 -1347
z
" transform="scale(0.015625)"/>
      </defs>
      <use xlink:href="#ArialMT-57"/>
      <use xlink:href="#ArialMT-61" x="90.634766"/>
      <use xlink:href="#ArialMT-74" x="146.25"/>
      <use xlink:href="#ArialMT-65" x="174.033203"/>
      <use xlink:href="#ArialMT-72" x="229.648438"/>
      <use xlink:href="#ArialMT-20" x="262.949219"/>
      <use xlink:href="#ArialMT-54" x="288.982422"/>
      <use xlink:href="#ArialMT-65" x="338.941406"/>
      <use xlink:href="#ArialMT-6d" x="394.556641"/>
      <use xlink:href="#ArialMT-70" x="477.857422"/>
      <use xlink:href="#ArialMT-20" x="533.472656"/>
      <use xlink:href="#ArialMT-28" x="561.255859"/>
      <use xlink:href="#ArialMT-b0" x="594.556641"/>
      <use xlink:href="#ArialMT-46" x="634.546875"/>
      <use xlink:href="#ArialMT-29" x="695.630859"/>
     </g>
    </g>
   </g>
   <g id="PolyCollection_1"/>
   <g id="PolyCollection_2"/>
   <g id="line2d_26">
    <path d="M 105.697756 376.16
L 107.392195 353.76
L 109.086634 376.16
L 114.169952 376.16
L 115.864391 353.76
L 117.55883 376.16
L 124.336587 376.16
L 126.031026 398.56
L 127.725465 398.56
L 129.419904 465.76
L 136.197661 465.76
L 137.8921 488.16
L 139.586539 443.36
L 142.975417 308.96
L 148.058735 241.76
L 149.753174 286.56
L 151.447613 353.76
L 153.142053 353.76
L 154.836492 376.16
L 158.22537 376.16
L 163.308688 308.96
L 165.003127 264.16
L 166.697566 286.56
L 170.086444 286.56
L 173.475323 241.76
L 176.864201 286.56
L 178.55864 286.56
L 180.253079 264.16
L 183.641958 264.16
L 188.725275 196.96
L 202.280789 196.96
L 203.975228 219.36
L 212.447424 219.36
L 214.141863 196.96
L 215.836302 219.36
L 217.530741 219.36
L 220.919619 264.16
L 222.614059 241.76
L 226.002937 241.76
L 227.697376 264.16
L 232.780694 264.16
L 234.475133 241.76
L 236.169572 241.76
L 237.864011 219.36
L 241.252889 219.36
L 242.947329 241.76
L 244.641768 219.36
L 246.336207 264.16
L 248.030646 286.56
L 249.725085 286.56
L 251.419525 308.96
L 253.113964 308.96
L 254.808403 353.76
L 256.502842 308.96
L 259.89172 308.96
L 261.58616 331.36
L 263.280599 308.96
L 264.975038 331.36
L 266.669477 308.96
L 270.058355 308.96
L 271.752795 331.36
L 280.22499 331.36
L 281.91943 286.56
L 283.613869 286.56
L 285.308308 264.16
L 288.697186 264.16
L 292.086065 308.96
L 293.780504 286.56
L 295.474943 308.96
L 297.169382 286.56
L 298.863821 286.56
L 300.558261 308.96
L 302.2527 308.96
L 303.947139 286.56
L 305.641578 308.96
L 307.336017 286.56
L 309.030456 308.96
L 327.669287 308.96
L 329.363726 331.36
L 331.058166 331.36
L 332.752605 308.96
L 336.141483 308.96
L 337.835922 331.36
L 339.530361 331.36
L 342.91924 376.16
L 344.613679 376.16
L 346.308118 398.56
L 348.002557 398.56
L 349.696997 376.16
L 351.391436 376.16
L 353.085875 353.76
L 354.780314 376.16
L 356.474753 308.96
L 359.863632 264.16
L 361.558071 264.16
L 363.25251 241.76
L 364.946949 264.16
L 366.641388 241.76
L 368.335827 264.16
L 373.419145 264.16
L 375.113584 286.56
L 386.974658 286.56
L 388.669097 264.16
L 390.363537 264.16
L 392.057976 241.76
L 400.530172 241.76
L 403.91905 196.96
L 405.613489 196.96
L 407.307928 174.56
L 410.696807 174.56
L 412.391246 152.16
L 414.085685 152.16
L 415.780124 174.56
L 422.557881 174.56
L 424.25232 152.16
L 432.724516 152.16
L 434.418955 129.76
L 437.807833 129.76
L 439.502273 152.16
L 442.891151 107.36
L 449.668908 107.36
L 451.363347 84.96
L 453.057786 107.36
L 456.446664 107.36
L 458.141104 129.76
L 459.835543 129.76
L 461.529982 107.36
L 463.224421 107.36
L 464.91886 84.96
L 466.613299 107.36
L 471.696617 107.36
L 473.391056 84.96
L 475.085495 107.36
L 476.779934 84.96
L 480.168813 84.96
L 481.863252 107.36
L 493.724326 107.36
L 495.418765 129.76
L 497.113205 129.76
L 498.807644 152.16
L 500.502083 129.76
L 502.196522 152.16
L 508.974279 152.16
L 510.668718 174.56
L 512.363157 152.16
L 514.057596 152.16
L 515.752035 174.56
L 519.140914 174.56
L 520.835353 152.16
L 522.529792 196.96
L 525.91867 152.16
L 529.307549 196.96
L 531.001988 196.96
L 532.696427 174.56
L 534.390866 219.36
L 536.085306 196.96
L 537.779745 219.36
L 541.168623 219.36
L 542.863062 241.76
L 547.94638 241.76
L 549.640819 264.16
L 559.807454 264.16
L 561.501893 286.56
L 563.196332 286.56
L 564.890771 308.96
L 573.362967 308.96
L 575.057406 286.56
L 576.751846 308.96
L 578.446285 308.96
L 580.140724 286.56
L 581.835163 241.76
L 583.529602 241.76
L 588.61292 308.96
L 597.085116 308.96
L 598.779555 286.56
L 600.473994 286.56
L 602.168433 264.16
L 605.557312 264.16
L 607.251751 286.56
L 608.94619 286.56
L 610.640629 308.96
L 612.335068 308.96
L 614.029507 286.56
L 615.723947 219.36
L 620.807264 152.16
L 622.501703 174.56
L 624.196142 241.76
L 625.890582 331.36
L 627.585021 353.76
L 629.27946 353.76
L 630.973899 308.96
L 632.668338 286.56
L 634.362778 376.16
L 636.057217 331.36
L 641.140534 331.36
L 642.834973 353.76
L 644.529413 353.76
L 649.61273 420.96
L 653.001608 420.96
L 654.696048 331.36
L 659.779365 398.56
L 661.473804 398.56
L 663.168243 376.16
L 666.557122 376.16
L 668.251561 353.76
L 669.946 376.16
L 671.640439 308.96
L 675.029318 353.76
L 676.723757 420.96
L 678.418196 420.96
L 680.112635 353.76
L 681.807074 308.96
L 683.501514 308.96
L 686.890392 264.16
L 690.27927 264.16
L 691.973709 308.96
L 695.362588 353.76
L 700.445905 353.76
L 702.140344 331.36
L 703.834784 376.16
L 705.529223 331.36
L 707.223662 241.76
L 708.918101 241.76
L 710.61254 308.96
L 712.306979 331.36
L 714.001419 398.56
L 717.390297 398.56
L 719.084736 353.76
L 720.779175 398.56
L 722.473614 420.96
L 724.168054 420.96
L 725.862493 443.36
L 727.556932 376.16
L 729.251371 353.76
L 730.94581 353.76
L 732.64025 420.96
L 734.334689 331.36
L 736.029128 398.56
L 737.723567 353.76
L 739.418006 376.16
L 742.806885 331.36
L 744.501324 398.56
L 746.195763 420.96
L 747.890202 376.16
L 749.584641 353.76
L 752.97352 353.76
L 754.667959 376.16
L 759.751276 376.16
L 761.445715 353.76
L 763.140155 353.76
L 764.834594 331.36
L 766.529033 331.36
L 768.223472 308.96
L 773.30679 308.96
L 775.001229 286.56
L 776.695668 308.96
L 778.390107 308.96
L 780.084546 286.56
L 783.473425 286.56
L 788.556742 219.36
L 790.251181 241.76
L 791.945621 219.36
L 793.64006 241.76
L 797.028938 376.16
L 800.417816 376.16
L 802.112256 353.76
L 803.806695 353.76
L 805.501134 331.36
L 807.195573 331.36
L 812.278891 264.16
L 813.97333 174.56
L 815.667769 196.96
L 817.362208 174.56
L 819.056647 174.56
L 820.751086 196.96
L 822.445526 174.56
L 825.834404 174.56
L 827.528843 129.76
L 829.223282 107.36
L 830.917722 107.36
L 832.612161 129.76
L 834.3066 129.76
L 836.001039 152.16
L 837.695478 152.16
L 839.389917 174.56
L 842.778796 174.56
L 844.473235 264.16
L 846.167674 286.56
L 847.862113 264.16
L 849.556552 264.16
L 851.250992 241.76
L 854.63987 241.76
L 856.334309 264.16
L 859.723187 219.36
L 861.417627 219.36
L 863.112066 241.76
L 866.500944 241.76
L 869.889822 196.96
L 871.584262 196.96
L 873.278701 219.36
L 874.97314 219.36
L 876.667579 241.76
L 880.056458 241.76
L 881.750897 219.36
L 886.834214 219.36
L 888.528653 241.76
L 893.611971 241.76
L 895.30641 264.16
L 897.000849 264.16
L 898.695288 286.56
L 900.389728 286.56
L 902.084167 264.16
L 903.778606 264.16
L 905.473045 241.76
L 907.167484 264.16
L 908.861923 241.76
L 910.556363 308.96
L 912.250802 286.56
L 913.945241 286.56
L 915.63968 308.96
L 917.334119 286.56
L 917.334119 286.56
" clip-path="url(#p8cb2f222b1)" style="fill: none; stroke: #4c72b0; stroke-width: 1.5; stroke-linecap: round"/>
   </g>
   <g id="line2d_27">
    <path d="M 105.697756 363.84
L 109.086634 370.56
L 110.781073 375.04
L 112.475512 377.28
L 117.55883 390.72
L 119.253269 394.08
L 120.947708 398.56
L 122.642147 404.16
L 124.336587 407.52
L 126.031026 408.64
L 127.725465 405.28
L 129.419904 400.8
L 131.114343 395.2
L 132.808782 388.48
L 134.503222 385.12
L 137.8921 382.88
L 142.975417 382.88
L 144.669857 380.64
L 146.364296 377.28
L 148.058735 369.44
L 149.753174 359.36
L 154.836492 332.48
L 156.530931 321.28
L 158.22537 311.2
L 159.919809 305.6
L 161.614248 304.48
L 165.003127 304.48
L 166.697566 305.6
L 168.392005 304.48
L 170.086444 298.88
L 171.780883 292.16
L 176.864201 265.28
L 178.55864 257.44
L 180.253079 250.72
L 181.947518 245.12
L 183.641958 241.76
L 187.030836 232.8
L 188.725275 229.44
L 190.419714 227.2
L 192.114153 226.08
L 193.808593 223.84
L 198.89191 213.76
L 202.280789 209.28
L 203.975228 209.28
L 210.752984 218.24
L 217.530741 231.68
L 220.919619 236.16
L 226.002937 236.16
L 227.697376 237.28
L 229.391815 237.28
L 231.086254 239.52
L 232.780694 244
L 234.475133 247.36
L 236.169572 251.84
L 237.864011 255.2
L 239.55845 259.68
L 246.336207 273.12
L 248.030646 275.36
L 249.725085 278.72
L 251.419525 280.96
L 254.808403 287.68
L 259.89172 304.48
L 261.58616 308.96
L 263.280599 314.56
L 264.975038 317.92
L 268.363916 317.92
L 271.752795 313.44
L 273.447234 308.96
L 275.141673 307.84
L 276.836112 307.84
L 281.91943 304.48
L 283.613869 302.24
L 287.002747 302.24
L 290.391625 300
L 292.086065 297.76
L 298.863821 293.28
L 302.2527 295.52
L 307.336017 302.24
L 309.030456 303.36
L 310.724896 303.36
L 314.113774 305.6
L 315.808213 307.84
L 317.502652 308.96
L 320.891531 308.96
L 322.58597 311.2
L 324.280409 312.32
L 329.363726 322.4
L 332.752605 331.36
L 336.141483 338.08
L 337.835922 340.32
L 339.530361 343.68
L 341.224801 343.68
L 342.91924 342.56
L 346.308118 338.08
L 348.002557 333.6
L 351.391436 326.88
L 354.780314 322.4
L 359.863632 312.32
L 363.25251 303.36
L 366.641388 292.16
L 370.030267 283.2
L 371.724706 279.84
L 373.419145 274.24
L 376.808023 269.76
L 380.196902 267.52
L 381.891341 267.52
L 383.58578 266.4
L 385.280219 266.4
L 386.974658 264.16
L 390.363537 257.44
L 392.057976 252.96
L 395.446854 241.76
L 398.835733 228.32
L 405.613489 205.92
L 407.307928 201.44
L 409.002368 195.84
L 417.474563 173.44
L 419.169003 167.84
L 420.863442 163.36
L 422.557881 160
L 425.946759 155.52
L 429.335638 148.8
L 432.724516 144.32
L 434.418955 140.96
L 436.113394 136.48
L 441.196712 126.4
L 444.58559 124.16
L 447.974469 119.68
L 449.668908 116.32
L 451.363347 114.08
L 456.446664 110.72
L 458.141104 107.36
L 464.91886 102.88
L 468.307739 102.88
L 470.002178 104
L 475.085495 104
L 478.474374 101.76
L 481.863252 104
L 483.557691 107.36
L 485.25213 108.48
L 490.335448 115.2
L 492.029887 118.56
L 493.724326 120.8
L 495.418765 125.28
L 503.890961 142.08
L 505.5854 144.32
L 507.27984 148.8
L 508.974279 152.16
L 510.668718 154.4
L 515.752035 164.48
L 517.446475 165.6
L 519.140914 170.08
L 520.835353 172.32
L 525.91867 182.4
L 527.61311 186.88
L 529.307549 190.24
L 537.779745 212.64
L 539.474184 218.24
L 541.168623 221.6
L 542.863062 226.08
L 546.251941 237.28
L 547.94638 241.76
L 549.640819 247.36
L 551.335258 254.08
L 553.029697 258.56
L 554.724136 264.16
L 558.113015 273.12
L 563.196332 283.2
L 564.890771 285.44
L 566.585211 285.44
L 568.27965 284.32
L 569.974089 284.32
L 571.668528 285.44
L 578.446285 294.4
L 581.835163 296.64
L 585.224042 294.4
L 590.307359 287.68
L 592.001798 286.56
L 598.779555 286.56
L 600.473994 285.44
L 602.168433 283.2
L 603.862872 278.72
L 607.251751 265.28
L 608.94619 261.92
L 610.640629 263.04
L 614.029507 267.52
L 617.418386 267.52
L 619.112825 272
L 624.196142 282.08
L 625.890582 284.32
L 627.585021 287.68
L 629.27946 289.92
L 630.973899 293.28
L 632.668338 298.88
L 634.362778 308.96
L 636.057217 320.16
L 637.751656 332.48
L 641.140534 350.4
L 642.834973 357.12
L 644.529413 360.48
L 646.223852 362.72
L 647.918291 363.84
L 649.61273 367.2
L 651.307169 371.68
L 653.001608 370.56
L 654.696048 372.8
L 656.390487 371.68
L 658.084926 371.68
L 659.779365 372.8
L 663.168243 379.52
L 664.862683 378.4
L 666.557122 373.92
L 668.251561 368.32
L 669.946 361.6
L 671.640439 353.76
L 673.334878 350.4
L 675.029318 345.92
L 678.418196 339.2
L 680.112635 336.96
L 686.890392 332.48
L 688.584831 332.48
L 690.27927 333.6
L 691.973709 329.12
L 695.362588 317.92
L 697.057027 313.44
L 698.751466 315.68
L 702.140344 324.64
L 703.834784 328
L 705.529223 334.72
L 708.918101 350.4
L 710.61254 357.12
L 712.306979 359.36
L 715.695858 359.36
L 717.390297 362.72
L 719.084736 361.6
L 720.779175 364.96
L 722.473614 363.84
L 724.168054 366.08
L 725.862493 371.68
L 730.94581 385.12
L 732.64025 384
L 736.029128 379.52
L 737.723567 379.52
L 739.418006 378.4
L 742.806885 373.92
L 744.501324 370.56
L 746.195763 369.44
L 747.890202 369.44
L 749.584641 368.32
L 751.27908 363.84
L 752.97352 362.72
L 754.667959 358.24
L 756.362398 356
L 759.751276 349.28
L 761.445715 348.16
L 763.140155 343.68
L 764.834594 336.96
L 766.529033 332.48
L 768.223472 329.12
L 769.917911 324.64
L 771.61235 319.04
L 773.30679 311.2
L 775.001229 304.48
L 776.695668 296.64
L 778.390107 289.92
L 780.084546 287.68
L 781.778986 288.8
L 788.556742 297.76
L 793.64006 301.12
L 795.334499 300
L 797.028938 297.76
L 798.723377 292.16
L 800.417816 287.68
L 802.112256 282.08
L 803.806695 277.6
L 807.195573 273.12
L 808.890012 269.76
L 810.584451 267.52
L 812.278891 261.92
L 813.97333 251.84
L 815.667769 238.4
L 819.056647 213.76
L 822.445526 193.6
L 825.834404 177.92
L 827.528843 171.2
L 829.223282 170.08
L 830.917722 171.2
L 832.612161 175.68
L 837.695478 185.76
L 839.389917 188
L 841.084357 192.48
L 842.778796 195.84
L 844.473235 198.08
L 846.167674 202.56
L 849.556552 216
L 851.250992 221.6
L 852.945431 226.08
L 859.723187 235.04
L 861.417627 238.4
L 863.112066 237.28
L 868.195383 230.56
L 871.584262 228.32
L 873.278701 228.32
L 874.97314 227.2
L 876.667579 227.2
L 878.362018 228.32
L 880.056458 230.56
L 881.750897 231.68
L 886.834214 238.4
L 888.528653 241.76
L 891.917532 246.24
L 893.611971 247.36
L 895.30641 250.72
L 898.695288 255.2
L 900.389728 259.68
L 902.084167 263.04
L 902.084167 263.04
" clip-path="url(#p8cb2f222b1)" style="fill: none; stroke-dasharray: 6,2.25; stroke-dashoffset: 0; stroke: #dd8452; stroke-width: 1.5"/>
   </g>
   <g id="line2d_28"/>
   <g id="line2d_29"/>
   <g id="patch_3">
    <path d="M 65.115938 508.32
L 65.115938 64.8
" style="fill: none; stroke: #ffffff; stroke-width: 1.25; stroke-linejoin: miter; stroke-linecap: square"/>
   </g>
   <g id="patch_4">
    <path d="M 957.915937 508.32
L 957.915937 64.8
" style="fill: none; stroke: #ffffff; stroke-width: 1.25; stroke-linejoin: miter; stroke-linecap: square"/>
   </g>
   <g id="patch_5">
    <path d="M 65.115938 508.32
L 957.915938 508.32
" style="fill: none; stroke: #ffffff; stroke-width: 1.25; stroke-linejoin: miter; stroke-linecap: square"/>
   </g>
   <g id="patch_6">
    <path d="M 65.115938 64.8
L 957.915938 64.8
" style="fill: none; stroke: #ffffff; stroke-width: 1.25; stroke-linejoin: miter; stroke-linecap: square"/>
   </g>
   <g id="text_20">
    <!-- 48-hour, live -->
    <g style="fill: #262626" transform="translate(462.488438 58.8) scale(0.18 -0.18)">
     <defs>
      <path id="ArialMT-38" d="M 1131 2484
Q 781 2613 612 2850
Q 444 3088 444 3419
Q 444 3919 803 4259
Q 1163 4600 1759 4600
Q 2359 4600 2725 4251
Q 3091 3903 3091 3403
Q 3091 3084 2923 2848
Q 2756 2613 2416 2484
Q 2838 2347 3058 2040
Q 3278 1734 3278 1309
Q 3278 722 2862 322
Q 2447 -78 1769 -78
Q 1091 -78 675 323
Q 259 725 259 1325
Q 259 1772 486 2073
Q 713 2375 1131 2484
z
M 1019 3438
Q 1019 3113 1228 2906
Q 1438 2700 1772 2700
Q 2097 2700 2305 2904
Q 2513 3109 2513 3406
Q 2513 3716 2298 3927
Q 2084 4138 1766 4138
Q 1444 4138 1231 3931
Q 1019 3725 1019 3438
z
M 838 1322
Q 838 1081 952 856
Q 1066 631 1291 507
Q 1516 384 1775 384
Q 2178 384 2440 643
Q 2703 903 2703 1303
Q 2703 1709 2433 1975
Q 2163 2241 1756 2241
Q 1359 2241 1098 1978
Q 838 1716 838 1322
z
" transform="scale(0.015625)"/>
      <path id="ArialMT-2d" d="M 203 1375
L 203 1941
L 1931 1941
L 1931 1375
L 203 1375
z
" transform="scale(0.015625)"/>
      <path id="ArialMT-6f" d="M 213 1659
Q 213 2581 725 3025
Q 1153 3394 1769 3394
Q 2453 3394 2887 2945
Q 3322 2497 3322 1706
Q 3322 1066 3130 698
Q 2938 331 2570 128
Q 2203 -75 1769 -75
Q 1072 -75 642 372
Q 213 819 213 1659
z
M 791 1659
Q 791 1022 1069 705
Q 1347 388 1769 388
Q 2188 388 2466 706
Q 2744 1025 2744 1678
Q 2744 2294 2464 2611
Q 2184 2928 1769 2928
Q 1347 2928 1069 2612
Q 791 2297 791 1659
z
" transform="scale(0.015625)"/>
      <path id="ArialMT-2c" d="M 569 0
L 569 641
L 1209 641
L 1209 0
Q 1209 -353 1084 -570
Q 959 -788 688 -906
L 531 -666
Q 709 -588 793 -436
Q 878 -284 888 0
L 569 0
z
" transform="scale(0.015625)"/>
      <path id="ArialMT-6c" d="M 409 0
L 409 4581
L 972 4581
L 972 0
L 409 0
z
" transform="scale(0.015625)"/>
      <path id="ArialMT-76" d="M 1344 0
L 81 3319
L 675 3319
L 1388 1331
Q 1503 1009 1600 663
Q 1675 925 1809 1294
L 2547 3319
L 3125 3319
L 1869 0
L 1344 0
z
" transform="scale(0.015625)"/>
     </defs>
     <use xlink:href="#ArialMT-34"/>
     <use xlink:href="#ArialMT-38" x="55.615234"/>
     <use xlink:href="#ArialMT-2d" x="111.230469"/>
     <use xlink:href="#ArialMT-68" x="144.53125"/>
     <use xlink:href="#ArialMT-6f" x="200.146484"/>
     <use xlink:href="#ArialMT-75" x="255.761719"/>
     <use xlink:href="#ArialMT-72" x="311.376953"/>
     <use xlink:href="#ArialMT-2c" x="339.177734"/>
     <use xlink:href="#ArialMT-20" x="366.960938"/>
     <use xlink:href="#ArialMT-6c" x="394.744141"/>
     <use xlink:href="#ArialMT-69" x="416.960938"/>
     <use xlink:href="#ArialMT-76" x="439.177734"/>
     <use xlink:href="#ArialMT-65" x="489.177734"/>
    </g>
   </g>
   <g id="legend_1">
    <g id="patch_7">
     <path d="M 860.005625 104.982656
L 950.215937 104.982656
Q 952.415937 104.982656 952.415937 102.782656
L 952.415937 72.5
Q 952.415937 70.3 950.215937 70.3
L 860.005625 70.3
Q 857.805625 70.3 857.805625 72.5
L 857.805625 102.782656
Q 857.805625 104.982656 860.005625 104.982656
z
" style="fill: #eaeaf2; opacity: 0.8; stroke: #cccccc; stroke-linejoin: miter"/>
    </g>
    <g id="line2d_30">
     <path d="M 862.205625 78.723594
L 873.205625 78.723594
L 884.205625 78.723594
" style="fill: none; stroke: #4c72b0; stroke-width: 1.5; stroke-linecap: round"/>
    </g>
    <g id="text_21">
     <!-- live -->
     <g style="fill: #262626" transform="translate(893.005625 82.573594) scale(0.11 -0.11)">
      <use xlink:href="#ArialMT-6c"/>
      <use xlink:href="#ArialMT-69" x="22.216797"/>
      <use xlink:href="#ArialMT-76" x="44.433594"/>
      <use xlink:href="#ArialMT-65" x="94.433594"/>
     </g>
    </g>
    <g id="line2d_31">
     <path d="M 862.205625 94.4175
L 873.205625 94.4175
L 884.205625 94.4175
" style="fill: none; stroke-dasharray: 6,2.25; stroke-dashoffset: 0; stroke: #dd8452; stroke-width: 1.5"/>
    </g>
    <g id="text_22">
     <!-- trend (2-hr) -->
     <g style="fill: #262626" transform="translate(893.005625 98.2675) scale(0.11 -0.11)">
      <defs>
       <path id="ArialMT-6e" d="M 422 0
L 422 3319
L 928 3319
L 928 2847
Q 1294 3394 1984 3394
Q 2284 3394 2536 3286
Q 2788 3178 2913 3003
Q 3038 2828 3088 2588
Q 3119 2431 3119 2041
L 3119 0
L 2556 0
L 2556 2019
Q 2556 2363 2490 2533
Q 2425 2703 2258 2804
Q 2091 2906 1866 2906
Q 1506 2906 1245 2678
Q 984 2450 984 1813
L 984 0
L 422 0
z
" transform="scale(0.015625)"/>
       <path id="ArialMT-64" d="M 2575 0
L 2575 419
Q 2259 -75 1647 -75
Q 1250 -75 917 144
Q 584 363 401 755
Q 219 1147 219 1656
Q 219 2153 384 2558
Q 550 2963 881 3178
Q 1213 3394 1622 3394
Q 1922 3394 2156 3267
Q 2391 3141 2538 2938
L 2538 4581
L 3097 4581
L 3097 0
L 2575 0
z
M 797 1656
Q 797 1019 1065 703
Q 1334 388 1700 388
Q 2069 388 2326 689
Q 2584 991 2584 1609
Q 2584 2291 2321 2609
Q 2059 2928 1675 2928
Q 1300 2928 1048 2622
Q 797 2316 797 1656
z
" transform="scale(0.015625)"/>
      </defs>
      <use xlink:href="#ArialMT-74"/>
      <use xlink:href="#ArialMT-72" x="27.783203"/>
      <use xlink:href="#ArialMT-65" x="61.083984"/>
      <use xlink:href="#ArialMT-6e" x="116.699219"/>
      <use xlink:href="#ArialMT-64" x="172.314453"/>
      <use xlink:href="#ArialMT-20" x="227.929688"/>
      <use xlink:href="#ArialMT-28" x="255.712891"/>
      <use xlink:href="#ArialMT-32" x="289.013672"/>
      <use xlink:href="#ArialMT-2d" x="344.628906"/>
      <use xlink:href="#ArialMT-68" x="377.929688"/>
      <use xlink:href="#ArialMT-72" x="433.544922"/>
      <use xlink:href="#ArialMT-29" x="466.845703"/>
     </g>
    </g>
   </g>
  </g>
  <g id="axes_2">
   <g id="matplotlib.axis_3">
    <g id="ytick_9">
     <g id="line2d_32">
      <defs>
       <path id="m37ad10a4a4" d="M 0 0
L 6 0
" style="stroke: #262626; stroke-width: 1.25"/>
      </defs>
      <g>
       <use xlink:href="#m37ad10a4a4" x="957.915937" y="456.8" style="fill: #262626; stroke: #262626; stroke-width: 1.25"/>
      </g>
     </g>
     <g id="text_23">
      <!-- 4.8 -->
      <g style="fill: #262626" transform="translate(967.415937 460.736797) scale(0.11 -0.11)">
       <use xlink:href="#ArialMT-34"/>
       <use xlink:href="#ArialMT-2e" x="55.615234"/>
       <use xlink:href="#ArialMT-38" x="83.398438"/>
      </g>
     </g>
    </g>
    <g id="ytick_10">
     <g id="line2d_33">
      <g>
       <use xlink:href="#m37ad10a4a4" x="957.915937" y="376.16" style="fill: #262626; stroke: #262626; stroke-width: 1.25"/>
      </g>
     </g>
     <g id="text_24">
      <!-- 5.0 -->
      <g style="fill: #262626" transform="translate(967.415937 380.096797) scale(0.11 -0.11)">
       <use xlink:href="#ArialMT-35"/>
       <use xlink:href="#ArialMT-2e" x="55.615234"/>
       <use xlink:href="#ArialMT-30" x="83.398438"/>
      </g>
     </g>
    </g>
    <g id="ytick_11">
     <g id="line2d_34">
      <g>
       <use xlink:href="#m37ad10a4a4" x="957.915937" y="295.52" style="fill: #262626; stroke: #262626; stroke-width: 1.25"/>
      </g>
     </g>
     <g id="text_25">
      <!-- 5.2 -->
      <g style="fill: #262626" transform="translate(967.415937 299.456797) scale(0.11 -0.11)">
       <use xlink:href="#ArialMT-35"/>
       <use xlink:href="#ArialMT-2e" x="55.615234"/>
       <use xlink:href="#ArialMT-32" x="83.398438"/>
      </g>
     </g>
    </g>
    <g id="ytick_12">
     <g id="line2d_35">
      <g>
       <use xlink:href="#m37ad10a4a4" x="957.915937" y="214.88" style="fill: #262626; stroke: #262626; stroke-width: 1.25"/>
      </g>
     </g>
     <g id="text_26">
      <!-- 5.4 -->
      <g style="fill: #262626" transform="translate(967.415937 218.816797) scale(0.11 -0.11)">
       <use xlink:href="#ArialMT-35"/>
       <use xlink:href="#ArialMT-2e" x="55.615234"/>
       <use xlink:href="#ArialMT-34" x="83.398438"/>
      </g>
     </g>
    </g>
    <g id="ytick_13">
     <g id="line2d_36">
      <g>
       <use xlink:href="#m37ad10a4a4" x="957.915937" y="134.24" style="fill: #262626; stroke: #262626; stroke-width: 1.25"/>
      </g>
     </g>
     <g id="text_27">
      <!-- 5.6 -->
      <g style="fill: #262626" transform="translate(967.415937 138.176797) scale(0.11 -0.11)">
       <use xlink:href="#ArialMT-35"/>
       <use xlink:href="#ArialMT-2e" x="55.615234"/>
       <use xlink:href="#ArialMT-36" x="83.398438"/>
      </g>
     </g>
    </g>
    <g id="text_28">
     <!-- Water Temp (°C) -->
     <g style="fill: #262626" transform="translate(999.809375 353.161406) rotate(-90) scale(0.18 -0.18)">
      <defs>
       <path id="ArialMT-43" d="M 3763 1606
L 4369 1453
Q 4178 706 3683 314
Q 3188 -78 2472 -78
Q 1731 -78 1267 223
Q 803 525 561 1097
Q 319 1669 319 2325
Q 319 3041 592 3573
Q 866 4106 1370 4382
Q 1875 4659 2481 4659
Q 3169 4659 3637 4309
Q 4106 3959 4291 3325
L 3694 3184
Q 3534 3684 3231 3912
Q 2928 4141 2469 4141
Q 1941 4141 1586 3887
Q 1231 3634 1087 3207
Q 944 2781 944 2328
Q 944 1744 1114 1308
Q 1284 872 1643 656
Q 2003 441 2422 441
Q 2931 441 3284 734
Q 3638 1028 3763 1606
z
" transform="scale(0.015625)"/>
      </defs>
      <use xlink:href="#ArialMT-57"/>
      <use xlink:href="#ArialMT-61" x="90.634766"/>
      <use xlink:href="#ArialMT-74" x="146.25"/>
      <use xlink:href="#ArialMT-65" x="174.033203"/>
      <use xlink:href="#ArialMT-72" x="229.648438"/>
      <use xlink:href="#ArialMT-20" x="262.949219"/>
      <use xlink:href="#ArialMT-54" x="288.982422"/>
      <use xlink:href="#ArialMT-65" x="338.941406"/>
      <use xlink:href="#ArialMT-6d" x="394.556641"/>
      <use xlink:href="#ArialMT-70" x="477.857422"/>
      <use xlink:href="#ArialMT-20" x="533.472656"/>
      <use xlink:href="#ArialMT-28" x="561.255859"/>
      <use xlink:href="#ArialMT-b0" x="594.556641"/>
      <use xlink:href="#ArialMT-43" x="634.546875"/>
      <use xlink:href="#ArialMT-29" x="706.763672"/>
     </g>
    </g>
   </g>
   <g id="patch_8">
    <path d="M 65.115938 508.32
L 65.115938 64.8
" style="fill: none; stroke: #ffffff; stroke-width: 1.25; stroke-linejoin: miter; stroke-linecap: square"/>
   </g>
   <g id="patch_9">
    <path d="M 957.915937 508.32
L 957.915937 64.8
" style="fill: none; stroke: #ffffff; stroke-width: 1.25; stroke-linejoin: miter; stroke-linecap: square"/>
   </g>
   <g id="patch_10">
    <path d="M 65.115938 508.32
L 957.915938 508.32
" style="fill: none; stroke: #ffffff; stroke-width: 1.25; stroke-linejoin: miter; stroke-linecap: square"/>
   </g>
   <g id="patch_11">
    <path d="M 65.115938 64.8
L 957.915938 64.8
" style="fill: none; stroke: #ffffff; stroke-width: 1.25; stroke-linejoin: miter; stroke-linecap: square"/>
   </g>
  </g>
  <g id="text_29">
   <!-- Battery NYC Water Temperature -->
   <g style="fill: #262626" transform="translate(325.067813 24.67125) scale(0.24 -0.24)">
    <defs>
     <path id="ArialMT-42" d="M 469 0
L 469 4581
L 2188 4581
Q 2713 4581 3030 4442
Q 3347 4303 3526 4014
Q 3706 3725 3706 3409
Q 3706 3116 3547 2856
Q 3388 2597 3066 2438
Q 3481 2316 3704 2022
Q 3928 1728 3928 1328
Q 3928 1006 3792 729
Q 3656 453 3456 303
Q 3256 153 2954 76
Q 2653 0 2216 0
L 469 0
z
M 1075 2656
L 2066 2656
Q 2469 2656 2644 2709
Q 2875 2778 2992 2937
Q 3109 3097 3109 3338
Q 3109 3566 3000 3739
Q 2891 3913 2687 3977
Q 2484 4041 1991 4041
L 1075 4041
L 1075 2656
z
M 1075 541
L 2216 541
Q 2509 541 2628 563
Q 2838 600 2978 687
Q 3119 775 3209 942
Q 3300 1109 3300 1328
Q 3300 1584 3169 1773
Q 3038 1963 2805 2039
Q 2572 2116 2134 2116
L 1075 2116
L 1075 541
z
" transform="scale(0.015625)"/>
     <path id="ArialMT-79" d="M 397 -1278
L 334 -750
Q 519 -800 656 -800
Q 844 -800 956 -737
Q 1069 -675 1141 -563
Q 1194 -478 1313 -144
Q 1328 -97 1363 -6
L 103 3319
L 709 3319
L 1400 1397
Q 1534 1031 1641 628
Q 1738 1016 1872 1384
L 2581 3319
L 3144 3319
L 1881 -56
Q 1678 -603 1566 -809
Q 1416 -1088 1222 -1217
Q 1028 -1347 759 -1347
Q 597 -1347 397 -1278
z
" transform="scale(0.015625)"/>
     <path id="ArialMT-4e" d="M 488 0
L 488 4581
L 1109 4581
L 3516 984
L 3516 4581
L 4097 4581
L 4097 0
L 3475 0
L 1069 3600
L 1069 0
L 488 0
z
" transform="scale(0.015625)"/>
     <path id="ArialMT-59" d="M 1784 0
L 1784 1941
L 19 4581
L 756 4581
L 1659 3200
Q 1909 2813 2125 2425
Q 2331 2784 2625 3234
L 3513 4581
L 4219 4581
L 2391 1941
L 2391 0
L 1784 0
z
" transform="scale(0.015625)"/>
    </defs>
    <use xlink:href="#ArialMT-42"/>
    <use xlink:href="#ArialMT-61" x="66.699219"/>
    <use xlink:href="#ArialMT-74" x="122.314453"/>
    <use xlink:href="#ArialMT-74" x="150.097656"/>
    <use xlink:href="#ArialMT-65" x="177.880859"/>
    <use xlink:href="#ArialMT-72" x="233.496094"/>
    <use xlink:href="#ArialMT-79" x="266.796875"/>
    <use xlink:href="#ArialMT-20" x="316.796875"/>
    <use xlink:href="#ArialMT-4e" x="344.580078"/>
    <use xlink:href="#ArialMT-59" x="416.796875"/>
    <use xlink:href="#ArialMT-43" x="483.496094"/>
    <use xlink:href="#ArialMT-20" x="555.712891"/>
    <use xlink:href="#ArialMT-57" x="583.496094"/>
    <use xlink:href="#ArialMT-61" x="674.130859"/>
    <use xlink:href="#ArialMT-74" x="729.746094"/>
    <use xlink:href="#ArialMT-65" x="757.529297"/>
    <use xlink:href="#ArialMT-72" x="813.144531"/>
    <use xlink:href="#ArialMT-20" x="846.445312"/>
    <use xlink:href="#ArialMT-54" x="872.478516"/>
    <use xlink:href="#ArialMT-65" x="922.4375"/>
    <use xlink:href="#ArialMT-6d" x="978.052734"/>
    <use xlink:href="#ArialMT-70" x="1061.353516"/>
    <use xlink:href="#ArialMT-65" x="1116.96875"/>
    <use xlink:href="#ArialMT-72" x="1172.583984"/>
    <use xlink:href="#ArialMT-61" x="1205.884766"/>
    <use xlink:href="#ArialMT-74" x="1261.5"/>
    <use xlink:href="#ArialMT-75" x="1289.283203"/>
    <use xlink:href="#ArialMT-72" x="1344.898438"/>
    <use xlink:href="#ArialMT-65" x="1378.199219"/>
   </g>
  </g>
 </g>
 <defs>
  <clipPath id="p8cb2f222b1">
   <rect x="65.115938" y="64.8" width="892.8" height="443.52"/>
  </clipPath>
 </defs>
</svg>
