<?xml version="1.0" encoding="utf-8" standalone="no"?>
<!DOCTYPE svg PUBLIC "-//W3C//DTD SVG 1.1//EN"
  "http://www.w3.org/Graphics/SVG/1.1/DTD/svg11.dtd">
<svg height="576pt" version="1.1" viewBox="0 0 1152 576" width="1152pt" xmlns="http://www.w3.org/2000/svg" xmlns:xlink="http://www.w3.org/1999/xlink">
 <metadata>
  <rdf:RDF xmlns:cc="http://creativecommons.org/ns#" xmlns:dc="http://purl.org/dc/elements/1.1/" xmlns:rdf="http://www.w3.org/1999/02/22-rdf-syntax-ns#">
   <cc:Work>
    <dc:type rdf:resource="http://purl.org/dc/dcmitype/StillImage"/>
    <dc:date>2021-05-27T15:57:35.744626</dc:date>
    <dc:format>image/svg+xml</dc:format>
    <dc:creator>
     <cc:Agent>
      <dc:title>Matplotlib v3.4.2, https://matplotlib.org/</dc:title>
     </cc:Agent>
    </dc:creator>
   </cc:Work>
  </rdf:RDF>
 </metadata>
 <defs>
  <style type="text/css">*{stroke-linecap:butt;stroke-linejoin:round;}</style>
 </defs>
 <g id="figure_1">
  <g id="patch_1">
   <path d="M 0 576 
L 1152 576 
L 1152 0 
L 0 0 
z
" style="fill:#ffffff;"/>
  </g>
  <g id="axes_1">
   <g id="patch_2">
    <path d="M 144 512.64 
L 1036.8 512.64 
L 1036.8 69.12 
L 144 69.12 
z
" style="fill:#eaeaf2;"/>
   </g>
   <g id="matplotlib.axis_1">
    <g id="xtick_1">
     <g id="line2d_1">
      <path clip-path="url(#p2598c862f8)" d="M 220.165041 512.64 
L 220.165041 69.12 
" style="fill:none;stroke:#ffffff;stroke-linecap:round;"/>
     </g>
     <g id="text_1">
      <!-- Tue 6 PM -->
      <g style="fill:#262626;" transform="translate(196.53051 530.013594)scale(0.11 -0.11)">
       <defs>
        <path d="M 1659 0 
L 1659 4041 
L 150 4041 
L 150 4581 
L 3781 4581 
L 3781 4041 
L 2266 4041 
L 2266 0 
L 1659 0 
z
" id="ArialMT-54" transform="scale(0.015625)"/>
        <path d="M 2597 0 
L 2597 488 
Q 2209 -75 1544 -75 
Q 1250 -75 995 37 
Q 741 150 617 320 
Q 494 491 444 738 
Q 409 903 409 1263 
L 409 3319 
L 972 3319 
L 972 1478 
Q 972 1038 1006 884 
Q 1059 663 1231 536 
Q 1403 409 1656 409 
Q 1909 409 2131 539 
Q 2353 669 2445 892 
Q 2538 1116 2538 1541 
L 2538 3319 
L 3100 3319 
L 3100 0 
L 2597 0 
z
" id="ArialMT-75" transform="scale(0.015625)"/>
        <path d="M 2694 1069 
L 3275 997 
Q 3138 488 2766 206 
Q 2394 -75 1816 -75 
Q 1088 -75 661 373 
Q 234 822 234 1631 
Q 234 2469 665 2931 
Q 1097 3394 1784 3394 
Q 2450 3394 2872 2941 
Q 3294 2488 3294 1666 
Q 3294 1616 3291 1516 
L 816 1516 
Q 847 969 1125 678 
Q 1403 388 1819 388 
Q 2128 388 2347 550 
Q 2566 713 2694 1069 
z
M 847 1978 
L 2700 1978 
Q 2663 2397 2488 2606 
Q 2219 2931 1791 2931 
Q 1403 2931 1139 2672 
Q 875 2413 847 1978 
z
" id="ArialMT-65" transform="scale(0.015625)"/>
        <path id="ArialMT-20" transform="scale(0.015625)"/>
        <path d="M 3184 3459 
L 2625 3416 
Q 2550 3747 2413 3897 
Q 2184 4138 1850 4138 
Q 1581 4138 1378 3988 
Q 1113 3794 959 3422 
Q 806 3050 800 2363 
Q 1003 2672 1297 2822 
Q 1591 2972 1913 2972 
Q 2475 2972 2870 2558 
Q 3266 2144 3266 1488 
Q 3266 1056 3080 686 
Q 2894 316 2569 119 
Q 2244 -78 1831 -78 
Q 1128 -78 684 439 
Q 241 956 241 2144 
Q 241 3472 731 4075 
Q 1159 4600 1884 4600 
Q 2425 4600 2770 4297 
Q 3116 3994 3184 3459 
z
M 888 1484 
Q 888 1194 1011 928 
Q 1134 663 1356 523 
Q 1578 384 1822 384 
Q 2178 384 2434 671 
Q 2691 959 2691 1453 
Q 2691 1928 2437 2201 
Q 2184 2475 1800 2475 
Q 1419 2475 1153 2201 
Q 888 1928 888 1484 
z
" id="ArialMT-36" transform="scale(0.015625)"/>
        <path d="M 494 0 
L 494 4581 
L 2222 4581 
Q 2678 4581 2919 4538 
Q 3256 4481 3484 4323 
Q 3713 4166 3852 3881 
Q 3991 3597 3991 3256 
Q 3991 2672 3619 2267 
Q 3247 1863 2275 1863 
L 1100 1863 
L 1100 0 
L 494 0 
z
M 1100 2403 
L 2284 2403 
Q 2872 2403 3119 2622 
Q 3366 2841 3366 3238 
Q 3366 3525 3220 3729 
Q 3075 3934 2838 4000 
Q 2684 4041 2272 4041 
L 1100 4041 
L 1100 2403 
z
" id="ArialMT-50" transform="scale(0.015625)"/>
        <path d="M 475 0 
L 475 4581 
L 1388 4581 
L 2472 1338 
Q 2622 884 2691 659 
Q 2769 909 2934 1394 
L 4031 4581 
L 4847 4581 
L 4847 0 
L 4263 0 
L 4263 3834 
L 2931 0 
L 2384 0 
L 1059 3900 
L 1059 0 
L 475 0 
z
" id="ArialMT-4d" transform="scale(0.015625)"/>
       </defs>
       <use xlink:href="#ArialMT-54"/>
       <use x="57.333984" xlink:href="#ArialMT-75"/>
       <use x="112.949219" xlink:href="#ArialMT-65"/>
       <use x="168.564453" xlink:href="#ArialMT-20"/>
       <use x="196.347656" xlink:href="#ArialMT-36"/>
       <use x="251.962891" xlink:href="#ArialMT-20"/>
       <use x="279.746094" xlink:href="#ArialMT-50"/>
       <use x="346.445312" xlink:href="#ArialMT-4d"/>
      </g>
     </g>
    </g>
    <g id="xtick_2">
     <g id="line2d_2">
      <path clip-path="url(#p2598c862f8)" d="M 321.831391 512.64 
L 321.831391 69.12 
" style="fill:none;stroke:#ffffff;stroke-linecap:round;"/>
     </g>
     <g id="text_2">
      <!-- Wed 12 AM -->
      <g style="fill:#262626;" transform="translate(293.498657 530.013594)scale(0.11 -0.11)">
       <defs>
        <path d="M 1294 0 
L 78 4581 
L 700 4581 
L 1397 1578 
Q 1509 1106 1591 641 
Q 1766 1375 1797 1488 
L 2669 4581 
L 3400 4581 
L 4056 2263 
Q 4303 1400 4413 641 
Q 4500 1075 4641 1638 
L 5359 4581 
L 5969 4581 
L 4713 0 
L 4128 0 
L 3163 3491 
Q 3041 3928 3019 4028 
Q 2947 3713 2884 3491 
L 1913 0 
L 1294 0 
z
" id="ArialMT-57" transform="scale(0.015625)"/>
        <path d="M 2575 0 
L 2575 419 
Q 2259 -75 1647 -75 
Q 1250 -75 917 144 
Q 584 363 401 755 
Q 219 1147 219 1656 
Q 219 2153 384 2558 
Q 550 2963 881 3178 
Q 1213 3394 1622 3394 
Q 1922 3394 2156 3267 
Q 2391 3141 2538 2938 
L 2538 4581 
L 3097 4581 
L 3097 0 
L 2575 0 
z
M 797 1656 
Q 797 1019 1065 703 
Q 1334 388 1700 388 
Q 2069 388 2326 689 
Q 2584 991 2584 1609 
Q 2584 2291 2321 2609 
Q 2059 2928 1675 2928 
Q 1300 2928 1048 2622 
Q 797 2316 797 1656 
z
" id="ArialMT-64" transform="scale(0.015625)"/>
        <path d="M 2384 0 
L 1822 0 
L 1822 3584 
Q 1619 3391 1289 3197 
Q 959 3003 697 2906 
L 697 3450 
Q 1169 3672 1522 3987 
Q 1875 4303 2022 4600 
L 2384 4600 
L 2384 0 
z
" id="ArialMT-31" transform="scale(0.015625)"/>
        <path d="M 3222 541 
L 3222 0 
L 194 0 
Q 188 203 259 391 
Q 375 700 629 1000 
Q 884 1300 1366 1694 
Q 2113 2306 2375 2664 
Q 2638 3022 2638 3341 
Q 2638 3675 2398 3904 
Q 2159 4134 1775 4134 
Q 1369 4134 1125 3890 
Q 881 3647 878 3216 
L 300 3275 
Q 359 3922 746 4261 
Q 1134 4600 1788 4600 
Q 2447 4600 2831 4234 
Q 3216 3869 3216 3328 
Q 3216 3053 3103 2787 
Q 2991 2522 2730 2228 
Q 2469 1934 1863 1422 
Q 1356 997 1212 845 
Q 1069 694 975 541 
L 3222 541 
z
" id="ArialMT-32" transform="scale(0.015625)"/>
        <path d="M -9 0 
L 1750 4581 
L 2403 4581 
L 4278 0 
L 3588 0 
L 3053 1388 
L 1138 1388 
L 634 0 
L -9 0 
z
M 1313 1881 
L 2866 1881 
L 2388 3150 
Q 2169 3728 2063 4100 
Q 1975 3659 1816 3225 
L 1313 1881 
z
" id="ArialMT-41" transform="scale(0.015625)"/>
       </defs>
       <use xlink:href="#ArialMT-57"/>
       <use x="92.634766" xlink:href="#ArialMT-65"/>
       <use x="148.25" xlink:href="#ArialMT-64"/>
       <use x="203.865234" xlink:href="#ArialMT-20"/>
       <use x="231.648438" xlink:href="#ArialMT-31"/>
       <use x="287.263672" xlink:href="#ArialMT-32"/>
       <use x="342.878906" xlink:href="#ArialMT-20"/>
       <use x="365.162109" xlink:href="#ArialMT-41"/>
       <use x="431.861328" xlink:href="#ArialMT-4d"/>
      </g>
     </g>
    </g>
    <g id="xtick_3">
     <g id="line2d_3">
      <path clip-path="url(#p2598c862f8)" d="M 423.497742 512.64 
L 423.497742 69.12 
" style="fill:none;stroke:#ffffff;stroke-linecap:round;"/>
     </g>
     <g id="text_3">
      <!-- Wed 6 AM -->
      <g style="fill:#262626;" transform="translate(398.223523 530.013594)scale(0.11 -0.11)">
       <use xlink:href="#ArialMT-57"/>
       <use x="92.634766" xlink:href="#ArialMT-65"/>
       <use x="148.25" xlink:href="#ArialMT-64"/>
       <use x="203.865234" xlink:href="#ArialMT-20"/>
       <use x="231.648438" xlink:href="#ArialMT-36"/>
       <use x="287.263672" xlink:href="#ArialMT-20"/>
       <use x="309.546875" xlink:href="#ArialMT-41"/>
       <use x="376.246094" xlink:href="#ArialMT-4d"/>
      </g>
     </g>
    </g>
    <g id="xtick_4">
     <g id="line2d_4">
      <path clip-path="url(#p2598c862f8)" d="M 525.164092 512.64 
L 525.164092 69.12 
" style="fill:none;stroke:#ffffff;stroke-linecap:round;"/>
     </g>
     <g id="text_4">
      <!-- Wed 12 PM -->
      <g style="fill:#262626;" transform="translate(496.528857 530.013594)scale(0.11 -0.11)">
       <use xlink:href="#ArialMT-57"/>
       <use x="92.634766" xlink:href="#ArialMT-65"/>
       <use x="148.25" xlink:href="#ArialMT-64"/>
       <use x="203.865234" xlink:href="#ArialMT-20"/>
       <use x="231.648438" xlink:href="#ArialMT-31"/>
       <use x="287.263672" xlink:href="#ArialMT-32"/>
       <use x="342.878906" xlink:href="#ArialMT-20"/>
       <use x="370.662109" xlink:href="#ArialMT-50"/>
       <use x="437.361328" xlink:href="#ArialMT-4d"/>
      </g>
     </g>
    </g>
    <g id="xtick_5">
     <g id="line2d_5">
      <path clip-path="url(#p2598c862f8)" d="M 626.830442 512.64 
L 626.830442 69.12 
" style="fill:none;stroke:#ffffff;stroke-linecap:round;"/>
     </g>
     <g id="text_5">
      <!-- Wed 6 PM -->
      <g style="fill:#262626;" transform="translate(601.253723 530.013594)scale(0.11 -0.11)">
       <use xlink:href="#ArialMT-57"/>
       <use x="92.634766" xlink:href="#ArialMT-65"/>
       <use x="148.25" xlink:href="#ArialMT-64"/>
       <use x="203.865234" xlink:href="#ArialMT-20"/>
       <use x="231.648438" xlink:href="#ArialMT-36"/>
       <use x="287.263672" xlink:href="#ArialMT-20"/>
       <use x="315.046875" xlink:href="#ArialMT-50"/>
       <use x="381.746094" xlink:href="#ArialMT-4d"/>
      </g>
     </g>
    </g>
    <g id="xtick_6">
     <g id="line2d_6">
      <path clip-path="url(#p2598c862f8)" d="M 728.496793 512.64 
L 728.496793 69.12 
" style="fill:none;stroke:#ffffff;stroke-linecap:round;"/>
     </g>
     <g id="text_6">
      <!-- Thu 12 AM -->
      <g style="fill:#262626;" transform="translate(701.899996 530.013594)scale(0.11 -0.11)">
       <defs>
        <path d="M 422 0 
L 422 4581 
L 984 4581 
L 984 2938 
Q 1378 3394 1978 3394 
Q 2347 3394 2619 3248 
Q 2891 3103 3008 2847 
Q 3125 2591 3125 2103 
L 3125 0 
L 2563 0 
L 2563 2103 
Q 2563 2525 2380 2717 
Q 2197 2909 1863 2909 
Q 1613 2909 1392 2779 
Q 1172 2650 1078 2428 
Q 984 2206 984 1816 
L 984 0 
L 422 0 
z
" id="ArialMT-68" transform="scale(0.015625)"/>
       </defs>
       <use xlink:href="#ArialMT-54"/>
       <use x="61.083984" xlink:href="#ArialMT-68"/>
       <use x="116.699219" xlink:href="#ArialMT-75"/>
       <use x="172.314453" xlink:href="#ArialMT-20"/>
       <use x="200.097656" xlink:href="#ArialMT-31"/>
       <use x="255.712891" xlink:href="#ArialMT-32"/>
       <use x="311.328125" xlink:href="#ArialMT-20"/>
       <use x="333.611328" xlink:href="#ArialMT-41"/>
       <use x="400.310547" xlink:href="#ArialMT-4d"/>
      </g>
     </g>
    </g>
    <g id="xtick_7">
     <g id="line2d_7">
      <path clip-path="url(#p2598c862f8)" d="M 830.163143 512.64 
L 830.163143 69.12 
" style="fill:none;stroke:#ffffff;stroke-linecap:round;"/>
     </g>
     <g id="text_7">
      <!-- Thu 6 AM -->
      <g style="fill:#262626;" transform="translate(806.624862 530.013594)scale(0.11 -0.11)">
       <use xlink:href="#ArialMT-54"/>
       <use x="61.083984" xlink:href="#ArialMT-68"/>
       <use x="116.699219" xlink:href="#ArialMT-75"/>
       <use x="172.314453" xlink:href="#ArialMT-20"/>
       <use x="200.097656" xlink:href="#ArialMT-36"/>
       <use x="255.712891" xlink:href="#ArialMT-20"/>
       <use x="277.996094" xlink:href="#ArialMT-41"/>
       <use x="344.695312" xlink:href="#ArialMT-4d"/>
      </g>
     </g>
    </g>
    <g id="xtick_8">
     <g id="line2d_8">
      <path clip-path="url(#p2598c862f8)" d="M 931.829493 512.64 
L 931.829493 69.12 
" style="fill:none;stroke:#ffffff;stroke-linecap:round;"/>
     </g>
     <g id="text_8">
      <!-- Thu 12 PM -->
      <g style="fill:#262626;" transform="translate(904.930196 530.013594)scale(0.11 -0.11)">
       <use xlink:href="#ArialMT-54"/>
       <use x="61.083984" xlink:href="#ArialMT-68"/>
       <use x="116.699219" xlink:href="#ArialMT-75"/>
       <use x="172.314453" xlink:href="#ArialMT-20"/>
       <use x="200.097656" xlink:href="#ArialMT-31"/>
       <use x="255.712891" xlink:href="#ArialMT-32"/>
       <use x="311.328125" xlink:href="#ArialMT-20"/>
       <use x="339.111328" xlink:href="#ArialMT-50"/>
       <use x="405.810547" xlink:href="#ArialMT-4d"/>
      </g>
     </g>
    </g>
    <g id="xtick_9">
     <g id="line2d_9">
      <path clip-path="url(#p2598c862f8)" d="M 1033.495844 512.64 
L 1033.495844 69.12 
" style="fill:none;stroke:#ffffff;stroke-linecap:round;"/>
     </g>
     <g id="text_9">
      <!-- Thu 6 PM -->
      <g style="fill:#262626;" transform="translate(1009.655062 530.013594)scale(0.11 -0.11)">
       <use xlink:href="#ArialMT-54"/>
       <use x="61.083984" xlink:href="#ArialMT-68"/>
       <use x="116.699219" xlink:href="#ArialMT-75"/>
       <use x="172.314453" xlink:href="#ArialMT-20"/>
       <use x="200.097656" xlink:href="#ArialMT-36"/>
       <use x="255.712891" xlink:href="#ArialMT-20"/>
       <use x="283.496094" xlink:href="#ArialMT-50"/>
       <use x="350.195312" xlink:href="#ArialMT-4d"/>
      </g>
     </g>
    </g>
    <g id="text_10">
     <!-- Time -->
     <g style="fill:#262626;" transform="translate(570.739219 549.083906)scale(0.18 -0.18)">
      <defs>
       <path d="M 425 3934 
L 425 4581 
L 988 4581 
L 988 3934 
L 425 3934 
z
M 425 0 
L 425 3319 
L 988 3319 
L 988 0 
L 425 0 
z
" id="ArialMT-69" transform="scale(0.015625)"/>
       <path d="M 422 0 
L 422 3319 
L 925 3319 
L 925 2853 
Q 1081 3097 1340 3245 
Q 1600 3394 1931 3394 
Q 2300 3394 2536 3241 
Q 2772 3088 2869 2813 
Q 3263 3394 3894 3394 
Q 4388 3394 4653 3120 
Q 4919 2847 4919 2278 
L 4919 0 
L 4359 0 
L 4359 2091 
Q 4359 2428 4304 2576 
Q 4250 2725 4106 2815 
Q 3963 2906 3769 2906 
Q 3419 2906 3187 2673 
Q 2956 2441 2956 1928 
L 2956 0 
L 2394 0 
L 2394 2156 
Q 2394 2531 2256 2718 
Q 2119 2906 1806 2906 
Q 1569 2906 1367 2781 
Q 1166 2656 1075 2415 
Q 984 2175 984 1722 
L 984 0 
L 422 0 
z
" id="ArialMT-6d" transform="scale(0.015625)"/>
      </defs>
      <use xlink:href="#ArialMT-54"/>
      <use x="57.333984" xlink:href="#ArialMT-69"/>
      <use x="79.550781" xlink:href="#ArialMT-6d"/>
      <use x="162.851562" xlink:href="#ArialMT-65"/>
     </g>
    </g>
   </g>
   <g id="matplotlib.axis_2">
    <g id="ytick_1">
     <g id="line2d_10">
      <path clip-path="url(#p2598c862f8)" d="M 144 481.869474 
L 1036.8 481.869474 
" style="fill:none;stroke:#ffffff;stroke-linecap:round;"/>
     </g>
     <g id="text_11">
      <!-- 58.5 -->
      <g style="fill:#262626;" transform="translate(113.092969 485.806271)scale(0.11 -0.11)">
       <defs>
        <path d="M 266 1200 
L 856 1250 
Q 922 819 1161 601 
Q 1400 384 1738 384 
Q 2144 384 2425 690 
Q 2706 997 2706 1503 
Q 2706 1984 2436 2262 
Q 2166 2541 1728 2541 
Q 1456 2541 1237 2417 
Q 1019 2294 894 2097 
L 366 2166 
L 809 4519 
L 3088 4519 
L 3088 3981 
L 1259 3981 
L 1013 2750 
Q 1425 3038 1878 3038 
Q 2478 3038 2890 2622 
Q 3303 2206 3303 1553 
Q 3303 931 2941 478 
Q 2500 -78 1738 -78 
Q 1113 -78 717 272 
Q 322 622 266 1200 
z
" id="ArialMT-35" transform="scale(0.015625)"/>
        <path d="M 1131 2484 
Q 781 2613 612 2850 
Q 444 3088 444 3419 
Q 444 3919 803 4259 
Q 1163 4600 1759 4600 
Q 2359 4600 2725 4251 
Q 3091 3903 3091 3403 
Q 3091 3084 2923 2848 
Q 2756 2613 2416 2484 
Q 2838 2347 3058 2040 
Q 3278 1734 3278 1309 
Q 3278 722 2862 322 
Q 2447 -78 1769 -78 
Q 1091 -78 675 323 
Q 259 725 259 1325 
Q 259 1772 486 2073 
Q 713 2375 1131 2484 
z
M 1019 3438 
Q 1019 3113 1228 2906 
Q 1438 2700 1772 2700 
Q 2097 2700 2305 2904 
Q 2513 3109 2513 3406 
Q 2513 3716 2298 3927 
Q 2084 4138 1766 4138 
Q 1444 4138 1231 3931 
Q 1019 3725 1019 3438 
z
M 838 1322 
Q 838 1081 952 856 
Q 1066 631 1291 507 
Q 1516 384 1775 384 
Q 2178 384 2440 643 
Q 2703 903 2703 1303 
Q 2703 1709 2433 1975 
Q 2163 2241 1756 2241 
Q 1359 2241 1098 1978 
Q 838 1716 838 1322 
z
" id="ArialMT-38" transform="scale(0.015625)"/>
        <path d="M 581 0 
L 581 641 
L 1222 641 
L 1222 0 
L 581 0 
z
" id="ArialMT-2e" transform="scale(0.015625)"/>
       </defs>
       <use xlink:href="#ArialMT-35"/>
       <use x="55.615234" xlink:href="#ArialMT-38"/>
       <use x="111.230469" xlink:href="#ArialMT-2e"/>
       <use x="139.013672" xlink:href="#ArialMT-35"/>
      </g>
     </g>
    </g>
    <g id="ytick_2">
     <g id="line2d_11">
      <path clip-path="url(#p2598c862f8)" d="M 144 428.816842 
L 1036.8 428.816842 
" style="fill:none;stroke:#ffffff;stroke-linecap:round;"/>
     </g>
     <g id="text_12">
      <!-- 59.0 -->
      <g style="fill:#262626;" transform="translate(113.092969 432.753639)scale(0.11 -0.11)">
       <defs>
        <path d="M 350 1059 
L 891 1109 
Q 959 728 1153 556 
Q 1347 384 1650 384 
Q 1909 384 2104 503 
Q 2300 622 2425 820 
Q 2550 1019 2634 1356 
Q 2719 1694 2719 2044 
Q 2719 2081 2716 2156 
Q 2547 1888 2255 1720 
Q 1963 1553 1622 1553 
Q 1053 1553 659 1965 
Q 266 2378 266 3053 
Q 266 3750 677 4175 
Q 1088 4600 1706 4600 
Q 2153 4600 2523 4359 
Q 2894 4119 3086 3673 
Q 3278 3228 3278 2384 
Q 3278 1506 3087 986 
Q 2897 466 2520 194 
Q 2144 -78 1638 -78 
Q 1100 -78 759 220 
Q 419 519 350 1059 
z
M 2653 3081 
Q 2653 3566 2395 3850 
Q 2138 4134 1775 4134 
Q 1400 4134 1122 3828 
Q 844 3522 844 3034 
Q 844 2597 1108 2323 
Q 1372 2050 1759 2050 
Q 2150 2050 2401 2323 
Q 2653 2597 2653 3081 
z
" id="ArialMT-39" transform="scale(0.015625)"/>
        <path d="M 266 2259 
Q 266 3072 433 3567 
Q 600 4063 929 4331 
Q 1259 4600 1759 4600 
Q 2128 4600 2406 4451 
Q 2684 4303 2865 4023 
Q 3047 3744 3150 3342 
Q 3253 2941 3253 2259 
Q 3253 1453 3087 958 
Q 2922 463 2592 192 
Q 2263 -78 1759 -78 
Q 1097 -78 719 397 
Q 266 969 266 2259 
z
M 844 2259 
Q 844 1131 1108 757 
Q 1372 384 1759 384 
Q 2147 384 2411 759 
Q 2675 1134 2675 2259 
Q 2675 3391 2411 3762 
Q 2147 4134 1753 4134 
Q 1366 4134 1134 3806 
Q 844 3388 844 2259 
z
" id="ArialMT-30" transform="scale(0.015625)"/>
       </defs>
       <use xlink:href="#ArialMT-35"/>
       <use x="55.615234" xlink:href="#ArialMT-39"/>
       <use x="111.230469" xlink:href="#ArialMT-2e"/>
       <use x="139.013672" xlink:href="#ArialMT-30"/>
      </g>
     </g>
    </g>
    <g id="ytick_3">
     <g id="line2d_12">
      <path clip-path="url(#p2598c862f8)" d="M 144 375.764211 
L 1036.8 375.764211 
" style="fill:none;stroke:#ffffff;stroke-linecap:round;"/>
     </g>
     <g id="text_13">
      <!-- 59.5 -->
      <g style="fill:#262626;" transform="translate(113.092969 379.701007)scale(0.11 -0.11)">
       <use xlink:href="#ArialMT-35"/>
       <use x="55.615234" xlink:href="#ArialMT-39"/>
       <use x="111.230469" xlink:href="#ArialMT-2e"/>
       <use x="139.013672" xlink:href="#ArialMT-35"/>
      </g>
     </g>
    </g>
    <g id="ytick_4">
     <g id="line2d_13">
      <path clip-path="url(#p2598c862f8)" d="M 144 322.711579 
L 1036.8 322.711579 
" style="fill:none;stroke:#ffffff;stroke-linecap:round;"/>
     </g>
     <g id="text_14">
      <!-- 60.0 -->
      <g style="fill:#262626;" transform="translate(113.092969 326.648376)scale(0.11 -0.11)">
       <use xlink:href="#ArialMT-36"/>
       <use x="55.615234" xlink:href="#ArialMT-30"/>
       <use x="111.230469" xlink:href="#ArialMT-2e"/>
       <use x="139.013672" xlink:href="#ArialMT-30"/>
      </g>
     </g>
    </g>
    <g id="ytick_5">
     <g id="line2d_14">
      <path clip-path="url(#p2598c862f8)" d="M 144 269.658947 
L 1036.8 269.658947 
" style="fill:none;stroke:#ffffff;stroke-linecap:round;"/>
     </g>
     <g id="text_15">
      <!-- 60.5 -->
      <g style="fill:#262626;" transform="translate(113.092969 273.595744)scale(0.11 -0.11)">
       <use xlink:href="#ArialMT-36"/>
       <use x="55.615234" xlink:href="#ArialMT-30"/>
       <use x="111.230469" xlink:href="#ArialMT-2e"/>
       <use x="139.013672" xlink:href="#ArialMT-35"/>
      </g>
     </g>
    </g>
    <g id="ytick_6">
     <g id="line2d_15">
      <path clip-path="url(#p2598c862f8)" d="M 144 216.606316 
L 1036.8 216.606316 
" style="fill:none;stroke:#ffffff;stroke-linecap:round;"/>
     </g>
     <g id="text_16">
      <!-- 61.0 -->
      <g style="fill:#262626;" transform="translate(113.092969 220.543113)scale(0.11 -0.11)">
       <use xlink:href="#ArialMT-36"/>
       <use x="55.615234" xlink:href="#ArialMT-31"/>
       <use x="111.230469" xlink:href="#ArialMT-2e"/>
       <use x="139.013672" xlink:href="#ArialMT-30"/>
      </g>
     </g>
    </g>
    <g id="ytick_7">
     <g id="line2d_16">
      <path clip-path="url(#p2598c862f8)" d="M 144 163.553684 
L 1036.8 163.553684 
" style="fill:none;stroke:#ffffff;stroke-linecap:round;"/>
     </g>
     <g id="text_17">
      <!-- 61.5 -->
      <g style="fill:#262626;" transform="translate(113.092969 167.490481)scale(0.11 -0.11)">
       <use xlink:href="#ArialMT-36"/>
       <use x="55.615234" xlink:href="#ArialMT-31"/>
       <use x="111.230469" xlink:href="#ArialMT-2e"/>
       <use x="139.013672" xlink:href="#ArialMT-35"/>
      </g>
     </g>
    </g>
    <g id="ytick_8">
     <g id="line2d_17">
      <path clip-path="url(#p2598c862f8)" d="M 144 110.501053 
L 1036.8 110.501053 
" style="fill:none;stroke:#ffffff;stroke-linecap:round;"/>
     </g>
     <g id="text_18">
      <!-- 62.0 -->
      <g style="fill:#262626;" transform="translate(113.092969 114.43785)scale(0.11 -0.11)">
       <use xlink:href="#ArialMT-36"/>
       <use x="55.615234" xlink:href="#ArialMT-32"/>
       <use x="111.230469" xlink:href="#ArialMT-2e"/>
       <use x="139.013672" xlink:href="#ArialMT-30"/>
      </g>
     </g>
    </g>
    <g id="text_19">
     <!-- Water Temp (°F) -->
     <g style="fill:#262626;" transform="translate(105.304531 356.47875)rotate(-90)scale(0.18 -0.18)">
      <defs>
       <path d="M 2588 409 
Q 2275 144 1986 34 
Q 1697 -75 1366 -75 
Q 819 -75 525 192 
Q 231 459 231 875 
Q 231 1119 342 1320 
Q 453 1522 633 1644 
Q 813 1766 1038 1828 
Q 1203 1872 1538 1913 
Q 2219 1994 2541 2106 
Q 2544 2222 2544 2253 
Q 2544 2597 2384 2738 
Q 2169 2928 1744 2928 
Q 1347 2928 1158 2789 
Q 969 2650 878 2297 
L 328 2372 
Q 403 2725 575 2942 
Q 747 3159 1072 3276 
Q 1397 3394 1825 3394 
Q 2250 3394 2515 3294 
Q 2781 3194 2906 3042 
Q 3031 2891 3081 2659 
Q 3109 2516 3109 2141 
L 3109 1391 
Q 3109 606 3145 398 
Q 3181 191 3288 0 
L 2700 0 
Q 2613 175 2588 409 
z
M 2541 1666 
Q 2234 1541 1622 1453 
Q 1275 1403 1131 1340 
Q 988 1278 909 1158 
Q 831 1038 831 891 
Q 831 666 1001 516 
Q 1172 366 1500 366 
Q 1825 366 2078 508 
Q 2331 650 2450 897 
Q 2541 1088 2541 1459 
L 2541 1666 
z
" id="ArialMT-61" transform="scale(0.015625)"/>
       <path d="M 1650 503 
L 1731 6 
Q 1494 -44 1306 -44 
Q 1000 -44 831 53 
Q 663 150 594 308 
Q 525 466 525 972 
L 525 2881 
L 113 2881 
L 113 3319 
L 525 3319 
L 525 4141 
L 1084 4478 
L 1084 3319 
L 1650 3319 
L 1650 2881 
L 1084 2881 
L 1084 941 
Q 1084 700 1114 631 
Q 1144 563 1211 522 
Q 1278 481 1403 481 
Q 1497 481 1650 503 
z
" id="ArialMT-74" transform="scale(0.015625)"/>
       <path d="M 416 0 
L 416 3319 
L 922 3319 
L 922 2816 
Q 1116 3169 1280 3281 
Q 1444 3394 1641 3394 
Q 1925 3394 2219 3213 
L 2025 2691 
Q 1819 2813 1613 2813 
Q 1428 2813 1281 2702 
Q 1134 2591 1072 2394 
Q 978 2094 978 1738 
L 978 0 
L 416 0 
z
" id="ArialMT-72" transform="scale(0.015625)"/>
       <path d="M 422 -1272 
L 422 3319 
L 934 3319 
L 934 2888 
Q 1116 3141 1344 3267 
Q 1572 3394 1897 3394 
Q 2322 3394 2647 3175 
Q 2972 2956 3137 2557 
Q 3303 2159 3303 1684 
Q 3303 1175 3120 767 
Q 2938 359 2589 142 
Q 2241 -75 1856 -75 
Q 1575 -75 1351 44 
Q 1128 163 984 344 
L 984 -1272 
L 422 -1272 
z
M 931 1641 
Q 931 1000 1190 694 
Q 1450 388 1819 388 
Q 2194 388 2461 705 
Q 2728 1022 2728 1688 
Q 2728 2322 2467 2637 
Q 2206 2953 1844 2953 
Q 1484 2953 1207 2617 
Q 931 2281 931 1641 
z
" id="ArialMT-70" transform="scale(0.015625)"/>
       <path d="M 1497 -1347 
Q 1031 -759 709 28 
Q 388 816 388 1659 
Q 388 2403 628 3084 
Q 909 3875 1497 4659 
L 1900 4659 
Q 1522 4009 1400 3731 
Q 1209 3300 1100 2831 
Q 966 2247 966 1656 
Q 966 153 1900 -1347 
L 1497 -1347 
z
" id="ArialMT-28" transform="scale(0.015625)"/>
       <path d="M 400 3794 
Q 400 4153 654 4406 
Q 909 4659 1266 4659 
Q 1628 4659 1881 4406 
Q 2134 4153 2134 3794 
Q 2134 3434 1879 3179 
Q 1625 2925 1266 2925 
Q 909 2925 654 3178 
Q 400 3431 400 3794 
z
M 741 3794 
Q 741 3575 895 3420 
Q 1050 3266 1269 3266 
Q 1484 3266 1639 3420 
Q 1794 3575 1794 3794 
Q 1794 4013 1639 4167 
Q 1484 4322 1269 4322 
Q 1050 4322 895 4167 
Q 741 4013 741 3794 
z
" id="ArialMT-b0" transform="scale(0.015625)"/>
       <path d="M 525 0 
L 525 4581 
L 3616 4581 
L 3616 4041 
L 1131 4041 
L 1131 2622 
L 3281 2622 
L 3281 2081 
L 1131 2081 
L 1131 0 
L 525 0 
z
" id="ArialMT-46" transform="scale(0.015625)"/>
       <path d="M 791 -1347 
L 388 -1347 
Q 1322 153 1322 1656 
Q 1322 2244 1188 2822 
Q 1081 3291 891 3722 
Q 769 4003 388 4659 
L 791 4659 
Q 1378 3875 1659 3084 
Q 1900 2403 1900 1659 
Q 1900 816 1576 28 
Q 1253 -759 791 -1347 
z
" id="ArialMT-29" transform="scale(0.015625)"/>
      </defs>
      <use xlink:href="#ArialMT-57"/>
      <use x="90.634766" xlink:href="#ArialMT-61"/>
      <use x="146.25" xlink:href="#ArialMT-74"/>
      <use x="174.033203" xlink:href="#ArialMT-65"/>
      <use x="229.648438" xlink:href="#ArialMT-72"/>
      <use x="262.949219" xlink:href="#ArialMT-20"/>
      <use x="288.982422" xlink:href="#ArialMT-54"/>
      <use x="338.941406" xlink:href="#ArialMT-65"/>
      <use x="394.556641" xlink:href="#ArialMT-6d"/>
      <use x="477.857422" xlink:href="#ArialMT-70"/>
      <use x="533.472656" xlink:href="#ArialMT-20"/>
      <use x="561.255859" xlink:href="#ArialMT-28"/>
      <use x="594.556641" xlink:href="#ArialMT-b0"/>
      <use x="634.546875" xlink:href="#ArialMT-46"/>
      <use x="695.630859" xlink:href="#ArialMT-29"/>
     </g>
    </g>
   </g>
   <g id="line2d_18">
    <path clip-path="url(#p2598c862f8)" d="M 184.581818 322.711579 
L 187.970697 322.711579 
L 189.665136 333.322105 
L 191.359575 322.711579 
L 193.054014 322.711579 
L 194.748453 301.490526 
L 199.831771 301.490526 
L 201.52621 312.101053 
L 204.915088 375.764211 
L 206.609527 396.985263 
L 208.303967 396.985263 
L 209.998406 386.374737 
L 211.692845 386.374737 
L 213.387284 396.985263 
L 220.165041 396.985263 
L 221.85948 386.374737 
L 233.720554 386.374737 
L 235.414993 396.985263 
L 237.109433 396.985263 
L 240.498311 375.764211 
L 243.887189 375.764211 
L 245.581628 386.374737 
L 247.276068 386.374737 
L 250.664946 407.595789 
L 252.359385 407.595789 
L 254.053824 418.206316 
L 259.137142 418.206316 
L 260.831581 407.595789 
L 269.303777 407.595789 
L 270.998216 418.206316 
L 272.692655 418.206316 
L 274.387094 428.816842 
L 276.081533 428.816842 
L 279.470412 450.037895 
L 281.164851 450.037895 
L 284.553729 471.258947 
L 287.942608 471.258947 
L 289.637047 450.037895 
L 293.025925 492.48 
L 294.720364 471.258947 
L 296.414804 471.258947 
L 298.109243 439.427368 
L 299.803682 439.427368 
L 301.498121 450.037895 
L 303.19256 450.037895 
L 304.886999 439.427368 
L 311.664756 439.427368 
L 315.053634 481.869474 
L 316.748074 471.258947 
L 320.136952 428.816842 
L 325.22027 428.816842 
L 326.914709 418.206316 
L 342.164661 418.206316 
L 343.8591 407.595789 
L 345.55354 418.206316 
L 357.414614 418.206316 
L 359.109053 428.816842 
L 360.803492 418.206316 
L 362.497931 418.206316 
L 364.19237 407.595789 
L 369.275688 407.595789 
L 370.970127 396.985263 
L 372.664566 407.595789 
L 374.359006 407.595789 
L 376.053445 396.985263 
L 377.747884 396.985263 
L 379.442323 386.374737 
L 384.525641 386.374737 
L 386.22008 375.764211 
L 391.303397 375.764211 
L 392.997836 386.374737 
L 394.692276 386.374737 
L 396.386715 375.764211 
L 404.858911 375.764211 
L 406.55335 365.153684 
L 408.247789 375.764211 
L 409.942228 365.153684 
L 415.025546 365.153684 
L 418.414424 343.932632 
L 420.108863 343.932632 
L 421.803302 333.322105 
L 423.497742 333.322105 
L 425.192181 343.932632 
L 426.88662 343.932632 
L 428.581059 354.543158 
L 430.275498 354.543158 
L 431.969937 365.153684 
L 433.664377 354.543158 
L 438.747694 354.543158 
L 440.442133 343.932632 
L 442.136572 343.932632 
L 443.831012 354.543158 
L 452.303207 354.543158 
L 453.997647 365.153684 
L 455.692086 365.153684 
L 457.386525 375.764211 
L 465.858721 375.764211 
L 467.55316 396.985263 
L 469.247599 396.985263 
L 472.636478 375.764211 
L 477.719795 375.764211 
L 479.414234 386.374737 
L 481.108673 386.374737 
L 482.803113 375.764211 
L 487.88643 375.764211 
L 489.580869 365.153684 
L 494.664187 365.153684 
L 496.358626 375.764211 
L 498.053065 375.764211 
L 499.747504 365.153684 
L 501.441943 365.153684 
L 503.136383 354.543158 
L 504.830822 365.153684 
L 506.525261 365.153684 
L 508.2197 354.543158 
L 521.775214 354.543158 
L 523.469653 365.153684 
L 525.164092 354.543158 
L 526.858531 354.543158 
L 528.55297 343.932632 
L 531.941849 343.932632 
L 533.636288 322.711579 
L 535.330727 322.711579 
L 537.025166 301.490526 
L 538.719605 301.490526 
L 542.108484 280.269474 
L 545.497362 301.490526 
L 547.191801 301.490526 
L 548.88624 280.269474 
L 552.275119 280.269474 
L 553.969558 269.658947 
L 555.663997 301.490526 
L 557.358436 280.269474 
L 559.052875 237.827368 
L 560.747314 259.048421 
L 562.441754 259.048421 
L 564.136193 248.437895 
L 565.830632 269.658947 
L 567.525071 269.658947 
L 569.21951 248.437895 
L 574.302828 216.606316 
L 577.691706 216.606316 
L 579.386145 205.995789 
L 582.775024 205.995789 
L 584.469463 195.385263 
L 586.163902 205.995789 
L 589.55278 184.774737 
L 591.24722 152.943158 
L 592.941659 152.943158 
L 594.636098 163.553684 
L 596.330537 142.332632 
L 599.719415 142.332632 
L 601.413855 99.890526 
L 603.108294 110.501053 
L 604.802733 99.890526 
L 608.191611 99.890526 
L 609.88605 89.28 
L 611.58049 99.890526 
L 613.274929 89.28 
L 614.969368 121.111579 
L 616.663807 195.385263 
L 618.358246 184.774737 
L 620.052686 216.606316 
L 623.441564 237.827368 
L 625.136003 216.606316 
L 628.524881 237.827368 
L 630.219321 259.048421 
L 635.302638 259.048421 
L 636.997077 269.658947 
L 638.691516 259.048421 
L 640.385956 259.048421 
L 642.080395 269.658947 
L 643.774834 269.658947 
L 645.469273 259.048421 
L 648.858151 259.048421 
L 657.330347 312.101053 
L 659.024786 301.490526 
L 660.719226 301.490526 
L 662.413665 280.269474 
L 664.108104 280.269474 
L 665.802543 290.88 
L 669.191422 290.88 
L 670.885861 280.269474 
L 672.5803 290.88 
L 687.830252 290.88 
L 691.219131 312.101053 
L 692.91357 312.101053 
L 699.691327 354.543158 
L 703.080205 354.543158 
L 704.774644 365.153684 
L 706.469083 365.153684 
L 708.163522 375.764211 
L 711.552401 375.764211 
L 713.24684 365.153684 
L 714.941279 333.322105 
L 718.330158 333.322105 
L 720.024597 343.932632 
L 721.719036 322.711579 
L 725.107914 343.932632 
L 728.496793 343.932632 
L 730.191232 333.322105 
L 731.885671 333.322105 
L 735.274549 354.543158 
L 736.968988 354.543158 
L 738.663428 365.153684 
L 743.746745 301.490526 
L 745.441184 290.88 
L 747.135623 269.658947 
L 748.830063 280.269474 
L 750.524502 280.269474 
L 752.218941 259.048421 
L 755.607819 280.269474 
L 757.302258 280.269474 
L 758.996698 290.88 
L 765.774454 290.88 
L 767.468894 280.269474 
L 770.857772 280.269474 
L 772.552211 290.88 
L 774.24665 290.88 
L 775.941089 280.269474 
L 777.635529 290.88 
L 791.191042 290.88 
L 792.885481 280.269474 
L 797.968799 280.269474 
L 799.663238 269.658947 
L 804.746555 269.658947 
L 806.440994 259.048421 
L 814.91319 259.048421 
L 816.60763 269.658947 
L 818.302069 259.048421 
L 819.996508 269.658947 
L 825.079825 269.658947 
L 826.774265 259.048421 
L 828.468704 269.658947 
L 831.857582 269.658947 
L 833.552021 259.048421 
L 835.24646 269.658947 
L 836.9409 269.658947 
L 838.635339 259.048421 
L 840.329778 259.048421 
L 842.024217 248.437895 
L 847.107535 248.437895 
L 848.801974 259.048421 
L 850.496413 280.269474 
L 852.190852 269.658947 
L 855.57973 269.658947 
L 857.27417 259.048421 
L 867.440805 259.048421 
L 869.135244 248.437895 
L 870.829683 248.437895 
L 872.524122 259.048421 
L 875.913001 259.048421 
L 879.301879 280.269474 
L 882.690757 280.269474 
L 884.385196 290.88 
L 889.468514 290.88 
L 892.857392 269.658947 
L 901.329588 269.658947 
L 903.024027 259.048421 
L 904.718467 269.658947 
L 906.412906 269.658947 
L 908.107345 259.048421 
L 913.190662 259.048421 
L 914.885102 237.827368 
L 916.579541 237.827368 
L 919.968419 216.606316 
L 921.662858 227.216842 
L 925.051737 227.216842 
L 928.440615 205.995789 
L 930.135054 216.606316 
L 931.829493 248.437895 
L 935.218372 248.437895 
L 936.912811 205.995789 
L 938.60725 205.995789 
L 941.996128 227.216842 
L 943.690567 259.048421 
L 945.385007 227.216842 
L 947.079446 227.216842 
L 948.773885 216.606316 
L 952.162763 216.606316 
L 953.857203 205.995789 
L 955.551642 205.995789 
L 957.246081 195.385263 
L 960.634959 216.606316 
L 964.023838 216.606316 
L 965.718277 205.995789 
L 967.412716 227.216842 
L 969.107155 216.606316 
L 970.801594 184.774737 
L 972.496033 163.553684 
L 974.190473 152.943158 
L 975.884912 163.553684 
L 980.968229 163.553684 
L 982.662668 152.943158 
L 989.440425 152.943158 
L 992.829303 131.722105 
L 996.218182 131.722105 
L 996.218182 131.722105 
" style="fill:none;stroke:#4c72b0;stroke-linecap:round;stroke-width:1.5;"/>
   </g>
   <g id="line2d_19">
    <path clip-path="url(#p2598c862f8)" d="M 184.581818 328.547368 
L 186.276257 326.955789 
L 187.970697 326.425263 
L 189.665136 327.486316 
L 191.359575 330.138947 
L 196.442892 336.505263 
L 198.137332 339.157895 
L 199.831771 342.871579 
L 201.52621 347.115789 
L 204.915088 354.543158 
L 206.609527 357.726316 
L 208.303967 360.378947 
L 211.692845 366.745263 
L 220.165041 387.966316 
L 221.85948 390.618947 
L 223.553919 391.149474 
L 226.942797 389.027368 
L 228.637237 388.496842 
L 230.331676 388.496842 
L 232.026115 387.966316 
L 233.720554 387.966316 
L 237.109433 389.027368 
L 238.803872 390.088421 
L 243.887189 394.863158 
L 252.359385 400.168421 
L 254.053824 400.698947 
L 255.748263 401.76 
L 257.442703 403.351579 
L 260.831581 408.656842 
L 270.998216 427.755789 
L 272.692655 430.408421 
L 274.387094 432 
L 276.081533 434.652632 
L 277.775973 438.366316 
L 281.164851 444.732632 
L 284.553729 447.915789 
L 287.942608 452.16 
L 291.331486 454.282105 
L 294.720364 455.343158 
L 296.414804 455.343158 
L 298.109243 455.873684 
L 299.803682 457.465263 
L 301.498121 457.995789 
L 303.19256 456.934737 
L 306.581439 452.690526 
L 308.275878 451.629474 
L 309.970317 449.507368 
L 311.664756 445.793684 
L 315.053634 440.488421 
L 318.442513 438.366316 
L 321.831391 435.183158 
L 326.914709 432 
L 328.609148 430.408421 
L 330.303587 429.347368 
L 331.998026 427.225263 
L 333.692465 424.042105 
L 335.386905 421.389474 
L 337.081344 419.797895 
L 342.164661 418.206316 
L 347.247979 418.206316 
L 354.025735 416.084211 
L 355.720175 415.023158 
L 359.109053 413.962105 
L 360.803492 412.901053 
L 362.497931 412.370526 
L 369.275688 406.004211 
L 377.747884 395.393684 
L 379.442323 393.802105 
L 381.136762 391.68 
L 387.914519 385.313684 
L 389.608958 384.252632 
L 391.303397 382.130526 
L 396.386715 377.355789 
L 399.775593 375.233684 
L 401.470032 373.642105 
L 403.164471 371.52 
L 404.858911 369.928421 
L 408.247789 365.684211 
L 409.942228 364.092632 
L 411.636667 361.970526 
L 413.331106 360.378947 
L 415.025546 359.317895 
L 416.719985 358.787368 
L 425.192181 353.482105 
L 426.88662 351.890526 
L 433.664377 349.768421 
L 435.358816 349.768421 
L 437.053255 350.298947 
L 438.747694 351.36 
L 440.442133 352.951579 
L 442.136572 355.073684 
L 445.525451 358.256842 
L 448.914329 360.378947 
L 450.608768 360.909474 
L 453.997647 365.153684 
L 455.692086 366.745263 
L 457.386525 367.806316 
L 460.775403 370.989474 
L 462.469842 372.050526 
L 465.858721 375.233684 
L 470.942038 378.416842 
L 472.636478 378.947368 
L 474.330917 378.947368 
L 479.414234 377.355789 
L 482.803113 377.355789 
L 484.497552 376.825263 
L 486.191991 375.233684 
L 487.88643 373.111579 
L 489.580869 372.050526 
L 491.275308 371.52 
L 496.358626 368.336842 
L 499.747504 365.153684 
L 506.525261 360.909474 
L 508.2197 360.909474 
L 511.608578 359.848421 
L 513.303018 358.787368 
L 516.691896 355.604211 
L 520.080774 351.36 
L 521.775214 348.707368 
L 523.469653 345.524211 
L 526.858531 338.096842 
L 528.55297 334.913684 
L 531.941849 329.608421 
L 537.025166 318.467368 
L 538.719605 314.223158 
L 540.414044 311.570526 
L 542.108484 307.326316 
L 543.802923 301.490526 
L 545.497362 296.715789 
L 547.191801 292.471579 
L 548.88624 287.696842 
L 550.580679 283.983158 
L 552.275119 281.330526 
L 553.969558 277.616842 
L 555.663997 274.433684 
L 559.052875 267.006316 
L 560.747314 263.823158 
L 562.441754 260.109474 
L 565.830632 250.56 
L 567.525071 246.846316 
L 569.21951 242.602105 
L 572.608389 235.174737 
L 574.302828 229.338947 
L 575.997267 222.972632 
L 577.691706 218.728421 
L 579.386145 213.953684 
L 581.080585 208.117895 
L 582.775024 202.812632 
L 584.469463 196.446316 
L 586.163902 187.957895 
L 589.55278 174.164211 
L 591.24722 167.797895 
L 592.941659 161.962105 
L 594.636098 155.595789 
L 598.024976 143.924211 
L 599.719415 139.68 
L 603.108294 138.618947 
L 604.802733 139.149474 
L 606.497172 140.741053 
L 608.191611 143.393684 
L 609.88605 146.576842 
L 613.274929 154.004211 
L 618.358246 171.511579 
L 626.830442 211.831579 
L 628.524881 220.850526 
L 633.608199 244.193684 
L 635.302638 247.907368 
L 636.997077 252.682105 
L 642.080395 263.823158 
L 643.774834 268.067368 
L 645.469273 271.781053 
L 647.163712 273.903158 
L 648.858151 274.964211 
L 653.941469 279.738947 
L 655.635908 280.269474 
L 659.024786 283.452632 
L 662.413665 285.574737 
L 667.496982 290.349474 
L 669.191422 291.410526 
L 670.885861 291.941053 
L 675.969178 291.941053 
L 677.663617 292.471579 
L 679.358057 293.532632 
L 681.052496 296.185263 
L 687.830252 308.917895 
L 689.524692 313.162105 
L 691.219131 316.875789 
L 696.302448 329.608421 
L 697.996887 333.322105 
L 703.080205 339.688421 
L 704.774644 342.341053 
L 711.552401 348.707368 
L 713.24684 349.768421 
L 714.941279 349.768421 
L 718.330158 348.707368 
L 723.413475 348.707368 
L 725.107914 347.646316 
L 726.802353 344.993684 
L 728.496793 341.28 
L 730.191232 337.035789 
L 731.885671 332.261053 
L 735.274549 326.955789 
L 738.663428 319.528421 
L 740.357867 317.406316 
L 747.135623 306.795789 
L 750.524502 302.551579 
L 752.218941 299.368421 
L 757.302258 288.227368 
L 758.996698 285.574737 
L 760.691137 283.452632 
L 762.385576 282.922105 
L 764.080015 282.922105 
L 765.774454 283.983158 
L 769.163333 285.044211 
L 770.857772 286.635789 
L 772.552211 287.696842 
L 775.941089 288.757895 
L 782.718846 286.635789 
L 784.413285 285.574737 
L 789.496603 283.983158 
L 792.885481 280.8 
L 794.57992 279.738947 
L 799.663238 274.964211 
L 801.357677 273.903158 
L 803.052116 272.311579 
L 811.524312 267.006316 
L 818.302069 264.884211 
L 821.690947 264.884211 
L 823.385386 264.353684 
L 825.079825 264.353684 
L 831.857582 262.231579 
L 833.552021 262.231579 
L 836.9409 263.292632 
L 840.329778 263.292632 
L 843.718656 262.231579 
L 845.413095 262.231579 
L 850.496413 260.64 
L 852.190852 260.64 
L 855.57973 258.517895 
L 858.968609 258.517895 
L 860.663048 259.048421 
L 862.357487 260.109474 
L 865.746366 263.292632 
L 867.440805 264.353684 
L 869.135244 264.884211 
L 875.913001 269.128421 
L 887.774075 272.842105 
L 889.468514 273.903158 
L 891.162953 274.433684 
L 894.551831 274.433684 
L 896.246271 273.903158 
L 897.94071 272.842105 
L 901.329588 268.597895 
L 903.024027 265.414737 
L 904.718467 261.701053 
L 908.107345 255.334737 
L 911.496223 250.029474 
L 913.190662 246.846316 
L 914.885102 244.193684 
L 919.968419 241.010526 
L 921.662858 238.357895 
L 923.357297 235.174737 
L 925.051737 232.522105 
L 926.746176 230.930526 
L 928.440615 230.930526 
L 931.829493 227.747368 
L 935.218372 225.625263 
L 938.60725 224.564211 
L 940.301689 223.503158 
L 941.996128 221.911579 
L 943.690567 220.850526 
L 945.385007 220.850526 
L 947.079446 221.381053 
L 948.773885 221.381053 
L 950.468324 219.258947 
L 952.162763 218.197895 
L 953.857203 216.606316 
L 955.551642 215.545263 
L 957.246081 213.423158 
L 960.634959 207.056842 
L 962.329398 202.282105 
L 970.801594 186.366316 
L 975.884912 178.408421 
L 977.579351 174.694737 
L 980.968229 166.206316 
L 980.968229 166.206316 
" style="fill:none;stroke:#dd8452;stroke-dasharray:6,2.25;stroke-dashoffset:0;stroke-width:1.5;"/>
   </g>
   <g id="line2d_20"/>
   <g id="line2d_21"/>
   <g id="patch_3">
    <path d="M 144 512.64 
L 144 69.12 
" style="fill:none;stroke:#ffffff;stroke-linecap:square;stroke-linejoin:miter;stroke-width:1.25;"/>
   </g>
   <g id="patch_4">
    <path d="M 1036.8 512.64 
L 1036.8 69.12 
" style="fill:none;stroke:#ffffff;stroke-linecap:square;stroke-linejoin:miter;stroke-width:1.25;"/>
   </g>
   <g id="patch_5">
    <path d="M 144 512.64 
L 1036.8 512.64 
" style="fill:none;stroke:#ffffff;stroke-linecap:square;stroke-linejoin:miter;stroke-width:1.25;"/>
   </g>
   <g id="patch_6">
    <path d="M 144 69.12 
L 1036.8 69.12 
" style="fill:none;stroke:#ffffff;stroke-linecap:square;stroke-linejoin:miter;stroke-width:1.25;"/>
   </g>
   <g id="text_20">
    <!-- 48-hour, live -->
    <g style="fill:#262626;" transform="translate(541.3725 63.12)scale(0.18 -0.18)">
     <defs>
      <path d="M 2069 0 
L 2069 1097 
L 81 1097 
L 81 1613 
L 2172 4581 
L 2631 4581 
L 2631 1613 
L 3250 1613 
L 3250 1097 
L 2631 1097 
L 2631 0 
L 2069 0 
z
M 2069 1613 
L 2069 3678 
L 634 1613 
L 2069 1613 
z
" id="ArialMT-34" transform="scale(0.015625)"/>
      <path d="M 203 1375 
L 203 1941 
L 1931 1941 
L 1931 1375 
L 203 1375 
z
" id="ArialMT-2d" transform="scale(0.015625)"/>
      <path d="M 213 1659 
Q 213 2581 725 3025 
Q 1153 3394 1769 3394 
Q 2453 3394 2887 2945 
Q 3322 2497 3322 1706 
Q 3322 1066 3130 698 
Q 2938 331 2570 128 
Q 2203 -75 1769 -75 
Q 1072 -75 642 372 
Q 213 819 213 1659 
z
M 791 1659 
Q 791 1022 1069 705 
Q 1347 388 1769 388 
Q 2188 388 2466 706 
Q 2744 1025 2744 1678 
Q 2744 2294 2464 2611 
Q 2184 2928 1769 2928 
Q 1347 2928 1069 2612 
Q 791 2297 791 1659 
z
" id="ArialMT-6f" transform="scale(0.015625)"/>
      <path d="M 569 0 
L 569 641 
L 1209 641 
L 1209 0 
Q 1209 -353 1084 -570 
Q 959 -788 688 -906 
L 531 -666 
Q 709 -588 793 -436 
Q 878 -284 888 0 
L 569 0 
z
" id="ArialMT-2c" transform="scale(0.015625)"/>
      <path d="M 409 0 
L 409 4581 
L 972 4581 
L 972 0 
L 409 0 
z
" id="ArialMT-6c" transform="scale(0.015625)"/>
      <path d="M 1344 0 
L 81 3319 
L 675 3319 
L 1388 1331 
Q 1503 1009 1600 663 
Q 1675 925 1809 1294 
L 2547 3319 
L 3125 3319 
L 1869 0 
L 1344 0 
z
" id="ArialMT-76" transform="scale(0.015625)"/>
     </defs>
     <use xlink:href="#ArialMT-34"/>
     <use x="55.615234" xlink:href="#ArialMT-38"/>
     <use x="111.230469" xlink:href="#ArialMT-2d"/>
     <use x="144.53125" xlink:href="#ArialMT-68"/>
     <use x="200.146484" xlink:href="#ArialMT-6f"/>
     <use x="255.761719" xlink:href="#ArialMT-75"/>
     <use x="311.376953" xlink:href="#ArialMT-72"/>
     <use x="339.177734" xlink:href="#ArialMT-2c"/>
     <use x="366.960938" xlink:href="#ArialMT-20"/>
     <use x="394.744141" xlink:href="#ArialMT-6c"/>
     <use x="416.960938" xlink:href="#ArialMT-69"/>
     <use x="439.177734" xlink:href="#ArialMT-76"/>
     <use x="489.177734" xlink:href="#ArialMT-65"/>
    </g>
   </g>
   <g id="legend_1">
    <g id="patch_7">
     <path d="M 938.889688 109.302656 
L 1029.1 109.302656 
Q 1031.3 109.302656 1031.3 107.102656 
L 1031.3 76.82 
Q 1031.3 74.62 1029.1 74.62 
L 938.889688 74.62 
Q 936.689687 74.62 936.689687 76.82 
L 936.689687 107.102656 
Q 936.689687 109.302656 938.889688 109.302656 
z
" style="fill:#eaeaf2;opacity:0.8;stroke:#cccccc;stroke-linejoin:miter;"/>
    </g>
    <g id="line2d_22">
     <path d="M 941.089687 83.043594 
L 963.089687 83.043594 
" style="fill:none;stroke:#4c72b0;stroke-linecap:round;stroke-width:1.5;"/>
    </g>
    <g id="line2d_23"/>
    <g id="text_21">
     <!-- live -->
     <g style="fill:#262626;" transform="translate(971.889687 86.893594)scale(0.11 -0.11)">
      <use xlink:href="#ArialMT-6c"/>
      <use x="22.216797" xlink:href="#ArialMT-69"/>
      <use x="44.433594" xlink:href="#ArialMT-76"/>
      <use x="94.433594" xlink:href="#ArialMT-65"/>
     </g>
    </g>
    <g id="line2d_24">
     <path d="M 941.089687 98.7375 
L 963.089687 98.7375 
" style="fill:none;stroke:#dd8452;stroke-dasharray:6,2.25;stroke-dashoffset:0;stroke-width:1.5;"/>
    </g>
    <g id="line2d_25"/>
    <g id="text_22">
     <!-- trend (2-hr) -->
     <g style="fill:#262626;" transform="translate(971.889687 102.5875)scale(0.11 -0.11)">
      <defs>
       <path d="M 422 0 
L 422 3319 
L 928 3319 
L 928 2847 
Q 1294 3394 1984 3394 
Q 2284 3394 2536 3286 
Q 2788 3178 2913 3003 
Q 3038 2828 3088 2588 
Q 3119 2431 3119 2041 
L 3119 0 
L 2556 0 
L 2556 2019 
Q 2556 2363 2490 2533 
Q 2425 2703 2258 2804 
Q 2091 2906 1866 2906 
Q 1506 2906 1245 2678 
Q 984 2450 984 1813 
L 984 0 
L 422 0 
z
" id="ArialMT-6e" transform="scale(0.015625)"/>
      </defs>
      <use xlink:href="#ArialMT-74"/>
      <use x="27.783203" xlink:href="#ArialMT-72"/>
      <use x="61.083984" xlink:href="#ArialMT-65"/>
      <use x="116.699219" xlink:href="#ArialMT-6e"/>
      <use x="172.314453" xlink:href="#ArialMT-64"/>
      <use x="227.929688" xlink:href="#ArialMT-20"/>
      <use x="255.712891" xlink:href="#ArialMT-28"/>
      <use x="289.013672" xlink:href="#ArialMT-32"/>
      <use x="344.628906" xlink:href="#ArialMT-2d"/>
      <use x="377.929688" xlink:href="#ArialMT-68"/>
      <use x="433.544922" xlink:href="#ArialMT-72"/>
      <use x="466.845703" xlink:href="#ArialMT-29"/>
     </g>
    </g>
   </g>
  </g>
  <g id="text_23">
   <!-- Battery NYC Water Temperature -->
   <g style="fill:#262626;" transform="translate(403.951875 28.99125)scale(0.24 -0.24)">
    <defs>
     <path d="M 469 0 
L 469 4581 
L 2188 4581 
Q 2713 4581 3030 4442 
Q 3347 4303 3526 4014 
Q 3706 3725 3706 3409 
Q 3706 3116 3547 2856 
Q 3388 2597 3066 2438 
Q 3481 2316 3704 2022 
Q 3928 1728 3928 1328 
Q 3928 1006 3792 729 
Q 3656 453 3456 303 
Q 3256 153 2954 76 
Q 2653 0 2216 0 
L 469 0 
z
M 1075 2656 
L 2066 2656 
Q 2469 2656 2644 2709 
Q 2875 2778 2992 2937 
Q 3109 3097 3109 3338 
Q 3109 3566 3000 3739 
Q 2891 3913 2687 3977 
Q 2484 4041 1991 4041 
L 1075 4041 
L 1075 2656 
z
M 1075 541 
L 2216 541 
Q 2509 541 2628 563 
Q 2838 600 2978 687 
Q 3119 775 3209 942 
Q 3300 1109 3300 1328 
Q 3300 1584 3169 1773 
Q 3038 1963 2805 2039 
Q 2572 2116 2134 2116 
L 1075 2116 
L 1075 541 
z
" id="ArialMT-42" transform="scale(0.015625)"/>
     <path d="M 397 -1278 
L 334 -750 
Q 519 -800 656 -800 
Q 844 -800 956 -737 
Q 1069 -675 1141 -563 
Q 1194 -478 1313 -144 
Q 1328 -97 1363 -6 
L 103 3319 
L 709 3319 
L 1400 1397 
Q 1534 1031 1641 628 
Q 1738 1016 1872 1384 
L 2581 3319 
L 3144 3319 
L 1881 -56 
Q 1678 -603 1566 -809 
Q 1416 -1088 1222 -1217 
Q 1028 -1347 759 -1347 
Q 597 -1347 397 -1278 
z
" id="ArialMT-79" transform="scale(0.015625)"/>
     <path d="M 488 0 
L 488 4581 
L 1109 4581 
L 3516 984 
L 3516 4581 
L 4097 4581 
L 4097 0 
L 3475 0 
L 1069 3600 
L 1069 0 
L 488 0 
z
" id="ArialMT-4e" transform="scale(0.015625)"/>
     <path d="M 1784 0 
L 1784 1941 
L 19 4581 
L 756 4581 
L 1659 3200 
Q 1909 2813 2125 2425 
Q 2331 2784 2625 3234 
L 3513 4581 
L 4219 4581 
L 2391 1941 
L 2391 0 
L 1784 0 
z
" id="ArialMT-59" transform="scale(0.015625)"/>
     <path d="M 3763 1606 
L 4369 1453 
Q 4178 706 3683 314 
Q 3188 -78 2472 -78 
Q 1731 -78 1267 223 
Q 803 525 561 1097 
Q 319 1669 319 2325 
Q 319 3041 592 3573 
Q 866 4106 1370 4382 
Q 1875 4659 2481 4659 
Q 3169 4659 3637 4309 
Q 4106 3959 4291 3325 
L 3694 3184 
Q 3534 3684 3231 3912 
Q 2928 4141 2469 4141 
Q 1941 4141 1586 3887 
Q 1231 3634 1087 3207 
Q 944 2781 944 2328 
Q 944 1744 1114 1308 
Q 1284 872 1643 656 
Q 2003 441 2422 441 
Q 2931 441 3284 734 
Q 3638 1028 3763 1606 
z
" id="ArialMT-43" transform="scale(0.015625)"/>
    </defs>
    <use xlink:href="#ArialMT-42"/>
    <use x="66.699219" xlink:href="#ArialMT-61"/>
    <use x="122.314453" xlink:href="#ArialMT-74"/>
    <use x="150.097656" xlink:href="#ArialMT-74"/>
    <use x="177.880859" xlink:href="#ArialMT-65"/>
    <use x="233.496094" xlink:href="#ArialMT-72"/>
    <use x="266.796875" xlink:href="#ArialMT-79"/>
    <use x="316.796875" xlink:href="#ArialMT-20"/>
    <use x="344.580078" xlink:href="#ArialMT-4e"/>
    <use x="416.796875" xlink:href="#ArialMT-59"/>
    <use x="483.496094" xlink:href="#ArialMT-43"/>
    <use x="555.712891" xlink:href="#ArialMT-20"/>
    <use x="583.496094" xlink:href="#ArialMT-57"/>
    <use x="674.130859" xlink:href="#ArialMT-61"/>
    <use x="729.746094" xlink:href="#ArialMT-74"/>
    <use x="757.529297" xlink:href="#ArialMT-65"/>
    <use x="813.144531" xlink:href="#ArialMT-72"/>
    <use x="846.445312" xlink:href="#ArialMT-20"/>
    <use x="872.478516" xlink:href="#ArialMT-54"/>
    <use x="922.4375" xlink:href="#ArialMT-65"/>
    <use x="978.052734" xlink:href="#ArialMT-6d"/>
    <use x="1061.353516" xlink:href="#ArialMT-70"/>
    <use x="1116.96875" xlink:href="#ArialMT-65"/>
    <use x="1172.583984" xlink:href="#ArialMT-72"/>
    <use x="1205.884766" xlink:href="#ArialMT-61"/>
    <use x="1261.5" xlink:href="#ArialMT-74"/>
    <use x="1289.283203" xlink:href="#ArialMT-75"/>
    <use x="1344.898438" xlink:href="#ArialMT-72"/>
    <use x="1378.199219" xlink:href="#ArialMT-65"/>
   </g>
  </g>
 </g>
 <defs>
  <clipPath id="p2598c862f8">
   <rect height="443.52" width="892.8" x="144" y="69.12"/>
  </clipPath>
 </defs>
</svg>
