<?xml version="1.0" encoding="utf-8" standalone="no"?>
<!DOCTYPE svg PUBLIC "-//W3C//DTD SVG 1.1//EN"
  "http://www.w3.org/Graphics/SVG/1.1/DTD/svg11.dtd">
<svg xmlns:xlink="http://www.w3.org/1999/xlink" width="990.978906pt" height="492.454219pt" viewBox="0 0 990.978906 492.454219" xmlns="http://www.w3.org/2000/svg" version="1.1">
 <metadata>
  <rdf:RDF xmlns:dc="http://purl.org/dc/elements/1.1/" xmlns:cc="http://creativecommons.org/ns#" xmlns:rdf="http://www.w3.org/1999/02/22-rdf-syntax-ns#">
   <cc:Work>
    <dc:type rdf:resource="http://purl.org/dc/dcmitype/StillImage"/>
    <dc:date>2022-01-02T17:46:56.805007</dc:date>
    <dc:format>image/svg+xml</dc:format>
    <dc:creator>
     <cc:Agent>
      <dc:title>Matplotlib v3.5.1, https://matplotlib.org/</dc:title>
     </cc:Agent>
    </dc:creator>
   </cc:Work>
  </rdf:RDF>
 </metadata>
 <defs>
  <style type="text/css">*{stroke-linejoin: round; stroke-linecap: butt}</style>
 </defs>
 <g id="figure_1">
  <g id="patch_1">
   <path d="M 0 492.454219 
L 990.978906 492.454219 
L 990.978906 0 
L 0 0 
z
" style="fill: #ffffff"/>
  </g>
  <g id="axes_1">
   <g id="patch_2">
    <path d="M 44.502969 450.72 
L 937.302969 450.72 
L 937.302969 7.2 
L 44.502969 7.2 
z
" style="fill: #eaeaf2"/>
   </g>
   <g id="matplotlib.axis_1">
    <g id="xtick_1">
     <g id="line2d_1">
      <path d="M 92.417152 450.72 
L 92.417152 7.2 
" clip-path="url(#pa2c2475549)" style="fill: none; stroke: #ffffff; stroke-linecap: round"/>
     </g>
     <g id="text_1">
      <!-- Sun 3 PM -->
      <g style="fill: #262626" transform="translate(68.266995 468.093594)scale(0.11 -0.11)">
       <defs>
        <path id="ArialMT-53" d="M 288 1472 
L 859 1522 
Q 900 1178 1048 958 
Q 1197 738 1509 602 
Q 1822 466 2213 466 
Q 2559 466 2825 569 
Q 3091 672 3220 851 
Q 3350 1031 3350 1244 
Q 3350 1459 3225 1620 
Q 3100 1781 2813 1891 
Q 2628 1963 1997 2114 
Q 1366 2266 1113 2400 
Q 784 2572 623 2826 
Q 463 3081 463 3397 
Q 463 3744 659 4045 
Q 856 4347 1234 4503 
Q 1613 4659 2075 4659 
Q 2584 4659 2973 4495 
Q 3363 4331 3572 4012 
Q 3781 3694 3797 3291 
L 3216 3247 
Q 3169 3681 2898 3903 
Q 2628 4125 2100 4125 
Q 1550 4125 1298 3923 
Q 1047 3722 1047 3438 
Q 1047 3191 1225 3031 
Q 1400 2872 2139 2705 
Q 2878 2538 3153 2413 
Q 3553 2228 3743 1945 
Q 3934 1663 3934 1294 
Q 3934 928 3725 604 
Q 3516 281 3123 101 
Q 2731 -78 2241 -78 
Q 1619 -78 1198 103 
Q 778 284 539 648 
Q 300 1013 288 1472 
z
" transform="scale(0.015625)"/>
        <path id="ArialMT-75" d="M 2597 0 
L 2597 488 
Q 2209 -75 1544 -75 
Q 1250 -75 995 37 
Q 741 150 617 320 
Q 494 491 444 738 
Q 409 903 409 1263 
L 409 3319 
L 972 3319 
L 972 1478 
Q 972 1038 1006 884 
Q 1059 663 1231 536 
Q 1403 409 1656 409 
Q 1909 409 2131 539 
Q 2353 669 2445 892 
Q 2538 1116 2538 1541 
L 2538 3319 
L 3100 3319 
L 3100 0 
L 2597 0 
z
" transform="scale(0.015625)"/>
        <path id="ArialMT-6e" d="M 422 0 
L 422 3319 
L 928 3319 
L 928 2847 
Q 1294 3394 1984 3394 
Q 2284 3394 2536 3286 
Q 2788 3178 2913 3003 
Q 3038 2828 3088 2588 
Q 3119 2431 3119 2041 
L 3119 0 
L 2556 0 
L 2556 2019 
Q 2556 2363 2490 2533 
Q 2425 2703 2258 2804 
Q 2091 2906 1866 2906 
Q 1506 2906 1245 2678 
Q 984 2450 984 1813 
L 984 0 
L 422 0 
z
" transform="scale(0.015625)"/>
        <path id="ArialMT-20" transform="scale(0.015625)"/>
        <path id="ArialMT-33" d="M 269 1209 
L 831 1284 
Q 928 806 1161 595 
Q 1394 384 1728 384 
Q 2125 384 2398 659 
Q 2672 934 2672 1341 
Q 2672 1728 2419 1979 
Q 2166 2231 1775 2231 
Q 1616 2231 1378 2169 
L 1441 2663 
Q 1497 2656 1531 2656 
Q 1891 2656 2178 2843 
Q 2466 3031 2466 3422 
Q 2466 3731 2256 3934 
Q 2047 4138 1716 4138 
Q 1388 4138 1169 3931 
Q 950 3725 888 3313 
L 325 3413 
Q 428 3978 793 4289 
Q 1159 4600 1703 4600 
Q 2078 4600 2393 4439 
Q 2709 4278 2876 4000 
Q 3044 3722 3044 3409 
Q 3044 3113 2884 2869 
Q 2725 2625 2413 2481 
Q 2819 2388 3044 2092 
Q 3269 1797 3269 1353 
Q 3269 753 2831 336 
Q 2394 -81 1725 -81 
Q 1122 -81 723 278 
Q 325 638 269 1209 
z
" transform="scale(0.015625)"/>
        <path id="ArialMT-50" d="M 494 0 
L 494 4581 
L 2222 4581 
Q 2678 4581 2919 4538 
Q 3256 4481 3484 4323 
Q 3713 4166 3852 3881 
Q 3991 3597 3991 3256 
Q 3991 2672 3619 2267 
Q 3247 1863 2275 1863 
L 1100 1863 
L 1100 0 
L 494 0 
z
M 1100 2403 
L 2284 2403 
Q 2872 2403 3119 2622 
Q 3366 2841 3366 3238 
Q 3366 3525 3220 3729 
Q 3075 3934 2838 4000 
Q 2684 4041 2272 4041 
L 1100 4041 
L 1100 2403 
z
" transform="scale(0.015625)"/>
        <path id="ArialMT-4d" d="M 475 0 
L 475 4581 
L 1388 4581 
L 2472 1338 
Q 2622 884 2691 659 
Q 2769 909 2934 1394 
L 4031 4581 
L 4847 4581 
L 4847 0 
L 4263 0 
L 4263 3834 
L 2931 0 
L 2384 0 
L 1059 3900 
L 1059 0 
L 475 0 
z
" transform="scale(0.015625)"/>
       </defs>
       <use xlink:href="#ArialMT-53"/>
       <use xlink:href="#ArialMT-75" x="66.699219"/>
       <use xlink:href="#ArialMT-6e" x="122.314453"/>
       <use xlink:href="#ArialMT-20" x="177.929688"/>
       <use xlink:href="#ArialMT-33" x="205.712891"/>
       <use xlink:href="#ArialMT-20" x="261.328125"/>
       <use xlink:href="#ArialMT-50" x="289.111328"/>
       <use xlink:href="#ArialMT-4d" x="355.810547"/>
      </g>
     </g>
    </g>
    <g id="xtick_2">
     <g id="line2d_2">
      <path d="M 193.942201 450.72 
L 193.942201 7.2 
" clip-path="url(#pa2c2475549)" style="fill: none; stroke: #ffffff; stroke-linecap: round"/>
     </g>
     <g id="text_2">
      <!-- Sun 6 PM -->
      <g style="fill: #262626" transform="translate(169.792044 468.093594)scale(0.11 -0.11)">
       <defs>
        <path id="ArialMT-36" d="M 3184 3459 
L 2625 3416 
Q 2550 3747 2413 3897 
Q 2184 4138 1850 4138 
Q 1581 4138 1378 3988 
Q 1113 3794 959 3422 
Q 806 3050 800 2363 
Q 1003 2672 1297 2822 
Q 1591 2972 1913 2972 
Q 2475 2972 2870 2558 
Q 3266 2144 3266 1488 
Q 3266 1056 3080 686 
Q 2894 316 2569 119 
Q 2244 -78 1831 -78 
Q 1128 -78 684 439 
Q 241 956 241 2144 
Q 241 3472 731 4075 
Q 1159 4600 1884 4600 
Q 2425 4600 2770 4297 
Q 3116 3994 3184 3459 
z
M 888 1484 
Q 888 1194 1011 928 
Q 1134 663 1356 523 
Q 1578 384 1822 384 
Q 2178 384 2434 671 
Q 2691 959 2691 1453 
Q 2691 1928 2437 2201 
Q 2184 2475 1800 2475 
Q 1419 2475 1153 2201 
Q 888 1928 888 1484 
z
" transform="scale(0.015625)"/>
       </defs>
       <use xlink:href="#ArialMT-53"/>
       <use xlink:href="#ArialMT-75" x="66.699219"/>
       <use xlink:href="#ArialMT-6e" x="122.314453"/>
       <use xlink:href="#ArialMT-20" x="177.929688"/>
       <use xlink:href="#ArialMT-36" x="205.712891"/>
       <use xlink:href="#ArialMT-20" x="261.328125"/>
       <use xlink:href="#ArialMT-50" x="289.111328"/>
       <use xlink:href="#ArialMT-4d" x="355.810547"/>
      </g>
     </g>
    </g>
    <g id="xtick_3">
     <g id="line2d_3">
      <path d="M 295.467249 450.72 
L 295.467249 7.2 
" clip-path="url(#pa2c2475549)" style="fill: none; stroke: #ffffff; stroke-linecap: round"/>
     </g>
     <g id="text_3">
      <!-- Sun 9 PM -->
      <g style="fill: #262626" transform="translate(271.317093 468.093594)scale(0.11 -0.11)">
       <defs>
        <path id="ArialMT-39" d="M 350 1059 
L 891 1109 
Q 959 728 1153 556 
Q 1347 384 1650 384 
Q 1909 384 2104 503 
Q 2300 622 2425 820 
Q 2550 1019 2634 1356 
Q 2719 1694 2719 2044 
Q 2719 2081 2716 2156 
Q 2547 1888 2255 1720 
Q 1963 1553 1622 1553 
Q 1053 1553 659 1965 
Q 266 2378 266 3053 
Q 266 3750 677 4175 
Q 1088 4600 1706 4600 
Q 2153 4600 2523 4359 
Q 2894 4119 3086 3673 
Q 3278 3228 3278 2384 
Q 3278 1506 3087 986 
Q 2897 466 2520 194 
Q 2144 -78 1638 -78 
Q 1100 -78 759 220 
Q 419 519 350 1059 
z
M 2653 3081 
Q 2653 3566 2395 3850 
Q 2138 4134 1775 4134 
Q 1400 4134 1122 3828 
Q 844 3522 844 3034 
Q 844 2597 1108 2323 
Q 1372 2050 1759 2050 
Q 2150 2050 2401 2323 
Q 2653 2597 2653 3081 
z
" transform="scale(0.015625)"/>
       </defs>
       <use xlink:href="#ArialMT-53"/>
       <use xlink:href="#ArialMT-75" x="66.699219"/>
       <use xlink:href="#ArialMT-6e" x="122.314453"/>
       <use xlink:href="#ArialMT-20" x="177.929688"/>
       <use xlink:href="#ArialMT-39" x="205.712891"/>
       <use xlink:href="#ArialMT-20" x="261.328125"/>
       <use xlink:href="#ArialMT-50" x="289.111328"/>
       <use xlink:href="#ArialMT-4d" x="355.810547"/>
      </g>
     </g>
    </g>
    <g id="xtick_4">
     <g id="line2d_4">
      <path d="M 396.992298 450.72 
L 396.992298 7.2 
" clip-path="url(#pa2c2475549)" style="fill: none; stroke: #ffffff; stroke-linecap: round"/>
     </g>
     <g id="text_4">
      <!-- Mon 12 AM -->
      <g style="fill: #262626" transform="translate(369.17347 468.093594)scale(0.11 -0.11)">
       <defs>
        <path id="ArialMT-6f" d="M 213 1659 
Q 213 2581 725 3025 
Q 1153 3394 1769 3394 
Q 2453 3394 2887 2945 
Q 3322 2497 3322 1706 
Q 3322 1066 3130 698 
Q 2938 331 2570 128 
Q 2203 -75 1769 -75 
Q 1072 -75 642 372 
Q 213 819 213 1659 
z
M 791 1659 
Q 791 1022 1069 705 
Q 1347 388 1769 388 
Q 2188 388 2466 706 
Q 2744 1025 2744 1678 
Q 2744 2294 2464 2611 
Q 2184 2928 1769 2928 
Q 1347 2928 1069 2612 
Q 791 2297 791 1659 
z
" transform="scale(0.015625)"/>
        <path id="ArialMT-31" d="M 2384 0 
L 1822 0 
L 1822 3584 
Q 1619 3391 1289 3197 
Q 959 3003 697 2906 
L 697 3450 
Q 1169 3672 1522 3987 
Q 1875 4303 2022 4600 
L 2384 4600 
L 2384 0 
z
" transform="scale(0.015625)"/>
        <path id="ArialMT-32" d="M 3222 541 
L 3222 0 
L 194 0 
Q 188 203 259 391 
Q 375 700 629 1000 
Q 884 1300 1366 1694 
Q 2113 2306 2375 2664 
Q 2638 3022 2638 3341 
Q 2638 3675 2398 3904 
Q 2159 4134 1775 4134 
Q 1369 4134 1125 3890 
Q 881 3647 878 3216 
L 300 3275 
Q 359 3922 746 4261 
Q 1134 4600 1788 4600 
Q 2447 4600 2831 4234 
Q 3216 3869 3216 3328 
Q 3216 3053 3103 2787 
Q 2991 2522 2730 2228 
Q 2469 1934 1863 1422 
Q 1356 997 1212 845 
Q 1069 694 975 541 
L 3222 541 
z
" transform="scale(0.015625)"/>
        <path id="ArialMT-41" d="M -9 0 
L 1750 4581 
L 2403 4581 
L 4278 0 
L 3588 0 
L 3053 1388 
L 1138 1388 
L 634 0 
L -9 0 
z
M 1313 1881 
L 2866 1881 
L 2388 3150 
Q 2169 3728 2063 4100 
Q 1975 3659 1816 3225 
L 1313 1881 
z
" transform="scale(0.015625)"/>
       </defs>
       <use xlink:href="#ArialMT-4d"/>
       <use xlink:href="#ArialMT-6f" x="83.300781"/>
       <use xlink:href="#ArialMT-6e" x="138.916016"/>
       <use xlink:href="#ArialMT-20" x="194.53125"/>
       <use xlink:href="#ArialMT-31" x="222.314453"/>
       <use xlink:href="#ArialMT-32" x="277.929688"/>
       <use xlink:href="#ArialMT-20" x="333.544922"/>
       <use xlink:href="#ArialMT-41" x="355.828125"/>
       <use xlink:href="#ArialMT-4d" x="422.527344"/>
      </g>
     </g>
    </g>
    <g id="xtick_5">
     <g id="line2d_5">
      <path d="M 498.517347 450.72 
L 498.517347 7.2 
" clip-path="url(#pa2c2475549)" style="fill: none; stroke: #ffffff; stroke-linecap: round"/>
     </g>
     <g id="text_5">
      <!-- Mon 3 AM -->
      <g style="fill: #262626" transform="translate(473.757035 468.093594)scale(0.11 -0.11)">
       <use xlink:href="#ArialMT-4d"/>
       <use xlink:href="#ArialMT-6f" x="83.300781"/>
       <use xlink:href="#ArialMT-6e" x="138.916016"/>
       <use xlink:href="#ArialMT-20" x="194.53125"/>
       <use xlink:href="#ArialMT-33" x="222.314453"/>
       <use xlink:href="#ArialMT-20" x="277.929688"/>
       <use xlink:href="#ArialMT-41" x="300.212891"/>
       <use xlink:href="#ArialMT-4d" x="366.912109"/>
      </g>
     </g>
    </g>
    <g id="xtick_6">
     <g id="line2d_6">
      <path d="M 600.042396 450.72 
L 600.042396 7.2 
" clip-path="url(#pa2c2475549)" style="fill: none; stroke: #ffffff; stroke-linecap: round"/>
     </g>
     <g id="text_6">
      <!-- Mon 6 AM -->
      <g style="fill: #262626" transform="translate(575.282084 468.093594)scale(0.11 -0.11)">
       <use xlink:href="#ArialMT-4d"/>
       <use xlink:href="#ArialMT-6f" x="83.300781"/>
       <use xlink:href="#ArialMT-6e" x="138.916016"/>
       <use xlink:href="#ArialMT-20" x="194.53125"/>
       <use xlink:href="#ArialMT-36" x="222.314453"/>
       <use xlink:href="#ArialMT-20" x="277.929688"/>
       <use xlink:href="#ArialMT-41" x="300.212891"/>
       <use xlink:href="#ArialMT-4d" x="366.912109"/>
      </g>
     </g>
    </g>
    <g id="xtick_7">
     <g id="line2d_7">
      <path d="M 701.567445 450.72 
L 701.567445 7.2 
" clip-path="url(#pa2c2475549)" style="fill: none; stroke: #ffffff; stroke-linecap: round"/>
     </g>
     <g id="text_7">
      <!-- Mon 9 AM -->
      <g style="fill: #262626" transform="translate(676.807133 468.093594)scale(0.11 -0.11)">
       <use xlink:href="#ArialMT-4d"/>
       <use xlink:href="#ArialMT-6f" x="83.300781"/>
       <use xlink:href="#ArialMT-6e" x="138.916016"/>
       <use xlink:href="#ArialMT-20" x="194.53125"/>
       <use xlink:href="#ArialMT-39" x="222.314453"/>
       <use xlink:href="#ArialMT-20" x="277.929688"/>
       <use xlink:href="#ArialMT-41" x="300.212891"/>
       <use xlink:href="#ArialMT-4d" x="366.912109"/>
      </g>
     </g>
    </g>
    <g id="xtick_8">
     <g id="line2d_8">
      <path d="M 803.092494 450.72 
L 803.092494 7.2 
" clip-path="url(#pa2c2475549)" style="fill: none; stroke: #ffffff; stroke-linecap: round"/>
     </g>
     <g id="text_8">
      <!-- Mon 12 PM -->
      <g style="fill: #262626" transform="translate(774.971166 468.093594)scale(0.11 -0.11)">
       <use xlink:href="#ArialMT-4d"/>
       <use xlink:href="#ArialMT-6f" x="83.300781"/>
       <use xlink:href="#ArialMT-6e" x="138.916016"/>
       <use xlink:href="#ArialMT-20" x="194.53125"/>
       <use xlink:href="#ArialMT-31" x="222.314453"/>
       <use xlink:href="#ArialMT-32" x="277.929688"/>
       <use xlink:href="#ArialMT-20" x="333.544922"/>
       <use xlink:href="#ArialMT-50" x="361.328125"/>
       <use xlink:href="#ArialMT-4d" x="428.027344"/>
      </g>
     </g>
    </g>
    <g id="xtick_9">
     <g id="line2d_9">
      <path d="M 904.617543 450.72 
L 904.617543 7.2 
" clip-path="url(#pa2c2475549)" style="fill: none; stroke: #ffffff; stroke-linecap: round"/>
     </g>
     <g id="text_9">
      <!-- Mon 3 PM -->
      <g style="fill: #262626" transform="translate(879.554731 468.093594)scale(0.11 -0.11)">
       <use xlink:href="#ArialMT-4d"/>
       <use xlink:href="#ArialMT-6f" x="83.300781"/>
       <use xlink:href="#ArialMT-6e" x="138.916016"/>
       <use xlink:href="#ArialMT-20" x="194.53125"/>
       <use xlink:href="#ArialMT-33" x="222.314453"/>
       <use xlink:href="#ArialMT-20" x="277.929688"/>
       <use xlink:href="#ArialMT-50" x="305.712891"/>
       <use xlink:href="#ArialMT-4d" x="372.412109"/>
      </g>
     </g>
    </g>
    <g id="text_10">
     <!-- time -->
     <g style="fill: #262626" transform="translate(479.568594 482.869219)scale(0.12 -0.12)">
      <defs>
       <path id="ArialMT-74" d="M 1650 503 
L 1731 6 
Q 1494 -44 1306 -44 
Q 1000 -44 831 53 
Q 663 150 594 308 
Q 525 466 525 972 
L 525 2881 
L 113 2881 
L 113 3319 
L 525 3319 
L 525 4141 
L 1084 4478 
L 1084 3319 
L 1650 3319 
L 1650 2881 
L 1084 2881 
L 1084 941 
Q 1084 700 1114 631 
Q 1144 563 1211 522 
Q 1278 481 1403 481 
Q 1497 481 1650 503 
z
" transform="scale(0.015625)"/>
       <path id="ArialMT-69" d="M 425 3934 
L 425 4581 
L 988 4581 
L 988 3934 
L 425 3934 
z
M 425 0 
L 425 3319 
L 988 3319 
L 988 0 
L 425 0 
z
" transform="scale(0.015625)"/>
       <path id="ArialMT-6d" d="M 422 0 
L 422 3319 
L 925 3319 
L 925 2853 
Q 1081 3097 1340 3245 
Q 1600 3394 1931 3394 
Q 2300 3394 2536 3241 
Q 2772 3088 2869 2813 
Q 3263 3394 3894 3394 
Q 4388 3394 4653 3120 
Q 4919 2847 4919 2278 
L 4919 0 
L 4359 0 
L 4359 2091 
Q 4359 2428 4304 2576 
Q 4250 2725 4106 2815 
Q 3963 2906 3769 2906 
Q 3419 2906 3187 2673 
Q 2956 2441 2956 1928 
L 2956 0 
L 2394 0 
L 2394 2156 
Q 2394 2531 2256 2718 
Q 2119 2906 1806 2906 
Q 1569 2906 1367 2781 
Q 1166 2656 1075 2415 
Q 984 2175 984 1722 
L 984 0 
L 422 0 
z
" transform="scale(0.015625)"/>
       <path id="ArialMT-65" d="M 2694 1069 
L 3275 997 
Q 3138 488 2766 206 
Q 2394 -75 1816 -75 
Q 1088 -75 661 373 
Q 234 822 234 1631 
Q 234 2469 665 2931 
Q 1097 3394 1784 3394 
Q 2450 3394 2872 2941 
Q 3294 2488 3294 1666 
Q 3294 1616 3291 1516 
L 816 1516 
Q 847 969 1125 678 
Q 1403 388 1819 388 
Q 2128 388 2347 550 
Q 2566 713 2694 1069 
z
M 847 1978 
L 2700 1978 
Q 2663 2397 2488 2606 
Q 2219 2931 1791 2931 
Q 1403 2931 1139 2672 
Q 875 2413 847 1978 
z
" transform="scale(0.015625)"/>
      </defs>
      <use xlink:href="#ArialMT-74"/>
      <use xlink:href="#ArialMT-69" x="27.783203"/>
      <use xlink:href="#ArialMT-6d" x="50"/>
      <use xlink:href="#ArialMT-65" x="133.300781"/>
     </g>
    </g>
   </g>
   <g id="matplotlib.axis_2">
    <g id="ytick_1">
     <g id="line2d_10">
      <path d="M 44.502969 427.99058 
L 937.302969 427.99058 
" clip-path="url(#pa2c2475549)" style="fill: none; stroke: #ffffff; stroke-linecap: round"/>
     </g>
     <g id="line2d_11">
      <defs>
       <path id="mec727082d3" d="M 0 0 
L -6 0 
" style="stroke: #262626; stroke-width: 1.25"/>
      </defs>
      <g>
       <use xlink:href="#mec727082d3" x="44.502969" y="427.99058" style="fill: #262626; stroke: #262626; stroke-width: 1.25"/>
      </g>
     </g>
     <g id="text_11">
      <!-- −1 -->
      <g style="fill: #262626" transform="translate(22.46125 431.927377)scale(0.11 -0.11)">
       <defs>
        <path id="ArialMT-2212" d="M 3381 1997 
L 356 1997 
L 356 2522 
L 3381 2522 
L 3381 1997 
z
" transform="scale(0.015625)"/>
       </defs>
       <use xlink:href="#ArialMT-2212"/>
       <use xlink:href="#ArialMT-31" x="58.398438"/>
      </g>
     </g>
    </g>
    <g id="ytick_2">
     <g id="line2d_12">
      <path d="M 44.502969 371.685064 
L 937.302969 371.685064 
" clip-path="url(#pa2c2475549)" style="fill: none; stroke: #ffffff; stroke-linecap: round"/>
     </g>
     <g id="line2d_13">
      <g>
       <use xlink:href="#mec727082d3" x="44.502969" y="371.685064" style="fill: #262626; stroke: #262626; stroke-width: 1.25"/>
      </g>
     </g>
     <g id="text_12">
      <!-- 0 -->
      <g style="fill: #262626" transform="translate(28.885938 375.621861)scale(0.11 -0.11)">
       <defs>
        <path id="ArialMT-30" d="M 266 2259 
Q 266 3072 433 3567 
Q 600 4063 929 4331 
Q 1259 4600 1759 4600 
Q 2128 4600 2406 4451 
Q 2684 4303 2865 4023 
Q 3047 3744 3150 3342 
Q 3253 2941 3253 2259 
Q 3253 1453 3087 958 
Q 2922 463 2592 192 
Q 2263 -78 1759 -78 
Q 1097 -78 719 397 
Q 266 969 266 2259 
z
M 844 2259 
Q 844 1131 1108 757 
Q 1372 384 1759 384 
Q 2147 384 2411 759 
Q 2675 1134 2675 2259 
Q 2675 3391 2411 3762 
Q 2147 4134 1753 4134 
Q 1366 4134 1134 3806 
Q 844 3388 844 2259 
z
" transform="scale(0.015625)"/>
       </defs>
       <use xlink:href="#ArialMT-30"/>
      </g>
     </g>
    </g>
    <g id="ytick_3">
     <g id="line2d_14">
      <path d="M 44.502969 315.379548 
L 937.302969 315.379548 
" clip-path="url(#pa2c2475549)" style="fill: none; stroke: #ffffff; stroke-linecap: round"/>
     </g>
     <g id="line2d_15">
      <g>
       <use xlink:href="#mec727082d3" x="44.502969" y="315.379548" style="fill: #262626; stroke: #262626; stroke-width: 1.25"/>
      </g>
     </g>
     <g id="text_13">
      <!-- 1 -->
      <g style="fill: #262626" transform="translate(28.885938 319.316344)scale(0.11 -0.11)">
       <use xlink:href="#ArialMT-31"/>
      </g>
     </g>
    </g>
    <g id="ytick_4">
     <g id="line2d_16">
      <path d="M 44.502969 259.074031 
L 937.302969 259.074031 
" clip-path="url(#pa2c2475549)" style="fill: none; stroke: #ffffff; stroke-linecap: round"/>
     </g>
     <g id="line2d_17">
      <g>
       <use xlink:href="#mec727082d3" x="44.502969" y="259.074031" style="fill: #262626; stroke: #262626; stroke-width: 1.25"/>
      </g>
     </g>
     <g id="text_14">
      <!-- 2 -->
      <g style="fill: #262626" transform="translate(28.885938 263.010828)scale(0.11 -0.11)">
       <use xlink:href="#ArialMT-32"/>
      </g>
     </g>
    </g>
    <g id="ytick_5">
     <g id="line2d_18">
      <path d="M 44.502969 202.768515 
L 937.302969 202.768515 
" clip-path="url(#pa2c2475549)" style="fill: none; stroke: #ffffff; stroke-linecap: round"/>
     </g>
     <g id="line2d_19">
      <g>
       <use xlink:href="#mec727082d3" x="44.502969" y="202.768515" style="fill: #262626; stroke: #262626; stroke-width: 1.25"/>
      </g>
     </g>
     <g id="text_15">
      <!-- 3 -->
      <g style="fill: #262626" transform="translate(28.885938 206.705312)scale(0.11 -0.11)">
       <use xlink:href="#ArialMT-33"/>
      </g>
     </g>
    </g>
    <g id="ytick_6">
     <g id="line2d_20">
      <path d="M 44.502969 146.462999 
L 937.302969 146.462999 
" clip-path="url(#pa2c2475549)" style="fill: none; stroke: #ffffff; stroke-linecap: round"/>
     </g>
     <g id="line2d_21">
      <g>
       <use xlink:href="#mec727082d3" x="44.502969" y="146.462999" style="fill: #262626; stroke: #262626; stroke-width: 1.25"/>
      </g>
     </g>
     <g id="text_16">
      <!-- 4 -->
      <g style="fill: #262626" transform="translate(28.885938 150.399796)scale(0.11 -0.11)">
       <defs>
        <path id="ArialMT-34" d="M 2069 0 
L 2069 1097 
L 81 1097 
L 81 1613 
L 2172 4581 
L 2631 4581 
L 2631 1613 
L 3250 1613 
L 3250 1097 
L 2631 1097 
L 2631 0 
L 2069 0 
z
M 2069 1613 
L 2069 3678 
L 634 1613 
L 2069 1613 
z
" transform="scale(0.015625)"/>
       </defs>
       <use xlink:href="#ArialMT-34"/>
      </g>
     </g>
    </g>
    <g id="ytick_7">
     <g id="line2d_22">
      <path d="M 44.502969 90.157483 
L 937.302969 90.157483 
" clip-path="url(#pa2c2475549)" style="fill: none; stroke: #ffffff; stroke-linecap: round"/>
     </g>
     <g id="line2d_23">
      <g>
       <use xlink:href="#mec727082d3" x="44.502969" y="90.157483" style="fill: #262626; stroke: #262626; stroke-width: 1.25"/>
      </g>
     </g>
     <g id="text_17">
      <!-- 5 -->
      <g style="fill: #262626" transform="translate(28.885938 94.09428)scale(0.11 -0.11)">
       <defs>
        <path id="ArialMT-35" d="M 266 1200 
L 856 1250 
Q 922 819 1161 601 
Q 1400 384 1738 384 
Q 2144 384 2425 690 
Q 2706 997 2706 1503 
Q 2706 1984 2436 2262 
Q 2166 2541 1728 2541 
Q 1456 2541 1237 2417 
Q 1019 2294 894 2097 
L 366 2166 
L 809 4519 
L 3088 4519 
L 3088 3981 
L 1259 3981 
L 1013 2750 
Q 1425 3038 1878 3038 
Q 2478 3038 2890 2622 
Q 3303 2206 3303 1553 
Q 3303 931 2941 478 
Q 2500 -78 1738 -78 
Q 1113 -78 717 272 
Q 322 622 266 1200 
z
" transform="scale(0.015625)"/>
       </defs>
       <use xlink:href="#ArialMT-35"/>
      </g>
     </g>
    </g>
    <g id="ytick_8">
     <g id="line2d_24">
      <path d="M 44.502969 33.851967 
L 937.302969 33.851967 
" clip-path="url(#pa2c2475549)" style="fill: none; stroke: #ffffff; stroke-linecap: round"/>
     </g>
     <g id="line2d_25">
      <g>
       <use xlink:href="#mec727082d3" x="44.502969" y="33.851967" style="fill: #262626; stroke: #262626; stroke-width: 1.25"/>
      </g>
     </g>
     <g id="text_18">
      <!-- 6 -->
      <g style="fill: #262626" transform="translate(28.885938 37.788764)scale(0.11 -0.11)">
       <use xlink:href="#ArialMT-36"/>
      </g>
     </g>
    </g>
    <g id="text_19">
     <!-- Tide Height (ft) -->
     <g style="fill: #4c72b0" transform="translate(15.935625 268.411875)rotate(-90)scale(0.12 -0.12)">
      <defs>
       <path id="ArialMT-54" d="M 1659 0 
L 1659 4041 
L 150 4041 
L 150 4581 
L 3781 4581 
L 3781 4041 
L 2266 4041 
L 2266 0 
L 1659 0 
z
" transform="scale(0.015625)"/>
       <path id="ArialMT-64" d="M 2575 0 
L 2575 419 
Q 2259 -75 1647 -75 
Q 1250 -75 917 144 
Q 584 363 401 755 
Q 219 1147 219 1656 
Q 219 2153 384 2558 
Q 550 2963 881 3178 
Q 1213 3394 1622 3394 
Q 1922 3394 2156 3267 
Q 2391 3141 2538 2938 
L 2538 4581 
L 3097 4581 
L 3097 0 
L 2575 0 
z
M 797 1656 
Q 797 1019 1065 703 
Q 1334 388 1700 388 
Q 2069 388 2326 689 
Q 2584 991 2584 1609 
Q 2584 2291 2321 2609 
Q 2059 2928 1675 2928 
Q 1300 2928 1048 2622 
Q 797 2316 797 1656 
z
" transform="scale(0.015625)"/>
       <path id="ArialMT-48" d="M 513 0 
L 513 4581 
L 1119 4581 
L 1119 2700 
L 3500 2700 
L 3500 4581 
L 4106 4581 
L 4106 0 
L 3500 0 
L 3500 2159 
L 1119 2159 
L 1119 0 
L 513 0 
z
" transform="scale(0.015625)"/>
       <path id="ArialMT-67" d="M 319 -275 
L 866 -356 
Q 900 -609 1056 -725 
Q 1266 -881 1628 -881 
Q 2019 -881 2231 -725 
Q 2444 -569 2519 -288 
Q 2563 -116 2559 434 
Q 2191 0 1641 0 
Q 956 0 581 494 
Q 206 988 206 1678 
Q 206 2153 378 2554 
Q 550 2956 876 3175 
Q 1203 3394 1644 3394 
Q 2231 3394 2613 2919 
L 2613 3319 
L 3131 3319 
L 3131 450 
Q 3131 -325 2973 -648 
Q 2816 -972 2473 -1159 
Q 2131 -1347 1631 -1347 
Q 1038 -1347 672 -1080 
Q 306 -813 319 -275 
z
M 784 1719 
Q 784 1066 1043 766 
Q 1303 466 1694 466 
Q 2081 466 2343 764 
Q 2606 1063 2606 1700 
Q 2606 2309 2336 2618 
Q 2066 2928 1684 2928 
Q 1309 2928 1046 2623 
Q 784 2319 784 1719 
z
" transform="scale(0.015625)"/>
       <path id="ArialMT-68" d="M 422 0 
L 422 4581 
L 984 4581 
L 984 2938 
Q 1378 3394 1978 3394 
Q 2347 3394 2619 3248 
Q 2891 3103 3008 2847 
Q 3125 2591 3125 2103 
L 3125 0 
L 2563 0 
L 2563 2103 
Q 2563 2525 2380 2717 
Q 2197 2909 1863 2909 
Q 1613 2909 1392 2779 
Q 1172 2650 1078 2428 
Q 984 2206 984 1816 
L 984 0 
L 422 0 
z
" transform="scale(0.015625)"/>
       <path id="ArialMT-28" d="M 1497 -1347 
Q 1031 -759 709 28 
Q 388 816 388 1659 
Q 388 2403 628 3084 
Q 909 3875 1497 4659 
L 1900 4659 
Q 1522 4009 1400 3731 
Q 1209 3300 1100 2831 
Q 966 2247 966 1656 
Q 966 153 1900 -1347 
L 1497 -1347 
z
" transform="scale(0.015625)"/>
       <path id="ArialMT-66" d="M 556 0 
L 556 2881 
L 59 2881 
L 59 3319 
L 556 3319 
L 556 3672 
Q 556 4006 616 4169 
Q 697 4388 901 4523 
Q 1106 4659 1475 4659 
Q 1713 4659 2000 4603 
L 1916 4113 
Q 1741 4144 1584 4144 
Q 1328 4144 1222 4034 
Q 1116 3925 1116 3625 
L 1116 3319 
L 1763 3319 
L 1763 2881 
L 1116 2881 
L 1116 0 
L 556 0 
z
" transform="scale(0.015625)"/>
       <path id="ArialMT-29" d="M 791 -1347 
L 388 -1347 
Q 1322 153 1322 1656 
Q 1322 2244 1188 2822 
Q 1081 3291 891 3722 
Q 769 4003 388 4659 
L 791 4659 
Q 1378 3875 1659 3084 
Q 1900 2403 1900 1659 
Q 1900 816 1576 28 
Q 1253 -759 791 -1347 
z
" transform="scale(0.015625)"/>
      </defs>
      <use xlink:href="#ArialMT-54"/>
      <use xlink:href="#ArialMT-69" x="57.333984"/>
      <use xlink:href="#ArialMT-64" x="79.550781"/>
      <use xlink:href="#ArialMT-65" x="135.166016"/>
      <use xlink:href="#ArialMT-20" x="190.78125"/>
      <use xlink:href="#ArialMT-48" x="218.564453"/>
      <use xlink:href="#ArialMT-65" x="290.78125"/>
      <use xlink:href="#ArialMT-69" x="346.396484"/>
      <use xlink:href="#ArialMT-67" x="368.613281"/>
      <use xlink:href="#ArialMT-68" x="424.228516"/>
      <use xlink:href="#ArialMT-74" x="479.84375"/>
      <use xlink:href="#ArialMT-20" x="507.626953"/>
      <use xlink:href="#ArialMT-28" x="535.410156"/>
      <use xlink:href="#ArialMT-66" x="568.710938"/>
      <use xlink:href="#ArialMT-74" x="596.494141"/>
      <use xlink:href="#ArialMT-29" x="624.277344"/>
     </g>
    </g>
   </g>
   <g id="PathCollection_1">
    <path d="M 241.884585 106.50189 
C 242.680194 106.50189 243.443324 106.185791 244.005905 105.623211 
C 244.568486 105.06063 244.884585 104.2975 244.884585 103.50189 
C 244.884585 102.706281 244.568486 101.943151 244.005905 101.38057 
C 243.443324 100.817989 242.680194 100.50189 241.884585 100.50189 
C 241.088975 100.50189 240.325845 100.817989 239.763264 101.38057 
C 239.200684 101.943151 238.884585 102.706281 238.884585 103.50189 
C 238.884585 104.2975 239.200684 105.06063 239.763264 105.623211 
C 240.325845 106.185791 241.088975 106.50189 241.884585 106.50189 
z
" clip-path="url(#pa2c2475549)" style="fill: #4c72b0; stroke: #ffffff; stroke-width: 0.48"/>
    <path d="M 444.370655 418.321839 
C 445.166264 418.321839 445.929394 418.00574 446.491975 417.443159 
C 447.054556 416.880578 447.370655 416.117448 447.370655 415.321839 
C 447.370655 414.526229 447.054556 413.763099 446.491975 413.200518 
C 445.929394 412.637938 445.166264 412.321839 444.370655 412.321839 
C 443.575045 412.321839 442.811915 412.637938 442.249334 413.200518 
C 441.686754 413.763099 441.370655 414.526229 441.370655 415.321839 
C 441.370655 416.117448 441.686754 416.880578 442.249334 417.443159 
C 442.811915 418.00574 443.575045 418.321839 444.370655 418.321839 
z
" clip-path="url(#pa2c2475549)" style="fill: #4c72b0; stroke: #ffffff; stroke-width: 0.48"/>
    <path d="M 660.957426 30.376832 
C 661.753035 30.376832 662.516165 30.060734 663.078746 29.498153 
C 663.641327 28.935572 663.957426 28.172442 663.957426 27.376832 
C 663.957426 26.581223 663.641327 25.818093 663.078746 25.255512 
C 662.516165 24.692931 661.753035 24.376832 660.957426 24.376832 
C 660.161816 24.376832 659.398686 24.692931 658.836105 25.255512 
C 658.273525 25.818093 657.957426 26.581223 657.957426 27.376832 
C 657.957426 28.172442 658.273525 28.935572 658.836105 29.498153 
C 659.398686 30.060734 660.161816 30.376832 660.957426 30.376832 
z
" clip-path="url(#pa2c2475549)" style="fill: #4c72b0; stroke: #ffffff; stroke-width: 0.48"/>
    <path d="M 878.672253 433.411717 
C 879.467862 433.411717 880.230993 433.095618 880.793573 432.533037 
C 881.356154 431.970457 881.672253 431.207326 881.672253 430.411717 
C 881.672253 429.616108 881.356154 428.852977 880.793573 428.290397 
C 880.230993 427.727816 879.467862 427.411717 878.672253 427.411717 
C 877.876644 427.411717 877.113513 427.727816 876.550933 428.290397 
C 875.988352 428.852977 875.672253 429.616108 875.672253 430.411717 
C 875.672253 431.207326 875.988352 431.970457 876.550933 432.533037 
C 877.113513 433.095618 877.876644 433.411717 878.672253 433.411717 
z
" clip-path="url(#pa2c2475549)" style="fill: #4c72b0; stroke: #ffffff; stroke-width: 0.48"/>
   </g>
   <g id="line2d_26">
    <path d="M 85.084787 392.983209 
L 88.468955 387.882595 
L 91.853124 382.415272 
L 95.80132 375.573247 
L 99.749516 368.23209 
L 103.697713 360.3918 
L 107.645909 352.052378 
L 111.594105 343.213822 
L 115.542302 333.876133 
L 120.054526 322.593306 
L 124.56675 310.658551 
L 129.078975 298.071866 
L 133.591199 284.833254 
L 138.103424 270.942712 
L 144.87176 249.88675 
L 149.383985 236.61135 
L 153.896209 223.966857 
L 158.408433 211.953273 
L 162.920658 200.570595 
L 167.432882 189.818825 
L 171.945107 179.697963 
L 175.893303 171.35975 
L 179.841499 163.504575 
L 183.789696 156.132439 
L 187.737892 149.243341 
L 191.686088 142.837282 
L 195.070257 137.730833 
L 198.454425 132.97927 
L 201.838593 128.582593 
L 205.222762 124.5408 
L 208.60693 120.853894 
L 211.991098 117.521872 
L 215.375266 114.544736 
L 218.195407 112.334883 
L 221.015547 110.371478 
L 223.835687 108.654521 
L 226.655827 107.184012 
L 229.475968 105.959952 
L 232.296108 104.982339 
L 235.116248 104.251175 
L 237.936388 103.766459 
L 240.756529 103.528192 
L 243.576669 103.536372 
L 246.396809 103.791001 
L 249.216949 104.292078 
L 252.03709 105.039604 
L 254.85723 106.033577 
L 257.67737 107.273999 
L 260.49751 108.760869 
L 263.317651 110.494188 
L 266.137791 112.473954 
L 268.957931 114.700169 
L 271.778071 117.172832 
L 275.16224 120.465339 
L 278.546408 124.112732 
L 281.930576 128.11501 
L 285.314745 132.472174 
L 288.698913 137.184223 
L 292.083081 142.251158 
L 295.467249 147.672978 
L 299.415446 154.44697 
L 303.363642 161.704001 
L 307.311839 169.444071 
L 311.260035 177.667179 
L 315.208231 186.373325 
L 319.720456 196.914683 
L 324.23268 208.086948 
L 328.744904 219.890121 
L 333.257129 232.324201 
L 337.769353 245.389189 
L 342.281578 259.085084 
L 348.485886 278.044466 
L 352.998111 291.078463 
L 357.510335 303.463186 
L 362.022559 315.198638 
L 366.534784 326.284817 
L 371.047008 336.721723 
L 374.995205 345.321409 
L 378.943401 353.423996 
L 382.891597 361.029484 
L 386.839794 368.137873 
L 390.78799 374.749162 
L 394.172158 380.020331 
L 397.556327 384.926284 
L 400.940495 389.467021 
L 404.324663 393.642543 
L 407.708831 397.452848 
L 411.093 400.897938 
L 414.477168 403.977812 
L 417.297308 406.265389 
L 420.117449 408.299344 
L 422.937589 410.079677 
L 425.757729 411.606388 
L 428.577869 412.879477 
L 431.398009 413.898944 
L 434.21815 414.664789 
L 437.03829 415.177011 
L 439.85843 415.435612 
L 442.67857 415.44059 
L 445.498711 415.191947 
L 448.318851 414.689681 
L 451.138991 413.933793 
L 453.959131 412.924283 
L 456.779272 411.661151 
L 459.599412 410.144396 
L 462.419552 408.37402 
L 465.239692 406.350022 
L 468.059833 404.072401 
L 470.879973 401.541159 
L 474.264141 398.168886 
L 477.64831 394.431398 
L 481.032478 390.328694 
L 484.416646 385.860774 
L 487.800814 381.027639 
L 491.184983 375.829287 
L 494.569151 370.26572 
L 498.517347 363.313299 
L 502.465544 355.863779 
L 506.41374 347.91716 
L 510.361936 339.473441 
L 514.310133 330.532623 
L 518.258329 321.094706 
L 522.770554 309.699822 
L 527.282778 297.655665 
L 531.795002 284.962236 
L 536.307227 271.619534 
L 540.819451 257.627559 
L 545.895704 241.110504 
L 550.971956 223.771714 
L 558.868349 196.417704 
L 563.944601 179.862926 
L 568.456826 165.863539 
L 572.96905 152.538007 
L 577.481274 139.886329 
L 581.993499 127.908506 
L 586.505723 116.604537 
L 590.45392 107.266336 
L 594.402116 98.444056 
L 598.350312 90.137695 
L 602.298509 82.347254 
L 606.246705 75.072733 
L 610.194901 68.314132 
L 613.57907 62.931676 
L 616.963238 57.928263 
L 620.347406 53.303893 
L 623.731574 49.058567 
L 627.115743 45.192284 
L 630.499911 41.705044 
L 633.320051 39.088558 
L 636.140192 36.735296 
L 638.960332 34.645259 
L 641.780472 32.818446 
L 644.600612 31.254857 
L 647.420753 29.954494 
L 650.240893 28.917354 
L 653.061033 28.14344 
L 655.881173 27.632749 
L 658.701314 27.385283 
L 661.521454 27.401042 
L 664.341594 27.680025 
L 667.161734 28.222233 
L 669.981875 29.027665 
L 672.802015 30.096322 
L 675.622155 31.428203 
L 678.442295 33.023309 
L 681.262436 34.881639 
L 684.082576 37.003193 
L 686.902716 39.387973 
L 689.722856 42.035976 
L 692.542997 44.947204 
L 695.927165 48.788134 
L 699.311333 53.008108 
L 702.695501 57.607124 
L 706.07967 62.585184 
L 709.463838 67.942288 
L 712.848006 73.678434 
L 716.796203 80.849673 
L 720.744399 88.536833 
L 724.692595 96.739912 
L 728.640792 105.458912 
L 732.588988 114.693831 
L 736.537184 124.444671 
L 741.049409 136.220226 
L 745.561633 148.669636 
L 750.073858 161.792901 
L 754.586082 175.590021 
L 759.098306 190.060995 
L 764.174559 207.146308 
L 769.250811 225.084468 
L 774.891092 245.170835 
L 779.967344 262.373924 
L 785.043597 278.739511 
L 789.555821 292.583609 
L 794.068046 305.765977 
L 798.58027 318.286613 
L 803.092494 330.145518 
L 807.604719 341.342692 
L 811.552915 350.597393 
L 815.501111 359.345456 
L 819.449308 367.586882 
L 823.397504 375.321669 
L 827.3457 382.549819 
L 831.293897 389.27133 
L 834.678065 394.629384 
L 838.062233 399.615213 
L 841.446402 404.228819 
L 844.83057 408.470201 
L 848.214738 412.33936 
L 851.598907 415.836294 
L 854.419047 418.466069 
L 857.239187 420.837355 
L 860.059327 422.950152 
L 862.879468 424.804461 
L 865.699608 426.400281 
L 868.519748 427.737612 
L 871.339888 428.816454 
L 874.160029 429.636808 
L 876.980169 430.198673 
L 879.800309 430.502049 
L 882.620449 430.546936 
L 885.44059 430.333335 
L 888.26073 429.861245 
L 891.08087 429.130667 
L 893.90101 428.141599 
L 896.721151 426.894043 
L 896.721151 426.894043 
" clip-path="url(#pa2c2475549)" style="fill: none; stroke: #4c72b0; stroke-width: 1.5; stroke-linecap: round"/>
   </g>
   <g id="line2d_27">
    <path d="M 44.502969 371.685064 
L 937.302969 371.685064 
" clip-path="url(#pa2c2475549)" style="fill: none; stroke-dasharray: 1.5,2.475; stroke-dashoffset: 0; stroke: #4c72b0; stroke-opacity: 0.8; stroke-width: 1.5"/>
   </g>
   <g id="line2d_28">
    <path d="M 186.577921 450.72 
L 186.577921 7.2 
" clip-path="url(#pa2c2475549)" style="fill: none; stroke: #c44e52; stroke-opacity: 0.6; stroke-width: 1.5; stroke-linecap: round"/>
   </g>
   <g id="patch_3">
    <path d="M 44.502969 450.72 
L 44.502969 7.2 
" style="fill: none; stroke: #ffffff; stroke-width: 1.25; stroke-linejoin: miter; stroke-linecap: square"/>
   </g>
   <g id="patch_4">
    <path d="M 937.302969 450.72 
L 937.302969 7.2 
" style="fill: none; stroke: #ffffff; stroke-width: 1.25; stroke-linejoin: miter; stroke-linecap: square"/>
   </g>
   <g id="patch_5">
    <path d="M 44.502969 450.72 
L 937.302969 450.72 
" style="fill: none; stroke: #ffffff; stroke-width: 1.25; stroke-linejoin: miter; stroke-linecap: square"/>
   </g>
   <g id="patch_6">
    <path d="M 44.502969 7.2 
L 937.302969 7.2 
" style="fill: none; stroke: #ffffff; stroke-width: 1.25; stroke-linejoin: miter; stroke-linecap: square"/>
   </g>
   <g id="text_20">
    <!-- high tide -->
    <g style="fill: #4c72b0" transform="translate(217.884585 95.50189)scale(0.12 -0.12)">
     <use xlink:href="#ArialMT-68"/>
     <use xlink:href="#ArialMT-69" x="55.615234"/>
     <use xlink:href="#ArialMT-67" x="77.832031"/>
     <use xlink:href="#ArialMT-68" x="133.447266"/>
     <use xlink:href="#ArialMT-20" x="189.0625"/>
     <use xlink:href="#ArialMT-74" x="216.845703"/>
     <use xlink:href="#ArialMT-69" x="244.628906"/>
     <use xlink:href="#ArialMT-64" x="266.845703"/>
     <use xlink:href="#ArialMT-65" x="322.460938"/>
    </g>
   </g>
   <g id="text_21">
    <!-- low tide -->
    <g style="fill: #4c72b0" transform="translate(420.370655 407.321839)scale(0.12 -0.12)">
     <defs>
      <path id="ArialMT-6c" d="M 409 0 
L 409 4581 
L 972 4581 
L 972 0 
L 409 0 
z
" transform="scale(0.015625)"/>
      <path id="ArialMT-77" d="M 1034 0 
L 19 3319 
L 600 3319 
L 1128 1403 
L 1325 691 
Q 1338 744 1497 1375 
L 2025 3319 
L 2603 3319 
L 3100 1394 
L 3266 759 
L 3456 1400 
L 4025 3319 
L 4572 3319 
L 3534 0 
L 2950 0 
L 2422 1988 
L 2294 2553 
L 1622 0 
L 1034 0 
z
" transform="scale(0.015625)"/>
     </defs>
     <use xlink:href="#ArialMT-6c"/>
     <use xlink:href="#ArialMT-6f" x="22.216797"/>
     <use xlink:href="#ArialMT-77" x="77.832031"/>
     <use xlink:href="#ArialMT-20" x="150.048828"/>
     <use xlink:href="#ArialMT-74" x="177.832031"/>
     <use xlink:href="#ArialMT-69" x="205.615234"/>
     <use xlink:href="#ArialMT-64" x="227.832031"/>
     <use xlink:href="#ArialMT-65" x="283.447266"/>
    </g>
   </g>
   <g id="text_22">
    <!-- high tide -->
    <g style="fill: #4c72b0" transform="translate(636.957426 19.376832)scale(0.12 -0.12)">
     <use xlink:href="#ArialMT-68"/>
     <use xlink:href="#ArialMT-69" x="55.615234"/>
     <use xlink:href="#ArialMT-67" x="77.832031"/>
     <use xlink:href="#ArialMT-68" x="133.447266"/>
     <use xlink:href="#ArialMT-20" x="189.0625"/>
     <use xlink:href="#ArialMT-74" x="216.845703"/>
     <use xlink:href="#ArialMT-69" x="244.628906"/>
     <use xlink:href="#ArialMT-64" x="266.845703"/>
     <use xlink:href="#ArialMT-65" x="322.460938"/>
    </g>
   </g>
   <g id="text_23">
    <!-- low tide -->
    <g style="fill: #4c72b0" transform="translate(854.672253 422.411717)scale(0.12 -0.12)">
     <use xlink:href="#ArialMT-6c"/>
     <use xlink:href="#ArialMT-6f" x="22.216797"/>
     <use xlink:href="#ArialMT-77" x="77.832031"/>
     <use xlink:href="#ArialMT-20" x="150.048828"/>
     <use xlink:href="#ArialMT-74" x="177.832031"/>
     <use xlink:href="#ArialMT-69" x="205.615234"/>
     <use xlink:href="#ArialMT-64" x="227.832031"/>
     <use xlink:href="#ArialMT-65" x="283.447266"/>
    </g>
   </g>
  </g>
  <g id="axes_2">
   <g id="matplotlib.axis_3">
    <g id="ytick_9">
     <g id="line2d_29">
      <defs>
       <path id="m1d59278809" d="M 0 0 
L 6 0 
" style="stroke: #262626; stroke-width: 1.25"/>
      </defs>
      <g>
       <use xlink:href="#m1d59278809" x="937.302969" y="406.506132" style="fill: #262626; stroke: #262626; stroke-width: 1.25"/>
      </g>
     </g>
     <g id="text_24">
      <!-- −1.5 -->
      <g style="fill: #262626" transform="translate(946.802969 410.442929)scale(0.11 -0.11)">
       <defs>
        <path id="ArialMT-2e" d="M 581 0 
L 581 641 
L 1222 641 
L 1222 0 
L 581 0 
z
" transform="scale(0.015625)"/>
       </defs>
       <use xlink:href="#ArialMT-2212"/>
       <use xlink:href="#ArialMT-31" x="58.398438"/>
       <use xlink:href="#ArialMT-2e" x="114.013672"/>
       <use xlink:href="#ArialMT-35" x="141.796875"/>
      </g>
     </g>
    </g>
    <g id="ytick_10">
     <g id="line2d_30">
      <g>
       <use xlink:href="#m1d59278809" x="937.302969" y="344.033224" style="fill: #262626; stroke: #262626; stroke-width: 1.25"/>
      </g>
     </g>
     <g id="text_25">
      <!-- −1.0 -->
      <g style="fill: #262626" transform="translate(946.802969 347.970021)scale(0.11 -0.11)">
       <use xlink:href="#ArialMT-2212"/>
       <use xlink:href="#ArialMT-31" x="58.398438"/>
       <use xlink:href="#ArialMT-2e" x="114.013672"/>
       <use xlink:href="#ArialMT-30" x="141.796875"/>
      </g>
     </g>
    </g>
    <g id="ytick_11">
     <g id="line2d_31">
      <g>
       <use xlink:href="#m1d59278809" x="937.302969" y="281.560315" style="fill: #262626; stroke: #262626; stroke-width: 1.25"/>
      </g>
     </g>
     <g id="text_26">
      <!-- −0.5 -->
      <g style="fill: #262626" transform="translate(946.802969 285.497112)scale(0.11 -0.11)">
       <use xlink:href="#ArialMT-2212"/>
       <use xlink:href="#ArialMT-30" x="58.398438"/>
       <use xlink:href="#ArialMT-2e" x="114.013672"/>
       <use xlink:href="#ArialMT-35" x="141.796875"/>
      </g>
     </g>
    </g>
    <g id="ytick_12">
     <g id="line2d_32">
      <g>
       <use xlink:href="#m1d59278809" x="937.302969" y="219.087407" style="fill: #262626; stroke: #262626; stroke-width: 1.25"/>
      </g>
     </g>
     <g id="text_27">
      <!-- 0.0 -->
      <g style="fill: #262626" transform="translate(946.802969 223.024204)scale(0.11 -0.11)">
       <use xlink:href="#ArialMT-30"/>
       <use xlink:href="#ArialMT-2e" x="55.615234"/>
       <use xlink:href="#ArialMT-30" x="83.398438"/>
      </g>
     </g>
    </g>
    <g id="ytick_13">
     <g id="line2d_33">
      <g>
       <use xlink:href="#m1d59278809" x="937.302969" y="156.614499" style="fill: #262626; stroke: #262626; stroke-width: 1.25"/>
      </g>
     </g>
     <g id="text_28">
      <!-- 0.5 -->
      <g style="fill: #262626" transform="translate(946.802969 160.551296)scale(0.11 -0.11)">
       <use xlink:href="#ArialMT-30"/>
       <use xlink:href="#ArialMT-2e" x="55.615234"/>
       <use xlink:href="#ArialMT-35" x="83.398438"/>
      </g>
     </g>
    </g>
    <g id="ytick_14">
     <g id="line2d_34">
      <g>
       <use xlink:href="#m1d59278809" x="937.302969" y="94.141591" style="fill: #262626; stroke: #262626; stroke-width: 1.25"/>
      </g>
     </g>
     <g id="text_29">
      <!-- 1.0 -->
      <g style="fill: #262626" transform="translate(946.802969 98.078388)scale(0.11 -0.11)">
       <use xlink:href="#ArialMT-31"/>
       <use xlink:href="#ArialMT-2e" x="55.615234"/>
       <use xlink:href="#ArialMT-30" x="83.398438"/>
      </g>
     </g>
    </g>
    <g id="ytick_15">
     <g id="line2d_35">
      <g>
       <use xlink:href="#m1d59278809" x="937.302969" y="31.668683" style="fill: #262626; stroke: #262626; stroke-width: 1.25"/>
      </g>
     </g>
     <g id="text_30">
      <!-- 1.5 -->
      <g style="fill: #262626" transform="translate(946.802969 35.605479)scale(0.11 -0.11)">
       <use xlink:href="#ArialMT-31"/>
       <use xlink:href="#ArialMT-2e" x="55.615234"/>
       <use xlink:href="#ArialMT-35" x="83.398438"/>
      </g>
     </g>
    </g>
    <g id="text_31">
     <!-- Current Speed (kts) -->
     <g style="fill: #55a868" transform="translate(981.253281 281.31)rotate(-90)scale(0.12 -0.12)">
      <defs>
       <path id="ArialMT-43" d="M 3763 1606 
L 4369 1453 
Q 4178 706 3683 314 
Q 3188 -78 2472 -78 
Q 1731 -78 1267 223 
Q 803 525 561 1097 
Q 319 1669 319 2325 
Q 319 3041 592 3573 
Q 866 4106 1370 4382 
Q 1875 4659 2481 4659 
Q 3169 4659 3637 4309 
Q 4106 3959 4291 3325 
L 3694 3184 
Q 3534 3684 3231 3912 
Q 2928 4141 2469 4141 
Q 1941 4141 1586 3887 
Q 1231 3634 1087 3207 
Q 944 2781 944 2328 
Q 944 1744 1114 1308 
Q 1284 872 1643 656 
Q 2003 441 2422 441 
Q 2931 441 3284 734 
Q 3638 1028 3763 1606 
z
" transform="scale(0.015625)"/>
       <path id="ArialMT-72" d="M 416 0 
L 416 3319 
L 922 3319 
L 922 2816 
Q 1116 3169 1280 3281 
Q 1444 3394 1641 3394 
Q 1925 3394 2219 3213 
L 2025 2691 
Q 1819 2813 1613 2813 
Q 1428 2813 1281 2702 
Q 1134 2591 1072 2394 
Q 978 2094 978 1738 
L 978 0 
L 416 0 
z
" transform="scale(0.015625)"/>
       <path id="ArialMT-70" d="M 422 -1272 
L 422 3319 
L 934 3319 
L 934 2888 
Q 1116 3141 1344 3267 
Q 1572 3394 1897 3394 
Q 2322 3394 2647 3175 
Q 2972 2956 3137 2557 
Q 3303 2159 3303 1684 
Q 3303 1175 3120 767 
Q 2938 359 2589 142 
Q 2241 -75 1856 -75 
Q 1575 -75 1351 44 
Q 1128 163 984 344 
L 984 -1272 
L 422 -1272 
z
M 931 1641 
Q 931 1000 1190 694 
Q 1450 388 1819 388 
Q 2194 388 2461 705 
Q 2728 1022 2728 1688 
Q 2728 2322 2467 2637 
Q 2206 2953 1844 2953 
Q 1484 2953 1207 2617 
Q 931 2281 931 1641 
z
" transform="scale(0.015625)"/>
       <path id="ArialMT-6b" d="M 425 0 
L 425 4581 
L 988 4581 
L 988 1969 
L 2319 3319 
L 3047 3319 
L 1778 2088 
L 3175 0 
L 2481 0 
L 1384 1697 
L 988 1316 
L 988 0 
L 425 0 
z
" transform="scale(0.015625)"/>
       <path id="ArialMT-73" d="M 197 991 
L 753 1078 
Q 800 744 1014 566 
Q 1228 388 1613 388 
Q 2000 388 2187 545 
Q 2375 703 2375 916 
Q 2375 1106 2209 1216 
Q 2094 1291 1634 1406 
Q 1016 1563 777 1677 
Q 538 1791 414 1992 
Q 291 2194 291 2438 
Q 291 2659 392 2848 
Q 494 3038 669 3163 
Q 800 3259 1026 3326 
Q 1253 3394 1513 3394 
Q 1903 3394 2198 3281 
Q 2494 3169 2634 2976 
Q 2775 2784 2828 2463 
L 2278 2388 
Q 2241 2644 2061 2787 
Q 1881 2931 1553 2931 
Q 1166 2931 1000 2803 
Q 834 2675 834 2503 
Q 834 2394 903 2306 
Q 972 2216 1119 2156 
Q 1203 2125 1616 2013 
Q 2213 1853 2448 1751 
Q 2684 1650 2818 1456 
Q 2953 1263 2953 975 
Q 2953 694 2789 445 
Q 2625 197 2315 61 
Q 2006 -75 1616 -75 
Q 969 -75 630 194 
Q 291 463 197 991 
z
" transform="scale(0.015625)"/>
      </defs>
      <use xlink:href="#ArialMT-43"/>
      <use xlink:href="#ArialMT-75" x="72.216797"/>
      <use xlink:href="#ArialMT-72" x="127.832031"/>
      <use xlink:href="#ArialMT-72" x="161.132812"/>
      <use xlink:href="#ArialMT-65" x="194.433594"/>
      <use xlink:href="#ArialMT-6e" x="250.048828"/>
      <use xlink:href="#ArialMT-74" x="305.664062"/>
      <use xlink:href="#ArialMT-20" x="333.447266"/>
      <use xlink:href="#ArialMT-53" x="361.230469"/>
      <use xlink:href="#ArialMT-70" x="427.929688"/>
      <use xlink:href="#ArialMT-65" x="483.544922"/>
      <use xlink:href="#ArialMT-65" x="539.160156"/>
      <use xlink:href="#ArialMT-64" x="594.775391"/>
      <use xlink:href="#ArialMT-20" x="650.390625"/>
      <use xlink:href="#ArialMT-28" x="678.173828"/>
      <use xlink:href="#ArialMT-6b" x="711.474609"/>
      <use xlink:href="#ArialMT-74" x="761.474609"/>
      <use xlink:href="#ArialMT-73" x="789.257812"/>
      <use xlink:href="#ArialMT-29" x="839.257812"/>
     </g>
    </g>
   </g>
   <g id="line2d_36">
    <path d="M 85.084787 196.116544 
L 96.365348 169.848196 
L 105.953825 148.025866 
L 110.466049 138.342979 
L 114.414246 130.374809 
L 118.362442 122.877371 
L 122.310638 115.850665 
L 126.258835 109.29469 
L 130.207031 103.209448 
L 133.591199 98.36819 
L 136.975368 93.872776 
L 140.359536 89.723206 
L 143.743704 85.919479 
L 147.127872 82.461596 
L 150.512041 79.349558 
L 153.896209 76.585587 
L 156.152321 74.986972 
L 158.408433 73.613239 
L 160.664546 72.464387 
L 162.920658 71.540417 
L 165.17677 70.841328 
L 167.432882 70.367121 
L 169.688994 70.117795 
L 171.945107 70.093351 
L 174.201219 70.293788 
L 176.457331 70.719107 
L 178.713443 71.369307 
L 180.969555 72.244388 
L 183.225668 73.344351 
L 185.48178 74.669196 
L 187.737892 76.218922 
L 189.994004 77.993529 
L 192.814144 80.528028 
L 195.634285 83.413904 
L 198.454425 86.651157 
L 202.402621 91.629369 
L 206.914846 97.68578 
L 211.42707 104.128803 
L 215.939294 110.958436 
L 220.451519 118.174681 
L 224.963743 125.777536 
L 230.039996 134.79287 
L 235.116248 144.297508 
L 240.192501 154.29145 
L 245.268753 164.774696 
L 250.345006 175.747248 
L 257.113342 190.977828 
L 265.573763 210.532394 
L 274.034184 230.645222 
L 282.494604 251.316312 
L 290.955025 272.545665 
L 299.979474 295.805636 
L 310.696007 323.549805 
L 315.772259 335.889002 
L 320.848512 347.639384 
L 325.924764 358.800951 
L 331.001017 369.373704 
L 335.513241 378.277392 
L 339.461437 385.618917 
L 342.281578 390.418571 
L 345.101718 394.82536 
L 347.921858 398.839283 
L 350.741998 402.46034 
L 353.562139 405.688532 
L 356.382279 408.523859 
L 358.638391 410.509257 
L 360.894503 412.243222 
L 363.150615 413.725752 
L 365.406728 414.956849 
L 367.66284 415.936512 
L 369.918952 416.664741 
L 372.175064 417.141536 
L 374.431176 417.366897 
L 376.687289 417.340824 
L 378.943401 417.063317 
L 381.199513 416.534377 
L 383.455625 415.754002 
L 385.711737 414.722194 
L 387.96785 413.438952 
L 390.223962 411.904276 
L 392.480074 410.118166 
L 394.736186 408.080622 
L 396.992298 405.791645 
L 399.812439 402.576844 
L 402.632579 398.969177 
L 405.452719 394.968646 
L 408.272859 390.575248 
L 411.093 385.788986 
L 414.477168 379.588493 
L 418.989392 370.85185 
L 423.501617 361.602309 
L 428.013841 351.839872 
L 432.526066 341.564538 
L 437.03829 330.776307 
L 445.498711 309.728373 
L 460.727468 271.339441 
L 475.956225 232.356309 
L 491.184983 192.778976 
L 506.977768 151.108197 
L 518.822357 119.858939 
L 523.334582 108.785406 
L 527.846806 98.328452 
L 532.35903 88.488078 
L 536.307227 80.383538 
L 540.255423 72.751068 
L 544.203619 65.590667 
L 548.151816 58.902334 
L 552.100012 52.68607 
L 555.48418 47.744573 
L 558.304321 44.006193 
L 561.124461 40.646179 
L 563.944601 37.664533 
L 566.764741 35.061253 
L 569.020854 33.251054 
L 571.276966 31.68301 
L 573.533078 30.357121 
L 575.78919 29.273387 
L 578.045302 28.431808 
L 580.301415 27.832383 
L 582.557527 27.475114 
L 584.813639 27.36 
L 587.069751 27.487041 
L 589.325863 27.856236 
L 591.581976 28.467587 
L 593.838088 29.321093 
L 596.0942 30.416754 
L 598.350312 31.754569 
L 600.606424 33.33454 
L 602.862537 35.156666 
L 605.118649 37.220946 
L 607.938789 40.141827 
L 610.758929 43.441076 
L 613.57907 47.118691 
L 616.963238 51.993092 
L 621.475462 58.91558 
L 625.987687 66.263642 
L 630.499911 74.037279 
L 635.012135 82.236489 
L 639.52436 90.861273 
L 644.600612 101.07285 
L 649.676865 111.823044 
L 654.753117 123.111855 
L 659.82937 134.939282 
L 664.905622 147.304618 
L 679.006323 182.636545 
L 693.107025 218.577785 
L 707.207726 255.128336 
L 721.308427 292.2882 
L 741.049409 344.476778 
L 745.561633 355.38726 
L 750.073858 365.709625 
L 754.586082 375.443875 
L 758.534278 383.478904 
L 762.482475 391.063657 
L 766.430671 398.187087 
L 769.814839 403.778281 
L 772.63498 408.033024 
L 775.45512 411.91996 
L 778.27526 415.439091 
L 781.0954 418.590415 
L 783.915541 421.373934 
L 786.735681 423.789647 
L 788.991793 425.457397 
L 791.247905 426.889751 
L 793.504017 428.086709 
L 795.76013 429.048272 
L 798.016242 429.774439 
L 800.272354 430.26521 
L 802.528466 430.520586 
L 804.784578 430.540565 
L 807.040691 430.325149 
L 809.296803 429.874337 
L 811.552915 429.18813 
L 813.809027 428.266526 
L 816.065139 427.109527 
L 818.321252 425.717132 
L 820.577364 424.089341 
L 822.833476 422.226155 
L 825.653616 419.566147 
L 828.473757 416.538332 
L 831.293897 413.142712 
L 834.114037 409.379286 
L 836.934177 405.248054 
L 839.754318 400.749016 
L 842.574458 395.882173 
L 845.958626 389.556456 
L 849.342794 382.705853 
L 854.983075 370.673731 
L 860.623355 358.121137 
L 866.263636 345.048072 
L 871.903916 331.454535 
L 878.108225 315.919314 
L 893.336982 277.672165 
L 896.721151 269.253584 
L 896.721151 269.253584 
" clip-path="url(#pa2c2475549)" style="fill: none; stroke: #55a868; stroke-width: 1.5; stroke-linecap: round"/>
   </g>
   <g id="line2d_37">
    <path d="M 44.502969 219.087407 
L 937.302969 219.087407 
" clip-path="url(#pa2c2475549)" style="fill: none; stroke-dasharray: 1.5,2.475; stroke-dashoffset: 0; stroke: #55a868; stroke-opacity: 0.8; stroke-width: 1.5"/>
   </g>
   <g id="patch_7">
    <path d="M 44.502969 450.72 
L 44.502969 7.2 
" style="fill: none; stroke: #ffffff; stroke-width: 1.25; stroke-linejoin: miter; stroke-linecap: square"/>
   </g>
   <g id="patch_8">
    <path d="M 937.302969 450.72 
L 937.302969 7.2 
" style="fill: none; stroke: #ffffff; stroke-width: 1.25; stroke-linejoin: miter; stroke-linecap: square"/>
   </g>
   <g id="patch_9">
    <path d="M 44.502969 450.72 
L 937.302969 450.72 
" style="fill: none; stroke: #ffffff; stroke-width: 1.25; stroke-linejoin: miter; stroke-linecap: square"/>
   </g>
   <g id="patch_10">
    <path d="M 44.502969 7.2 
L 937.302969 7.2 
" style="fill: none; stroke: #ffffff; stroke-width: 1.25; stroke-linejoin: miter; stroke-linecap: square"/>
   </g>
  </g>
 </g>
 <defs>
  <clipPath id="pa2c2475549">
   <rect x="44.502969" y="7.2" width="892.8" height="443.52"/>
  </clipPath>
 </defs>
</svg>
