<?xml version="1.0" encoding="utf-8" standalone="no"?>
<!DOCTYPE svg PUBLIC "-//W3C//DTD SVG 1.1//EN"
  "http://www.w3.org/Graphics/SVG/1.1/DTD/svg11.dtd">
<svg xmlns:xlink="http://www.w3.org/1999/xlink" width="990.978906pt" height="492.454219pt" viewBox="0 0 990.978906 492.454219" xmlns="http://www.w3.org/2000/svg" version="1.1">
 <metadata>
  <rdf:RDF xmlns:dc="http://purl.org/dc/elements/1.1/" xmlns:cc="http://creativecommons.org/ns#" xmlns:rdf="http://www.w3.org/1999/02/22-rdf-syntax-ns#">
   <cc:Work>
    <dc:type rdf:resource="http://purl.org/dc/dcmitype/StillImage"/>
    <dc:date>2022-03-02T07:21:31.312054</dc:date>
    <dc:format>image/svg+xml</dc:format>
    <dc:creator>
     <cc:Agent>
      <dc:title>Matplotlib v3.5.1, https://matplotlib.org/</dc:title>
     </cc:Agent>
    </dc:creator>
   </cc:Work>
  </rdf:RDF>
 </metadata>
 <defs>
  <style type="text/css">*{stroke-linejoin: round; stroke-linecap: butt}</style>
 </defs>
 <g id="figure_1">
  <g id="patch_1">
   <path d="M 0 492.454219 
L 990.978906 492.454219 
L 990.978906 0 
L 0 0 
z
" style="fill: #ffffff"/>
  </g>
  <g id="axes_1">
   <g id="patch_2">
    <path d="M 53.675938 450.72 
L 946.475937 450.72 
L 946.475937 7.2 
L 53.675938 7.2 
z
" style="fill: #eaeaf2"/>
   </g>
   <g id="matplotlib.axis_1">
    <g id="xtick_1">
     <g id="line2d_1">
      <path d="M 149.532505 450.72 
L 149.532505 7.2 
" clip-path="url(#pb59fffffd8)" style="fill: none; stroke: #ffffff; stroke-linecap: round"/>
     </g>
     <g id="text_1">
      <!-- Wed 6 AM -->
      <g style="fill: #262626" transform="translate(124.258286 468.093594)scale(0.11 -0.11)">
       <defs>
        <path id="ArialMT-57" d="M 1294 0 
L 78 4581 
L 700 4581 
L 1397 1578 
Q 1509 1106 1591 641 
Q 1766 1375 1797 1488 
L 2669 4581 
L 3400 4581 
L 4056 2263 
Q 4303 1400 4413 641 
Q 4500 1075 4641 1638 
L 5359 4581 
L 5969 4581 
L 4713 0 
L 4128 0 
L 3163 3491 
Q 3041 3928 3019 4028 
Q 2947 3713 2884 3491 
L 1913 0 
L 1294 0 
z
" transform="scale(0.015625)"/>
        <path id="ArialMT-65" d="M 2694 1069 
L 3275 997 
Q 3138 488 2766 206 
Q 2394 -75 1816 -75 
Q 1088 -75 661 373 
Q 234 822 234 1631 
Q 234 2469 665 2931 
Q 1097 3394 1784 3394 
Q 2450 3394 2872 2941 
Q 3294 2488 3294 1666 
Q 3294 1616 3291 1516 
L 816 1516 
Q 847 969 1125 678 
Q 1403 388 1819 388 
Q 2128 388 2347 550 
Q 2566 713 2694 1069 
z
M 847 1978 
L 2700 1978 
Q 2663 2397 2488 2606 
Q 2219 2931 1791 2931 
Q 1403 2931 1139 2672 
Q 875 2413 847 1978 
z
" transform="scale(0.015625)"/>
        <path id="ArialMT-64" d="M 2575 0 
L 2575 419 
Q 2259 -75 1647 -75 
Q 1250 -75 917 144 
Q 584 363 401 755 
Q 219 1147 219 1656 
Q 219 2153 384 2558 
Q 550 2963 881 3178 
Q 1213 3394 1622 3394 
Q 1922 3394 2156 3267 
Q 2391 3141 2538 2938 
L 2538 4581 
L 3097 4581 
L 3097 0 
L 2575 0 
z
M 797 1656 
Q 797 1019 1065 703 
Q 1334 388 1700 388 
Q 2069 388 2326 689 
Q 2584 991 2584 1609 
Q 2584 2291 2321 2609 
Q 2059 2928 1675 2928 
Q 1300 2928 1048 2622 
Q 797 2316 797 1656 
z
" transform="scale(0.015625)"/>
        <path id="ArialMT-20" transform="scale(0.015625)"/>
        <path id="ArialMT-36" d="M 3184 3459 
L 2625 3416 
Q 2550 3747 2413 3897 
Q 2184 4138 1850 4138 
Q 1581 4138 1378 3988 
Q 1113 3794 959 3422 
Q 806 3050 800 2363 
Q 1003 2672 1297 2822 
Q 1591 2972 1913 2972 
Q 2475 2972 2870 2558 
Q 3266 2144 3266 1488 
Q 3266 1056 3080 686 
Q 2894 316 2569 119 
Q 2244 -78 1831 -78 
Q 1128 -78 684 439 
Q 241 956 241 2144 
Q 241 3472 731 4075 
Q 1159 4600 1884 4600 
Q 2425 4600 2770 4297 
Q 3116 3994 3184 3459 
z
M 888 1484 
Q 888 1194 1011 928 
Q 1134 663 1356 523 
Q 1578 384 1822 384 
Q 2178 384 2434 671 
Q 2691 959 2691 1453 
Q 2691 1928 2437 2201 
Q 2184 2475 1800 2475 
Q 1419 2475 1153 2201 
Q 888 1928 888 1484 
z
" transform="scale(0.015625)"/>
        <path id="ArialMT-41" d="M -9 0 
L 1750 4581 
L 2403 4581 
L 4278 0 
L 3588 0 
L 3053 1388 
L 1138 1388 
L 634 0 
L -9 0 
z
M 1313 1881 
L 2866 1881 
L 2388 3150 
Q 2169 3728 2063 4100 
Q 1975 3659 1816 3225 
L 1313 1881 
z
" transform="scale(0.015625)"/>
        <path id="ArialMT-4d" d="M 475 0 
L 475 4581 
L 1388 4581 
L 2472 1338 
Q 2622 884 2691 659 
Q 2769 909 2934 1394 
L 4031 4581 
L 4847 4581 
L 4847 0 
L 4263 0 
L 4263 3834 
L 2931 0 
L 2384 0 
L 1059 3900 
L 1059 0 
L 475 0 
z
" transform="scale(0.015625)"/>
       </defs>
       <use xlink:href="#ArialMT-57"/>
       <use xlink:href="#ArialMT-65" x="92.634766"/>
       <use xlink:href="#ArialMT-64" x="148.25"/>
       <use xlink:href="#ArialMT-20" x="203.865234"/>
       <use xlink:href="#ArialMT-36" x="231.648438"/>
       <use xlink:href="#ArialMT-20" x="287.263672"/>
       <use xlink:href="#ArialMT-41" x="309.546875"/>
       <use xlink:href="#ArialMT-4d" x="376.246094"/>
      </g>
     </g>
    </g>
    <g id="xtick_2">
     <g id="line2d_2">
      <path d="M 251.057554 450.72 
L 251.057554 7.2 
" clip-path="url(#pb59fffffd8)" style="fill: none; stroke: #ffffff; stroke-linecap: round"/>
     </g>
     <g id="text_2">
      <!-- Wed 9 AM -->
      <g style="fill: #262626" transform="translate(225.783335 468.093594)scale(0.11 -0.11)">
       <defs>
        <path id="ArialMT-39" d="M 350 1059 
L 891 1109 
Q 959 728 1153 556 
Q 1347 384 1650 384 
Q 1909 384 2104 503 
Q 2300 622 2425 820 
Q 2550 1019 2634 1356 
Q 2719 1694 2719 2044 
Q 2719 2081 2716 2156 
Q 2547 1888 2255 1720 
Q 1963 1553 1622 1553 
Q 1053 1553 659 1965 
Q 266 2378 266 3053 
Q 266 3750 677 4175 
Q 1088 4600 1706 4600 
Q 2153 4600 2523 4359 
Q 2894 4119 3086 3673 
Q 3278 3228 3278 2384 
Q 3278 1506 3087 986 
Q 2897 466 2520 194 
Q 2144 -78 1638 -78 
Q 1100 -78 759 220 
Q 419 519 350 1059 
z
M 2653 3081 
Q 2653 3566 2395 3850 
Q 2138 4134 1775 4134 
Q 1400 4134 1122 3828 
Q 844 3522 844 3034 
Q 844 2597 1108 2323 
Q 1372 2050 1759 2050 
Q 2150 2050 2401 2323 
Q 2653 2597 2653 3081 
z
" transform="scale(0.015625)"/>
       </defs>
       <use xlink:href="#ArialMT-57"/>
       <use xlink:href="#ArialMT-65" x="92.634766"/>
       <use xlink:href="#ArialMT-64" x="148.25"/>
       <use xlink:href="#ArialMT-20" x="203.865234"/>
       <use xlink:href="#ArialMT-39" x="231.648438"/>
       <use xlink:href="#ArialMT-20" x="287.263672"/>
       <use xlink:href="#ArialMT-41" x="309.546875"/>
       <use xlink:href="#ArialMT-4d" x="376.246094"/>
      </g>
     </g>
    </g>
    <g id="xtick_3">
     <g id="line2d_3">
      <path d="M 352.582602 450.72 
L 352.582602 7.2 
" clip-path="url(#pb59fffffd8)" style="fill: none; stroke: #ffffff; stroke-linecap: round"/>
     </g>
     <g id="text_3">
      <!-- Wed 12 PM -->
      <g style="fill: #262626" transform="translate(323.947368 468.093594)scale(0.11 -0.11)">
       <defs>
        <path id="ArialMT-31" d="M 2384 0 
L 1822 0 
L 1822 3584 
Q 1619 3391 1289 3197 
Q 959 3003 697 2906 
L 697 3450 
Q 1169 3672 1522 3987 
Q 1875 4303 2022 4600 
L 2384 4600 
L 2384 0 
z
" transform="scale(0.015625)"/>
        <path id="ArialMT-32" d="M 3222 541 
L 3222 0 
L 194 0 
Q 188 203 259 391 
Q 375 700 629 1000 
Q 884 1300 1366 1694 
Q 2113 2306 2375 2664 
Q 2638 3022 2638 3341 
Q 2638 3675 2398 3904 
Q 2159 4134 1775 4134 
Q 1369 4134 1125 3890 
Q 881 3647 878 3216 
L 300 3275 
Q 359 3922 746 4261 
Q 1134 4600 1788 4600 
Q 2447 4600 2831 4234 
Q 3216 3869 3216 3328 
Q 3216 3053 3103 2787 
Q 2991 2522 2730 2228 
Q 2469 1934 1863 1422 
Q 1356 997 1212 845 
Q 1069 694 975 541 
L 3222 541 
z
" transform="scale(0.015625)"/>
        <path id="ArialMT-50" d="M 494 0 
L 494 4581 
L 2222 4581 
Q 2678 4581 2919 4538 
Q 3256 4481 3484 4323 
Q 3713 4166 3852 3881 
Q 3991 3597 3991 3256 
Q 3991 2672 3619 2267 
Q 3247 1863 2275 1863 
L 1100 1863 
L 1100 0 
L 494 0 
z
M 1100 2403 
L 2284 2403 
Q 2872 2403 3119 2622 
Q 3366 2841 3366 3238 
Q 3366 3525 3220 3729 
Q 3075 3934 2838 4000 
Q 2684 4041 2272 4041 
L 1100 4041 
L 1100 2403 
z
" transform="scale(0.015625)"/>
       </defs>
       <use xlink:href="#ArialMT-57"/>
       <use xlink:href="#ArialMT-65" x="92.634766"/>
       <use xlink:href="#ArialMT-64" x="148.25"/>
       <use xlink:href="#ArialMT-20" x="203.865234"/>
       <use xlink:href="#ArialMT-31" x="231.648438"/>
       <use xlink:href="#ArialMT-32" x="287.263672"/>
       <use xlink:href="#ArialMT-20" x="342.878906"/>
       <use xlink:href="#ArialMT-50" x="370.662109"/>
       <use xlink:href="#ArialMT-4d" x="437.361328"/>
      </g>
     </g>
    </g>
    <g id="xtick_4">
     <g id="line2d_4">
      <path d="M 454.107651 450.72 
L 454.107651 7.2 
" clip-path="url(#pb59fffffd8)" style="fill: none; stroke: #ffffff; stroke-linecap: round"/>
     </g>
     <g id="text_4">
      <!-- Wed 3 PM -->
      <g style="fill: #262626" transform="translate(428.530933 468.093594)scale(0.11 -0.11)">
       <defs>
        <path id="ArialMT-33" d="M 269 1209 
L 831 1284 
Q 928 806 1161 595 
Q 1394 384 1728 384 
Q 2125 384 2398 659 
Q 2672 934 2672 1341 
Q 2672 1728 2419 1979 
Q 2166 2231 1775 2231 
Q 1616 2231 1378 2169 
L 1441 2663 
Q 1497 2656 1531 2656 
Q 1891 2656 2178 2843 
Q 2466 3031 2466 3422 
Q 2466 3731 2256 3934 
Q 2047 4138 1716 4138 
Q 1388 4138 1169 3931 
Q 950 3725 888 3313 
L 325 3413 
Q 428 3978 793 4289 
Q 1159 4600 1703 4600 
Q 2078 4600 2393 4439 
Q 2709 4278 2876 4000 
Q 3044 3722 3044 3409 
Q 3044 3113 2884 2869 
Q 2725 2625 2413 2481 
Q 2819 2388 3044 2092 
Q 3269 1797 3269 1353 
Q 3269 753 2831 336 
Q 2394 -81 1725 -81 
Q 1122 -81 723 278 
Q 325 638 269 1209 
z
" transform="scale(0.015625)"/>
       </defs>
       <use xlink:href="#ArialMT-57"/>
       <use xlink:href="#ArialMT-65" x="92.634766"/>
       <use xlink:href="#ArialMT-64" x="148.25"/>
       <use xlink:href="#ArialMT-20" x="203.865234"/>
       <use xlink:href="#ArialMT-33" x="231.648438"/>
       <use xlink:href="#ArialMT-20" x="287.263672"/>
       <use xlink:href="#ArialMT-50" x="315.046875"/>
       <use xlink:href="#ArialMT-4d" x="381.746094"/>
      </g>
     </g>
    </g>
    <g id="xtick_5">
     <g id="line2d_5">
      <path d="M 555.6327 450.72 
L 555.6327 7.2 
" clip-path="url(#pb59fffffd8)" style="fill: none; stroke: #ffffff; stroke-linecap: round"/>
     </g>
     <g id="text_5">
      <!-- Wed 6 PM -->
      <g style="fill: #262626" transform="translate(530.055982 468.093594)scale(0.11 -0.11)">
       <use xlink:href="#ArialMT-57"/>
       <use xlink:href="#ArialMT-65" x="92.634766"/>
       <use xlink:href="#ArialMT-64" x="148.25"/>
       <use xlink:href="#ArialMT-20" x="203.865234"/>
       <use xlink:href="#ArialMT-36" x="231.648438"/>
       <use xlink:href="#ArialMT-20" x="287.263672"/>
       <use xlink:href="#ArialMT-50" x="315.046875"/>
       <use xlink:href="#ArialMT-4d" x="381.746094"/>
      </g>
     </g>
    </g>
    <g id="xtick_6">
     <g id="line2d_6">
      <path d="M 657.157749 450.72 
L 657.157749 7.2 
" clip-path="url(#pb59fffffd8)" style="fill: none; stroke: #ffffff; stroke-linecap: round"/>
     </g>
     <g id="text_6">
      <!-- Wed 9 PM -->
      <g style="fill: #262626" transform="translate(631.581031 468.093594)scale(0.11 -0.11)">
       <use xlink:href="#ArialMT-57"/>
       <use xlink:href="#ArialMT-65" x="92.634766"/>
       <use xlink:href="#ArialMT-64" x="148.25"/>
       <use xlink:href="#ArialMT-20" x="203.865234"/>
       <use xlink:href="#ArialMT-39" x="231.648438"/>
       <use xlink:href="#ArialMT-20" x="287.263672"/>
       <use xlink:href="#ArialMT-50" x="315.046875"/>
       <use xlink:href="#ArialMT-4d" x="381.746094"/>
      </g>
     </g>
    </g>
    <g id="xtick_7">
     <g id="line2d_7">
      <path d="M 758.682798 450.72 
L 758.682798 7.2 
" clip-path="url(#pb59fffffd8)" style="fill: none; stroke: #ffffff; stroke-linecap: round"/>
     </g>
     <g id="text_7">
      <!-- Thu 12 AM -->
      <g style="fill: #262626" transform="translate(732.086001 468.093594)scale(0.11 -0.11)">
       <defs>
        <path id="ArialMT-54" d="M 1659 0 
L 1659 4041 
L 150 4041 
L 150 4581 
L 3781 4581 
L 3781 4041 
L 2266 4041 
L 2266 0 
L 1659 0 
z
" transform="scale(0.015625)"/>
        <path id="ArialMT-68" d="M 422 0 
L 422 4581 
L 984 4581 
L 984 2938 
Q 1378 3394 1978 3394 
Q 2347 3394 2619 3248 
Q 2891 3103 3008 2847 
Q 3125 2591 3125 2103 
L 3125 0 
L 2563 0 
L 2563 2103 
Q 2563 2525 2380 2717 
Q 2197 2909 1863 2909 
Q 1613 2909 1392 2779 
Q 1172 2650 1078 2428 
Q 984 2206 984 1816 
L 984 0 
L 422 0 
z
" transform="scale(0.015625)"/>
        <path id="ArialMT-75" d="M 2597 0 
L 2597 488 
Q 2209 -75 1544 -75 
Q 1250 -75 995 37 
Q 741 150 617 320 
Q 494 491 444 738 
Q 409 903 409 1263 
L 409 3319 
L 972 3319 
L 972 1478 
Q 972 1038 1006 884 
Q 1059 663 1231 536 
Q 1403 409 1656 409 
Q 1909 409 2131 539 
Q 2353 669 2445 892 
Q 2538 1116 2538 1541 
L 2538 3319 
L 3100 3319 
L 3100 0 
L 2597 0 
z
" transform="scale(0.015625)"/>
       </defs>
       <use xlink:href="#ArialMT-54"/>
       <use xlink:href="#ArialMT-68" x="61.083984"/>
       <use xlink:href="#ArialMT-75" x="116.699219"/>
       <use xlink:href="#ArialMT-20" x="172.314453"/>
       <use xlink:href="#ArialMT-31" x="200.097656"/>
       <use xlink:href="#ArialMT-32" x="255.712891"/>
       <use xlink:href="#ArialMT-20" x="311.328125"/>
       <use xlink:href="#ArialMT-41" x="333.611328"/>
       <use xlink:href="#ArialMT-4d" x="400.310547"/>
      </g>
     </g>
    </g>
    <g id="xtick_8">
     <g id="line2d_8">
      <path d="M 860.207847 450.72 
L 860.207847 7.2 
" clip-path="url(#pb59fffffd8)" style="fill: none; stroke: #ffffff; stroke-linecap: round"/>
     </g>
     <g id="text_8">
      <!-- Thu 3 AM -->
      <g style="fill: #262626" transform="translate(836.669566 468.093594)scale(0.11 -0.11)">
       <use xlink:href="#ArialMT-54"/>
       <use xlink:href="#ArialMT-68" x="61.083984"/>
       <use xlink:href="#ArialMT-75" x="116.699219"/>
       <use xlink:href="#ArialMT-20" x="172.314453"/>
       <use xlink:href="#ArialMT-33" x="200.097656"/>
       <use xlink:href="#ArialMT-20" x="255.712891"/>
       <use xlink:href="#ArialMT-41" x="277.996094"/>
       <use xlink:href="#ArialMT-4d" x="344.695312"/>
      </g>
     </g>
    </g>
    <g id="text_9">
     <!-- time -->
     <g style="fill: #262626" transform="translate(488.741562 482.869219)scale(0.12 -0.12)">
      <defs>
       <path id="ArialMT-74" d="M 1650 503 
L 1731 6 
Q 1494 -44 1306 -44 
Q 1000 -44 831 53 
Q 663 150 594 308 
Q 525 466 525 972 
L 525 2881 
L 113 2881 
L 113 3319 
L 525 3319 
L 525 4141 
L 1084 4478 
L 1084 3319 
L 1650 3319 
L 1650 2881 
L 1084 2881 
L 1084 941 
Q 1084 700 1114 631 
Q 1144 563 1211 522 
Q 1278 481 1403 481 
Q 1497 481 1650 503 
z
" transform="scale(0.015625)"/>
       <path id="ArialMT-69" d="M 425 3934 
L 425 4581 
L 988 4581 
L 988 3934 
L 425 3934 
z
M 425 0 
L 425 3319 
L 988 3319 
L 988 0 
L 425 0 
z
" transform="scale(0.015625)"/>
       <path id="ArialMT-6d" d="M 422 0 
L 422 3319 
L 925 3319 
L 925 2853 
Q 1081 3097 1340 3245 
Q 1600 3394 1931 3394 
Q 2300 3394 2536 3241 
Q 2772 3088 2869 2813 
Q 3263 3394 3894 3394 
Q 4388 3394 4653 3120 
Q 4919 2847 4919 2278 
L 4919 0 
L 4359 0 
L 4359 2091 
Q 4359 2428 4304 2576 
Q 4250 2725 4106 2815 
Q 3963 2906 3769 2906 
Q 3419 2906 3187 2673 
Q 2956 2441 2956 1928 
L 2956 0 
L 2394 0 
L 2394 2156 
Q 2394 2531 2256 2718 
Q 2119 2906 1806 2906 
Q 1569 2906 1367 2781 
Q 1166 2656 1075 2415 
Q 984 2175 984 1722 
L 984 0 
L 422 0 
z
" transform="scale(0.015625)"/>
      </defs>
      <use xlink:href="#ArialMT-74"/>
      <use xlink:href="#ArialMT-69" x="27.783203"/>
      <use xlink:href="#ArialMT-6d" x="50"/>
      <use xlink:href="#ArialMT-65" x="133.300781"/>
     </g>
    </g>
   </g>
   <g id="matplotlib.axis_2">
    <g id="ytick_1">
     <g id="line2d_9">
      <path d="M 53.675938 409.536378 
L 946.475937 409.536378 
" clip-path="url(#pb59fffffd8)" style="fill: none; stroke: #ffffff; stroke-linecap: round"/>
     </g>
     <g id="line2d_10">
      <defs>
       <path id="m7c090495e1" d="M 0 0 
L -6 0 
" style="stroke: #262626; stroke-width: 1.25"/>
      </defs>
      <g>
       <use xlink:href="#m7c090495e1" x="53.675938" y="409.536378" style="fill: #262626; stroke: #262626; stroke-width: 1.25"/>
      </g>
     </g>
     <g id="text_10">
      <!-- −1.5 -->
      <g style="fill: #262626" transform="translate(22.46125 413.473174)scale(0.11 -0.11)">
       <defs>
        <path id="ArialMT-2212" d="M 3381 1997 
L 356 1997 
L 356 2522 
L 3381 2522 
L 3381 1997 
z
" transform="scale(0.015625)"/>
        <path id="ArialMT-2e" d="M 581 0 
L 581 641 
L 1222 641 
L 1222 0 
L 581 0 
z
" transform="scale(0.015625)"/>
        <path id="ArialMT-35" d="M 266 1200 
L 856 1250 
Q 922 819 1161 601 
Q 1400 384 1738 384 
Q 2144 384 2425 690 
Q 2706 997 2706 1503 
Q 2706 1984 2436 2262 
Q 2166 2541 1728 2541 
Q 1456 2541 1237 2417 
Q 1019 2294 894 2097 
L 366 2166 
L 809 4519 
L 3088 4519 
L 3088 3981 
L 1259 3981 
L 1013 2750 
Q 1425 3038 1878 3038 
Q 2478 3038 2890 2622 
Q 3303 2206 3303 1553 
Q 3303 931 2941 478 
Q 2500 -78 1738 -78 
Q 1113 -78 717 272 
Q 322 622 266 1200 
z
" transform="scale(0.015625)"/>
       </defs>
       <use xlink:href="#ArialMT-2212"/>
       <use xlink:href="#ArialMT-31" x="58.398438"/>
       <use xlink:href="#ArialMT-2e" x="114.013672"/>
       <use xlink:href="#ArialMT-35" x="141.796875"/>
      </g>
     </g>
    </g>
    <g id="ytick_2">
     <g id="line2d_11">
      <path d="M 53.675938 344.113972 
L 946.475937 344.113972 
" clip-path="url(#pb59fffffd8)" style="fill: none; stroke: #ffffff; stroke-linecap: round"/>
     </g>
     <g id="line2d_12">
      <g>
       <use xlink:href="#m7c090495e1" x="53.675938" y="344.113972" style="fill: #262626; stroke: #262626; stroke-width: 1.25"/>
      </g>
     </g>
     <g id="text_11">
      <!-- −1.0 -->
      <g style="fill: #262626" transform="translate(22.46125 348.050769)scale(0.11 -0.11)">
       <defs>
        <path id="ArialMT-30" d="M 266 2259 
Q 266 3072 433 3567 
Q 600 4063 929 4331 
Q 1259 4600 1759 4600 
Q 2128 4600 2406 4451 
Q 2684 4303 2865 4023 
Q 3047 3744 3150 3342 
Q 3253 2941 3253 2259 
Q 3253 1453 3087 958 
Q 2922 463 2592 192 
Q 2263 -78 1759 -78 
Q 1097 -78 719 397 
Q 266 969 266 2259 
z
M 844 2259 
Q 844 1131 1108 757 
Q 1372 384 1759 384 
Q 2147 384 2411 759 
Q 2675 1134 2675 2259 
Q 2675 3391 2411 3762 
Q 2147 4134 1753 4134 
Q 1366 4134 1134 3806 
Q 844 3388 844 2259 
z
" transform="scale(0.015625)"/>
       </defs>
       <use xlink:href="#ArialMT-2212"/>
       <use xlink:href="#ArialMT-31" x="58.398438"/>
       <use xlink:href="#ArialMT-2e" x="114.013672"/>
       <use xlink:href="#ArialMT-30" x="141.796875"/>
      </g>
     </g>
    </g>
    <g id="ytick_3">
     <g id="line2d_13">
      <path d="M 53.675938 278.691566 
L 946.475937 278.691566 
" clip-path="url(#pb59fffffd8)" style="fill: none; stroke: #ffffff; stroke-linecap: round"/>
     </g>
     <g id="line2d_14">
      <g>
       <use xlink:href="#m7c090495e1" x="53.675938" y="278.691566" style="fill: #262626; stroke: #262626; stroke-width: 1.25"/>
      </g>
     </g>
     <g id="text_12">
      <!-- −0.5 -->
      <g style="fill: #262626" transform="translate(22.46125 282.628363)scale(0.11 -0.11)">
       <use xlink:href="#ArialMT-2212"/>
       <use xlink:href="#ArialMT-30" x="58.398438"/>
       <use xlink:href="#ArialMT-2e" x="114.013672"/>
       <use xlink:href="#ArialMT-35" x="141.796875"/>
      </g>
     </g>
    </g>
    <g id="ytick_4">
     <g id="line2d_15">
      <path d="M 53.675938 213.26916 
L 946.475937 213.26916 
" clip-path="url(#pb59fffffd8)" style="fill: none; stroke: #ffffff; stroke-linecap: round"/>
     </g>
     <g id="line2d_16">
      <g>
       <use xlink:href="#m7c090495e1" x="53.675938" y="213.26916" style="fill: #262626; stroke: #262626; stroke-width: 1.25"/>
      </g>
     </g>
     <g id="text_13">
      <!-- 0.0 -->
      <g style="fill: #262626" transform="translate(28.885938 217.205957)scale(0.11 -0.11)">
       <use xlink:href="#ArialMT-30"/>
       <use xlink:href="#ArialMT-2e" x="55.615234"/>
       <use xlink:href="#ArialMT-30" x="83.398438"/>
      </g>
     </g>
    </g>
    <g id="ytick_5">
     <g id="line2d_17">
      <path d="M 53.675938 147.846755 
L 946.475937 147.846755 
" clip-path="url(#pb59fffffd8)" style="fill: none; stroke: #ffffff; stroke-linecap: round"/>
     </g>
     <g id="line2d_18">
      <g>
       <use xlink:href="#m7c090495e1" x="53.675938" y="147.846755" style="fill: #262626; stroke: #262626; stroke-width: 1.25"/>
      </g>
     </g>
     <g id="text_14">
      <!-- 0.5 -->
      <g style="fill: #262626" transform="translate(28.885938 151.783552)scale(0.11 -0.11)">
       <use xlink:href="#ArialMT-30"/>
       <use xlink:href="#ArialMT-2e" x="55.615234"/>
       <use xlink:href="#ArialMT-35" x="83.398438"/>
      </g>
     </g>
    </g>
    <g id="ytick_6">
     <g id="line2d_19">
      <path d="M 53.675938 82.424349 
L 946.475937 82.424349 
" clip-path="url(#pb59fffffd8)" style="fill: none; stroke: #ffffff; stroke-linecap: round"/>
     </g>
     <g id="line2d_20">
      <g>
       <use xlink:href="#m7c090495e1" x="53.675938" y="82.424349" style="fill: #262626; stroke: #262626; stroke-width: 1.25"/>
      </g>
     </g>
     <g id="text_15">
      <!-- 1.0 -->
      <g style="fill: #262626" transform="translate(28.885938 86.361146)scale(0.11 -0.11)">
       <use xlink:href="#ArialMT-31"/>
       <use xlink:href="#ArialMT-2e" x="55.615234"/>
       <use xlink:href="#ArialMT-30" x="83.398438"/>
      </g>
     </g>
    </g>
    <g id="ytick_7">
     <g id="line2d_21">
      <path d="M 53.675938 17.001943 
L 946.475937 17.001943 
" clip-path="url(#pb59fffffd8)" style="fill: none; stroke: #ffffff; stroke-linecap: round"/>
     </g>
     <g id="line2d_22">
      <g>
       <use xlink:href="#m7c090495e1" x="53.675938" y="17.001943" style="fill: #262626; stroke: #262626; stroke-width: 1.25"/>
      </g>
     </g>
     <g id="text_16">
      <!-- 1.5 -->
      <g style="fill: #262626" transform="translate(28.885938 20.93874)scale(0.11 -0.11)">
       <use xlink:href="#ArialMT-31"/>
       <use xlink:href="#ArialMT-2e" x="55.615234"/>
       <use xlink:href="#ArialMT-35" x="83.398438"/>
      </g>
     </g>
    </g>
    <g id="text_17">
     <!-- Current Speed (kts) -->
     <g style="fill: #55a868" transform="translate(15.935625 281.31)rotate(-90)scale(0.12 -0.12)">
      <defs>
       <path id="ArialMT-43" d="M 3763 1606 
L 4369 1453 
Q 4178 706 3683 314 
Q 3188 -78 2472 -78 
Q 1731 -78 1267 223 
Q 803 525 561 1097 
Q 319 1669 319 2325 
Q 319 3041 592 3573 
Q 866 4106 1370 4382 
Q 1875 4659 2481 4659 
Q 3169 4659 3637 4309 
Q 4106 3959 4291 3325 
L 3694 3184 
Q 3534 3684 3231 3912 
Q 2928 4141 2469 4141 
Q 1941 4141 1586 3887 
Q 1231 3634 1087 3207 
Q 944 2781 944 2328 
Q 944 1744 1114 1308 
Q 1284 872 1643 656 
Q 2003 441 2422 441 
Q 2931 441 3284 734 
Q 3638 1028 3763 1606 
z
" transform="scale(0.015625)"/>
       <path id="ArialMT-72" d="M 416 0 
L 416 3319 
L 922 3319 
L 922 2816 
Q 1116 3169 1280 3281 
Q 1444 3394 1641 3394 
Q 1925 3394 2219 3213 
L 2025 2691 
Q 1819 2813 1613 2813 
Q 1428 2813 1281 2702 
Q 1134 2591 1072 2394 
Q 978 2094 978 1738 
L 978 0 
L 416 0 
z
" transform="scale(0.015625)"/>
       <path id="ArialMT-6e" d="M 422 0 
L 422 3319 
L 928 3319 
L 928 2847 
Q 1294 3394 1984 3394 
Q 2284 3394 2536 3286 
Q 2788 3178 2913 3003 
Q 3038 2828 3088 2588 
Q 3119 2431 3119 2041 
L 3119 0 
L 2556 0 
L 2556 2019 
Q 2556 2363 2490 2533 
Q 2425 2703 2258 2804 
Q 2091 2906 1866 2906 
Q 1506 2906 1245 2678 
Q 984 2450 984 1813 
L 984 0 
L 422 0 
z
" transform="scale(0.015625)"/>
       <path id="ArialMT-53" d="M 288 1472 
L 859 1522 
Q 900 1178 1048 958 
Q 1197 738 1509 602 
Q 1822 466 2213 466 
Q 2559 466 2825 569 
Q 3091 672 3220 851 
Q 3350 1031 3350 1244 
Q 3350 1459 3225 1620 
Q 3100 1781 2813 1891 
Q 2628 1963 1997 2114 
Q 1366 2266 1113 2400 
Q 784 2572 623 2826 
Q 463 3081 463 3397 
Q 463 3744 659 4045 
Q 856 4347 1234 4503 
Q 1613 4659 2075 4659 
Q 2584 4659 2973 4495 
Q 3363 4331 3572 4012 
Q 3781 3694 3797 3291 
L 3216 3247 
Q 3169 3681 2898 3903 
Q 2628 4125 2100 4125 
Q 1550 4125 1298 3923 
Q 1047 3722 1047 3438 
Q 1047 3191 1225 3031 
Q 1400 2872 2139 2705 
Q 2878 2538 3153 2413 
Q 3553 2228 3743 1945 
Q 3934 1663 3934 1294 
Q 3934 928 3725 604 
Q 3516 281 3123 101 
Q 2731 -78 2241 -78 
Q 1619 -78 1198 103 
Q 778 284 539 648 
Q 300 1013 288 1472 
z
" transform="scale(0.015625)"/>
       <path id="ArialMT-70" d="M 422 -1272 
L 422 3319 
L 934 3319 
L 934 2888 
Q 1116 3141 1344 3267 
Q 1572 3394 1897 3394 
Q 2322 3394 2647 3175 
Q 2972 2956 3137 2557 
Q 3303 2159 3303 1684 
Q 3303 1175 3120 767 
Q 2938 359 2589 142 
Q 2241 -75 1856 -75 
Q 1575 -75 1351 44 
Q 1128 163 984 344 
L 984 -1272 
L 422 -1272 
z
M 931 1641 
Q 931 1000 1190 694 
Q 1450 388 1819 388 
Q 2194 388 2461 705 
Q 2728 1022 2728 1688 
Q 2728 2322 2467 2637 
Q 2206 2953 1844 2953 
Q 1484 2953 1207 2617 
Q 931 2281 931 1641 
z
" transform="scale(0.015625)"/>
       <path id="ArialMT-28" d="M 1497 -1347 
Q 1031 -759 709 28 
Q 388 816 388 1659 
Q 388 2403 628 3084 
Q 909 3875 1497 4659 
L 1900 4659 
Q 1522 4009 1400 3731 
Q 1209 3300 1100 2831 
Q 966 2247 966 1656 
Q 966 153 1900 -1347 
L 1497 -1347 
z
" transform="scale(0.015625)"/>
       <path id="ArialMT-6b" d="M 425 0 
L 425 4581 
L 988 4581 
L 988 1969 
L 2319 3319 
L 3047 3319 
L 1778 2088 
L 3175 0 
L 2481 0 
L 1384 1697 
L 988 1316 
L 988 0 
L 425 0 
z
" transform="scale(0.015625)"/>
       <path id="ArialMT-73" d="M 197 991 
L 753 1078 
Q 800 744 1014 566 
Q 1228 388 1613 388 
Q 2000 388 2187 545 
Q 2375 703 2375 916 
Q 2375 1106 2209 1216 
Q 2094 1291 1634 1406 
Q 1016 1563 777 1677 
Q 538 1791 414 1992 
Q 291 2194 291 2438 
Q 291 2659 392 2848 
Q 494 3038 669 3163 
Q 800 3259 1026 3326 
Q 1253 3394 1513 3394 
Q 1903 3394 2198 3281 
Q 2494 3169 2634 2976 
Q 2775 2784 2828 2463 
L 2278 2388 
Q 2241 2644 2061 2787 
Q 1881 2931 1553 2931 
Q 1166 2931 1000 2803 
Q 834 2675 834 2503 
Q 834 2394 903 2306 
Q 972 2216 1119 2156 
Q 1203 2125 1616 2013 
Q 2213 1853 2448 1751 
Q 2684 1650 2818 1456 
Q 2953 1263 2953 975 
Q 2953 694 2789 445 
Q 2625 197 2315 61 
Q 2006 -75 1616 -75 
Q 969 -75 630 194 
Q 291 463 197 991 
z
" transform="scale(0.015625)"/>
       <path id="ArialMT-29" d="M 791 -1347 
L 388 -1347 
Q 1322 153 1322 1656 
Q 1322 2244 1188 2822 
Q 1081 3291 891 3722 
Q 769 4003 388 4659 
L 791 4659 
Q 1378 3875 1659 3084 
Q 1900 2403 1900 1659 
Q 1900 816 1576 28 
Q 1253 -759 791 -1347 
z
" transform="scale(0.015625)"/>
      </defs>
      <use xlink:href="#ArialMT-43"/>
      <use xlink:href="#ArialMT-75" x="72.216797"/>
      <use xlink:href="#ArialMT-72" x="127.832031"/>
      <use xlink:href="#ArialMT-72" x="161.132812"/>
      <use xlink:href="#ArialMT-65" x="194.433594"/>
      <use xlink:href="#ArialMT-6e" x="250.048828"/>
      <use xlink:href="#ArialMT-74" x="305.664062"/>
      <use xlink:href="#ArialMT-20" x="333.447266"/>
      <use xlink:href="#ArialMT-53" x="361.230469"/>
      <use xlink:href="#ArialMT-70" x="427.929688"/>
      <use xlink:href="#ArialMT-65" x="483.544922"/>
      <use xlink:href="#ArialMT-65" x="539.160156"/>
      <use xlink:href="#ArialMT-64" x="594.775391"/>
      <use xlink:href="#ArialMT-20" x="650.390625"/>
      <use xlink:href="#ArialMT-28" x="678.173828"/>
      <use xlink:href="#ArialMT-6b" x="711.474609"/>
      <use xlink:href="#ArialMT-74" x="761.474609"/>
      <use xlink:href="#ArialMT-73" x="789.257812"/>
      <use xlink:href="#ArialMT-29" x="839.257812"/>
     </g>
    </g>
   </g>
   <g id="line2d_23">
    <path d="M 94.257756 48.820003 
L 97.641924 44.374866 
L 100.462064 41.056204 
L 103.282204 38.09719 
L 106.102345 35.497824 
L 108.922485 33.258107 
L 111.178597 31.725279 
L 113.434709 30.422626 
L 115.690822 29.350147 
L 117.946934 28.507843 
L 120.203046 27.895714 
L 122.459158 27.51376 
L 124.71527 27.36198 
L 126.971383 27.440375 
L 129.227495 27.748945 
L 131.483607 28.287689 
L 133.739719 29.056608 
L 135.995831 30.055702 
L 138.251944 31.28497 
L 140.508056 32.744413 
L 142.764168 34.434031 
L 145.02028 36.353823 
L 147.84042 39.077247 
L 150.660561 42.160318 
L 153.480701 45.603038 
L 156.300841 49.405405 
L 160.249038 55.175229 
L 164.197234 61.334565 
L 168.14543 67.883412 
L 172.093627 74.821772 
L 176.605851 83.228279 
L 181.118075 92.143536 
L 185.6303 101.567544 
L 190.142524 111.500302 
L 194.654749 121.94181 
L 199.731001 134.296622 
L 204.807253 147.295321 
L 211.011562 163.900215 
L 230.752544 217.396387 
L 250.493525 271.536661 
L 270.234507 326.321039 
L 275.31076 340.227421 
L 279.822984 351.853691 
L 283.77118 361.443271 
L 287.719377 370.488341 
L 291.667573 378.988898 
L 295.615769 386.944944 
L 299.563966 394.356479 
L 302.948134 400.275836 
L 306.332302 405.795144 
L 309.716471 410.890479 
L 312.536611 414.704737 
L 315.356751 418.108276 
L 318.176891 421.101096 
L 320.433004 423.199634 
L 322.689116 425.035312 
L 324.945228 426.608129 
L 327.20134 427.918087 
L 329.457452 428.965184 
L 331.713565 429.749421 
L 333.969677 430.270798 
L 336.225789 430.529314 
L 338.481901 430.524971 
L 340.738013 430.257767 
L 342.994126 429.727703 
L 345.250238 428.934779 
L 347.50635 427.878994 
L 349.762462 426.56035 
L 352.018574 424.978845 
L 354.274687 423.13448 
L 356.530799 421.027255 
L 358.786911 418.657169 
L 361.607051 415.324915 
L 364.427192 411.581942 
L 367.247332 407.42825 
L 370.067472 402.863839 
L 372.887612 397.888709 
L 375.707753 392.50286 
L 379.091921 385.497691 
L 382.476089 377.901088 
L 388.11637 364.40303 
L 394.320678 349.012208 
L 400.524987 333.059361 
L 407.293323 315.01527 
L 427.034305 261.641882 
L 438.314866 231.976015 
L 449.595427 202.931901 
L 460.875988 174.509539 
L 472.156549 146.708929 
L 482.309054 122.233375 
L 486.821278 111.832595 
L 491.333503 101.960017 
L 495.845727 92.615643 
L 500.357952 83.799472 
L 504.870176 75.511504 
L 508.818372 68.692824 
L 512.766569 62.278549 
L 516.714765 56.26868 
L 520.662961 50.663217 
L 524.04713 46.234722 
L 526.86727 42.946663 
L 529.68741 40.034667 
L 532.50755 37.498734 
L 534.763663 35.740753 
L 537.019775 34.223451 
L 539.275887 32.94683 
L 541.531999 31.910889 
L 543.788111 31.115628 
L 546.044224 30.561047 
L 548.300336 30.247146 
L 550.556448 30.173925 
L 552.81256 30.341385 
L 555.068672 30.749524 
L 557.324785 31.398344 
L 559.580897 32.287844 
L 561.837009 33.418024 
L 564.093121 34.788884 
L 566.349233 36.400424 
L 568.605346 38.252645 
L 570.861458 40.345545 
L 573.681598 43.300127 
L 576.501738 46.630772 
L 579.321878 50.337479 
L 582.142019 54.405084 
L 586.090215 60.460823 
L 590.038411 66.882103 
L 594.550636 74.668311 
L 599.06286 82.931961 
L 603.575085 91.673053 
L 608.087309 100.891588 
L 612.599533 110.587565 
L 617.675786 122.066232 
L 622.752038 134.149161 
L 627.828291 146.836354 
L 634.596627 164.489756 
L 662.79803 238.735342 
L 690.999432 313.602722 
L 697.203741 329.83117 
L 701.715965 340.912078 
L 706.22819 351.357262 
L 710.176386 359.975305 
L 714.124582 368.106623 
L 718.072779 375.751214 
L 722.020975 382.909079 
L 725.969171 389.580218 
L 728.789312 393.962942 
L 731.609452 397.928577 
L 734.429592 401.477122 
L 737.249732 404.608578 
L 739.505845 406.813439 
L 741.761957 408.751363 
L 744.018069 410.422349 
L 746.274181 411.826399 
L 748.530293 412.963511 
L 750.786406 413.833686 
L 753.042518 414.436924 
L 755.29863 414.773225 
L 757.554742 414.842589 
L 759.810854 414.645016 
L 762.066967 414.180505 
L 764.323079 413.449058 
L 766.579191 412.450673 
L 768.835303 411.185351 
L 771.091415 409.653092 
L 773.347528 407.853896 
L 775.60364 405.787763 
L 777.859752 403.454693 
L 780.115864 400.854686 
L 782.936004 397.229296 
L 785.756145 393.186818 
L 788.576285 388.72725 
L 791.396425 383.850593 
L 794.216565 378.556846 
L 797.036706 372.846011 
L 800.420874 365.44245 
L 805.497126 353.546958 
L 811.137407 339.736443 
L 816.777687 325.307539 
L 822.417968 310.260248 
L 842.15895 256.721556 
L 854.003539 225.397777 
L 865.848128 194.684218 
L 877.692717 164.580877 
L 889.537306 135.087755 
L 897.433699 115.895883 
L 901.945923 105.558998 
L 905.894119 96.969529 
L 905.894119 96.969529 
" clip-path="url(#pb59fffffd8)" style="fill: none; stroke: #55a868; stroke-width: 1.5; stroke-linecap: round"/>
   </g>
   <g id="line2d_24">
    <path d="M 53.675938 213.26916 
L 946.475937 213.26916 
" clip-path="url(#pb59fffffd8)" style="fill: none; stroke-dasharray: 1.5,2.475; stroke-dashoffset: 0; stroke: #55a868; stroke-opacity: 0.8; stroke-width: 1.5"/>
   </g>
   <g id="line2d_25">
    <path d="M 195.511395 450.72 
L 195.511395 7.2 
" clip-path="url(#pb59fffffd8)" style="fill: none; stroke: #c44e52; stroke-opacity: 0.6; stroke-width: 1.5; stroke-linecap: round"/>
   </g>
   <g id="patch_3">
    <path d="M 53.675938 450.72 
L 53.675938 7.2 
" style="fill: none; stroke: #ffffff; stroke-width: 1.25; stroke-linejoin: miter; stroke-linecap: square"/>
   </g>
   <g id="patch_4">
    <path d="M 946.475937 450.72 
L 946.475937 7.2 
" style="fill: none; stroke: #ffffff; stroke-width: 1.25; stroke-linejoin: miter; stroke-linecap: square"/>
   </g>
   <g id="patch_5">
    <path d="M 53.675937 450.72 
L 946.475937 450.72 
" style="fill: none; stroke: #ffffff; stroke-width: 1.25; stroke-linejoin: miter; stroke-linecap: square"/>
   </g>
   <g id="patch_6">
    <path d="M 53.675937 7.2 
L 946.475937 7.2 
" style="fill: none; stroke: #ffffff; stroke-width: 1.25; stroke-linejoin: miter; stroke-linecap: square"/>
   </g>
  </g>
  <g id="axes_2">
   <g id="matplotlib.axis_3">
    <g id="ytick_8">
     <g id="line2d_26">
      <defs>
       <path id="mccf9fb7b57" d="M 0 0 
L 6 0 
" style="stroke: #262626; stroke-width: 1.25"/>
      </defs>
      <g>
       <use xlink:href="#mccf9fb7b57" x="946.475937" y="441.874736" style="fill: #262626; stroke: #262626; stroke-width: 1.25"/>
      </g>
     </g>
     <g id="text_18">
      <!-- −1 -->
      <g style="fill: #262626" transform="translate(955.975937 445.811533)scale(0.11 -0.11)">
       <use xlink:href="#ArialMT-2212"/>
       <use xlink:href="#ArialMT-31" x="58.398438"/>
      </g>
     </g>
    </g>
    <g id="ytick_9">
     <g id="line2d_27">
      <g>
       <use xlink:href="#mccf9fb7b57" x="946.475937" y="380.838798" style="fill: #262626; stroke: #262626; stroke-width: 1.25"/>
      </g>
     </g>
     <g id="text_19">
      <!-- 0 -->
      <g style="fill: #262626" transform="translate(955.975937 384.775595)scale(0.11 -0.11)">
       <use xlink:href="#ArialMT-30"/>
      </g>
     </g>
    </g>
    <g id="ytick_10">
     <g id="line2d_28">
      <g>
       <use xlink:href="#mccf9fb7b57" x="946.475937" y="319.802861" style="fill: #262626; stroke: #262626; stroke-width: 1.25"/>
      </g>
     </g>
     <g id="text_20">
      <!-- 1 -->
      <g style="fill: #262626" transform="translate(955.975937 323.739658)scale(0.11 -0.11)">
       <use xlink:href="#ArialMT-31"/>
      </g>
     </g>
    </g>
    <g id="ytick_11">
     <g id="line2d_29">
      <g>
       <use xlink:href="#mccf9fb7b57" x="946.475937" y="258.766923" style="fill: #262626; stroke: #262626; stroke-width: 1.25"/>
      </g>
     </g>
     <g id="text_21">
      <!-- 2 -->
      <g style="fill: #262626" transform="translate(955.975937 262.70372)scale(0.11 -0.11)">
       <use xlink:href="#ArialMT-32"/>
      </g>
     </g>
    </g>
    <g id="ytick_12">
     <g id="line2d_30">
      <g>
       <use xlink:href="#mccf9fb7b57" x="946.475937" y="197.730985" style="fill: #262626; stroke: #262626; stroke-width: 1.25"/>
      </g>
     </g>
     <g id="text_22">
      <!-- 3 -->
      <g style="fill: #262626" transform="translate(955.975937 201.667782)scale(0.11 -0.11)">
       <use xlink:href="#ArialMT-33"/>
      </g>
     </g>
    </g>
    <g id="ytick_13">
     <g id="line2d_31">
      <g>
       <use xlink:href="#mccf9fb7b57" x="946.475937" y="136.695048" style="fill: #262626; stroke: #262626; stroke-width: 1.25"/>
      </g>
     </g>
     <g id="text_23">
      <!-- 4 -->
      <g style="fill: #262626" transform="translate(955.975937 140.631845)scale(0.11 -0.11)">
       <defs>
        <path id="ArialMT-34" d="M 2069 0 
L 2069 1097 
L 81 1097 
L 81 1613 
L 2172 4581 
L 2631 4581 
L 2631 1613 
L 3250 1613 
L 3250 1097 
L 2631 1097 
L 2631 0 
L 2069 0 
z
M 2069 1613 
L 2069 3678 
L 634 1613 
L 2069 1613 
z
" transform="scale(0.015625)"/>
       </defs>
       <use xlink:href="#ArialMT-34"/>
      </g>
     </g>
    </g>
    <g id="ytick_14">
     <g id="line2d_32">
      <g>
       <use xlink:href="#mccf9fb7b57" x="946.475937" y="75.65911" style="fill: #262626; stroke: #262626; stroke-width: 1.25"/>
      </g>
     </g>
     <g id="text_24">
      <!-- 5 -->
      <g style="fill: #262626" transform="translate(955.975937 79.595907)scale(0.11 -0.11)">
       <use xlink:href="#ArialMT-35"/>
      </g>
     </g>
    </g>
    <g id="ytick_15">
     <g id="line2d_33">
      <g>
       <use xlink:href="#mccf9fb7b57" x="946.475937" y="14.623173" style="fill: #262626; stroke: #262626; stroke-width: 1.25"/>
      </g>
     </g>
     <g id="text_25">
      <!-- 6 -->
      <g style="fill: #262626" transform="translate(955.975937 18.559969)scale(0.11 -0.11)">
       <use xlink:href="#ArialMT-36"/>
      </g>
     </g>
    </g>
    <g id="text_26">
     <!-- Tide Height (ft) -->
     <g style="fill: #4c72b0" transform="translate(981.253281 268.411875)rotate(-90)scale(0.12 -0.12)">
      <defs>
       <path id="ArialMT-48" d="M 513 0 
L 513 4581 
L 1119 4581 
L 1119 2700 
L 3500 2700 
L 3500 4581 
L 4106 4581 
L 4106 0 
L 3500 0 
L 3500 2159 
L 1119 2159 
L 1119 0 
L 513 0 
z
" transform="scale(0.015625)"/>
       <path id="ArialMT-67" d="M 319 -275 
L 866 -356 
Q 900 -609 1056 -725 
Q 1266 -881 1628 -881 
Q 2019 -881 2231 -725 
Q 2444 -569 2519 -288 
Q 2563 -116 2559 434 
Q 2191 0 1641 0 
Q 956 0 581 494 
Q 206 988 206 1678 
Q 206 2153 378 2554 
Q 550 2956 876 3175 
Q 1203 3394 1644 3394 
Q 2231 3394 2613 2919 
L 2613 3319 
L 3131 3319 
L 3131 450 
Q 3131 -325 2973 -648 
Q 2816 -972 2473 -1159 
Q 2131 -1347 1631 -1347 
Q 1038 -1347 672 -1080 
Q 306 -813 319 -275 
z
M 784 1719 
Q 784 1066 1043 766 
Q 1303 466 1694 466 
Q 2081 466 2343 764 
Q 2606 1063 2606 1700 
Q 2606 2309 2336 2618 
Q 2066 2928 1684 2928 
Q 1309 2928 1046 2623 
Q 784 2319 784 1719 
z
" transform="scale(0.015625)"/>
       <path id="ArialMT-66" d="M 556 0 
L 556 2881 
L 59 2881 
L 59 3319 
L 556 3319 
L 556 3672 
Q 556 4006 616 4169 
Q 697 4388 901 4523 
Q 1106 4659 1475 4659 
Q 1713 4659 2000 4603 
L 1916 4113 
Q 1741 4144 1584 4144 
Q 1328 4144 1222 4034 
Q 1116 3925 1116 3625 
L 1116 3319 
L 1763 3319 
L 1763 2881 
L 1116 2881 
L 1116 0 
L 556 0 
z
" transform="scale(0.015625)"/>
      </defs>
      <use xlink:href="#ArialMT-54"/>
      <use xlink:href="#ArialMT-69" x="57.333984"/>
      <use xlink:href="#ArialMT-64" x="79.550781"/>
      <use xlink:href="#ArialMT-65" x="135.166016"/>
      <use xlink:href="#ArialMT-20" x="190.78125"/>
      <use xlink:href="#ArialMT-48" x="218.564453"/>
      <use xlink:href="#ArialMT-65" x="290.78125"/>
      <use xlink:href="#ArialMT-69" x="346.396484"/>
      <use xlink:href="#ArialMT-67" x="368.613281"/>
      <use xlink:href="#ArialMT-68" x="424.228516"/>
      <use xlink:href="#ArialMT-74" x="479.84375"/>
      <use xlink:href="#ArialMT-20" x="507.626953"/>
      <use xlink:href="#ArialMT-28" x="535.410156"/>
      <use xlink:href="#ArialMT-66" x="568.710938"/>
      <use xlink:href="#ArialMT-74" x="596.494141"/>
      <use xlink:href="#ArialMT-29" x="624.277344"/>
     </g>
    </g>
   </g>
   <g id="PathCollection_1">
    <path d="M 194.09072 30.440719 
C 194.88633 30.440719 195.64946 30.124621 196.212041 29.56204 
C 196.774622 28.999459 197.09072 28.236329 197.09072 27.440719 
C 197.09072 26.64511 196.774622 25.88198 196.212041 25.319399 
C 195.64946 24.756818 194.88633 24.440719 194.09072 24.440719 
C 193.295111 24.440719 192.531981 24.756818 191.9694 25.319399 
C 191.406819 25.88198 191.09072 26.64511 191.09072 27.440719 
C 191.09072 28.236329 191.406819 28.999459 191.9694 29.56204 
C 192.531981 30.124621 193.295111 30.440719 194.09072 30.440719 
z
" clip-path="url(#pb59fffffd8)" style="fill: #4c72b0; stroke: #ffffff; stroke-width: 0.48"/>
    <path d="M 404.473183 433.461016 
C 405.268792 433.461016 406.031923 433.144917 406.594503 432.582336 
C 407.157084 432.019755 407.473183 431.256625 407.473183 430.461016 
C 407.473183 429.665406 407.157084 428.902276 406.594503 428.339695 
C 406.031923 427.777115 405.268792 427.461016 404.473183 427.461016 
C 403.677574 427.461016 402.914443 427.777115 402.351863 428.339695 
C 401.789282 428.902276 401.473183 429.665406 401.473183 430.461016 
C 401.473183 431.256625 401.789282 432.019755 402.351863 432.582336 
C 402.914443 433.144917 403.677574 433.461016 404.473183 433.461016 
z
" clip-path="url(#pb59fffffd8)" style="fill: #4c72b0; stroke: #ffffff; stroke-width: 0.48"/>
    <path d="M 614.855646 61.752155 
C 615.651255 61.752155 616.414385 61.436057 616.976966 60.873476 
C 617.539547 60.310895 617.855646 59.547765 617.855646 58.752155 
C 617.855646 57.956546 617.539547 57.193416 616.976966 56.630835 
C 616.414385 56.068254 615.651255 55.752155 614.855646 55.752155 
C 614.060036 55.752155 613.296906 56.068254 612.734325 56.630835 
C 612.171745 57.193416 611.855646 57.956546 611.855646 58.752155 
C 611.855646 59.547765 612.171745 60.310895 612.734325 60.873476 
C 613.296906 61.436057 614.060036 61.752155 614.855646 61.752155 
z
" clip-path="url(#pb59fffffd8)" style="fill: #4c72b0; stroke: #ffffff; stroke-width: 0.48"/>
    <path d="M 819.597828 423.512158 
C 820.393437 423.512158 821.156567 423.196059 821.719148 422.633478 
C 822.281729 422.070897 822.597828 421.307767 822.597828 420.512158 
C 822.597828 419.716548 822.281729 418.953418 821.719148 418.390837 
C 821.156567 417.828257 820.393437 417.512158 819.597828 417.512158 
C 818.802218 417.512158 818.039088 417.828257 817.476507 418.390837 
C 816.913927 418.953418 816.597828 419.716548 816.597828 420.512158 
C 816.597828 421.307767 816.913927 422.070897 817.476507 422.633478 
C 818.039088 423.196059 818.802218 423.512158 819.597828 423.512158 
z
" clip-path="url(#pb59fffffd8)" style="fill: #4c72b0; stroke: #ffffff; stroke-width: 0.48"/>
   </g>
   <g id="line2d_34">
    <path d="M 94.257756 194.120688 
L 98.76998 179.070052 
L 103.282204 164.731092 
L 107.794429 151.103809 
L 112.306653 138.188201 
L 116.818878 125.984269 
L 120.767074 115.889626 
L 124.71527 106.339859 
L 128.663467 97.33497 
L 132.611663 88.874957 
L 136.559859 80.959821 
L 140.508056 73.589563 
L 143.892224 67.705875 
L 147.276392 62.222506 
L 150.660561 57.139454 
L 154.044729 52.456721 
L 157.428897 48.174305 
L 160.813066 44.292206 
L 163.633206 41.362923 
L 166.453346 38.711637 
L 169.273486 36.33835 
L 172.093627 34.243062 
L 174.913767 32.425772 
L 177.733907 30.886481 
L 180.554047 29.625188 
L 183.374188 28.641893 
L 186.194328 27.936597 
L 189.014468 27.509299 
L 191.834608 27.36 
L 194.09072 27.440719 
L 196.910861 27.791817 
L 199.731001 28.420914 
L 202.551141 29.328009 
L 205.371281 30.513102 
L 208.191422 31.976193 
L 211.011562 33.717284 
L 213.831702 35.736372 
L 216.651842 38.033459 
L 219.471983 40.608545 
L 222.292123 43.461628 
L 225.112263 46.592711 
L 228.496432 50.716968 
L 231.8806 55.241542 
L 235.264768 60.166434 
L 238.648936 65.491644 
L 242.033105 71.217172 
L 245.417273 77.343017 
L 249.365469 84.995794 
L 253.313666 93.193448 
L 257.261862 101.935979 
L 261.210058 111.223387 
L 265.158255 121.055671 
L 269.106451 131.432833 
L 273.618676 143.959642 
L 278.1309 157.198128 
L 282.643124 171.14829 
L 287.155349 185.810127 
L 291.667573 201.183641 
L 296.743826 219.329519 
L 306.89633 256.299018 
L 311.972583 273.548105 
L 316.484807 288.126119 
L 320.997032 301.994007 
L 325.509256 315.151769 
L 330.02148 327.599406 
L 334.533705 339.336917 
L 338.481901 349.024714 
L 342.430098 358.168821 
L 346.378294 366.769238 
L 350.32649 374.825965 
L 354.274687 382.339002 
L 357.658855 388.346016 
L 361.043023 393.953583 
L 364.427192 399.161705 
L 367.81136 403.970381 
L 371.195528 408.379612 
L 374.579696 412.389397 
L 377.963865 415.999736 
L 380.784005 418.70322 
L 383.604145 421.129311 
L 386.424285 423.278009 
L 389.244426 425.149315 
L 392.064566 426.743227 
L 394.884706 428.059747 
L 397.704846 429.098874 
L 400.524987 429.860608 
L 403.345127 430.344949 
L 406.165267 430.551897 
L 408.985407 430.481453 
L 411.805548 430.133616 
L 414.625688 429.508386 
L 417.445828 428.605763 
L 420.265968 427.425747 
L 423.086109 425.968338 
L 425.906249 424.233536 
L 428.726389 422.221342 
L 431.546529 419.931755 
L 434.36667 417.364775 
L 437.18681 414.520402 
L 440.00695 411.398636 
L 443.391118 407.286359 
L 446.775287 402.774636 
L 450.159455 397.863467 
L 453.543623 392.552853 
L 456.927792 386.842793 
L 460.31196 380.733287 
L 464.260156 373.100675 
L 468.208353 364.924373 
L 472.156549 356.204382 
L 476.104745 346.9407 
L 480.052942 337.133328 
L 484.001138 326.782267 
L 488.513362 314.286739 
L 493.025587 301.081086 
L 497.537811 287.165307 
L 502.050036 272.539403 
L 506.56226 257.203373 
L 518.406849 216.21072 
L 522.919074 201.732901 
L 527.431298 187.953127 
L 531.943522 174.871399 
L 536.455747 162.487716 
L 540.967971 150.802078 
L 544.916167 141.14976 
L 548.864364 132.031883 
L 552.81256 123.448447 
L 556.760757 115.399452 
L 560.708953 107.884898 
L 564.657149 100.904785 
L 568.041317 95.347202 
L 571.425486 90.18227 
L 574.809654 85.409988 
L 578.193822 81.030357 
L 581.577991 77.043376 
L 584.962159 73.449045 
L 587.782299 70.753712 
L 590.602439 68.331051 
L 593.42258 66.181065 
L 596.24272 64.303753 
L 599.06286 62.699115 
L 601.883 61.367151 
L 604.703141 60.30786 
L 607.523281 59.521244 
L 610.343421 59.007302 
L 613.163561 58.766033 
L 615.983702 58.797439 
L 618.803842 59.101518 
L 621.623982 59.678271 
L 624.444122 60.527698 
L 627.264263 61.6498 
L 630.084403 63.044575 
L 632.904543 64.712024 
L 635.724683 66.652147 
L 638.544824 68.864944 
L 641.364964 71.350415 
L 644.185104 74.10856 
L 647.005244 77.139379 
L 650.389413 81.136291 
L 653.773581 85.525853 
L 657.157749 90.308067 
L 660.541918 95.48293 
L 663.926086 101.050444 
L 667.310254 107.010609 
L 671.258451 114.460401 
L 675.206647 122.444634 
L 679.154843 130.963307 
L 683.10304 140.016422 
L 687.051236 149.603978 
L 690.999432 159.725974 
L 695.511657 171.948388 
L 700.023881 184.868847 
L 704.536106 198.487351 
L 709.04833 212.8039 
L 713.560554 227.818495 
L 727.097228 273.693567 
L 731.609452 287.729559 
L 736.121676 301.060515 
L 740.633901 313.686433 
L 745.146125 325.607315 
L 749.094321 335.459736 
L 753.042518 344.772363 
L 756.990714 353.545196 
L 760.938911 361.778235 
L 764.887107 369.47148 
L 768.835303 376.624932 
L 772.219472 382.32683 
L 775.60364 387.632144 
L 778.987808 392.540876 
L 782.371976 397.053024 
L 785.756145 401.168589 
L 789.140313 404.88757 
L 791.960453 407.683776 
L 794.780594 410.204577 
L 797.600734 412.449973 
L 800.420874 414.419963 
L 803.241014 416.114549 
L 806.061155 417.533729 
L 808.881295 418.677505 
L 811.701435 419.545875 
L 814.521575 420.138841 
L 817.341715 420.456401 
L 820.161856 420.498556 
L 822.981996 420.265307 
L 825.802136 419.756652 
L 828.622276 418.972592 
L 831.442417 417.913127 
L 834.262557 416.578257 
L 837.082697 414.967982 
L 839.902837 413.082302 
L 842.722978 410.921217 
L 845.543118 408.484727 
L 848.363258 405.772832 
L 851.183398 402.785532 
L 854.567567 398.837237 
L 857.951735 394.492359 
L 861.335903 389.750898 
L 864.720072 384.612853 
L 868.10424 379.078225 
L 871.488408 373.147014 
L 874.872577 366.819219 
L 878.820773 358.935555 
L 882.768969 350.512097 
L 886.717166 341.548845 
L 890.665362 332.0458 
L 894.613558 322.00296 
L 899.125783 309.864457 
L 903.638007 297.020917 
L 905.894119 290.334758 
L 905.894119 290.334758 
" clip-path="url(#pb59fffffd8)" style="fill: none; stroke: #4c72b0; stroke-width: 1.5; stroke-linecap: round"/>
   </g>
   <g id="line2d_35">
    <path d="M 53.675938 380.838798 
L 946.475937 380.838798 
" clip-path="url(#pb59fffffd8)" style="fill: none; stroke-dasharray: 1.5,2.475; stroke-dashoffset: 0; stroke: #4c72b0; stroke-opacity: 0.8; stroke-width: 1.5"/>
   </g>
   <g id="patch_7">
    <path d="M 53.675938 450.72 
L 53.675938 7.2 
" style="fill: none; stroke: #ffffff; stroke-width: 1.25; stroke-linejoin: miter; stroke-linecap: square"/>
   </g>
   <g id="patch_8">
    <path d="M 946.475937 450.72 
L 946.475937 7.2 
" style="fill: none; stroke: #ffffff; stroke-width: 1.25; stroke-linejoin: miter; stroke-linecap: square"/>
   </g>
   <g id="patch_9">
    <path d="M 53.675937 450.72 
L 946.475937 450.72 
" style="fill: none; stroke: #ffffff; stroke-width: 1.25; stroke-linejoin: miter; stroke-linecap: square"/>
   </g>
   <g id="patch_10">
    <path d="M 53.675937 7.2 
L 946.475937 7.2 
" style="fill: none; stroke: #ffffff; stroke-width: 1.25; stroke-linejoin: miter; stroke-linecap: square"/>
   </g>
   <g id="text_27">
    <!-- high tide -->
    <g style="fill: #4c72b0" transform="translate(170.09072 19.440719)scale(0.12 -0.12)">
     <use xlink:href="#ArialMT-68"/>
     <use xlink:href="#ArialMT-69" x="55.615234"/>
     <use xlink:href="#ArialMT-67" x="77.832031"/>
     <use xlink:href="#ArialMT-68" x="133.447266"/>
     <use xlink:href="#ArialMT-20" x="189.0625"/>
     <use xlink:href="#ArialMT-74" x="216.845703"/>
     <use xlink:href="#ArialMT-69" x="244.628906"/>
     <use xlink:href="#ArialMT-64" x="266.845703"/>
     <use xlink:href="#ArialMT-65" x="322.460938"/>
    </g>
   </g>
   <g id="text_28">
    <!-- low tide -->
    <g style="fill: #4c72b0" transform="translate(380.473183 422.461016)scale(0.12 -0.12)">
     <defs>
      <path id="ArialMT-6c" d="M 409 0 
L 409 4581 
L 972 4581 
L 972 0 
L 409 0 
z
" transform="scale(0.015625)"/>
      <path id="ArialMT-6f" d="M 213 1659 
Q 213 2581 725 3025 
Q 1153 3394 1769 3394 
Q 2453 3394 2887 2945 
Q 3322 2497 3322 1706 
Q 3322 1066 3130 698 
Q 2938 331 2570 128 
Q 2203 -75 1769 -75 
Q 1072 -75 642 372 
Q 213 819 213 1659 
z
M 791 1659 
Q 791 1022 1069 705 
Q 1347 388 1769 388 
Q 2188 388 2466 706 
Q 2744 1025 2744 1678 
Q 2744 2294 2464 2611 
Q 2184 2928 1769 2928 
Q 1347 2928 1069 2612 
Q 791 2297 791 1659 
z
" transform="scale(0.015625)"/>
      <path id="ArialMT-77" d="M 1034 0 
L 19 3319 
L 600 3319 
L 1128 1403 
L 1325 691 
Q 1338 744 1497 1375 
L 2025 3319 
L 2603 3319 
L 3100 1394 
L 3266 759 
L 3456 1400 
L 4025 3319 
L 4572 3319 
L 3534 0 
L 2950 0 
L 2422 1988 
L 2294 2553 
L 1622 0 
L 1034 0 
z
" transform="scale(0.015625)"/>
     </defs>
     <use xlink:href="#ArialMT-6c"/>
     <use xlink:href="#ArialMT-6f" x="22.216797"/>
     <use xlink:href="#ArialMT-77" x="77.832031"/>
     <use xlink:href="#ArialMT-20" x="150.048828"/>
     <use xlink:href="#ArialMT-74" x="177.832031"/>
     <use xlink:href="#ArialMT-69" x="205.615234"/>
     <use xlink:href="#ArialMT-64" x="227.832031"/>
     <use xlink:href="#ArialMT-65" x="283.447266"/>
    </g>
   </g>
   <g id="text_29">
    <!-- high tide -->
    <g style="fill: #4c72b0" transform="translate(590.855646 50.752155)scale(0.12 -0.12)">
     <use xlink:href="#ArialMT-68"/>
     <use xlink:href="#ArialMT-69" x="55.615234"/>
     <use xlink:href="#ArialMT-67" x="77.832031"/>
     <use xlink:href="#ArialMT-68" x="133.447266"/>
     <use xlink:href="#ArialMT-20" x="189.0625"/>
     <use xlink:href="#ArialMT-74" x="216.845703"/>
     <use xlink:href="#ArialMT-69" x="244.628906"/>
     <use xlink:href="#ArialMT-64" x="266.845703"/>
     <use xlink:href="#ArialMT-65" x="322.460938"/>
    </g>
   </g>
   <g id="text_30">
    <!-- low tide -->
    <g style="fill: #4c72b0" transform="translate(795.597828 412.512158)scale(0.12 -0.12)">
     <use xlink:href="#ArialMT-6c"/>
     <use xlink:href="#ArialMT-6f" x="22.216797"/>
     <use xlink:href="#ArialMT-77" x="77.832031"/>
     <use xlink:href="#ArialMT-20" x="150.048828"/>
     <use xlink:href="#ArialMT-74" x="177.832031"/>
     <use xlink:href="#ArialMT-69" x="205.615234"/>
     <use xlink:href="#ArialMT-64" x="227.832031"/>
     <use xlink:href="#ArialMT-65" x="283.447266"/>
    </g>
   </g>
  </g>
 </g>
 <defs>
  <clipPath id="pb59fffffd8">
   <rect x="53.675938" y="7.2" width="892.8" height="443.52"/>
  </clipPath>
 </defs>
</svg>
