<?xml version="1.0" encoding="utf-8" standalone="no"?>
<!DOCTYPE svg PUBLIC "-//W3C//DTD SVG 1.1//EN"
  "http://www.w3.org/Graphics/SVG/1.1/DTD/svg11.dtd">
<svg xmlns:xlink="http://www.w3.org/1999/xlink" width="984.554219pt" height="495.699931pt" viewBox="0 0 984.554219 495.699931" xmlns="http://www.w3.org/2000/svg" version="1.1">
 <metadata>
  <rdf:RDF xmlns:dc="http://purl.org/dc/elements/1.1/" xmlns:cc="http://creativecommons.org/ns#" xmlns:rdf="http://www.w3.org/1999/02/22-rdf-syntax-ns#">
   <cc:Work>
    <dc:type rdf:resource="http://purl.org/dc/dcmitype/StillImage"/>
    <dc:date>2022-02-16T08:54:33.230222</dc:date>
    <dc:format>image/svg+xml</dc:format>
    <dc:creator>
     <cc:Agent>
      <dc:title>Matplotlib v3.5.1, https://matplotlib.org/</dc:title>
     </cc:Agent>
    </dc:creator>
   </cc:Work>
  </rdf:RDF>
 </metadata>
 <defs>
  <style type="text/css">*{stroke-linejoin: round; stroke-linecap: butt}</style>
 </defs>
 <g id="figure_1">
  <g id="patch_1">
   <path d="M 0 495.699931 
L 984.554219 495.699931 
L 984.554219 0 
L 0 0 
z
" style="fill: #ffffff"/>
  </g>
  <g id="axes_1">
   <g id="patch_2">
    <path d="M 53.675938 453.965712 
L 946.475937 453.965712 
L 946.475937 10.445712 
L 53.675938 10.445712 
z
" style="fill: #eaeaf2"/>
   </g>
   <g id="matplotlib.axis_1">
    <g id="xtick_1">
     <g id="line2d_1">
      <path d="M 97.077896 453.965712 
L 97.077896 10.445712 
" clip-path="url(#p5a6a75f08d)" style="fill: none; stroke: #ffffff; stroke-linecap: round"/>
     </g>
     <g id="text_1">
      <!-- Wed 6 AM -->
      <g style="fill: #262626" transform="translate(71.803677 471.339306)scale(0.11 -0.11)">
       <defs>
        <path id="ArialMT-57" d="M 1294 0 
L 78 4581 
L 700 4581 
L 1397 1578 
Q 1509 1106 1591 641 
Q 1766 1375 1797 1488 
L 2669 4581 
L 3400 4581 
L 4056 2263 
Q 4303 1400 4413 641 
Q 4500 1075 4641 1638 
L 5359 4581 
L 5969 4581 
L 4713 0 
L 4128 0 
L 3163 3491 
Q 3041 3928 3019 4028 
Q 2947 3713 2884 3491 
L 1913 0 
L 1294 0 
z
" transform="scale(0.015625)"/>
        <path id="ArialMT-65" d="M 2694 1069 
L 3275 997 
Q 3138 488 2766 206 
Q 2394 -75 1816 -75 
Q 1088 -75 661 373 
Q 234 822 234 1631 
Q 234 2469 665 2931 
Q 1097 3394 1784 3394 
Q 2450 3394 2872 2941 
Q 3294 2488 3294 1666 
Q 3294 1616 3291 1516 
L 816 1516 
Q 847 969 1125 678 
Q 1403 388 1819 388 
Q 2128 388 2347 550 
Q 2566 713 2694 1069 
z
M 847 1978 
L 2700 1978 
Q 2663 2397 2488 2606 
Q 2219 2931 1791 2931 
Q 1403 2931 1139 2672 
Q 875 2413 847 1978 
z
" transform="scale(0.015625)"/>
        <path id="ArialMT-64" d="M 2575 0 
L 2575 419 
Q 2259 -75 1647 -75 
Q 1250 -75 917 144 
Q 584 363 401 755 
Q 219 1147 219 1656 
Q 219 2153 384 2558 
Q 550 2963 881 3178 
Q 1213 3394 1622 3394 
Q 1922 3394 2156 3267 
Q 2391 3141 2538 2938 
L 2538 4581 
L 3097 4581 
L 3097 0 
L 2575 0 
z
M 797 1656 
Q 797 1019 1065 703 
Q 1334 388 1700 388 
Q 2069 388 2326 689 
Q 2584 991 2584 1609 
Q 2584 2291 2321 2609 
Q 2059 2928 1675 2928 
Q 1300 2928 1048 2622 
Q 797 2316 797 1656 
z
" transform="scale(0.015625)"/>
        <path id="ArialMT-20" transform="scale(0.015625)"/>
        <path id="ArialMT-36" d="M 3184 3459 
L 2625 3416 
Q 2550 3747 2413 3897 
Q 2184 4138 1850 4138 
Q 1581 4138 1378 3988 
Q 1113 3794 959 3422 
Q 806 3050 800 2363 
Q 1003 2672 1297 2822 
Q 1591 2972 1913 2972 
Q 2475 2972 2870 2558 
Q 3266 2144 3266 1488 
Q 3266 1056 3080 686 
Q 2894 316 2569 119 
Q 2244 -78 1831 -78 
Q 1128 -78 684 439 
Q 241 956 241 2144 
Q 241 3472 731 4075 
Q 1159 4600 1884 4600 
Q 2425 4600 2770 4297 
Q 3116 3994 3184 3459 
z
M 888 1484 
Q 888 1194 1011 928 
Q 1134 663 1356 523 
Q 1578 384 1822 384 
Q 2178 384 2434 671 
Q 2691 959 2691 1453 
Q 2691 1928 2437 2201 
Q 2184 2475 1800 2475 
Q 1419 2475 1153 2201 
Q 888 1928 888 1484 
z
" transform="scale(0.015625)"/>
        <path id="ArialMT-41" d="M -9 0 
L 1750 4581 
L 2403 4581 
L 4278 0 
L 3588 0 
L 3053 1388 
L 1138 1388 
L 634 0 
L -9 0 
z
M 1313 1881 
L 2866 1881 
L 2388 3150 
Q 2169 3728 2063 4100 
Q 1975 3659 1816 3225 
L 1313 1881 
z
" transform="scale(0.015625)"/>
        <path id="ArialMT-4d" d="M 475 0 
L 475 4581 
L 1388 4581 
L 2472 1338 
Q 2622 884 2691 659 
Q 2769 909 2934 1394 
L 4031 4581 
L 4847 4581 
L 4847 0 
L 4263 0 
L 4263 3834 
L 2931 0 
L 2384 0 
L 1059 3900 
L 1059 0 
L 475 0 
z
" transform="scale(0.015625)"/>
       </defs>
       <use xlink:href="#ArialMT-57"/>
       <use xlink:href="#ArialMT-65" x="92.634766"/>
       <use xlink:href="#ArialMT-64" x="148.25"/>
       <use xlink:href="#ArialMT-20" x="203.865234"/>
       <use xlink:href="#ArialMT-36" x="231.648438"/>
       <use xlink:href="#ArialMT-20" x="287.263672"/>
       <use xlink:href="#ArialMT-41" x="309.546875"/>
       <use xlink:href="#ArialMT-4d" x="376.246094"/>
      </g>
     </g>
    </g>
    <g id="xtick_2">
     <g id="line2d_2">
      <path d="M 198.602945 453.965712 
L 198.602945 10.445712 
" clip-path="url(#p5a6a75f08d)" style="fill: none; stroke: #ffffff; stroke-linecap: round"/>
     </g>
     <g id="text_2">
      <!-- Wed 9 AM -->
      <g style="fill: #262626" transform="translate(173.328726 471.339306)scale(0.11 -0.11)">
       <defs>
        <path id="ArialMT-39" d="M 350 1059 
L 891 1109 
Q 959 728 1153 556 
Q 1347 384 1650 384 
Q 1909 384 2104 503 
Q 2300 622 2425 820 
Q 2550 1019 2634 1356 
Q 2719 1694 2719 2044 
Q 2719 2081 2716 2156 
Q 2547 1888 2255 1720 
Q 1963 1553 1622 1553 
Q 1053 1553 659 1965 
Q 266 2378 266 3053 
Q 266 3750 677 4175 
Q 1088 4600 1706 4600 
Q 2153 4600 2523 4359 
Q 2894 4119 3086 3673 
Q 3278 3228 3278 2384 
Q 3278 1506 3087 986 
Q 2897 466 2520 194 
Q 2144 -78 1638 -78 
Q 1100 -78 759 220 
Q 419 519 350 1059 
z
M 2653 3081 
Q 2653 3566 2395 3850 
Q 2138 4134 1775 4134 
Q 1400 4134 1122 3828 
Q 844 3522 844 3034 
Q 844 2597 1108 2323 
Q 1372 2050 1759 2050 
Q 2150 2050 2401 2323 
Q 2653 2597 2653 3081 
z
" transform="scale(0.015625)"/>
       </defs>
       <use xlink:href="#ArialMT-57"/>
       <use xlink:href="#ArialMT-65" x="92.634766"/>
       <use xlink:href="#ArialMT-64" x="148.25"/>
       <use xlink:href="#ArialMT-20" x="203.865234"/>
       <use xlink:href="#ArialMT-39" x="231.648438"/>
       <use xlink:href="#ArialMT-20" x="287.263672"/>
       <use xlink:href="#ArialMT-41" x="309.546875"/>
       <use xlink:href="#ArialMT-4d" x="376.246094"/>
      </g>
     </g>
    </g>
    <g id="xtick_3">
     <g id="line2d_3">
      <path d="M 300.127994 453.965712 
L 300.127994 10.445712 
" clip-path="url(#p5a6a75f08d)" style="fill: none; stroke: #ffffff; stroke-linecap: round"/>
     </g>
     <g id="text_3">
      <!-- Wed 12 PM -->
      <g style="fill: #262626" transform="translate(271.492759 471.339306)scale(0.11 -0.11)">
       <defs>
        <path id="ArialMT-31" d="M 2384 0 
L 1822 0 
L 1822 3584 
Q 1619 3391 1289 3197 
Q 959 3003 697 2906 
L 697 3450 
Q 1169 3672 1522 3987 
Q 1875 4303 2022 4600 
L 2384 4600 
L 2384 0 
z
" transform="scale(0.015625)"/>
        <path id="ArialMT-32" d="M 3222 541 
L 3222 0 
L 194 0 
Q 188 203 259 391 
Q 375 700 629 1000 
Q 884 1300 1366 1694 
Q 2113 2306 2375 2664 
Q 2638 3022 2638 3341 
Q 2638 3675 2398 3904 
Q 2159 4134 1775 4134 
Q 1369 4134 1125 3890 
Q 881 3647 878 3216 
L 300 3275 
Q 359 3922 746 4261 
Q 1134 4600 1788 4600 
Q 2447 4600 2831 4234 
Q 3216 3869 3216 3328 
Q 3216 3053 3103 2787 
Q 2991 2522 2730 2228 
Q 2469 1934 1863 1422 
Q 1356 997 1212 845 
Q 1069 694 975 541 
L 3222 541 
z
" transform="scale(0.015625)"/>
        <path id="ArialMT-50" d="M 494 0 
L 494 4581 
L 2222 4581 
Q 2678 4581 2919 4538 
Q 3256 4481 3484 4323 
Q 3713 4166 3852 3881 
Q 3991 3597 3991 3256 
Q 3991 2672 3619 2267 
Q 3247 1863 2275 1863 
L 1100 1863 
L 1100 0 
L 494 0 
z
M 1100 2403 
L 2284 2403 
Q 2872 2403 3119 2622 
Q 3366 2841 3366 3238 
Q 3366 3525 3220 3729 
Q 3075 3934 2838 4000 
Q 2684 4041 2272 4041 
L 1100 4041 
L 1100 2403 
z
" transform="scale(0.015625)"/>
       </defs>
       <use xlink:href="#ArialMT-57"/>
       <use xlink:href="#ArialMT-65" x="92.634766"/>
       <use xlink:href="#ArialMT-64" x="148.25"/>
       <use xlink:href="#ArialMT-20" x="203.865234"/>
       <use xlink:href="#ArialMT-31" x="231.648438"/>
       <use xlink:href="#ArialMT-32" x="287.263672"/>
       <use xlink:href="#ArialMT-20" x="342.878906"/>
       <use xlink:href="#ArialMT-50" x="370.662109"/>
       <use xlink:href="#ArialMT-4d" x="437.361328"/>
      </g>
     </g>
    </g>
    <g id="xtick_4">
     <g id="line2d_4">
      <path d="M 401.653043 453.965712 
L 401.653043 10.445712 
" clip-path="url(#p5a6a75f08d)" style="fill: none; stroke: #ffffff; stroke-linecap: round"/>
     </g>
     <g id="text_4">
      <!-- Wed 3 PM -->
      <g style="fill: #262626" transform="translate(376.076324 471.339306)scale(0.11 -0.11)">
       <defs>
        <path id="ArialMT-33" d="M 269 1209 
L 831 1284 
Q 928 806 1161 595 
Q 1394 384 1728 384 
Q 2125 384 2398 659 
Q 2672 934 2672 1341 
Q 2672 1728 2419 1979 
Q 2166 2231 1775 2231 
Q 1616 2231 1378 2169 
L 1441 2663 
Q 1497 2656 1531 2656 
Q 1891 2656 2178 2843 
Q 2466 3031 2466 3422 
Q 2466 3731 2256 3934 
Q 2047 4138 1716 4138 
Q 1388 4138 1169 3931 
Q 950 3725 888 3313 
L 325 3413 
Q 428 3978 793 4289 
Q 1159 4600 1703 4600 
Q 2078 4600 2393 4439 
Q 2709 4278 2876 4000 
Q 3044 3722 3044 3409 
Q 3044 3113 2884 2869 
Q 2725 2625 2413 2481 
Q 2819 2388 3044 2092 
Q 3269 1797 3269 1353 
Q 3269 753 2831 336 
Q 2394 -81 1725 -81 
Q 1122 -81 723 278 
Q 325 638 269 1209 
z
" transform="scale(0.015625)"/>
       </defs>
       <use xlink:href="#ArialMT-57"/>
       <use xlink:href="#ArialMT-65" x="92.634766"/>
       <use xlink:href="#ArialMT-64" x="148.25"/>
       <use xlink:href="#ArialMT-20" x="203.865234"/>
       <use xlink:href="#ArialMT-33" x="231.648438"/>
       <use xlink:href="#ArialMT-20" x="287.263672"/>
       <use xlink:href="#ArialMT-50" x="315.046875"/>
       <use xlink:href="#ArialMT-4d" x="381.746094"/>
      </g>
     </g>
    </g>
    <g id="xtick_5">
     <g id="line2d_5">
      <path d="M 503.178092 453.965712 
L 503.178092 10.445712 
" clip-path="url(#p5a6a75f08d)" style="fill: none; stroke: #ffffff; stroke-linecap: round"/>
     </g>
     <g id="text_5">
      <!-- Wed 6 PM -->
      <g style="fill: #262626" transform="translate(477.601373 471.339306)scale(0.11 -0.11)">
       <use xlink:href="#ArialMT-57"/>
       <use xlink:href="#ArialMT-65" x="92.634766"/>
       <use xlink:href="#ArialMT-64" x="148.25"/>
       <use xlink:href="#ArialMT-20" x="203.865234"/>
       <use xlink:href="#ArialMT-36" x="231.648438"/>
       <use xlink:href="#ArialMT-20" x="287.263672"/>
       <use xlink:href="#ArialMT-50" x="315.046875"/>
       <use xlink:href="#ArialMT-4d" x="381.746094"/>
      </g>
     </g>
    </g>
    <g id="xtick_6">
     <g id="line2d_6">
      <path d="M 604.703141 453.965712 
L 604.703141 10.445712 
" clip-path="url(#p5a6a75f08d)" style="fill: none; stroke: #ffffff; stroke-linecap: round"/>
     </g>
     <g id="text_6">
      <!-- Wed 9 PM -->
      <g style="fill: #262626" transform="translate(579.126422 471.339306)scale(0.11 -0.11)">
       <use xlink:href="#ArialMT-57"/>
       <use xlink:href="#ArialMT-65" x="92.634766"/>
       <use xlink:href="#ArialMT-64" x="148.25"/>
       <use xlink:href="#ArialMT-20" x="203.865234"/>
       <use xlink:href="#ArialMT-39" x="231.648438"/>
       <use xlink:href="#ArialMT-20" x="287.263672"/>
       <use xlink:href="#ArialMT-50" x="315.046875"/>
       <use xlink:href="#ArialMT-4d" x="381.746094"/>
      </g>
     </g>
    </g>
    <g id="xtick_7">
     <g id="line2d_7">
      <path d="M 706.22819 453.965712 
L 706.22819 10.445712 
" clip-path="url(#p5a6a75f08d)" style="fill: none; stroke: #ffffff; stroke-linecap: round"/>
     </g>
     <g id="text_7">
      <!-- Thu 12 AM -->
      <g style="fill: #262626" transform="translate(679.631393 471.339306)scale(0.11 -0.11)">
       <defs>
        <path id="ArialMT-54" d="M 1659 0 
L 1659 4041 
L 150 4041 
L 150 4581 
L 3781 4581 
L 3781 4041 
L 2266 4041 
L 2266 0 
L 1659 0 
z
" transform="scale(0.015625)"/>
        <path id="ArialMT-68" d="M 422 0 
L 422 4581 
L 984 4581 
L 984 2938 
Q 1378 3394 1978 3394 
Q 2347 3394 2619 3248 
Q 2891 3103 3008 2847 
Q 3125 2591 3125 2103 
L 3125 0 
L 2563 0 
L 2563 2103 
Q 2563 2525 2380 2717 
Q 2197 2909 1863 2909 
Q 1613 2909 1392 2779 
Q 1172 2650 1078 2428 
Q 984 2206 984 1816 
L 984 0 
L 422 0 
z
" transform="scale(0.015625)"/>
        <path id="ArialMT-75" d="M 2597 0 
L 2597 488 
Q 2209 -75 1544 -75 
Q 1250 -75 995 37 
Q 741 150 617 320 
Q 494 491 444 738 
Q 409 903 409 1263 
L 409 3319 
L 972 3319 
L 972 1478 
Q 972 1038 1006 884 
Q 1059 663 1231 536 
Q 1403 409 1656 409 
Q 1909 409 2131 539 
Q 2353 669 2445 892 
Q 2538 1116 2538 1541 
L 2538 3319 
L 3100 3319 
L 3100 0 
L 2597 0 
z
" transform="scale(0.015625)"/>
       </defs>
       <use xlink:href="#ArialMT-54"/>
       <use xlink:href="#ArialMT-68" x="61.083984"/>
       <use xlink:href="#ArialMT-75" x="116.699219"/>
       <use xlink:href="#ArialMT-20" x="172.314453"/>
       <use xlink:href="#ArialMT-31" x="200.097656"/>
       <use xlink:href="#ArialMT-32" x="255.712891"/>
       <use xlink:href="#ArialMT-20" x="311.328125"/>
       <use xlink:href="#ArialMT-41" x="333.611328"/>
       <use xlink:href="#ArialMT-4d" x="400.310547"/>
      </g>
     </g>
    </g>
    <g id="xtick_8">
     <g id="line2d_8">
      <path d="M 807.753239 453.965712 
L 807.753239 10.445712 
" clip-path="url(#p5a6a75f08d)" style="fill: none; stroke: #ffffff; stroke-linecap: round"/>
     </g>
     <g id="text_8">
      <!-- Thu 3 AM -->
      <g style="fill: #262626" transform="translate(784.214957 471.339306)scale(0.11 -0.11)">
       <use xlink:href="#ArialMT-54"/>
       <use xlink:href="#ArialMT-68" x="61.083984"/>
       <use xlink:href="#ArialMT-75" x="116.699219"/>
       <use xlink:href="#ArialMT-20" x="172.314453"/>
       <use xlink:href="#ArialMT-33" x="200.097656"/>
       <use xlink:href="#ArialMT-20" x="255.712891"/>
       <use xlink:href="#ArialMT-41" x="277.996094"/>
       <use xlink:href="#ArialMT-4d" x="344.695312"/>
      </g>
     </g>
    </g>
    <g id="xtick_9">
     <g id="line2d_9">
      <path d="M 909.278288 453.965712 
L 909.278288 10.445712 
" clip-path="url(#p5a6a75f08d)" style="fill: none; stroke: #ffffff; stroke-linecap: round"/>
     </g>
     <g id="text_9">
      <!-- Thu 6 AM -->
      <g style="fill: #262626" transform="translate(885.740006 471.339306)scale(0.11 -0.11)">
       <use xlink:href="#ArialMT-54"/>
       <use xlink:href="#ArialMT-68" x="61.083984"/>
       <use xlink:href="#ArialMT-75" x="116.699219"/>
       <use xlink:href="#ArialMT-20" x="172.314453"/>
       <use xlink:href="#ArialMT-36" x="200.097656"/>
       <use xlink:href="#ArialMT-20" x="255.712891"/>
       <use xlink:href="#ArialMT-41" x="277.996094"/>
       <use xlink:href="#ArialMT-4d" x="344.695312"/>
      </g>
     </g>
    </g>
    <g id="text_10">
     <!-- time -->
     <g style="fill: #262626" transform="translate(488.741562 486.114931)scale(0.12 -0.12)">
      <defs>
       <path id="ArialMT-74" d="M 1650 503 
L 1731 6 
Q 1494 -44 1306 -44 
Q 1000 -44 831 53 
Q 663 150 594 308 
Q 525 466 525 972 
L 525 2881 
L 113 2881 
L 113 3319 
L 525 3319 
L 525 4141 
L 1084 4478 
L 1084 3319 
L 1650 3319 
L 1650 2881 
L 1084 2881 
L 1084 941 
Q 1084 700 1114 631 
Q 1144 563 1211 522 
Q 1278 481 1403 481 
Q 1497 481 1650 503 
z
" transform="scale(0.015625)"/>
       <path id="ArialMT-69" d="M 425 3934 
L 425 4581 
L 988 4581 
L 988 3934 
L 425 3934 
z
M 425 0 
L 425 3319 
L 988 3319 
L 988 0 
L 425 0 
z
" transform="scale(0.015625)"/>
       <path id="ArialMT-6d" d="M 422 0 
L 422 3319 
L 925 3319 
L 925 2853 
Q 1081 3097 1340 3245 
Q 1600 3394 1931 3394 
Q 2300 3394 2536 3241 
Q 2772 3088 2869 2813 
Q 3263 3394 3894 3394 
Q 4388 3394 4653 3120 
Q 4919 2847 4919 2278 
L 4919 0 
L 4359 0 
L 4359 2091 
Q 4359 2428 4304 2576 
Q 4250 2725 4106 2815 
Q 3963 2906 3769 2906 
Q 3419 2906 3187 2673 
Q 2956 2441 2956 1928 
L 2956 0 
L 2394 0 
L 2394 2156 
Q 2394 2531 2256 2718 
Q 2119 2906 1806 2906 
Q 1569 2906 1367 2781 
Q 1166 2656 1075 2415 
Q 984 2175 984 1722 
L 984 0 
L 422 0 
z
" transform="scale(0.015625)"/>
      </defs>
      <use xlink:href="#ArialMT-74"/>
      <use xlink:href="#ArialMT-69" x="27.783203"/>
      <use xlink:href="#ArialMT-6d" x="50"/>
      <use xlink:href="#ArialMT-65" x="133.300781"/>
     </g>
    </g>
   </g>
   <g id="matplotlib.axis_2">
    <g id="ytick_1">
     <g id="line2d_10">
      <path d="M 53.675938 449.760706 
L 946.475937 449.760706 
" clip-path="url(#p5a6a75f08d)" style="fill: none; stroke: #ffffff; stroke-linecap: round"/>
     </g>
     <g id="line2d_11">
      <defs>
       <path id="m2e3cfdfead" d="M 0 0 
L -6 0 
" style="stroke: #262626; stroke-width: 1.25"/>
      </defs>
      <g>
       <use xlink:href="#m2e3cfdfead" x="53.675938" y="449.760706" style="fill: #262626; stroke: #262626; stroke-width: 1.25"/>
      </g>
     </g>
     <g id="text_11">
      <!-- −1.5 -->
      <g style="fill: #262626" transform="translate(22.46125 453.697503)scale(0.11 -0.11)">
       <defs>
        <path id="ArialMT-2212" d="M 3381 1997 
L 356 1997 
L 356 2522 
L 3381 2522 
L 3381 1997 
z
" transform="scale(0.015625)"/>
        <path id="ArialMT-2e" d="M 581 0 
L 581 641 
L 1222 641 
L 1222 0 
L 581 0 
z
" transform="scale(0.015625)"/>
        <path id="ArialMT-35" d="M 266 1200 
L 856 1250 
Q 922 819 1161 601 
Q 1400 384 1738 384 
Q 2144 384 2425 690 
Q 2706 997 2706 1503 
Q 2706 1984 2436 2262 
Q 2166 2541 1728 2541 
Q 1456 2541 1237 2417 
Q 1019 2294 894 2097 
L 366 2166 
L 809 4519 
L 3088 4519 
L 3088 3981 
L 1259 3981 
L 1013 2750 
Q 1425 3038 1878 3038 
Q 2478 3038 2890 2622 
Q 3303 2206 3303 1553 
Q 3303 931 2941 478 
Q 2500 -78 1738 -78 
Q 1113 -78 717 272 
Q 322 622 266 1200 
z
" transform="scale(0.015625)"/>
       </defs>
       <use xlink:href="#ArialMT-2212"/>
       <use xlink:href="#ArialMT-31" x="58.398438"/>
       <use xlink:href="#ArialMT-2e" x="114.013672"/>
       <use xlink:href="#ArialMT-35" x="141.796875"/>
      </g>
     </g>
    </g>
    <g id="ytick_2">
     <g id="line2d_12">
      <path d="M 53.675938 376.656721 
L 946.475937 376.656721 
" clip-path="url(#p5a6a75f08d)" style="fill: none; stroke: #ffffff; stroke-linecap: round"/>
     </g>
     <g id="line2d_13">
      <g>
       <use xlink:href="#m2e3cfdfead" x="53.675938" y="376.656721" style="fill: #262626; stroke: #262626; stroke-width: 1.25"/>
      </g>
     </g>
     <g id="text_12">
      <!-- −1.0 -->
      <g style="fill: #262626" transform="translate(22.46125 380.593518)scale(0.11 -0.11)">
       <defs>
        <path id="ArialMT-30" d="M 266 2259 
Q 266 3072 433 3567 
Q 600 4063 929 4331 
Q 1259 4600 1759 4600 
Q 2128 4600 2406 4451 
Q 2684 4303 2865 4023 
Q 3047 3744 3150 3342 
Q 3253 2941 3253 2259 
Q 3253 1453 3087 958 
Q 2922 463 2592 192 
Q 2263 -78 1759 -78 
Q 1097 -78 719 397 
Q 266 969 266 2259 
z
M 844 2259 
Q 844 1131 1108 757 
Q 1372 384 1759 384 
Q 2147 384 2411 759 
Q 2675 1134 2675 2259 
Q 2675 3391 2411 3762 
Q 2147 4134 1753 4134 
Q 1366 4134 1134 3806 
Q 844 3388 844 2259 
z
" transform="scale(0.015625)"/>
       </defs>
       <use xlink:href="#ArialMT-2212"/>
       <use xlink:href="#ArialMT-31" x="58.398438"/>
       <use xlink:href="#ArialMT-2e" x="114.013672"/>
       <use xlink:href="#ArialMT-30" x="141.796875"/>
      </g>
     </g>
    </g>
    <g id="ytick_3">
     <g id="line2d_14">
      <path d="M 53.675938 303.552736 
L 946.475937 303.552736 
" clip-path="url(#p5a6a75f08d)" style="fill: none; stroke: #ffffff; stroke-linecap: round"/>
     </g>
     <g id="line2d_15">
      <g>
       <use xlink:href="#m2e3cfdfead" x="53.675938" y="303.552736" style="fill: #262626; stroke: #262626; stroke-width: 1.25"/>
      </g>
     </g>
     <g id="text_13">
      <!-- −0.5 -->
      <g style="fill: #262626" transform="translate(22.46125 307.489533)scale(0.11 -0.11)">
       <use xlink:href="#ArialMT-2212"/>
       <use xlink:href="#ArialMT-30" x="58.398438"/>
       <use xlink:href="#ArialMT-2e" x="114.013672"/>
       <use xlink:href="#ArialMT-35" x="141.796875"/>
      </g>
     </g>
    </g>
    <g id="ytick_4">
     <g id="line2d_16">
      <path d="M 53.675938 230.448751 
L 946.475937 230.448751 
" clip-path="url(#p5a6a75f08d)" style="fill: none; stroke: #ffffff; stroke-linecap: round"/>
     </g>
     <g id="line2d_17">
      <g>
       <use xlink:href="#m2e3cfdfead" x="53.675938" y="230.448751" style="fill: #262626; stroke: #262626; stroke-width: 1.25"/>
      </g>
     </g>
     <g id="text_14">
      <!-- 0.0 -->
      <g style="fill: #262626" transform="translate(28.885938 234.385548)scale(0.11 -0.11)">
       <use xlink:href="#ArialMT-30"/>
       <use xlink:href="#ArialMT-2e" x="55.615234"/>
       <use xlink:href="#ArialMT-30" x="83.398438"/>
      </g>
     </g>
    </g>
    <g id="ytick_5">
     <g id="line2d_18">
      <path d="M 53.675938 157.344767 
L 946.475937 157.344767 
" clip-path="url(#p5a6a75f08d)" style="fill: none; stroke: #ffffff; stroke-linecap: round"/>
     </g>
     <g id="line2d_19">
      <g>
       <use xlink:href="#m2e3cfdfead" x="53.675938" y="157.344767" style="fill: #262626; stroke: #262626; stroke-width: 1.25"/>
      </g>
     </g>
     <g id="text_15">
      <!-- 0.5 -->
      <g style="fill: #262626" transform="translate(28.885938 161.281563)scale(0.11 -0.11)">
       <use xlink:href="#ArialMT-30"/>
       <use xlink:href="#ArialMT-2e" x="55.615234"/>
       <use xlink:href="#ArialMT-35" x="83.398438"/>
      </g>
     </g>
    </g>
    <g id="ytick_6">
     <g id="line2d_20">
      <path d="M 53.675938 84.240782 
L 946.475937 84.240782 
" clip-path="url(#p5a6a75f08d)" style="fill: none; stroke: #ffffff; stroke-linecap: round"/>
     </g>
     <g id="line2d_21">
      <g>
       <use xlink:href="#m2e3cfdfead" x="53.675938" y="84.240782" style="fill: #262626; stroke: #262626; stroke-width: 1.25"/>
      </g>
     </g>
     <g id="text_16">
      <!-- 1.0 -->
      <g style="fill: #262626" transform="translate(28.885938 88.177579)scale(0.11 -0.11)">
       <use xlink:href="#ArialMT-31"/>
       <use xlink:href="#ArialMT-2e" x="55.615234"/>
       <use xlink:href="#ArialMT-30" x="83.398438"/>
      </g>
     </g>
    </g>
    <g id="ytick_7">
     <g id="line2d_22">
      <path d="M 53.675938 11.136797 
L 946.475937 11.136797 
" clip-path="url(#p5a6a75f08d)" style="fill: none; stroke: #ffffff; stroke-linecap: round"/>
     </g>
     <g id="line2d_23">
      <g>
       <use xlink:href="#m2e3cfdfead" x="53.675938" y="11.136797" style="fill: #262626; stroke: #262626; stroke-width: 1.25"/>
      </g>
     </g>
     <g id="text_17">
      <!-- 1.5 -->
      <g style="fill: #262626" transform="translate(28.885938 15.073594)scale(0.11 -0.11)">
       <use xlink:href="#ArialMT-31"/>
       <use xlink:href="#ArialMT-2e" x="55.615234"/>
       <use xlink:href="#ArialMT-35" x="83.398438"/>
      </g>
     </g>
    </g>
    <g id="text_18">
     <!-- Current Speed (kts) -->
     <g style="fill: #55a868" transform="translate(15.935625 284.555712)rotate(-90)scale(0.12 -0.12)">
      <defs>
       <path id="ArialMT-43" d="M 3763 1606 
L 4369 1453 
Q 4178 706 3683 314 
Q 3188 -78 2472 -78 
Q 1731 -78 1267 223 
Q 803 525 561 1097 
Q 319 1669 319 2325 
Q 319 3041 592 3573 
Q 866 4106 1370 4382 
Q 1875 4659 2481 4659 
Q 3169 4659 3637 4309 
Q 4106 3959 4291 3325 
L 3694 3184 
Q 3534 3684 3231 3912 
Q 2928 4141 2469 4141 
Q 1941 4141 1586 3887 
Q 1231 3634 1087 3207 
Q 944 2781 944 2328 
Q 944 1744 1114 1308 
Q 1284 872 1643 656 
Q 2003 441 2422 441 
Q 2931 441 3284 734 
Q 3638 1028 3763 1606 
z
" transform="scale(0.015625)"/>
       <path id="ArialMT-72" d="M 416 0 
L 416 3319 
L 922 3319 
L 922 2816 
Q 1116 3169 1280 3281 
Q 1444 3394 1641 3394 
Q 1925 3394 2219 3213 
L 2025 2691 
Q 1819 2813 1613 2813 
Q 1428 2813 1281 2702 
Q 1134 2591 1072 2394 
Q 978 2094 978 1738 
L 978 0 
L 416 0 
z
" transform="scale(0.015625)"/>
       <path id="ArialMT-6e" d="M 422 0 
L 422 3319 
L 928 3319 
L 928 2847 
Q 1294 3394 1984 3394 
Q 2284 3394 2536 3286 
Q 2788 3178 2913 3003 
Q 3038 2828 3088 2588 
Q 3119 2431 3119 2041 
L 3119 0 
L 2556 0 
L 2556 2019 
Q 2556 2363 2490 2533 
Q 2425 2703 2258 2804 
Q 2091 2906 1866 2906 
Q 1506 2906 1245 2678 
Q 984 2450 984 1813 
L 984 0 
L 422 0 
z
" transform="scale(0.015625)"/>
       <path id="ArialMT-53" d="M 288 1472 
L 859 1522 
Q 900 1178 1048 958 
Q 1197 738 1509 602 
Q 1822 466 2213 466 
Q 2559 466 2825 569 
Q 3091 672 3220 851 
Q 3350 1031 3350 1244 
Q 3350 1459 3225 1620 
Q 3100 1781 2813 1891 
Q 2628 1963 1997 2114 
Q 1366 2266 1113 2400 
Q 784 2572 623 2826 
Q 463 3081 463 3397 
Q 463 3744 659 4045 
Q 856 4347 1234 4503 
Q 1613 4659 2075 4659 
Q 2584 4659 2973 4495 
Q 3363 4331 3572 4012 
Q 3781 3694 3797 3291 
L 3216 3247 
Q 3169 3681 2898 3903 
Q 2628 4125 2100 4125 
Q 1550 4125 1298 3923 
Q 1047 3722 1047 3438 
Q 1047 3191 1225 3031 
Q 1400 2872 2139 2705 
Q 2878 2538 3153 2413 
Q 3553 2228 3743 1945 
Q 3934 1663 3934 1294 
Q 3934 928 3725 604 
Q 3516 281 3123 101 
Q 2731 -78 2241 -78 
Q 1619 -78 1198 103 
Q 778 284 539 648 
Q 300 1013 288 1472 
z
" transform="scale(0.015625)"/>
       <path id="ArialMT-70" d="M 422 -1272 
L 422 3319 
L 934 3319 
L 934 2888 
Q 1116 3141 1344 3267 
Q 1572 3394 1897 3394 
Q 2322 3394 2647 3175 
Q 2972 2956 3137 2557 
Q 3303 2159 3303 1684 
Q 3303 1175 3120 767 
Q 2938 359 2589 142 
Q 2241 -75 1856 -75 
Q 1575 -75 1351 44 
Q 1128 163 984 344 
L 984 -1272 
L 422 -1272 
z
M 931 1641 
Q 931 1000 1190 694 
Q 1450 388 1819 388 
Q 2194 388 2461 705 
Q 2728 1022 2728 1688 
Q 2728 2322 2467 2637 
Q 2206 2953 1844 2953 
Q 1484 2953 1207 2617 
Q 931 2281 931 1641 
z
" transform="scale(0.015625)"/>
       <path id="ArialMT-28" d="M 1497 -1347 
Q 1031 -759 709 28 
Q 388 816 388 1659 
Q 388 2403 628 3084 
Q 909 3875 1497 4659 
L 1900 4659 
Q 1522 4009 1400 3731 
Q 1209 3300 1100 2831 
Q 966 2247 966 1656 
Q 966 153 1900 -1347 
L 1497 -1347 
z
" transform="scale(0.015625)"/>
       <path id="ArialMT-6b" d="M 425 0 
L 425 4581 
L 988 4581 
L 988 1969 
L 2319 3319 
L 3047 3319 
L 1778 2088 
L 3175 0 
L 2481 0 
L 1384 1697 
L 988 1316 
L 988 0 
L 425 0 
z
" transform="scale(0.015625)"/>
       <path id="ArialMT-73" d="M 197 991 
L 753 1078 
Q 800 744 1014 566 
Q 1228 388 1613 388 
Q 2000 388 2187 545 
Q 2375 703 2375 916 
Q 2375 1106 2209 1216 
Q 2094 1291 1634 1406 
Q 1016 1563 777 1677 
Q 538 1791 414 1992 
Q 291 2194 291 2438 
Q 291 2659 392 2848 
Q 494 3038 669 3163 
Q 800 3259 1026 3326 
Q 1253 3394 1513 3394 
Q 1903 3394 2198 3281 
Q 2494 3169 2634 2976 
Q 2775 2784 2828 2463 
L 2278 2388 
Q 2241 2644 2061 2787 
Q 1881 2931 1553 2931 
Q 1166 2931 1000 2803 
Q 834 2675 834 2503 
Q 834 2394 903 2306 
Q 972 2216 1119 2156 
Q 1203 2125 1616 2013 
Q 2213 1853 2448 1751 
Q 2684 1650 2818 1456 
Q 2953 1263 2953 975 
Q 2953 694 2789 445 
Q 2625 197 2315 61 
Q 2006 -75 1616 -75 
Q 969 -75 630 194 
Q 291 463 197 991 
z
" transform="scale(0.015625)"/>
       <path id="ArialMT-29" d="M 791 -1347 
L 388 -1347 
Q 1322 153 1322 1656 
Q 1322 2244 1188 2822 
Q 1081 3291 891 3722 
Q 769 4003 388 4659 
L 791 4659 
Q 1378 3875 1659 3084 
Q 1900 2403 1900 1659 
Q 1900 816 1576 28 
Q 1253 -759 791 -1347 
z
" transform="scale(0.015625)"/>
      </defs>
      <use xlink:href="#ArialMT-43"/>
      <use xlink:href="#ArialMT-75" x="72.216797"/>
      <use xlink:href="#ArialMT-72" x="127.832031"/>
      <use xlink:href="#ArialMT-72" x="161.132812"/>
      <use xlink:href="#ArialMT-65" x="194.433594"/>
      <use xlink:href="#ArialMT-6e" x="250.048828"/>
      <use xlink:href="#ArialMT-74" x="305.664062"/>
      <use xlink:href="#ArialMT-20" x="333.447266"/>
      <use xlink:href="#ArialMT-53" x="361.230469"/>
      <use xlink:href="#ArialMT-70" x="427.929688"/>
      <use xlink:href="#ArialMT-65" x="483.544922"/>
      <use xlink:href="#ArialMT-65" x="539.160156"/>
      <use xlink:href="#ArialMT-64" x="594.775391"/>
      <use xlink:href="#ArialMT-20" x="650.390625"/>
      <use xlink:href="#ArialMT-28" x="678.173828"/>
      <use xlink:href="#ArialMT-6b" x="711.474609"/>
      <use xlink:href="#ArialMT-74" x="761.474609"/>
      <use xlink:href="#ArialMT-73" x="789.257812"/>
      <use xlink:href="#ArialMT-29" x="839.257812"/>
     </g>
    </g>
   </g>
   <g id="line2d_24">
    <path d="M 94.257756 71.91002 
L 98.76998 78.369095 
L 103.282204 85.255858 
L 107.794429 92.570309 
L 112.306653 100.312448 
L 116.818878 108.482276 
L 121.331102 117.079792 
L 126.407355 127.263219 
L 131.483607 137.987939 
L 136.559859 149.253952 
L 141.636112 161.061258 
L 146.712364 173.409857 
L 155.736813 196.1949 
L 168.709458 229.487143 
L 181.682103 263.385492 
L 194.654749 297.889946 
L 201.987113 317.2941 
L 207.063366 329.995473 
L 212.139618 342.056711 
L 216.651842 352.240415 
L 221.164067 361.918333 
L 225.676291 371.090465 
L 230.188516 379.756812 
L 234.70074 387.917373 
L 239.212964 395.572149 
L 243.161161 401.855175 
L 247.109357 407.75096 
L 251.057554 413.259502 
L 254.441722 417.62002 
L 257.261862 420.865709 
L 260.082002 423.748586 
L 262.902143 426.268653 
L 265.158255 428.023482 
L 267.414367 429.546112 
L 269.670479 430.836543 
L 271.926591 431.894775 
L 274.182704 432.720808 
L 276.438816 433.314642 
L 278.694928 433.676277 
L 280.95104 433.805712 
L 283.207152 433.702949 
L 285.463265 433.367986 
L 287.719377 432.800825 
L 289.975489 432.001464 
L 292.231601 430.969904 
L 294.487713 429.706145 
L 296.743826 428.210187 
L 298.999938 426.482029 
L 301.25605 424.521673 
L 304.07619 421.744698 
L 306.89633 418.604911 
L 309.716471 415.102314 
L 312.536611 411.236905 
L 315.356751 407.008685 
L 318.740919 401.490531 
L 323.253144 393.704954 
L 327.765368 385.482945 
L 332.277593 376.824504 
L 337.353845 366.562086 
L 342.430098 355.747308 
L 347.50635 344.380171 
L 352.582602 332.460676 
L 368.939416 292.784743 
L 397.140818 223.896207 
L 426.470277 152.221968 
L 430.982501 142.2352 
L 434.930698 134.004618 
L 438.878894 126.248021 
L 442.82709 118.965408 
L 446.775287 112.15678 
L 450.723483 105.822136 
L 454.671679 99.961476 
L 458.055848 95.315307 
L 461.440016 91.017371 
L 464.824184 87.067668 
L 468.208353 83.466199 
L 471.028493 80.754893 
L 473.284605 78.847093 
L 475.540717 77.179065 
L 477.79683 75.75081 
L 480.052942 74.562327 
L 482.309054 73.613618 
L 484.565166 72.90468 
L 486.821278 72.435516 
L 489.077391 72.206124 
L 491.333503 72.216505 
L 493.589615 72.466659 
L 495.845727 72.956585 
L 498.101839 73.686284 
L 500.357952 74.655756 
L 502.614064 75.865001 
L 504.870176 77.314018 
L 507.126288 79.002807 
L 509.3824 80.93137 
L 512.202541 83.675248 
L 516.150737 87.899338 
L 520.098933 92.465186 
L 524.04713 97.372794 
L 527.995326 102.62216 
L 531.943522 108.213285 
L 536.455747 115.021622 
L 540.967971 122.276339 
L 545.480196 129.977434 
L 549.99242 138.124908 
L 554.504644 146.718761 
L 559.016869 155.758992 
L 564.093121 166.462815 
L 569.169374 177.731587 
L 574.245626 189.565306 
L 580.449935 204.674448 
L 588.910355 225.831518 
L 597.370776 247.585832 
L 605.831197 269.937391 
L 614.291618 292.886193 
L 622.18801 314.3336 
L 627.264263 327.392075 
L 632.340515 339.838835 
L 637.416768 351.673881 
L 642.49302 362.897213 
L 647.005244 372.359971 
L 651.517469 381.339399 
L 656.029693 389.835497 
L 660.541918 397.848265 
L 665.054142 405.377704 
L 667.874282 409.725304 
L 670.694423 413.658384 
L 673.514563 417.176945 
L 676.334703 420.280987 
L 678.590815 422.465767 
L 680.846927 424.385255 
L 683.10304 426.03945 
L 685.359152 427.428354 
L 687.615264 428.551965 
L 689.871376 429.410284 
L 692.127488 430.003311 
L 694.383601 430.331045 
L 696.639713 430.393488 
L 698.895825 430.190638 
L 701.151937 429.722496 
L 703.408049 428.989062 
L 705.664162 427.990335 
L 707.920274 426.726317 
L 710.176386 425.197006 
L 712.432498 423.402403 
L 714.68861 421.342508 
L 716.944723 419.017321 
L 719.200835 416.426841 
L 722.020975 412.815675 
L 724.841115 408.789989 
L 727.661256 404.363674 
L 731.609452 397.718379 
L 735.557648 390.600934 
L 739.505845 383.011337 
L 743.454041 374.94959 
L 747.402237 366.415691 
L 751.914462 356.084521 
L 756.426686 345.136663 
L 760.938911 333.572119 
L 770.527387 307.971462 
L 780.115864 281.754031 
L 790.268369 253.323159 
L 800.420874 224.201869 
L 810.573379 194.390162 
L 820.725884 163.888036 
L 832.006445 129.871751 
L 836.518669 117.286448 
L 840.466866 106.881386 
L 844.415062 97.042928 
L 848.363258 87.771075 
L 852.311455 79.065828 
L 856.259651 70.927185 
L 860.207847 63.355148 
L 863.592016 57.315801 
L 866.976184 51.723572 
L 869.796324 47.544114 
L 872.616464 43.825047 
L 874.872577 41.181275 
L 877.128689 38.832153 
L 879.384801 36.777682 
L 881.640913 35.01786 
L 883.897025 33.552689 
L 886.153138 32.382167 
L 888.40925 31.506296 
L 890.665362 30.925075 
L 892.921474 30.638504 
L 895.177586 30.646583 
L 897.433699 30.949313 
L 899.689811 31.546692 
L 901.945923 32.438722 
L 904.202035 33.625401 
L 905.894119 34.708775 
L 905.894119 34.708775 
" clip-path="url(#p5a6a75f08d)" style="fill: none; stroke: #55a868; stroke-width: 1.5; stroke-linecap: round"/>
   </g>
   <g id="line2d_25">
    <path d="M 53.675938 230.448751 
L 946.475937 230.448751 
" clip-path="url(#p5a6a75f08d)" style="fill: none; stroke-dasharray: 1.5,2.475; stroke-dashoffset: 0; stroke: #55a868; stroke-opacity: 0.8; stroke-width: 1.5"/>
   </g>
   <g id="line2d_26">
    <path d="M 195.529432 453.965712 
L 195.529432 10.445712 
" clip-path="url(#p5a6a75f08d)" style="fill: none; stroke: #c44e52; stroke-opacity: 0.6; stroke-width: 1.5; stroke-linecap: round"/>
   </g>
   <g id="patch_3">
    <path d="M 53.675938 453.965712 
L 53.675938 10.445712 
" style="fill: none; stroke: #ffffff; stroke-width: 1.25; stroke-linejoin: miter; stroke-linecap: square"/>
   </g>
   <g id="patch_4">
    <path d="M 946.475937 453.965712 
L 946.475937 10.445712 
" style="fill: none; stroke: #ffffff; stroke-width: 1.25; stroke-linejoin: miter; stroke-linecap: square"/>
   </g>
   <g id="patch_5">
    <path d="M 53.675937 453.965712 
L 946.475937 453.965712 
" style="fill: none; stroke: #ffffff; stroke-width: 1.25; stroke-linejoin: miter; stroke-linecap: square"/>
   </g>
   <g id="patch_6">
    <path d="M 53.675937 10.445712 
L 946.475937 10.445712 
" style="fill: none; stroke: #ffffff; stroke-width: 1.25; stroke-linejoin: miter; stroke-linecap: square"/>
   </g>
  </g>
  <g id="axes_2">
   <g id="matplotlib.axis_3">
    <g id="ytick_8">
     <g id="line2d_27">
      <defs>
       <path id="m78f696e1a3" d="M 0 0 
L 6 0 
" style="stroke: #262626; stroke-width: 1.25"/>
      </defs>
      <g>
       <use xlink:href="#m78f696e1a3" x="946.475937" y="416.437704" style="fill: #262626; stroke: #262626; stroke-width: 1.25"/>
      </g>
     </g>
     <g id="text_19">
      <!-- 0 -->
      <g style="fill: #262626" transform="translate(955.975937 420.374501)scale(0.11 -0.11)">
       <use xlink:href="#ArialMT-30"/>
      </g>
     </g>
    </g>
    <g id="ytick_9">
     <g id="line2d_28">
      <g>
       <use xlink:href="#m78f696e1a3" x="946.475937" y="340.605945" style="fill: #262626; stroke: #262626; stroke-width: 1.25"/>
      </g>
     </g>
     <g id="text_20">
      <!-- 1 -->
      <g style="fill: #262626" transform="translate(955.975937 344.542742)scale(0.11 -0.11)">
       <use xlink:href="#ArialMT-31"/>
      </g>
     </g>
    </g>
    <g id="ytick_10">
     <g id="line2d_29">
      <g>
       <use xlink:href="#m78f696e1a3" x="946.475937" y="264.774185" style="fill: #262626; stroke: #262626; stroke-width: 1.25"/>
      </g>
     </g>
     <g id="text_21">
      <!-- 2 -->
      <g style="fill: #262626" transform="translate(955.975937 268.710982)scale(0.11 -0.11)">
       <use xlink:href="#ArialMT-32"/>
      </g>
     </g>
    </g>
    <g id="ytick_11">
     <g id="line2d_30">
      <g>
       <use xlink:href="#m78f696e1a3" x="946.475937" y="188.942426" style="fill: #262626; stroke: #262626; stroke-width: 1.25"/>
      </g>
     </g>
     <g id="text_22">
      <!-- 3 -->
      <g style="fill: #262626" transform="translate(955.975937 192.879223)scale(0.11 -0.11)">
       <use xlink:href="#ArialMT-33"/>
      </g>
     </g>
    </g>
    <g id="ytick_12">
     <g id="line2d_31">
      <g>
       <use xlink:href="#m78f696e1a3" x="946.475937" y="113.110667" style="fill: #262626; stroke: #262626; stroke-width: 1.25"/>
      </g>
     </g>
     <g id="text_23">
      <!-- 4 -->
      <g style="fill: #262626" transform="translate(955.975937 117.047463)scale(0.11 -0.11)">
       <defs>
        <path id="ArialMT-34" d="M 2069 0 
L 2069 1097 
L 81 1097 
L 81 1613 
L 2172 4581 
L 2631 4581 
L 2631 1613 
L 3250 1613 
L 3250 1097 
L 2631 1097 
L 2631 0 
L 2069 0 
z
M 2069 1613 
L 2069 3678 
L 634 1613 
L 2069 1613 
z
" transform="scale(0.015625)"/>
       </defs>
       <use xlink:href="#ArialMT-34"/>
      </g>
     </g>
    </g>
    <g id="ytick_13">
     <g id="line2d_32">
      <g>
       <use xlink:href="#m78f696e1a3" x="946.475937" y="37.278907" style="fill: #262626; stroke: #262626; stroke-width: 1.25"/>
      </g>
     </g>
     <g id="text_24">
      <!-- 5 -->
      <g style="fill: #262626" transform="translate(955.975937 41.215704)scale(0.11 -0.11)">
       <use xlink:href="#ArialMT-35"/>
      </g>
     </g>
    </g>
    <g id="text_25">
     <!-- Tide Height (ft) -->
     <g style="fill: #4c72b0" transform="translate(974.828594 271.657587)rotate(-90)scale(0.12 -0.12)">
      <defs>
       <path id="ArialMT-48" d="M 513 0 
L 513 4581 
L 1119 4581 
L 1119 2700 
L 3500 2700 
L 3500 4581 
L 4106 4581 
L 4106 0 
L 3500 0 
L 3500 2159 
L 1119 2159 
L 1119 0 
L 513 0 
z
" transform="scale(0.015625)"/>
       <path id="ArialMT-67" d="M 319 -275 
L 866 -356 
Q 900 -609 1056 -725 
Q 1266 -881 1628 -881 
Q 2019 -881 2231 -725 
Q 2444 -569 2519 -288 
Q 2563 -116 2559 434 
Q 2191 0 1641 0 
Q 956 0 581 494 
Q 206 988 206 1678 
Q 206 2153 378 2554 
Q 550 2956 876 3175 
Q 1203 3394 1644 3394 
Q 2231 3394 2613 2919 
L 2613 3319 
L 3131 3319 
L 3131 450 
Q 3131 -325 2973 -648 
Q 2816 -972 2473 -1159 
Q 2131 -1347 1631 -1347 
Q 1038 -1347 672 -1080 
Q 306 -813 319 -275 
z
M 784 1719 
Q 784 1066 1043 766 
Q 1303 466 1694 466 
Q 2081 466 2343 764 
Q 2606 1063 2606 1700 
Q 2606 2309 2336 2618 
Q 2066 2928 1684 2928 
Q 1309 2928 1046 2623 
Q 784 2319 784 1719 
z
" transform="scale(0.015625)"/>
       <path id="ArialMT-66" d="M 556 0 
L 556 2881 
L 59 2881 
L 59 3319 
L 556 3319 
L 556 3672 
Q 556 4006 616 4169 
Q 697 4388 901 4523 
Q 1106 4659 1475 4659 
Q 1713 4659 2000 4603 
L 1916 4113 
Q 1741 4144 1584 4144 
Q 1328 4144 1222 4034 
Q 1116 3925 1116 3625 
L 1116 3319 
L 1763 3319 
L 1763 2881 
L 1116 2881 
L 1116 0 
L 556 0 
z
" transform="scale(0.015625)"/>
      </defs>
      <use xlink:href="#ArialMT-54"/>
      <use xlink:href="#ArialMT-69" x="57.333984"/>
      <use xlink:href="#ArialMT-64" x="79.550781"/>
      <use xlink:href="#ArialMT-65" x="135.166016"/>
      <use xlink:href="#ArialMT-20" x="190.78125"/>
      <use xlink:href="#ArialMT-48" x="218.564453"/>
      <use xlink:href="#ArialMT-65" x="290.78125"/>
      <use xlink:href="#ArialMT-69" x="346.396484"/>
      <use xlink:href="#ArialMT-67" x="368.613281"/>
      <use xlink:href="#ArialMT-68" x="424.228516"/>
      <use xlink:href="#ArialMT-74" x="479.84375"/>
      <use xlink:href="#ArialMT-20" x="507.626953"/>
      <use xlink:href="#ArialMT-28" x="535.410156"/>
      <use xlink:href="#ArialMT-66" x="568.710938"/>
      <use xlink:href="#ArialMT-74" x="596.494141"/>
      <use xlink:href="#ArialMT-29" x="624.277344"/>
     </g>
    </g>
   </g>
   <g id="PathCollection_1">
    <path d="M 143.328196 33.605712 
C 144.123805 33.605712 144.886936 33.289613 145.449516 32.727033 
C 146.012097 32.164452 146.328196 31.401322 146.328196 30.605712 
C 146.328196 29.810103 146.012097 29.046973 145.449516 28.484392 
C 144.886936 27.921811 144.123805 27.605712 143.328196 27.605712 
C 142.532587 27.605712 141.769456 27.921811 141.206876 28.484392 
C 140.644295 29.046973 140.328196 29.810103 140.328196 30.605712 
C 140.328196 31.401322 140.644295 32.164452 141.206876 32.727033 
C 141.769456 33.289613 142.532587 33.605712 143.328196 33.605712 
z
" clip-path="url(#p5a6a75f08d)" style="fill: #4c72b0; stroke: #ffffff; stroke-width: 0.48"/>
    <path d="M 359.914967 436.803177 
C 360.710576 436.803177 361.473707 436.487078 362.036287 435.924497 
C 362.598868 435.361917 362.914967 434.598786 362.914967 433.803177 
C 362.914967 433.007568 362.598868 432.244437 362.036287 431.681857 
C 361.473707 431.119276 360.710576 430.803177 359.914967 430.803177 
C 359.119358 430.803177 358.356228 431.119276 357.793647 431.681857 
C 357.231066 432.244437 356.914967 433.007568 356.914967 433.803177 
C 356.914967 434.598786 357.231066 435.361917 357.793647 435.924497 
C 358.356228 436.487078 359.119358 436.803177 359.914967 436.803177 
z
" clip-path="url(#p5a6a75f08d)" style="fill: #4c72b0; stroke: #ffffff; stroke-width: 0.48"/>
    <path d="M 566.349233 78.573946 
C 567.144843 78.573946 567.907973 78.257847 568.470554 77.695266 
C 569.033134 77.132685 569.349233 76.369555 569.349233 75.573946 
C 569.349233 74.778336 569.033134 74.015206 568.470554 73.452625 
C 567.907973 72.890045 567.144843 72.573946 566.349233 72.573946 
C 565.553624 72.573946 564.790494 72.890045 564.227913 73.452625 
C 563.665332 74.015206 563.349233 74.778336 563.349233 75.573946 
C 563.349233 76.369555 563.665332 77.132685 564.227913 77.695266 
C 564.790494 78.257847 565.553624 78.573946 566.349233 78.573946 
z
" clip-path="url(#p5a6a75f08d)" style="fill: #4c72b0; stroke: #ffffff; stroke-width: 0.48"/>
    <path d="M 766.015163 431.646617 
C 766.810772 431.646617 767.573903 431.330518 768.136483 430.767938 
C 768.699064 430.205357 769.015163 429.442227 769.015163 428.646617 
C 769.015163 427.851008 768.699064 427.087878 768.136483 426.525297 
C 767.573903 425.962716 766.810772 425.646617 766.015163 425.646617 
C 765.219554 425.646617 764.456423 425.962716 763.893843 426.525297 
C 763.331262 427.087878 763.015163 427.851008 763.015163 428.646617 
C 763.015163 429.442227 763.331262 430.205357 763.893843 430.767938 
C 764.456423 431.330518 765.219554 431.646617 766.015163 431.646617 
z
" clip-path="url(#p5a6a75f08d)" style="fill: #4c72b0; stroke: #ffffff; stroke-width: 0.48"/>
   </g>
   <g id="line2d_33">
    <path d="M 94.257756 71.444023 
L 97.641924 65.982584 
L 101.026092 60.912998 
L 104.410261 56.235264 
L 107.794429 51.949382 
L 111.178597 48.055353 
L 114.562765 44.553176 
L 117.382906 41.934027 
L 120.203046 39.586998 
L 123.023186 37.512088 
L 125.843326 35.709298 
L 128.663467 34.178628 
L 131.483607 32.920077 
L 134.303747 31.933647 
L 137.123887 31.219335 
L 139.944028 30.777144 
L 142.764168 30.607072 
L 145.584308 30.70912 
L 148.404448 31.083288 
L 151.224589 31.729575 
L 154.044729 32.647982 
L 156.864869 33.838509 
L 159.685009 35.301156 
L 162.50515 37.035922 
L 165.32529 39.042808 
L 168.14543 41.321814 
L 170.96557 43.872939 
L 173.785711 46.696184 
L 176.605851 49.791549 
L 179.990019 53.865184 
L 183.374188 58.330672 
L 186.758356 63.188013 
L 190.142524 68.437206 
L 193.526692 74.078251 
L 196.910861 80.111148 
L 200.859057 87.644787 
L 204.807253 95.711779 
L 208.75545 104.312127 
L 212.703646 113.445829 
L 216.651842 123.112886 
L 220.600039 133.313297 
L 225.112263 145.623998 
L 229.624488 158.631324 
L 234.136712 172.335278 
L 238.648936 186.735857 
L 243.161161 201.833063 
L 248.237413 219.650106 
L 261.210058 266.045372 
L 266.286311 282.788737 
L 270.798535 296.932938 
L 275.31076 310.381808 
L 279.822984 323.135347 
L 284.335208 335.193554 
L 288.847433 346.55643 
L 292.795629 355.928558 
L 296.743826 364.768322 
L 300.692022 373.075723 
L 304.640218 380.850762 
L 308.588415 388.093437 
L 311.972583 393.877727 
L 315.356751 399.270893 
L 318.740919 404.272935 
L 322.125088 408.883853 
L 325.509256 413.103647 
L 328.893424 416.932318 
L 331.713565 419.824101 
L 334.533705 422.444271 
L 337.353845 424.792827 
L 340.173985 426.869769 
L 342.994126 428.675097 
L 345.814266 430.208812 
L 348.634406 431.470912 
L 351.454546 432.461399 
L 354.274687 433.180272 
L 357.094827 433.627531 
L 359.914967 433.803177 
L 362.735107 433.707209 
L 365.555248 433.339626 
L 368.375388 432.70043 
L 371.195528 431.789621 
L 374.015668 430.607197 
L 376.835809 429.15316 
L 379.655949 427.427508 
L 382.476089 425.430243 
L 385.296229 423.161365 
L 388.11637 420.620872 
L 390.93651 417.808766 
L 393.75665 414.725045 
L 397.140818 410.666051 
L 400.524987 406.215933 
L 403.909155 401.37469 
L 407.293323 396.142324 
L 410.677492 390.518834 
L 414.06166 384.50422 
L 418.009856 376.992834 
L 421.958053 368.949084 
L 425.906249 360.372971 
L 429.854445 351.264495 
L 433.802642 341.623657 
L 437.750838 331.450455 
L 442.263062 319.172065 
L 446.775287 306.198344 
L 451.287511 292.529292 
L 455.799736 278.164908 
L 460.31196 263.105193 
L 471.028493 226.696853 
L 475.540717 212.442584 
L 480.052942 198.893957 
L 484.565166 186.050973 
L 489.077391 173.91363 
L 493.589615 162.481929 
L 497.537811 153.058037 
L 501.486008 144.174403 
L 505.434204 135.831025 
L 509.3824 128.027905 
L 513.330597 120.765042 
L 516.714765 114.969731 
L 520.098933 109.571344 
L 523.483102 104.56988 
L 526.86727 99.96534 
L 530.251438 95.757723 
L 533.635606 91.94703 
L 536.455747 89.074658 
L 539.275887 86.477928 
L 542.096027 84.156838 
L 544.916167 82.11139 
L 547.736308 80.341584 
L 550.556448 78.847419 
L 553.376588 77.628895 
L 556.196728 76.686012 
L 559.016869 76.018771 
L 561.837009 75.627171 
L 564.657149 75.511213 
L 567.477289 75.670896 
L 570.29743 76.10622 
L 573.11757 76.817186 
L 575.93771 77.803793 
L 578.75785 79.066041 
L 581.577991 80.603931 
L 584.398131 82.417462 
L 587.218271 84.506634 
L 590.038411 86.871448 
L 592.858552 89.511903 
L 595.678692 92.428 
L 598.498832 95.619738 
L 601.883 99.81367 
L 605.267169 104.404526 
L 608.651337 109.392305 
L 612.035505 114.777008 
L 615.419674 120.558634 
L 618.803842 126.737184 
L 622.752038 134.447159 
L 626.700235 142.697392 
L 630.648431 151.487881 
L 634.596627 160.818628 
L 638.544824 170.689632 
L 642.49302 181.100893 
L 647.005244 193.661016 
L 651.517469 206.926781 
L 656.029693 220.898187 
L 660.541918 235.575236 
L 665.054142 250.957927 
L 671.822479 274.234578 
L 676.334703 288.871536 
L 680.846927 302.779943 
L 685.359152 315.959799 
L 689.871376 328.411105 
L 693.819573 338.708358 
L 697.767769 348.447814 
L 701.715965 357.629473 
L 705.664162 366.253336 
L 709.612358 374.319402 
L 713.560554 381.827671 
L 716.944723 387.81937 
L 720.328891 393.401258 
L 723.713059 398.573337 
L 727.097228 403.335606 
L 730.481396 407.688066 
L 733.865564 411.630715 
L 736.685704 414.603207 
L 739.505845 417.291109 
L 742.325985 419.69442 
L 745.146125 421.813142 
L 747.966265 423.647273 
L 750.786406 425.196814 
L 753.606546 426.461765 
L 756.426686 427.442125 
L 759.246826 428.137896 
L 761.502939 428.489607 
L 763.759051 428.659181 
L 766.015163 428.646617 
L 768.271275 428.451916 
L 770.527387 428.075076 
L 772.7835 427.516099 
L 775.60364 426.561247 
L 778.42378 425.321804 
L 781.24392 423.797771 
L 784.064061 421.989148 
L 786.884201 419.895935 
L 789.704341 417.518131 
L 792.524481 414.855738 
L 795.344622 411.908754 
L 798.164762 408.67718 
L 801.54893 404.423633 
L 804.933098 399.760275 
L 808.317267 394.687108 
L 811.701435 389.20413 
L 815.085603 383.311343 
L 818.469772 377.008746 
L 822.417968 369.137762 
L 826.366164 360.708981 
L 830.314361 351.722404 
L 834.262557 342.17803 
L 838.210753 332.075859 
L 842.15895 321.415891 
L 846.671174 308.550055 
L 851.183398 294.955667 
L 855.695623 280.632729 
L 860.207847 265.58124 
L 864.720072 249.8012 
L 869.796324 231.177809 
L 876.564661 206.052297 
L 881.640913 188.252834 
L 886.153138 173.207418 
L 890.665362 158.892666 
L 895.177586 145.308577 
L 899.689811 132.455152 
L 904.202035 120.33239 
L 905.894119 115.974728 
L 905.894119 115.974728 
" clip-path="url(#p5a6a75f08d)" style="fill: none; stroke: #4c72b0; stroke-width: 1.5; stroke-linecap: round"/>
   </g>
   <g id="line2d_34">
    <path d="M 53.675938 416.437704 
L 946.475937 416.437704 
" clip-path="url(#p5a6a75f08d)" style="fill: none; stroke-dasharray: 1.5,2.475; stroke-dashoffset: 0; stroke: #4c72b0; stroke-opacity: 0.8; stroke-width: 1.5"/>
   </g>
   <g id="patch_7">
    <path d="M 53.675938 453.965712 
L 53.675938 10.445712 
" style="fill: none; stroke: #ffffff; stroke-width: 1.25; stroke-linejoin: miter; stroke-linecap: square"/>
   </g>
   <g id="patch_8">
    <path d="M 946.475937 453.965712 
L 946.475937 10.445712 
" style="fill: none; stroke: #ffffff; stroke-width: 1.25; stroke-linejoin: miter; stroke-linecap: square"/>
   </g>
   <g id="patch_9">
    <path d="M 53.675937 453.965712 
L 946.475937 453.965712 
" style="fill: none; stroke: #ffffff; stroke-width: 1.25; stroke-linejoin: miter; stroke-linecap: square"/>
   </g>
   <g id="patch_10">
    <path d="M 53.675937 10.445712 
L 946.475937 10.445712 
" style="fill: none; stroke: #ffffff; stroke-width: 1.25; stroke-linejoin: miter; stroke-linecap: square"/>
   </g>
   <g id="text_26">
    <!-- high tide -->
    <g style="fill: #4c72b0" transform="translate(119.328196 22.605712)scale(0.12 -0.12)">
     <use xlink:href="#ArialMT-68"/>
     <use xlink:href="#ArialMT-69" x="55.615234"/>
     <use xlink:href="#ArialMT-67" x="77.832031"/>
     <use xlink:href="#ArialMT-68" x="133.447266"/>
     <use xlink:href="#ArialMT-20" x="189.0625"/>
     <use xlink:href="#ArialMT-74" x="216.845703"/>
     <use xlink:href="#ArialMT-69" x="244.628906"/>
     <use xlink:href="#ArialMT-64" x="266.845703"/>
     <use xlink:href="#ArialMT-65" x="322.460938"/>
    </g>
   </g>
   <g id="text_27">
    <!-- low tide -->
    <g style="fill: #4c72b0" transform="translate(335.914967 425.803177)scale(0.12 -0.12)">
     <defs>
      <path id="ArialMT-6c" d="M 409 0 
L 409 4581 
L 972 4581 
L 972 0 
L 409 0 
z
" transform="scale(0.015625)"/>
      <path id="ArialMT-6f" d="M 213 1659 
Q 213 2581 725 3025 
Q 1153 3394 1769 3394 
Q 2453 3394 2887 2945 
Q 3322 2497 3322 1706 
Q 3322 1066 3130 698 
Q 2938 331 2570 128 
Q 2203 -75 1769 -75 
Q 1072 -75 642 372 
Q 213 819 213 1659 
z
M 791 1659 
Q 791 1022 1069 705 
Q 1347 388 1769 388 
Q 2188 388 2466 706 
Q 2744 1025 2744 1678 
Q 2744 2294 2464 2611 
Q 2184 2928 1769 2928 
Q 1347 2928 1069 2612 
Q 791 2297 791 1659 
z
" transform="scale(0.015625)"/>
      <path id="ArialMT-77" d="M 1034 0 
L 19 3319 
L 600 3319 
L 1128 1403 
L 1325 691 
Q 1338 744 1497 1375 
L 2025 3319 
L 2603 3319 
L 3100 1394 
L 3266 759 
L 3456 1400 
L 4025 3319 
L 4572 3319 
L 3534 0 
L 2950 0 
L 2422 1988 
L 2294 2553 
L 1622 0 
L 1034 0 
z
" transform="scale(0.015625)"/>
     </defs>
     <use xlink:href="#ArialMT-6c"/>
     <use xlink:href="#ArialMT-6f" x="22.216797"/>
     <use xlink:href="#ArialMT-77" x="77.832031"/>
     <use xlink:href="#ArialMT-20" x="150.048828"/>
     <use xlink:href="#ArialMT-74" x="177.832031"/>
     <use xlink:href="#ArialMT-69" x="205.615234"/>
     <use xlink:href="#ArialMT-64" x="227.832031"/>
     <use xlink:href="#ArialMT-65" x="283.447266"/>
    </g>
   </g>
   <g id="text_28">
    <!-- high tide -->
    <g style="fill: #4c72b0" transform="translate(542.349233 67.573946)scale(0.12 -0.12)">
     <use xlink:href="#ArialMT-68"/>
     <use xlink:href="#ArialMT-69" x="55.615234"/>
     <use xlink:href="#ArialMT-67" x="77.832031"/>
     <use xlink:href="#ArialMT-68" x="133.447266"/>
     <use xlink:href="#ArialMT-20" x="189.0625"/>
     <use xlink:href="#ArialMT-74" x="216.845703"/>
     <use xlink:href="#ArialMT-69" x="244.628906"/>
     <use xlink:href="#ArialMT-64" x="266.845703"/>
     <use xlink:href="#ArialMT-65" x="322.460938"/>
    </g>
   </g>
   <g id="text_29">
    <!-- low tide -->
    <g style="fill: #4c72b0" transform="translate(742.015163 420.646617)scale(0.12 -0.12)">
     <use xlink:href="#ArialMT-6c"/>
     <use xlink:href="#ArialMT-6f" x="22.216797"/>
     <use xlink:href="#ArialMT-77" x="77.832031"/>
     <use xlink:href="#ArialMT-20" x="150.048828"/>
     <use xlink:href="#ArialMT-74" x="177.832031"/>
     <use xlink:href="#ArialMT-69" x="205.615234"/>
     <use xlink:href="#ArialMT-64" x="227.832031"/>
     <use xlink:href="#ArialMT-65" x="283.447266"/>
    </g>
   </g>
  </g>
 </g>
 <defs>
  <clipPath id="p5a6a75f08d">
   <rect x="53.675938" y="10.445712" width="892.8" height="443.52"/>
  </clipPath>
 </defs>
</svg>
