<?xml version="1.0" encoding="UTF-8"?>
<svg xmlns="http://www.w3.org/2000/svg" width="250px" height="250px" viewBox="0 0 125 125">
	<title>NYCS Bullet, Standard Set - B Local</title>
	<circle cx="62.5" cy="62.5" r="50" fill="#FF6319"/>
	<path d="M85.5,72.1c0-3.2-0.933-5.967-2.8-8.3c-2.067-2.533-4.8-3.967-8.2-4.3l0.2,0.2l-0.1,0.2c5.733-1.133,8.6-4.567,8.6-10.3c0-4.067-1.467-7.233-4.4-9.5c-2.667-2.133-6.2-3.2-10.6-3.2H44.5v50.4H66c6.067,0,10.633-0.933,13.7-2.8C83.567,82.033,85.5,77.9,85.5,72.1zM72.9,50.8c0,4.067-2.533,6.1-7.6,6.1H54.4V44.8h10.9C70.367,44.8,72.9,46.8,72.9,50.8z M75.2,71.8c0,4.467-2.967,6.7-8.9,6.7H54.4V64.4h11.9C72.233,64.4,75.2,66.867,75.2,71.8z" fill="#FFF"/>
</svg>
