<?xml version="1.0" encoding="UTF-8"?>
<svg xmlns="http://www.w3.org/2000/svg" width="250px" height="250px" viewBox="0 0 125 125">
	<title>NYCS Bullet, Standard Set - Q Local</title>
	<circle cx="62.5" cy="62.5" r="50" fill="#FCCC0A"/>
	<path d="M91.1,80.9c-3.533,0-6.467-1.233-8.8-3.7c2.6-4.333,3.9-9.267,3.9-14.8c0-7.4-2.133-13.6-6.4-18.6c-4.467-5.267-10.367-7.9-17.7-7.9s-13.233,2.633-17.7,7.9C40.133,48.8,38,55,38,62.4c0,7.333,2.133,13.5,6.4,18.5c4.533,5.267,10.433,7.9,17.7,7.9c5.667,0,10.533-1.7,14.6-5.1c2.933,3.067,6.8,5.233,11.6,6.5L91.1,80.9zM75.9,62.4c0,4.733-1.1,8.667-3.3,11.8c-2.467,3.6-5.967,5.4-10.5,5.4s-8.033-1.8-10.5-5.4c-2.2-3.133-3.3-7.067-3.3-11.8c0-4.8,1.1-8.767,3.3-11.9c2.467-3.6,5.967-5.4,10.5-5.4s8.033,1.8,10.5,5.4C74.8,53.633,75.9,57.6,75.9,62.4z"/>
</svg>
